<svg xmlns="http://www.w3.org/2000/svg"  viewBox="0 0 48 48" width="50px" height="50px"><path d="M 10.679688 5 C 8.651885 5 7.0184049 6.7781714 7.1914062 8.7988281 L 9.7695312 38.884766 C 9.9678411 41.198877 11.930823 43 14.253906 43 L 22.746094 43 C 24.554939 43 26.13461 41.902047 26.84375 40.326172 C 28.77171 41.983433 31.267898 43 34 43 C 40.057558 43 45 38.057558 45 32 C 45 28.387614 43.234888 25.181406 40.53125 23.173828 C 42.781559 22.124404 45 19.687175 45 15.5 A 1.50015 1.50015 0 0 0 43.685547 14.011719 C 43.685547 14.011719 43.111254 13.931844 42.234375 13.964844 C 41.357496 13.997834 40.177879 14.143745 38.972656 14.595703 C 37.197662 15.261326 35.356082 16.811118 34.5 19.369141 L 33.980469 16.253906 A 1.5007834 1.5007834 0 1 0 31.019531 16.746094 L 31.767578 21.234375 C 30.655794 21.464538 29.605635 21.862071 28.642578 22.400391 L 29.808594 8.7988281 C 29.981595 6.7781714 28.348116 5 26.320312 5 L 10.679688 5 z M 10.679688 8 L 26.320312 8 C 26.63651 8 26.847311 8.2276255 26.820312 8.5429688 L 26.351562 14 L 10.648438 14 L 10.179688 8.5429688 C 10.152689 8.2276254 10.36349 8 10.679688 8 z M 10.904297 17 L 26.095703 17 L 24.240234 38.626953 C 24.172544 39.416841 23.53901 40 22.746094 40 L 14.253906 40 C 13.46099 40 12.827456 39.416841 12.759766 38.626953 L 10.904297 17 z M 41.822266 17.058594 C 41.43523 19.258694 40.279329 20.105701 38.972656 20.595703 C 38.335338 20.834698 37.733432 20.890308 37.177734 20.941406 C 37.56477 18.741306 38.720671 17.894299 40.027344 17.404297 C 40.664662 17.165302 41.266568 17.109692 41.822266 17.058594 z M 34 24 C 38.436442 24 42 27.563558 42 32 C 42 36.436442 38.436442 40 34 40 C 31.263082 40 28.875297 38.628893 27.431641 36.546875 L 28.300781 26.400391 C 29.75342 24.921171 31.756734 24 34 24 z M 35 31 A 1 1 0 0 0 35 33 A 1 1 0 0 0 35 31 z M 39 31 A 1 1 0 0 0 39 33 A 1 1 0 0 0 39 31 z M 37 34 A 1 1 0 0 0 37 36 A 1 1 0 0 0 37 34 z"/></svg>