<svg xmlns="http://www.w3.org/2000/svg"  viewBox="0 0 48 48" width="50px" height="50px"><path d="M 18.433594 6 A 1.50015 1.50015 0 0 0 17.59375 6.2558594 L 8.9296875 12.103516 A 1.50015 1.50015 0 0 0 8.3945312 12.466797 L 8.3144531 12.519531 A 1.50015 1.50015 0 0 0 7.6621094 13.613281 L 5.0117188 40 L 2.5 40 A 1.50015 1.50015 0 1 0 2.5 43 L 6.3691406 43 L 41.630859 43 L 45.5 43 A 1.50015 1.50015 0 1 0 45.5 40 L 42.988281 40 L 40.337891 13.613281 A 1.50015 1.50015 0 0 0 39.685547 12.519531 L 39.607422 12.466797 A 1.50015 1.50015 0 0 0 39.074219 12.107422 L 30.40625 6.2558594 A 1.50015 1.50015 0 0 0 29.566406 6 L 18.433594 6 z M 18.892578 9 L 29.107422 9 L 33.552734 12 L 14.447266 12 L 18.892578 9 z M 10.537109 15 L 37.462891 15 L 39.970703 40 L 8.0292969 40 L 10.537109 15 z"/></svg>