<svg xmlns="http://www.w3.org/2000/svg"  viewBox="0 0 48 48" width="50px" height="50px"><path d="M 9.5351562 7 C 7.5651775 7 5.9712702 8.6728398 6.0351562 10.630859 C 6.3393004 20.05523 8.6458961 26.535035 10.925781 30.667969 C 11.674319 32.024903 12.426168 33.115189 13.107422 34 L 8.5 34 C 7.1364058 34 6 35.136406 6 36.5 C 6 39.519774 8.4802259 42 11.5 42 L 36.5 42 C 39.519774 42 42 39.519774 42 36.5 C 42 35.136406 40.863594 34 39.5 34 L 34.892578 34 C 35.573832 33.115189 36.325641 32.024898 37.074219 30.667969 C 37.264353 30.323316 37.453233 29.938188 37.642578 29.560547 A 1.5004095 1.5004095 0 0 0 38.210938 29.441406 C 39.86452 28.728646 42.161524 27.556771 44.146484 26.027344 C 46.131445 24.497917 48 22.572571 48 20 C 48 17.256343 45.743657 15 43 15 C 42.514406 15 42.054981 15.073381 41.625 15.193359 C 41.784966 13.746667 41.914523 12.247909 41.966797 10.630859 A 1.50015 1.50015 0 0 0 41.966797 10.628906 C 42.028907 8.67248 40.435086 7 38.464844 7 L 9.5351562 7 z M 9.5351562 10 L 38.464844 10 C 38.764601 10 38.976687 10.22363 38.966797 10.535156 L 38.96875 10.533203 C 38.678359 19.51489 36.502008 25.494166 34.447266 29.21875 C 32.674922 32.431436 31.302731 33.658577 30.898438 34 L 17.101562 34 C 16.697273 33.65858 15.324968 32.431422 13.552734 29.21875 C 11.49812 25.494183 9.323059 19.514832 9.0332031 10.533203 C 9.0230891 10.223223 9.2371351 10 9.5351562 10 z M 43 18 C 44.122343 18 45 18.877657 45 20 C 45 20.927429 43.989742 22.359568 42.314453 23.650391 C 41.398962 24.355784 40.34911 24.997585 39.339844 25.546875 C 39.857619 24.086805 40.329244 22.465547 40.730469 20.673828 C 41.128511 19.659716 41.425324 18.867505 41.703125 18.503906 C 41.982542 18.138193 42.0906 18 43 18 z M 9.2050781 37 L 16.5 37 L 31.5 37 L 38.794922 37 C 38.541794 38.115527 37.701087 39 36.5 39 L 11.5 39 C 10.298913 39 9.4582055 38.115527 9.2050781 37 z"/></svg>