<svg xmlns="http://www.w3.org/2000/svg"  viewBox="0 0 48 48" width="50px" height="50px"><path d="M 13.5 3 C 11.585045 3 10 4.5850452 10 6.5 L 10 9.2539062 A 1.50015 1.50015 0 0 0 10 9.7402344 L 10 15.453125 C 7.0376268 17.191261 5 20.335133 5 24.003906 L 5 40.5 C 5 42.967501 7.0324991 45 9.5 45 L 19.5 45 C 21.967501 45 24 42.967501 24 40.5 L 24 24.003906 C 24 20.335587 21.959752 17.193729 19 15.455078 L 19 9.7460938 A 1.50015 1.50015 0 0 0 19 9.2597656 L 19 6.5 C 19 4.5850452 17.414955 3 15.5 3 L 13.5 3 z M 13.5 6 L 15.5 6 C 15.795045 6 16 6.2049548 16 6.5 L 16 8 L 13 8 L 13 6.5 C 13 6.2049548 13.204955 6 13.5 6 z M 13 11 L 16 11 L 16 16.261719 A 1.50015 1.50015 0 0 0 16.880859 17.626953 C 19.307365 18.726991 21 21.153669 21 24.003906 L 21 40.5 C 21 41.346499 20.346499 42 19.5 42 L 9.5 42 C 8.6535009 42 8 41.346499 8 40.5 L 8 24.003906 C 8 21.148991 9.6883903 18.722938 12.117188 17.625 A 1.50015 1.50015 0 0 0 13 16.257812 L 13 11 z M 28.5 18 C 27.136406 18 26 19.136406 26 20.5 L 26 27.5 C 26 31.645327 29.06052 34.959233 33 35.695312 L 33 42.445312 L 28.984375 43.154297 C 28.471375 43.247297 28.131656 43.738953 28.222656 44.251953 C 28.303656 44.699953 28.692438 45.026344 29.148438 45.027344 L 34.345703 45.027344 C 34.446703 45.043344 34.549391 45.043344 34.650391 45.027344 L 39.851562 45.027344 C 40.372563 45.025344 40.794969 44.601078 40.792969 44.080078 C 40.790969 43.624078 40.463625 43.235297 40.015625 43.154297 L 36 42.445312 L 36 35.695312 C 39.93948 34.959233 43 31.645327 43 27.5 L 43 20.5 C 43 19.136406 41.863594 18 40.5 18 L 28.5 18 z M 29 21 L 40 21 L 40 24 L 29 24 L 29 21 z M 11.5 24 A 1.50015 1.50015 0 0 0 10 25.5 L 10 30.253906 A 1.50015 1.50015 0 0 0 10 30.740234 L 10 37.5 A 1.50015 1.50015 0 0 0 11.5 39 L 17.5 39 A 1.50015 1.50015 0 0 0 19 37.5 L 19 30.746094 A 1.50015 1.50015 0 0 0 19 30.259766 L 19 25.5 A 1.50015 1.50015 0 0 0 17.5 24 L 11.5 24 z M 13 27 L 16 27 L 16 29 L 13 29 L 13 27 z M 29 27 L 40 27 L 40 27.5 C 40 30.555343 37.555343 33 34.5 33 C 31.444657 33 29 30.555343 29 27.5 L 29 27 z M 13 32 L 16 32 L 16 36 L 13 36 L 13 32 z"/></svg>