<svg xmlns="http://www.w3.org/2000/svg"  viewBox="0 0 48 48" width="50px" height="50px"><path d="M 16.5 3 C 15.671 3 15 3.672 15 4.5 L 15 6.1445312 L 10.580078 14.982422 C 10.200078 15.741422 10 16.593359 10 17.443359 L 10 24.574219 C 10.273 24.311219 10.629297 24.140625 11.029297 24.140625 C 11.713297 24.140625 12.344 24.329328 13 24.736328 L 13 18 L 25 18 L 25 41 L 22.345703 41 C 22.477703 41.484 22.549906 41.984234 22.503906 42.490234 C 22.498906 42.543234 22.490469 42.594484 22.480469 42.646484 L 22.398438 43.058594 C 22.388437 43.109594 22.375375 43.160937 22.359375 43.210938 C 22.269375 43.498937 22.148766 43.758953 22.009766 44.001953 L 34.5 44.001953 C 36.43 44.001953 38 42.431953 38 40.501953 L 38 17.443359 C 38 16.596359 37.799922 15.747375 37.419922 14.984375 L 33 6.1445312 L 33 4.5 C 33 3.672 32.329 3 31.5 3 L 16.5 3 z M 17.427734 8 L 29.072266 8 L 25.580078 14.982422 C 25.577078 14.987422 25.577219 14.994 25.574219 15 L 13.927734 15 L 17.427734 8 z M 31.5 9.8535156 L 34.734375 16.322266 C 34.908375 16.670266 35 17.058359 35 17.443359 L 35 40.5 C 35 40.776 34.776 41 34.5 41 L 28 41 L 28 17.443359 C 28 17.056359 28.090672 16.671172 28.263672 16.326172 L 31.5 9.8535156 z M 11.03125 26.140625 C 10.70625 26.140625 10.160609 26.140969 8.8496094 27.542969 C 8.0916094 28.352969 6.9696719 29.793562 6.5136719 31.601562 C 4.8936719 31.333562 2.9458438 31.381547 1.7148438 31.935547 C 0.65684375 32.412547 0.2621875 33.141922 0.1171875 33.669922 C -0.4958125 35.907922 1.5332031 37.865344 3.1582031 39.027344 C 2.1782031 40.128344 1.4657813 41.383641 1.5507812 42.306641 C 1.5597812 42.411641 1.5812813 42.514234 1.6132812 42.615234 C 2.1222813 44.253234 4.656875 44.616453 5.421875 44.689453 C 5.709875 44.716453 5.9944375 44.730469 6.2734375 44.730469 C 7.5404375 44.730469 8.7020781 44.444922 9.7050781 43.919922 C 9.6590781 44.798922 9.4965469 45.357188 9.3105469 45.617188 C 8.8295469 46.291187 8.9861562 47.227984 9.6601562 47.708984 C 9.9241562 47.896984 10.227297 47.988281 10.529297 47.988281 C 10.997297 47.988281 11.458953 47.769375 11.751953 47.359375 C 12.303953 46.587375 12.616313 45.496375 12.695312 44.109375 C 13.610312 44.520375 14.641859 44.75 15.755859 44.75 C 16.032859 44.75 16.314562 44.736984 16.601562 44.708984 C 17.374562 44.634984 19.939125 44.267234 20.453125 42.615234 C 20.484125 42.514234 20.505625 42.411641 20.515625 42.306641 C 20.599625 41.383641 19.88625 40.127344 18.90625 39.027344 C 20.52725 37.865344 22.558312 35.908922 21.945312 33.669922 C 21.800313 33.142922 21.405656 32.412547 20.347656 31.935547 C 19.117656 31.380547 17.169781 31.332563 15.550781 31.601562 C 15.093781 29.792562 13.970891 28.351016 13.212891 27.541016 C 11.901891 26.140016 11.35625 26.140625 11.03125 26.140625 z M 11.03125 29.609375 C 11.78925 30.425375 12.848094 31.886828 12.746094 33.423828 C 12.710094 33.958828 12.962203 34.470531 13.408203 34.769531 C 13.853203 35.067531 14.424297 35.106141 14.904297 34.869141 C 15.917297 34.372141 18.259063 34.314859 19.039062 34.630859 C 18.853063 35.242859 17.331766 36.646172 15.759766 37.451172 C 15.299766 37.687172 14.993219 38.144156 14.949219 38.660156 C 14.905219 39.175156 15.129969 39.676328 15.542969 39.986328 C 16.246969 40.514328 16.780141 41.117891 17.119141 41.587891 C 16.513141 41.740891 15.616266 41.837672 14.697266 41.638672 C 13.651266 41.411672 12.881484 40.854188 12.396484 39.992188 C 12.265484 39.696188 12.043328 39.437437 11.736328 39.273438 C 11.004328 38.881437 10.097031 39.157672 9.7070312 39.888672 C 9.2220313 40.795672 8.4277031 41.375281 7.3457031 41.613281 C 6.4347031 41.813281 5.5502656 41.725125 4.9472656 41.578125 C 5.2862656 41.109125 5.8175781 40.513281 6.5175781 39.988281 C 6.9315781 39.677281 7.1553281 39.175156 7.1113281 38.660156 C 7.0673281 38.144156 6.7607812 37.687172 6.3007812 37.451172 C 4.7287812 36.646172 3.2074844 35.242859 3.0214844 34.630859 C 3.8014844 34.315859 6.14325 34.371141 7.15625 34.869141 C 7.63625 35.104141 8.2083437 35.067531 8.6523438 34.769531 C 9.0973438 34.471531 9.3494531 33.957828 9.3144531 33.423828 C 9.2114531 31.887828 10.27225 30.425375 11.03125 29.609375 z"/></svg>