<svg xmlns="http://www.w3.org/2000/svg"  viewBox="0 0 48 48" width="50px" height="50px"><path d="M 24.001953 3.796875 C 15.678358 3.796875 8.8984375 10.575868 8.8984375 18.898438 L 8.8984375 20 L 7 20 C 4.8087176 20 3 21.808718 3 24 C 3 25.659868 4.0403142 27.096276 5.4960938 27.697266 L 5.4960938 27.726562 C 5.4960938 34.090196 9.580147 41.451528 15.990234 44.089844 A 1.50015 1.50015 0 0 0 16.560547 44.201172 L 31.4375 44.201172 A 1.50015 1.50015 0 0 0 32.009766 44.089844 C 38.4205 41.450596 42.501953 34.090018 42.501953 27.726562 L 42.501953 27.699219 C 43.958913 27.098785 45 25.660724 45 24 C 45 21.808718 43.191282 20 41 20 L 39.103516 20 L 39.103516 18.898438 C 39.103516 10.574976 32.325415 3.796875 24.001953 3.796875 z M 24.001953 6.796875 C 30.704491 6.796875 36.103516 12.195898 36.103516 18.898438 L 36.103516 20 L 11.898438 20 L 11.898438 18.898438 C 11.898438 12.197007 17.299548 6.796875 24.001953 6.796875 z M 7 23 L 41 23 C 41.570718 23 42 23.429282 42 24 C 42 24.570718 41.570718 25 41 25 L 7 25 C 6.4292824 25 6 24.570718 6 24 C 6 23.429282 6.4292824 23 7 23 z M 8.5078125 28 L 39.490234 28 C 39.360947 32.889099 35.77199 39.131086 31.037109 41.201172 L 16.962891 41.201172 C 12.229284 39.132046 8.6372131 32.88896 8.5078125 28 z"/></svg>