<svg xmlns="http://www.w3.org/2000/svg"  viewBox="0 0 48 48" width="50px" height="50px"><path d="M 26.455078 4 A 1.50015 1.50015 0 0 0 25.830078 4.1582031 L 19.830078 7.1582031 A 1.50015 1.50015 0 0 0 19 8.5332031 L 19.181641 16.941406 C 19.213411 18.40369 18.357425 19.733437 17.027344 20.263672 C 15.142404 21.01495 12.934219 22.038203 11.130859 23.798828 C 9.3274998 25.559453 8 28.129167 8 31.5 C 8 34.731574 8.60414 37.70198 9.8867188 40.007812 C 11.169297 42.313645 13.33448 44 16 44 C 17.319843 44 18.569349 43.597109 19.671875 42.923828 C 20.980785 43.64249 22.471483 44 24 44 C 25.532394 44 27.026592 43.6403 28.337891 42.917969 C 29.438346 43.589478 30.682106 44 32 44 C 34.66552 44 36.830703 42.313645 38.113281 40.007812 C 39.39586 37.70198 40 34.731574 40 31.5 L 40 31.398438 C 40 28.034969 38.52456 25.45185 36.585938 23.689453 C 34.647315 21.927056 32.292777 20.882607 30.296875 20.126953 C 28.906431 19.600743 28 18.311633 28 16.841797 L 28 5.5 A 1.50015 1.50015 0 0 0 26.455078 4 z M 25 7.9257812 L 25 16.841797 C 25 19.559961 26.708819 21.977803 29.234375 22.933594 C 31.089473 23.635939 33.102231 24.57535 34.568359 25.908203 C 36.034487 27.241056 37 28.862906 37 31.398438 L 37 31.5 C 37 34.343426 36.424109 36.873411 35.492188 38.548828 C 34.560265 40.224245 33.47648 41 32 41 C 31.594016 41 31.19886 40.927364 30.810547 40.798828 C 32.21222 39.005875 33 36.532821 33 33.5 C 33 31.25 32.43124 29.508964 31.841797 28.330078 C 31.252354 27.151193 30.560547 26.439453 30.560547 26.439453 A 1.50015 1.50015 0 1 0 28.439453 28.560547 C 28.439453 28.560547 28.747646 28.848807 29.158203 29.669922 C 29.56876 30.491036 30 31.75 30 33.5 C 30 36.261121 29.25202 38.104884 28.193359 39.267578 C 27.134698 40.430272 25.71791 41 24 41 C 22.77092 41 21.698761 40.703092 20.798828 40.111328 C 20.79808 40.110836 20.797623 40.109868 20.796875 40.109375 A 1.5005812 1.5005812 0 0 0 20.296875 39.736328 C 20.126724 39.591461 19.96162 39.437787 19.806641 39.267578 C 18.74798 38.104884 18 36.261121 18 33.5 C 18 33.5 18.01237 31.958978 18.548828 30.349609 C 19.085284 28.740241 19.954928 27.338702 21.794922 26.970703 A 1.50015 1.50015 0 0 0 21.458984 23.996094 A 1.50015 1.50015 0 0 0 21.205078 24.029297 C 18.045072 24.661298 16.414716 27.259759 15.701172 29.400391 C 14.987628 31.541025 15 33.5 15 33.5 C 15 36.53092 15.787484 39.002231 17.1875 40.794922 C 16.799429 40.923087 16.405185 41 16 41 C 14.52352 41 13.439734 40.224245 12.507812 38.548828 C 11.575892 36.873411 11 34.343426 11 31.5 C 11 28.870833 11.896673 27.243688 13.226562 25.945312 C 14.556453 24.646937 16.390612 23.747503 18.138672 23.050781 C 20.65659 22.047016 22.239867 19.554717 22.181641 16.875 L 22.019531 9.4160156 L 25 7.9257812 z"/></svg>