<svg xmlns="http://www.w3.org/2000/svg"  viewBox="0 0 48 48" width="50px" height="50px"><path d="M 34.078125 2.875 C 32.712337 2.875 31.578032 3.6894422 30.748047 4.7285156 C 29.918062 5.767589 29.275229 7.107899 28.736328 8.703125 C 27.658527 11.893577 27.03125 16.124012 27.03125 20.794922 C 27.03125 21.205472 27.054526 21.596892 27.064453 22 L 24.957031 22 L 24.957031 17.419922 C 24.957031 15.604261 23.526534 14 21.667969 14 L 21.089844 14 L 21.089844 9.375 A 1.50015 1.50015 0 0 0 19.589844 7.875 L 13.90625 7.875 A 1.50015 1.50015 0 0 0 13.636719 7.8535156 A 1.50015 1.50015 0 0 0 13.417969 7.875 L 12.570312 7.875 C 11.036003 7.875 9.5622092 8.4846658 8.4765625 9.5703125 A 1.5005302 1.5005302 0 1 0 10.599609 11.691406 C 11.014387 11.276629 11.588271 11.139479 12.158203 11.044922 L 12.158203 14 L 11.328125 14 C 9.4695598 14 8.0371094 15.604261 8.0371094 17.419922 L 8.0371094 22 L 5.5 22 C 4.1364058 22 3 23.136406 3 24.5 L 3 30.5 C 3 31.692499 3.8698775 32.712342 5 32.949219 L 5 39.5 C 5 43.071938 7.9280619 46 11.5 46 L 36.5 46 C 40.071938 46 43 43.071938 43 39.5 L 43 32.949219 C 44.130122 32.712342 45 31.692499 45 30.5 L 45 24.5 C 45 23.136406 43.863594 22 42.5 22 L 41.095703 22 C 41.105486 21.597596 41.126953 21.204476 41.126953 20.794922 C 41.126953 16.124012 40.499676 11.893577 39.421875 8.703125 C 38.882971 7.107899 38.240141 5.767589 37.410156 4.7285156 C 36.580172 3.6894422 35.443913 2.875 34.078125 2.875 z M 34.078125 5.875 C 34.244337 5.875 34.569078 5.9789484 35.066406 6.6015625 C 35.563734 7.2241766 36.115229 8.2880385 36.580078 9.6640625 C 37.509777 12.416111 38.126953 16.397832 38.126953 20.794922 C 38.126953 21.20484 38.10611 21.59803 38.095703 22 L 30.064453 22 C 30.053731 21.597425 30.03125 21.205848 30.03125 20.794922 C 30.03125 20.526376 30.040387 20.265262 30.044922 20 L 33.5 20 A 1.50015 1.50015 0 1 0 33.5 17 L 30.193359 17 C 30.281147 15.950737 30.402369 14.948171 30.554688 14 L 33.5 14 A 1.50015 1.50015 0 1 0 33.5 11 L 31.181641 11 C 31.306711 10.531232 31.437758 10.079571 31.578125 9.6640625 C 32.042975 8.2880385 32.594469 7.2241766 33.091797 6.6015625 C 33.589121 5.9789484 33.911913 5.875 34.078125 5.875 z M 15.158203 10.875 L 18.089844 10.875 L 18.089844 14 L 15.158203 14 L 15.158203 10.875 z M 11.328125 17 L 13.658203 17 L 19.589844 17 L 21.667969 17 C 21.787404 17 21.957031 17.115582 21.957031 17.419922 L 21.957031 22 L 11.037109 22 L 11.037109 17.419922 C 11.037109 17.115582 11.20869 17 11.328125 17 z M 6 25 L 28.585938 25 L 42 25 L 42 30 L 6 30 L 6 25 z M 8 33 L 40 33 L 40 39.5 C 40 41.450062 38.450062 43 36.5 43 L 11.5 43 C 9.5499381 43 8 41.450062 8 39.5 L 8 33 z"/></svg>