<svg xmlns="http://www.w3.org/2000/svg"  viewBox="0 0 48 48" width="50px" height="50px"><path d="M 14.476562 5.9785156 A 1.50015 1.50015 0 0 0 14.257812 6 L 12.498047 6 A 1.50015 1.50015 0 1 0 12.498047 9 L 12.998047 9 L 12.998047 13.306641 C 10.163857 14.005383 8 16.45963 8 19.5 L 8 35.5 C 8 39.071938 10.928062 42 14.5 42 L 33.5 42 C 37.071938 42 40 39.071938 40 35.5 L 40 19.5 C 40 16.458831 37.835309 14.002628 35 13.304688 L 34.998047 9 L 35.498047 9 A 1.50015 1.50015 0 1 0 35.498047 6 L 33.746094 6 A 1.50015 1.50015 0 0 0 33.257812 6 L 14.746094 6 A 1.50015 1.50015 0 0 0 14.476562 5.9785156 z M 15.998047 9 L 31.998047 9 L 32 14.5 A 1.50015 1.50015 0 0 0 33.5 16 C 35.450062 16 37 17.549938 37 19.5 L 37 29.685547 C 36.010893 29.748698 34.823875 30.156358 33.167969 31.054688 C 31.144389 32.152479 30.036127 32.777229 29.177734 32.960938 C 28.319341 33.144644 27.427419 33.042498 25.396484 32.355469 C 20.472967 30.689765 17.373298 29.535704 11 30.761719 L 11 19.5 C 11 17.549938 12.549938 16 14.5 16 L 16 16 C 16.570718 16 17 16.429282 17 17 L 17 21 A 1.50015 1.50015 0 0 0 17.005859 21.150391 A 1.50015 1.50015 0 0 0 17.109375 21.585938 A 1.50015 1.50015 0 0 0 17.339844 21.970703 A 1.50015 1.50015 0 0 0 17.671875 22.271484 A 1.50015 1.50015 0 0 0 17.800781 22.347656 A 1.50015 1.50015 0 0 0 18.078125 22.460938 A 1.50015 1.50015 0 0 0 18.373047 22.515625 A 1.50015 1.50015 0 0 0 18.820312 22.486328 A 1.50015 1.50015 0 0 0 19.238281 22.326172 A 1.50015 1.50015 0 0 0 19.365234 22.246094 A 1.50015 1.50015 0 0 0 19.484375 22.154297 A 1.50015 1.50015 0 0 0 19.773438 21.8125 A 1.50015 1.50015 0 0 0 19.847656 21.681641 A 1.50015 1.50015 0 0 0 19.90625 21.542969 A 1.50015 1.50015 0 0 0 19.951172 21.400391 A 1.50015 1.50015 0 0 0 20 21 L 20 17 C 20 16.429282 20.429282 16 21 16 L 27.5 16 A 1.50015 1.50015 0 1 0 27.5 13 L 21 13 L 16 13 L 15.998047 13 L 15.998047 9 z M 37 32.082031 L 37 32.271484 C 36.95574 32.185307 36.921875 32.107422 36.921875 32.107422 L 37 32.082031 z M 37 32.734375 L 37 35.5 C 37 37.450062 35.450062 39 33.5 39 L 14.5 39 C 12.549938 39 11 37.450062 11 35.5 L 11 33.818359 C 17.286292 32.459833 19.27144 33.450827 24.433594 35.197266 C 26.647659 35.94624 28.240329 36.229324 29.804688 35.894531 C 31.369045 35.559739 32.621236 34.763614 34.597656 33.691406 C 35.821503 33.02747 36.578897 32.812356 37 32.734375 z"/></svg>