<svg xmlns="http://www.w3.org/2000/svg"  viewBox="0 0 48 48" width="50px" height="50px"><path d="M43.561 41.439l-37-37c-.586-.586-1.535-.586-2.121 0s-.586 1.535 0 2.121l6.036 6.036c-.038.116-.082.229-.116.347C7.172 14.472 5 17.713 5 21.5c0 2.124.701 4.14 1.981 5.795C6.352 28.567 6 29.997 6 31.5c0 5.238 4.262 9.5 9.5 9.5 1.986 0 3.851-.618 5.396-1.684C22.658 41.03 24.996 42 27.5 42c3.292 0 6.284-1.693 8.002-4.377l5.938 5.938C41.732 43.854 42.116 44 42.5 44s.768-.146 1.061-.439C44.146 42.975 44.146 42.025 43.561 41.439zM24 31.965c-4.392 0-7.965-3.573-7.965-7.965 0-1.655.514-3.188 1.381-4.463l11.047 11.047C27.188 31.451 25.655 31.965 24 31.965zM8 21.5c0-3.107 2.13-5.683 5.04-6.338l2.241 2.241c-1.071 1.406-1.808 3.071-2.096 4.891-1.667.417-3.149 1.267-4.328 2.424C8.302 23.747 8 22.647 8 21.5zM9 31.5c0-2.732 1.699-5.105 4.142-6.055.587 4.427 3.82 8.021 8.057 9.143C20.084 36.647 17.931 38 15.5 38 11.916 38 9 35.084 9 31.5zM27.5 39c-1.672 0-3.236-.636-4.432-1.757.525-.692.956-1.464 1.279-2.297 2.348-.074 4.503-.891 6.254-2.224l2.698 2.698C32.208 37.591 29.982 39 27.5 39zM19.5 9c.633 0 1.256.096 1.855.274-.799 1.289-1.276 2.792-1.334 4.403l2.501 2.501c.48-.091.973-.143 1.478-.143 4.392 0 7.965 3.573 7.965 7.965 0 .506-.052.998-.143 1.478l2.42 2.42c.465-1.211.723-2.525.723-3.898 0-2.184-.649-4.216-1.754-5.927C33.505 18.03 33.801 18 34.104 18c3.309 0 6 2.691 6 6 0 2.637-1.712 4.876-4.08 5.679l2.276 2.276c2.853-1.511 4.804-4.508 4.804-7.956 0-3.639-2.174-6.773-5.289-8.19C37.936 15.218 38 14.614 38 14c0-4.963-4.037-9-9-9-2.073 0-3.979.711-5.502 1.893C22.25 6.313 20.89 6 19.5 6c-2.012 0-3.888.637-5.437 1.719l2.167 2.167C17.195 9.324 18.313 9 19.5 9zM29 8c3.309 0 6 2.691 6 6 0 .353-.04.699-.1 1.04C34.637 15.017 34.372 15 34.104 15c-1.074 0-2.115.197-3.108.564-1.9-1.578-4.338-2.529-6.995-2.529-.311 0-.617.021-.922.047C23.522 10.209 26.004 8 29 8z"/></svg>