<svg xmlns="http://www.w3.org/2000/svg"  viewBox="0 0 48 48" width="50px" height="50px"><path d="M 23.5 4 C 12.196269 4 3 13.196269 3 24.5 C 3 26.414955 4.5850452 28 6.5 28 L 18.544922 28 L 16.400391 36.005859 C 15.993239 37.522771 15.966379 39.202397 16.580078 40.777344 C 17.717276 43.696193 20.456256 45.910574 23.789062 45.996094 C 25.287385 46.035294 26.707841 45.656234 27.923828 44.970703 C 31.076336 43.193265 32.425324 39.435136 31.535156 36.023438 L 29.441406 28 L 41.5 28 C 43.414955 28 45 26.414955 45 24.5 C 45 13.196269 35.803731 4 24.5 4 L 23.5 4 z M 23.5 7 L 24.5 7 C 34.182269 7 42 14.817731 42 24.5 C 42 24.795045 41.795045 25 41.5 25 L 27.523438 25 L 20.5 25 L 6.5 25 C 6.2049548 25 6 24.795045 6 24.5 C 6 14.817731 13.817731 7 23.5 7 z M 21.650391 28 L 26.341797 28 L 28.630859 36.78125 C 29.198692 38.957551 28.328664 41.29886 26.451172 42.357422 C 25.691159 42.785891 24.814865 43.022843 23.867188 42.998047 C 21.821994 42.945567 20.111802 41.578651 19.375 39.6875 C 19.0387 38.824447 19.026027 37.792292 19.296875 36.783203 A 1.50015 1.50015 0 0 0 19.298828 36.783203 L 21.650391 28 z"/></svg>