<svg xmlns="http://www.w3.org/2000/svg"  viewBox="0 0 48 48" width="50px" height="50px"><path d="M 11.5 6 C 8.4802259 6 6 8.4802259 6 11.5 L 6 36.878906 L 4.5605469 35.439453 A 1.50015 1.50015 0 0 0 3.484375 34.984375 A 1.50015 1.50015 0 0 0 2.4394531 37.560547 L 6.3105469 41.431641 A 1.50015 1.50015 0 0 0 8.6972656 41.423828 L 12.560547 37.560547 A 1.50015 1.50015 0 1 0 10.439453 35.439453 L 9 36.878906 L 9 11.5 C 9 10.101774 10.101774 9 11.5 9 L 36.5 9 C 37.898226 9 39 10.101774 39 11.5 L 39 36.5 C 39 37.898226 37.898226 39 36.5 39 L 27.5 39 A 1.50015 1.50015 0 1 0 27.5 42 L 36.5 42 C 39.519774 42 42 39.519774 42 36.5 L 42 11.5 C 42 8.4802259 39.519774 6 36.5 6 L 11.5 6 z M 19 16 C 16.791 16 15 17.791 15 20 L 33 20 C 33 17.791 31.209 16 29 16 L 19 16 z M 15 23 L 15 26 L 33 26 L 33 23 L 29 23 L 26.5 25 L 24 23 L 15 23 z M 15 29 L 15 30.667969 C 15 31.403969 15.596031 32 16.332031 32 L 31.667969 32 C 32.403969 32 33 31.403969 33 30.667969 L 33 29 L 15 29 z M 15.5 39 A 1.5 1.5 0 0 0 15.5 42 A 1.5 1.5 0 0 0 15.5 39 z M 21.5 39 A 1.5 1.5 0 0 0 21.5 42 A 1.5 1.5 0 0 0 21.5 39 z"/></svg>