<svg xmlns="http://www.w3.org/2000/svg"  viewBox="0 0 48 48" width="50px" height="50px"><path d="M 25.693359 5.0097656 C 25.532821 5.0054873 25.373083 5.0172956 25.214844 5.0429688 C 24.581888 5.1456614 23.987338 5.4860666 23.589844 6.0371094 L 22.984375 6.8769531 L 19.224609 5.2226562 A 1.50015 1.50015 0 0 0 19.222656 5.2226562 C 18.600546 4.9493031 17.916322 4.9568496 17.318359 5.1894531 C 16.720396 5.4220567 16.209208 5.8790957 15.935547 6.5019531 L 15.201172 8.1699219 C 14.312443 7.8421152 13.265489 8.0253851 12.560547 8.7285156 L 12.6875 8.6152344 L 7.859375 12.445312 A 1.50015 1.50015 0 0 0 7.7304688 12.558594 C 6.7950434 13.494018 6.7765419 15.031003 7.6601562 16 L 7.6523438 16 L 7.6191406 15.962891 L 7.6484375 16 L 6.5 16 A 1.50015 1.50015 0 1 0 6.5 19 L 7 19 L 7 37.5 C 7 41.624501 10.375499 45 14.5 45 L 29.5 45 C 33.624501 45 37 41.624501 37 37.5 L 37 37 L 38 37 C 41.848402 37 45 33.848402 45 30 C 45 26.151598 41.848402 23 38 23 L 37 23 L 37 19 L 37.5 19 A 1.50015 1.50015 0 1 0 37.5 16 L 36.53125 16 L 36.767578 15.513672 A 1.50015 1.50015 0 0 0 36.767578 15.511719 C 37.363658 14.289879 36.840568 12.773611 35.619141 12.177734 L 32.976562 10.886719 C 32.929776 10.164799 32.587588 9.4645421 31.966797 9.015625 L 31.964844 9.0136719 L 27.074219 5.4746094 A 1.50015 1.50015 0 0 0 27.070312 5.4707031 C 26.656722 5.1730688 26.174974 5.0226006 25.693359 5.0097656 z M 18.478516 8.171875 L 21.191406 9.3652344 L 19.015625 12.382812 L 17.474609 10.453125 L 18.478516 8.171875 z M 25.726562 8.2011719 L 29.800781 11.150391 L 26.304688 16 L 21.90625 16 L 20.960938 14.814453 L 24.539062 9.8496094 A 1.50015 1.50015 0 0 0 24.880859 9.375 L 25.726562 8.2011719 z M 14.244141 11.212891 L 14.394531 11.400391 A 1.50015 1.50015 0 0 0 14.753906 11.851562 L 17.763672 15.619141 A 1.50015 1.50015 0 0 0 18.056641 15.984375 L 18.068359 16 L 11.488281 16 L 10.214844 14.404297 L 14.244141 11.212891 z M 31.724609 13.613281 L 33.849609 14.650391 L 33.191406 16 L 30.003906 16 L 31.724609 13.613281 z M 10 19 L 10.654297 19 A 1.50015 1.50015 0 0 0 10.917969 19 L 20.900391 19 A 1.50015 1.50015 0 0 0 21.523438 19 L 26.804688 19 A 1.50015 1.50015 0 0 0 27.316406 19 L 33.828125 19 A 1.50015 1.50015 0 0 0 34 19.023438 L 34 37.5 C 34 40.003499 32.003499 42 29.5 42 L 14.5 42 C 11.996501 42 10 40.003499 10 37.5 L 10 19 z M 37 26 L 38 26 C 40.227598 26 42 27.772402 42 30 C 42 32.227598 40.227598 34 38 34 L 37 34 L 37 26 z"/></svg>