<svg xmlns="http://www.w3.org/2000/svg"  viewBox="0 0 48 48" width="50px" height="50px"><path d="M 27.697266 5.4042969 C 27.113071 5.4209261 26.524298 5.4674051 25.935547 5.5410156 C 21.225538 6.1299006 16.390246 8.488522 12.439453 12.439453 C 8.4886593 16.390384 6.1297362 21.227471 5.5410156 25.9375 C 4.9522958 30.64753 6.1714406 35.292649 9.4394531 38.560547 C 12.707465 41.828446 17.354444 43.047868 22.064453 42.458984 C 26.774462 41.870099 31.609754 39.511478 35.560547 35.560547 C 39.51134 31.609615 41.870264 26.772529 42.458984 22.0625 C 43.047704 17.35247 41.82856 12.707352 38.560547 9.4394531 C 35.701036 6.5800419 31.786631 5.2878925 27.697266 5.4042969 z M 27.78125 8.4003906 C 31.173339 8.2952561 34.224842 9.3460134 36.439453 11.560547 C 38.970437 14.091442 39.979425 17.715162 39.482422 21.691406 C 38.98542 25.667651 36.944424 29.93436 33.439453 33.439453 C 29.934482 36.944547 25.669586 38.985281 21.693359 39.482422 C 17.717132 39.979563 14.091531 38.970348 11.560547 36.439453 C 9.0295634 33.908558 8.0205752 30.284838 8.5175781 26.308594 C 9.01458 22.332349 11.055576 18.06564 14.560547 14.560547 C 18.065518 11.055453 22.330414 9.0147188 26.306641 8.5175781 C 26.803669 8.4554354 27.296666 8.4154098 27.78125 8.4003906 z M 23.5 14 C 22.672 14 22 14.672 22 15.5 C 22 16.328 23 19 23.5 19 C 24 19 25 16.328 25 15.5 C 25 14.672 24.328 14 23.5 14 z M 30.105469 14.123047 C 29.523422 14.070828 28.938984 14.363859 28.646484 14.912109 C 28.256484 15.643109 27.881266 18.470078 28.322266 18.705078 C 28.764266 18.941078 30.904922 17.055219 31.294922 16.324219 C 31.684922 15.593219 31.406781 14.684922 30.675781 14.294922 C 30.493031 14.197672 30.299484 14.140453 30.105469 14.123047 z M 17.792969 17.292969 C 17.408969 17.293344 17.025422 17.439922 16.732422 17.732422 C 16.146422 18.317422 16.146422 19.267516 16.732422 19.853516 C 17.318422 20.439516 19.913578 21.621578 20.267578 21.267578 C 20.621578 20.913578 19.439516 18.318422 18.853516 17.732422 C 18.560516 17.439422 18.176969 17.292594 17.792969 17.292969 z M 33.455078 19.783203 C 33.355402 19.784783 33.253469 19.795984 33.152344 19.818359 C 32.343344 19.997359 29.952547 21.551063 30.060547 22.039062 C 30.168547 22.527062 32.991781 22.927047 33.800781 22.748047 C 34.608781 22.569047 35.119406 21.768984 34.941406 20.958984 C 34.784781 20.251984 34.152809 19.772143 33.455078 19.783203 z M 14.539062 22.974609 C 13.711063 22.952609 13.023953 23.605594 13.001953 24.433594 C 12.979953 25.261594 13.632938 25.950656 14.460938 25.972656 C 15.288938 25.994656 17.985047 25.066406 17.998047 24.566406 C 18.011047 24.066406 15.367062 22.996609 14.539062 22.974609 z M 32.412109 25.277344 C 31.585109 25.325344 28.976859 26.477563 29.005859 26.976562 C 29.034859 27.475562 31.758937 28.319484 32.585938 28.271484 C 33.412937 28.223484 34.044094 27.5145 33.996094 26.6875 C 33.948094 25.8605 33.239109 25.229344 32.412109 25.277344 z M 18.039062 28 C 17.297008 27.997102 15.245172 28.965766 14.732422 29.478516 C 14.146422 30.064516 14.146422 31.014609 14.732422 31.599609 C 15.318422 32.186609 16.267516 32.185609 16.853516 31.599609 C 17.439516 31.013609 18.621578 28.418453 18.267578 28.064453 C 18.223328 28.020203 18.14507 28.000414 18.039062 28 z M 26.322266 28.626953 C 25.881266 28.861953 26.256484 31.690875 26.646484 32.421875 C 27.036484 33.152875 27.944781 33.428063 28.675781 33.039062 C 29.406781 32.649062 29.684922 31.740766 29.294922 31.009766 C 28.904922 30.278766 26.764266 28.390953 26.322266 28.626953 z M 21.5 29.332031 C 21 29.332031 20 32.004031 20 32.832031 C 20 33.660031 20.672 34.332031 21.5 34.332031 C 22.328 34.332031 23 33.660031 23 32.832031 C 23 32.004031 22 29.332031 21.5 29.332031 z"/></svg>