<svg xmlns="http://www.w3.org/2000/svg"  viewBox="0 0 48 48" width="50px" height="50px"><path d="M 30.5 4 C 28.75 4 27.325109 4.4597813 26.287109 5.2382812 C 25.249109 6.0167813 24.647323 7.0619369 24.326172 8.0253906 C 24.06693 8.8031167 24.036736 9.4861154 24.009766 10.111328 C 23.831276 10.098454 23.681572 10 23.5 10 C 21.088416 10 19.032651 11.228762 17.658203 13.011719 C 17.367085 12.936979 15.439443 12.463807 13.238281 13.050781 C 12.052206 13.367068 10.760972 14.066203 9.9140625 15.369141 C 9.067153 16.672078 8.7321412 18.448927 9.0117188 20.685547 C 9.659418 25.868207 12.939803 38.685578 12.966797 38.791016 C 13.713313 42.311819 17.444259 44.404862 20.837891 43.207031 L 23.501953 42.265625 C 23.824969 42.151619 24.176984 42.151619 24.5 42.265625 L 27.300781 43.255859 C 30.631077 44.431725 34.301174 42.44226 35.132812 39.009766 A 1.50015 1.50015 0 0 0 35.136719 38.990234 L 39.683594 19.115234 A 1.50015 1.50015 0 0 0 39.6875 19.099609 C 40.213578 16.681432 39.637316 14.030561 37.802734 12.197266 C 36.447174 10.841706 34.562552 10 32.5 10 C 30.769893 10 29.270749 10.718511 28 11.708984 C 27.671571 11.452994 27.372956 11.1665 27.003906 10.966797 C 26.977257 10.719869 26.861175 9.9125673 27.173828 8.9746094 C 27.352677 8.4380631 27.625891 7.9832187 28.087891 7.6367188 C 28.549891 7.2902188 29.25 7 30.5 7 A 1.50015 1.50015 0 1 0 30.5 4 z M 23.5 13 C 24.852528 13 26.045739 13.591615 26.875 14.533203 A 1.50015 1.50015 0 0 0 29.125 14.533203 C 29.954261 13.591615 31.147472 13 32.5 13 C 33.751448 13 34.865201 13.501919 35.681641 14.318359 A 1.50015 1.50015 0 0 0 35.683594 14.318359 C 36.703012 15.337064 37.087794 16.93512 36.755859 18.460938 L 32.216797 38.302734 C 31.792435 40.05424 29.998533 41.025915 28.298828 40.425781 L 25.498047 39.4375 C 24.529063 39.095506 23.470937 39.095506 22.501953 39.4375 L 19.839844 40.376953 C 18.105476 40.989123 16.283827 39.967165 15.902344 38.167969 A 1.50015 1.50015 0 0 0 15.888672 38.111328 C 15.888672 38.111328 12.553917 24.840465 11.988281 20.314453 C 11.767859 18.551073 12.057851 17.577922 12.429688 17.005859 C 12.801528 16.433797 13.322794 16.132932 14.011719 15.949219 C 14.862605 15.722316 15.701906 15.771955 16.335938 15.847656 C 16.207586 16.39509 16 16.914925 16 17.5 C 16 19.333333 16.517712 22.48612 17.021484 25.382812 C 17.525257 28.279505 18.029297 30.794922 18.029297 30.794922 A 1.50015 1.50015 0 1 0 20.970703 30.205078 C 20.970703 30.205078 20.474743 27.720495 19.978516 24.867188 C 19.482288 22.01388 19 18.666667 19 17.5 C 19 14.996501 20.996501 13 23.5 13 z"/></svg>