<svg xmlns="http://www.w3.org/2000/svg"  viewBox="0 0 48 48" width="50px" height="50px"><path d="M 32.189453 7.0097656 C 30.391595 7.086708 28.735454 7.7993266 27.482422 8.9316406 C 27.150121 9.2318849 26.652453 9.3468887 26.144531 9.2128906 A 1.50015 1.50015 0 0 0 26.142578 9.2128906 C 25.617972 9.0745492 25.066734 9 24.5 9 C 22.655744 9 20.987342 9.7844995 19.800781 11.03125 C 18.754025 10.226974 17.42135 9.75 16 9.75 C 12.77174 9.75 10 12.212452 10 15.375 C 10 15.38972 10.005659 15.399423 10.005859 15.414062 C 6.5881454 16.322731 4 19.306978 4 23 C 4 25.586777 5.2390626 27.904792 7.15625 29.363281 C 7.7469982 29.813077 8.04713 30.421152 8.0097656 31.072266 C 8.0097656 31.072266 8.0097656 31.074219 8.0097656 31.074219 C 8.0028831 31.179511 8 31.281301 8 31.375 C 8 34.434992 9.8820284 35.696144 11.015625 36.300781 C 11.046895 37.091236 11.21866 38.132444 12.037109 39.257812 C 13.357657 41.073565 16.149899 42.392449 21.052734 42.027344 C 22.718465 43.263511 24.774733 44 27 44 C 30.235883 44 33.124044 42.447665 34.947266 40.054688 A 1.50015 1.50015 0 0 0 34.949219 40.052734 C 35.010489 39.972254 35.113906 39.911357 35.234375 39.898438 C 36.449746 39.773638 38.190633 39.238758 39.853516 37.947266 C 41.516351 36.655819 43 34.4704 43 31.5 C 43 29.054887 41.882082 26.535528 39.923828 25.072266 C 40.602189 24.044456 41 22.816149 41 21.5 C 41 20.135714 40.565515 18.861808 39.841797 17.824219 C 39.637261 17.531182 39.572442 17.052964 39.724609 16.511719 A 1.50015 1.50015 0 0 0 39.724609 16.509766 C 40.063778 15.299522 40.102934 13.957329 39.761719 12.603516 C 39.066394 9.8424924 36.815697 7.7081313 34.025391 7.1523438 C 33.404554 7.0285451 32.788739 6.9841182 32.189453 7.0097656 z M 32.306641 10 C 32.670881 9.9858897 33.049789 10.016049 33.439453 10.09375 C 35.067146 10.417962 36.44884 11.729006 36.853516 13.335938 C 37.068301 14.188123 37.03877 14.977416 36.835938 15.701172 C 36.496668 16.909547 36.547768 18.344654 37.382812 19.541016 L 37.380859 19.541016 C 37.77319 20.103426 38 20.764286 38 21.5 C 38 22.055291 37.871323 22.576164 37.644531 23.039062 C 36.29729 17.298605 31.142245 13 25 13 C 23.844802 13 22.729478 13.166341 21.662109 13.451172 C 22.294433 12.571762 23.320684 12 24.5 12 C 24.805266 12 25.09956 12.03962 25.378906 12.113281 C 26.788985 12.485283 28.354441 12.187961 29.494141 11.158203 C 30.249609 10.475517 31.21392 10.042331 32.306641 10 z M 16 12.75 C 16.942311 12.75 17.732939 13.116406 18.269531 13.667969 C 18.137679 14.112282 18.05452 14.575359 18.021484 15.052734 C 14.408816 17.36592 12 21.406084 12 26 C 12 30.281596 14.096183 34.078425 17.304688 36.449219 C 17.542143 37.390972 17.916785 38.275975 18.400391 39.089844 C 15.931577 38.934402 14.932875 38.138417 14.462891 37.492188 C 13.838049 36.633029 13.980469 35.746094 13.980469 35.746094 A 1.50015 1.50015 0 0 0 12.974609 34.076172 C 12.974609 34.076172 11 33.54 11 31.375 C 11 31.33078 11.001906 31.29468 11.003906 31.265625 A 1.50015 1.50015 0 0 0 11.003906 31.248047 C 11.103886 29.533834 10.269321 27.960402 8.9746094 26.974609 A 1.50015 1.50015 0 0 0 8.9726562 26.974609 C 7.7718465 26.0611 7 24.633223 7 23 C 7 20.30107 9.1011956 18.137311 11.765625 18.013672 A 1.50015 1.50015 0 0 0 13.126953 16.0625 C 13.040867 15.790019 13 15.569482 13 15.375 C 13 13.981548 14.25826 12.75 16 12.75 z M 25 16 C 30.458834 16 34.859299 20.331156 34.988281 25.757812 A 1.5001695 1.5001695 0 0 0 34.978516 26.419922 C 34.942398 27.295854 34.806093 28.144708 34.560547 28.947266 C 33.350844 28.803708 33.179097 28.372124 33.029297 27.972656 C 32.846693 27.485713 32.955078 26.863281 32.955078 26.863281 A 1.50015 1.50015 0 0 0 31.5 25 C 30.5 25 29.994407 24.771389 29.679688 24.529297 C 29.364967 24.287205 29.184095 23.973674 29.0625 23.568359 C 28.819311 22.757729 28.970703 21.794922 28.970703 21.794922 A 1.50015 1.50015 0 0 0 27.5 20 C 25.6 20 24.638278 18.975608 23.919922 17.744141 C 23.58974 17.178115 23.375408 16.618693 23.228516 16.166016 C 23.804425 16.06367 24.393778 16 25 16 z M 20.390625 17.123047 C 20.593503 17.74201 20.879842 18.484026 21.330078 19.255859 C 22.091668 20.561443 23.438489 21.923617 25.326172 22.566406 A 1.50015 1.50015 0 0 0 25.300781 22.599609 C 24.100781 24.199609 23.12403 24.201882 22.142578 24.023438 C 21.161126 23.844991 20.400391 23.300781 20.400391 23.300781 A 1.50015 1.50015 0 0 0 18.029297 24.205078 C 17.604726 26.327932 16.691614 27.122715 15.896484 27.564453 C 15.624243 27.715698 15.390138 27.800782 15.179688 27.865234 C 15.066296 27.26032 15 26.638842 15 26 C 15 22.125062 17.183875 18.784707 20.390625 17.123047 z M 26.65625 25.501953 C 26.942139 26.008401 27.321448 26.500422 27.851562 26.908203 C 28.432863 27.355357 29.196736 27.622721 30.037109 27.796875 C 30.069939 28.198412 30.047349 28.565073 30.220703 29.027344 C 30.622776 30.099537 31.661533 31.134198 33.257812 31.652344 C 31.45975 34.280828 28.439218 36 25 36 C 21.156849 36 17.837471 33.853129 16.162109 30.689453 C 16.537489 30.570893 16.937575 30.416622 17.353516 30.185547 C 18.451345 29.575642 19.487221 28.247962 20.244141 26.498047 C 20.673378 26.67495 21.051269 26.875445 21.607422 26.976562 C 23.056341 27.240003 25.006935 26.933857 26.65625 25.501953 z M 37.919922 27.417969 C 39.018632 28.284543 40 30.050988 40 31.5 C 40 33.5296 39.131289 34.710117 38.013672 35.578125 C 36.896054 36.446133 35.428317 36.862862 34.929688 36.914062 A 1.50015 1.50015 0 0 0 34.927734 36.914062 C 33.999071 37.009588 33.138903 37.479234 32.5625 38.236328 C 31.281722 39.917349 29.280117 41 27 41 C 25.348733 41 23.837544 40.431684 22.644531 39.482422 A 1.50015 1.50015 0 0 0 22.457031 39.308594 C 22.186378 39.076621 21.931538 38.8288 21.699219 38.558594 C 22.755453 38.837084 23.858172 39 25 39 C 31.682469 39 37.209449 33.916163 37.919922 27.417969 z"/></svg>