<svg xmlns="http://www.w3.org/2000/svg"  viewBox="0 0 48 48" width="50px" height="50px"><path d="M 24.425781 4.0019531 A 1.50015 1.50015 0 0 0 23.591797 4.3066406 C 23.591797 4.3066406 18 8.2408104 18 14 C 18 15.068084 18.192543 16.072864 18.505859 17.001953 A 1.50015 1.50015 0 0 0 18.425781 17.001953 A 1.50015 1.50015 0 0 0 17.591797 17.306641 C 17.591797 17.306641 12 21.24081 12 27 C 12 29.283774 12.938831 31.159947 14 32.738281 L 14 42.5 A 1.50015 1.50015 0 1 0 17 42.5 L 17 36.125 C 17.111874 36.21053 17.591797 36.693359 17.591797 36.693359 A 1.50015 1.50015 0 0 0 19.408203 36.693359 C 19.408203 36.693359 19.888126 36.210533 20 36.125 L 20 42.5 A 1.50015 1.50015 0 0 0 20.005859 42.650391 A 1.50015 1.50015 0 0 0 20.025391 42.798828 A 1.50015 1.50015 0 0 0 20.109375 43.085938 A 1.50015 1.50015 0 0 0 20.173828 43.222656 A 1.50015 1.50015 0 0 0 20.550781 43.683594 A 1.50015 1.50015 0 0 0 20.671875 43.771484 A 1.50015 1.50015 0 0 0 20.800781 43.847656 A 1.50015 1.50015 0 0 0 20.9375 43.912109 A 1.50015 1.50015 0 0 0 21.078125 43.960938 A 1.50015 1.50015 0 0 0 21.373047 44.015625 A 1.50015 1.50015 0 0 0 21.964844 43.947266 A 1.50015 1.50015 0 0 0 22.238281 43.826172 A 1.50015 1.50015 0 0 0 22.365234 43.746094 A 1.50015 1.50015 0 0 0 22.591797 43.550781 A 1.50015 1.50015 0 0 0 22.847656 43.181641 A 1.50015 1.50015 0 0 0 22.951172 42.900391 A 1.50015 1.50015 0 0 0 23 42.5 L 23 33.5 L 23 32.738281 C 23.347837 32.220925 23.715815 31.749136 24 31.146484 C 24.284185 31.749136 24.652163 32.220925 25 32.738281 L 25 42.5 A 1.50015 1.50015 0 0 0 25.005859 42.650391 A 1.50015 1.50015 0 0 0 25.025391 42.798828 A 1.50015 1.50015 0 0 0 25.060547 42.943359 A 1.50015 1.50015 0 0 0 25.173828 43.222656 A 1.50015 1.50015 0 0 0 25.439453 43.582031 A 1.50015 1.50015 0 0 0 25.550781 43.683594 A 1.50015 1.50015 0 0 0 25.671875 43.771484 A 1.50015 1.50015 0 0 0 26.224609 43.996094 A 1.50015 1.50015 0 0 0 26.373047 44.015625 A 1.50015 1.50015 0 0 0 26.671875 44.011719 A 1.50015 1.50015 0 0 0 26.820312 43.986328 A 1.50015 1.50015 0 0 0 27.238281 43.826172 A 1.50015 1.50015 0 0 0 27.689453 43.435547 A 1.50015 1.50015 0 0 0 27.847656 43.181641 A 1.50015 1.50015 0 0 0 27.90625 43.042969 A 1.50015 1.50015 0 0 0 27.951172 42.900391 A 1.50015 1.50015 0 0 0 27.982422 42.753906 A 1.50015 1.50015 0 0 0 27.998047 42.605469 A 1.50015 1.50015 0 0 0 28 42.5 L 28 36.125 C 28.111874 36.21053 28.591797 36.693359 28.591797 36.693359 A 1.50015 1.50015 0 0 0 30.408203 36.693359 C 30.408203 36.693359 30.888126 36.210533 31 36.125 L 31 42.5 A 1.50015 1.50015 0 1 0 34 42.5 L 34 32.738281 C 35.061169 31.159947 36 29.283774 36 27 C 36 21.24081 30.408203 17.306641 30.408203 17.306641 A 1.50015 1.50015 0 0 0 30.382812 17.289062 C 30.756757 16.279612 31 15.181182 31 14 C 31 8.2408104 25.408203 4.3066406 25.408203 4.3066406 A 1.50015 1.50015 0 0 0 24.425781 4.0019531 z M 24.5 7.6386719 C 25.645405 8.7165784 28 11.119179 28 14 C 28 14.535914 27.7557 15.052084 27.591797 15.578125 C 25.58966 12.268685 23.434117 11.111702 22.128906 10.648438 C 23.03698 9.105925 23.819955 8.2786419 24.5 7.6386719 z M 21.158203 13.390625 C 22.268175 13.743617 24.526352 14.755067 25.960938 18.755859 C 25.254722 19.669455 24.963655 19.924997 24.5 20.361328 C 23.354595 19.283422 21 16.880821 21 14 C 21 13.793015 21.131153 13.597236 21.158203 13.390625 z M 18.5 20.638672 C 19.029012 21.136509 19.445246 21.571526 20.236328 22.667969 C 18.865781 24.537668 16.83638 25.03898 15.451172 25.251953 C 16.211492 23.017439 17.590583 21.494497 18.5 20.638672 z M 29.5 20.638672 C 30.124703 21.226561 30.758142 21.912755 31.638672 23.289062 C 28.800078 24.757362 27.184345 26.476138 26.255859 27.994141 C 26.186687 27.6588 26 27.337493 26 27 C 26 24.119179 28.354595 21.716578 29.5 20.638672 z M 21.591797 25.414062 C 21.757091 25.942442 22 26.461599 22 27 C 22 29.880821 19.645405 32.283422 18.5 33.361328 C 17.531014 32.449444 15.973413 30.714349 15.337891 28.306641 C 16.7089 28.212031 19.182888 27.731882 21.591797 25.414062 z M 32.771484 26.111328 C 32.827354 26.411534 33 26.698328 33 27 C 33 29.880821 30.645405 32.283422 29.5 33.361328 C 29.024858 32.914186 28.712492 32.626771 27.990234 31.681641 A 1.50015 1.50015 0 0 0 28 31.5 C 28 31.5 27.96281 30.950349 28.566406 29.84375 C 29.131333 28.80805 30.366119 27.417545 32.771484 26.111328 z"/></svg>