<svg xmlns="http://www.w3.org/2000/svg"  viewBox="0 0 48 48" width="50px" height="50px"><path d="M 24.160156 3.96875 C 21.935004 3.96875 19.136294 4.4389312 16.771484 6.1542969 C 16.618316 6.2654011 16.475891 6.3973415 16.328125 6.5195312 C 16.017267 6.5003684 15.700933 6.4785156 15.423828 6.4785156 C 13.380685 6.4785156 11.101669 7.3821353 9.2285156 9.1777344 C 7.3553623 10.973333 5.9570314 13.728911 5.9570312 17.257812 C 5.9570312 21.859313 8.4906922 25.140672 11.074219 28.037109 C 13.577222 30.843272 16.144196 33.428848 17.394531 36.777344 C 17.365226 37.049801 17.339844 37.324622 17.339844 37.611328 C 17.339844 41.21644 20.513462 44.03125 24.230469 44.03125 C 27.949827 44.03125 31.375189 41.226872 31.117188 37.507812 C 31.084989 37.042827 31.003983 36.587493 30.904297 36.136719 C 32.27193 32.970161 34.823669 30.459918 37.240234 27.705078 C 39.70279 24.897811 42.044922 21.685095 42.044922 17.259766 C 42.044922 13.732375 40.653394 10.975858 38.787109 9.1796875 C 36.920825 7.3835165 34.648009 6.4785163 32.609375 6.4785156 C 32.407293 6.4785156 32.185163 6.4881471 31.962891 6.4980469 C 31.823732 6.3838751 31.69077 6.2586834 31.546875 6.1542969 C 29.182122 4.438825 26.385433 3.96875 24.160156 3.96875 z M 24.160156 6.96875 C 25.93888 6.96875 28.147362 7.3925031 29.787109 8.5820312 C 31.426857 9.7715594 32.671875 11.652165 32.671875 15.300781 C 32.671875 19.163394 29.646178 24.17761 26.960938 27.683594 C 26.112888 25.955832 25.5 24.327471 25.5 22.935547 L 25.5 22.828125 L 25.5 16.160156 L 22.5 16.160156 L 22.5 22.828125 C 22.5 24.835007 22.090883 26.429903 21.496094 27.851562 C 18.782536 24.334412 15.648437 19.228136 15.648438 15.300781 C 15.648438 11.651619 16.893513 9.7714156 18.533203 8.5820312 C 20.172893 7.3926469 22.381308 6.96875 24.160156 6.96875 z M 13.787109 9.8085938 C 13.075458 11.315899 12.648437 13.142057 12.648438 15.300781 C 12.648438 21.21329 16.937953 27.105403 19.980469 30.765625 C 19.582241 31.435742 19.168793 32.10522 18.785156 32.796875 C 17.197136 30.158325 15.10549 28.049217 13.3125 26.039062 C 10.824526 23.24975 8.9570312 20.775312 8.9570312 17.257812 C 8.9570312 14.497715 9.9775903 12.613948 11.304688 11.341797 C 12.07105 10.607164 12.960552 10.10633 13.787109 9.8085938 z M 34.585938 9.9414062 C 35.304996 10.248347 36.051669 10.711056 36.707031 11.341797 C 38.028246 12.613376 39.044922 14.498156 39.044922 17.259766 C 39.044922 20.646436 37.327819 23.05508 34.984375 25.726562 C 33.217847 27.740371 31.111452 29.820499 29.474609 32.427734 C 29.156651 31.803658 28.835019 31.18591 28.496094 30.576172 C 31.520355 26.896976 35.671875 21.109425 35.671875 15.300781 C 35.671875 13.202846 35.2623 11.42409 34.585938 9.9414062 z M 24.240234 28.857422 C 24.621693 29.621182 24.976834 30.406604 25.376953 31.134766 C 26.752241 33.637601 28.002911 35.97993 28.123047 37.714844 C 28.241046 39.415785 26.465111 41.03125 24.230469 41.03125 C 21.993475 41.03125 20.339844 39.440216 20.339844 37.611328 C 20.339844 35.903986 21.389482 34.303736 22.714844 32.039062 C 23.25005 31.124544 23.766117 30.013533 24.240234 28.857422 z"/></svg>