<svg xmlns="http://www.w3.org/2000/svg"  viewBox="0 0 48 48" width="50px" height="50px"><path d="M 25.488281 4.015625 C 24.912436 4.0358323 24.339385 4.0968213 23.769531 4.1992188 C 19.2107 5.018398 15.125914 8.1807263 10.90625 12.400391 C 6.4485904 16.85805 5.9997371 21.62544 6.4824219 25.332031 C 6.7237642 27.185327 7.1501471 28.81111 7.3574219 30.070312 C 7.5646967 31.329515 7.4931143 32.085054 7.28125 32.425781 C 6.1627171 34.224398 4.897474 36.035357 3.9179688 37.384766 C 2.5395141 39.283938 2.742533 41.933939 4.4042969 43.595703 C 6.0660607 45.257467 8.7141095 45.460486 10.613281 44.082031 C 11.962303 43.102807 13.774907 41.836737 15.574219 40.716797 C 15.91537 40.504632 16.670506 40.433402 17.929688 40.640625 C 19.188869 40.847846 20.81475 41.27617 22.667969 41.517578 C 26.374407 42.000394 31.139997 41.551408 35.597656 37.09375 C 39.817277 32.874129 42.981311 28.789065 43.800781 24.230469 C 44.620252 19.671873 42.836468 14.910686 37.962891 10.037109 C 34.307708 6.3819249 30.715674 4.4645934 27.224609 4.0800781 C 26.642765 4.0159923 26.064126 3.9954177 25.488281 4.015625 z M 25.619141 7.0019531 C 26.061434 6.982448 26.506303 6.9936112 26.955078 7.0390625 C 29.647729 7.3117699 32.49198 8.8083861 35.841797 12.158203 C 40.30822 16.624626 41.477936 20.193065 40.847656 23.699219 C 40.217377 27.205373 37.529941 30.919277 33.476562 34.972656 C 29.661223 38.787997 26.287999 38.9622 23.054688 38.541016 C 21.438032 38.330423 19.894303 37.92492 18.416016 37.681641 C 16.937728 37.438362 15.388083 37.300587 13.990234 38.169922 C 12.097546 39.347982 10.238541 40.647521 8.8515625 41.654297 C 8.1247344 42.181842 7.1576268 42.106846 6.5253906 41.474609 C 5.8931545 40.842373 5.8181577 39.873312 6.3457031 39.146484 C 7.3521979 37.759893 8.652611 35.903149 9.8300781 34.009766 C 10.699214 32.611993 10.561678 31.062157 10.318359 29.583984 C 10.07504 28.105812 9.6675639 26.560064 9.4570312 24.943359 C 9.0359661 21.709951 9.2120032 18.338777 13.027344 14.523438 C 17.08068 10.4701 20.792409 7.7804613 24.298828 7.1503906 C 24.737131 7.0716318 25.176848 7.0214583 25.619141 7.0019531 z M 23.169922 10.388672 A 1.50015 1.50015 0 0 0 22.138672 10.841797 C 20.567053 12.413416 20.260677 14.747944 20.775391 16.978516 C 21.195411 18.798725 22.15152 20.6442 23.550781 22.328125 L 18.451172 27.427734 C 17.683275 26.365232 17.202634 25.237359 17.033203 24.220703 C 16.800766 22.825981 17.098833 21.737109 17.810547 21.025391 A 1.50015 1.50015 0 0 0 16.720703 18.449219 A 1.50015 1.50015 0 0 0 15.689453 18.904297 C 14.175172 20.418578 13.721203 22.606363 14.072266 24.712891 C 14.351452 26.388126 15.119713 28.067099 16.306641 29.572266 L 14.076172 31.802734 A 1.50015 1.50015 0 1 0 16.197266 33.923828 L 18.427734 31.693359 C 19.932269 32.880491 21.609835 33.648654 23.285156 33.927734 C 25.391792 34.278665 27.581065 33.824504 29.095703 32.310547 A 1.50015 1.50015 0 1 0 26.974609 30.189453 C 26.262247 30.901496 25.173911 31.201069 23.779297 30.96875 C 22.76296 30.799446 21.632563 30.318975 20.570312 29.550781 L 25.669922 24.451172 C 27.353239 25.850723 29.199123 26.804691 31.019531 27.224609 C 33.250306 27.739189 35.586584 27.432947 37.158203 25.861328 A 1.50015 1.50015 0 1 0 35.037109 23.740234 C 34.382728 24.394616 33.257788 24.661202 31.695312 24.300781 C 30.487835 24.022249 29.107181 23.347793 27.802734 22.318359 L 33.126953 16.994141 A 1.50015 1.50015 0 0 0 32.037109 14.419922 A 1.50015 1.50015 0 0 0 31.005859 14.873047 L 25.681641 20.197266 C 24.652285 18.892688 23.97784 17.512128 23.699219 16.304688 C 23.338682 14.742259 23.605389 13.617272 24.259766 12.962891 A 1.50015 1.50015 0 0 0 23.169922 10.388672 z"/></svg>