<svg xmlns="http://www.w3.org/2000/svg"  viewBox="0 0 48 48" width="50px" height="50px"><path d="M 35.123047 7.4296875 C 34.309047 7.4296875 33.522687 8.4556406 33.054688 9.9316406 C 31.529688 9.3196406 29.607422 9.9316406 29.607422 9.9316406 C 29.607422 10.462834 29.684893 10.88567 29.791016 11.251953 C 28.248501 11.43045 26.929821 11.934871 25.867188 12.794922 C 25.767187 12.875922 25.672078 12.957016 25.580078 13.041016 C 26.347078 13.469016 26.901219 14.223938 27.074219 15.085938 C 27.252219 15.139938 27.427563 15.196813 27.601562 15.257812 C 27.650562 15.212813 27.702859 15.169953 27.755859 15.126953 C 29.267859 13.901953 31.973078 13.849656 35.580078 14.972656 C 35.865078 15.061656 36.171031 15.063562 36.457031 14.976562 C 39.208031 14.149563 41.235328 14.229797 42.486328 15.216797 C 44.254328 16.610797 44.109469 19.53525 44.105469 19.65625 C 44.105469 24.73525 42.216187 27.310547 38.492188 27.310547 C 37.393188 27.310547 37.043719 26.983656 36.761719 26.722656 C 36.573719 26.547656 36.253297 26.251484 35.779297 26.146484 C 35.850297 26.786484 35.888672 27.447953 35.888672 28.126953 C 35.888672 28.660953 35.859734 29.188891 35.802734 29.712891 C 36.413734 30.033891 37.277187 30.310547 38.492188 30.310547 C 43.966187 30.310547 47.106516 26.428859 47.103516 19.755859 C 47.114516 19.573859 47.359234 15.260906 44.365234 12.878906 C 43.285074 12.019465 41.951546 11.550479 40.396484 11.449219 C 40.537062 11.044931 40.638672 10.560143 40.638672 9.9316406 C 40.638672 9.9316406 38.665406 9.4296406 37.191406 9.9316406 C 36.591406 8.4856406 35.920047 7.4296875 35.123047 7.4296875 z M 17.388672 11.316406 C 16.239672 11.316406 15.128797 12.764609 14.466797 14.849609 C 13.063797 14.286609 11.421266 14.457531 10.447266 14.644531 C 9.9392656 14.742531 9.5855312 15.218422 9.6445312 15.732422 C 9.6832336 16.067561 9.747245 16.365131 9.8222656 16.640625 C 7.680065 16.990131 5.7091701 17.872559 4.1621094 19.357422 C 2.0949683 21.341456 0.88867186 24.343152 0.88867188 28.126953 C 0.88867188 36.460438 8.6505167 42.994141 17.388672 42.994141 C 26.126827 42.994141 33.888672 36.460438 33.888672 28.126953 C 33.888672 24.343152 32.680422 21.341456 30.613281 19.357422 C 29.066315 17.87265 27.095174 16.992128 24.953125 16.642578 C 25.025178 16.378104 25.088056 16.092626 25.126953 15.773438 C 25.190953 15.245437 24.813109 14.758734 24.287109 14.677734 C 23.295109 14.525734 21.655547 14.391609 20.310547 14.849609 C 19.462547 12.806609 18.515672 11.316406 17.388672 11.316406 z M 18.333984 18.935547 L 18.400391 18.998047 L 18.533203 19.144531 C 18.472703 19.068413 18.398791 19.006879 18.333984 18.935547 z M 16.431641 18.943359 C 16.369768 19.011905 16.300127 19.071634 16.242188 19.144531 L 16.375 18.998047 L 16.431641 18.943359 z M 12.03125 19.466797 C 13.670743 19.466797 15.613918 20.290567 16.185547 21.009766 A 1.50015 1.50015 0 0 0 16.316406 21.15625 L 16.345703 21.183594 A 1.50015 1.50015 0 0 0 18.429688 21.183594 L 18.458984 21.15625 A 1.50015 1.50015 0 0 0 18.591797 21.009766 C 19.163716 20.290201 21.103454 19.466797 22.744141 19.466797 C 25.123126 19.466797 27.122 20.163268 28.537109 21.521484 C 29.952218 22.8797 30.888672 24.959754 30.888672 28.126953 C 30.888672 34.561468 24.628517 39.994141 17.388672 39.994141 C 10.148827 39.994141 3.8886719 34.561468 3.8886719 28.126953 C 3.8886719 24.959754 4.8251254 22.8797 6.2402344 21.521484 C 7.6553433 20.163268 9.6522647 19.466797 12.03125 19.466797 z M 12.738281 22.115234 C 11.288696 22.115234 9.6371752 22.434479 8.2382812 23.474609 C 6.8393875 24.51474 5.8476562 26.343514 5.8476562 28.683594 C 5.8476562 30.868715 6.992815 32.784414 8.5292969 34.1875 C 10.065779 35.590586 12.032486 36.549266 14.080078 36.767578 A 1.50015 1.50015 0 0 0 15.728516 35.085938 L 14.226562 23.423828 A 1.50015 1.50015 0 0 0 12.738281 22.115234 z M 22.259766 22.115234 A 1.50015 1.50015 0 0 0 20.771484 23.433594 L 19.34375 35.09375 A 1.50015 1.50015 0 0 0 21 36.767578 C 22.984386 36.545077 24.871735 35.571564 26.339844 34.162109 C 27.807952 32.752655 28.888672 30.842424 28.888672 28.683594 C 28.888672 26.361858 27.959286 24.548274 26.613281 23.496094 C 25.267276 22.443914 23.661599 22.115234 22.259766 22.115234 z M 11.466797 25.474609 L 12.462891 33.214844 C 11.772715 32.898515 11.108666 32.480322 10.552734 31.972656 C 9.4774667 30.990742 8.8476562 29.788472 8.8476562 28.683594 C 8.8476562 27.098673 9.3372374 26.393979 10.027344 25.880859 C 10.393757 25.608417 10.963912 25.601517 11.466797 25.474609 z M 23.541016 25.496094 C 23.962729 25.619537 24.452398 25.614524 24.765625 25.859375 C 25.40662 26.360445 25.888672 27.080329 25.888672 28.683594 C 25.888672 29.814764 25.27786 31.022502 24.261719 31.998047 C 23.774878 32.465437 23.197039 32.854427 22.601562 33.158203 L 23.541016 25.496094 z"/></svg>