<svg xmlns="http://www.w3.org/2000/svg"  viewBox="0 0 48 48" width="50px" height="50px"><path d="M 24 3.4511719 C 21.259491 3.4511719 18.935249 5.0365982 17.716797 7.3046875 C 17.586499 7.2973575 17.466538 7.2617188 17.333984 7.2617188 C 14.848338 7.2617188 12.644648 8.5382043 11.345703 10.466797 A 1.50015 1.50015 0 0 0 11.119141 10.529297 C 8.3126398 11.520868 6.3105469 14.204964 6.3105469 17.332031 C 6.3105469 17.466167 6.3459756 17.585391 6.3535156 17.716797 C 4.0849174 18.935626 2.5 21.258873 2.5 24 C 2.5 26.740509 4.0854264 29.064751 6.3535156 30.283203 C 6.3461856 30.413501 6.3105469 30.533462 6.3105469 30.666016 C 6.3105469 33.879287 8.4278407 36.623146 11.353516 37.546875 C 12.653029 39.468164 14.852 40.738281 17.332031 40.738281 C 17.466167 40.738281 17.585391 40.702852 17.716797 40.695312 C 18.935626 42.962911 21.257538 44.548828 23.998047 44.548828 C 26.738556 44.548828 29.062798 42.963402 30.28125 40.695312 C 30.411706 40.702613 30.531345 40.738281 30.664062 40.738281 C 33.153771 40.738281 35.360099 39.457318 36.658203 37.523438 C 39.575603 36.593811 41.689453 33.87236 41.689453 30.666016 C 41.689453 30.532552 41.653954 30.413965 41.646484 30.283203 C 43.914575 29.064751 45.5 26.740509 45.5 24 C 45.5 21.259491 43.914574 18.935249 41.646484 17.716797 C 41.653784 17.586499 41.689453 17.466538 41.689453 17.333984 C 41.689453 14.143896 39.604909 11.41478 36.708984 10.472656 A 1.50015 1.50015 0 0 0 36.646484 10.455078 C 35.346519 8.5330141 33.146642 7.2617187 30.666016 7.2617188 C 30.532552 7.2617188 30.413965 7.2972215 30.283203 7.3046875 C 29.064805 5.0370701 26.740847 3.4511719 24 3.4511719 z M 24 6.4511719 C 25.885987 6.4511719 27.458516 7.6793178 28.005859 9.3632812 A 1.50015 1.50015 0 0 0 29.751953 10.365234 C 30.056105 10.298754 30.35994 10.261719 30.666016 10.261719 C 33.011496 10.261719 34.880859 12.131082 34.880859 14.476562 C 34.880859 14.827148 34.837343 15.166365 34.757812 15.490234 C 34.516031 15.020455 34.208217 14.577357 33.816406 14.185547 C 32.539958 12.909099 30.747737 12.427224 29.095703 12.751953 C 28.844302 12.801363 28.495781 12.657404 28.353516 12.445312 A 1.50015 1.50015 0 0 0 28.353516 12.443359 C 27.414907 11.045224 25.807657 10.119141 24.001953 10.119141 C 22.196249 10.119141 20.587046 11.045224 19.648438 12.443359 A 1.50015 1.50015 0 0 0 19.648438 12.445312 C 19.506697 12.656624 19.157529 12.80101 18.908203 12.751953 C 17.255634 12.426468 15.462492 12.908602 14.185547 14.185547 C 13.793108 14.577986 13.486069 15.023512 13.244141 15.494141 C 13.163885 15.169222 13.119141 14.828446 13.119141 14.476562 C 13.119141 12.131082 14.988504 10.261719 17.333984 10.261719 C 17.642418 10.261719 17.9446 10.297049 18.244141 10.363281 A 1.50015 1.50015 0 0 0 19.994141 9.3632812 C 20.541563 7.6783401 22.113619 6.4511719 24 6.4511719 z M 24.001953 13.119141 C 24.792249 13.119141 25.45789 13.51137 25.863281 14.115234 C 26.703179 15.366259 28.195746 15.985804 29.673828 15.695312 C 30.387259 15.554797 31.136259 15.747582 31.695312 16.306641 C 32.254368 16.865695 32.447156 17.612741 32.306641 18.326172 A 1.50015 1.50015 0 0 0 32.306641 18.328125 C 32.015698 19.806799 32.632077 21.298412 33.884766 22.138672 C 34.48863 22.544063 34.880859 23.209704 34.880859 24 C 34.880859 24.790296 34.48863 25.455937 33.884766 25.861328 C 32.632859 26.701063 32.016049 28.193276 32.306641 29.671875 A 1.50015 1.50015 0 0 0 32.306641 29.673828 C 32.447156 30.387259 32.254372 31.134305 31.695312 31.693359 C 31.136259 32.252414 30.387259 32.445203 29.673828 32.304688 C 28.195154 32.013745 26.701588 32.632077 25.861328 33.884766 C 25.455859 34.48794 24.791718 34.880859 24.001953 34.880859 C 23.212188 34.880859 22.546094 34.48794 22.140625 33.884766 L 22.138672 33.884766 C 21.298774 32.633741 19.806207 32.014196 18.328125 32.304688 C 17.614694 32.445203 16.867648 32.252418 16.308594 31.693359 C 15.749539 31.134305 15.554798 30.387259 15.695312 29.673828 A 1.50015 1.50015 0 0 0 15.695312 29.671875 C 15.986303 28.193154 15.369875 26.701588 14.117188 25.861328 C 13.513322 25.455937 13.121094 24.790296 13.121094 24 C 13.121094 23.209704 13.513323 22.544063 14.117188 22.138672 C 15.369093 21.298937 15.985904 19.806724 15.695312 18.328125 A 1.50015 1.50015 0 0 0 15.695312 18.326172 C 15.554797 17.612741 15.749542 16.865695 16.308594 16.306641 C 16.867648 15.747586 17.614694 15.554797 18.328125 15.695312 C 19.806282 15.986154 21.29825 15.367041 22.138672 14.115234 C 22.544063 13.51137 23.211657 13.119141 24.001953 13.119141 z M 37.859375 14.820312 C 38.379901 15.519576 38.689453 16.387028 38.689453 17.333984 C 38.689453 17.642418 38.654123 17.9446 38.587891 18.244141 A 1.50015 1.50015 0 0 0 39.589844 19.994141 C 41.274785 20.541563 42.5 22.113619 42.5 24 C 42.5 25.886381 41.274785 27.458437 39.589844 28.005859 A 1.50015 1.50015 0 0 0 38.587891 29.751953 C 38.654381 30.056105 38.689453 30.35994 38.689453 30.666016 C 38.689453 31.610899 38.376798 32.473631 37.859375 33.171875 C 37.766135 31.261493 36.927624 29.538998 35.625 28.300781 C 36.983784 27.355963 37.880859 25.775258 37.880859 24 C 37.880859 22.225721 36.984477 20.646173 35.626953 19.701172 C 36.932983 18.459834 37.767932 16.733171 37.859375 14.820312 z M 10.138672 14.824219 C 10.231102 16.735542 11.063307 18.466565 12.367188 19.707031 C 11.014157 20.652588 10.121094 22.229212 10.121094 24 C 10.121094 25.771343 11.015396 27.347426 12.369141 28.292969 C 11.066755 29.530985 10.235731 31.256227 10.140625 33.164062 C 9.6250999 32.466251 9.3105469 31.608829 9.3105469 30.666016 C 9.3105469 30.357582 9.3458789 30.0554 9.4121094 29.755859 A 1.50015 1.50015 0 0 0 8.4101562 28.005859 C 6.7252151 27.458437 5.5 25.886381 5.5 24 C 5.5 22.113619 6.72471 20.542463 8.4101562 19.994141 A 1.50015 1.50015 0 0 0 9.4121094 18.246094 C 9.3456234 17.941942 9.3105469 17.638107 9.3105469 17.332031 C 9.3105469 16.387399 9.6205452 15.522631 10.138672 14.824219 z M 13.242188 32.505859 C 13.48422 32.977097 13.792657 33.421563 14.185547 33.814453 C 15.462492 35.091398 17.255634 35.573532 18.908203 35.248047 C 19.159604 35.198637 19.506172 35.342596 19.648438 35.554688 A 1.50015 1.50015 0 0 0 19.648438 35.556641 C 20.587045 36.954776 22.196249 37.880859 24.001953 37.880859 C 25.807657 37.880859 27.414907 36.954776 28.353516 35.556641 A 1.50015 1.50015 0 0 0 28.353516 35.554688 C 28.495256 35.343376 28.844424 35.19899 29.09375 35.248047 C 30.746319 35.573532 32.539461 35.091398 33.816406 33.814453 C 34.207137 33.423723 34.514331 32.981994 34.755859 32.513672 C 34.834665 32.836382 34.878906 33.174071 34.878906 33.523438 C 34.878906 35.868918 33.009543 37.738281 30.664062 37.738281 C 30.355629 37.738281 30.053446 37.702951 29.753906 37.636719 A 1.50015 1.50015 0 0 0 28.003906 38.636719 C 27.456484 40.32166 25.884428 41.548828 23.998047 41.548828 C 22.111666 41.548828 20.542585 40.322541 19.994141 38.636719 A 1.50015 1.50015 0 0 0 18.246094 37.634766 C 17.941942 37.701256 17.638107 37.738281 17.332031 37.738281 C 15.810107 37.738281 14.499547 36.945466 13.759766 35.751953 A 1.50015 1.50015 0 0 0 13.546875 35.357422 C 13.280454 34.802493 13.119141 34.185615 13.119141 33.523438 C 13.119141 33.171148 13.162113 32.831148 13.242188 32.505859 z"/></svg>