<svg xmlns="http://www.w3.org/2000/svg"  viewBox="0 0 48 48" width="50px" height="50px"><path d="M 23.5 4 C 21.608917 4 19.968425 4.9893511 18.982422 6.453125 C 18.481219 6.3030554 18.046185 6 17.5 6 C 14.552093 6 12.155186 8.3751111 12.041016 11.296875 C 9.5856874 11.88438 7.635949 13.793132 7.1347656 16.257812 C 4.3815292 17.0239 2.2956532 19.435898 2.03125 22.365234 A 1.50015 1.50015 0 0 0 3.2578125 23.976562 C 3.2578125 23.976562 3.5247086 24.009412 3.9785156 24.361328 C 4.4323227 24.713247 4.9749455 25.30741 5.1894531 26.71875 C 6.5341202 36.463587 14.910818 43.970703 25.009766 43.970703 C 36.043389 43.970703 45.019531 34.99456 45.019531 23.960938 C 45.019531 20.599988 44.189021 17.420901 42.720703 14.636719 A 1.50015 1.50015 0 0 0 42.699219 14.599609 C 42.317411 13.922191 42 12.910782 42 12 C 42 10.974374 42.281959 10.027054 42.773438 9.1992188 A 1.50015 1.50015 0 0 0 42.232422 7.1347656 C 40.989817 6.419693 39.540079 6 38 6 C 36.600426 6 35.288453 6.3467096 34.136719 6.9570312 C 32.954585 5.7522349 31.310822 5 29.5 5 C 28.629979 5 27.829741 5.2260531 27.076172 5.5371094 C 26.099278 4.6552455 24.911154 4 23.5 4 z M 23.5 7 C 24.379209 7 25.130345 7.4422747 25.580078 8.1171875 A 1.50015 1.50015 0 0 0 27.632812 8.5527344 C 28.186236 8.2016609 28.814492 8 29.5 8 C 30.370956 8 31.154168 8.3176718 31.761719 8.8359375 C 30.583764 10.174715 29.8159 11.891293 29.646484 13.773438 C 27.515681 14.836614 26 16.962882 26 19.5 C 26 20.299674 26.165602 21.055294 26.433594 21.757812 C 25.828371 22.03407 25.301302 22.396942 24.794922 22.816406 C 23.382701 20.530934 20.869272 19 18 19 C 16.950165 19 15.9763 19.262428 15.054688 19.632812 C 14.057012 17.844239 12.332248 16.528887 10.271484 16.134766 C 10.797881 14.874044 12.035929 14 13.5 14 C 13.29 14 13.313269 14.002802 13.585938 14.013672 A 1.50015 1.50015 0 0 0 15.095703 12.132812 C 15.030651 11.88623 15 11.683028 15 11.5 C 15 10.101774 16.101774 9 17.5 9 C 18.025181 9 18.497512 9.1566863 18.898438 9.4277344 A 1.50015 1.50015 0 0 0 21.154297 8.6816406 C 21.497344 7.7021348 22.398903 7 23.5 7 z M 38 9 C 38.531731 9 38.971662 9.2496595 39.455078 9.390625 C 39.184006 10.217847 39 11.083524 39 12 C 39 13.543218 39.45774 14.959637 40.085938 16.074219 C 41.32148 18.431067 42.019531 21.108841 42.019531 23.960938 C 42.019531 33.373314 34.422143 40.970703 25.009766 40.970703 C 16.38829 40.970703 9.2930912 34.581558 8.1582031 26.289062 A 1.50015 1.50015 0 0 0 8.1542969 26.267578 C 7.8338063 24.158914 6.8023492 22.754815 5.8164062 21.990234 C 5.5529199 21.785906 5.5255979 21.863335 5.2753906 21.732422 C 5.8087911 20.155481 7.2287001 19 9 19 C 10.881863 19 12.430852 20.283444 12.871094 22.011719 A 1.50015 1.50015 0 0 0 15.173828 22.876953 C 15.98124 22.322726 16.94489 22 18 22 C 20.236238 22 22.059896 23.473689 22.708984 25.474609 C 22.288354 26.409576 22 27.411926 22 28.5 C 22 31.099494 23.334828 33.407485 25.355469 34.75 A 1.5005097 1.5005097 0 0 0 27.015625 32.25 C 25.800266 31.442515 25 30.076506 25 28.5 C 25 26.233177 26.652049 24.391481 28.8125 24.060547 A 1.50015 1.50015 0 0 0 29.763672 21.648438 C 29.28114 21.035551 29 20.31053 29 19.5 C 29 17.922054 30.034237 16.628626 31.460938 16.181641 A 1.50015 1.50015 0 0 0 32.511719 14.695312 C 32.505661 14.527707 32.5 14.467353 32.5 14.5 C 32.5 12.681862 33.369957 11.08513 34.714844 10.085938 C 35.630012 9.4060076 36.762795 9 38 9 z"/></svg>