<svg xmlns="http://www.w3.org/2000/svg"  viewBox="0 0 48 48" width="50px" height="50px"><path d="M 29.785156 5.0585938 C 26.169495 4.9629188 22.680168 5.8751135 19.867188 7.7089844 C 16.116546 10.154146 13.630143 14.374732 14.003906 19.607422 C 14.507006 26.649878 11.825315 31.400978 9.2089844 34.400391 C 6.8140623 37.146901 8.7699394 41.607638 12.388672 41.8125 C 17.656403 42.113015 24.762881 41.90941 30.058594 38.794922 C 32.70645 37.237676 34.888853 34.858788 35.863281 31.556641 C 36.83771 28.254494 36.627538 24.136519 34.923828 19.025391 C 34.073752 16.475981 34.976558 14.141941 36.152344 12.339844 C 37.826134 9.7737591 36.465756 6.1451253 33.423828 5.4941406 C 32.210991 5.2346236 30.990377 5.0904852 29.785156 5.0585938 z M 29.710938 8.0625 C 30.729764 8.08721 31.764509 8.2072514 32.794922 8.4277344 C 33.808994 8.6447497 34.230882 9.7932562 33.638672 10.701172 L 33.640625 10.701172 C 32.184411 12.933075 30.848248 16.292019 32.076172 19.974609 C 33.650462 24.697481 33.73465 28.171116 32.986328 30.707031 C 32.238007 33.242947 30.681253 34.94798 28.537109 36.208984 C 24.248822 38.730993 17.562863 39.101891 12.558594 38.816406 C 11.231326 38.741266 10.609625 37.360536 11.470703 36.373047 C 14.468373 32.93646 17.560994 27.300122 16.996094 19.392578 C 16.694857 15.175268 18.5265 12.164995 21.505859 10.222656 C 23.740379 8.7659023 26.654458 7.98837 29.710938 8.0625 z M 20.5 14 A 1.5 1.5 0 0 0 20.5 17 A 1.5 1.5 0 0 0 20.5 14 z M 22.5 27 A 1.5 1.5 0 0 0 22.5 30 A 1.5 1.5 0 0 0 22.5 27 z M 28.5 28 A 1.5 1.5 0 0 0 28.5 31 A 1.5 1.5 0 0 0 28.5 28 z M 24.5 32 A 1.5 1.5 0 0 0 24.5 35 A 1.5 1.5 0 0 0 24.5 32 z"/></svg>