<svg xmlns="http://www.w3.org/2000/svg"  viewBox="0 0 48 48" width="50px" height="50px"><path d="M 43.429688 2.6660156 A 1.50015 1.50015 0 0 0 42.398438 3.1191406 L 36.759766 8.7578125 C 36.739682 7.9913882 36.60171 7.2829444 36.365234 6.6523438 C 35.403598 4.087981 33.205078 2.8769531 33.205078 2.8769531 A 1.5007719 1.5007719 0 1 0 31.714844 5.4824219 C 31.714844 5.4824219 33.016323 6.271394 33.554688 7.7070312 C 34.048091 9.0227728 33.997074 11.056805 31.117188 14.269531 C 30.965851 14.156934 30.873788 13.980262 30.716797 13.875 A 1.50015 1.50015 0 0 0 30.714844 13.875 L 29.9375 13.353516 C 26.948013 11.348652 23.192588 10.853353 19.785156 12.013672 C 16.45502 13.147066 13.820311 15.734585 12.634766 19.048828 A 1.50015 1.50015 0 0 0 12.634766 19.050781 C 10.858811 24.016198 5.2402458 37.485883 3.0292969 42.75 C 2.6269399 43.710465 2.9056791 44.805016 3.546875 45.460938 C 4.1880709 46.116858 5.2726008 46.421918 6.2421875 46.044922 L 29.373047 37.058594 C 33.216199 35.683742 36.052314 32.377991 36.824219 28.369141 C 36.875639 28.101943 36.926967 27.837977 36.976562 27.580078 C 37.560466 24.534127 36.890931 21.3812 35.125 18.833984 L 33.777344 16.888672 C 33.729984 16.820342 33.650337 16.782065 33.601562 16.714844 C 35.364221 15.054642 36.832532 14.118324 37.882812 13.773438 C 39.038868 13.393818 39.732486 13.530816 40.304688 13.798828 C 41.44909 14.334853 42.058594 15.716797 42.058594 15.716797 A 1.5007718 1.5007718 0 1 0 44.861328 14.642578 C 44.861328 14.642578 44.014268 12.224006 41.576172 11.082031 C 40.888419 10.759896 40.051004 10.617098 39.148438 10.613281 L 44.521484 5.2402344 A 1.50015 1.50015 0 0 0 43.429688 2.6660156 z M 23.654297 14.398438 C 23.979089 14.404089 24.303346 14.428258 24.625 14.470703 C 25.911616 14.640485 27.160322 15.103135 28.267578 15.845703 L 29.044922 16.367188 C 29.933305 16.962847 30.701385 17.718796 31.310547 18.597656 L 32.658203 20.542969 A 1.50015 1.50015 0 0 0 32.660156 20.542969 C 33.968225 22.429753 34.461394 24.759623 34.029297 27.013672 C 33.978897 27.275773 33.929487 27.537979 33.878906 27.800781 C 33.396401 30.306652 31.822379 32.425374 29.634766 33.642578 L 25.21875 28.279297 A 1.0001 1.0001 0 0 0 24.433594 27.904297 A 1.0001 1.0001 0 0 0 23.675781 29.550781 L 27.730469 34.478516 L 14.326172 39.685547 L 12.832031 37.445312 A 1.0001 1.0001 0 0 0 11.988281 36.988281 A 1.0001 1.0001 0 0 0 11.167969 38.554688 L 12.416016 40.427734 L 6.234375 42.828125 C 7.8033836 39.087936 10.465893 32.701556 12.650391 27.275391 L 15.701172 30.830078 A 1.0001 1.0001 0 1 0 17.21875 29.529297 L 13.494141 25.185547 C 14.297721 23.161381 14.995795 21.361058 15.460938 20.060547 C 16.157508 18.113252 17.529752 16.51961 19.296875 15.519531 L 24.220703 21.626953 A 1.0001869 1.0001869 0 0 0 25.779297 20.373047 L 21.222656 14.722656 C 22.022739 14.500354 22.839683 14.384264 23.654297 14.398438 z"/></svg>