<svg xmlns="http://www.w3.org/2000/svg"  viewBox="0 0 48 48" width="50px" height="50px"><path d="M 31.183594 3.0097656 C 30.954379 3.014143 30.723142 3.0283656 30.488281 3.0527344 C 30.221069 3.0807394 29.951143 3.1196094 29.679688 3.1699219 A 1.50015 1.50015 0 0 0 29.677734 3.1699219 C 25.997124 3.858166 23.042956 6.7266947 22.234375 10.380859 C 21.885568 11.958145 22.046324 13.462602 22.419922 14.878906 C 20.407837 15.980564 19 18.052066 19 20.5 C 19 23.299745 20.820473 25.646115 23.318359 26.554688 A 1.50015 1.50015 0 0 0 23.302734 26.576172 L 19.707031 30.171875 C 18.572719 29.283955 17.28027 28.693936 15.933594 28.394531 A 1.50015 1.50015 0 0 0 15.220703 28.236328 A 1.50015 1.50015 0 0 0 15.091797 28.246094 C 14.680568 28.192596 14.267575 28.15625 13.853516 28.15625 C 11.41902 28.15625 8.9853867 29.08102 7.1367188 30.929688 C 5.0149088 33.050747 5.0988543 36.367339 5.2851562 39.160156 C 5.4714583 41.952973 6.0292969 44.347656 6.0292969 44.347656 A 1.50015 1.50015 0 0 0 7.1523438 45.470703 C 7.1523438 45.470703 9.5470265 46.028542 12.339844 46.214844 C 15.132661 46.401146 18.449253 46.485091 20.570312 44.363281 C 22.728968 42.205317 23.618641 39.250097 23.257812 36.427734 A 1.50015 1.50015 0 0 0 23.099609 35.535156 C 22.84863 34.423705 22.404678 33.347146 21.751953 32.369141 L 23.796875 30.324219 C 24.763462 31.920486 26.511896 33 28.5 33 C 30.618227 33 32.413085 31.757846 33.328125 29.986328 C 33.388508 29.987865 33.438571 30 33.5 30 C 38.176657 30 42 26.176657 42 21.5 C 42 20.04958 41.767692 18.299792 40.724609 16.822266 C 40.199791 16.078861 39.399278 15.486495 38.427734 15.152344 C 39.656456 12.798638 39.624021 10.06405 38.623047 7.8222656 C 37.396331 5.0749092 34.621809 2.9441057 31.183594 3.0097656 z M 31.691406 6.0136719 C 33.693547 6.1266755 35.134248 7.3703868 35.882812 9.046875 C 36.738315 10.962862 36.574975 13.301978 34.810547 15.066406 L 34.566406 15.310547 A 1.50015 1.50015 0 0 0 34.263672 15.613281 L 25.841797 24.037109 A 1.50015 1.50015 0 0 0 25.5 24 C 23.549938 24 22 22.450062 22 20.5 C 22 18.880416 23.088981 17.558242 24.570312 17.148438 A 1.50015 1.50015 0 0 0 25.544922 15.099609 C 25.015175 13.889342 24.83282 12.514938 25.162109 11.027344 C 25.705394 8.5721164 27.757991 6.581539 30.226562 6.1191406 C 30.418465 6.0835726 30.608677 6.0570866 30.798828 6.0371094 C 31.107357 6.0050969 31.405386 5.9975285 31.691406 6.0136719 z M 36.839844 17.791016 C 37.632238 17.752143 37.932702 18.067315 38.275391 18.552734 C 38.732308 19.199958 39 20.44942 39 21.5 C 39 24.555343 36.555343 27 33.5 27 C 33.223902 27 32.935058 26.971425 32.625 26.921875 A 1.50015 1.50015 0 0 0 30.927734 28.064453 C 30.670736 29.173117 29.699056 30 28.5 30 C 27.293903 30 26.312519 29.179345 26.064453 28.056641 L 36.228516 17.894531 C 36.441539 17.853968 36.674462 17.799129 36.839844 17.791016 z M 13.181641 31.173828 C 13.166821 31.61233 13.207448 32.053424 13.304688 32.474609 C 13.60246 33.764397 14.331661 35.015255 15.408203 36.091797 C 16.484745 37.168339 17.735603 37.89754 19.025391 38.195312 C 19.446576 38.292552 19.88767 38.333179 20.326172 38.318359 C 20.176607 39.747805 19.552464 41.139315 18.449219 42.242188 C 17.742279 42.949377 15.049245 43.388151 12.539062 43.220703 C 10.55244 43.088177 9.4722141 42.827111 8.8105469 42.689453 C 8.672889 42.027786 8.4118227 40.947606 8.2792969 38.960938 C 8.1118488 36.450755 8.5506224 33.757721 9.2578125 33.050781 C 10.360637 31.947957 11.751968 31.323217 13.181641 31.173828 z M 16.191406 31.578125 C 17.012837 31.89661 17.785272 32.384882 18.451172 33.050781 C 19.116717 33.716326 19.605711 34.488177 19.923828 35.308594 C 19.850401 35.298235 19.785967 35.293466 19.699219 35.273438 C 19.077757 35.129961 18.247755 34.689161 17.529297 33.970703 C 16.810839 33.252245 16.370039 32.422243 16.226562 31.800781 C 16.206705 31.714769 16.201751 31.651037 16.191406 31.578125 z"/></svg>