<svg xmlns="http://www.w3.org/2000/svg"  viewBox="0 0 48 48" width="50px" height="50px"><path d="M 41.261719 2.5546875 C 40.969506 2.5368152 40.681195 2.5481227 40.404297 2.5839844 C 39.296704 2.7274309 38.265561 3.1743382 37.269531 3.7304688 C 35.277472 4.8427296 33.43908 6.4398258 32.275391 7.6035156 L 8.1035156 31.775391 C 7.0215156 32.857391 5.2798217 34.569076 4.0761719 36.527344 C 3.474347 37.506477 2.9823745 38.562142 2.8671875 39.742188 C 2.7520005 40.922232 3.1390184 42.25975 4.1035156 43.224609 C 5.027846 44.149336 6.3454061 44.45441 7.4785156 44.320312 C 8.6116251 44.186217 9.652257 43.723998 10.642578 43.152344 C 12.62322 42.009036 14.417064 40.362233 15.552734 39.226562 L 39.724609 15.052734 C 41.166357 13.610446 42.68931 11.669521 43.689453 9.6953125 C 44.189525 8.7082081 44.568657 7.7154483 44.679688 6.6816406 C 44.790717 5.6478329 44.568744 4.44765 43.724609 3.6035156 C 43.043156 2.9220626 42.138358 2.6083044 41.261719 2.5546875 z M 41.322266 5.5527344 C 41.440447 5.5807581 41.516818 5.6379116 41.603516 5.7246094 C 41.677376 5.7984754 41.747861 5.8902296 41.697266 6.3613281 C 41.646666 6.8324267 41.4101 7.557323 41.013672 8.3398438 C 40.220815 9.9048849 38.825768 11.708929 37.603516 12.931641 L 13.431641 37.103516 C 12.403311 38.131845 10.701186 39.653042 9.1425781 40.552734 C 8.3632743 41.00258 7.6236249 41.281066 7.1269531 41.339844 C 6.6302814 41.398624 6.467779 41.348744 6.2246094 41.105469 C 5.8571066 40.737828 5.8065777 40.514064 5.8535156 40.033203 C 5.9004536 39.552342 6.1701843 38.847148 6.6308594 38.097656 C 7.5522095 36.598674 9.1426098 34.978484 10.224609 33.896484 L 11.128906 32.992188 L 12.830078 33.841797 A 1.50015 1.50015 0 1 0 14.169922 31.158203 L 13.365234 30.755859 L 21.128906 22.992188 L 22.830078 23.841797 A 1.50015 1.50015 0 1 0 24.169922 21.158203 L 23.365234 20.755859 L 31.128906 12.992188 L 32.830078 13.841797 A 1.50015 1.50015 0 1 0 34.169922 11.158203 L 33.365234 10.755859 L 34.396484 9.7246094 C 35.396795 8.7242992 37.140528 7.2393016 38.730469 6.3515625 C 39.525439 5.907693 40.284858 5.6241471 40.791016 5.5585938 C 41.044094 5.5258168 41.204085 5.5247107 41.322266 5.5527344 z"/></svg>