<svg xmlns="http://www.w3.org/2000/svg"  viewBox="0 0 48 48" width="50px" height="50px"><path d="M 17 5 C 8.1913665 5 1 12.191366 1 21 C 1 24.86231 2.1788932 30.252779 5.6816406 34.822266 C 9.1843881 39.391752 15.10228 43 24 43 C 32.89772 43 38.815612 39.391752 42.318359 34.822266 C 45.821107 30.252779 47 24.86231 47 21 C 47 12.191366 39.808634 5 31 5 C 28.452913 5 26.099898 5.5693833 24.007812 6.5019531 C 21.916788 5.5753253 19.567237 5 17 5 z M 17 8 C 18.315158 8 19.537301 8.1895503 20.691406 8.484375 C 19.750678 9.2460608 18.938519 10.122711 18.251953 11.080078 C 17.84604 11.032798 17.430768 11 17 11 C 11.499473 11 7 15.499473 7 21 C 7 21.444649 7.0259108 25.276501 9.1894531 29.197266 C 11.352995 33.11803 15.884202 37 24 37 C 32.115798 37 36.647005 33.11803 38.810547 29.197266 C 40.974089 25.276501 41 21.444649 41 21 C 41 15.499473 36.500527 11 31 11 C 28.882945 11 26.752516 11.512924 25.029297 12.642578 C 23.306077 13.772232 22 15.672424 22 18 C 22 18.742121 22.131443 19.447515 22.349609 20.103516 C 22.07041 20.550313 21.726046 20.981284 21.277344 21.388672 C 20.90742 21.724373 20.474665 22.02956 20.015625 22.310547 C 19.37301 21.023387 19 19.603755 19 18 C 19 12.329296 23.946412 8 31 8 C 38.181366 8 44 13.818634 44 21 C 44 24.22869 42.933003 29.08833 39.9375 32.996094 C 36.941997 36.903857 32.10928 40 24 40 C 15.89072 40 11.058003 36.903857 8.0625 32.996094 C 5.0669975 29.08833 4 24.22869 4 21 C 4 13.818634 9.8186335 8 17 8 z M 16.693359 14.015625 C 16.247245 15.259191 16 16.593471 16 18 C 16 20.028792 16.478513 21.886576 17.273438 23.53125 C 16.294242 23.829844 15.324033 24 14.5 24 C 13.054653 24 11.773049 24.709533 10.947266 25.783203 C 10.054181 23.299397 10 21.116931 10 21 C 10 17.230102 12.963995 14.176702 16.693359 14.015625 z M 31.322266 14.015625 C 35.044276 14.184565 38 17.235366 38 21 C 38 21.116931 37.945818 23.299397 37.052734 25.783203 C 36.226951 24.709533 34.945347 24 33.5 24 C 32.679514 24 31.705279 23.831683 30.726562 23.541016 C 31.524967 21.889141 32 20.036727 32 18 C 32 16.603249 31.761056 15.26393 31.322266 14.015625 z M 28.265625 14.435547 C 28.739587 15.531225 29 16.72033 29 18 C 29 21.801764 26.977261 24.704957 24.076172 26.791016 C 21.175083 28.877074 17.40186 30 14.5 30 C 13.653501 30 13 29.346499 13 28.5 C 13 27.653501 13.653501 27 14.5 27 C 17.437151 27 20.849575 25.830448 23.294922 23.611328 C 24.839486 22.20898 26 20.27441 26 18 C 26 17.298883 25.874531 16.635903 25.666016 16.023438 C 25.927555 15.70349 26.265434 15.418113 26.673828 15.150391 C 27.12339 14.855681 27.675881 14.623893 28.265625 14.435547 z M 29.060547 26.154297 C 30.545072 26.696373 32.072025 27 33.5 27 C 34.346499 27 35 27.653501 35 28.5 C 35 29.346499 34.346499 30 33.5 30 C 31.498636 30 29.081412 29.462264 26.822266 28.441406 C 27.638389 27.759238 28.390393 26.994104 29.060547 26.154297 z M 24.007812 30.371094 C 26.172889 31.590405 28.510534 32.399202 30.767578 32.765625 C 29.018281 33.526754 26.816671 34 24 34 C 21.186792 34 18.986553 33.529006 17.238281 32.769531 C 19.498231 32.405415 21.842359 31.594312 24.007812 30.371094 z"/></svg>