<svg xmlns="http://www.w3.org/2000/svg"  viewBox="0 0 48 48" width="50px" height="50px"><path d="M 10.5 4 C 6.916 4 4 6.916 4 10.5 L 4 30.5 C 4 34.084 6.916 37 10.5 37 L 18.5 37 L 25.056641 37 L 27.15625 37 L 29.072266 42.958984 C 29.276266 43.594984 29.865 44 30.5 44 C 30.651 44 30.806984 43.977734 30.958984 43.927734 C 31.747984 43.674734 32.181734 42.830016 31.927734 42.041016 L 22.927734 14.041016 C 22.723734 13.407016 22.138906 12.998047 21.503906 12.998047 C 21.350906 12.998047 21.195016 13.023266 21.041016 13.072266 C 20.252016 13.325266 19.818266 14.169984 20.072266 14.958984 L 26.193359 34 L 17 34 L 17 7 L 27.5 7 C 29.43 7 31 8.57 31 10.5 L 31 12.095703 L 34 16.896484 L 34 10.5 C 34 6.916 31.084 4 27.5 4 L 10.5 4 z M 10.5 7 L 14 7 L 14 14 L 7 14 L 7 10.5 C 7 8.57 8.57 7 10.5 7 z M 26.498047 10 C 26.227047 10 25.952078 10.073516 25.705078 10.228516 C 25.003078 10.667516 24.788563 11.592922 25.226562 12.294922 L 31 21.53125 L 31 25.304688 L 31 30.5 C 31 30.965 30.906234 31.4075 30.740234 31.8125 L 31.861328 35.296875 C 33.169328 34.107875 34 32.403 34 30.5 L 34 30.103516 L 34 26.330078 L 40.228516 36.294922 C 40.513516 36.750922 41.001953 37 41.501953 37 C 41.772953 37 42.047922 36.926484 42.294922 36.771484 C 42.996922 36.332484 43.210484 35.407078 42.771484 34.705078 L 27.771484 10.705078 C 27.486484 10.250078 26.998047 10 26.498047 10 z M 7 17 L 14 17 L 14 24 L 7 24 L 7 17 z M 7 27 L 14 27 L 14 34 L 10.5 34 C 8.57 34 7 32.43 7 30.5 L 7 27 z"/></svg>