<svg xmlns="http://www.w3.org/2000/svg"  viewBox="0 0 48 48" width="50px" height="50px"><path d="M 7.3691406 10 C 3.9960489 10 1.1176732 12.286311 0.26367188 15.376953 A 1.50015 1.50015 0 0 0 0.052734375 16.443359 C 0.021130817 16.714823 -8.2650733e-17 16.98999 0 17.269531 L 0 26.880859 A 1.50015 1.50015 0 0 0 0 27.4375 L 0 30.730469 C 0 34.736119 3.3369275 38 7.3691406 38 L 40.630859 38 C 44.663823 38 48 34.735804 48 30.730469 L 48 27.435547 A 1.50015 1.50015 0 0 0 48 26.878906 L 48 17.269531 C 48 16.947962 47.971332 16.632969 47.929688 16.322266 A 1.5006411 1.5006411 0 0 0 47.765625 15.492188 C 46.951982 12.343276 44.044989 10 40.630859 10 L 7.3691406 10 z M 7.3691406 13 L 13.507812 13 C 13.570477 13.508435 13.611328 14.027636 13.611328 14.5625 C 13.611328 16.836427 13.007528 18.903428 12.056641 20.507812 C 10.727109 17.97589 8.7628231 16.390414 6.8710938 15.601562 C 5.7521834 15.134977 4.725984 14.891795 3.8476562 14.765625 C 4.6402704 13.703647 5.9134048 13 7.3691406 13 z M 16.527344 13 L 31.695312 13 C 31.644223 13.513288 31.611328 14.032334 31.611328 14.5625 C 31.611328 17.14362 32.231384 19.544849 33.314453 21.554688 C 30.132723 21.093198 27.575153 21.871798 25.878906 23.097656 C 25.014707 23.722203 24.506077 24.392874 24 25.027344 C 23.49393 24.392862 22.985276 23.722246 22.121094 23.097656 C 20.467702 21.902663 17.993972 21.135597 14.923828 21.523438 C 15.996604 19.519785 16.611328 17.130494 16.611328 14.5625 C 16.611328 14.032334 16.577996 13.513288 16.527344 13 z M 34.714844 13 L 40.630859 13 C 42.086764 13 43.359608 13.704444 44.152344 14.767578 C 43.274095 14.893763 42.247757 15.135028 41.128906 15.601562 C 39.287235 16.369497 37.379566 17.89842 36.052734 20.314453 C 35.167017 18.738906 34.611328 16.745053 34.611328 14.5625 C 34.611328 14.027636 34.652179 13.508435 34.714844 13 z M 3 17.722656 C 3.7606415 17.798068 4.7571639 17.970924 5.7167969 18.371094 C 5.9976826 18.488223 6.2452473 18.771991 6.5234375 18.923828 C 6.1006066 21.254824 4.8221671 23.284105 3 24.626953 L 3 17.722656 z M 45 17.722656 L 45 24.630859 C 43.116212 23.269465 41.795545 21.197681 41.400391 18.804688 C 41.692921 18.642611 41.987459 18.494412 42.283203 18.371094 C 43.241943 17.971322 44.239637 17.797694 45 17.722656 z M 9.0488281 21.150391 C 9.5718791 21.943369 10.039338 22.863633 10.337891 24.115234 A 1.50015 1.50015 0 0 0 12.359375 25.158203 C 14.144395 24.436829 15.581995 24.216603 16.785156 24.273438 C 16.920372 24.993756 17 25.735713 17 26.5 C 17 29.888609 15.594896 32.903033 13.388672 35 L 7.3691406 35 C 4.9453538 35 3 33.070818 3 30.730469 L 3 28.113281 C 5.8478969 26.709284 8.0195777 24.19686 9.0488281 21.150391 z M 38.884766 21.15625 C 39.91205 24.212969 42.133258 26.719062 45 28.121094 L 45 30.730469 C 45 33.071133 43.055895 35 40.630859 35 L 34.611328 35 C 32.405104 32.903033 31 29.888609 31 26.5 C 31 25.73638 31.079859 24.995124 31.214844 24.275391 C 32.418017 24.218916 33.85557 24.438568 35.640625 25.160156 A 1.50015 1.50015 0 0 0 37.662109 24.117188 C 37.952741 22.898144 38.379847 21.938782 38.884766 21.15625 z M 19.945312 25.255859 C 20.087446 25.345646 20.231969 25.43439 20.363281 25.529297 C 21.953845 26.678881 22.628906 28.171875 22.628906 28.171875 A 1.50015 1.50015 0 0 0 25.371094 28.171875 C 25.371094 28.171875 26.046202 26.678745 27.636719 25.529297 C 27.768028 25.434401 27.912557 25.34562 28.054688 25.255859 C 28.020826 25.666788 28 26.080669 28 26.5 C 28 29.671843 29.003948 32.603885 30.683594 35 L 17.316406 35 C 18.996052 32.603885 20 29.671843 20 26.5 C 20 26.080669 19.979174 25.666788 19.945312 25.255859 z"/></svg>