<svg xmlns="http://www.w3.org/2000/svg"  viewBox="0 0 48 48" width="50px" height="50px"><path d="M 41.273438 -0.01171875 A 1.50015 1.50015 0 0 0 40.474609 0.2578125 L 23.078125 12.0625 C 19.51062 12.150967 15.953258 12.744988 12.527344 13.863281 A 1.50015 1.50015 0 0 0 12.517578 13.867188 C 7.1403665 15.662681 3.7727286 19.43083 2.4941406 23.341797 C 1.2155527 27.252763 2.0128213 31.487805 5.1269531 33.71875 A 1.50015 1.50015 0 0 0 7.109375 33.509766 C 7.2037057 33.406097 7.304659 33.312444 7.4003906 33.210938 C 8.5737418 37.126992 12.213 40 16.5 40 L 31.5 40 C 35.789146 40 39.430099 37.124141 40.601562 33.205078 C 40.6977 33.307039 40.795889 33.40561 40.890625 33.509766 A 1.50015 1.50015 0 0 0 42.873047 33.71875 C 45.926644 31.53173 46.746814 27.442124 45.572266 23.576172 L 47.158203 22.800781 A 1.50015 1.50015 0 1 0 45.841797 20.105469 L 34.490234 25.652344 A 1.50015 1.50015 0 0 0 33.982422 25.900391 L 24.783203 30.394531 C 24.383858 30.589585 23.920877 30.441631 23.701172 30.019531 C 23.481505 29.597499 23.625412 29.13392 24.015625 28.917969 L 28.761719 26.3125 A 1.50015 1.50015 0 0 0 29.140625 26.105469 L 40.748047 19.732422 A 1.50015 1.50015 0 0 0 41.347656 19.404297 L 47.222656 16.179688 A 1.50015 1.50015 0 0 0 46.449219 13.355469 A 1.50015 1.50015 0 0 0 45.777344 13.548828 L 40.457031 16.470703 C 39.05245 15.409724 37.401935 14.507926 35.482422 13.867188 A 1.50015 1.50015 0 0 0 35.472656 13.863281 C 35.4266 13.848247 35.380088 13.83516 35.333984 13.820312 L 47.285156 6.4824219 A 1.50015 1.50015 0 0 0 46.525391 3.6933594 A 1.50015 1.50015 0 0 0 45.714844 3.9257812 L 31.675781 12.546875 A 1.50015 1.50015 0 0 0 31.369141 12.785156 C 30.288536 12.565985 29.200343 12.397009 28.107422 12.275391 L 42.158203 2.7421875 A 1.50015 1.50015 0 0 0 41.273438 -0.01171875 z M 24 15.044922 C 27.561308 15.044922 31.122616 15.601808 34.539062 16.716797 C 34.539062 16.716797 34.541016 16.716797 34.541016 16.716797 C 35.648549 17.087331 36.627816 17.557314 37.507812 18.087891 L 27.925781 23.349609 C 20.201483 22.175582 12.106119 24.634439 6.1054688 30.458984 C 4.9140261 29.00195 4.5343009 26.757322 5.3457031 24.275391 C 6.3192319 21.297544 8.9216596 18.235333 13.460938 16.716797 C 16.877384 15.601808 20.438692 15.044922 24 15.044922 z M 42.824219 24.917969 C 43.359775 27.092737 42.977406 29.069824 41.919922 30.402344 C 40.703909 29.222047 39.410397 28.169279 38.052734 27.25 L 42.824219 24.917969 z M 22.964844 26.074219 L 22.568359 26.291016 A 1.50015 1.50015 0 0 0 22.564453 26.292969 C 20.764661 27.289018 20.092683 29.582329 21.041016 31.404297 C 21.989311 33.226193 24.250954 33.99279 26.099609 33.089844 L 34.867188 28.806641 C 35.946844 29.391315 36.991501 30.059659 37.984375 30.832031 C 37.812277 34.282161 34.995174 37 31.5 37 L 16.5 37 C 13.004826 37 10.187723 34.282161 10.015625 30.832031 C 13.831616 27.863275 18.369109 26.279773 22.964844 26.074219 z"/></svg>