<svg xmlns="http://www.w3.org/2000/svg"  viewBox="0 0 48 48" width="50px" height="50px"><path d="M 24.5 2 A 1.50015 1.50015 0 0 0 23.005859 3.375 C 23.005859 3.375 22.130082 13.797681 22 17.447266 C 21.810848 22.755268 25.919961 26.94278 31 27.697266 L 31 36.990234 L 24.029297 28.912109 A 1.50015 1.50015 0 0 0 23.955078 28.832031 C 20.861046 25.738 16.662294 24 12.287109 24 L 4.5 24 A 1.50015 1.50015 0 0 0 4.4785156 24 A 1.50015 1.50015 0 0 0 4.4453125 24.001953 A 1.50015 1.50015 0 0 0 3 25.740234 L 3 40.5 C 3 43.519774 5.4802259 46 8.5 46 L 23.5 46 L 35.5 46 A 1.50015 1.50015 0 0 0 36.634766 43.519531 L 33.597656 40 L 39.5 40 A 1.50015 1.50015 0 1 0 39.5 37 L 34 37 L 34 27.697266 C 39.080039 26.94278 43.189152 22.755268 43 17.447266 C 42.869918 13.797681 41.994141 3.375 41.994141 3.375 A 1.50015 1.50015 0 0 0 40.5 2 L 24.5 2 z M 25.896484 5 L 39.103516 5 C 39.152442 5.5959698 39.295295 7.4002352 39.421875 9 L 25.578125 9 C 25.704705 7.4002352 25.847558 5.5959698 25.896484 5 z M 25.349609 12 L 39.650391 12 C 39.808253 14.148508 39.954668 16.280894 40 17.552734 C 40.144789 21.615812 36.705379 24.933976 32.585938 24.982422 A 1.50015 1.50015 0 0 0 32.414062 24.982422 C 28.29462 24.933976 24.855211 21.615812 25 17.552734 C 25.045332 16.280894 25.191747 14.148508 25.349609 12 z M 8.1210938 27 L 12.287109 27 C 15.451671 27 18.49843 28.114995 20.912109 30.121094 A 1.5 1.5 0 0 0 21.5 33 A 1.5 1.5 0 0 0 22.853516 32.142578 L 32.224609 43 L 28.912109 43 A 1.5 1.5 0 0 0 27.5 41 A 1.5 1.5 0 0 0 26.085938 43 L 24.121094 43 L 21.023438 39.902344 A 1.5 1.5 0 0 0 20.5 37 A 1.5 1.5 0 0 0 19.095703 37.974609 L 8.1210938 27 z M 15.5 29 A 1.5 1.5 0 0 0 15.5 32 A 1.5 1.5 0 0 0 15.5 29 z M 6 29.121094 L 19.878906 43 L 8.5 43 C 7.1017741 43 6 41.898226 6 40.5 L 6 29.121094 z"/></svg>