<svg xmlns="http://www.w3.org/2000/svg"  viewBox="0 0 48 48" width="50px" height="50px"><path d="M 12.486328 6.9882812 A 1.50015 1.50015 0 0 0 11.667969 9.7480469 L 13.546875 11 L 12.5 11 A 1.50015 1.50015 0 0 0 11 12.5 C 11 14.994154 11.59984 17.348463 12.728516 19.335938 L 7.9277344 37.482422 L 7.9550781 37.390625 C 7.2130295 39.615053 8.930903 41.998047 11.275391 41.998047 L 13.953125 41.998047 C 15.078745 41.998047 16.140434 41.454097 16.796875 40.541016 A 1.50015 1.50015 0 0 0 16.796875 40.539062 L 17.273438 39.875 L 17.275391 39.873047 C 18.121357 38.696856 19.480516 37.998047 20.929688 37.998047 L 23.960938 37.998047 C 23.974105 37.998151 23.986809 38 24 38 C 24.013191 38 24.025895 37.998151 24.039062 37.998047 L 26.564453 37.998047 C 28.066703 37.998047 29.466132 38.745996 30.302734 39.994141 L 30.607422 40.447266 C 31.256048 41.41685 32.349417 42 33.513672 42 L 36.724609 42 C 39.012284 42 40.697011 39.733086 40.089844 37.556641 L 40.089844 37.552734 L 36.142578 19.017578 C 37.312598 17.116185 38 14.88873 38 12.5 A 1.50015 1.50015 0 0 0 36.5 11 L 35.453125 11 L 37.332031 9.7480469 A 1.50015 1.50015 0 1 0 35.667969 7.2519531 L 30.046875 11 L 18.953125 11 L 13.332031 7.2519531 A 1.50015 1.50015 0 0 0 12.486328 6.9882812 z M 14.248047 14 L 18.339844 14 A 1.50015 1.50015 0 0 0 18.691406 14 L 30.314453 14 A 1.50015 1.50015 0 0 0 30.658203 14 L 34.699219 14 C 34.523608 15.069892 34.17597 16.078432 33.691406 17 L 14.996094 17 C 14.632207 16.079926 14.387638 15.065052 14.248047 14 z M 17.060547 20 L 31.21875 20 C 29.656209 21.248273 27.688529 22 25.5 22 L 22.5 22 C 20.263984 22 18.458394 21.255636 17.060547 20 z M 33.693359 21.914062 L 37.15625 38.179688 A 1.50015 1.50015 0 0 0 37.199219 38.341797 C 37.320899 38.707404 37.110122 39 36.724609 39 L 33.513672 39 C 33.344423 39 33.19304 38.91907 33.099609 38.779297 L 32.794922 38.324219 C 31.759952 36.780126 30.199277 35.695983 28.439453 35.240234 C 28.785482 34.562076 29 33.807791 29 33 C 29 31.642083 28.460176 30.339083 27.5 29.378906 L 25.060547 26.939453 A 1.50015 1.50015 0 0 0 23.978516 26.5 A 1.50015 1.50015 0 0 0 22.939453 26.939453 L 20.5 29.378906 C 19.539824 30.339083 19 31.642083 19 33 C 19 33.770243 19.191297 34.494149 19.507812 35.148438 C 17.645989 35.509399 15.964308 36.554858 14.837891 38.123047 A 1.50015 1.50015 0 0 0 14.837891 38.125 L 14.359375 38.789062 C 14.263815 38.921982 14.117505 38.998047 13.953125 38.998047 L 11.275391 38.998047 C 10.889878 38.998047 10.67883 38.705416 10.800781 38.339844 A 1.50015 1.50015 0 0 0 10.828125 38.25 L 15.064453 22.232422 C 17.004213 23.95409 19.573577 25 22.5 25 L 25.5 25 C 28.633342 25 31.49578 23.829958 33.693359 21.914062 z M 24 30.121094 L 25.378906 31.5 C 25.77673 31.897824 26 32.437917 26 33 C 26 33.519866 25.805888 33.982018 25.492188 34.333984 A 1.50015 1.50015 0 0 0 23.976562 32.978516 A 1.50015 1.50015 0 0 0 22.507812 34.333984 C 22.194112 33.982018 22 33.519866 22 33 C 22 32.437917 22.22327 31.897824 22.621094 31.5 L 24 30.121094 z"/></svg>