<svg xmlns="http://www.w3.org/2000/svg"  viewBox="0 0 48 48" width="50px" height="50px"><path d="M 44.519531 2.984375 A 1.50015 1.50015 0 0 0 43.371094 3.5117188 L 33.78125 14.470703 L 33.535156 14.162109 C 32.487634 12.845909 31.014212 12.039373 29.453125 11.794922 C 27.892038 11.550471 26.24346 11.869812 24.84375 12.802734 C 23.808802 13.4927 22.533237 13.711923 21.326172 13.410156 L 19.636719 12.988281 C 16.388832 12.175944 12.403902 14.33868 10.158203 18.830078 A 1.50015 1.50015 0 0 0 10.121094 18.908203 L 7.5097656 25 L 5.5 25 C 3.5850452 25 2 26.585045 2 28.5 C 2 37.568182 9.4318182 45 18.5 45 L 29.5 45 C 38.594719 45 46 37.594719 46 28.5 C 46 26.585045 44.414955 25 42.5 25 L 42.158203 25 L 35.679688 16.857422 L 45.628906 5.4882812 A 1.50015 1.50015 0 0 0 44.519531 2.984375 z M 28.789062 14.732422 C 29.699853 14.820714 30.571376 15.257097 31.1875 16.03125 L 31.773438 16.767578 L 29.371094 19.511719 A 1.500376 1.500376 0 1 0 31.628906 21.488281 L 33.671875 19.152344 L 38.324219 25 L 25.912109 25 A 1.5 1.5 0 0 0 24.5 23 A 1.5 1.5 0 0 0 23.085938 25 L 16.912109 25 A 1.5 1.5 0 0 0 15.5 23 A 1.5 1.5 0 0 0 14.085938 25 L 10.775391 25 L 12.851562 20.15625 C 14.607394 16.660875 17.719966 15.601244 18.908203 15.898438 L 20.599609 16.320312 C 22.434054 16.778924 24.364776 16.511679 26.003906 15.597656 A 1.5 1.5 0 0 0 27.5 17 A 1.5 1.5 0 0 0 28.789062 14.732422 z M 19.5 19 A 1.5 1.5 0 0 0 19.5 22 A 1.5 1.5 0 0 0 19.5 19 z M 5.5 28 L 41.197266 28 A 1.50015 1.50015 0 0 0 41.724609 28 L 42.5 28 C 42.795045 28 43 28.204955 43 28.5 C 43 35.973281 36.973281 42 29.5 42 L 18.5 42 C 11.068182 42 5 35.931818 5 28.5 C 5 28.204955 5.2049548 28 5.5 28 z"/></svg>