<svg xmlns="http://www.w3.org/2000/svg"  viewBox="0 0 48 48" width="50px" height="50px"><path d="M 24 4 C 12.972066 4 4 12.972074 4 24 C 4 35.027926 12.972066 44 24 44 C 35.027934 44 44 35.027926 44 24 C 44 12.972074 35.027934 4 24 4 z M 24 7 C 33.406615 7 41 14.593391 41 24 C 41 33.406609 33.406615 41 24 41 C 14.593385 41 7 33.406609 7 24 C 7 14.593391 14.593385 7 24 7 z M 24.060547 10.916016 C 20.767532 10.916016 17.743073 12.13457 15.447266 14.144531 L 15.433594 14.15625 L 14.714844 14.816406 L 14.703125 14.828125 C 13.972459 15.526403 13.755794 16.529124 13.945312 17.457031 C 12.742577 18.343838 11.957031 19.76377 11.957031 21.359375 C 11.957031 21.938916 12.270516 22.39388 12.458984 22.908203 C 11.624788 23.777884 11 24.853717 11 26.150391 C 11 28.813406 13.190501 31.005859 15.853516 31.005859 C 16.433056 31.005859 16.88802 30.692375 17.402344 30.503906 C 18.272289 31.337965 19.349568 31.962891 20.646484 31.962891 C 22.488142 31.962891 24.082847 30.902057 24.904297 29.375 L 28.632812 33.179688 C 29.724173 34.293931 31.639725 34.520315 32.832031 33.380859 L 32.837891 33.375 L 33.607422 32.621094 L 33.632812 32.595703 C 35.77324 30.29593 37.083984 27.209077 37.083984 23.835938 C 37.083984 16.710957 31.227815 10.916016 24.060547 10.916016 z M 24.060547 13.916016 C 29.621278 13.916016 34.083984 18.346918 34.083984 23.835938 C 34.083984 26.431297 33.085018 28.775526 31.441406 30.544922 L 30.824219 31.148438 C 30.819967 31.13588 30.826891 31.132618 30.777344 31.082031 L 16.910156 16.929688 C 16.893629 16.912814 16.8884 16.912158 16.876953 16.902344 L 17.423828 16.402344 C 19.192021 14.854305 21.505562 13.916016 24.060547 13.916016 z M 15.654297 19.933594 L 22.509766 26.929688 A 1.50015 1.50015 0 0 0 22.5 27.109375 C 22.5 28.15036 21.687469 28.962891 20.646484 28.962891 C 19.974046 28.962891 19.408556 28.612634 19.076172 28.078125 A 1.50015 1.50015 0 0 0 16.927734 27.652344 C 16.613686 27.877888 16.254669 28.005859 15.853516 28.005859 C 14.812531 28.005859 14 27.191376 14 26.150391 C 14 25.477952 14.349328 24.915171 14.882812 24.583984 A 1.50015 1.50015 0 0 0 15.310547 22.433594 C 15.085003 22.119545 14.957031 21.760529 14.957031 21.359375 C 14.957031 20.769111 15.238066 20.270144 15.654297 19.933594 z M 25.5 33 A 1.5 1.5 0 0 0 25.5 36 A 1.5 1.5 0 0 0 25.5 33 z M 20.5 34 A 1.5 1.5 0 0 0 20.5 37 A 1.5 1.5 0 0 0 20.5 34 z"/></svg>