<svg xmlns="http://www.w3.org/2000/svg"  viewBox="0 0 48 48" width="50px" height="50px"><path d="M 18 7 C 10.838262 7 5 12.838262 5 20 A 1.50015 1.50015 0 0 0 5.0175781 20.244141 A 1.50015 1.50015 0 0 0 5.0175781 20.246094 A 1.50015 1.50015 0 0 0 5 20.5 L 5 37.5 C 5 40.519774 7.4802259 43 10.5 43 L 37.5 43 C 40.519774 43 43 40.519774 43 37.5 L 43 33.449219 A 1.50015 1.50015 0 0 0 41.283203 31.964844 C 41.105602 31.990677 41.018953 32 41 32 C 39.877657 32 39 31.122343 39 30 C 39 28.877657 39.877657 28 41 28 C 41.01311 28 41.103595 28.008796 41.292969 28.035156 A 1.50015 1.50015 0 0 0 43 26.550781 L 43 21.746094 A 1.50015 1.50015 0 0 0 43 21.259766 L 43 19.742188 A 1.50015 1.50015 0 0 0 42.763672 18.673828 A 1.50015 1.50015 0 0 0 42.691406 18.572266 A 1.50015 1.50015 0 0 0 41.921875 18.039062 A 1.50015 1.50015 0 0 0 41.917969 18.037109 L 18.636719 7.140625 A 1.50015 1.50015 0 0 0 18 7 z M 17.765625 10.046875 L 39.027344 20 L 28.746094 20 A 1.50015 1.50015 0 0 0 28.476562 19.978516 A 1.50015 1.50015 0 0 0 28.257812 20 L 8 20 C 8 14.542954 12.341302 10.178084 17.765625 10.046875 z M 8 23 L 21 23 L 21 23.5 C 21 25.967501 23.032499 28 25.5 28 C 27.967501 28 30 25.967501 30 23.5 L 30 23 L 40 23 L 40 25.203125 C 37.74502 25.684211 36 27.609986 36 30 C 36 32.390014 37.74502 34.315789 40 34.796875 L 40 37.5 C 40 38.898226 38.898226 40 37.5 40 L 34.599609 40 C 34.861005 39.358873 35 38.678552 35 38 C 35 36.791667 34.604336 35.563179 33.746094 34.597656 C 32.887852 33.632133 31.541666 33 30 33 C 28.458334 33 27.112148 33.632133 26.253906 34.597656 C 25.395664 35.563179 25 36.791667 25 38 C 25 38.678552 25.138995 39.358873 25.400391 40 L 10.5 40 C 9.1017741 40 8 38.898226 8 37.5 L 8 23 z M 24 23 L 27 23 L 27 23.5 C 27 24.346499 26.346499 25 25.5 25 C 24.653501 25 24 24.346499 24 23.5 L 24 23 z M 16 26 C 14.125 26 12.528815 26.757133 11.503906 27.910156 C 10.478997 29.063179 10 30.541667 10 32 C 10 33.458333 10.478997 34.936821 11.503906 36.089844 C 12.528815 37.242867 14.125 38 16 38 C 17.875 38 19.471185 37.242867 20.496094 36.089844 C 21.521003 34.936821 22 33.458333 22 32 C 22 30.541667 21.521003 29.063179 20.496094 27.910156 C 19.471185 26.757133 17.875 26 16 26 z M 16 29 C 17.124999 29 17.778816 29.367867 18.253906 29.902344 C 18.728997 30.436821 19 31.208333 19 32 C 19 32.791667 18.728997 33.563179 18.253906 34.097656 C 17.778816 34.632133 17.124999 35 16 35 C 14.875001 35 14.221184 34.632133 13.746094 34.097656 C 13.271003 33.563179 13 32.791667 13 32 C 13 31.208333 13.271003 30.436821 13.746094 29.902344 C 14.221184 29.367867 14.875001 29 16 29 z M 30 36 C 30.791666 36 31.195482 36.242867 31.503906 36.589844 C 31.81233 36.936821 32 37.458333 32 38 C 32 38.541667 31.81233 39.063179 31.503906 39.410156 C 31.195482 39.757133 30.791666 40 30 40 C 29.208334 40 28.804518 39.757133 28.496094 39.410156 C 28.18767 39.063179 28 38.541667 28 38 C 28 37.458333 28.18767 36.936821 28.496094 36.589844 C 28.804518 36.242867 29.208334 36 30 36 z"/></svg>