<svg xmlns="http://www.w3.org/2000/svg"  viewBox="0 0 48 48" width="50px" height="50px"><path d="M 30.21875 4 C 26.580629 4 23.264553 5.4254933 20.800781 7.7363281 C 20.586766 7.7445717 20.373806 7.7616764 20.162109 7.7929688 C 18.67895 8.0122053 17.279039 8.7946821 16.322266 10.083984 C 15.494947 11.199101 15.245498 12.514802 15.300781 13.798828 C 15.174306 13.943061 15.045478 14.066179 14.923828 14.230469 L 14.925781 14.230469 C 14.187544 15.224329 13.717243 16.347763 13.476562 17.509766 C 7.9932109 19.24958 4.0019531 24.389294 4.0019531 30.4375 C 4.0019531 37.909265 10.090729 43.998047 17.5625 43.998047 C 24.667551 43.998047 30.510791 38.488611 31.068359 31.523438 C 37.726136 31.115054 43.134509 25.970017 43.90625 19.404297 L 43.886719 19.402344 C 44.587754 18.262461 45 16.928877 45 15.5 C 45 12.451864 43.154373 9.8163134 40.527344 8.6464844 C 38.003748 5.8001162 34.313274 4 30.21875 4 z M 30.21875 7 C 32.088414 7 33.833202 7.4854939 35.361328 8.3183594 C 33.930448 8.7451909 32.675199 9.5845647 31.740234 10.705078 C 31.561007 10.530224 31.371275 10.362842 31.164062 10.208984 A 1.50015 1.50015 0 0 0 31.162109 10.208984 C 29.370631 8.8797065 27.078097 8.788653 25.185547 9.6914062 C 24.943074 9.4224068 24.805764 9.0997622 24.5 8.8730469 C 24.442872 8.8306532 24.382402 8.7958463 24.324219 8.7558594 C 26.016709 7.6468745 28.036238 7 30.21875 7 z M 21.142578 10.716797 C 21.688431 10.74265 22.234418 10.928135 22.712891 11.283203 C 23.064451 11.543876 23.330025 11.875426 23.535156 12.277344 A 1.50015 1.50015 0 0 0 25.84375 12.740234 C 26.830192 11.902479 28.280519 11.805089 29.375 12.617188 C 30.456392 13.420129 30.785239 14.807451 30.294922 15.988281 A 1.50015 1.50015 0 0 0 31.367188 18.03125 C 31.765304 18.11656 32.131124 18.272465 32.460938 18.517578 A 1.50015 1.50015 0 0 0 32.460938 18.519531 C 33.736331 19.465984 33.995676 21.224073 33.048828 22.5 C 32.573077 23.141373 31.892527 23.515283 31.162109 23.617188 A 1.50015 1.50015 0 0 0 30.035156 24.417969 C 29.973643 24.537599 29.90825 24.626392 29.845703 24.732422 C 27.684255 20.103181 22.995356 16.876953 17.5625 16.876953 C 17.307888 16.876953 17.059808 16.902061 16.808594 16.916016 C 16.954923 16.604468 17.122752 16.301952 17.333984 16.017578 C 17.470727 15.832905 17.636383 15.647669 17.828125 15.455078 A 1.50015 1.50015 0 0 0 18.238281 14.109375 C 18.087868 13.335247 18.232781 12.541478 18.730469 11.871094 A 1.50015 1.50015 0 0 0 18.732422 11.871094 C 19.323955 11.073972 20.232823 10.673708 21.142578 10.716797 z M 37.5 11 C 40.003499 11 42 12.996501 42 15.5 C 42 18.003499 40.003499 20 37.5 20 C 37.161323 20 36.837681 19.952524 36.523438 19.882812 C 36.29051 18.424779 35.517879 17.0517 34.248047 16.109375 C 33.983421 15.912845 33.677782 15.867788 33.394531 15.724609 C 33.488158 15.070503 33.464873 14.409971 33.347656 13.767578 C 34.024918 12.145962 35.615842 11 37.5 11 z M 17.5625 19.876953 C 23.412951 19.876953 28.123047 24.587053 28.123047 30.4375 C 28.123047 36.287947 23.412951 40.998047 17.5625 40.998047 C 11.712049 40.998047 7.0019531 36.287947 7.0019531 30.4375 C 7.0019531 24.587053 11.712049 19.876953 17.5625 19.876953 z M 39.853516 22.615234 C 38.191367 25.929386 34.8758 28.258141 30.972656 28.527344 C 30.953518 28.392825 30.933233 28.258235 30.910156 28.125 C 31.310315 27.764298 31.680474 27.363229 32.011719 26.917969 C 32.1647 26.712356 32.263676 26.512241 32.384766 26.308594 C 33.562758 25.963512 34.675111 25.343871 35.458984 24.287109 C 35.784502 23.848457 36.033492 23.375338 36.21875 22.886719 C 36.63637 22.958739 37.064081 23 37.5 23 C 38.321589 23 39.112127 22.862351 39.853516 22.615234 z M 17.5625 24.873047 C 15.832834 24.873047 14.34482 25.575212 13.392578 26.646484 C 12.440336 27.717757 11.998047 29.088167 11.998047 30.4375 C 11.998047 31.786833 12.440336 33.157243 13.392578 34.228516 C 14.34482 35.299788 15.832834 36.001953 17.5625 36.001953 C 19.292166 36.001953 20.778227 35.299788 21.730469 34.228516 C 22.682711 33.157243 23.126953 31.786833 23.126953 30.4375 C 23.126953 29.088167 22.682711 27.717757 21.730469 26.646484 C 20.778227 25.575212 19.292166 24.873047 17.5625 24.873047 z M 17.5625 27.873047 C 18.542166 27.873047 19.085857 28.185945 19.488281 28.638672 C 19.890705 29.091399 20.126953 29.754833 20.126953 30.4375 C 20.126953 31.120167 19.890705 31.781648 19.488281 32.234375 C 19.085857 32.687102 18.542166 33.001953 17.5625 33.001953 C 16.582834 33.001953 16.03719 32.687102 15.634766 32.234375 C 15.232342 31.781648 14.998047 31.120167 14.998047 30.4375 C 14.998047 29.754833 15.232342 29.091399 15.634766 28.638672 C 16.03719 28.185945 16.582834 27.873047 17.5625 27.873047 z"/></svg>