<svg xmlns="http://www.w3.org/2000/svg"  viewBox="0 0 48 48" width="50px" height="50px"><path d="M 24 5.2050781 C 23.013148 5.2050781 22.026562 5.6325525 21.384766 6.4882812 L 19.923828 8.4355469 C 19.455629 9.0596426 18.620586 9.2240158 17.951172 8.8222656 C 15.836094 7.553219 13 9.1590909 13 11.625 A 1.50015 1.50015 0 0 0 13.103516 12.169922 L 13.888672 14.183594 A 1.50015 1.50015 0 0 0 13.888672 14.185547 C 14.129816 14.8024 14.316225 15.435203 14.478516 16.074219 C 9.3461993 18.569593 6 23.190123 6 28.5 C 6 36.63195 13.732827 43 24 43 C 34.267173 43 42 36.63195 42 28.5 C 42 23.187552 38.653421 18.56423 33.515625 16.066406 C 33.692663 15.368655 33.898238 14.677324 34.166016 14.005859 L 34.892578 12.181641 A 1.50015 1.50015 0 0 0 35 11.625 C 35 9.1590909 32.162382 7.5540362 30.046875 8.8222656 C 29.376982 9.2243028 28.544412 9.0602062 28.076172 8.4355469 L 26.615234 6.4882812 C 25.973438 5.6325524 24.986852 5.2050781 24 5.2050781 z M 24 8.1542969 C 24.074809 8.1542969 24.14864 8.1988382 24.214844 8.2871094 L 25.675781 10.236328 C 27.051162 12.071163 29.623944 12.573242 31.589844 11.394531 C 31.779981 11.280545 31.851897 11.422221 31.90625 11.572266 L 31.378906 12.894531 C 30.446226 15.233272 29.974852 17.730055 29.992188 20.248047 A 1.50015 1.50015 0 0 0 29.992188 20.283203 L 30 20.544922 A 1.5006725 1.5006725 0 1 0 33 20.455078 L 32.992188 20.21875 C 32.990038 19.877141 33.016118 19.537525 33.035156 19.197266 C 36.823053 21.318714 39 24.701053 39 28.5 C 39 34.72805 33.062827 40 24 40 C 14.937173 40 9 34.72805 9 28.5 C 9 24.702909 11.17457 21.324949 14.958984 19.201172 C 14.979389 19.555614 15.003657 19.909729 15.001953 20.265625 A 1.50015 1.50015 0 0 0 17.138672 21.857422 L 17.15625 21.849609 A 1.50015 1.50015 0 0 0 18.017578 20.517578 C 18.060908 17.979297 17.607818 15.457943 16.683594 13.09375 L 16.089844 11.574219 C 16.142834 11.419967 16.217202 11.27993 16.408203 11.394531 C 18.374789 12.574781 20.946464 12.070232 22.322266 10.236328 L 23.783203 8.2871094 C 23.849407 8.1988382 23.925191 8.1542969 24 8.1542969 z M 21.476562 16.978516 A 1.50015 1.50015 0 0 0 20 18.5 L 20 20.5 A 1.50015 1.50015 0 1 0 23 20.5 L 23 18.5 A 1.50015 1.50015 0 0 0 21.476562 16.978516 z M 26.476562 16.978516 A 1.50015 1.50015 0 0 0 25 18.5 L 25 20.5 A 1.50015 1.50015 0 1 0 28 20.5 L 28 18.5 A 1.50015 1.50015 0 0 0 26.476562 16.978516 z"/></svg>