<svg xmlns="http://www.w3.org/2000/svg"  viewBox="0 0 48 48" width="50px" height="50px"><path d="M 35.117188 4.6425781 C 34.09044 4.6426038 33.063781 5.0299687 32.289062 5.8046875 L 28.912109 9.1816406 A 1.50015 1.50015 0 0 0 28.818359 9.28125 C 27.119881 9.1000776 25.24015 9 23.15625 9 C 17.990042 9 14.416549 9.5802512 11.951172 10.636719 C 9.4857951 11.693186 8 13.510078 8 15.5 C 8 17.490112 9.4857105 19.306839 11.951172 20.363281 C 14.416633 21.419723 17.99053 22 23.15625 22 C 28.32197 22 32.292318 21.409182 35.119141 20.396484 C 36.532552 19.890136 37.66896 19.281349 38.53125 18.496094 C 39.39354 17.710838 40 16.655941 40 15.5 C 40 14.344155 39.395419 13.289188 38.533203 12.503906 C 38.255577 12.251053 37.940059 12.021458 37.605469 11.802734 L 37.945312 11.462891 C 39.493507 9.9131091 39.496406 7.3541927 37.945312 5.8046875 C 37.170241 5.0304123 36.143934 4.6425525 35.117188 4.6425781 z M 23.15625 22 L 8.5 22 L 7.5 22 A 1.50015 1.50015 0 0 0 7 24.919922 L 7 40.080078 A 1.50015 1.50015 0 0 0 7.5 43 L 8.5 43 L 40.5 43 L 41.5 43 A 1.50015 1.50015 0 0 0 42 40.080078 L 42 24.919922 A 1.50015 1.50015 0 0 0 41.5 22 L 40.5 22 L 23.15625 22 z M 35.117188 7.625 C 35.369901 7.6253778 35.62229 7.7260144 35.824219 7.9277344 C 36.227126 8.3302292 36.228024 8.937578 35.824219 9.3417969 L 34.699219 10.466797 C 34.018795 10.241405 33.278962 10.038416 32.474609 9.8613281 L 34.410156 7.9257812 C 34.611438 7.7245 34.864474 7.6246222 35.117188 7.625 z M 23.15625 12 C 28.087042 12 31.788352 12.596197 34.109375 13.427734 C 35.269886 13.843503 36.074591 14.322579 36.511719 14.720703 C 36.948847 15.118827 37 15.344345 37 15.5 C 37 15.655559 36.94893 15.881146 36.511719 16.279297 C 36.074509 16.677448 35.268011 17.156489 34.107422 17.572266 C 31.786244 18.403818 28.08653 19 23.15625 19 C 18.22597 19 14.971351 18.393277 13.132812 17.605469 C 11.294275 16.817661 11 16.132888 11 15.5 C 11 14.866922 11.29444 14.182314 13.132812 13.394531 C 14.971186 12.606748 18.225458 12 23.15625 12 z M 10 25 L 39 25 L 39 40 L 10 40 L 10 25 z M 31.5 28 C 29.5 28 28.087089 29.222307 27.533203 30.330078 C 27.463923 30.468638 27.519267 30.466396 27.466797 30.601562 C 24.499678 28.262729 21.426429 28.081317 19.265625 28.875 C 16.838988 29.766325 15.363281 31.521484 15.363281 31.521484 A 1.50015 1.50015 0 0 0 15.439453 33.560547 C 18.75641 36.877504 22.345661 37.05406 24.769531 36.148438 C 25.968953 35.700302 26.92339 35.03907 27.589844 34.484375 C 28.047411 35.392939 28.657564 36.13054 29.330078 36.466797 C 30.437855 37.020682 31.5 37 31.5 37 A 1.50015 1.50015 0 0 0 32.560547 34.439453 L 30.621094 32.5 L 32.560547 30.560547 A 1.50015 1.50015 0 0 0 31.5 28 z M 22.251953 31.333984 C 22.488399 31.341562 22.732657 31.368813 22.984375 31.421875 C 23.633951 31.558805 24.363005 31.956715 25.132812 32.507812 C 24.719131 32.803969 24.304187 33.121109 23.71875 33.339844 C 22.419142 33.825412 20.868606 33.933813 18.884766 32.507812 C 19.301543 32.216954 19.715349 31.906441 20.300781 31.691406 C 20.89923 31.471591 21.542616 31.31125 22.251953 31.333984 z"/></svg>