<svg xmlns="http://www.w3.org/2000/svg"  viewBox="0 0 48 48" width="50px" height="50px"><path d="M 35.5 4.2519531 C 34.345136 4.2519531 33.190792 4.6881143 32.318359 5.5605469 L 30.605469 7.2734375 C 28.557241 6.4612519 26.33346 6 24 6 C 14.076636 6 6 14.076643 6 24 C 6 26.333458 6.4612524 28.557241 7.2734375 30.605469 L 5.0664062 32.810547 C 3.3215413 34.555412 3.3215412 37.430916 5.0664062 39.175781 L 6.8242188 40.933594 C 8.5690838 42.678459 11.444588 42.678459 13.189453 40.933594 L 14.724609 39.396484 C 17.43777 41.037614 20.605108 42 24 42 C 33.923364 42 42 33.923357 42 24 C 42 20.59949 41.034824 17.427045 39.388672 14.710938 A 1.50015 1.50015 0 0 0 39.560547 14.560547 L 40.439453 13.681641 C 42.184318 11.936776 42.184318 9.0612713 40.439453 7.3164062 L 38.683594 5.5605469 C 37.811161 4.6881143 36.654864 4.2519531 35.5 4.2519531 z M 35.5 7.2324219 C 35.88049 7.2324219 36.260979 7.3820732 36.560547 7.6816406 L 38.318359 9.4394531 C 38.917494 10.038588 38.917494 10.961412 38.318359 11.560547 L 37.615234 12.263672 C 36.412004 10.870032 34.998721 9.6678646 33.425781 8.6953125 L 34.439453 7.6816406 C 34.739021 7.3820732 35.11951 7.2324219 35.5 7.2324219 z M 24 9 C 32.302045 9 39 15.697961 39 24 C 39 32.302039 32.302045 39 24 39 C 15.697955 39 9 32.302039 9 24 C 9 15.697961 15.697955 9 24 9 z M 24.5 10 C 18.500001 10 18.500001 21 24.5 21 C 30.499999 21 30.499999 10 24.5 10 z M 24.5 13 C 25.854165 13 26.288194 15.289146 25.808594 16.769531 A 1.5 1.5 0 0 0 24.5 16 A 1.5 1.5 0 0 0 23.191406 16.771484 C 22.710888 15.291157 23.145298 13 24.5 13 z M 15.5 14 A 1.5 1.5 0 0 0 15.5 17 A 1.5 1.5 0 0 0 15.5 14 z M 34.15625 19.65625 A 1.50015 1.50015 0 0 0 33.111328 22.232422 L 34.611328 23.732422 C 35.143604 24.264697 35.143604 25.079053 34.611328 25.611328 C 34.079053 26.143604 33.264697 26.143604 32.732422 25.611328 L 29.560547 22.439453 A 1.50015 1.50015 0 1 0 27.439453 24.560547 L 30.611328 27.732422 C 32.289053 29.410146 35.054697 29.410146 36.732422 27.732422 C 38.410146 26.054697 38.410146 23.289053 36.732422 21.611328 L 35.232422 20.111328 A 1.50015 1.50015 0 0 0 34.15625 19.65625 z M 15.5 20 A 1.5 1.5 0 0 0 15.5 23 A 1.5 1.5 0 0 0 15.5 20 z M 16.5 24.181641 C 15.389101 24.181641 14.278315 24.600591 13.439453 25.439453 C 11.761729 27.117178 11.761729 29.882822 13.439453 31.560547 L 14.939453 33.060547 A 1.50015 1.50015 0 1 0 17.060547 30.939453 L 15.560547 29.439453 C 15.028271 28.907178 15.028271 28.092822 15.560547 27.560547 C 16.092822 27.028271 16.907178 27.028271 17.439453 27.560547 L 21.439453 31.560547 A 1.50015 1.50015 0 1 0 23.560547 29.439453 L 19.560547 25.439453 C 18.721685 24.600591 17.610899 24.181641 16.5 24.181641 z M 30.5 32 A 1.5 1.5 0 0 0 30.5 35 A 1.5 1.5 0 0 0 30.5 32 z M 8.6953125 33.425781 C 9.6676098 34.99831 10.868541 36.412209 12.261719 37.615234 L 11.066406 38.810547 C 10.467271 39.409682 9.5444474 39.409682 8.9453125 38.810547 L 7.1894531 37.054688 C 6.5903182 36.455553 6.5903182 35.532729 7.1894531 34.933594 L 8.6953125 33.425781 z M 23.5 34 A 1.5 1.5 0 0 0 23.5 37 A 1.5 1.5 0 0 0 23.5 34 z"/></svg>