<svg xmlns="http://www.w3.org/2000/svg"  viewBox="0 0 48 48" width="50px" height="50px"><path d="M 23.638672 2.3769531 C 22.292017 2.4176963 21.074951 2.9840549 20.224609 3.78125 C 18.928851 4.9960234 18.20077 6.5793422 17.720703 7.8652344 C 17.240637 9.1511266 17.029297 10.205078 17.029297 10.205078 A 1.50015 1.50015 0 0 0 17.011719 10.3125 C 15.726761 11.259316 14.538246 12.519948 13.435547 14.015625 C 12.98948 13.649507 12.516528 13.32035 12.019531 13.125 C 10.836211 12.659884 9.6133992 12.569265 8.5273438 12.591797 C 6.0928798 12.642798 4.3680616 15.249014 5.3710938 17.5 C 5.7448079 18.33889 6 19.296194 6 19.5 C 6 19.689168 5.7860509 20.542222 5.4492188 21.324219 C 4.4588036 23.623544 6.25295 26.326741 8.78125 26.208984 C 9.9616748 26.153924 11.284157 25.962564 12.5 25.308594 C 12.926256 25.079322 13.281784 24.682561 13.642578 24.306641 C 14.794673 25.774685 16.294729 26.970404 18 27.890625 L 18 33.5 C 18 35.967501 20.032499 38 22.5 38 L 23 38 L 23 44.5 A 1.50015 1.50015 0 1 0 26 44.5 L 26 38 L 26.5 38 C 28.967501 38 31 35.967501 31 33.5 L 31 29.337891 C 35.173255 28.258535 39.141572 25.68033 41.787109 21.271484 C 42.441596 20.180673 42.400944 18.88558 42.03125 17.746094 C 41.661556 16.606607 40.974884 15.515663 40.072266 14.453125 C 38.267028 12.328048 35.56352 10.319543 32.390625 8.9980469 C 32.320963 8.9690328 32.238104 8.9677876 32.167969 8.9394531 C 29.848963 5.6318662 27.814137 3.6154282 25.826172 2.7871094 C 25.285954 2.5620185 24.747982 2.4365524 24.222656 2.3925781 C 24.025659 2.3760878 23.831051 2.3711327 23.638672 2.3769531 z M 23.566406 5.2910156 C 23.865793 5.2847515 24.218531 5.3669336 24.673828 5.5566406 C 25.335496 5.8323355 26.248076 6.5523116 27.302734 7.640625 C 25.54392 7.4338717 23.730454 7.4992217 21.929688 7.9433594 C 21.575176 8.0307954 21.232046 8.2063089 20.880859 8.3242188 C 21.27096 7.448129 21.712657 6.4963124 22.275391 5.96875 C 22.627511 5.6386367 22.923708 5.4100832 23.283203 5.3261719 C 23.373077 5.3051941 23.466611 5.2931037 23.566406 5.2910156 z M 25.894531 10.539062 C 26.258309 10.552733 26.621369 10.581601 26.984375 10.625 C 27.666717 10.70658 28.312802 10.986054 28.982422 11.162109 C 28.365261 11.955149 27.682223 12.870926 27.132812 14.171875 C 25.866546 17.17027 25.424385 21.594525 27.992188 26.748047 C 27.283569 26.820917 26.575467 26.954769 25.871094 26.935547 C 20.916024 26.800327 16.441014 24.345372 14.865234 20.878906 A 1.50015 1.50015 0 0 0 12.009766 21.330078 C 11.923016 22.089773 11.661032 22.352486 11.078125 22.666016 C 10.495218 22.979546 9.5631533 23.167998 8.6425781 23.210938 C 8.2515692 23.229147 8.0373347 22.895986 8.203125 22.511719 A 1.50015 1.50015 0 0 0 8.203125 22.509766 C 8.6062928 21.573809 9 20.618832 9 19.5 C 9 18.296 8.5510784 17.267929 8.109375 16.277344 C 7.9466402 15.912862 8.1611489 15.600778 8.5898438 15.591797 C 9.4317881 15.574327 10.303946 15.675087 10.921875 15.917969 C 11.539804 16.160852 11.877307 16.438154 12.09375 17.021484 A 1.50015 1.50015 0 0 0 14.791016 17.263672 C 17.083201 13.384553 19.812477 11.556877 22.648438 10.857422 C 23.711922 10.595126 24.803197 10.498052 25.894531 10.539062 z M 31.958984 12.171875 C 34.356635 13.306104 36.486215 14.865106 37.787109 16.396484 C 38.506756 17.243633 38.980456 18.063815 39.177734 18.671875 C 39.375013 19.279935 39.308401 19.569327 39.212891 19.728516 C 37.138617 23.185338 34.150852 25.152141 30.958984 26.136719 A 1.50015 1.50015 0 0 0 30.826172 25.796875 C 28.370073 21.164792 28.877187 17.751485 29.896484 15.337891 C 30.635126 13.58886 31.458004 12.670823 31.958984 12.171875 z M 32.5 17 A 1.5 1.5 0 0 0 32.5 20 A 1.5 1.5 0 0 0 32.5 17 z M 21 29.140625 C 21.650844 29.339634 22.318246 29.498799 23 29.623047 L 23 35 L 22.5 35 C 21.653501 35 21 34.346499 21 33.5 L 21 29.140625 z M 28 29.863281 L 28 33.5 C 28 34.346499 27.346499 35 26.5 35 L 26 35 L 26 29.933594 C 26.662365 29.944256 27.330161 29.923787 28 29.863281 z"/></svg>