<svg xmlns="http://www.w3.org/2000/svg"  viewBox="0 0 48 48" width="50px" height="50px"><path d="M 19.5 4 A 1.50015 1.50015 0 0 0 18.111328 4.9316406 L 4.8359375 37.292969 C 4.1015461 39.082821 4.6340193 41.001392 5.8164062 42.183594 C 6.9987933 43.365795 8.9175798 43.898588 10.707031 43.164062 L 26.064453 36.863281 A 1.50015 1.50015 0 0 0 26.425781 36.714844 L 43.068359 29.888672 A 1.50015 1.50015 0 0 0 44 28.5 C 44 14.986404 33.013596 4 19.5 4 z M 20.466797 7.0976562 C 31.570952 7.5978081 40.402192 16.429048 40.902344 27.533203 L 37.410156 28.966797 C 36.949406 19.015021 28.984979 11.050594 19.033203 10.589844 L 20.466797 7.0976562 z M 17.851562 13.472656 A 1.50015 1.50015 0 0 0 18.146484 13.5 C 26.524185 13.5 33.393721 19.763527 34.369141 27.873047 C 33.366322 27.320426 32.219015 27 31 27 C 27.151598 27 24 30.151598 24 34 C 24 34.154859 24.019322 34.304535 24.029297 34.457031 L 9.5683594 40.388672 C 8.8948111 40.665147 8.3491129 40.474048 7.9375 40.0625 C 7.5258871 39.650952 7.3347195 39.105789 7.6113281 38.431641 L 9.5175781 33.783203 C 10.15903 33.919723 10.820589 34 11.5 34 C 16.728774 34 21 29.728774 21 24.5 C 21 21.147365 19.245571 18.19635 16.607422 16.505859 L 17.851562 13.472656 z M 15.441406 19.347656 C 16.990379 20.533048 18 22.386122 18 24.5 C 18 28.107226 15.107226 31 11.5 31 C 11.22305 31 10.956498 30.963001 10.689453 30.929688 L 15.441406 19.347656 z M 31 30 C 31.832053 30 32.595679 30.253044 33.230469 30.681641 L 27.078125 33.205078 C 27.442027 31.365835 29.04547 30 31 30 z"/></svg>