<svg xmlns="http://www.w3.org/2000/svg"  viewBox="0 0 48 48" width="50px" height="50px"><path d="M 15.5 6 A 1.50015 1.50015 0 0 0 14.011719 7.3144531 C 14.011719 7.3144531 13.719756 9.4806274 14.150391 11.777344 C 14.365708 12.925702 14.754789 14.153129 15.601562 15.195312 C 15.658643 15.265565 15.72508 15.330874 15.787109 15.398438 C 15.4474 15.373283 15.108447 15.314303 14.775391 15.216797 L 10.826172 14.058594 A 1.50015 1.50015 0 0 0 10.404297 13.998047 L 9 13.998047 C 6.256343 13.998047 4 16.25439 4 18.998047 C 4 21.029661 5.2439071 22.78352 7 23.5625 L 7 32.306641 C 5.267923 32.934805 4 34.56309 4 36.5 L 4 37.5 C 4 39.967501 6.0324991 42 8.5 42 L 39.5 42 C 41.967501 42 44 39.968943 44 37.501953 L 44 36.501953 C 44 34.211271 42.225191 32.36632 40 32.103516 L 40 23.796875 C 42.25498 23.315789 44 21.390014 44 19 C 44 16.256343 41.743657 14 39 14 L 38.542969 14 A 1.50015 1.50015 0 0 0 38.214844 14.035156 L 33.373047 15.115234 C 33.574533 14.696464 33.728194 14.270817 33.830078 13.863281 C 34.30019 11.982833 33.980469 10.253906 33.980469 10.253906 A 1.50015 1.50015 0 0 0 32.863281 9.0449219 C 32.863281 9.0449219 30.680833 8.4659212 28.314453 8.7617188 C 27.131263 8.9096175 25.831397 9.2788747 24.761719 10.214844 C 24.608477 10.34893 24.531366 10.575306 24.394531 10.732422 C 24.119059 10.101428 23.792526 9.5092672 23.371094 9.0351562 C 22.401166 7.9439881 21.181261 7.278422 20.027344 6.8457031 C 17.719509 5.9802653 15.5 6 15.5 6 z M 17.039062 9.2890625 C 17.713617 9.3639325 18.030368 9.3009385 18.972656 9.6542969 C 19.818739 9.971578 20.598834 10.431012 21.128906 11.027344 C 21.631622 11.592895 21.953325 12.273364 21.986328 13.335938 C 21.242726 13.460564 20.516302 13.694744 19.826172 14.033203 A 1.50015 1.50015 0 0 0 19.5 14 C 18.65 14 18.301663 13.762503 17.929688 13.304688 C 17.557711 12.846872 17.259292 12.074298 17.099609 11.222656 C 16.925026 10.291545 17.018462 9.9774066 17.039062 9.2890625 z M 29.40625 11.6875 C 30.046746 11.683494 30.476659 11.800814 30.972656 11.882812 C 30.986366 12.347855 31.066722 12.549493 30.919922 13.136719 C 30.779978 13.696495 30.544458 14.158481 30.216797 14.460938 C 29.889132 14.763393 29.45 15 28.5 15 A 1.50015 1.50015 0 0 0 28.462891 15.001953 C 28.360377 14.947884 28.251395 14.909293 28.152344 14.847656 L 27.455078 14.414062 C 27.008262 14.1359 26.535978 13.924569 26.054688 13.744141 C 26.161473 13.098137 26.415541 12.755054 26.738281 12.472656 C 27.168603 12.096125 27.868737 11.840383 28.685547 11.738281 C 28.956205 11.704449 29.192751 11.688835 29.40625 11.6875 z M 23.199219 16.222656 C 24.12224 16.205276 25.051674 16.450812 25.871094 16.960938 L 26.566406 17.394531 A 1.50015 1.50015 0 0 0 26.568359 17.394531 C 28.320536 18.484857 30.431483 18.844688 32.445312 18.396484 L 38.707031 17 L 39 17 C 40.122343 17 41 17.877657 41 19 C 41 20.122343 40.122343 21 39 21 L 38.542969 21 A 1.50015 1.50015 0 0 0 38.216797 21.035156 L 31.792969 22.46875 C 30.545247 22.747211 29.239917 22.52397 28.154297 21.847656 L 27.457031 21.414062 C 24.819585 19.772136 21.453894 19.836968 18.880859 21.576172 A 1.50015 1.50015 0 0 0 18.878906 21.576172 C 17.674483 22.391109 16.173487 22.625536 14.777344 22.216797 L 10.826172 21.058594 A 1.50015 1.50015 0 0 0 10.404297 20.998047 L 9 20.998047 C 7.877657 20.998047 7 20.12039 7 18.998047 C 7 17.875704 7.877657 16.998047 9 16.998047 L 10.189453 16.998047 L 13.931641 18.095703 C 16.182902 18.75479 18.615273 18.374767 20.558594 17.060547 C 21.357925 16.519868 22.276198 16.240032 23.199219 16.222656 z M 23.201172 23.222656 C 24.124293 23.205166 25.051817 23.450901 25.871094 23.960938 L 26.568359 24.394531 C 28.320739 25.486218 30.432987 25.846023 32.447266 25.396484 L 37 24.380859 L 37 32.308594 L 31.792969 33.46875 C 30.544799 33.746546 29.238167 33.52333 28.152344 32.847656 L 28.152344 32.849609 L 27.455078 32.414062 C 24.817631 30.772136 21.451941 30.836968 18.878906 32.576172 C 17.674483 33.391109 16.171534 33.625536 14.775391 33.216797 L 10.826172 32.060547 A 1.50015 1.50015 0 0 0 10.404297 32 L 10 32 L 10 23.998047 L 10.189453 23.998047 L 13.933594 25.095703 C 16.185451 25.754964 18.61697 25.37561 20.560547 24.060547 C 21.36003 23.520149 22.278051 23.240149 23.201172 23.222656 z M 23.199219 34.224609 C 24.12234 34.207119 25.051817 34.450901 25.871094 34.960938 L 26.566406 35.394531 A 1.50015 1.50015 0 0 0 26.568359 35.396484 C 28.320536 36.48681 30.431483 36.844688 32.445312 36.396484 L 38.660156 35.011719 A 1.50015 1.50015 0 0 0 38.728516 35.001953 L 39.5 35.001953 C 40.346499 35.001953 41 35.655454 41 36.501953 L 41 37.501953 C 41 38.34695 40.346499 39 39.5 39 L 8.5 39 C 7.6535009 39 7 38.346499 7 37.5 L 7 36.5 C 7 35.672153 7.6338142 35.047477 8.453125 35.019531 A 1.50015 1.50015 0 0 0 8.7402344 35 L 10.189453 35 L 13.931641 36.095703 C 16.182668 36.754721 18.615374 36.376389 20.558594 35.0625 C 21.358076 34.522102 22.276099 34.242102 23.199219 34.224609 z"/></svg>