<svg xmlns="http://www.w3.org/2000/svg"  viewBox="0 0 48 48" width="50px" height="50px"><path d="M 9.5 5 C 5.855 5 3 7.855 3 11.5 L 3 12.5 C 3 15.627 5.102 18.172031 8 18.832031 L 8 37.5 C 8 40.532 10.467 43 13.5 43 L 18.216797 43 C 17.505797 42.091 16.921375 41.081 16.484375 40 L 13.5 40 C 12.122 40 11 38.879 11 37.5 L 11 17.5 C 11 16.672 10.329 16 9.5 16 C 7.538 16 6 14.463 6 12.5 L 6 11.5 C 6 9.537 7.538 8 9.5 8 L 38.5 8 C 40.462 8 42 9.537 42 11.5 C 42 13.463 40.462 15 38.5 15 C 37.671 15 37 15.672 37 16.5 C 37 17.328 37.671 18 38.5 18 C 42.145 18 45 15.145 45 11.5 C 45 7.855 42.145 5 38.5 5 L 9.5 5 z M 32.666016 18.818359 C 28.062285 18.681004 24.051707 21.55774 22.546875 25.673828 C 22.321456 26.290252 21.914951 26.848825 21.376953 27.292969 C 18.727817 29.48387 17.165896 32.995991 17.683594 36.810547 C 18.262816 41.07658 21.492266 44.566068 25.679688 45.521484 C 27.333975 45.899144 28.959173 45.863073 30.455078 45.501953 C 31.160715 45.332308 31.890209 45.3555 32.583984 45.566406 C 34.052781 46.015108 35.672009 46.148834 37.341797 45.873047 C 41.722723 45.15071 45.216177 41.661345 45.923828 37.273438 L 45.921875 37.273438 C 46.452407 34.001342 45.420126 30.892933 43.443359 28.65625 C 42.997527 28.15141 42.685787 27.545117 42.53125 26.882812 A 1.50015 1.50015 0 0 0 42.53125 26.880859 C 41.47819 22.372923 37.493561 18.963849 32.667969 18.818359 A 1.50015 1.50015 0 0 0 32.666016 18.818359 z M 32.576172 21.816406 C 36.04258 21.920917 38.860435 24.35839 39.609375 27.564453 C 39.874838 28.70215 40.417146 29.761418 41.195312 30.642578 C 42.610546 32.243895 43.346452 34.417018 42.960938 36.794922 C 42.462589 39.885014 39.94459 42.402446 36.853516 42.912109 C 35.641303 43.112322 34.50614 43.016564 33.460938 42.697266 A 1.50015 1.50015 0 0 0 33.460938 42.695312 C 32.257281 42.328763 30.977623 42.291738 29.753906 42.585938 A 1.50015 1.50015 0 0 0 29.751953 42.585938 C 28.687858 42.842816 27.549368 42.871995 26.347656 42.597656 A 1.50015 1.50015 0 0 0 26.345703 42.597656 C 23.389125 41.923073 21.063028 39.402217 20.65625 36.40625 C 20.277948 33.618806 21.392246 31.172568 23.287109 29.605469 C 24.205112 28.847613 24.9407 27.860655 25.363281 26.705078 A 1.50015 1.50015 0 0 0 25.363281 26.703125 C 26.434233 23.773806 29.270762 21.718653 32.576172 21.816406 z M 34 29.117188 C 32.125 29.117188 30.528815 29.874321 29.503906 31.027344 C 28.478997 32.180367 28 33.658853 28 35.117188 C 28 36.575521 28.478997 38.054008 29.503906 39.207031 C 30.528815 40.360054 32.125 41.117187 34 41.117188 C 35.875 41.117188 37.471185 40.360054 38.496094 39.207031 C 39.521003 38.054008 40 36.575521 40 35.117188 C 40 33.658853 39.521003 32.180367 38.496094 31.027344 C 37.471185 29.874321 35.875 29.117187 34 29.117188 z M 34 32.117188 C 35.124999 32.117188 35.778816 32.485054 36.253906 33.019531 C 36.728997 33.554008 37 34.325521 37 35.117188 C 37 35.908853 36.728997 36.680367 36.253906 37.214844 C 35.778816 37.749321 35.124999 38.117188 34 38.117188 C 32.875001 38.117188 32.221184 37.749321 31.746094 37.214844 C 31.271003 36.680367 31 35.908853 31 35.117188 C 31 34.325521 31.271003 33.554008 31.746094 33.019531 C 32.221184 32.485054 32.875001 32.117187 34 32.117188 z"/></svg>