<svg xmlns="http://www.w3.org/2000/svg"  viewBox="0 0 48 48" width="50px" height="50px"><path d="M 13.201172 4.953125 A 1.50015 1.50015 0 0 0 12.341797 5.2558594 C 7.81478 8.6735245 5 15.376116 5 23.046875 C 5 28.419347 6.4009807 33.307039 8.7714844 36.947266 C 11.141988 40.587493 14.597874 43.046875 18.546875 43.046875 C 22.014717 43.046875 25.100031 41.148029 27.40625 38.220703 C 28.930103 40.526108 31.543565 42.046875 34.5 42.046875 C 39.176657 42.046875 43 38.223532 43 33.546875 C 43 31.895587 42.517662 30.348381 41.697266 29.039062 C 42.51686 27.732946 43 26.196841 43 24.548828 C 43 22.681101 42.384737 20.94796 41.357422 19.541016 C 42.384624 18.135993 43 16.413318 43 14.548828 C 43 9.8721712 39.176657 6.0488281 34.5 6.0488281 C 31.982178 6.0488281 29.714193 7.1537319 28.154297 8.9042969 C 27.171752 7.4624158 26.032459 6.2235651 24.75 5.2558594 A 1.50015 1.50015 0 0 0 22.345703 6.453125 C 22.345703 6.516375 22.347656 6.5480781 22.347656 6.5488281 C 22.347656 11.682253 21.75259 15.811394 20.869141 18.517578 C 20.427416 19.87067 19.905071 20.859705 19.449219 21.416016 C 18.993366 21.972326 18.723291 22.048828 18.546875 22.048828 C 18.370459 22.048828 18.098431 21.972328 17.642578 21.416016 C 17.186726 20.859705 16.664381 19.87067 16.222656 18.517578 C 15.339206 15.811394 14.744141 11.682253 14.744141 6.5488281 C 14.744141 6.5480781 14.746094 6.516375 14.746094 6.453125 A 1.50015 1.50015 0 0 0 13.201172 4.953125 z M 34.5 9.0488281 C 37.555343 9.0488281 40 11.493485 40 14.548828 C 40 17.604171 37.555343 20.048828 34.5 20.048828 C 33.53703 20.048828 32.647849 19.791953 31.865234 19.361328 C 31.525568 16.592909 30.80664 14.020239 29.767578 11.767578 C 30.721929 10.146014 32.467532 9.0488281 34.5 9.0488281 z M 25.148438 9.9589844 C 27.471699 13.032702 29.09375 17.707669 29.09375 23.046875 C 29.09375 27.891403 27.79834 32.255024 25.808594 35.310547 C 23.818847 38.36607 21.250874 40.046875 18.546875 40.046875 C 15.842876 40.046875 13.274903 38.36607 11.285156 35.310547 C 9.2954102 32.255024 8 27.891403 8 23.046875 C 8 17.708425 9.6214415 13.034728 11.943359 9.9609375 C 12.149601 13.698462 12.578952 17.022731 13.371094 19.449219 C 13.888619 21.034502 14.509681 22.326701 15.322266 23.318359 C 16.134851 24.310017 17.259291 25.048828 18.546875 25.048828 C 19.834459 25.048828 20.956946 24.310017 21.769531 23.318359 C 22.582116 22.326701 23.203178 21.034502 23.720703 19.449219 C 24.512983 17.022307 24.942274 13.697376 25.148438 9.9589844 z M 39.160156 21.642578 C 39.687928 22.485153 40 23.473443 40 24.548828 C 40 27.604171 37.555343 30.048828 34.5 30.048828 C 33.366025 30.048828 32.332385 29.697749 31.460938 29.115234 C 31.868944 27.196847 32.09375 25.162104 32.09375 23.046875 C 32.09375 22.929321 32.087256 22.814357 32.085938 22.697266 C 32.852909 22.924371 33.663933 23.048828 34.5 23.048828 C 36.21882 23.048828 37.819317 22.528039 39.160156 21.642578 z M 18.546875 29.046875 A 2.5 2.5 0 1 0 18.546875 34.046875 A 2.5 2.5 0 1 0 18.546875 29.046875 z M 39.535156 31.373047 C 39.824274 32.040038 40 32.767137 40 33.546875 C 40 36.602218 37.555343 39.046875 34.5 39.046875 C 32.048884 39.046875 30.012934 37.453186 29.292969 35.261719 C 29.805543 34.27724 30.254456 33.22462 30.634766 32.113281 C 31.797092 32.707886 33.111746 33.048828 34.5 33.048828 C 36.383902 33.048828 38.12234 32.419749 39.535156 31.373047 z"/></svg>