<svg xmlns="http://www.w3.org/2000/svg"  viewBox="0 0 48 48" width="50px" height="50px"><path d="M 21.5 2 C 20.671 2 20 2.671 20 3.5 L 20 15.5 C 20 16.329 20.671 17 21.5 17 C 22.329 17 23 16.329 23 15.5 L 23 3.5 C 23 2.671 22.329 2 21.5 2 z M 41.556641 2 C 41.456705 1.996625 41.354703 2.0020312 41.251953 2.0195312 L 26 4.5625 L 26 7.6035156 L 41.746094 4.9804688 C 42.562094 4.8434688 43.115516 4.0719062 42.978516 3.2539062 C 42.858641 2.5381563 42.256189 2.023625 41.556641 2 z M 15.5 3 C 14.671 3 14 3.671 14 4.5 L 14 16.5 C 14 17.329 14.671 18 15.5 18 C 16.329 18 17 17.329 17 16.5 L 17 4.5 C 17 3.671 16.329 3 15.5 3 z M 9.5 4 C 8.671 4 8 4.671 8 5.5 L 8 7.5625 L 5.2539062 8.0214844 C 4.4369062 8.1574844 3.8844844 8.9280938 4.0214844 9.7460938 C 4.1434844 10.479094 4.7780469 11 5.4980469 11 C 5.5800469 11 5.6620938 10.993516 5.7460938 10.978516 L 8 10.603516 L 8 12 L 5.5 12 C 4.671 12 4 12.671 4 13.5 C 4 14.329 4.671 15 5.5 15 L 8 15 L 8 26 L 5.5 26 C 3.57 26 2 27.57 2 29.5 C 2 38.598 9.402 46 18.5 46 L 29.5 46 C 38.598 46 46 38.598 46 29.5 C 46 27.57 44.43 26 42.5 26 L 39.085938 26 C 35.436937 22.529 31.487187 20.794578 27.367188 20.892578 C 21.590188 21.023578 17.275906 24.661 15.878906 26 L 11 26 L 11 18.5 L 11 15 L 11 12 L 11 10.103516 L 11 7.0625 L 11 5.5 C 11 4.671 10.329 4 9.5 4 z M 26 12 L 26 15 L 41.5 15 C 42.328 15 43 14.329 43 13.5 C 43 12.671 42.328 12 41.5 12 L 26 12 z M 27.460938 23.890625 C 29.817937 23.847625 32.095734 24.566 34.302734 26 L 20.806641 26 C 22.528641 24.944 24.831938 23.944625 27.460938 23.890625 z M 5.5 29 L 42.5 29 C 42.775 29 43 29.225 43 29.5 C 43 36.944 36.944 43 29.5 43 L 18.5 43 C 11.056 43 5 36.944 5 29.5 C 5 29.225 5.224 29 5.5 29 z"/></svg>