<svg xmlns="http://www.w3.org/2000/svg"  viewBox="0 0 48 48" width="50px" height="50px"><path d="M 8.5 10 C 5.4802259 10 3 12.480226 3 15.5 L 3 17.5 L 3 32.5 C 3 35.519774 5.4802259 38 8.5 38 L 39.5 38 C 42.519774 38 45 35.519774 45 32.5 L 45 17.5 L 45 15.5 C 45 12.480226 42.519774 10 39.5 10 L 8.5 10 z M 8.5 13 L 39.5 13 C 40.898226 13 42 14.101774 42 15.5 L 42 17.5 C 42 18.898226 40.898226 20 39.5 20 L 8.5 20 C 7.1017741 20 6 18.898226 6 17.5 L 6 15.5 C 6 14.101774 7.1017741 13 8.5 13 z M 27.5 15 A 1.50015 1.50015 0 1 0 27.5 18 L 38.5 18 A 1.50015 1.50015 0 1 0 38.5 15 L 27.5 15 z M 6 22.386719 C 6.7522792 22.775308 7.6008022 23 8.5 23 L 39.5 23 C 40.399198 23 41.247721 22.775308 42 22.386719 L 42 32.5 C 42 33.898226 40.898226 35 39.5 35 L 8.5 35 C 7.1017741 35 6 33.898226 6 32.5 L 6 22.386719 z M 12.625 25 C 11.247 25 10.125 26.122 10.125 27.5 C 10.125 28.878 11.247 30 12.625 30 L 13.5 30 C 13.776 30 14 30.224 14 30.5 C 14 30.776 13.776 31 13.5 31 L 12.408203 31 C 12.066203 31 11.785031 30.745969 11.707031 30.667969 C 11.316031 30.276969 10.683969 30.276969 10.292969 30.667969 C 9.9019688 31.058969 9.9019687 31.691031 10.292969 32.082031 C 10.568969 32.358031 11.327203 33 12.408203 33 L 13.5 33 C 14.878 33 16 31.878 16 30.5 C 16 29.122 14.878 28 13.5 28 L 12.625 28 C 12.349 28 12.125 27.776 12.125 27.5 C 12.125 27.224 12.349 27 12.625 27 L 13.5 27 C 13.804 27 14.041969 27.208031 14.042969 27.207031 C 14.433969 27.597031 15.066031 27.598031 15.457031 27.207031 C 15.848031 26.816031 15.848031 26.183969 15.457031 25.792969 C 15.376031 25.711969 14.631 25 13.5 25 L 12.625 25 z M 18 25 C 17.448 25 17 25.448 17 26 L 17 32 C 17 32.552 17.448 33 18 33 C 18.552 33 19 32.552 19 32 L 19 31 L 20 31 C 21.654 31 23 29.654 23 28 C 23 26.346 21.654 25 20 25 L 18 25 z M 26.5 25 C 26.096 25 25.731172 25.243234 25.576172 25.615234 L 23.076172 31.615234 C 22.864172 32.125234 23.105234 32.710828 23.615234 32.923828 C 24.125234 33.135828 24.711828 32.893766 24.923828 32.384766 L 25.082031 32 L 27.917969 32 L 28.076172 32.384766 C 28.236172 32.767766 28.609 33 29 33 C 29.128 33 29.258766 32.974875 29.384766 32.921875 C 29.895766 32.709875 30.135828 32.125234 29.923828 31.615234 L 27.423828 25.615234 C 27.268828 25.242234 26.904 25 26.5 25 z M 31.962891 25.001953 C 31.861547 25.005766 31.759156 25.024797 31.660156 25.060547 C 31.264156 25.203547 31 25.579 31 26 L 31 32 C 31 32.552 31.448 33 32 33 C 32.552 33 33 32.552 33 32 L 33 28.761719 L 33.732422 29.640625 C 34.112422 30.096625 34.887578 30.096625 35.267578 29.640625 L 36 28.761719 L 36 32 C 36 32.552 36.448 33 37 33 C 37.552 33 38 32.552 38 32 L 38 26 C 38 25.579 37.735844 25.203547 37.339844 25.060547 C 36.945844 24.917547 36.502422 25.035375 36.232422 25.359375 L 34.5 27.4375 L 32.767578 25.359375 C 32.565078 25.117125 32.266922 24.990516 31.962891 25.001953 z M 19 27 L 20 27 C 20.551 27 21 27.449 21 28 C 21 28.551 20.551 29 20 29 L 19 29 L 19 27 z M 26.5 28.599609 L 27.082031 30 L 25.917969 30 L 26.5 28.599609 z"/></svg>