<svg xmlns="http://www.w3.org/2000/svg"  viewBox="0 0 48 48" width="50px" height="50px"><path d="M 24 5 C 21.141981 5 18.536722 5.651436 16.53125 6.8125 C 14.525778 7.973564 13 9.7811026 13 12 C 13 12.079986 13.015615 12.155469 13.019531 12.234375 A 1.50015 1.50015 0 0 0 13 12.5 L 13 20.027344 C 10.536367 20.161277 8.299916 20.788535 6.53125 21.8125 C 4.5257776 22.973564 3 24.781103 3 27 C 3 27.0643 3.028714 27.119994 3.03125 27.183594 A 1.50015 1.50015 0 0 0 3 27.5 L 3 35.5 A 1.50015 1.50015 0 0 0 3.0976562 36.052734 C 3.3441099 38.088061 4.8240424 39.749541 6.7539062 40.921875 C 8.8614656 42.202153 11.594243 43 14.5 43 C 17.35811 43 20.064408 42.350573 22.179688 41.208984 C 23.07157 40.727647 23.810093 40.075665 24.458984 39.378906 C 25.048847 40.059334 25.705882 40.709671 26.53125 41.1875 C 28.536724 42.348525 31.14189 43 34 43 C 36.85811 43 39.463276 42.348525 41.46875 41.1875 C 43.474224 40.026475 45 38.218967 45 36 A 1.50015 1.50015 0 0 0 44.982422 35.755859 A 1.50015 1.50015 0 0 0 44.982422 35.753906 A 1.50015 1.50015 0 0 0 45 35.5 L 45 27.5 A 1.50015 1.50015 0 0 0 44.96875 27.179688 C 44.971183 27.117389 45 27.062967 45 27 C 45 24.781103 43.474222 22.973564 41.46875 21.8125 C 39.700084 20.788535 37.463633 20.161277 35 20.027344 L 35 12.5 A 1.50015 1.50015 0 0 0 34.978516 12.238281 C 34.982567 12.158032 35 12.081367 35 12 C 35 9.7811026 33.474222 7.973564 31.46875 6.8125 C 29.463278 5.651436 26.858019 5 24 5 z M 24 8 C 26.38869 8 28.533949 8.5786586 29.966797 9.4082031 C 31.399645 10.237748 32 11.181331 32 12 C 32 12.818669 31.399645 13.762252 29.966797 14.591797 C 28.533949 15.421341 26.38869 16 24 16 C 21.61131 16 19.466051 15.421341 18.033203 14.591797 C 16.600355 13.762252 16 12.818669 16 12 C 16 11.181331 16.600355 10.237748 18.033203 9.4082031 C 19.466051 8.5786586 21.61131 8 24 8 z M 24 11 A 3 1 0 0 0 24 13 A 3 1 0 0 0 24 11 z M 16 16.847656 C 16.174477 16.964392 16.347961 17.081385 16.53125 17.1875 C 18.536722 18.348564 21.141981 19 24 19 C 26.858019 19 29.463278 18.348564 31.46875 17.1875 C 31.652039 17.081385 31.825523 16.964392 32 16.847656 L 32 20.111328 C 29.932431 20.342199 28.057194 20.929058 26.53125 21.8125 C 25.519427 22.398293 24.63318 23.150505 24 24.035156 C 23.36682 23.150505 22.480573 22.398293 21.46875 21.8125 C 19.942806 20.929058 18.067569 20.342199 16 20.111328 L 16 16.847656 z M 14 23 C 14.112295 23 14.220861 23.007242 14.332031 23.009766 A 1.50015 1.50015 0 0 0 14.578125 23.017578 C 16.731808 23.102541 18.651237 23.646563 19.966797 24.408203 C 21.399645 25.237748 22 26.181331 22 27 C 22 27.818669 21.399645 28.762252 19.966797 29.591797 C 18.533949 30.421341 16.38869 31 14 31 C 11.61131 31 9.4660514 30.421341 8.0332031 29.591797 C 6.6003548 28.762252 6 27.818669 6 27 C 6 26.181331 6.6003548 25.237748 8.0332031 24.408203 C 9.4660514 23.578659 11.61131 23 14 23 z M 34 23 C 36.38869 23 38.533949 23.578659 39.966797 24.408203 C 41.399645 25.237748 42 26.181331 42 27 C 42 27.818669 41.399645 28.762252 39.966797 29.591797 C 38.533949 30.421341 36.38869 31 34 31 C 31.61131 31 29.466051 30.421341 28.033203 29.591797 C 26.600355 28.762252 26 27.818669 26 27 C 26 26.181331 26.600355 25.237748 28.033203 24.408203 C 29.34995 23.645876 31.271678 23.101777 33.427734 23.017578 A 1.50015 1.50015 0 0 0 33.683594 23.009766 C 33.789589 23.007472 33.892985 23 34 23 z M 14 26 A 3 1 0 0 0 14 28 A 3 1 0 0 0 14 26 z M 34 26 A 3 1 0 0 0 34 28 A 3 1 0 0 0 34 26 z M 23 30.851562 L 23 35.5 A 1.50015 1.50015 0 0 0 23.017578 35.744141 A 1.50015 1.50015 0 0 0 23.017578 35.746094 A 1.50015 1.50015 0 0 0 23 36 C 23 36.736742 22.32883 37.719448 20.755859 38.568359 C 19.182889 39.417271 16.88889 40 14.5 40 C 12.158757 40 9.8912377 39.317644 8.3105469 38.357422 C 6.729856 37.3972 6 36.236742 6 35.5 L 6 31.724609 C 6.1995451 31.861115 6.3198079 32.065086 6.53125 32.1875 C 8.5367224 33.348564 11.141981 34 14 34 C 16.858019 34 19.463278 33.348564 21.46875 32.1875 C 22.078541 31.834463 22.508358 31.317494 23 30.851562 z M 26 31.724609 C 26.199545 31.861115 26.319808 32.065086 26.53125 32.1875 C 28.536722 33.348564 31.141981 34 34 34 C 36.858019 34 39.463278 33.348564 41.46875 32.1875 C 41.680192 32.065086 41.800455 31.861115 42 31.724609 L 42 35.5 A 1.50015 1.50015 0 0 0 42.017578 35.744141 A 1.50015 1.50015 0 0 0 42.017578 35.746094 A 1.50015 1.50015 0 0 0 42 36 C 42 36.819033 41.399573 37.762322 39.966797 38.591797 C 38.534021 39.421271 36.38889 40 34 40 C 31.61111 40 29.465979 39.421271 28.033203 38.591797 C 26.600427 37.762322 26 36.819033 26 36 A 1.50015 1.50015 0 0 0 25.994141 35.849609 A 1.50015 1.50015 0 0 0 25.982422 35.755859 A 1.50015 1.50015 0 0 0 25.982422 35.753906 A 1.50015 1.50015 0 0 0 26 35.5 L 26 31.724609 z"/></svg>