<svg xmlns="http://www.w3.org/2000/svg"  viewBox="0 0 48 48" width="50px" height="50px"><path d="M 24 6 C 22.270892 6 20.80936 6.9492956 19.910156 8.2988281 C 18.96293 7.5278531 17.806143 7 16.5 7 C 14.41064 7 12.640926 8.2290833 11.710938 9.9609375 C 10.936466 9.4680101 10.1553 9.1159309 9.3476562 9.0117188 C 7.8957065 8.8243703 6.4745322 9.486812 5.5976562 10.539062 C 3.8577942 12.626897 3.4875427 15.904418 4.0058594 19.625 C 4.0099972 19.654702 4.0113738 19.683133 4.015625 19.712891 A 1.50015 1.50015 0 0 0 4.0195312 19.734375 C 4.1707396 21.401927 4.7673358 24.370405 4.9160156 25.119141 C 3.2836914 25.410789 2 26.791279 2 28.5 C 2 37.568182 9.4318182 45 18.5 45 L 29.5 45 C 38.594719 45 46 37.594719 46 28.5 C 46 27.138628 45.192216 25.955837 44.041016 25.378906 C 44.162257 24.771089 44.786064 21.603243 44.958984 19.841797 C 46.032427 16.02509 45.64262 12.548313 43.654297 10.464844 C 42.653946 9.4166241 41.161189 8.8368395 39.625 9.0097656 C 38.590457 9.1262223 37.558726 9.6358573 36.529297 10.316406 C 35.676771 8.3753032 33.74275 7 31.5 7 C 30.193857 7 29.03707 7.5278531 28.089844 8.2988281 C 27.19064 6.9492956 25.729108 6 24 6 z M 24 9 C 25.122343 9 26 9.877657 26 11 L 26 12.292969 A 1.50015 1.50015 0 0 0 26.007812 12.460938 C 26.007721 12.47473 26 12.486185 26 12.5 A 1.50015 1.50015 0 1 0 29 12.5 C 29 11.101774 30.101774 10 31.5 10 C 32.898226 10 34 11.101774 34 12.5 A 1.50015 1.50015 0 0 0 35.787109 13.992188 A 1.50015 1.50015 0 0 0 37.0625 13.605469 C 38.266382 12.501395 39.276252 12.067308 39.960938 11.990234 C 40.645623 11.913164 41.051273 12.083374 41.482422 12.535156 C 41.973315 13.04954 42.372206 14.091042 42.46875 15.464844 C 41.858123 15.175405 41.187555 15 40.490234 15 C 36.543314 15 33.09577 17.200457 31.302734 20.435547 C 29.749627 18.357664 27.279768 17 24.5 17 C 21.686297 17 19.189733 18.390594 17.640625 20.511719 C 15.881444 17.240944 12.467281 15 8.5 15 C 7.9646755 15 7.4460307 15.110172 6.9550781 15.285156 C 7.1382577 13.956428 7.5004481 12.943212 7.9023438 12.460938 C 8.2754678 12.013188 8.4792935 11.92563 8.9648438 11.988281 C 9.4391139 12.049481 10.298689 12.454918 11.371094 13.505859 A 1.50015 1.50015 0 0 0 13.099609 13.896484 A 1.50015 1.50015 0 0 0 13.105469 13.894531 A 1.50015 1.50015 0 0 0 13.128906 13.882812 A 1.50015 1.50015 0 0 0 14.013672 12.466797 C 14.034008 11.08729 15.114873 10 16.5 10 C 17.898226 10 19 11.101774 19 12.5 A 1.50015 1.50015 0 0 0 19.060547 12.943359 A 1.50015 1.50015 0 0 0 19.339844 13.470703 A 1.50015 1.50015 0 0 0 19.439453 13.582031 A 1.50015 1.50015 0 0 0 19.550781 13.683594 A 1.50015 1.50015 0 0 0 20.224609 13.996094 A 1.50015 1.50015 0 0 0 20.373047 14.015625 A 1.50015 1.50015 0 0 0 20.671875 14.011719 A 1.50015 1.50015 0 0 0 20.820312 13.986328 A 1.50015 1.50015 0 0 0 20.964844 13.947266 A 1.50015 1.50015 0 0 0 21.238281 13.826172 A 1.50015 1.50015 0 0 0 21.365234 13.746094 A 1.50015 1.50015 0 0 0 21.484375 13.654297 A 1.50015 1.50015 0 0 0 21.591797 13.550781 A 1.50015 1.50015 0 0 0 21.773438 13.3125 A 1.50015 1.50015 0 0 0 21.847656 13.181641 A 1.50015 1.50015 0 0 0 21.982422 12.753906 A 1.50015 1.50015 0 0 0 21.998047 12.605469 A 1.50015 1.50015 0 0 0 22 12.5 L 22 11 C 22 9.877657 22.877657 9 24 9 z M 8.5 18 C 12.482897 18 15.631844 21.088597 15.900391 25 L 13.617188 25 L 11.894531 21.552734 A 1.0001 1.0001 0 0 0 11.015625 20.988281 A 1.0001 1.0001 0 0 0 10.105469 22.447266 L 11.382812 25 L 7.9375 25 C 7.8784897 24.68717 7.1102547 20.631278 7.0019531 19.435547 C 7.0018734 19.434666 7.0020322 19.432518 7.0019531 19.431641 A 1.50015 1.50015 0 0 0 6.9941406 19.375 C 6.9939781 19.373041 6.9942909 19.371099 6.9941406 19.369141 C 6.9408564 18.674608 7.6594919 18 8.5 18 z M 40.490234 18 C 41.333112 18 42.053901 18.678354 41.996094 19.375 A 1.50015 1.50015 0 0 0 41.992188 19.400391 C 41.892834 20.557818 41.127762 24.632824 41.058594 25 L 37.609375 25 L 38.884766 22.447266 A 1.0001 1.0001 0 0 0 37.945312 20.988281 A 1.0001 1.0001 0 0 0 37.095703 21.552734 L 35.371094 25 L 33.015625 25 C 33.271855 21.076413 36.49869 18 40.490234 18 z M 24.5 20 C 27.386202 20 29.726188 22.182978 29.976562 25 L 19.023438 25 C 19.273812 22.182978 21.613798 20 24.5 20 z M 5.5 28 L 42.5 28 C 42.795045 28 43 28.204955 43 28.5 C 43 35.973281 36.973281 42 29.5 42 L 18.5 42 C 11.068182 42 5 35.931818 5 28.5 C 5 28.204955 5.2049548 28 5.5 28 z"/></svg>