<svg xmlns="http://www.w3.org/2000/svg"  viewBox="0 0 48 48" width="50px" height="50px"><path d="M 21.5 3 C 18.551429 3 16.154167 5.3761551 16.041016 8.2988281 C 13.900598 8.9086882 12.320346 10.727508 12.101562 13 L 11 13 C 8.256343 13 6 15.256343 6 18 C 6 19.359249 6.5586971 20.595061 7.4511719 21.5 C 6.5586971 22.404939 6 23.640751 6 25 C 6 26.359249 6.5586971 27.595061 7.4511719 28.5 C 6.5586971 29.404939 6 30.640751 6 32 C 6 33.359249 6.5586971 34.595061 7.4511719 35.5 C 6.5586971 36.404939 6 37.640751 6 39 C 6 41.743657 8.256343 44 11 44 L 37 44 C 39.743657 44 42 41.743657 42 39 C 42 37.640751 41.441303 36.404939 40.548828 35.5 C 41.441303 34.595061 42 33.359249 42 32 C 42 30.640751 41.441303 29.404939 40.548828 28.5 C 41.441303 27.595061 42 26.359249 42 25 C 42 23.640751 41.441303 22.404939 40.548828 21.5 C 41.441303 20.595061 42 19.359249 42 18 C 42 15.256343 39.743657 13 37 13 L 30.898438 13 C 30.679655 10.727508 29.099402 8.9086882 26.958984 8.2988281 C 26.845833 5.3761551 24.448571 3 21.5 3 z M 21.5 6 C 22.827577 6 23.823973 7.0231312 23.927734 8.3203125 C 22.989532 8.60916 22.153471 9.086496 21.5 9.7910156 C 20.846529 9.086496 20.010468 8.60916 19.072266 8.3203125 C 19.176027 7.0231312 20.172423 6 21.5 6 z M 17.5 11 C 18.701087 11 19.541794 11.884473 19.794922 13 L 17.746094 13 A 1.50015 1.50015 0 0 0 17.476562 12.978516 A 1.50015 1.50015 0 0 0 17.257812 13 L 15.205078 13 C 15.458206 11.884473 16.298913 11 17.5 11 z M 25.5 11 C 26.701087 11 27.541794 11.884473 27.794922 13 L 23.205078 13 C 23.458206 11.884473 24.298913 11 25.5 11 z M 11 16 L 16 16 L 16 20 L 11 20 C 9.877657 20 9 19.122343 9 18 C 9 16.877657 9.877657 16 11 16 z M 19 16 L 33 16 L 33 26.5 C 33 27.346499 32.346499 28 31.5 28 C 30.653501 28 30 27.346499 30 26.5 L 30 22 C 30 19.808718 28.191282 18 26 18 C 23.808718 18 22 19.808718 22 22 L 22 28.253906 A 1.50015 1.50015 0 0 0 21.980469 28.548828 C 21.951557 29.367168 21.327182 30 20.5 30 C 19.672153 30 19.047477 29.366186 19.019531 28.546875 A 1.50015 1.50015 0 0 0 19 28.259766 L 19 16 z M 36 16 L 37 16 C 38.122343 16 39 16.877657 39 18 C 39 19.122343 38.122343 20 37 20 L 36 20 L 36 16 z M 26 21 C 26.570718 21 27 21.429282 27 22 L 27 26.5 C 27 26.676819 27.08128 26.828237 27.101562 27 L 25 27 L 25 22 C 25 21.429282 25.429282 21 26 21 z M 11 23 L 16 23 L 16 27 L 11 27 C 9.877657 27 9 26.122343 9 25 C 9 23.877657 9.877657 23 11 23 z M 36 23 L 37 23 C 38.122343 23 39 23.877657 39 25 C 39 26.122343 38.122343 27 37 27 L 35.898438 27 C 35.918723 26.828237 36 26.676819 36 26.5 L 36 23 z M 28.771484 29.978516 C 29.537685 30.582084 30.458987 31 31.5 31 C 32.541013 31 33.462315 30.582088 34.228516 29.978516 A 1.50015 1.50015 0 0 0 34.5 30 L 37 30 C 38.122343 30 39 30.877657 39 32 C 39 33.122343 38.122343 34 37 34 L 11 34 C 9.877657 34 9 33.122343 9 32 C 9 30.877657 9.877657 30 11 30 L 16.306641 30 C 16.934802 31.732077 18.56309 33 20.5 33 C 22.43691 33 24.065198 31.732077 24.693359 30 L 28.5 30 A 1.50015 1.50015 0 0 0 28.771484 29.978516 z M 11 37 L 37 37 C 38.122343 37 39 37.877657 39 39 C 39 40.122343 38.122343 41 37 41 L 11 41 C 9.877657 41 9 40.122343 9 39 C 9 37.877657 9.877657 37 11 37 z"/></svg>