<svg xmlns="http://www.w3.org/2000/svg"  viewBox="0 0 48 48" width="50px" height="50px"><path d="M 24 6 C 21.95188 6 20.177322 7.2582963 19.408203 9.0371094 C 19.271714 9.0254082 19.139861 9 19 9 C 16.59618 9 14.661254 10.764789 14.195312 13.039062 C 14.12693 13.036235 14.069029 13 14 13 C 11.256343 13 9 15.256343 9 18 L 6.375 18 A 1.50015 1.50015 0 1 0 6.375 21 L 8 21 L 8 39 L 6.375 39 A 1.50015 1.50015 0 1 0 6.375 42 L 41.625 42 A 1.50015 1.50015 0 1 0 41.625 39 L 40 39 L 40 21 L 41.625 21 A 1.50015 1.50015 0 1 0 41.625 18 L 39 18 C 39 15.256343 36.743657 13 34 13 C 33.93097 13 33.873071 13.036233 33.804688 13.039062 C 33.338746 10.764792 31.40382 9 29 9 C 28.860139 9 28.728286 9.0254082 28.591797 9.0371094 C 27.822678 7.2582963 26.04812 6 24 6 z M 24 9 C 24.835427 9 25.534666 9.4877041 25.837891 10.199219 C 25.014039 10.922349 24.425005 11.917927 24.195312 13.039062 C 24.126929 13.036235 24.069029 13 24 13 C 23.93097 13 23.87307 13.036233 23.804688 13.039062 C 23.574995 11.917928 22.985961 10.922349 22.162109 10.199219 C 22.465334 9.4877041 23.164573 9 24 9 z M 19 12 C 20.122343 12 21 12.877657 21 14 L 21.166016 14 C 19.890712 14.909711 19 16.328181 19 18 C 19 16.328181 18.109288 14.909711 16.833984 14 L 17 14 C 17 12.877657 17.877657 12 19 12 z M 29 12 C 30.122343 12 31 12.877657 31 14 L 31.166016 14 C 29.890712 14.909711 29 16.328181 29 18 C 29 16.328181 28.109288 14.909711 26.833984 14 L 27 14 C 27 12.877657 27.877657 12 29 12 z M 14 16 C 15.122343 16 16 16.877657 16 18 L 12 18 C 12 16.877657 12.877657 16 14 16 z M 24 16 C 25.122343 16 26 16.877657 26 18 L 22 18 C 22 16.877657 22.877657 16 24 16 z M 34 16 C 35.122343 16 36 16.877657 36 18 L 32 18 C 32 16.877657 32.877657 16 34 16 z M 11 21 L 37 21 L 37 39 L 11 39 L 11 21 z M 25.328125 25.939453 C 25.032594 25.931213 24.74419 25.939668 24.462891 25.964844 C 23.677277 26.035154 22.950837 26.222219 22.304688 26.488281 C 19.720084 27.55253 18.279297 29.628906 18.279297 29.628906 A 1.50015 1.50015 0 0 0 18.058594 30.095703 L 16.037109 28.160156 C 15.632109 27.772156 14.954563 28.147734 15.101562 28.677734 C 15.477562 30.029734 15.497109 31.4505 15.162109 32.8125 L 15.015625 33.410156 C 14.885625 33.936156 15.557078 34.294109 15.955078 33.912109 L 18.419922 31.552734 C 18.746962 31.98343 20.062976 33.588661 22.304688 34.511719 C 24.801958 35.540007 28.498413 35.302027 32.175781 31.859375 A 1.50015 1.50015 0 0 0 33.013672 30.539062 A 1.50015 1.50015 0 0 0 32.175781 29.138672 C 29.790915 26.906394 27.396845 25.997137 25.328125 25.939453 z M 25.242188 28.849609 C 26.32322 28.840395 27.613982 29.308147 29.142578 30.5 C 26.671441 32.426757 24.866049 32.323291 23.445312 31.738281 C 22.659981 31.41491 22.040717 30.924986 21.572266 30.5 C 22.040717 30.075014 22.659982 29.58509 23.445312 29.261719 C 23.861663 29.090281 24.307098 28.949222 24.791016 28.882812 C 24.936939 28.862787 25.087754 28.850926 25.242188 28.849609 z"/></svg>