<svg xmlns="http://www.w3.org/2000/svg"  viewBox="0 0 48 48" width="50px" height="50px"><path d="M 25.070312 5.0234375 C 18.678368 4.8320019 13.118098 8.8250589 11.03125 14.533203 A 1.50015 1.50015 0 0 0 11.03125 14.535156 C 10.660083 15.551523 9.9959498 16.458992 9.1289062 17.175781 A 1.50015 1.50015 0 0 0 9.1269531 17.175781 C 5.4510808 20.216538 3.2850919 25.072242 4.0058594 30.378906 C 4.8080852 36.285798 9.2933687 41.136479 15.095703 42.460938 C 17.395079 42.98559 19.646137 42.933539 21.720703 42.433594 C 22.862606 42.158918 24.046422 42.194678 25.169922 42.537109 C 27.206251 43.158608 29.446691 43.34759 31.767578 42.964844 C 37.837794 41.964517 42.688136 37.115613 43.669922 31.039062 C 44.405058 26.489646 42.972717 22.184157 40.228516 19.080078 C 39.506309 18.262823 39.003562 17.280773 38.753906 16.210938 A 1.50015 1.50015 0 0 0 38.753906 16.208984 C 37.29388 9.9570008 31.770034 5.2248743 25.070312 5.0234375 z M 24.980469 8.0214844 C 30.320748 8.1820476 34.676054 11.942557 35.832031 16.892578 C 36.192376 18.436743 36.924675 19.871661 37.980469 21.066406 A 1.50015 1.50015 0 0 0 37.980469 21.068359 C 40.162267 23.536281 41.299848 26.903964 40.708984 30.560547 C 39.93677 35.339997 36.059081 39.216233 31.279297 40.003906 C 29.416184 40.31116 27.658593 40.16047 26.044922 39.667969 C 24.412422 39.1704 22.679629 39.118254 21.019531 39.517578 C 19.376683 39.913488 17.60958 39.957976 15.763672 39.537109 L 15.761719 39.537109 C 11.190956 38.492915 7.6082073 34.613063 6.9785156 29.976562 C 6.3973562 25.697765 8.1176037 21.903614 11.039062 19.486328 C 11.039062 19.486328 11.041016 19.486328 11.041016 19.486328 C 12.28546 18.45724 13.280945 17.121629 13.849609 15.564453 C 15.502761 11.042597 19.886414 7.86892 24.980469 8.0214844 z M 25.908203 17.058594 C 20.40312 17.058594 15.908203 21.553515 15.908203 27.058594 C 15.908203 32.563673 20.40312 37.058594 25.908203 37.058594 C 31.413286 37.058594 35.908203 32.563673 35.908203 27.058594 C 35.908203 21.553515 31.413286 17.058594 25.908203 17.058594 z M 25.908203 20.058594 C 29.791967 20.058594 32.908203 23.174832 32.908203 27.058594 C 32.908203 30.942355 29.791967 34.058594 25.908203 34.058594 C 22.024439 34.058594 18.908203 30.942355 18.908203 27.058594 C 18.908203 23.174832 22.024439 20.058594 25.908203 20.058594 z"/></svg>