<svg xmlns="http://www.w3.org/2000/svg"  viewBox="0 0 48 48" width="50px" height="50px"><path d="M 29.439453 4.5117188 C 28.364971 4.4216637 27.537709 4.7980355 26.892578 5.0742188 C 26.249368 5.3495793 25.750836 5.5393623 25.525391 5.5605469 C 25.298502 5.5777656 24.77771 5.4745194 24.095703 5.3125 C 23.409921 5.1495838 22.521438 4.9215077 21.472656 5.203125 C 20.434299 5.4819238 19.787853 6.1135264 19.277344 6.5898438 C 18.766305 7.0666554 18.361047 7.4168545 18.152344 7.5136719 A 1.50015 1.50015 0 0 0 18.146484 7.5175781 C 17.952626 7.6086601 17.426628 7.6920931 16.728516 7.7753906 C 16.030403 7.8586886 15.11896 7.9520997 14.230469 8.5742188 A 1.50015 1.50015 0 0 0 14.224609 8.5761719 C 13.345022 9.1967945 12.961284 10.013556 12.646484 10.636719 C 12.331685 11.259882 12.072217 11.726612 11.900391 11.898438 C 11.728565 12.070263 11.261835 12.329732 10.638672 12.644531 C 10.015509 12.95933 9.1987477 13.345022 8.578125 14.224609 A 1.50015 1.50015 0 0 0 8.5742188 14.228516 C 7.9519668 15.117196 7.8598586 16.03194 7.7773438 16.730469 C 7.6948288 17.428997 7.6109687 17.953132 7.5234375 18.140625 C 7.421602 18.358342 7.0695787 18.7652 6.5917969 19.277344 C 6.1143186 19.789163 5.4810102 20.433005 5.203125 21.472656 C 4.9215351 22.521336 5.150883 23.410046 5.3125 24.09375 C 5.4741172 24.777454 5.5761591 25.298953 5.5566406 25.515625 A 1.50015 1.50015 0 0 0 5.5546875 25.525391 C 5.5359385 25.75131 5.3467029 26.250406 5.0722656 26.894531 C 4.7978284 27.538656 4.4225726 28.365287 4.5117188 29.439453 A 1.50015 1.50015 0 0 0 4.5136719 29.457031 C 4.6157395 30.527861 5.1287052 31.276216 5.5117188 31.861328 C 5.8935872 32.444691 6.1660541 32.897713 6.2285156 33.126953 C 6.2865116 33.350274 6.2755241 33.883254 6.2363281 34.583984 C 6.1970301 35.286593 6.1307034 36.198957 6.5898438 37.179688 A 1.50015 1.50015 0 0 0 6.5898438 37.181641 C 7.0478563 38.156477 7.7852402 38.680099 8.3457031 39.101562 C 8.8829848 39.505595 9.26237 39.821478 9.4179688 40.023438 C 9.6940144 40.527611 9.9137998 41.063129 10.044922 41.626953 A 1.50015 1.50015 0 0 0 10.078125 41.748047 C 10.120235 41.878586 10.173905 42.582488 11.082031 43.039062 C 11.082031 43.039062 11.083984 43.039062 11.083984 43.039062 C 12.395512 43.698762 13.704443 43.35208 15.0625 42.820312 C 16.42121 42.288289 17.914387 41.430852 19.541016 40.333984 C 22.794273 38.140248 26.549344 34.977691 30.125 31.542969 C 33.700656 28.108246 37.084044 24.411557 39.552734 21.126953 C 40.78708 19.484651 41.795011 17.948464 42.490234 16.550781 C 43.185118 15.153782 43.656118 13.911023 43.431641 12.550781 C 43.394101 12.322698 43.377521 11.968768 43.191406 11.474609 C 43.005295 10.980451 42.454128 10.303005 41.746094 10.076172 A 1.50015 1.50015 0 0 0 41.623047 10.042969 C 41.063003 9.9141686 40.529807 9.6981267 40.025391 9.421875 C 39.823275 9.2671256 39.510002 8.8858969 39.105469 8.3476562 C 38.684696 7.7878087 38.157649 7.0518018 37.185547 6.5917969 A 1.50015 1.50015 0 0 0 37.179688 6.5898438 C 36.199039 6.1311309 35.286486 6.1970283 34.583984 6.2363281 C 33.88524 6.2754178 33.35534 6.2860103 33.130859 6.2285156 C 32.897838 6.1618669 32.444343 5.8879371 31.861328 5.5078125 C 31.273766 5.1247233 30.524754 4.6154433 29.457031 4.5136719 A 1.50015 1.50015 0 0 0 29.439453 4.5117188 z M 29.181641 7.5039062 C 29.333566 7.5206612 29.701418 7.6816383 30.222656 8.0214844 C 30.748595 8.3643952 31.392094 8.8628466 32.341797 9.125 A 1.50015 1.50015 0 0 0 32.359375 9.1308594 C 33.318028 9.3833072 34.125251 9.267372 34.75 9.2324219 C 35.37265 9.1975889 35.767684 9.2436806 35.904297 9.3066406 C 36.033677 9.3685306 36.328452 9.6466822 36.707031 10.150391 C 37.086508 10.655293 37.527495 11.351703 38.341797 11.921875 A 1.50015 1.50015 0 0 0 38.462891 11.998047 C 39.07669 12.345835 39.748585 12.562142 40.423828 12.761719 C 40.440238 12.849429 40.442876 12.856169 40.472656 13.037109 A 1.50015 1.50015 0 0 0 40.472656 13.039062 C 40.498886 13.197541 40.370101 14.074206 39.802734 15.214844 C 39.585438 15.651698 39.300581 16.139854 38.986328 16.650391 C 35.995439 13.987945 32.238621 12.638672 28.470703 12.638672 C 24.421749 12.638672 20.372057 14.175525 17.287109 17.25 C 11.393858 23.125391 11.115084 32.526934 16.4375 38.75 C 15.50161 39.313399 14.654035 39.757057 13.96875 40.025391 C 13.136708 40.351189 12.847557 40.29241 12.714844 40.298828 C 12.518426 39.669943 12.323585 39.038096 11.998047 38.462891 A 1.50015 1.50015 0 0 0 11.921875 38.341797 C 11.351305 37.526926 10.654474 37.085614 10.148438 36.705078 C 9.6435984 36.325401 9.3635613 36.027933 9.3066406 35.908203 C 9.243781 35.773934 9.1974703 35.376844 9.2324219 34.751953 C 9.2673734 34.127062 9.3833343 33.31813 9.1308594 32.359375 A 1.50015 1.50015 0 0 0 9.1289062 32.351562 C 8.8712782 31.392119 8.3662209 30.743435 8.0214844 30.216797 C 7.6798422 29.694886 7.5203769 29.330508 7.5039062 29.181641 C 7.4939656 29.035733 7.5870656 28.645266 7.8320312 28.070312 C 8.0786514 27.491477 8.4597915 26.765698 8.5429688 25.777344 C 8.6298581 24.788753 8.376324 24.011106 8.2324219 23.402344 C 8.0880391 22.791548 8.0641524 22.391273 8.1015625 22.251953 A 1.50015 1.50015 0 0 0 8.1015625 22.248047 C 8.1349525 22.122861 8.3556881 21.784575 8.7851562 21.324219 C 9.2146245 20.863863 9.8220225 20.310392 10.242188 19.412109 A 1.50015 1.50015 0 0 0 10.242188 19.410156 C 10.661656 18.511649 10.682624 17.702003 10.755859 17.082031 C 10.828829 16.464324 10.941677 16.079889 11.029297 15.953125 C 11.029297 15.953125 11.03125 15.953125 11.03125 15.953125 C 11.10623 15.847477 11.427947 15.606312 11.990234 15.322266 C 12.553321 15.037815 13.31731 14.725658 14.021484 14.021484 C 14.725658 13.31731 15.039768 12.553321 15.324219 11.990234 C 15.607598 11.429269 15.84709 11.107224 15.953125 11.03125 C 16.079279 10.94343 16.463108 10.827988 17.083984 10.753906 C 17.705377 10.679766 18.520632 10.654366 19.419922 10.232422 L 19.421875 10.232422 C 20.316407 9.8154034 20.866104 9.2106354 21.324219 8.7832031 C 21.78368 8.3545147 22.124254 8.1332567 22.25 8.0996094 A 1.50015 1.50015 0 0 0 22.251953 8.0996094 C 22.391172 8.0622264 22.791626 8.0873384 23.402344 8.2324219 C 24.013062 8.3775057 24.790078 8.6350604 25.78125 8.5527344 A 1.50015 1.50015 0 0 0 25.791016 8.5507812 C 26.776543 8.4620022 27.4971 8.079098 28.074219 7.8320312 C 28.647345 7.5866736 29.036625 7.4935149 29.181641 7.5039062 z M 40.806641 12.910156 C 40.857121 12.922656 40.900451 12.955137 40.951172 12.966797 L 40.830078 12.931641 C 40.821178 12.928741 40.816081 12.914416 40.806641 12.910156 z M 28.470703 15.619141 C 31.640146 15.619141 34.801841 16.802204 37.279297 19.144531 C 37.232889 19.206936 37.201519 19.261389 37.154297 19.324219 C 34.828519 22.418677 31.527594 26.035379 28.046875 29.378906 C 24.96345 32.340799 21.753461 35.051951 18.949219 37.0625 C 14.376419 32.005339 14.521198 24.243296 19.404297 19.375 C 21.916349 16.871475 25.194015 15.619141 28.470703 15.619141 z M 12.914062 40.810547 C 12.912062 40.805447 12.933721 40.834575 12.931641 40.828125 L 12.966797 40.947266 C 12.955687 40.899486 12.925923 40.858126 12.914062 40.810547 z"/></svg>