<svg xmlns="http://www.w3.org/2000/svg"  viewBox="0 0 48 48" width="50px" height="50px"><path d="M 37.486328 2.9804688 A 1.50015 1.50015 0 0 0 36.183594 3.78125 L 30.478516 14.240234 C 29.607173 12.344107 27.71002 11 25.5 11 C 23.381313 11 21.58627 12.242828 20.671875 14.013672 C 20.612691 14.012376 20.559809 14 20.5 14 C 17.88982 14 15.592334 15.18011 14.228516 17.052734 C 11.062853 17.127745 8.782184 18.28021 7.5371094 19.992188 C 6.3694039 21.597781 6.1007037 23.424465 6.0527344 25 L 5.5 25 C 3.5850452 25 2 26.585045 2 28.5 C 2 37.568182 9.4318182 45 18.5 45 L 29.5 45 C 38.594719 45 46 37.594719 46 28.5 C 46 26.585045 44.414955 25 42.5 25 L 41.845703 25 C 41.477676 21.443486 39.927216 18.819143 37.740234 17.275391 C 37.305203 16.96831 36.793833 16.883544 36.330078 16.648438 L 45.652344 5.4609375 A 1.5004325 1.5004325 0 1 0 43.347656 3.5390625 L 33.425781 15.445312 C 33.365951 15.431752 33.307935 15.438611 33.248047 15.425781 L 38.816406 5.21875 A 1.50015 1.50015 0 0 0 37.486328 2.9804688 z M 25.5 14 C 26.898226 14 28 15.101774 28 16.5 A 1.50015 1.50015 0 0 0 29.5 18 C 31.8 18 34.254571 18.485648 36.009766 19.724609 C 37.492316 20.771115 38.553807 22.366724 38.863281 25 L 25.912109 25 A 1.5 1.5 0 0 0 24.5 23 A 1.5 1.5 0 0 0 23.085938 25 L 16.912109 25 A 1.5 1.5 0 0 0 15.5 23 A 1.5 1.5 0 0 0 14.085938 25 L 9.0527344 25 C 9.1100946 23.819722 9.3380799 22.616927 9.9628906 21.757812 C 10.676753 20.776252 11.833333 20 14.5 20 C 14.59227 20 14.712834 20.007101 14.867188 20.019531 A 1.50015 1.50015 0 0 0 16.320312 19.214844 C 16.939484 18.017556 18.533249 17 20.5 17 C 20.794386 17 21.087799 17.026326 21.384766 17.072266 A 1.50015 1.50015 0 0 0 23.074219 15.929688 C 23.332345 14.824679 24.302098 14 25.5 14 z M 19.5 19 A 1.5 1.5 0 0 0 19.5 22 A 1.5 1.5 0 0 0 19.5 19 z M 31.5 20 A 1.5 1.5 0 0 0 31.5 23 A 1.5 1.5 0 0 0 31.5 20 z M 5.5 28 L 40.253906 28 A 1.50015 1.50015 0 0 0 40.740234 28 L 42.5 28 C 42.795045 28 43 28.204955 43 28.5 C 43 35.973281 36.973281 42 29.5 42 L 18.5 42 C 11.068182 42 5 35.931818 5 28.5 C 5 28.204955 5.2049548 28 5.5 28 z"/></svg>