<svg xmlns="http://www.w3.org/2000/svg"  viewBox="0 0 48 48" width="50px" height="50px"><path d="M 16.5 5 A 1.50015 1.50015 0 0 0 15 6.5 L 15 11 L 11.5 11 C 7.3754991 11 4 14.375499 4 18.5 L 4 35.5 C 4 39.624501 7.3754991 43 11.5 43 L 36.5 43 C 40.624501 43 44 39.624501 44 35.5 L 44 18.5 C 44 14.375499 40.624501 11 36.5 11 L 33 11 L 33 6.5 A 1.50015 1.50015 0 0 0 31.5 5 L 16.5 5 z M 18 8 L 30 8 L 30 11 L 18 11 L 18 8 z M 11.5 14 L 36.5 14 C 39.003499 14 41 15.996501 41 18.5 L 41 35.5 C 41 38.003499 39.003499 40 36.5 40 L 11.5 40 C 8.9965009 40 7 38.003499 7 35.5 L 7 18.5 C 7 15.996501 8.9965009 14 11.5 14 z M 17.5 18 C 14.644543 18 12.275186 20.219171 12.025391 23.013672 C 10.805892 23.92892 10 25.371824 10 27 C 10 28.628176 10.805892 30.07108 12.025391 30.986328 C 12.275186 33.780829 14.644543 36 17.5 36 L 30.5 36 C 33.355457 36 35.724814 33.780829 35.974609 30.986328 C 37.194108 30.07108 38 28.628176 38 27 C 38 25.371824 37.194108 23.92892 35.974609 23.013672 C 35.724814 20.219171 33.355457 18 30.5 18 L 17.5 18 z M 17.5 21 L 30.5 21 C 31.329189 21 32.047283 21.393005 32.5 22 L 15.5 22 C 15.952717 21.393005 16.670811 21 17.5 21 z M 15 25 L 33 25 C 34.122343 25 35 25.877657 35 27 C 35 28.122343 34.122343 29 33 29 L 15 29 C 13.877657 29 13 28.122343 13 27 C 13 25.877657 13.877657 25 15 25 z M 15.5 32 L 32.5 32 C 32.047283 32.606995 31.329189 33 30.5 33 L 17.5 33 C 16.670811 33 15.952717 32.606995 15.5 32 z"/></svg>