<svg xmlns="http://www.w3.org/2000/svg"  viewBox="0 0 48 48" width="50px" height="50px"><path d="M 13.210938 4.0273438 C 12.825544 4.0215037 12.434385 4.1071518 12.068359 4.296875 L 3.8320312 8.5507812 C 2.3690344 9.3065889 2.0469665 11.367795 3.2070312 12.535156 L 9.1347656 18.492188 C 8.4941058 18.91966 7.9526565 19.42081 7.5371094 19.992188 C 6.3694039 21.597781 6.1007037 23.424465 6.0527344 25 L 5.5 25 C 3.5850452 25 2 26.585045 2 28.5 C 2 37.568182 9.4318182 45 18.5 45 L 29.5 45 C 38.594719 45 46 37.594719 46 28.5 C 46 26.585045 44.414955 25 42.5 25 L 41.845703 25 C 41.540087 22.046609 40.410904 19.746824 38.787109 18.164062 L 43.642578 14.011719 C 44.82961 13.042491 44.728723 11.094608 43.447266 10.253906 L 36.998047 6.0253906 L 36.996094 6.0234375 C 36.675804 5.8133636 36.322238 5.6974451 35.964844 5.6660156 C 34.89022 5.5715125 33.784109 6.2332704 33.472656 7.3417969 L 31.041016 15.169922 C 30.935422 15.162254 30.827773 15.144913 30.722656 15.138672 C 30.098997 12.786942 28.037956 11 25.5 11 C 23.381313 11 21.58627 12.242828 20.671875 14.013672 C 20.612691 14.012376 20.559809 14 20.5 14 C 19.301443 14 18.174539 14.258538 17.167969 14.708984 L 16.148438 8.8007812 L 15.681641 6.0917969 L 15.681641 6.0898438 C 15.47141 4.8723307 14.367118 4.0448559 13.210938 4.0273438 z M 12.839844 7.2753906 L 13.191406 9.3105469 L 14.476562 16.753906 C 14.39458 16.854193 14.304769 16.948033 14.228516 17.052734 C 13.488072 17.070279 12.801839 17.152441 12.160156 17.28125 L 5.8144531 10.904297 L 12.839844 7.2753906 z M 36.09375 9.0175781 L 41.056641 12.275391 L 36.228516 16.402344 C 35.518893 16.066662 34.78599 15.81524 34.041016 15.626953 L 36.09375 9.0175781 z M 25.5 14 C 26.898226 14 28 15.101774 28 16.5 A 1.50015 1.50015 0 0 0 29.5 18 C 31.8 18 34.254571 18.485648 36.009766 19.724609 C 37.492316 20.771115 38.553807 22.366724 38.863281 25 L 25.912109 25 A 1.5 1.5 0 0 0 24.5 23 A 1.5 1.5 0 0 0 23.085938 25 L 16.912109 25 A 1.5 1.5 0 0 0 15.5 23 A 1.5 1.5 0 0 0 14.085938 25 L 9.0527344 25 C 9.1100946 23.819722 9.3380799 22.616927 9.9628906 21.757812 C 10.277176 21.32567 10.688631 20.938597 11.265625 20.634766 L 11.285156 20.654297 L 11.347656 20.591797 C 12.074652 20.230354 13.063092 20 14.5 20 C 14.59227 20 14.712834 20.007101 14.867188 20.019531 A 1.50015 1.50015 0 0 0 16.320312 19.214844 C 16.939484 18.017556 18.533249 17 20.5 17 C 20.794386 17 21.087799 17.026326 21.384766 17.072266 A 1.50015 1.50015 0 0 0 23.074219 15.929688 C 23.332345 14.824679 24.302098 14 25.5 14 z M 19.5 19 A 1.5 1.5 0 0 0 19.5 22 A 1.5 1.5 0 0 0 19.5 19 z M 31.5 20 A 1.5 1.5 0 0 0 31.5 23 A 1.5 1.5 0 0 0 31.5 20 z M 5.5 28 L 40.253906 28 A 1.50015 1.50015 0 0 0 40.740234 28 L 42.5 28 C 42.795045 28 43 28.204955 43 28.5 C 43 35.973281 36.973281 42 29.5 42 L 18.5 42 C 11.068182 42 5 35.931818 5 28.5 C 5 28.204955 5.2049548 28 5.5 28 z"/></svg>