<svg xmlns="http://www.w3.org/2000/svg"  viewBox="0 0 48 48" width="50px" height="50px"><path d="M 10.519531 10 C 7.1853092 10 4.8104424 11.14516 3.3320312 12.328125 C 1.8536202 13.51109 1.1777344 14.830078 1.1777344 14.830078 A 1.50015 1.50015 0 0 0 2.1054688 16.941406 C 2.1054688 16.941406 3.8013083 17.428405 5.7324219 18.154297 C 7.6635354 18.880188 9.8797156 20.000809 10.439453 20.560547 C 11.107997 21.229091 11.635854 22.473784 12.066406 24.076172 C 12.496959 25.67856 12.844324 27.581055 13.449219 29.458984 C 14.054113 31.336914 14.936719 33.236148 16.556641 34.681641 C 17.138011 35.20041 17.812855 35.642618 18.574219 36 L 15.519531 36 A 1.50015 1.50015 0 1 0 15.519531 39 L 31.519531 39 A 1.50015 1.50015 0 1 0 31.519531 36 L 28.746094 36 C 29.582635 35.576229 30.341968 35.036525 31.003906 34.398438 C 32.012605 33.426084 32.803802 32.245547 33.464844 30.962891 C 41.41556 30.594291 45.883153 25.744007 46.849609 20.787109 C 47.352262 18.209035 46.987138 15.605243 45.748047 13.541016 C 44.508956 11.476788 42.265839 10 39.519531 10 C 35.41366 10 33.242188 13.714844 33.242188 13.714844 A 1.50015 1.50015 0 0 0 33.183594 13.814453 C 32.943907 13.908454 32.649713 14.007126 32.283203 14.099609 C 30.775928 14.479949 28.110509 14.744404 23.765625 14.019531 C 21.014875 13.560453 19.067788 12.645881 17.103516 11.761719 C 15.13925 10.877552 13.105049 10 10.519531 10 z M 10.519531 13 C 12.436013 13 13.940867 13.629209 15.871094 14.498047 C 17.801321 15.366885 20.102234 16.451547 23.271484 16.980469 C 27.929601 17.757598 31.019604 17.511977 33.017578 17.007812 C 33.187329 16.964983 33.240442 16.909412 33.394531 16.863281 C 33.258685 20.310979 32.878605 24.193197 31.738281 27.4375 C 31.594058 27.847826 31.43255 28.235289 31.267578 28.617188 A 1.50015 1.50015 0 0 0 31.019531 29.158203 C 30.43045 30.393027 29.733732 31.455677 28.921875 32.238281 C 27.752181 33.365829 26.409043 33.996094 24.523438 33.996094 A 1.50015 1.50015 0 0 0 24.517578 33.996094 L 23.519531 34 C 21.037038 34 19.594406 33.372867 18.552734 32.443359 C 17.511063 31.513852 16.827168 30.163086 16.304688 28.541016 C 15.782207 26.918945 15.441135 25.07144 14.964844 23.298828 C 14.488553 21.526216 13.892003 19.770909 12.560547 18.439453 C 11.120285 16.999191 8.8464958 16.119812 6.7871094 15.345703 C 5.8886897 15.007994 5.7763363 15.000782 5.1054688 14.783203 C 5.1737297 14.724263 5.1292811 14.732523 5.2050781 14.671875 C 6.2261674 13.85484 7.8517537 13 10.519531 13 z M 39.519531 13 C 41.263723 13 42.388966 13.773212 43.175781 15.083984 C 43.962597 16.394757 44.279019 18.290965 43.904297 20.212891 C 43.235558 23.642812 40.591737 27.143393 34.748047 27.859375 C 36.188954 23.425762 36.53125 18.340577 36.53125 14.482422 A 1.50015 1.50015 0 0 0 36.529297 14.433594 C 37.182294 13.78349 38.22668 13 39.519531 13 z"/></svg>