<svg xmlns="http://www.w3.org/2000/svg"  viewBox="0 0 48 48" width="50px" height="50px"><path d="M 34.5 4 C 32.032499 4 30 6.0324991 30 8.5 C 30 9.3464991 29.346499 10 28.5 10 L 10.5 10 C 8.0324991 10 6 12.032499 6 14.5 L 6 33.5 C 6 35.967501 8.0324991 38 10.5 38 L 12 38 L 12 43.5 A 1.50015 1.50015 0 1 0 15 43.5 L 15 36.746094 A 1.50015 1.50015 0 0 0 15 36.259766 L 15 20.640625 C 16.089526 22.365914 17.11538 24.483118 17.671875 26.886719 C 18.446972 30.234499 18.356515 33.670614 17.189453 35.771484 A 1.50015 1.50015 0 0 0 17 36.5 L 17 43.5 A 1.50015 1.50015 0 1 0 20 43.5 L 20 38 L 28.5 38 C 29.346499 38 30 38.653501 30 39.5 C 30 41.967501 32.032499 44 34.5 44 C 38.666589 44 42.188682 40.839473 42.636719 36.697266 A 1.50015 1.50015 0 0 0 42.636719 36.695312 L 42.830078 34.908203 C 43.61365 27.656099 43.613655 20.34293 42.830078 13.091797 L 42.636719 11.304688 A 1.50015 1.50015 0 0 0 42.636719 11.302734 C 42.188682 7.1606192 38.666589 4 34.5 4 z M 34.5 7 C 37.159411 7 39.368334 8.9831608 39.654297 11.626953 L 39.845703 13.412109 A 1.50015 1.50015 0 0 0 39.847656 13.414062 C 40.38012 18.341424 40.53158 23.298716 40.318359 28.244141 A 1.5 1.5 0 0 0 39.5 28 A 1.5 1.5 0 0 0 39.5 31 A 1.5 1.5 0 0 0 40.171875 30.837891 C 40.08487 32.08843 39.982444 33.338454 39.847656 34.585938 A 1.50015 1.50015 0 0 0 39.845703 34.587891 L 39.654297 36.373047 C 39.368334 39.016745 37.159411 41 34.5 41 C 33.653501 41 33 40.346499 33 39.5 C 33 37.032499 30.967501 35 28.5 35 L 20.648438 35 C 20.926583 34.038785 21.091603 33.033481 21.150391 32 L 28 32 C 32.400585 32 36 28.400585 36 24 C 36 19.599415 32.400585 16 28 16 L 15.5 16 A 1.50015 1.50015 0 0 0 15.220703 16.023438 L 14.496094 15.378906 A 1.50015 1.50015 0 0 0 13.539062 15 A 1.50015 1.50015 0 0 0 12 16.5 L 12 35 L 10.5 35 C 9.6535009 35 9 34.346499 9 33.5 L 9 23.912109 A 1.5 1.5 0 0 0 9 21.085938 L 9 14.5 C 9 13.653501 9.6535009 13 10.5 13 L 20.085938 13 A 1.5 1.5 0 0 0 21.5 14 A 1.5 1.5 0 0 0 22.912109 13 L 28.5 13 C 30.967501 13 33 10.967501 33 8.5 C 33 7.6535009 33.653501 7 34.5 7 z M 35.5 14 A 1.5 1.5 0 0 0 35.5 17 A 1.5 1.5 0 0 0 35.5 14 z M 17.699219 19 L 28 19 C 30.779415 19 33 21.220585 33 24 C 33 26.779415 30.779415 29 28 29 L 21.070312 29 C 20.969873 28.065898 20.809107 27.130715 20.595703 26.208984 C 19.983376 23.564232 18.9767 21.046329 17.699219 19 z M 34.5 33 A 1.5 1.5 0 0 0 34.5 36 A 1.5 1.5 0 0 0 34.5 33 z"/></svg>