<svg xmlns="http://www.w3.org/2000/svg"  viewBox="0 0 48 48" width="50px" height="50px"><path d="M 10.5 5 C 7.4802259 5 5 7.4802259 5 10.5 L 5 38.5 C 5 41.519774 7.4802259 44 10.5 44 L 16.5 44 C 19.4815 44 21.932375 41.58097 21.994141 38.613281 A 1.50015 1.50015 0 0 0 22 38.5 L 22 10.5 C 22 7.4802259 19.519774 5 16.5 5 L 10.5 5 z M 10.5 8 L 16.5 8 C 17.667671 8 18.619149 8.7721026 18.904297 9.8398438 L 8 18.322266 L 8 10.5 C 8 9.1017741 9.1017741 8 10.5 8 z M 33.501953 10 C 32.023441 10 30.922486 10.915598 30.15625 12.072266 C 30.017953 12.05782 29.913571 12 29.767578 12 C 27.094953 12 25 14.310145 25 17 L 25 19.5 L 25 20.271484 L 25 39.5 C 25 41.967501 27.032499 44 29.5 44 L 37.5 44 C 39.967501 44 42 41.967501 42 39.5 L 42 20.636719 A 1.50015 1.50015 0 0 0 42.001953 20.53125 L 42.001953 17 C 42.001953 14.310145 39.907 12 37.234375 12 C 37.089022 12 36.985422 12.057956 36.847656 12.072266 C 36.081499 10.915238 34.981121 10 33.501953 10 z M 33.501953 13 C 34.063234 13 34.561474 13.405282 34.736328 14.078125 A 1.50015 1.50015 0 0 0 36.701172 15.109375 C 36.914098 15.031947 37.082177 15 37.234375 15 C 38.16975 15 39.001953 15.823855 39.001953 17 L 39.001953 17.072266 C 38.672489 17.030755 38.339555 17 38 17 C 36.104125 17 34.469153 17.806236 33.09375 18.916016 C 31.914842 17.734582 30.28849 17 28.5 17 C 28.331489 17 28.165673 17.010743 28 17.023438 L 28 17 C 28 15.823855 28.832203 15 29.767578 15 C 29.918187 15 30.087618 15.03139 30.302734 15.109375 A 1.50015 1.50015 0 0 0 32.265625 14.076172 C 32.439536 13.404916 32.940672 13 33.501953 13 z M 19 13.566406 L 19 35.431641 L 8 26.876953 L 8 22.123047 L 19 13.566406 z M 28.5 20 C 30.450062 20 32 21.549938 32 23.5 C 32 24.293974 31.737643 25.012429 31.298828 25.595703 C 29.50375 24.654312 28.167482 22.595974 28.019531 20.044922 C 28.17732 20.023148 28.334807 20 28.5 20 z M 38 20 C 38.337838 20 38.660426 20.044306 38.976562 20.107422 C 38.774336 23.181714 36.843113 25.527997 34.476562 26.042969 C 34.810152 25.259161 35 24.399555 35 23.5 C 35 22.781149 34.804501 22.116827 34.585938 21.46875 C 35.483871 20.600286 36.642615 20 38 20 z M 28 26.875 C 29.467954 28.286675 31.375008 29.154297 33.5 29.154297 C 35.624992 29.154297 37.532046 28.286675 39 26.875 L 39 39.5 C 39 40.346499 38.346499 41 37.5 41 L 29.5 41 C 28.653501 41 28 40.346499 28 39.5 L 28 26.875 z M 8 30.677734 L 18.904297 39.160156 C 18.619149 40.227897 17.667671 41 16.5 41 L 10.5 41 C 9.1017741 41 8 39.898226 8 38.5 L 8 30.677734 z"/></svg>