<svg xmlns="http://www.w3.org/2000/svg"  viewBox="0 0 48 48" width="50px" height="50px"><path d="M 42.470703 3.9863281 A 1.50015 1.50015 0 0 0 41.439453 4.4394531 L 37.345703 8.5332031 C 35.968247 7.5706091 34.299133 7 32.5 7 C 27.823344 7 24 10.823348 24 15.5 C 24 17.299131 24.57061 18.968247 25.533203 20.345703 L 23.125 22.753906 L 18.160156 19.59375 A 1.50015 1.50015 0 0 0 18.158203 19.59375 C 17.470048 19.15615 16.670521 18.987609 15.898438 19.072266 C 15.126352 19.156926 14.381754 19.495198 13.804688 20.072266 L 11.617188 22.261719 C 10.430777 23.448128 10.256716 25.336789 11.207031 26.71875 L 14.447266 31.431641 L 4.4394531 41.439453 A 1.50015 1.50015 0 1 0 6.5605469 43.560547 L 16.175781 33.945312 L 20.248047 39.869141 C 21.291084 41.38539 23.528325 41.590815 24.830078 40.289062 L 25.269531 39.851562 C 26.049605 39.071489 26.266374 37.962749 26.056641 37.011719 A 1.50015 1.50015 0 0 0 26.056641 37.009766 C 25.961161 36.580424 25.970751 36.130098 26.169922 35.591797 A 1.50015 1.50015 0 0 0 26.169922 35.589844 C 26.403519 34.957336 26.955283 34.405478 27.589844 34.169922 C 28.128289 33.970274 28.580389 33.961182 29.013672 34.056641 C 29.964808 34.266796 31.071489 34.049641 31.851562 33.269531 L 32.244141 32.875 C 33.573869 31.545271 33.323524 29.244588 31.736328 28.234375 L 25.716797 24.404297 L 27.654297 22.466797 C 29.031753 23.429391 30.700867 24 32.5 24 C 37.176656 24 41 20.176652 41 15.5 C 41 13.700869 40.42939 12.031753 39.466797 10.654297 L 43.560547 6.5605469 A 1.50015 1.50015 0 0 0 42.470703 3.9863281 z M 32.5 10 C 33.478434 10 34.392595 10.252178 35.185547 10.693359 L 31.904297 13.974609 A 1.5 1.5 0 0 0 30.5 13 A 1.5 1.5 0 0 0 29.974609 15.904297 L 27.693359 18.185547 C 27.252178 17.392595 27 16.478433 27 15.5 C 27 12.444666 29.444664 10 32.5 10 z M 37.306641 12.814453 C 37.747822 13.607405 38 14.521567 38 15.5 C 38 18.555334 35.555336 21 32.5 21 C 31.521566 21 30.607405 20.747822 29.814453 20.306641 L 37.306641 12.814453 z M 16.224609 22.044922 C 16.333177 22.032965 16.445983 22.059601 16.548828 22.125 L 18.511719 23.373047 A 1.5 1.5 0 0 0 19.5 26 A 1.5 1.5 0 0 0 19.943359 25.933594 L 16.605469 29.273438 L 13.679688 25.019531 C 13.538002 24.813492 13.560694 24.560404 13.738281 24.382812 L 15.925781 22.193359 C 16.011714 22.107427 16.116042 22.056879 16.224609 22.044922 z M 20.939453 24.919922 L 20.951172 24.927734 L 20.929688 24.949219 A 1.5 1.5 0 0 0 20.939453 24.919922 z M 23.542969 26.578125 L 30.117188 30.759766 L 29.730469 31.146484 C 29.750539 31.126414 29.759016 31.148783 29.660156 31.126953 C 28.695439 30.914412 27.61043 30.96307 26.546875 31.357422 C 26.279432 31.4567 26.026539 31.582788 25.78125 31.720703 A 1.5 1.5 0 0 0 24.5 31 A 1.5 1.5 0 0 0 23.720703 33.78125 C 23.582188 34.027628 23.454799 34.281825 23.355469 34.550781 C 22.96264 35.61248 22.912431 36.695498 23.126953 37.660156 C 23.146553 37.753146 23.128857 37.748076 23.148438 37.728516 L 22.714844 38.162109 L 19.083984 32.880859 A 1.5 1.5 0 0 0 19.619141 30.501953 A 1.5 1.5 0 0 0 19.619141 30.5 L 23.542969 26.578125 z"/></svg>