<svg xmlns="http://www.w3.org/2000/svg"  viewBox="0 0 48 48" width="50px" height="50px"><path d="M 10 5 C 6.1515984 5 3 8.1515984 3 12 C 3 15.144367 5.1224038 17.760603 8 18.632812 L 8 37.5 C 8 40.518182 10.481818 43 13.5 43 L 34.5 43 C 37.518182 43 40 40.518182 40 37.5 L 40 18.580078 C 42.863653 17.701 45 15.138242 45 12 C 45 8.1515984 41.848402 5 38 5 L 10 5 z M 10 8 L 38 8 C 40.227598 8 42 9.7724016 42 12 C 42 14.103228 40.408822 15.796014 38.365234 15.980469 A 1.50015 1.50015 0 0 0 37 17.474609 L 37 37.5 C 37 38.881818 35.881818 40 34.5 40 L 13.5 40 C 12.118182 40 11 38.881818 11 37.5 L 11 17.5 A 1.50015 1.50015 0 0 0 9.5 16 C 9.4120749 16 9.3837455 15.98793 9.390625 15.988281 A 1.50015 1.50015 0 0 0 9.1308594 15.902344 C 7.3417171 15.506612 6 13.925439 6 12 C 6 9.7724016 7.7724016 8 10 8 z M 29.5 27 A 1.5 1.5 0 0 0 29.5 30 A 1.5 1.5 0 0 0 29.5 27 z M 25.5 33 A 1.5 1.5 0 0 0 25.5 36 A 1.5 1.5 0 0 0 25.5 33 z M 32.5 33 A 1.5 1.5 0 0 0 32.5 36 A 1.5 1.5 0 0 0 32.5 33 z"/></svg>