<svg xmlns="http://www.w3.org/2000/svg"  viewBox="0 0 48 48" width="50px" height="50px"><path d="M 11.722656 0.068359375 C 10.900656 0.068359375 10.241422 0.73173437 10.232422 1.5527344 C 10.223422 2.3747344 10.885031 3.0493594 11.707031 3.0683594 C 11.921031 3.0733594 12.600437 3.1673438 12.898438 3.5273438 C 12.956437 3.5973437 12.995344 3.6871094 13.027344 3.7871094 C 10.699344 4.6171094 9.0253906 6.8287813 9.0253906 9.4257812 L 9.0273438 12.853516 C 8.8543437 16.521516 6.8536406 19.109469 3.8066406 19.605469 C 3.5076406 19.654469 3.223375 19.684312 3.109375 19.695312 C 1.387375 19.739312 0 21.149953 0 22.876953 C 0 24.630953 1.4323594 26.058594 3.1933594 26.058594 L 5.7363281 26.058594 C 14.193328 26.058594 21.072266 19.224266 21.072266 10.822266 L 21.072266 9.4257812 C 21.072266 6.4567813 18.887203 3.9914844 16.033203 3.5214844 C 15.901203 2.6344844 15.534641 1.9990312 15.181641 1.5820312 C 13.935641 0.11103125 11.945656 0.068359375 11.722656 0.068359375 z M 23.150391 3.0195312 C 22.184391 3.0665313 21.241266 3.2100156 20.322266 3.4160156 C 21.173266 4.1580156 21.864797 5.074375 22.341797 6.109375 C 22.658797 6.071375 22.975828 6.031625 23.298828 6.015625 C 23.535828 6.005625 23.771812 6 24.007812 6 C 27.622812 6 31.023344 7.355375 33.652344 9.859375 C 36.456344 12.529375 38 16.131 38 20 C 38 20.914 37.908516 21.832516 37.728516 22.728516 C 37.124516 25.713516 37.485187 28.673969 37.867188 30.917969 C 37.992188 31.651969 38.028562 32.404297 37.976562 33.154297 C 37.576563 39.008297 34.653203 41.975609 29.283203 41.974609 L 29.234375 41.974609 C 24.243375 41.958609 19.827938 36.638094 19.085938 33.746094 C 18.972938 33.305094 18.664 32.940906 18.25 32.753906 C 15.479 31.501906 13.27575 29.441594 11.84375 26.933594 C 10.88975 27.292594 9.8990469 27.574719 8.8730469 27.761719 C 10.491047 30.913719 13.086438 33.539313 16.398438 35.195312 C 17.768438 38.947313 22.837563 44.955563 29.226562 44.976562 L 29.28125 44.976562 C 36.20625 44.976562 40.466703 40.744375 40.970703 33.359375 C 41.037703 32.374375 40.989219 31.384016 40.824219 30.416016 C 40.486219 28.428016 40.163922 25.823266 40.669922 23.322266 C 40.889922 22.229266 41 21.112 41 20 C 41 15.302 39.124656 10.9295 35.722656 7.6875 C 32.321656 4.4485 27.855391 2.7895313 23.150391 3.0195312 z M 15.048828 6.4335938 C 16.715828 6.4335938 18.070312 7.7767813 18.070312 9.4257812 L 18.070312 10.822266 C 18.072312 17.569266 12.539328 23.058594 5.7363281 23.058594 L 3.1933594 23.058594 C 3.0863594 23.058594 3 22.977953 3 22.876953 C 3 22.775953 3.0863594 22.695312 3.1933594 22.695312 L 3.328125 22.689453 C 3.328125 22.689453 3.7910625 22.647406 4.2890625 22.566406 C 8.7460625 21.840406 11.783391 18.082828 12.025391 12.923828 L 12.025391 9.4257812 C 12.025391 7.7767812 13.381828 6.4335937 15.048828 6.4335938 z M 23.013672 12 C 22.943672 13.028 22.780156 14.029 22.535156 15 L 31.5 15 C 32.329 15 33 14.329 33 13.5 C 33 12.671 32.329 12 31.5 12 L 23.013672 12 z M 20.384766 20 C 19.694766 21.084 18.902141 22.097 17.994141 23 L 33.5 23 C 34.329 23 35 22.329 35 21.5 C 35 20.671 34.329 20 33.5 20 L 20.384766 20 z M 19.5 27 C 18.671 27 18 27.671 18 28.5 C 18 29.329 18.671 30 19.5 30 L 32.5 30 C 33.329 30 34 29.329 34 28.5 C 34 27.671 33.329 27 32.5 27 L 19.5 27 z M 25.5 34 C 24.671 34 24 34.671 24 35.5 C 24 36.329 24.671 37 25.5 37 L 32.5 37 C 33.329 37 34 36.329 34 35.5 C 34 34.671 33.329 34 32.5 34 L 25.5 34 z"/></svg>