<svg xmlns="http://www.w3.org/2000/svg"  viewBox="0 0 48 48" width="50px" height="50px"><path d="M 24 2 C 14.10098 2 6 9.8270828 6 19.5 C 6 26.394577 10.176704 32.266603 16.125 35.113281 C 16.462867 41.147637 21.383736 46 27.5 46 C 31.374536 46 34.420285 44.470781 36.539062 42.177734 C 38.65784 39.884688 39.912468 36.910327 40.701172 33.888672 C 42.278579 27.845362 42 21.388807 42 19.5 C 42 14.742018 40.371539 10.340071 37.263672 7.140625 C 34.155805 3.9411792 29.591095 2 24 2 z M 24 5 C 28.908905 5 32.594195 6.6391644 35.111328 9.2304688 C 37.628461 11.821773 39 15.420982 39 19.5 C 39 21.637193 39.221421 27.680669 37.798828 33.130859 C 37.087532 35.855954 35.96716 38.377187 34.335938 40.142578 C 32.704715 41.907969 30.625464 43 27.5 43 C 22.78761 43 19 39.21239 19 34.5 C 19 34.5164 19.008102 34.43963 19.013672 34.259766 A 1.50015 1.50015 0 0 0 18.089844 32.828125 C 12.732111 30.604761 9 25.477981 9 19.5 C 9 11.498917 15.67302 5 24 5 z M 24.5 8 C 17.750929 8 12 14.073671 12 20.5 C 12 24.913501 15.342884 29.025143 20.982422 29.724609 C 21.008602 30.598475 21.090569 31.739473 21.423828 33.005859 C 21.778524 34.353703 22.388717 35.813472 23.53125 36.996094 C 24.673783 38.178716 26.392857 39 28.5 39 C 30.714286 39 32.526617 37.839039 33.623047 36.261719 C 34.719477 34.684398 35.27253 32.743727 35.605469 30.746094 C 36.271346 26.750828 36 22.375 36 20.5 C 36 17.8 35.485648 14.754571 33.724609 12.259766 C 31.96357 9.7649599 28.875 8 24.5 8 z M 24.5 11 C 28.125 11 30.03643 12.23504 31.275391 13.990234 C 32.514352 15.745429 33 18.2 33 20.5 C 33 22.625 33.228654 26.749172 32.644531 30.253906 C 32.35247 32.006273 31.843023 33.565602 31.158203 34.550781 C 30.473383 35.535961 29.785714 36 28.5 36 C 27.107143 36 26.326217 35.571284 25.6875 34.910156 C 25.048783 34.249028 24.596476 33.271297 24.326172 32.244141 C 24.055868 31.216985 23.967002 30.162808 23.953125 29.455078 C 23.947125 29.148832 23.957024 28.94734 23.964844 28.814453 A 1.50015 1.50015 0 0 0 24 28.5 C 24 28.4375 24.014956 28.42517 23.978516 28.199219 C 23.969416 28.142729 23.964534 28.074973 23.902344 27.908203 C 23.871244 27.824823 23.69949 27.537474 23.699219 27.537109 C 23.698948 27.536744 22.791305 26.959043 22.791016 26.958984 C 22.790939 26.958969 22.58978 27.007622 22.460938 27.039062 L 22.5 27 C 17.151333 27 15 23.858862 15 20.5 C 15 15.974329 19.657071 11 24.5 11 z M 25.5 14 C 24.125 14 22.903815 14.569633 22.128906 15.441406 C 21.353997 16.313179 21 17.416667 21 18.5 C 21 19.583333 21.353997 20.686821 22.128906 21.558594 C 22.903815 22.430367 24.125 23 25.5 23 C 26.875 23 28.096185 22.430367 28.871094 21.558594 C 29.646003 20.686821 30 19.583333 30 18.5 C 30 17.416667 29.646003 16.313179 28.871094 15.441406 C 28.096185 14.569633 26.875 14 25.5 14 z M 25.5 17 C 26.124999 17 26.403816 17.180367 26.628906 17.433594 C 26.853997 17.686821 27 18.083333 27 18.5 C 27 18.916667 26.853997 19.313179 26.628906 19.566406 C 26.403816 19.819633 26.124999 20 25.5 20 C 24.875001 20 24.596184 19.819633 24.371094 19.566406 C 24.146003 19.313179 24 18.916667 24 18.5 C 24 18.083333 24.146003 17.686821 24.371094 17.433594 C 24.596184 17.180367 24.875001 17 25.5 17 z"/></svg>