<svg xmlns="http://www.w3.org/2000/svg"  viewBox="0 0 48 48" width="50px" height="50px"><path d="M 14.765625 5 C 11.578196 5 8.7968272 7.2154558 8.0820312 10.322266 L 7.5273438 12.726562 C 5.8377437 20.068438 5.8270833 27.695818 7.4960938 35.042969 L 8.0898438 37.65625 C 8.7969275 40.77431 11.584434 43 14.78125 43 C 19.151489 43 22.443472 38.878659 21.474609 34.617188 L 21.419922 34.378906 C 19.850935 27.472057 19.862772 20.300563 21.451172 13.398438 C 22.432806 9.1341055 19.140669 5 14.765625 5 z M 34.765625 5 C 31.578196 5 28.796827 7.2154558 28.082031 10.322266 L 27.527344 12.726562 C 25.838801 20.068322 25.82814 27.695933 27.496094 35.042969 L 28.089844 37.65625 C 28.796927 40.77431 31.584434 43 34.78125 43 C 39.151489 43 42.443472 38.878659 41.474609 34.617188 L 41.419922 34.378906 C 39.850935 27.472057 39.862772 20.300563 41.451172 13.398438 C 42.432806 9.1341055 39.140669 5 34.765625 5 z M 14.765625 8 C 17.280581 8 19.091709 10.272941 18.527344 12.724609 A 1.50015 1.50015 0 0 0 18.527344 12.726562 C 16.837744 20.068437 16.827083 27.695818 18.496094 35.042969 L 18.548828 35.28125 C 19.105969 37.73173 17.295011 40 14.78125 40 C 12.968066 40 11.416541 38.760126 11.015625 36.992188 L 10.421875 34.378906 C 8.8528853 27.472057 8.8627718 20.300563 10.451172 13.398438 L 11.003906 10.994141 C 11.40911 9.2329496 12.959054 8 14.765625 8 z M 34.765625 8 C 37.280581 8 39.091709 10.272941 38.527344 12.724609 A 1.50015 1.50015 0 0 0 38.527344 12.726562 C 36.837744 20.068437 36.827083 27.695818 38.496094 35.042969 L 38.548828 35.28125 C 39.105969 37.73173 37.295011 40 34.78125 40 C 32.968066 40 31.416541 38.760126 31.015625 36.992188 L 30.421875 34.378906 C 28.853828 27.471942 28.863712 20.300677 30.451172 13.398438 L 31.003906 10.994141 C 31.409107 9.2329496 32.959054 8 34.765625 8 z M 14.470703 13.986328 A 1.50015 1.50015 0 0 0 13.439453 14.439453 L 12.439453 15.439453 A 1.50015 1.50015 0 1 0 14.560547 17.560547 L 15.560547 16.560547 A 1.50015 1.50015 0 0 0 14.470703 13.986328 z M 34.470703 13.986328 A 1.50015 1.50015 0 0 0 33.439453 14.439453 L 32.439453 15.439453 A 1.50015 1.50015 0 1 0 34.560547 17.560547 L 35.560547 16.560547 A 1.50015 1.50015 0 0 0 34.470703 13.986328 z M 13.470703 21.986328 A 1.50015 1.50015 0 0 0 12.439453 22.439453 L 11.439453 23.439453 A 1.50015 1.50015 0 1 0 13.560547 25.560547 L 14.560547 24.560547 A 1.50015 1.50015 0 0 0 13.470703 21.986328 z M 33.470703 21.986328 A 1.50015 1.50015 0 0 0 32.439453 22.439453 L 31.439453 23.439453 A 1.50015 1.50015 0 1 0 33.560547 25.560547 L 34.560547 24.560547 A 1.50015 1.50015 0 0 0 33.470703 21.986328 z M 14.470703 29.986328 A 1.50015 1.50015 0 0 0 13.439453 30.439453 L 12.439453 31.439453 A 1.50015 1.50015 0 1 0 14.560547 33.560547 L 15.560547 32.560547 A 1.50015 1.50015 0 0 0 14.470703 29.986328 z M 34.470703 29.986328 A 1.50015 1.50015 0 0 0 33.439453 30.439453 L 32.439453 31.439453 A 1.50015 1.50015 0 1 0 34.560547 33.560547 L 35.560547 32.560547 A 1.50015 1.50015 0 0 0 34.470703 29.986328 z"/></svg>