<svg xmlns="http://www.w3.org/2000/svg"  viewBox="0 0 48 48" width="50px" height="50px"><path d="M43.999,16.443C43.753,9.945,38.055,4.247,31.557,4.001c-5.725-0.213-10.065,3.035-11.665,8.696	c-0.987,3.497-1.925,6.093-3.04,8.415l-0.94,1.958c-0.621,1.295-0.797,2.718-0.564,4.072c-1.049,0.902-2.613,2.249-3.831,3.304	C10.789,30.152,10.011,30,9.208,30c-0.467,0-0.938,0.053-1.401,0.158c-2.337,0.528-4.169,2.382-4.667,4.722	c-0.357,1.679-0.033,3.378,0.912,4.783c0.574,0.853,1.354,1.547,2.251,2.023C7.352,43.681,9.437,45,11.792,45	c0.442,0,0.889-0.047,1.328-0.141c2.34-0.497,4.194-2.329,4.723-4.666c0.252-1.115,0.195-2.255-0.146-3.308	c2.012-1.686,4.797-4.031,4.797-4.031c0.052-0.044,0.101-0.09,0.15-0.138c0.779-0.073,1.554-0.278,2.287-0.629l1.958-0.94	c2.322-1.115,4.918-2.053,8.415-3.04h0.001C40.964,26.509,44.215,22.148,43.999,16.443z M14.515,35.636	c-0.367,0.306-0.459,0.852-0.169,1.231c0.544,0.712,0.799,1.654,0.57,2.664c-0.268,1.182-1.235,2.141-2.42,2.393	C12.257,41.976,12.021,42,11.792,42c-1.577,0-2.882-1.141-3.151-2.641c-1.719-0.308-2.965-1.976-2.566-3.855	c0.252-1.186,1.211-2.153,2.394-2.42C8.72,33.027,8.968,33,9.208,33c0.734,0,1.406,0.251,1.944,0.669	c0.189,0.147,0.414,0.225,0.635,0.225c0.21,0,0.417-0.071,0.588-0.22c0.962-0.843,2.81-2.436,4.214-3.645	c0.193,0.26,0.402,0.511,0.636,0.745c0.493,0.493,1.049,0.896,1.646,1.207C17.477,33.154,15.566,34.76,14.515,35.636z M34.487,25.222L34.487,25.222c-3.669,1.036-6.414,2.029-8.898,3.222l-1.958,0.94c-1.436,0.691-3.157,0.396-4.284-0.73	c-1.126-1.127-1.42-2.849-0.73-4.284l0.94-1.958c1.192-2.484,2.186-5.229,3.222-8.898c1.177-4.164,4.173-6.521,8.255-6.521	c0.135,0,0.272,0.003,0.41,0.008c4.905,0.186,9.372,4.652,9.558,9.558C41.164,20.848,38.789,24.006,34.487,25.222z"/></svg>