<svg xmlns="http://www.w3.org/2000/svg"  viewBox="0 0 48 48" width="50px" height="50px"><path d="M 19.486328 5.9960938 A 1.50015 1.50015 0 0 0 19.333984 6.0097656 C 19.333984 6.0097656 18.056869 6.1425967 16.667969 6.6542969 C 15.978396 6.9083499 15.181226 7.276892 14.5 7.8339844 C 13.818774 7.276892 13.021604 6.9083499 12.332031 6.6542969 C 10.943131 6.1425967 9.6660156 6.0097656 9.6660156 6.0097656 A 1.50015 1.50015 0 0 0 9.515625 5.9980469 A 1.50015 1.50015 0 0 0 9.3339844 8.9902344 C 9.3339844 8.9902344 10.306869 9.1074033 11.292969 9.4707031 C 11.459139 9.5319241 11.439244 9.6234943 11.585938 9.6933594 C 8.4669118 10.663922 6 13.249878 6 16.751953 C 6 26.515111 8.6376092 32.768341 13.185547 36.419922 C 17.733484 40.071502 23.855846 41 30.5 41 A 1.50015 1.50015 0 0 0 30.613281 40.996094 C 32.703398 40.836609 34.711229 39.858806 36.275391 38.416016 C 36.962029 37.782657 37.519247 37.01003 37.986328 36.193359 C 38.440767 36.485535 38.920791 36.765063 39.291016 37.357422 C 39.811802 38.190681 40.076172 38.974609 40.076172 38.974609 A 1.5008464 1.5008464 0 1 0 42.923828 38.025391 C 42.923828 38.025391 42.563198 36.934319 41.833984 35.767578 C 41.473771 35.191231 41.007118 34.549142 40.400391 34 C 41.007118 33.450858 41.473771 32.808763 41.833984 32.232422 C 42.563198 31.065681 42.923828 29.974609 42.923828 29.974609 A 1.5008464 1.5008464 0 1 0 40.076172 29.025391 C 40.076172 29.025391 39.811802 29.809319 39.291016 30.642578 C 39.122011 30.912986 38.895581 30.948905 38.695312 31.173828 C 38.025405 27.958469 35.513486 25.482331 32.246094 24.953125 A 1.50015 1.50015 0 0 0 31.5 24.751953 C 28.421583 24.751953 25.846665 24.85729 24.423828 24.140625 C 23.71241 23.782292 23.19869 23.295408 22.753906 22.259766 C 22.309122 21.224123 22 19.611461 22 17.251953 L 22 17.025391 C 22 13.731635 20.056316 10.998051 17.203125 9.8554688 C 17.428938 9.7273822 17.420726 9.576184 17.707031 9.4707031 C 18.693131 9.1074033 19.666016 8.9902344 19.666016 8.9902344 A 1.50015 1.50015 0 0 0 19.486328 5.9960938 z M 14.455078 12.251953 C 17.300783 12.337556 19 14.152819 19 17.025391 L 19 17.251953 C 19 19.862945 19.315878 21.859533 19.996094 23.443359 C 20.67631 25.027186 21.78759 26.17127 23.076172 26.820312 C 25.574501 28.078689 28.402219 27.77375 31.234375 27.753906 A 1.50015 1.50015 0 0 0 31.386719 27.773438 C 33.974605 27.970906 36 30.104119 36 32.751953 C 36 33.929714 35.337322 35.198977 34.240234 36.210938 C 33.150698 37.21593 31.673333 37.892201 30.414062 37.996094 C 24.09725 37.987218 18.749118 37.040482 15.064453 34.082031 C 11.362391 31.109612 9 25.988795 9 16.751953 C 9 14.003776 11.466761 12.162653 14.455078 12.251953 z"/></svg>