<svg xmlns="http://www.w3.org/2000/svg"  viewBox="0 0 48 48" width="50px" height="50px"><path d="M 12.5 6 A 1.50015 1.50015 0 0 0 11.097656 8.0820312 C 8.27289 8.3008131 6 10.622633 6 13.5 L 6 34.5 C 6 37.05115 7.772384 39.21142 10.142578 39.822266 A 1.50015 1.50015 0 0 0 11.5 42 L 14.5 42 A 1.50015 1.50015 0 0 0 15.933594 40 L 32.066406 40 A 1.50015 1.50015 0 0 0 33.5 42 L 36.5 42 A 1.50015 1.50015 0 0 0 37.857422 39.822266 C 40.227616 39.21142 42 37.05115 42 34.5 L 42 13.5 C 42 10.622633 39.72711 8.3008131 36.902344 8.0820312 A 1.50015 1.50015 0 0 0 35.5 6 L 27.5 6 A 1.50015 1.50015 0 0 0 26.066406 8 L 21.933594 8 A 1.50015 1.50015 0 0 0 20.5 6 L 12.5 6 z M 11.5 11 L 36.5 11 C 37.898226 11 39 12.101774 39 13.5 L 39 34.5 C 39 35.898226 37.898226 37 36.5 37 L 11.5 37 C 10.101774 37 9 35.898226 9 34.5 L 9 13.5 C 9 12.101774 10.101774 11 11.5 11 z M 12.5 13 A 1.5 1.5 0 0 0 12.5 16 A 1.5 1.5 0 0 0 12.5 13 z M 17.5 13 A 1.5 1.5 0 0 0 17.5 16 A 1.5 1.5 0 0 0 17.5 13 z M 22.5 13 A 1.5 1.5 0 0 0 22.5 16 A 1.5 1.5 0 0 0 22.5 13 z M 35.5 13 A 1.5 1.5 0 0 0 35.5 16 A 1.5 1.5 0 0 0 35.5 13 z M 14.5 18 C 12.585045 18 11 19.585045 11 21.5 L 11 31.5 C 11 33.414955 12.585045 35 14.5 35 L 33.5 35 C 35.414955 35 37 33.414955 37 31.5 L 37 21.5 C 37 19.585045 35.414955 18 33.5 18 L 14.5 18 z M 14.5 21 L 33.5 21 C 33.795045 21 34 21.204955 34 21.5 L 34 31.5 C 34 31.795045 33.795045 32 33.5 32 L 30.927734 32 C 30.681806 31.136902 30.278776 30.343392 29.783203 29.617188 C 29.850143 29.343608 29.998047 29.114028 29.998047 28.816406 C 29.998047 28.298575 29.888525 27.803991 29.693359 27.353516 L 30.28125 26.765625 A 1.5 1.5 0 0 0 30.896484 26.898438 A 1.5 1.5 0 0 0 30.896484 23.898438 A 1.5 1.5 0 0 0 30.841797 23.900391 A 1.5 1.5 0 0 0 29.359375 22.619141 A 1.5 1.5 0 0 0 28.017578 24.787109 L 27.492188 25.3125 C 27.105949 25.175272 26.697767 25.085937 26.267578 25.085938 C 25.332006 25.085938 24.548386 25.516755 23.892578 26.091797 C 23.595483 26.058345 23.310106 26 23 26 C 19.215381 26 15.99089 28.530301 15.0625 32 L 14.5 32 C 14.204955 32 14 31.795045 14 31.5 L 14 21.5 C 14 21.204955 14.204955 21 14.5 21 z M 26.267578 28.085938 C 26.688702 28.085938 26.998047 28.395283 26.998047 28.816406 C 26.998047 28.933906 26.969267 29.042069 26.896484 29.169922 A 1.50015 1.50015 0 0 0 27.050781 30.873047 C 27.338224 31.216323 27.573731 31.595636 27.759766 32 L 18.253906 32 C 19.059061 30.249541 20.853213 29 23 29 C 23.363063 29 23.722024 29.04046 24.078125 29.113281 A 1.50015 1.50015 0 0 0 25.652344 28.433594 C 25.784836 28.22019 25.998828 28.085937 26.267578 28.085938 z"/></svg>