<svg xmlns="http://www.w3.org/2000/svg"  viewBox="0 0 48 48" width="50px" height="50px"><path d="M 34.052734 0.515625 L 34.033203 0.51953125 L 34.011719 0.52148438 C 33.518224 0.59164915 32.994598 0.8218083 32.589844 1.2265625 L 31.59375 2.2226562 L 28.216797 5.5996094 C 27.153884 6.6649829 27.281335 8.4866846 28.5 9.3847656 C 28.5 9.3847656 28.5 9.3867188 28.5 9.3867188 L 31.943359 11.935547 L 29.560547 14.318359 L 26.890625 10.582031 C 26.441266 9.9383554 25.742599 9.5808132 25.019531 9.5214844 C 24.296463 9.4621556 23.548967 9.7010334 23 10.25 L 20.349609 12.898438 L 19.25 14 C 18.996821 14.253179 18.783348 14.597497 18.660156 14.982422 C 18.397251 15.739405 18.493686 16.62121 18.984375 17.298828 L 22.146484 21.732422 L 19.867188 24.011719 L 17.392578 20.537109 L 17.382812 20.527344 C 16.821237 19.768852 15.912684 19.417903 15.052734 19.515625 L 15.033203 19.519531 L 15.011719 19.521484 C 14.518229 19.591644 13.994598 19.821809 13.589844 20.226562 L 12.59375 21.222656 L 9.2167969 24.599609 C 8.1538838 25.664983 8.2813351 27.486685 9.5 28.384766 C 9.5 28.384766 9.5 28.386719 9.5 28.386719 L 12.943359 30.935547 L 12.03125 31.847656 C 10.134185 33.744721 9.825533 36.80969 11.488281 38.984375 C 11.919742 39.548786 12.121557 40.269121 11.929688 41.109375 C 11.732202 41.974716 10.972763 42.732202 10.107422 42.929688 C 8.3768083 43.32309 7 42.091673 7 40.5 A 1.50015 1.50015 0 1 0 4 40.5 C 4 43.939688 7.2709832 46.654602 10.775391 45.855469 C 12.802049 45.392953 14.391 43.804003 14.853516 41.777344 C 15.241647 40.077598 14.815636 38.397698 13.871094 37.162109 C 13.149842 36.218795 13.275409 34.845685 14.152344 33.96875 L 15.320312 32.800781 C 15.340732 32.826037 15.365813 32.849401 15.384766 32.875 L 15.386719 32.878906 L 19.621094 38.521484 C 20.297842 39.422156 21.480882 39.757121 22.525391 39.34375 C 22.804218 39.235263 23.134423 39.047217 23.400391 38.78125 L 24.544922 37.634766 L 27.771484 34.408203 L 27.773438 34.408203 C 28.8523 33.326842 28.694416 31.493348 27.457031 30.603516 L 27.455078 30.601562 L 21.931641 26.666016 L 21.929688 26.664062 L 21.923828 26.660156 C 21.832647 26.593697 21.752933 26.521219 21.673828 26.447266 L 23.982422 24.138672 C 24.188289 24.338522 24.405959 24.526623 24.640625 24.693359 L 30.699219 29.011719 L 30.679688 28.996094 C 31.713363 29.759045 33.158606 29.608361 34.027344 28.693359 L 34.029297 28.691406 L 36.505859 26.083984 L 37.550781 24.990234 C 37.877021 24.663995 38.058072 24.276956 38.152344 23.994141 L 38.15625 23.984375 L 38.160156 23.972656 C 38.479181 22.966501 38.158556 21.830052 37.265625 21.154297 L 37.259766 21.148438 L 31.634766 16.986328 L 31.632812 16.984375 C 31.53801 16.913813 31.451186 16.836019 31.367188 16.755859 L 34.320312 13.800781 C 34.340732 13.826037 34.365813 13.849401 34.384766 13.875 L 34.386719 13.878906 L 38.621094 19.521484 C 39.297842 20.422156 40.480882 20.757121 41.525391 20.34375 C 41.804218 20.235263 42.134423 20.047217 42.400391 19.78125 L 43.544922 18.634766 L 46.771484 15.408203 L 46.773438 15.408203 C 47.8523 14.326842 47.694416 12.493348 46.457031 11.603516 L 46.455078 11.601562 L 40.931641 7.6660156 L 40.929688 7.6640625 L 40.923828 7.6601562 C 40.832647 7.593701 40.752933 7.5212176 40.673828 7.4472656 L 43.560547 4.5605469 A 1.50015 1.50015 0 0 0 42.470703 1.9863281 A 1.50015 1.50015 0 0 0 41.439453 2.4394531 L 38.867188 5.0117188 L 36.392578 1.5371094 L 36.382812 1.5273438 C 35.821272 0.76885673 34.912684 0.41790345 34.052734 0.515625 z M 34.294922 3.7636719 L 37.292969 7.9707031 A 1.50015 1.50015 0 0 0 37.623047 8.4335938 L 37.898438 8.8203125 L 37.900391 8.8242188 C 38.203183 9.2441836 38.572413 9.6075941 38.974609 9.9277344 C 38.537876 9.6320576 38.099754 9.3366178 37.669922 9.0429688 C 35.866811 7.8111343 34.109431 6.6271268 32.257812 5.8007812 L 33.714844 4.34375 L 34.294922 3.7636719 z M 30.824219 7.3730469 C 32.651647 8.0912466 34.519259 9.3121532 36.541016 10.693359 C 38.543969 12.061721 40.701237 13.564143 43.160156 14.777344 L 41.423828 16.513672 L 40.677734 17.261719 L 36.794922 12.089844 L 36.789062 12.082031 C 36.468173 11.650249 36.087576 11.270598 35.660156 10.953125 L 30.824219 7.3730469 z M 24.748047 12.744141 L 27.980469 17.267578 A 1.50015 1.50015 0 0 0 28.324219 17.748047 L 28.601562 18.134766 L 28.603516 18.138672 C 28.955555 18.626111 29.377889 19.047012 29.845703 19.394531 L 32.974609 21.710938 C 28.988722 19.697743 25.395 17.533859 22.310547 15.181641 L 22.470703 15.021484 L 24.748047 12.744141 z M 23.548828 18.53125 C 26.665825 20.653292 30.158173 22.604535 33.949219 24.421875 L 32.123047 26.341797 L 26.378906 22.248047 C 26.135082 22.074804 25.925196 21.864918 25.751953 21.621094 L 25.751953 21.619141 L 25.458984 21.207031 A 1.50015 1.50015 0 0 0 25.191406 20.833984 L 23.548828 18.53125 z M 14.296875 23.761719 C 16.053488 26.536149 17.646437 29.619119 19.142578 32.884766 L 17.794922 31.089844 L 17.789062 31.082031 C 17.468173 30.650249 17.087576 30.270598 16.660156 29.953125 L 11.744141 26.314453 L 14.296875 23.761719 z M 18.992188 27.980469 A 1.50015 1.50015 0 0 0 19.048828 27.998047 C 19.375258 28.413607 19.748168 28.789582 20.173828 29.097656 L 20.177734 29.099609 L 25.234375 32.703125 L 22.464844 35.472656 C 21.366303 32.889025 20.222442 30.370076 18.992188 27.980469 z"/></svg>