<svg xmlns="http://www.w3.org/2000/svg"  viewBox="0 0 48 48" width="50px" height="50px"><path d="M 39.654297 5.5488281 C 37.135192 5.603873 34.913231 6.3225411 32.945312 7.4492188 C 29.94658 9.1660607 27.475067 11.713492 24.800781 14.25 C 21.767148 17.127082 19.34947 17.258818 17.064453 17.480469 C 8.7670615 18.286441 4.3754922 22.663429 3.1367188 27.431641 C 1.8979451 32.199852 3.4339958 37.169072 6.5625 39.671875 C 12.113362 44.112674 18.473195 43.344089 23.1875 40.072266 C 27.901805 36.800442 31.294171 31.237877 31.988281 25.685547 C 32.466098 21.863012 33.467619 19.434291 34.582031 17.921875 C 35.696443 16.409459 36.908128 15.756366 38.113281 15.455078 C 40.523587 14.852502 42.878906 15.865234 42.878906 15.865234 A 1.50015 1.50015 0 0 0 44.699219 13.599609 L 42.480469 10.640625 L 44.560547 8.5605469 A 1.50015 1.50015 0 0 0 43.863281 6.0449219 C 42.780694 5.7742751 41.744326 5.6196827 40.751953 5.5664062 C 40.379813 5.5464276 40.014169 5.5409646 39.654297 5.5488281 z M 38.761719 8.609375 C 39.204442 8.6312404 39.70138 8.7426975 40.130859 8.7480469 L 39.439453 9.4394531 A 1.50015 1.50015 0 0 0 39.300781 11.400391 L 39.945312 12.257812 C 39.261533 12.246973 38.511462 12.347362 37.751953 12.503906 L 35.595703 9.6289062 C 36.483957 9.2207624 37.353494 8.7733216 38.341797 8.625 C 38.472928 8.6053203 38.614145 8.6020865 38.761719 8.609375 z M 32.978516 11.136719 L 34.867188 13.65625 C 33.905903 14.254692 32.978002 15.041294 32.167969 16.140625 C 30.657381 18.190709 29.533902 21.136988 29.011719 25.314453 C 28.440829 29.881123 25.408257 34.878746 21.476562 37.607422 C 17.599564 40.298138 13.162408 40.980732 8.6289062 37.470703 C 11.596341 36.500896 14.693515 34.056448 17.443359 30.714844 C 20.628229 26.844584 22.498974 22.739611 22.429688 19.328125 C 23.842918 18.747832 25.350654 17.864155 26.865234 16.427734 C 29.050748 14.354818 31.006417 12.556329 32.978516 11.136719 z M 19.382812 20.207031 C 19.088394 22.418557 17.646355 25.747011 15.126953 28.808594 C 12.246241 32.309228 8.746335 34.453912 6.6660156 34.84375 C 5.8257326 32.964045 5.4416338 30.492651 6.0410156 28.185547 C 6.9797421 24.572258 9.9428602 21.186825 17.355469 20.466797 C 17.94431 20.409678 18.630242 20.33782 19.382812 20.207031 z M 12.470703 23.986328 A 1.50015 1.50015 0 0 0 11.439453 24.439453 L 8.4394531 27.439453 A 1.50015 1.50015 0 1 0 10.560547 29.560547 L 13.560547 26.560547 A 1.50015 1.50015 0 0 0 12.470703 23.986328 z"/></svg>