<svg xmlns="http://www.w3.org/2000/svg"  viewBox="0 0 48 48" width="50px" height="50px"><path d="M 23.150391 3.0214844 C 14.453964 3.4456467 7.3685814 10.591886 7.0136719 19.291016 C 6.7298944 26.240386 10.69091 32.260641 16.478516 35.144531 C 17.14856 37.122003 18.505961 39.267796 20.537109 41.15625 C 22.786599 43.247705 25.787688 44.965419 29.224609 44.976562 C 33.191901 44.989663 36.18574 43.600639 38.080078 41.382812 C 39.974416 39.164986 40.771477 36.277765 40.970703 33.359375 C 41.039863 32.351506 40.985863 31.365404 40.824219 30.416016 C 40.406993 27.963 40.215546 25.563224 40.667969 23.324219 A 1.50015 1.50015 0 0 0 40.667969 23.322266 C 40.884149 22.249094 41 21.138254 41 20 C 41 10.347003 32.897093 2.5457954 23.150391 3.0214844 z M 23.296875 6.0175781 C 31.376173 5.6232671 38 12.016997 38 20 C 38 20.935746 37.904381 21.847687 37.726562 22.730469 L 37.728516 22.730469 C 37.162939 25.529464 37.422413 28.304937 37.867188 30.919922 C 37.98954 31.638534 38.029406 32.384166 37.976562 33.154297 C 37.805788 35.655907 37.11649 37.89092 35.798828 39.433594 C 34.481166 40.976268 32.537084 41.987466 29.234375 41.976562 C 26.811296 41.968663 24.447839 40.695529 22.580078 38.958984 C 20.712317 37.22244 19.402152 34.988056 19.083984 33.748047 A 1.50015 1.50015 0 0 0 18.25 32.753906 C 13.224311 30.483541 9.7688823 25.360834 10.011719 19.414062 C 10.302809 12.279192 16.165302 6.3654158 23.296875 6.0175781 z M 16.5 12 A 1.50015 1.50015 0 1 0 16.5 15 L 31.5 15 A 1.50015 1.50015 0 1 0 31.5 12 L 16.5 12 z M 14.5 20 A 1.50015 1.50015 0 1 0 14.5 23 L 33.5 23 A 1.50015 1.50015 0 1 0 33.5 20 L 14.5 20 z M 19.5 27 A 1.50015 1.50015 0 1 0 19.5 30 L 32.5 30 A 1.50015 1.50015 0 1 0 32.5 27 L 19.5 27 z M 25.5 34 A 1.50015 1.50015 0 1 0 25.5 37 L 32.5 37 A 1.50015 1.50015 0 1 0 32.5 34 L 25.5 34 z"/></svg>