<svg xmlns="http://www.w3.org/2000/svg"  viewBox="0 0 48 48" width="50px" height="50px"><path d="M 41 6 C 40.027778 6 39.188384 6.3553349 38.601562 6.8769531 C 38.014742 7.3985714 37.665432 8.0458261 37.439453 8.6484375 C 37.417036 8.7082177 37.408862 8.7629079 37.388672 8.8222656 L 36.375 8.1796875 C 35.809074 7.8213668 35.190041 7.6595393 34.580078 7.6601562 C 32.750189 7.6620074 31 9.1269235 31 11.136719 L 31 11.570312 C 29.545762 12.386019 27.759446 13 26.248047 13 C 26.14649 13 26.050662 13.046308 25.949219 13.048828 A 1.50015 1.50015 0 0 0 24.619141 13.265625 C 23.862223 13.368735 23.092169 13.389177 22.365234 13.632812 A 1.50015 1.50015 0 0 0 22.300781 13.65625 L 16.251953 16 L 12.232422 16 C 10.516802 16 8.9667573 16.67273 7.8105469 17.755859 C 4.7233745 19.313279 3.1985215 22.330914 2.5292969 25.007812 C 1.7317409 28.198037 2.0039064 31.089844 2.0039062 31.089844 A 1.0001374 1.0001374 0 1 0 3.9960938 30.910156 C 3.9960938 30.910156 3.7682591 28.301963 4.4707031 25.492188 C 4.7456432 24.392427 5.1489654 23.295085 5.7441406 22.308594 C 5.7332411 22.662745 5.7431486 23.021514 5.7929688 23.384766 L 6 24.890625 L 6 31.416016 L 5.1328125 39.224609 C 4.9703595 40.681764 6.15206 42 7.6171875 42 L 11.177734 42 C 12.79631 42 14.024641 40.378594 13.583984 38.820312 L 13.583984 38.818359 C 13.290789 37.776472 13.446882 36.662089 14.015625 35.742188 L 14.015625 35.740234 L 16.216797 32.193359 C 16.646284 32.291829 16.784943 32.33147 17.486328 32.470703 C 18.781384 32.727879 20.276041 33 21.496094 33 L 24 33 L 24 39.5 C 24 40.863594 25.136406 42 26.5 42 L 30.179688 42 C 31.798946 42 33.026239 40.377246 32.583984 38.818359 L 32.451172 38.349609 A 1.50015 1.50015 0 0 0 32.451172 38.347656 C 32.2143 37.50965 32.268935 36.617444 32.605469 35.8125 L 33.986328 32.505859 A 1.50015 1.50015 0 0 0 34.054688 32.306641 C 34.651291 30.026334 35.037558 28.490637 35.125 26.011719 A 1.50015 1.50015 0 0 0 35.125 25.929688 C 35.125 25.929688 35.10847 24.447494 35.421875 23.060547 C 35.578575 22.367074 35.831003 21.724796 36.076172 21.382812 C 36.321341 21.040829 36.388349 21 36.671875 21 L 41.988281 21 C 44.185663 21 46 19.185663 46 16.988281 C 46 15.520091 45.16944 14.242832 44.005859 13.525391 C 42.973403 12.888328 42.277812 11.641156 41.166016 10.611328 C 40.617718 10.102927 39.969521 9.7273093 39.271484 9.484375 C 39.286418 9.4397052 39.293874 9.3960235 39.310547 9.3515625 C 39.459568 8.9541739 39.672758 8.6014286 39.929688 8.3730469 C 40.186616 8.1446651 40.472222 8 41 8 A 1.0001 1.0001 0 1 0 41 6 z M 34.480469 10.607422 C 34.571351 10.616873 34.668957 10.651164 34.769531 10.714844 L 36.402344 11.748047 A 1.50015 1.50015 0 0 0 36.841797 11.9375 L 38.078125 12.246094 C 38.472576 12.344704 38.833905 12.538823 39.126953 12.810547 C 39.507156 13.162719 40.576097 14.933188 42.431641 16.078125 C 42.81206 16.312684 43 16.642472 43 16.988281 C 43 17.564899 42.564899 18 41.988281 18 L 36.785156 18 C 33.737883 17.093034 33.014655 15.992208 32.8125 15.318359 C 32.606218 14.630753 32.841797 14.169922 32.841797 14.169922 A 1.50015 1.50015 0 0 0 32.935547 13.941406 C 33.058163 13.865256 33.213163 13.827293 33.332031 13.748047 A 1.50015 1.50015 0 0 0 34 12.5 L 34 11.136719 C 34 10.899582 34.09227 10.730317 34.234375 10.652344 C 34.305429 10.613359 34.389587 10.597971 34.480469 10.607422 z M 29.90625 15.388672 C 29.93356 15.672232 29.84598 15.876574 29.9375 16.181641 C 30.338503 17.518318 31.447069 18.878167 33.513672 19.9375 C 33.097793 20.601815 32.840873 21.303598 32.660156 22 L 27 22 L 27 15.875 C 27.979697 15.80526 28.964446 15.691992 29.90625 15.388672 z M 24 16.365234 L 24 22 L 18 22 L 18 18.539062 L 23.328125 16.474609 C 23.544621 16.402312 23.779117 16.421123 24 16.365234 z M 12.232422 19 L 15 19 L 15 29 L 9 29 L 9 24.787109 A 1.50015 1.50015 0 0 0 8.9863281 24.582031 L 8.765625 22.976562 C 8.473543 20.846916 10.083008 19 12.232422 19 z M 18 25 L 24 25 L 24 30 L 21.496094 30 C 20.797146 30 19.294007 29.772214 18.070312 29.529297 C 18.031412 29.521597 18.0384 29.521402 18 29.513672 A 1.50015 1.50015 0 0 0 18 29.5 L 18 25 z M 27 25 L 32.228516 25 C 32.224916 25.230329 32.126953 25.988281 32.126953 25.988281 L 32.126953 25.90625 C 32.069939 27.522561 31.738808 28.679619 31.419922 30 L 27 30 L 27 25 z M 8.953125 32 L 12.804688 32 L 11.466797 34.160156 A 1.50015 1.50015 0 0 0 11.464844 34.162109 C 10.566842 35.613019 10.350616 37.335858 10.654297 39 L 8.1757812 39 L 8.953125 32 z M 27 33 L 30.529297 33 L 29.837891 34.654297 C 29.261709 36.032445 29.176274 37.556603 29.546875 39 L 27 39 L 27 33 z"/></svg>