<svg xmlns="http://www.w3.org/2000/svg"  viewBox="0 0 48 48" width="50px" height="50px"><path d="M 42.470703 1.9863281 A 1.50015 1.50015 0 0 0 41.439453 2.4394531 L 38.5 5.3789062 L 37.960938 4.8398438 C 35.855201 2.7341079 32.154732 3.348412 30.933594 6.0859375 C 30.159385 7.7955929 30.599275 9.7203679 31.839844 10.960938 L 32.378906 11.5 L 31.5 12.378906 L 29.060547 9.9394531 A 1.50015 1.50015 0 1 0 26.939453 12.060547 L 29.378906 14.5 L 28.25 15.628906 L 27.460938 14.839844 C 26.315424 13.69433 24.52012 13.336286 23.007812 14.029297 A 1.50015 1.50015 0 0 0 22.539062 14.207031 C 20.039171 15.677556 19.582073 19.203166 21.638672 21.259766 L 22.128906 21.75 L 21.5 22.378906 L 19.560547 20.439453 A 1.50015 1.50015 0 1 0 17.439453 22.560547 L 19.378906 24.5 L 18.5 25.378906 L 17.960938 24.839844 C 15.855201 22.734108 12.154732 23.348412 10.933594 26.085938 C 10.159385 27.795593 10.599275 29.720368 11.839844 30.960938 L 12.378906 31.5 L 12.039062 31.839844 C 10.133987 33.74492 9.856 36.808 11.5 39 A 1.50015 1.50015 0 0 0 11.515625 39.021484 C 11.946436 39.575384 12.142756 40.272667 11.9375 41.162109 A 1.50015 1.50015 0 0 0 11.933594 41.185547 C 11.772445 41.937523 10.97801 42.756586 10.144531 43.023438 C 8.343058 43.308901 7 42.054748 7 40.5 A 1.50015 1.50015 0 1 0 4 40.5 C 4 43.92 7.2192597 46.63279 10.773438 45.974609 A 1.50015 1.50015 0 0 0 10.912109 45.941406 C 12.852649 45.386966 14.422892 43.848086 14.861328 41.824219 C 15.250652 40.118383 14.851308 38.422385 13.884766 37.179688 L 13.900391 37.199219 C 13.144391 36.191219 13.265233 34.855861 14.160156 33.960938 L 14.5 33.621094 L 14.939453 34.060547 C 16.308468 35.429562 18.501548 35.709477 20.246094 34.697266 C 22.698173 33.306699 23.009868 29.888775 21.060547 27.939453 L 20.621094 27.5 L 21.5 26.621094 L 23.439453 28.560547 A 1.50015 1.50015 0 1 0 25.560547 26.439453 L 23.621094 24.5 L 24.25 23.871094 L 24.339844 23.960938 C 26.546951 26.168043 30.339786 25.42178 31.65625 22.642578 A 1.50015 1.50015 0 0 0 31.669922 22.609375 C 32.329516 21.125289 32.015897 19.394803 30.861328 18.240234 L 30.371094 17.75 L 31.5 16.621094 L 33.439453 18.560547 A 1.50015 1.50015 0 1 0 35.560547 16.439453 L 33.621094 14.5 L 34.5 13.621094 L 34.939453 14.060547 C 36.308468 15.429562 38.501548 15.709477 40.246094 14.697266 C 42.698173 13.306699 43.009868 9.8887746 41.060547 7.9394531 L 40.621094 7.5 L 43.560547 4.5605469 A 1.50015 1.50015 0 0 0 42.470703 1.9863281 z M 34.949219 6.5390625 C 35.263208 6.5633184 35.580009 6.7011022 35.839844 6.9609375 L 38.939453 10.060547 C 39.586739 10.707833 39.499855 11.677694 38.763672 12.091797 A 1.50015 1.50015 0 0 0 38.744141 12.103516 C 38.090156 12.485006 37.489142 12.368049 37.060547 11.939453 L 35.734375 10.613281 A 1.50015 1.50015 0 0 0 35.388672 10.267578 L 33.960938 8.8398438 C 33.602879 8.4817855 33.443774 7.8092446 33.666016 7.3203125 A 1.50015 1.50015 0 0 0 33.669922 7.3085938 C 33.860572 6.8796305 34.23079 6.6192421 34.638672 6.5527344 C 34.740642 6.5361074 34.844556 6.5309772 34.949219 6.5390625 z M 24.779297 16.644531 C 24.97404 16.674726 25.160814 16.781908 25.339844 16.960938 L 28.740234 20.361328 C 28.981446 20.60254 29.056177 21.057507 28.925781 21.373047 C 28.434156 22.371991 27.247021 22.625927 26.460938 21.839844 L 23.759766 19.138672 C 23.042915 18.421821 23.190195 17.418059 24.005859 16.871094 A 1.50015 1.50015 0 0 0 24.171875 16.787109 C 24.38184 16.66113 24.584553 16.614337 24.779297 16.644531 z M 14.949219 26.539062 C 15.263208 26.563319 15.580008 26.701104 15.839844 26.960938 L 18.939453 30.060547 C 19.586739 30.707833 19.499855 31.677694 18.763672 32.091797 A 1.50015 1.50015 0 0 0 18.744141 32.103516 C 18.090156 32.485006 17.489142 32.368049 17.060547 31.939453 L 13.960938 28.839844 C 13.602878 28.481785 13.443774 27.809246 13.666016 27.320312 A 1.50015 1.50015 0 0 0 13.669922 27.308594 C 13.860572 26.879631 14.23079 26.619242 14.638672 26.552734 C 14.740642 26.536107 14.844556 26.530977 14.949219 26.539062 z"/></svg>