<svg xmlns="http://www.w3.org/2000/svg"  viewBox="0 0 48 48" width="50px" height="50px"><path d="M 27.5 8 A 2.5 2.5 0 0 0 26.226562 12.652344 L 24.820312 14.058594 C 23.15116 13.277579 21.10227 13.534449 19.732422 14.904297 L 18.808594 15.828125 C 18.046525 16.590194 17.030632 17.045121 15.925781 17.134766 C 13.722482 17.313988 11.16875 18.757785 8.953125 21.457031 C 6.7374998 24.156277 5 28.1775 5 33.5 A 1.50015 1.50015 0 0 0 5.0019531 33.554688 C 4.251019 35.145212 3.6897156 36.842044 3.3574219 38.621094 C 3.2034375 39.446768 3.2923712 40.26225 3.5625 41 L 2.5 41 A 1.50015 1.50015 0 1 0 2.5 44 L 7.7753906 44 L 40.224609 44 L 45.5 44 A 1.50015 1.50015 0 1 0 45.5 41 L 44.439453 41 C 44.70947 40.262273 44.79701 39.446796 44.642578 38.621094 C 43.832858 34.284814 41.679339 30.430227 38.648438 27.474609 L 40.060547 26.060547 C 41.364628 24.756464 41.641192 22.79998 40.917969 21.203125 L 42.349609 19.771484 A 2.5 2.5 0 0 0 44.5 21 A 2.5 2.5 0 0 0 44.5 16 A 2.5 2.5 0 0 0 43.929688 16.068359 A 2.5 2.5 0 0 0 41.5 13 A 2.5 2.5 0 0 0 40.226562 17.652344 L 38.796875 19.082031 C 38.227219 18.824152 37.616087 18.681641 37 18.681641 C 35.889101 18.681641 34.778315 19.100591 33.939453 19.939453 L 32.5 21.378906 C 32.005693 21.873213 31.452786 22.298589 30.859375 22.667969 C 29.235625 22.106372 27.528404 21.729207 25.753906 21.582031 L 26.042969 21.320312 A 1.50015 1.50015 0 0 0 26.095703 21.267578 C 27.465551 19.89773 27.722421 17.848839 26.941406 16.179688 L 28.349609 14.771484 A 2.5 2.5 0 0 0 30.5 16 A 2.5 2.5 0 0 0 30.5 11 A 2.5 2.5 0 0 0 29.929688 11.068359 A 2.5 2.5 0 0 0 27.5 8 z M 22.914062 16.576172 C 23.294552 16.576172 23.675042 16.725823 23.974609 17.025391 C 24.572143 17.622924 24.570856 18.541367 23.976562 19.140625 L 21.494141 21.386719 A 1.5003823 1.5003823 0 0 0 21.232422 21.703125 C 16.365757 22.346616 12.025494 24.64944 8.7988281 28.039062 C 9.4025985 26.114142 10.286874 24.560857 11.271484 23.361328 C 13.055359 21.188074 15.275221 20.197777 16.169922 20.125 C 17.949071 19.980645 19.645755 19.23315 20.929688 17.949219 L 21.853516 17.025391 C 22.153083 16.725823 22.533573 16.576172 22.914062 16.576172 z M 37 21.662109 C 37.336601 21.662109 37.673315 21.794409 37.939453 22.060547 C 38.471729 22.592822 38.471729 23.407178 37.939453 23.939453 L 36.5 25.380859 C 34.555512 27.325347 33.424117 29.819361 32.910156 32.402344 A 1.50015 1.50015 0 0 0 32.908203 32.416016 C 32.910803 32.402426 32.903491 32.436152 32.900391 32.451172 C 32.517057 34.280683 30.907679 35.750679 29.050781 35.96875 C 26.08874 36.314665 23.687715 33.915589 24.03125 30.955078 C 24.246298 29.096501 25.718161 27.483769 27.548828 27.099609 A 1.50015 1.50015 0 0 0 27.572266 27.09375 C 27.557496 27.09715 27.590489 27.091644 27.599609 27.089844 L 27.605469 27.087891 C 28.986843 26.813708 30.338627 26.355405 31.597656 25.697266 A 1.50015 1.50015 0 0 0 31.90625 25.529297 C 32.884497 24.984294 33.803709 24.317385 34.621094 23.5 L 36.060547 22.060547 C 36.326685 21.794409 36.663399 21.662109 37 21.662109 z M 24 24.5 C 24.5532 24.5 25.098897 24.527571 25.638672 24.576172 C 23.16832 25.596174 21.367498 27.895193 21.052734 30.609375 C 20.49627 35.404864 24.602479 39.507351 29.398438 38.947266 C 32.566778 38.576596 35.183348 36.190302 35.837891 33.066406 A 1.50015 1.50015 0 0 0 35.841797 33.039062 C 35.838097 33.058723 35.845596 33.028511 35.853516 32.988281 C 36.068781 31.906434 36.410126 30.878169 36.882812 29.9375 C 39.312169 32.428517 41.028838 35.613173 41.693359 39.171875 C 41.878735 40.163025 41.208917 41 40.224609 41 L 7.7753906 41 C 6.7925645 41 6.121755 40.163245 6.3066406 39.171875 C 7.866054 30.823016 15.179 24.5 24 24.5 z"/></svg>