<svg xmlns="http://www.w3.org/2000/svg"  viewBox="0 0 48 48" width="50px" height="50px"><path d="M 9.4414062 2.0390625 A 1.50015 1.50015 0 0 0 8.4472656 2.4023438 C 8.4472656 2.4023438 6.3633408 4.1922711 4.2851562 6.8242188 C 2.2069718 9.4561662 0 12.961502 0 16.796875 C 0 22.345559 4.1575316 27.009766 9.4257812 27.009766 C 14.693802 27.009766 18.851562 22.346406 18.851562 16.796875 C 18.851562 12.961502 16.644591 9.4561662 14.566406 6.8242188 C 12.488222 4.1922711 10.404297 2.4023437 10.404297 2.4023438 A 1.50015 1.50015 0 0 0 9.4414062 2.0390625 z M 23.150391 3.0195312 C 20.500391 3.1485313 18.004828 3.908625 15.798828 5.140625 C 16.402828 5.882625 17.012703 6.7050313 17.595703 7.5820312 C 19.325703 6.6790313 21.254828 6.114625 23.298828 6.015625 C 23.535828 6.005625 23.771812 6 24.007812 6 C 27.622812 6 31.023344 7.355375 33.652344 9.859375 C 36.456344 12.529375 38 16.131 38 20 C 38 20.914 37.908516 21.832516 37.728516 22.728516 C 37.124516 25.713516 37.485187 28.673969 37.867188 30.917969 C 37.992188 31.651969 38.028562 32.404297 37.976562 33.154297 C 37.576563 39.008297 34.653203 41.975609 29.283203 41.974609 L 29.234375 41.974609 C 24.243375 41.958609 19.827938 36.638094 19.085938 33.746094 C 18.972938 33.305094 18.664 32.940906 18.25 32.753906 C 16.06 31.764906 14.227703 30.268219 12.845703 28.449219 C 11.813703 28.796219 10.717031 28.984 9.5820312 29 C 11.207031 31.599 13.531437 33.761359 16.398438 35.193359 C 17.768438 38.945359 22.837563 44.953609 29.226562 44.974609 L 29.28125 44.974609 C 36.20625 44.974609 40.466703 40.742422 40.970703 33.357422 C 41.037703 32.372422 40.989219 31.382063 40.824219 30.414062 C 40.486219 28.427063 40.163922 25.823266 40.669922 23.322266 C 40.889922 22.229266 41 21.112 41 20 C 41 15.302 39.124656 10.9295 35.722656 7.6875 C 32.320656 4.4485 27.852391 2.7895313 23.150391 3.0195312 z M 9.4257812 5.7167969 C 10.055065 6.2972254 10.816038 6.9150495 12.210938 8.6816406 C 14.095752 11.068693 15.851563 14.192248 15.851562 16.796875 C 15.851562 18.444382 15.36556 19.933082 14.5625 21.128906 C 14.582717 20.950517 14.59375 20.769549 14.59375 20.585938 C 14.59375 18.394246 13.567184 16.418648 12.626953 14.90625 C 11.686723 13.393852 10.738281 12.324219 10.738281 12.324219 A 1.50015 1.50015 0 0 0 9.6835938 11.820312 A 1.50015 1.50015 0 0 0 8.4980469 12.318359 C 8.4980469 12.318359 7.5451488 13.379433 6.6035156 14.888672 C 5.6618825 16.397911 4.6367187 18.380396 4.6367188 20.585938 C 4.6367188 21.016453 4.7113571 21.426254 4.8183594 21.824219 C 3.7009778 20.538309 3 18.779931 3 16.796875 C 3 14.192248 4.7558095 11.068693 6.640625 8.6816406 C 8.0355245 6.9150495 8.7964976 6.2972254 9.4257812 5.7167969 z M 19.896484 12 C 20.263484 12.974 20.543219 13.977 20.699219 15 L 31.5 15 C 32.329 15 33 14.329 33 13.5 C 33 12.671 32.329 12 31.5 12 L 19.896484 12 z M 9.6113281 15.847656 C 9.8253963 16.145621 9.8442118 16.110834 10.080078 16.490234 C 10.878848 17.775086 11.59375 19.434629 11.59375 20.585938 C 11.59375 21.642065 10.741856 22.494141 9.6152344 22.494141 C 8.4891329 22.494141 7.6367186 21.640625 7.6367188 20.585938 C 7.6367188 19.408478 8.3510707 17.754574 9.1484375 16.476562 C 9.3811608 16.103556 9.3997595 16.140819 9.6113281 15.847656 z M 20.439453 20 C 20.167453 21.065 19.766953 22.071 19.251953 23 L 33.5 23 C 34.329 23 35 22.329 35 21.5 C 35 20.671 34.329 20 33.5 20 L 20.439453 20 z M 19.5 27 C 18.671 27 18 27.671 18 28.5 C 18 29.329 18.671 30 19.5 30 L 32.5 30 C 33.329 30 34 29.329 34 28.5 C 34 27.671 33.329 27 32.5 27 L 19.5 27 z M 25.5 34 C 24.671 34 24 34.671 24 35.5 C 24 36.329 24.671 37 25.5 37 L 32.5 37 C 33.329 37 34 36.329 34 35.5 C 34 34.671 33.329 34 32.5 34 L 25.5 34 z"/></svg>