<svg xmlns="http://www.w3.org/2000/svg"  viewBox="0 0 48 48" width="50px" height="50px"><path d="M 42.470703 1.9863281 A 1.50015 1.50015 0 0 0 41.439453 2.4394531 L 39.066406 4.8125 C 38.179886 4.2821228 37.152608 3.9656056 36.054688 3.9492188 L 36.044922 3.9492188 L 36.033203 3.9492188 C 33.275604 3.9492188 30.857517 5.8423504 30.193359 8.5175781 L 30.203125 8.4785156 C 30.178515 8.5675366 30.111275 8.6339188 30.017578 8.65625 L 30 8.6601562 L 29.982422 8.6640625 C 27.888732 9.2174106 26.249405 10.858366 25.697266 12.951172 L 25.697266 12.953125 L 25.695312 12.957031 C 25.666512 13.067865 25.586582 13.149952 25.472656 13.179688 L 25.470703 13.179688 L 25.46875 13.181641 C 23.374779 13.734715 21.734715 15.374779 21.181641 17.46875 L 21.179688 17.470703 L 21.179688 17.474609 C 21.150887 17.585443 21.069003 17.66753 20.955078 17.697266 L 20.953125 17.697266 L 20.951172 17.697266 C 18.858054 18.250466 17.21739 19.890158 16.664062 21.982422 L 16.660156 22.001953 L 16.65625 22.019531 C 16.63492 22.109651 16.569221 22.177362 16.476562 22.203125 L 16.517578 22.193359 C 13.841896 22.85763 11.949219 25.276275 11.949219 28.033203 L 11.949219 28.044922 L 11.949219 28.054688 C 11.965608 29.152838 12.281916 30.17977 12.8125 31.066406 L 12.039062 31.839844 C 10.133987 33.74492 9.856 36.808 11.5 39 A 1.50015 1.50015 0 0 0 11.515625 39.021484 C 11.946436 39.575384 12.142756 40.272667 11.9375 41.162109 A 1.50015 1.50015 0 0 0 11.933594 41.185547 C 11.772445 41.937523 10.97801 42.756586 10.144531 43.023438 C 8.343058 43.308901 7 42.054748 7 40.5 A 1.50015 1.50015 0 1 0 4 40.5 C 4 43.92 7.2192597 46.63279 10.773438 45.974609 A 1.50015 1.50015 0 0 0 10.912109 45.941406 C 12.852649 45.386966 14.422892 43.848086 14.861328 41.824219 C 15.250652 40.118383 14.851308 38.422385 13.884766 37.179688 L 13.900391 37.199219 C 13.144391 36.191219 13.265233 34.855861 14.160156 33.960938 L 14.933594 33.1875 C 15.820112 33.717893 16.847378 34.034394 17.945312 34.050781 L 17.955078 34.050781 L 17.966797 34.050781 C 20.724396 34.050781 23.142483 32.15765 23.806641 29.482422 L 23.796875 29.521484 C 23.821485 29.432464 23.888725 29.366081 23.982422 29.34375 L 24 29.339844 L 24.017578 29.335938 C 26.11127 28.782585 27.750595 27.141634 28.302734 25.048828 L 28.302734 25.046875 L 28.304688 25.042969 C 28.333488 24.932135 28.413418 24.850049 28.527344 24.820312 L 28.529297 24.820312 L 28.53125 24.818359 C 30.625221 24.265285 32.265285 22.625221 32.818359 20.53125 L 32.820312 20.529297 L 32.820312 20.525391 C 32.849112 20.414557 32.930997 20.33247 33.044922 20.302734 L 33.046875 20.302734 L 33.048828 20.302734 C 35.141946 19.749534 36.78261 18.109842 37.335938 16.017578 L 37.339844 15.998047 L 37.34375 15.980469 C 37.36508 15.890349 37.430779 15.822638 37.523438 15.796875 L 37.482422 15.806641 C 40.158104 15.14237 42.050781 12.723725 42.050781 9.9667969 L 42.050781 9.9550781 L 42.050781 9.9453125 C 42.034302 8.8471935 41.718123 7.8202159 41.1875 6.9335938 L 43.560547 4.5605469 A 1.50015 1.50015 0 0 0 42.470703 1.9863281 z M 36.019531 6.953125 C 37.694442 6.984024 39.015976 8.3055584 39.046875 9.9804688 C 39.040175 11.367114 38.107205 12.560013 36.759766 12.894531 L 36.740234 12.900391 L 36.71875 12.90625 C 35.581407 13.222487 34.698449 14.13718 34.425781 15.289062 L 34.435547 15.25 C 34.156873 16.303736 33.338086 17.123544 32.283203 17.402344 C 31.127203 17.705752 30.218791 18.613773 29.917969 19.771484 L 29.917969 19.765625 C 29.639043 20.821654 28.821654 21.639043 27.765625 21.917969 C 26.609274 22.221183 25.701277 23.131104 25.400391 24.289062 C 25.120991 25.339339 24.302284 26.157434 23.25 26.435547 L 23.287109 26.425781 C 22.13881 26.69945 21.21969 27.579724 20.904297 28.720703 L 20.900391 28.740234 L 20.894531 28.759766 C 20.559901 30.107657 19.368418 31.04014 17.980469 31.046875 C 16.305558 31.015975 14.984024 29.694442 14.953125 28.019531 C 14.959825 26.632886 15.892795 25.439987 17.240234 25.105469 L 17.259766 25.099609 L 17.28125 25.09375 C 18.418593 24.777513 19.301551 23.862821 19.574219 22.710938 L 19.564453 22.75 C 19.842742 21.697721 20.66012 20.879514 21.712891 20.599609 L 21.716797 20.597656 C 22.872797 20.294248 23.781209 19.386227 24.082031 18.228516 L 24.082031 18.234375 C 24.360957 17.178346 25.178346 16.360957 26.234375 16.082031 C 27.388711 15.779348 28.295177 14.871869 28.597656 13.716797 L 28.599609 13.710938 C 28.879009 12.660661 29.697716 11.842566 30.75 11.564453 L 30.712891 11.574219 C 31.861181 11.300641 32.78031 10.420276 33.095703 9.2792969 L 33.099609 9.2597656 L 33.105469 9.2402344 C 33.440099 7.8923427 34.631582 6.9598597 36.019531 6.953125 z"/></svg>