<svg xmlns="http://www.w3.org/2000/svg"  viewBox="0 0 48 48" width="50px" height="50px"><path d="M 23.150391 3.0214844 C 14.453964 3.4456467 7.3685814 10.591886 7.0136719 19.291016 C 6.7298944 26.240386 10.69091 32.260641 16.478516 35.144531 C 17.14856 37.122003 18.505961 39.267796 20.537109 41.15625 C 22.786599 43.247705 25.787688 44.965419 29.224609 44.976562 C 31.479702 44.983918 33.409661 44.529862 35.011719 43.736328 A 1.5004352 1.5004352 0 0 0 35.498047 43.484375 C 36.422793 42.962797 37.230801 42.323807 37.902344 41.578125 C 39.712673 39.567931 40.531318 36.948556 40.837891 34.265625 A 1.50015 1.50015 0 0 0 40.933594 33.742188 L 40.933594 33.681641 L 40.933594 33.677734 C 40.932194 33.682934 40.935447 33.645369 40.935547 33.636719 C 40.935962 33.598829 40.935229 33.552618 40.935547 33.492188 C 40.936182 33.371319 40.937 33.201369 40.9375 32.988281 C 40.938392 32.562105 40.939053 31.963128 40.939453 31.248047 C 40.940063 29.817886 40.940266 27.923622 40.939453 26.035156 C 40.93769 22.258225 40.933594 18.5 40.933594 18.5 A 1.50015 1.50015 0 0 0 40.845703 18 C 39.817048 9.2909817 32.210323 2.579326 23.150391 3.0214844 z M 23.296875 6.0175781 C 27.354664 5.819543 31.032276 7.3478912 33.699219 9.9179688 C 32.756511 10.90909 31.803945 11.892621 30.84375 12.90625 C 29.930003 13.870581 28.99243 15.025053 28.439453 16.492188 C 27.505102 18.972814 28.0315 21.349716 28.419922 23.363281 C 28.714366 24.889673 28.800016 26.147504 28.617188 27.310547 C 27.992376 26.147412 27.200037 24.676796 27.117188 24.5 C 25.983704 22.079764 23.990152 20.548736 21.871094 19.464844 C 19.549782 18.277302 18.009558 16.811562 17.076172 14.470703 C 16.407185 12.794195 16.065991 10.908026 15.673828 8.9199219 A 1.50015 1.50015 0 0 0 15.650391 8.8242188 C 17.817951 7.1905523 20.45271 6.1563004 23.296875 6.0175781 z M 13.097656 11.292969 C 13.385357 12.703065 13.713274 14.139083 14.289062 15.582031 C 14.776179 16.80368 15.531741 17.769697 16.316406 18.703125 C 14.489787 19.63661 12.107361 20.8373 10.126953 21.845703 C 10.022773 21.054042 9.9778582 20.243267 10.011719 19.414062 C 10.135886 16.370615 11.279941 13.554832 13.097656 11.292969 z M 35.638672 12.228516 C 36.886645 14.099098 37.702799 16.283315 37.929688 18.644531 A 1.50015 1.50015 0 0 0 37.933594 18.671875 C 37.933735 18.835717 37.937853 22.346194 37.939453 26.037109 C 37.940266 27.925143 37.940062 29.81763 37.939453 31.246094 C 37.939149 31.960326 37.9384 32.55952 37.9375 32.982422 C 37.937057 33.193873 37.936147 33.361796 37.935547 33.476562 C 37.935264 33.530473 37.93583 33.570132 37.935547 33.597656 A 1.50015 1.50015 0 0 0 37.935547 33.601562 C 37.709397 36.000503 36.98841 38.110599 35.673828 39.570312 C 35.543841 39.71465 35.402278 39.850318 35.259766 39.984375 C 35.1705 39.793896 35.112383 39.64921 35.009766 39.4375 C 34.526498 38.440471 33.854308 37.146662 33.164062 35.828125 C 33.723452 34.971051 34 33.982706 34 33 C 34 31.791667 33.604336 30.563179 32.746094 29.597656 C 32.411525 29.221266 32.000703 28.897988 31.535156 28.640625 C 32.108251 26.564108 31.703505 24.54851 31.365234 22.794922 C 30.973811 20.765791 30.679309 19.062706 31.248047 17.550781 L 31.248047 17.548828 C 31.583226 16.660444 32.237634 15.795993 33.021484 14.96875 C 33.880905 14.061504 34.761711 13.146935 35.638672 12.228516 z M 18.722656 20.847656 C 19.321721 21.272242 19.834992 21.792561 20.503906 22.134766 A 1.50015 1.50015 0 0 0 20.505859 22.134766 C 22.300802 23.052874 23.625874 24.117721 24.400391 25.771484 A 1.50015 1.50015 0 0 0 24.400391 25.773438 C 24.639413 26.283494 25.275387 27.462232 26.052734 28.896484 C 25.755352 29.102798 25.485808 29.336767 25.253906 29.597656 C 24.395664 30.563179 24 31.791667 24 33 C 24 34.208333 24.395664 35.436821 25.253906 36.402344 C 26.112148 37.367867 27.458334 38 29 38 C 29.624712 38 30.214804 37.892796 30.755859 37.705078 C 31.32553 38.800937 31.915014 39.930069 32.310547 40.746094 C 32.459542 41.053485 32.542033 41.249936 32.654297 41.496094 C 31.706145 41.803447 30.591006 41.980988 29.234375 41.976562 C 26.811296 41.968663 24.447839 40.695529 22.580078 38.958984 C 20.712317 37.22244 19.402152 34.988056 19.083984 33.748047 A 1.50015 1.50015 0 0 0 18.25 32.753906 C 14.843897 31.215192 12.164391 28.363568 10.863281 24.835938 C 13.22458 23.62992 16.747882 21.869739 18.722656 20.847656 z M 29 31 C 29.791666 31 30.195482 31.242867 30.503906 31.589844 C 30.81233 31.936821 31 32.458333 31 33 C 31 33.541667 30.81233 34.063179 30.503906 34.410156 C 30.195482 34.757133 29.791666 35 29 35 C 28.208334 35 27.804518 34.757133 27.496094 34.410156 C 27.18767 34.063179 27 33.541667 27 33 C 27 32.458333 27.18767 31.936821 27.496094 31.589844 C 27.678289 31.384874 27.905783 31.224799 28.214844 31.121094 A 1.50015 1.50015 0 0 0 28.677734 31.025391 C 28.781926 31.014474 28.878631 31 29 31 z"/></svg>