<svg xmlns="http://www.w3.org/2000/svg"  viewBox="0 0 48 48" width="50px" height="50px"><path d="M 36.5 3.8222656 C 32.849202 3.8222656 30.452783 5.8953966 28.992188 7.5722656 A 1.50015 1.50015 0 0 0 28.517578 7.9296875 C 28.465971 7.9865015 28.421985 8.0499452 28.371094 8.1074219 C 26.224668 7.4348663 23.933858 7 21.5 7 C 15.520527 7 10.463357 9.3130472 7.1347656 12.884766 C 6.5438509 12.811405 6.0411269 12.69902 5.7832031 12.460938 C 5.4555419 12.15848 5.2200221 11.696495 5.0800781 11.136719 C 4.8001901 10.017167 4.9804688 8.7460937 4.9804688 8.7460938 A 1.5007831 1.5007831 0 0 0 2.0195312 8.2539062 C 2.0195312 8.2539062 1.6998099 9.9828335 2.1699219 11.863281 C 2.4049779 12.803505 2.8569581 13.841519 3.7480469 14.664062 C 4.1337924 15.020136 4.6298167 15.286265 5.1582031 15.509766 C 3.8186581 17.749407 3 20.270639 3 23 C 3 24.731034 3.3854336 26.348412 4.0019531 27.841797 C 3.9790291 28.130116 3.7996821 30.223864 3.9453125 33.101562 C 4.1005692 36.169472 4.5038752 39.787323 6.2949219 42.332031 C 7.0465977 43.40003 8.2732602 44 9.5449219 44 C 11.882949 44 13.729415 41.927998 13.5 39.613281 C 13.258 37.183237 13.57035 35.909302 13.853516 35.232422 C 15.581216 36.466454 17.5886 37.277668 19.5625 37.650391 C 21.658854 38.046235 23.428784 38.090282 24.75 38.013672 L 28.548828 42.460938 L 28.519531 42.423828 C 29.315194 43.418403 30.521997 44 31.796875 44 C 34.601192 44 36.65051 41.1845 35.791016 38.515625 L 34.261719 33.763672 L 42.380859 30.099609 L 42.380859 30.101562 C 44.580772 29.110564 46 26.91198 46 24.5 C 46 22.032499 43.967501 20 41.5 20 L 40.517578 20 C 40.055261 18.038437 39.223436 16.207572 38 14.59375 L 38 5.3222656 A 1.50015 1.50015 0 0 0 36.5 3.8222656 z M 35 7.1210938 L 35 15.001953 A 1.50015 1.50015 0 0 0 35.341797 15.955078 C 36.750286 17.665965 37.650284 19.609775 37.916016 21.689453 A 1.50015 1.50015 0 0 0 39.404297 23 L 41.5 23 C 42.346499 23 43 23.653501 43 24.5 C 43 25.74002 42.278525 26.856186 41.148438 27.365234 L 32.021484 31.482422 C 28.836475 28.717695 26.822266 24.647102 26.822266 20.087891 C 26.822266 16.676794 27.947837 13.545011 29.849609 11.021484 A 1.50015 1.50015 0 0 0 30.175781 10.693359 C 30.912389 9.6711435 32.685759 7.7767927 35 7.1210938 z M 21.5 10 C 23.247029 10 24.917917 10.231173 26.494141 10.632812 C 24.802455 13.386772 23.822266 16.626399 23.822266 20.087891 C 23.822266 21.431331 23.977074 22.738571 24.255859 24 L 15 24 L 15 11.101562 C 16.930488 10.401283 19.107863 10 21.5 10 z M 12 12.599609 L 12 31 L 6.9609375 31 C 6.9835325 29.612684 6.9941406 27.744141 6.9941406 27.744141 A 1.50015 1.50015 0 0 0 6.8671875 27.003906 C 6.3097767 25.763952 6 24.440193 6 23 C 6 18.749799 8.2461995 14.97832 12 12.599609 z M 15 27 L 25.199219 27 C 26.512478 30.170415 28.697476 32.888603 31.458984 34.847656 L 31.507812 35 L 25.5 35 A 1.50015 1.50015 0 0 0 25.431641 35.001953 A 1.50015 1.50015 0 0 0 25.242188 35.011719 C 24.524971 35.103169 22.309491 35.116719 20.119141 34.703125 C 18.111916 34.324029 16.188523 33.525993 15 32.458984 L 15 27 z M 7.078125 34 L 11.123047 34 C 10.583013 35.25517 10.232148 37.083229 10.513672 39.910156 C 10.573061 40.520432 10.146201 41 9.5449219 41 C 9.2145835 41 8.9183715 40.84747 8.7480469 40.605469 C 7.819987 39.286887 7.3031121 36.56999 7.078125 34 z M 28.683594 38 L 32.472656 38 L 32.935547 39.435547 C 33.198053 40.250672 32.652558 41 31.796875 41 C 31.431753 41 31.089668 40.836206 30.861328 40.550781 A 1.50015 1.50015 0 0 0 30.830078 40.513672 L 28.683594 38 z"/></svg>