<svg xmlns="http://www.w3.org/2000/svg"  viewBox="0 0 48 48" width="50px" height="50px"><path d="M 10 5.9980469 C 7.791 5.9980469 6 7.7890469 6 9.9980469 L 6 38.001953 C 6 40.210953 7.791 42.001953 10 42.001953 L 15.269531 42.001953 A 1.50015 1.50015 0 0 0 15.728516 42.001953 L 23.769531 42.001953 A 1.50015 1.50015 0 0 0 24.228516 42.001953 L 32.269531 42.001953 A 1.50015 1.50015 0 0 0 32.728516 42.001953 L 38 42.001953 C 40.209 42.001953 42 40.210953 42 38.001953 L 42 9.9980469 C 42 7.7890469 40.209 5.9980469 38 5.9980469 L 10 5.9980469 z M 10 8.9980469 L 14 8.9980469 L 14 20.109375 C 12.227014 21.437559 11 23.291891 11 25.5 C 11 27.892156 12.029396 29.835724 13.505859 31.105469 C 13.656325 31.234868 13.844386 31.294634 14.001953 31.412109 A 1.50015 1.50015 0 0 0 14 31.5 L 14 39.001953 L 10 39.001953 C 9.449 39.001953 9 38.552953 9 38.001953 L 9 9.9980469 C 9 9.4470469 9.449 8.9980469 10 8.9980469 z M 17 8.9980469 L 22.5 8.9980469 L 22.5 14.001953 C 21.179716 14.684562 20.020555 15.669545 19.128906 16.884766 C 18.602039 17.601826 17.825961 18.106082 17 18.4375 L 17 8.9980469 z M 25.5 8.9980469 L 31 8.9980469 L 31 14.419922 C 29.649296 13.594872 28.171845 13 26.5 13 C 26.155463 13 25.83479 13.08901 25.5 13.128906 L 25.5 8.9980469 z M 34 8.9980469 L 38 8.9980469 C 38.551 8.9980469 39 9.4470469 39 9.9980469 L 39 38.001953 C 39 38.552953 38.551 39.001953 38 39.001953 L 34 39.001953 L 34 30.5 A 1.50015 1.50015 0 0 0 33.943359 30.070312 C 35.235329 28.220636 36 25.969877 36 23.5 C 36 21.184486 35.177696 19.120186 34 17.361328 L 34 8.9980469 z M 26.5 16 C 30.006049 16 33 19.249579 33 23.5 C 33 25.683189 32.337704 27.5826 31.228516 28.896484 C 30.119327 30.210369 28.597 31 26.5 31 C 25.964955 31 25.052344 31.06108 23.734375 31.03125 C 22.416406 31.00142 20.800873 30.879216 19.287109 30.537109 C 17.773345 30.195003 16.382756 29.624786 15.460938 28.832031 C 14.539118 28.039276 14 27.107844 14 25.5 C 14 23.853364 15.367413 22.231045 17.724609 21.445312 C 19.254826 20.935655 20.594802 19.95952 21.548828 18.660156 C 22.768955 16.997255 24.531699 16 26.5 16 z M 24.476562 18.978516 A 1.50015 1.50015 0 0 0 23 20.5 L 23 26.5 A 1.50015 1.50015 0 1 0 26 26.5 L 26 20.5 A 1.50015 1.50015 0 0 0 24.476562 18.978516 z M 29.476562 20.978516 A 1.50015 1.50015 0 0 0 28 22.5 L 28 25.5 A 1.50015 1.50015 0 1 0 31 25.5 L 31 22.5 A 1.50015 1.50015 0 0 0 29.476562 20.978516 z M 19.476562 22.978516 A 1.50015 1.50015 0 0 0 18 24.5 L 18 26.5 A 1.50015 1.50015 0 1 0 21 26.5 L 21 24.5 A 1.50015 1.50015 0 0 0 19.476562 22.978516 z M 31 32.751953 L 31 39.001953 L 25.5 39.001953 L 25.5 34.011719 C 25.784941 34.002916 26.432796 34 26.5 34 C 28.197922 34 29.675507 33.488763 31 32.751953 z M 17 32.945312 C 17.541594 33.127418 18.078592 33.339404 18.625 33.462891 C 20.012411 33.776442 21.2801 33.834008 22.5 33.900391 L 22.5 39.001953 L 17 39.001953 L 17 32.945312 z"/></svg>