<svg xmlns="http://www.w3.org/2000/svg"  viewBox="0 0 48 48" width="50px" height="50px"><path d="M 9.1503906 4 C 6.3233787 4 4.0005506 6.3249298 4.0019531 9.1523438 L 4.0019531 13.849609 C 4.0019531 16.676125 6.3247338 19 9.1523438 19 C 11.898002 19 14.629701 19.382074 17.269531 20.136719 C 21.668709 21.393627 26.331291 21.393627 30.730469 20.136719 C 33.370299 19.382074 36.103951 19 38.849609 19 C 41.676621 19 43.999449 16.675668 43.998047 13.847656 L 43.998047 9.1503906 C 43.998047 6.3238748 41.675266 4 38.847656 4 C 35.823315 4 32.81442 4.4205982 29.90625 5.2519531 C 26.045428 6.3550453 21.954572 6.3550453 18.09375 5.2519531 C 15.18558 4.4205982 12.174732 4 9.1503906 4 z M 9.1503906 7 C 11.896049 7 14.629701 7.3820735 17.269531 8.1367188 C 21.668709 9.3936266 26.331291 9.3936266 30.730469 8.1367188 C 33.370299 7.3820735 36.101998 7 38.847656 7 C 40.054046 7 40.998047 7.9449065 40.998047 9.1503906 L 40.998047 9.3496094 L 38.849609 9.3496094 C 35.825268 9.3496094 32.81442 9.7702081 29.90625 10.601562 C 26.045428 11.704655 21.954572 11.704655 18.09375 10.601562 C 15.18558 9.7702081 12.176685 9.3496094 9.1523438 9.3496094 L 7.0019531 9.3496094 L 7.0019531 9.1503906 C 7.0013556 7.9458045 7.9454025 7 9.1503906 7 z M 7.0019531 12.349609 L 9.1523438 12.349609 C 11.898002 12.349609 14.629701 12.731683 17.269531 13.486328 C 21.668709 14.743236 26.331291 14.743236 30.730469 13.486328 C 33.370299 12.731683 36.103951 12.349609 38.849609 12.349609 L 40.998047 12.349609 L 40.998047 13.847656 A 1.50015 1.50015 0 0 0 40.998047 13.849609 C 40.998645 15.055551 40.054597 16 38.849609 16 C 35.825268 16 32.81442 16.420598 29.90625 17.251953 C 26.045428 18.355045 21.954572 18.355045 18.09375 17.251953 C 15.18558 16.420598 12.176685 16 9.1523438 16 C 7.9459535 16 7.0019531 15.055094 7.0019531 13.849609 L 7.0019531 12.349609 z M 9.1523438 26.001953 C 6.3258278 26.001953 4.0019531 28.324734 4.0019531 31.152344 L 4.0019531 35.849609 C 4.0019531 38.676125 6.3247338 41 9.1523438 41 C 11.898002 41 14.629701 41.382074 17.269531 42.136719 C 21.668709 43.393627 26.331291 43.393627 30.730469 42.136719 C 33.370299 41.382074 36.103951 41 38.849609 41 C 41.676621 41 44 38.676621 44 35.849609 L 44 31.152344 C 44 28.325828 41.677219 26.001953 38.849609 26.001953 C 35.825268 26.001953 32.81442 26.422551 29.90625 27.253906 C 26.045428 28.356998 21.954572 28.356998 18.09375 27.253906 C 15.18558 26.422551 12.176685 26.001953 9.1523438 26.001953 z M 9.1523438 29.001953 C 11.898002 29.001953 14.629701 29.384027 17.269531 30.138672 C 21.668709 31.39558 26.331291 31.39558 30.730469 30.138672 C 33.370299 29.384027 36.103951 29.001953 38.849609 29.001953 C 40.056 29.001953 41 29.94686 41 31.152344 L 41 32.349609 L 38.849609 32.349609 C 35.825268 32.349609 32.81442 32.770209 29.90625 33.601562 C 26.045428 34.704656 21.954572 34.704656 18.09375 33.601562 C 15.18558 32.770209 12.176685 32.349609 9.1523438 32.349609 L 7.0019531 32.349609 L 7.0019531 31.152344 C 7.0019531 29.945954 7.9468595 29.001953 9.1523438 29.001953 z M 7.0019531 35.349609 L 9.1523438 35.349609 C 11.898002 35.349609 14.629701 35.731683 17.269531 36.486328 C 21.668709 37.743236 26.331291 37.743236 30.730469 36.486328 C 33.370299 35.731683 36.103951 35.349609 38.849609 35.349609 L 41 35.349609 L 41 35.849609 C 41 37.054597 40.054597 38 38.849609 38 C 35.825268 38 32.81442 38.420598 29.90625 39.251953 C 26.045428 40.355045 21.954572 40.355045 18.09375 39.251953 C 15.18558 38.420598 12.176685 38 9.1523438 38 C 7.9459535 38 7.0019531 37.055094 7.0019531 35.849609 L 7.0019531 35.349609 z"/></svg>