<svg xmlns="http://www.w3.org/2000/svg"  viewBox="0 0 48 48" width="50px" height="50px"><path d="M 24.373047 3.0058594 C 23.968866 2.9966515 23.561399 3.0014251 23.150391 3.0214844 C 14.453964 3.4456467 7.3685814 10.591886 7.0136719 19.291016 C 6.9259509 21.4392 7.3460567 23.450818 7.9921875 25.365234 C 7.9921875 25.365234 7.9921875 25.367188 7.9921875 25.367188 A 1.50015 1.50015 0 0 0 8.5878906 26.714844 C 9.9902664 29.910401 12.285786 32.536688 15.238281 34.345703 A 1.50015 1.50015 0 0 0 16.248047 34.996094 C 16.329787 35.038504 16.396009 35.103419 16.478516 35.144531 C 17.14856 37.122003 18.505961 39.267796 20.537109 41.15625 C 21.131003 41.70842 21.902805 42.100771 22.595703 42.576172 A 1.50015 1.50015 0 0 0 23.953125 43.511719 C 25.553299 44.358896 27.293252 44.970301 29.224609 44.976562 C 33.191901 44.989663 36.18574 43.600639 38.080078 41.382812 C 39.974416 39.164986 40.771477 36.277765 40.970703 33.359375 C 41.039863 32.351506 40.985863 31.365404 40.824219 30.416016 C 40.406993 27.963 40.215546 25.563224 40.667969 23.324219 A 1.50015 1.50015 0 0 0 40.667969 23.322266 C 40.884149 22.249048 41 21.138254 41 20 C 41 17.138773 40.220384 14.481886 38.964844 12.113281 A 1.50015 1.50015 0 0 0 38.582031 11.431641 C 35.679966 6.517708 30.435755 3.1439772 24.373047 3.0058594 z M 24.144531 6.0058594 C 24.985124 6.023006 25.804172 6.1230929 26.605469 6.2734375 L 22.5 10.378906 L 19.083984 6.9628906 C 20.415668 6.4505981 21.8176 6.0897288 23.296875 6.0175781 C 23.58213 6.0036561 23.864334 6.0001438 24.144531 6.0058594 z M 29.806641 7.3144531 C 32.180807 8.3998636 34.201479 10.092628 35.634766 12.244141 L 30 17.878906 L 24.621094 12.5 L 29.806641 7.3144531 z M 16.417969 8.5390625 L 20.378906 12.5 L 14.5 18.378906 L 11.021484 14.900391 C 12.088424 12.2381 14.055383 10.12284 16.417969 8.5390625 z M 22.5 14.621094 L 27.878906 20 L 22 25.878906 L 16.621094 20.5 L 22.5 14.621094 z M 37.052734 15.068359 C 37.632363 16.60795 38 18.253993 38 20 C 38 20.935746 37.904381 21.847687 37.726562 22.730469 L 37.728516 22.730469 C 37.546669 23.630415 37.561704 24.517651 37.529297 25.408203 L 32.121094 20 L 37.052734 15.068359 z M 10.167969 18.289062 L 12.378906 20.5 L 10.359375 22.519531 C 10.172157 21.505673 9.9676019 20.494426 10.011719 19.414062 C 10.027399 19.029809 10.120644 18.665551 10.167969 18.289062 z M 30 22.121094 L 35.878906 28 L 30 33.878906 L 24.121094 28 L 30 22.121094 z M 14.5 22.621094 L 19.878906 28 L 16.345703 31.533203 C 14.178082 30.094084 12.481875 28.117613 11.390625 25.730469 L 14.5 22.621094 z M 22 30.121094 L 27.878906 36 L 23.962891 39.916016 C 23.504826 39.585449 22.994129 39.343947 22.580078 38.958984 C 20.712317 37.22244 19.402152 34.988056 19.083984 33.748047 A 1.50015 1.50015 0 0 0 18.859375 33.261719 L 22 30.121094 z M 37.800781 30.320312 C 37.831591 30.516779 37.834057 30.72518 37.867188 30.919922 C 37.98954 31.638534 38.029406 32.384166 37.976562 33.154297 C 37.805788 35.655907 37.11649 37.89092 35.798828 39.433594 C 35.762218 39.476464 35.695799 39.495074 35.658203 39.537109 L 32.121094 36 L 37.800781 30.320312 z M 30 38.121094 L 33.179688 41.300781 C 32.127952 41.728057 30.852119 41.981904 29.234375 41.976562 C 28.382352 41.973762 27.566459 41.653594 26.748047 41.373047 L 30 38.121094 z"/></svg>