<svg xmlns="http://www.w3.org/2000/svg"  viewBox="0 0 48 48" width="50px" height="50px"><path d="M 23.998047 4.5507812 C 12.952047 4.5507812 3.999 13.256047 4 23.998047 C 4.001 34.739047 12.956953 43.448219 24.001953 43.449219 C 35.047953 43.449219 44.001 34.743953 44 24.001953 C 43.999 13.260953 35.043047 4.5517813 23.998047 4.5507812 z M 23.998047 7.5507812 C 33.372047 7.5517813 41 14.931953 41 24.001953 C 41 28.379953 39.243734 32.498562 36.052734 35.601562 C 32.838734 38.726562 28.558953 40.448266 24.001953 40.447266 C 14.626953 40.447266 7.001 33.068047 7 23.998047 C 7 19.620047 8.7562656 15.501438 11.947266 12.398438 C 15.161266 9.2724375 19.441047 7.5507813 23.998047 7.5507812 z M 24 10.208984 C 23.026389 10.208977 22.052976 10.486557 21.207031 11.042969 A 1.50015 1.50015 0 0 0 21.205078 11.042969 C 20.830354 11.28988 20.388179 11.409038 19.939453 11.382812 C 17.917283 11.263862 16.009625 12.365324 15.101562 14.175781 C 14.900232 14.577278 14.575325 14.900233 14.173828 15.101562 A 1.50015 1.50015 0 0 0 14.173828 15.103516 C 12.364769 16.012292 11.261911 17.919277 11.380859 19.941406 C 11.406609 20.389667 11.289099 20.833192 11.042969 21.207031 C 9.9279039 22.898756 9.927904 25.103197 11.042969 26.794922 C 11.28988 27.169646 11.407084 27.611821 11.380859 28.060547 C 11.261908 30.082717 12.363371 31.990375 14.173828 32.898438 C 14.575325 33.099767 14.900233 33.424675 15.101562 33.826172 C 16.01034 35.635231 17.917324 36.738089 19.939453 36.619141 C 20.38773 36.592981 20.831041 36.711271 21.205078 36.957031 C 22.896803 38.072096 25.101244 38.072096 26.792969 36.957031 C 27.167693 36.71012 27.609868 36.592916 28.058594 36.619141 C 30.080764 36.738092 31.990375 35.636629 32.898438 33.826172 C 33.099767 33.424675 33.422722 33.099767 33.824219 32.898438 A 1.50015 1.50015 0 0 0 33.826172 32.898438 C 35.635231 31.98966 36.736135 30.082676 36.617188 28.060547 C 36.591028 27.612269 36.711268 27.168959 36.957031 26.794922 L 36.957031 26.792969 C 38.071023 25.101458 38.071738 22.898213 36.957031 21.207031 C 36.71012 20.832307 36.590963 20.390132 36.617188 19.941406 C 36.736139 17.919236 35.634676 16.009625 33.824219 15.101562 C 33.422722 14.900232 33.099767 14.577278 32.898438 14.175781 A 1.50015 1.50015 0 0 0 32.896484 14.173828 C 31.988004 12.365358 30.081942 11.264698 28.060547 11.382812 C 27.611624 11.409012 27.167346 11.289452 26.792969 11.042969 C 25.947342 10.486318 24.973611 10.208992 24 10.208984 z M 24 13.205078 C 24.397639 13.205071 24.794251 13.319527 25.142578 13.548828 C 26.056201 14.150344 27.141298 14.440751 28.234375 14.376953 C 29.068246 14.327903 29.841573 14.774544 30.216797 15.521484 C 30.707524 16.49933 31.502443 17.292773 32.480469 17.783203 C 33.226012 18.157141 33.672096 18.931795 33.623047 19.765625 C 33.559267 20.856899 33.848083 21.942146 34.451172 22.857422 C 34.910107 23.553697 34.910107 24.446303 34.451172 25.142578 A 1.50015 1.50015 0 0 0 34.451172 25.144531 C 33.849656 26.058154 33.559249 27.143251 33.623047 28.236328 C 33.672097 29.070199 33.225456 29.841573 32.478516 30.216797 C 31.500669 30.707523 30.707227 31.502443 30.216797 32.480469 C 29.842859 33.226012 29.068205 33.672096 28.234375 33.623047 C 27.143101 33.559267 26.057854 33.850036 25.142578 34.453125 C 24.446303 34.91206 23.553697 34.91206 22.857422 34.453125 A 1.50015 1.50015 0 0 0 22.855469 34.453125 C 21.941846 33.85161 20.856749 33.559249 19.763672 33.623047 C 18.929801 33.672097 18.158427 33.227409 17.783203 32.480469 C 17.292533 31.501965 16.498035 30.707467 15.519531 30.216797 C 14.773988 29.842859 14.327904 29.070158 14.376953 28.236328 C 14.440733 27.145054 14.149964 26.059807 13.546875 25.144531 A 1.50015 1.50015 0 0 0 13.546875 25.142578 C 13.08794 24.446303 13.08794 23.553697 13.546875 22.857422 C 14.14839 21.943799 14.440751 20.858702 14.376953 19.765625 C 14.327903 18.931754 14.772591 18.158427 15.519531 17.783203 C 16.498035 17.292533 17.292533 16.498035 17.783203 15.519531 C 18.157141 14.773988 18.929842 14.327904 19.763672 14.376953 C 20.854946 14.440733 21.940193 14.151917 22.855469 13.548828 C 23.204571 13.31924 23.602361 13.205086 24 13.205078 z M 23.976562 15.978516 A 1.50015 1.50015 0 0 0 22.5 17.5 L 22.5 18.5 A 1.50015 1.50015 0 1 0 25.5 18.5 L 25.5 17.5 A 1.50015 1.50015 0 0 0 23.976562 15.978516 z M 19.5 18 A 1.5 1.5 0 0 0 19.5 21 A 1.5 1.5 0 0 0 19.5 18 z M 28.5 18 A 1.5 1.5 0 0 0 28.5 21 A 1.5 1.5 0 0 0 28.5 18 z M 24 22 A 2 2 0 0 0 24 26 A 2 2 0 0 0 24 22 z M 17.5 22.5 A 1.50015 1.50015 0 1 0 17.5 25.5 L 18.5 25.5 A 1.50015 1.50015 0 1 0 18.5 22.5 L 17.5 22.5 z M 29.5 22.5 A 1.50015 1.50015 0 1 0 29.5 25.5 L 30.5 25.5 A 1.50015 1.50015 0 1 0 30.5 22.5 L 29.5 22.5 z M 19.5 27 A 1.5 1.5 0 0 0 19.5 30 A 1.5 1.5 0 0 0 19.5 27 z M 28.5 27 A 1.5 1.5 0 0 0 28.5 30 A 1.5 1.5 0 0 0 28.5 27 z M 23.976562 27.978516 A 1.50015 1.50015 0 0 0 22.5 29.5 L 22.5 30.5 A 1.50015 1.50015 0 1 0 25.5 30.5 L 25.5 29.5 A 1.50015 1.50015 0 0 0 23.976562 27.978516 z"/></svg>