<svg xmlns="http://www.w3.org/2000/svg"  viewBox="0 0 48 48" width="50px" height="50px"><path d="M 17 5 C 8.1913665 5 1 12.191366 1 21 C 1 25.424618 2.5559933 31.891579 7.3691406 36.742188 C 6.918366 37.80155 6.8656581 39.029985 7.3222656 40.171875 C 8.0212624 41.918324 9.7124624 43.001953 11.501953 43.001953 C 12.061632 43.001953 12.629688 42.894609 13.171875 42.677734 C 13.951564 42.365846 14.705826 42.038377 15.439453 41.697266 C 17.917358 42.522741 20.756263 43 24 43 C 27.245309 43 30.085241 42.521576 32.564453 41.695312 C 33.297824 42.034942 34.046128 42.365717 34.826172 42.677734 C 35.368359 42.894609 35.936415 43.001953 36.496094 43.001953 C 38.285585 43.001953 39.976784 41.918324 40.675781 40.171875 L 40.675781 40.169922 C 41.131119 39.029738 41.078353 37.802317 40.628906 36.744141 C 45.443568 31.89307 47 25.425186 47 21 C 47 12.191366 39.808634 5 31 5 C 28.470337 5 26.099402 5.5169387 24.017578 6.4375 C 21.93275 5.5177782 19.556836 5 17 5 z M 17 8 C 18.309634 8 19.539225 8.1725851 20.689453 8.4648438 C 19.740771 9.2315131 18.913959 10.107741 18.226562 11.076172 C 17.828782 11.03067 17.421578 11 17 11 C 11.499473 11 7 15.499473 7 21 C 7 21.339592 7.027413 23.586003 7.9570312 26.363281 C 8.694448 28.566349 10.04511 31.117357 12.408203 33.171875 C 11.595388 33.568865 10.745799 33.955158 9.828125 34.322266 C 9.6798263 34.381566 9.5504445 34.465858 9.4121094 34.539062 C 5.3878071 30.397139 4 24.669267 4 21 C 4 13.818634 9.8186335 8 17 8 z M 31 8 C 38.181366 8 44 13.818634 44 21 C 44 24.669267 42.612135 30.398922 38.587891 34.541016 C 38.44893 34.467316 38.318945 34.381921 38.169922 34.322266 L 38.167969 34.322266 C 37.251819 33.955758 36.399091 33.570705 35.587891 33.173828 C 37.954098 31.11727 39.307603 28.564084 40.044922 26.359375 C 40.973181 23.583722 41 21.338471 41 21 C 41 15.499473 36.500527 11 31 11 C 28.882945 11 26.752516 11.512924 25.029297 12.642578 C 23.306077 13.772232 22 15.672424 22 18 C 22 19.541906 22.157322 21.009636 22.460938 22.410156 C 22.070645 23.901605 21.471486 25.268568 20.634766 26.53125 C 19.558768 23.967288 19 21.141193 19 18 C 19 12.329296 23.946412 8 31 8 z M 16.679688 14.015625 C 16.239098 15.260621 16 16.596365 16 18 C 16 22.04675 16.846194 25.755327 18.498047 29.064453 C 17.573561 29.958876 16.492082 30.80139 15.246094 31.59375 C 12.812748 29.880459 11.50799 27.524929 10.800781 25.412109 C 10.023899 23.091138 10 21.106408 10 21 C 10 17.234708 12.956758 14.183583 16.679688 14.015625 z M 31.322266 14.015625 C 35.044276 14.184565 38 17.235366 38 21 C 38 21.107529 37.97496 23.088606 37.199219 25.408203 C 36.491698 27.523809 35.185257 29.883171 32.746094 31.597656 C 31.488169 30.795719 30.404861 29.940696 29.474609 29.035156 C 31.133946 25.736683 31.999622 22.049095 32 18 C 32 16.603249 31.761056 15.26393 31.322266 14.015625 z M 28.265625 14.435547 C 28.739587 15.531225 29 16.72033 29 18 C 28.999053 28.141849 23.557625 35.291991 12.056641 39.892578 C 11.868827 39.967698 11.684274 40.001953 11.501953 40.001953 C 10.911953 40.001953 10.34679 39.655317 10.107422 39.056641 C 9.7934132 38.271364 10.158462 37.42128 10.943359 37.107422 C 15.917254 35.117658 19.687596 32.62243 22.226562 29.435547 C 24.765531 26.248663 25.999467 22.389244 26 18 C 26 17.298883 25.874531 16.635903 25.666016 16.023438 C 25.927555 15.70349 26.265434 15.418113 26.673828 15.150391 C 27.12339 14.855681 27.675881 14.623893 28.265625 14.435547 z M 27.912109 31.675781 C 30.277114 33.822722 33.315453 35.611728 37.054688 37.107422 C 37.839587 37.42128 38.204634 38.271364 37.890625 39.056641 C 37.651257 39.655317 37.086094 40.001953 36.496094 40.001953 C 36.313773 40.001953 36.129219 39.967703 35.941406 39.892578 C 31.914014 38.281622 28.644504 36.314692 26.085938 34.037109 C 26.752568 33.280871 27.355956 32.489733 27.912109 31.675781 z M 23.966797 36.164062 C 25.349323 37.410096 26.905802 38.554975 28.626953 39.603516 C 27.21507 39.855495 25.682994 40 24 40 C 22.311669 40 20.77585 39.853214 19.361328 39.599609 C 21.067509 38.553767 22.595897 37.402634 23.966797 36.164062 z"/></svg>