<svg xmlns="http://www.w3.org/2000/svg"  viewBox="0 0 48 48" width="50px" height="50px"><path d="M 33.394531 3.9785156 A 1.50015 1.50015 0 0 0 31.921875 5.5039062 L 31.927734 8.2304688 C 31.014959 7.5024271 29.91022 7.0019531 28.662109 7.0019531 L 26.267578 7.0019531 C 25.032257 7.0019531 24 8.0337034 24 9.2675781 L 24 10.662109 C 24 13.591869 26.408131 16 29.337891 16 L 31.732422 16 C 31.814892 16 31.864905 15.919116 31.945312 15.910156 L 31.958984 22 L 29.337891 22 C 28.02965 22 27 20.97035 27 19.662109 L 27 18.5 A 1.50015 1.50015 0 1 0 24 18.5 L 24 19.662109 C 24 22.591869 26.408131 25 29.337891 25 L 31.964844 25 L 31.978516 31 L 29.337891 31 C 28.02965 31 27 29.97035 27 28.662109 L 27 27.5 A 1.50015 1.50015 0 1 0 24 27.5 L 24 28.662109 C 24 31.591869 26.408131 34 29.337891 34 L 31.986328 34 L 32 40.503906 A 1.50015 1.50015 0 1 0 35 40.496094 L 34.986328 34 L 36.662109 34 C 39.591869 34 42 31.591869 42 28.662109 L 42 27.5 A 1.50015 1.50015 0 1 0 39 27.5 L 39 28.662109 C 39 29.97035 37.97035 31 36.662109 31 L 34.978516 31 L 34.964844 25 L 36.662109 25 C 39.591867 25 42 22.591869 42 19.662109 L 42 18.5 A 1.50015 1.50015 0 1 0 39 18.5 L 39 19.662109 C 39 20.97035 37.97035 22 36.662109 22 L 34.958984 22 L 34.945312 16 L 36.662109 16 C 39.591867 16 42 13.591869 42 10.662109 L 42 9.2675781 C 42 8.0337034 40.967743 7.0019531 39.732422 7.0019531 L 37.337891 7.0019531 C 36.458034 7.0019531 35.660337 7.2711261 34.925781 7.6542969 L 34.921875 5.4960938 A 1.50015 1.50015 0 0 0 33.394531 3.9785156 z M 27 10.001953 L 28.662109 10.001953 C 29.97035 10.001953 30.998047 11.02965 30.998047 12.337891 L 30.998047 13 L 29.337891 13 C 28.02965 13 27 11.97035 27 10.662109 L 27 10.001953 z M 37.337891 10.001953 L 39 10.001953 L 39 10.662109 C 39 11.97035 37.97035 13 36.662109 13 L 35.001953 13 L 35.001953 12.337891 C 35.001953 11.02965 36.02965 10.001953 37.337891 10.001953 z M 20.582031 20.376953 C 17.636459 20.363603 15.15412 21.913221 13.369141 24.294922 C 11.78681 24.502421 9.690815 25.084312 7.6601562 26.464844 C 5.339025 28.042852 3.3159775 30.899602 4.0566406 34.603516 C 4.4261109 36.451165 5.3753176 37.990775 6.7441406 39.060547 C 8.1129636 40.130319 9.8280903 40.760913 11.808594 41.171875 C 15.7696 41.993799 20.908575 41.96852 27.1875 42 A 1.50015 1.50015 0 0 0 27.203125 42 C 27.904967 41.996 27.600039 41.992201 28.285156 41.988281 A 1.50015 1.50015 0 1 0 28.267578 38.988281 C 27.580045 38.992256 27.84888 38.996134 27.203125 39 C 20.91605 38.96848 15.839963 38.944451 12.417969 38.234375 C 10.706972 37.879337 9.4383489 37.358869 8.5917969 36.697266 C 7.7452449 36.035663 7.2475766 35.263475 6.9980469 34.015625 C 6.50071 31.528539 7.6195844 30.118806 9.3457031 28.945312 C 10.774029 27.974273 12.486295 27.49814 13.548828 27.304688 C 14.92509 29.16131 15.169922 31.873047 15.169922 31.873047 A 1.50015 1.50015 0 1 0 18.167969 31.792969 C 18.167969 31.792969 18.061677 28.553015 16.117188 25.783203 C 17.371979 24.25805 18.753901 23.368731 20.568359 23.376953 A 1.50015 1.50015 0 1 0 20.582031 20.376953 z"/></svg>