<svg xmlns="http://www.w3.org/2000/svg"  viewBox="0 0 48 48" width="50px" height="50px"><path d="M 24.003906 4 C 21.904906 4 19.804531 4.6921719 18.144531 6.0761719 L 5.4902344 16.621094 C 2.2522344 19.320094 2.1629219 23.957766 5.2949219 26.759766 L 7 27.923828 L 7 40.017578 C 7 42.217578 8.9475625 44 11.351562 44 L 21.5 44 L 26.5 44 L 36.648438 44 C 39.051437 44 41 42.217578 41 40.017578 L 41 27.925781 L 42.708984 26.759766 C 45.838984 23.957766 45.750672 19.322047 42.513672 16.623047 L 29.863281 6.0761719 C 28.202281 4.6911719 26.103906 4 24.003906 4 z M 24.003906 7 C 25.475906 7 26.874359 7.4898594 27.943359 8.3808594 L 40.591797 18.927734 C 41.480797 19.668734 41.981 20.659797 42 21.716797 C 42.017 22.712797 41.605938 23.66125 40.835938 24.40625 L 39.310547 25.447266 C 38.490547 26.006266 38 26.934781 38 27.925781 L 38 40.017578 C 38 40.482578 37.445437 41 36.648438 41 L 29.949219 41 C 29.973642 40.835028 30 40.671138 30 40.5 L 30 37 C 30 33.704135 27.295865 31 24 31 C 20.704135 31 18 33.704135 18 37 L 18 40.5 C 18 40.671138 18.026358 40.835028 18.050781 41 L 11.351562 41 C 10.554562 41 10 40.482578 10 40.017578 L 10 27.923828 C 10 26.931828 9.5094531 26.002359 8.6894531 25.443359 L 7.1679688 24.40625 C 6.3979688 23.66125 5.9849531 22.711797 6.0019531 21.716797 C 6.0209531 20.658797 6.5211562 19.668734 7.4101562 18.927734 L 20.064453 8.3808594 C 21.132453 7.4908594 22.532906 7 24.003906 7 z M 24 9 A 2 2 0 0 0 24 13 A 2 2 0 0 0 24 9 z M 17 14 A 2 2 0 0 0 17 18 A 2 2 0 0 0 17 14 z M 31 14 A 2 2 0 0 0 31 18 A 2 2 0 0 0 31 14 z M 22.5 19 C 20.585045 19 19 20.585045 19 22.5 L 19 25.5 C 19 27.414955 20.585045 29 22.5 29 L 25.5 29 C 27.414955 29 29 27.414955 29 25.5 L 29 22.5 C 29 20.585045 27.414955 19 25.5 19 L 22.5 19 z M 10 20 A 2 2 0 0 0 10 24 A 2 2 0 0 0 10 20 z M 38 20 A 2 2 0 0 0 38 24 A 2 2 0 0 0 38 20 z M 22.5 22 L 25.5 22 C 25.795045 22 26 22.204955 26 22.5 L 26 25.5 C 26 25.795045 25.795045 26 25.5 26 L 22.5 26 C 22.204955 26 22 25.795045 22 25.5 L 22 22.5 C 22 22.204955 22.204955 22 22.5 22 z M 14 28 A 2 2 0 0 0 14 32 A 2 2 0 0 0 14 28 z M 34 28 A 2 2 0 0 0 34 32 A 2 2 0 0 0 34 28 z M 24 34 C 25.674135 34 27 35.325865 27 37 L 27 40.5 C 27 40.795045 26.795045 41 26.5 41 L 21.5 41 C 21.204955 41 21 40.795045 21 40.5 L 21 37 C 21 35.325865 22.325865 34 24 34 z M 14 35 A 2 2 0 0 0 14 39 A 2 2 0 0 0 14 35 z M 34 35 A 2 2 0 0 0 34 39 A 2 2 0 0 0 34 35 z"/></svg>