<svg xmlns="http://www.w3.org/2000/svg"  viewBox="0 0 48 48" width="50px" height="50px"><path d="M 34.5 6 C 30.370133 6 27.416636 6.9186206 25.087891 8.9238281 C 19.970042 7.9424228 15.211427 11.600475 14.306641 16.421875 C 11.861968 17.215142 9.9390775 18.639645 8.9003906 20.5625 C 7.8426409 22.520645 7.6538733 24.808751 7.9921875 27.078125 C 6.4376888 29.176134 6 31.893069 6 34.5 C 6 36.639778 6.497653 38.935085 8.4824219 40.585938 C 9.6217512 41.696438 11.28991 41.979061 12.824219 41.65625 C 14.375811 41.329803 15.956132 40.519734 17.677734 39.388672 C 21.120939 37.126547 25.107828 33.50961 29.396484 29.294922 L 29.402344 29.291016 L 29.40625 29.285156 C 32.841939 25.841947 35.912323 22.683271 38.175781 19.779297 C 40.439205 16.875357 42 14.22665 42 11.5 C 42 9.6154677 40.771147 8.1316077 39.335938 7.2714844 C 37.900727 6.411361 36.182556 6 34.5 6 z M 34.5 9 C 35.658444 9 36.940382 9.3335765 37.794922 9.8457031 C 38.649462 10.35783 39 10.873532 39 11.5 C 39 12.96035 37.909386 15.240271 35.808594 17.935547 C 33.707802 20.630823 30.700514 23.741225 27.283203 27.166016 C 23.052888 31.322811 19.125217 34.848178 16.03125 36.880859 C 14.482977 37.898047 13.139158 38.524588 12.207031 38.720703 C 11.274904 38.916818 10.926595 38.804273 10.5625 38.439453 L 10.503906 38.380859 L 10.4375 38.330078 C 9.1603736 37.305926 9 36.346318 9 34.5 C 9 32.360543 9.4687707 30.488596 10.283203 29.191406 C 12.529215 29.494036 14.632813 30.722656 14.632812 30.722656 A 1.50015 1.50015 0 1 0 16.367188 28.277344 C 16.367188 28.277344 14.015146 26.639949 10.914062 26.1875 C 10.762095 24.634146 10.908062 23.1565 11.539062 21.988281 C 12.285272 20.60687 13.569305 19.562853 15.669922 19.035156 C 18.916574 19.101566 21.695313 20.765625 21.695312 20.765625 A 1.50015 1.50015 0 1 0 23.304688 18.234375 C 23.304688 18.234375 20.815275 16.721746 17.439453 16.220703 C 18.459227 13.285739 21.76386 10.97527 25.076172 11.939453 C 25.077472 11.939835 25.078778 11.93907 25.080078 11.939453 A 1.50015 1.50015 0 0 0 25.103516 11.947266 C 27.272691 12.540745 29.810547 13.832031 29.810547 13.832031 A 1.50015 1.50015 0 1 0 31.189453 11.167969 C 31.189453 11.167969 29.609688 10.580674 28.734375 10.1875 C 30.160061 9.4635756 31.825765 9 34.5 9 z"/></svg>