<svg xmlns="http://www.w3.org/2000/svg"  viewBox="0 0 48 48" width="50px" height="50px"><path d="M 9.5 5 C 5.3754991 5 2 8.3754991 2 12.5 L 2 13.5 C 2 15.988802 3.7170242 18.023966 6 18.693359 L 6 39.5 C 6 40.78354 6.2001479 42.056856 6.9160156 43.150391 C 7.6318833 44.243925 8.9901129 45 10.5 45 L 21.5 45 L 25.5 45 L 35.5 45 C 38.519774 45 41 42.519774 41 39.5 L 41 17.695312 C 43.835309 16.997372 46 14.541169 46 11.5 C 46 7.9280619 43.071938 5 39.5 5 L 21.5 5 L 17.5 5 L 9.5 5 z M 9.5 8 L 12.039062 8 C 11.385764 9.0129167 11 10.21312 11 11.5 L 11 12.5 C 11 13.81056 11.41908 15.000605 12.103516 16 L 7.5 16 C 6.1017741 16 5 14.898226 5 13.5 L 5 12.5 C 5 9.9965009 6.9965009 8 9.5 8 z M 17.5 8 L 21.5 8 L 39.5 8 C 41.450062 8 43 9.5499381 43 11.5 C 43 13.450062 41.450062 15 39.5 15 A 1.50015 1.50015 0 0 0 38 16.5 L 38 39.5 C 38 40.898226 36.898226 42 35.5 42 L 25.5 42 L 21.5 42 C 20.101774 42 19 40.898226 19 39.5 L 19 17.5 A 1.50015 1.50015 0 0 0 17.5 16 C 15.549938 16 14 14.450062 14 12.5 L 14 11.5 C 14 9.5499381 15.549938 8 17.5 8 z M 29.5 13 A 1.5 1.5 0 0 0 29.5 16 A 1.5 1.5 0 0 0 29.5 13 z M 23.5 17 A 1.5 1.5 0 0 0 23.5 20 A 1.5 1.5 0 0 0 23.5 17 z M 16 18.919922 L 16 39.5 C 16 40.399198 16.224692 41.247721 16.613281 42 L 10.5 42 C 9.8008871 42 9.6576635 41.860075 9.4257812 41.505859 C 9.1938991 41.151644 9 40.42546 9 39.5 L 9 19 L 15.5 19 A 1.50015 1.50015 0 0 0 16 18.919922 z M 34.5 19 A 1.5 1.5 0 0 0 34.5 22 A 1.5 1.5 0 0 0 34.5 19 z M 27.5 22 A 1.5 1.5 0 0 0 27.5 25 A 1.5 1.5 0 0 0 27.5 22 z M 33.5 26 A 1.5 1.5 0 0 0 33.5 29 A 1.5 1.5 0 0 0 33.5 26 z M 23.5 28 A 1.5 1.5 0 0 0 23.5 31 A 1.5 1.5 0 0 0 23.5 28 z M 29.5 31 A 1.5 1.5 0 0 0 29.5 34 A 1.5 1.5 0 0 0 29.5 31 z M 23.5 36 A 1.5 1.5 0 0 0 23.5 39 A 1.5 1.5 0 0 0 23.5 36 z M 33.5 37 A 1.5 1.5 0 0 0 33.5 40 A 1.5 1.5 0 0 0 33.5 37 z"/></svg>