<svg xmlns="http://www.w3.org/2000/svg"  viewBox="0 0 48 48" width="50px" height="50px"><path d="M 24 4.5351562 C 22.70971 4.5351564 21.420331 4.9039022 20.298828 5.6425781 C 19.626293 6.0852232 18.831369 6.2971276 18.027344 6.25 C 15.345718 6.091955 12.819023 7.5532565 11.615234 9.953125 C 11.253651 10.672755 10.670935 11.255617 9.953125 11.615234 C 7.5532565 12.819023 6.091955 15.345718 6.25 18.027344 C 6.297088 18.829982 6.0849552 19.6267 5.6425781 20.298828 C 4.1652264 22.541834 4.1652264 25.458166 5.6425781 27.701172 C 6.0852232 28.373707 6.2971276 29.168631 6.25 29.972656 C 6.091987 32.653739 7.5521708 35.180685 9.9511719 36.384766 C 10.671387 36.746302 11.255406 37.328643 11.615234 38.046875 C 12.819023 40.446744 15.345718 41.908045 18.027344 41.75 C 18.829982 41.70291 19.6267 41.915045 20.298828 42.357422 C 22.541834 43.834774 25.458166 43.834774 27.701172 42.357422 C 28.373707 41.914777 29.168631 41.702872 29.972656 41.75 C 32.653739 41.908013 35.180685 40.447829 36.384766 38.048828 L 36.384766 38.046875 C 36.746349 37.327245 37.329065 36.744383 38.046875 36.384766 C 40.446744 35.180977 41.908045 32.654282 41.75 29.972656 C 41.70291 29.170018 41.915045 28.3733 42.357422 27.701172 C 43.834774 25.458166 43.834774 22.541834 42.357422 20.298828 C 41.914777 19.626293 41.702872 18.831369 41.75 18.027344 C 41.908013 15.346261 40.447829 12.819315 38.048828 11.615234 L 38.046875 11.615234 C 37.327292 11.253698 36.744383 10.670935 36.384766 9.953125 C 35.180977 7.5532565 32.654282 6.091955 29.972656 6.25 C 29.170018 6.2970881 28.3733 6.0849552 27.701172 5.6425781 C 26.579669 4.9039022 25.29029 4.5351562 24 4.5351562 z M 24 7.53125 C 24.71371 7.53125 25.428237 7.7371134 26.052734 8.1484375 C 27.264607 8.9460604 28.701076 9.3310055 30.148438 9.2460938 C 31.640811 9.1581387 33.032913 9.9607435 33.703125 11.296875 C 34.353297 12.594643 35.405387 13.646411 36.701172 14.296875 A 1.50015 1.50015 0 0 0 36.703125 14.296875 C 38.039256 14.967087 38.841861 16.359189 38.753906 17.851562 C 38.669036 19.299539 39.054209 20.735801 39.851562 21.947266 C 40.674211 23.19626 40.674211 24.80374 39.851562 26.052734 C 39.053941 27.264607 38.668994 28.701076 38.753906 30.148438 C 38.841866 31.640811 38.039256 33.032913 36.703125 33.703125 C 35.405357 34.353297 34.353589 35.405387 33.703125 36.701172 A 1.50015 1.50015 0 0 0 33.703125 36.703125 C 33.032913 38.039256 31.640811 38.841861 30.148438 38.753906 C 28.700461 38.669036 27.264199 39.054209 26.052734 39.851562 C 24.80374 40.674211 23.19626 40.674211 21.947266 39.851562 C 20.735393 39.053941 19.298924 38.668994 17.851562 38.753906 C 16.359189 38.841866 14.967087 38.039256 14.296875 36.703125 C 13.646703 35.405357 12.594613 34.353589 11.298828 33.703125 A 1.50015 1.50015 0 0 0 11.296875 33.703125 C 9.9607435 33.032866 9.1581387 31.640811 9.2460938 30.148438 C 9.3309662 28.700462 8.9457924 27.264199 8.1484375 26.052734 C 7.3257893 24.80374 7.3257893 23.19626 8.1484375 21.947266 C 8.9460604 20.735393 9.3310055 19.298924 9.2460938 17.851562 C 9.1581387 16.359189 9.9607435 14.967087 11.296875 14.296875 C 12.594643 13.646703 13.646411 12.594613 14.296875 11.298828 A 1.50015 1.50015 0 0 0 14.296875 11.296875 C 14.967087 9.9607905 16.359189 9.1581387 17.851562 9.2460938 C 19.299538 9.3309662 20.735801 8.9457924 21.947266 8.1484375 C 22.571763 7.7371134 23.28629 7.53125 24 7.53125 z M 24 11 A 2 2 0 0 0 24 15 A 2 2 0 0 0 24 11 z M 17 16 A 2 2 0 0 0 17 20 A 2 2 0 0 0 17 16 z M 31 16 A 2 2 0 0 0 31 20 A 2 2 0 0 0 31 16 z M 12 22 A 2 2 0 0 0 12 26 A 2 2 0 0 0 12 22 z M 24 22 A 2 2 0 0 0 24 26 A 2 2 0 0 0 24 22 z M 36 22 A 2 2 0 0 0 36 26 A 2 2 0 0 0 36 22 z M 17 28 A 2 2 0 0 0 17 32 A 2 2 0 0 0 17 28 z M 31 28 A 2 2 0 0 0 31 32 A 2 2 0 0 0 31 28 z M 24 33 A 2 2 0 0 0 24 37 A 2 2 0 0 0 24 33 z"/></svg>