<svg xmlns="http://www.w3.org/2000/svg"  viewBox="0 0 48 48" width="50px" height="50px"><path d="M 24 4 C 12.972066 4 4 12.972074 4 24 C 4 35.027926 12.972066 44 24 44 C 35.027934 44 44 35.027926 44 24 C 44 12.972074 35.027934 4 24 4 z M 24 7 C 25.238505 7 26.443022 7.1385987 27.605469 7.3886719 C 27.15825 7.5013053 26.740701 7.638205 26.544922 7.8339844 C 25.981922 8.3969844 26.000937 9.3290625 26.585938 9.9140625 C 27.171938 10.499063 28.101063 10.518078 28.664062 9.9550781 C 29.050322 9.5688183 29.217513 8.5733652 29.310547 7.8535156 C 36.104801 10.078932 41 16.450377 41 24 C 41 32.935489 34.143722 40.220941 25.394531 40.929688 C 25.400623 40.923788 25.408044 40.920081 25.414062 40.914062 C 25.999062 40.328063 26.018078 39.398938 25.455078 38.835938 C 24.892078 38.272937 22.585938 38.085938 22.585938 38.085938 C 22.585938 38.085938 22.770984 40.392078 23.333984 40.955078 C 23.338674 40.959767 23.344869 40.962188 23.349609 40.966797 C 14.248538 40.623412 7 33.186878 7 24 C 7 14.593391 14.593385 7 24 7 z M 18.441406 13 C 17.645406 13 17 13.672 17 14.5 C 17 15.328 17.645406 16 18.441406 16 C 19.237406 16 21 14.5 21 14.5 C 21 14.5 19.237406 13 18.441406 13 z M 37.414062 19.085938 C 37.414062 19.085937 35.107922 19.270984 34.544922 19.833984 C 33.981922 20.396984 34.000938 21.329062 34.585938 21.914062 C 35.171937 22.499062 36.101062 22.518078 36.664062 21.955078 C 37.227063 21.392078 37.414062 19.085938 37.414062 19.085938 z M 7.5859375 20.085938 C 7.5859375 20.085937 7.7709844 22.392078 8.3339844 22.955078 C 8.8969844 23.518078 9.8290625 23.499063 10.414062 22.914062 C 10.999063 22.328062 11.018078 21.398937 10.455078 20.835938 C 9.8920781 20.272937 7.5859375 20.085938 7.5859375 20.085938 z M 23.585938 22.085938 C 23.585938 22.085937 23.770984 24.392078 24.333984 24.955078 C 24.896984 25.518078 25.829062 25.499063 26.414062 24.914062 C 26.999062 24.328062 27.018078 23.398937 26.455078 22.835938 C 25.892078 22.272937 23.585938 22.085938 23.585938 22.085938 z M 15 27.5 C 15 27.5 13.5 29.262594 13.5 30.058594 C 13.5 30.854594 14.172 31.5 15 31.5 C 15.828 31.5 16.5 30.854594 16.5 30.058594 C 16.5 29.262594 15 27.5 15 27.5 z M 30.558594 31 C 29.762594 31 28 32.5 28 32.5 C 28 32.5 29.762594 34 30.558594 34 C 31.354594 34 32 33.328 32 32.5 C 32 31.672 31.354594 31 30.558594 31 z"/></svg>