<svg xmlns="http://www.w3.org/2000/svg"  viewBox="0 0 48 48" width="50px" height="50px"><path d="M 12.5 6 A 1.50015 1.50015 0 0 0 11.097656 8.0820312 C 8.27289 8.3008131 6 10.622633 6 13.5 L 6 34.5 C 6 37.05115 7.772384 39.21142 10.142578 39.822266 A 1.50015 1.50015 0 0 0 11.5 42 L 14.5 42 A 1.50015 1.50015 0 0 0 15.933594 40 L 32.066406 40 A 1.50015 1.50015 0 0 0 33.5 42 L 36.5 42 A 1.50015 1.50015 0 0 0 37.857422 39.822266 C 40.227616 39.21142 42 37.05115 42 34.5 L 42 13.5 C 42 10.622633 39.72711 8.3008131 36.902344 8.0820312 A 1.50015 1.50015 0 0 0 35.5 6 L 27.5 6 A 1.50015 1.50015 0 0 0 26.066406 8 L 21.933594 8 A 1.50015 1.50015 0 0 0 20.5 6 L 12.5 6 z M 11.5 11 L 36.5 11 C 37.898226 11 39 12.101774 39 13.5 L 39 34.5 C 39 35.898226 37.898226 37 36.5 37 L 11.5 37 C 10.101774 37 9 35.898226 9 34.5 L 9 13.5 C 9 12.101774 10.101774 11 11.5 11 z M 12.5 13 A 1.5 1.5 0 0 0 12.5 16 A 1.5 1.5 0 0 0 12.5 13 z M 17.5 13 A 1.5 1.5 0 0 0 17.5 16 A 1.5 1.5 0 0 0 17.5 13 z M 22.5 13 A 1.5 1.5 0 0 0 22.5 16 A 1.5 1.5 0 0 0 22.5 13 z M 35.5 13 A 1.5 1.5 0 0 0 35.5 16 A 1.5 1.5 0 0 0 35.5 13 z M 14.5 18 C 12.585045 18 11 19.585045 11 21.5 L 11 31.5 C 11 33.414955 12.585045 35 14.5 35 L 33.5 35 C 35.414955 35 37 33.414955 37 31.5 L 37 21.5 C 37 19.585045 35.414955 18 33.5 18 L 14.5 18 z M 14.5 21 L 33.5 21 C 33.795045 21 34 21.204955 34 21.5 L 34 31.5 C 34 31.795045 33.795045 32 33.5 32 L 31.949219 32 C 31.973642 31.835028 32 31.671138 32 31.5 C 32 27.928062 29.071938 25 25.5 25 L 22.5 25 C 18.928062 25 16 27.928062 16 31.5 C 16 31.671138 16.026358 31.835028 16.050781 32 L 14.5 32 C 14.204955 32 14 31.795045 14 31.5 L 14 21.5 C 14 21.204955 14.204955 21 14.5 21 z M 23 28 L 25 28 L 25 29 A 1.0001 1.0001 0 1 0 27 29 L 27 28.34375 C 28.184625 28.901238 29 30.090992 29 31.5 C 29 31.795045 28.795045 32 28.5 32 L 19.5 32 C 19.204955 32 19 31.795045 19 31.5 C 19 30.090992 19.815375 28.901238 21 28.34375 L 21 29 A 1.0001 1.0001 0 1 0 23 29 L 23 28 z"/></svg>