<svg xmlns="http://www.w3.org/2000/svg"  viewBox="0 0 48 48" width="50px" height="50px"><path d="M 27.289062 8.1738281 C 25.569584 8.1425101 23.851138 8.754739 22.349609 9.8828125 C 20.425993 9.0785683 18.563502 8.7507261 16.886719 9.1699219 C 15.197339 9.5922669 13.83532 10.715717 12.736328 12.138672 C 11.410346 12.31925 9.7266825 12.793064 8.0605469 13.925781 C 6.1286728 15.23916 4.4076144 17.686509 5.0292969 20.794922 C 5.3392745 22.34481 6.1489436 23.661235 7.3046875 24.564453 C 8.4604314 25.467671 9.8882347 25.986946 11.513672 26.324219 C 14.764546 26.998764 18.921772 26.974521 23.992188 27 A 1.50015 1.50015 0 0 0 24.007812 27 C 28.122452 26.98002 32.294384 26.997 35.748047 26.332031 C 37.474878 25.999549 39.039939 25.501276 40.337891 24.630859 C 41.635842 23.760442 42.642738 22.43475 42.970703 20.794922 C 43.293311 19.182541 42.900593 17.634173 42.148438 16.400391 C 41.396285 15.166608 40.320733 14.195664 39.167969 13.416016 C 37.110757 12.024663 34.972195 11.292212 33.179688 11.132812 C 31.880033 9.5780929 30.05669 8.48466 28.025391 8.2265625 C 27.780337 8.1954259 27.534702 8.1783021 27.289062 8.1738281 z M 26.925781 11.238281 C 27.191084 11.224731 27.45826 11.23529 27.724609 11.273438 C 29.170658 11.480543 30.506382 12.241678 31.232422 13.314453 C 32.207504 15.026564 33.125 17.099609 33.125 17.099609 A 1.50015 1.50015 0 1 0 35.875 15.900391 C 35.875 15.900391 35.466636 15.106073 35.361328 14.873047 C 36.083586 15.16798 36.831896 15.456458 37.488281 15.900391 C 38.388142 16.508993 39.142562 17.233657 39.585938 17.960938 C 40.029311 18.688216 40.197189 19.365959 40.029297 20.205078 C 39.857262 21.06525 39.455721 21.609089 38.666016 22.138672 C 37.876311 22.668255 36.674934 23.099201 35.181641 23.386719 C 32.198927 23.961008 28.126702 23.980007 24.007812 24 C 18.929228 23.974479 14.834923 23.949424 12.123047 23.386719 C 10.767109 23.105366 9.7858185 22.696235 9.1523438 22.201172 C 8.5188688 21.706109 8.1607255 21.15519 7.9707031 20.205078 C 7.5923856 18.313491 8.4092177 17.315121 9.7460938 16.40625 C 10.746675 15.726008 11.919269 15.376137 12.765625 15.1875 C 13.712185 16.59189 14 18.539062 14 18.539062 A 1.5005085 1.5005085 0 1 0 17 18.460938 C 17 18.460938 16.9284 15.892122 15.400391 13.603516 C 16.07828 12.84013 16.793806 12.284947 17.613281 12.080078 C 18.637328 11.824066 19.937879 11.988888 21.578125 12.755859 C 23.431739 14.701063 24.044922 16.867187 24.044922 16.867188 A 1.5006928 1.5006928 0 0 0 26.955078 16.132812 C 26.955078 16.132812 26.172927 14.080098 24.615234 11.943359 C 25.346196 11.539181 26.129873 11.278933 26.925781 11.238281 z M 15.15625 31 C 13.698137 31 12.298535 31.580371 11.267578 32.611328 L 9.8789062 34 L 5.5 34 A 1.50015 1.50015 0 0 0 5.2011719 34.025391 A 1.50015 1.50015 0 0 0 4.0878906 34.9375 A 1.50015 1.50015 0 0 0 4.0039062 35.224609 A 1.50015 1.50015 0 0 0 3.984375 35.373047 A 1.50015 1.50015 0 0 0 3.9882812 35.671875 A 1.50015 1.50015 0 0 0 4.1738281 36.238281 A 1.50015 1.50015 0 0 0 4.2539062 36.365234 A 1.50015 1.50015 0 0 0 4.3457031 36.484375 A 1.50015 1.50015 0 0 0 4.4492188 36.591797 A 1.50015 1.50015 0 0 0 4.6875 36.773438 A 1.50015 1.50015 0 0 0 4.8183594 36.847656 A 1.50015 1.50015 0 0 0 4.9570312 36.90625 A 1.50015 1.50015 0 0 0 5.0996094 36.951172 A 1.50015 1.50015 0 0 0 5.2460938 36.982422 A 1.50015 1.50015 0 0 0 5.3945312 36.998047 A 1.50015 1.50015 0 0 0 5.5 37 L 9.8789062 37 L 11.267578 38.388672 C 12.298612 39.42108 13.698455 40 15.15625 40 L 32.84375 40 C 34.301863 40 35.701465 39.419629 36.732422 38.388672 L 38.121094 37 L 42.5 37 A 1.50015 1.50015 0 0 0 43.771484 36.328125 A 1.50015 1.50015 0 0 0 43.960938 35.921875 A 1.50015 1.50015 0 0 0 44.015625 35.626953 A 1.50015 1.50015 0 0 0 44.011719 35.328125 A 1.50015 1.50015 0 0 0 43.986328 35.179688 A 1.50015 1.50015 0 0 0 43.826172 34.761719 A 1.50015 1.50015 0 0 0 43.654297 34.515625 A 1.50015 1.50015 0 0 0 43.550781 34.408203 A 1.50015 1.50015 0 0 0 43.042969 34.09375 A 1.50015 1.50015 0 0 0 42.900391 34.048828 A 1.50015 1.50015 0 0 0 42.605469 34.001953 A 1.50015 1.50015 0 0 0 42.5 34 L 38.121094 34 L 36.730469 32.611328 C 35.699435 31.57892 34.299592 31 32.841797 31 L 15.15625 31 z M 15.15625 34 L 32.841797 34 C 33.506001 34 34.140409 34.26283 34.609375 34.732422 L 35.378906 35.5 L 34.611328 36.267578 C 34.142285 36.736621 33.505637 37 32.84375 37 L 15.15625 37 C 14.492045 37 13.859591 36.73717 13.390625 36.267578 A 1.50015 1.50015 0 0 0 13.388672 36.267578 L 12.621094 35.5 L 13.388672 34.732422 C 13.857715 34.263379 14.494363 34 15.15625 34 z"/></svg>