<svg xmlns="http://www.w3.org/2000/svg"  viewBox="0 0 48 48" width="50px" height="50px"><path d="M15.347 9.003c1.594-.641 3.273-1.096 5.006-1.334.034-.005.068-.011.102-.018 1.061-.228 1.844.376 2.046.921v7.585l2.928 2.928c.042-.139.072-.283.072-.436V8.519c.1-.322.344-.65.646-.84.26-.165.528-.216.8-.149.544.132 1.116.262 1.695.393 1.713.387 3.485.788 4.62 1.285.591.26 1.018.676 1.17 1.143.049.149.084.356.026.577l-2.919 6.853c-.325.763.03 1.644.792 1.968.192.082.391.12.587.12.583 0 1.138-.342 1.38-.912l2.612-6.134c.248-.158.514-.179.667-.172.343.018.668.17.846.395 1.066 1.347 1.837 2.495 2.389 4.059.673 1.908.408 2.185-.38 3.003-.005.005-.007.012-.012.017l-4.317 4.3c-.587.584-.589 1.534-.004 2.121.293.294.678.441 1.063.441.383 0 .766-.146 1.059-.438l3.587-3.573c.103.32.179.707.181.921 0 4.758-1.679 6.053-4.537 7.214l2.271 2.271c2.88-1.394 5.266-3.644 5.266-9.485 0-.023-.035-2.124-1.166-3.394.51-1.101.522-2.405-.181-4.398-.688-1.949-1.643-3.378-2.867-4.924-.72-.907-1.828-1.464-3.04-1.527-.129-.008-.257-.008-.384-.003-.021-.078-.044-.156-.069-.234C36.866 8.14 35.84 7.063 34.468 6.46c-1.398-.613-3.313-1.046-5.164-1.465-.563-.127-1.12-.253-1.648-.381-1.063-.261-2.166-.071-3.112.528-.226.144-.438.307-.635.487-1.016-.803-2.425-1.239-4.013-.927-2.142.299-4.219.876-6.174 1.715-.23.099-.43.213-.636.324L15.347 9.003zM8.662 6.561C8.645 6.543 8.64 6.52 8.623 6.502L6.561 4.439c-.586-.586-1.535-.586-2.121 0s-.586 1.535 0 2.121l3.823 3.823c-.389.255-.766.576-1.118.98-1.205 1.472-2.129 3.064-2.748 4.733-.583 1.581-.625 3.142-.199 4.372-.742.699-1.13 1.81-1.188 3.427 0 7.65 4.36 9.279 8.208 10.718.26.097.522.195.783.295V41.5c0 .828.671 1.5 1.5 1.5h8.402c.019 0 .037-.005.057-.006.614.308 1.313.506 2.16.506.819 0 1.496-.206 2.089-.523C26.282 42.989 26.356 43 26.434 43H34.5c.829 0 1.5-.672 1.5-1.5v-3.379l5.439 5.439C41.732 43.854 42.116 44 42.5 44s.768-.146 1.061-.439c.569-.569.574-1.474.039-2.063L8.662 6.561zM15 40v-3.708c.579.341 1.137.728 1.651 1.195.929.842 1.621 1.719 2.232 2.514H15zM26.533 38.412c-1.098 1.547-1.559 2.088-2.415 2.088-.986 0-1.469-.521-2.708-2.136-.687-.896-1.542-2.011-2.745-3.101-2.007-1.82-4.341-2.691-6.399-3.461-3.769-1.408-6.258-2.339-6.259-7.854.021-.573.094-.903.157-1.09l3.435 3.127c.288.262.649.391 1.009.391.408 0 .814-.165 1.11-.49.558-.612.513-1.562-.1-2.119L7.746 20.24c-.027-.031-.061-.054-.091-.083l-.507-.461c-.007-.006-.016-.007-.022-.013-.214-.39-.377-1.294.085-2.545.502-1.356 1.261-2.659 2.224-3.838.406-.465.79-.623 1.091-.653l.449.449 3.38 7.341c.253.55.796.873 1.363.873.21 0 .423-.044.626-.138.744-.343 1.071-1.216.744-1.962l14.446 14.446c-.691.399-1.381.854-2.059 1.406C28.143 36.144 27.25 37.401 26.533 38.412zM33 40h-3.914c.643-.905 1.319-1.829 2.281-2.61.531-.432 1.078-.794 1.633-1.117V40z"/></svg>