<svg xmlns="http://www.w3.org/2000/svg"  viewBox="0 0 48 48" width="50px" height="50px"><path d="M20.927 14.583c-.002-.041-.012-.081-.012-.122 0-1.789 1.455-3.244 3.244-3.244.082 0 .161.016.24.026l.162.021c.473.055.935-.107 1.262-.446.328-.338.477-.811.403-1.276-.018-.115-.04-.231-.04-.352 0-1.208.982-2.19 2.189-2.19C28.997 7 29.574 7.264 30 7.742c.528.592 1.424.671 2.048.181C32.814 7.319 33.732 7 34.701 7 37.071 7 39 8.928 39 11.298c0 .97-.319 1.887-.923 2.653-.49.623-.411 1.52.181 2.048C38.736 16.426 39 17.003 39 17.624c0 1.088-.822 2.015-1.912 2.155-.818.105-1.398.852-1.297 1.671l.021.157c.011.077.025.154.025.234 0 1.789-1.455 3.244-3.244 3.244-.558 0-1.102-.147-1.583-.419l3.201 3.201c2.488-.669 4.369-2.836 4.602-5.473C40.698 21.604 42 19.744 42 17.624c0-1.023-.311-2.019-.875-2.863C41.7 13.703 42 12.526 42 11.298 42 7.274 38.726 4 34.701 4c-1.227 0-2.404.3-3.462.875C30.396 4.31 29.399 4 28.376 4c-2.552 0-4.679 1.851-5.109 4.28-2.203.317-4.026 1.794-4.859 3.784L20.927 14.583zM8.662 6.561C8.645 6.543 8.64 6.52 8.623 6.502L6.561 4.439c-.586-.586-1.535-.586-2.121 0-.586.585-.586 1.536 0 2.121l13.412 13.412L6.255 31.568c-2.529 2.53-2.529 6.646 0 9.176 1.226 1.226 2.855 1.901 4.589 1.901 1.732 0 3.362-.675 4.588-1.901l11.596-11.596 14.411 14.411C41.732 43.854 42.116 44 42.5 44s.768-.146 1.061-.439c.569-.568.574-1.474.039-2.063L8.662 6.561zM13.326 38.639c-1.327 1.327-3.641 1.325-4.966 0-1.368-1.369-1.368-3.596 0-4.965l11.596-11.596 1.422 1.422-2.439 2.439c-.586.585-.586 1.536 0 2.121C19.232 28.354 19.616 28.5 20 28.5s.768-.146 1.061-.439l2.439-2.439 1.423 1.423L13.326 38.639z"/></svg>