<svg xmlns="http://www.w3.org/2000/svg"  viewBox="0 0 48 48" width="50px" height="50px"><path d="M22.344 16H22.5v.156l3 3V16h4.368c2.213 0 4.206 1.314 5.079 3.348.588 1.371.592 2.946-.011 4.38l-1.212 3.263c-.14-.003 2.227 2.616 2.227 2.616l1.774-4.775c.895-2.121.887-4.551-.021-6.667C36.357 15.027 33.281 13 29.868 13H31.5c.828 0 1.5-.671 1.5-1.5S32.328 10 31.5 10h-6V5.5C25.5 4.671 24.828 4 24 4s-1.5.671-1.5 1.5V10h-6c-.049 0-.095.01-.142.014L22.344 16zM8.662 6.561C8.645 6.543 8.64 6.52 8.623 6.502L6.561 4.439c-.586-.586-1.535-.586-2.121 0-.586.585-.586 1.536 0 2.121l8.347 8.347c-1.058.855-1.929 1.953-2.49 3.258-.906 2.115-.913 4.545-.044 6.606l6.351 17.084C17.149 43.159 18.416 44 19.829 44h8.344c1.413 0 2.68-.841 3.249-2.202l2.236-6.019 7.781 7.781C41.732 43.854 42.116 44 42.5 44s.768-.146 1.061-.439c.569-.568.574-1.474.039-2.063L8.662 6.561zM13.055 19.348c.407-.948 1.064-1.731 1.866-2.306l3.713 3.713c-1.093-.004-2.087.177-2.94.433-1.192.357-2.195.886-2.98 1.386C12.507 21.497 12.619 20.366 13.055 19.348zM28.633 40.695C28.555 40.88 28.374 41 28.173 41h-8.344c-.201 0-.382-.12-.437-.247l-5.671-15.256c1.62-1.234 5.978-3.677 10.717 1.063l6.886 6.886L28.633 40.695z"/></svg>