<svg xmlns="http://www.w3.org/2000/svg"  viewBox="0 0 48 48" width="50px" height="50px"><path d="M 39.65625 0.98046875 A 1.50015 1.50015 0 0 0 38.183594 2.8925781 C 38.183594 2.8925781 38.561169 4.4346112 38.359375 5.7773438 C 38.258478 6.4487099 38.03217 6.9944891 37.679688 7.3496094 C 37.327205 7.7047296 36.810001 8 35.632812 8 A 1.50015 1.50015 0 0 0 35.333984 8.0253906 C 35.195186 8.0127032 35.055535 8 34.914062 8 L 19.632812 8 C 17.754812 8 16.111719 8.1029688 14.636719 8.2929688 L 17.402344 11.058594 C 18.104344 11.023594 18.836812 11 19.632812 11 L 34.914062 11 C 35.681063 11 36.072078 11.511469 36.205078 11.730469 C 36.336078 11.946469 36.603859 12.5205 36.255859 13.1875 C 34.420859 16.6995 30.023312 18.651562 26.070312 19.726562 L 28.478516 22.134766 C 32.581516 20.790766 36.868063 18.493172 38.914062 14.576172 C 39.496945 13.459845 39.573923 12.1901 39.167969 11.033203 C 42.465352 10.789976 44.612747 9.3571095 45.740234 7.7285156 C 47.152116 5.6891308 47.132813 3.5 47.132812 3.5 A 1.50015 1.50015 0 1 0 44.132812 3.5 C 44.132812 3.5 44.111552 4.8108692 43.273438 6.0214844 C 42.8138 6.6854034 42.095965 7.3272788 40.910156 7.7226562 C 41.109119 7.2202658 41.253206 6.7081687 41.326172 6.2226562 C 41.650378 4.0653887 41.080078 2.1074219 41.080078 2.1074219 A 1.50015 1.50015 0 0 0 39.65625 0.98046875 z M 5.484375 3.984375 A 1.50015 1.50015 0 0 0 4.4394531 6.5605469 L 8.1640625 10.285156 C 5.3498213 11.938248 3.7077477 14.482615 2.2519531 17.912109 C 0.24695313 22.640109 0.68076563 27.955203 3.5097656 33.283203 C 7.3127656 40.447203 15.056437 45.266375 26.523438 47.609375 C 26.690438 47.643375 26.857438 47.660156 27.023438 47.660156 C 27.754438 47.660156 28.4575 47.338672 28.9375 46.763672 C 29.5275 46.057672 29.681844 45.087422 29.339844 44.232422 L 28.392578 41.861328 L 30.566406 39.6875 C 31.329406 38.9245 31.517156 37.764781 31.035156 36.800781 C 30.553156 35.835781 29.510406 35.288359 28.441406 35.443359 L 24.587891 35.998047 C 21.848891 35.969047 19.262469 34.764547 17.480469 32.685547 L 17.277344 32.447266 C 16.163344 31.148266 15.700109 29.367641 16.037109 27.681641 C 16.351109 26.109641 17.325125 24.806328 18.703125 24.111328 C 18.792125 24.066328 18.885516 24.024422 18.978516 23.982422 C 19.420495 23.952558 20.362218 23.868499 21.578125 23.699219 L 41.439453 43.560547 A 1.50015 1.50015 0 1 0 43.560547 41.439453 L 6.5605469 4.4394531 A 1.50015 1.50015 0 0 0 5.484375 3.984375 z M 10.388672 12.509766 L 18.857422 20.978516 C 18.799493 20.982325 18.56282 21.003649 18.556641 21.003906 C 18.391641 21.012906 18.229172 21.047422 18.076172 21.107422 C 17.828172 21.207422 17.590422 21.314641 17.357422 21.431641 C 15.145422 22.546641 13.592703 24.610797 13.095703 27.091797 C 12.578703 29.674797 13.290094 32.406437 14.996094 34.398438 L 15.201172 34.636719 C 16.033905 35.607773 17.004689 36.42429 18.064453 37.087891 L 15.431641 40.599609 A 1.5003906 1.5003906 0 0 0 15.392578 40.65625 C 11.158942 38.393112 8.0622883 35.462932 6.1582031 31.876953 C 5.9114594 31.412363 5.7005875 30.953179 5.4960938 30.494141 C 6.3215567 30.280778 7.4572961 30.052824 8.6972656 29.998047 A 1.50015 1.50015 0 0 0 8.6699219 26.998047 A 1.50015 1.50015 0 0 0 8.5664062 27.001953 C 6.9318853 27.074161 5.5062862 27.383501 4.5019531 27.658203 C 3.7185959 24.647878 3.8724782 21.775012 5.0136719 19.085938 C 5.1440553 18.778708 5.2763626 18.491386 5.4082031 18.199219 C 5.798398 18.215798 7.7037354 18.327208 9.7773438 19.072266 A 1.50015 1.50015 0 1 0 10.791016 16.25 C 9.3713039 15.739895 8.0050357 15.475474 6.9902344 15.337891 C 7.830578 14.174363 8.8872948 13.222635 10.388672 12.509766 z M 28.632812 13 A 1.5 1.5 0 0 0 28.632812 16 A 1.5 1.5 0 0 0 28.632812 13 z M 20.841797 38.386719 C 22.072206 38.784969 23.367878 39 24.691406 39 C 24.763406 39 24.833297 38.995375 24.904297 38.984375 L 27.382812 38.628906 L 25.570312 40.439453 C 25.146313 40.863453 25.015281 41.500641 25.238281 42.056641 L 26.205078 44.476562 C 23.227001 43.819843 20.547359 42.980386 18.154297 41.970703 L 20.832031 38.400391 A 1.50015 1.50015 0 0 0 20.841797 38.386719 z"/></svg>