<svg xmlns="http://www.w3.org/2000/svg"  viewBox="0 0 48 48" width="50px" height="50px"><path d="M 5.5 4 C 5.11625 4 4.7324531 4.1464531 4.4394531 4.4394531 C 3.8534531 5.0244531 3.8534531 5.9755469 4.4394531 6.5605469 L 14.441406 16.5625 L 9.15625 21.847656 C 5.78925 25.213656 5.217375 30.387188 7.609375 34.367188 L 4.9394531 37.037109 C 4.6584531 37.318109 4.5 37.701609 4.5 38.099609 C 4.5 38.497609 4.6584531 38.878156 4.9394531 39.160156 L 8.8398438 43.060547 C 9.1218438 43.341547 9.5023906 43.5 9.9003906 43.5 C 10.298391 43.5 10.680891 43.341547 10.962891 43.060547 L 13.632812 40.390625 C 17.612812 42.783625 22.786344 42.21075 26.152344 38.84375 L 31.4375 33.558594 L 41.439453 43.560547 C 41.731453 43.854547 42.116 44 42.5 44 C 42.884 44 43.267547 43.853547 43.560547 43.560547 C 44.145547 42.974547 44.145547 42.025453 43.560547 41.439453 L 6.5605469 4.4394531 C 6.2675469 4.1464531 5.88375 4 5.5 4 z M 30.728516 4.4980469 C 28.137406 4.4232344 25.592672 5.4065781 23.701172 7.2988281 L 18.673828 12.328125 L 20.794922 14.449219 L 25.824219 9.4238281 C 27.556219 7.6928281 30.084922 7.0698281 32.419922 7.7988281 L 35.943359 8.8964844 C 36.895359 9.1924844 37.876031 9.2809687 38.832031 9.1679688 C 38.721031 10.121969 38.807516 11.103641 39.103516 12.056641 L 40.201172 15.578125 C 40.930172 17.915125 40.307172 20.444781 38.576172 22.175781 L 33.548828 27.203125 L 35.669922 29.324219 L 40.697266 24.296875 C 43.219266 21.774875 44.128406 18.091547 43.066406 14.685547 L 41.966797 11.162109 C 41.525797 9.7461094 41.902219 8.2179219 42.949219 7.1699219 C 43.242219 6.8769219 43.388672 6.4914219 43.388672 6.1074219 C 43.388672 5.7234219 43.242219 5.339875 42.949219 5.046875 C 42.363219 4.460875 41.414125 4.460875 40.828125 5.046875 C 39.780125 6.095875 38.249938 6.4712969 36.835938 6.0292969 L 33.3125 4.9316406 C 32.46075 4.6658906 31.592219 4.5229844 30.728516 4.4980469 z M 31.296875 10.082031 C 30.567875 10.001031 29.758734 11.133875 29.677734 12.671875 C 29.596734 14.611875 30.5695 15.419328 30.8125 15.986328 C 31.2975 15.339328 32.269641 14.450109 32.431641 12.912109 C 32.593641 11.457109 32.026875 10.163031 31.296875 10.082031 z M 25.792969 12.957031 C 25.574719 12.955328 25.385438 13.008297 25.242188 13.123047 C 24.669187 13.582047 24.897734 14.955609 25.927734 16.099609 C 27.242734 17.528609 28.501219 17.412578 29.074219 17.642578 C 28.960219 16.842578 29.019875 15.526219 28.046875 14.324219 C 27.360625 13.466219 26.447719 12.962141 25.792969 12.957031 z M 35.396484 15.314453 C 35.221668 15.312961 35.043203 15.321672 34.861328 15.341797 C 33.323328 15.503797 32.434109 16.475938 31.787109 16.960938 C 32.354109 17.203938 33.162516 18.176703 35.103516 18.095703 C 36.641516 18.014703 37.772406 17.206563 37.691406 16.476562 C 37.620531 15.838688 36.620199 15.324898 35.396484 15.314453 z M 16.5625 18.683594 L 29.314453 31.435547 L 24.029297 36.722656 C 21.418297 39.332656 17.274672 39.569484 14.388672 37.271484 C 13.791672 36.797484 12.934531 36.846766 12.394531 37.384766 L 9.9003906 39.878906 L 8.1210938 38.097656 L 10.613281 35.605469 C 11.153281 35.066469 11.201563 34.206375 10.726562 33.609375 C 8.4295625 30.723375 8.6653906 26.57875 11.275391 23.96875 L 16.5625 18.683594 z M 30.357422 18.925781 C 30.587422 19.498781 30.470391 20.757266 31.900391 22.072266 C 33.045391 23.102266 34.418953 23.330813 34.876953 22.757812 C 35.335953 22.184812 34.819781 20.868125 33.675781 19.953125 C 32.473781 18.980125 31.157422 19.039781 30.357422 18.925781 z M 16.429688 22.320312 C 16.211437 22.318562 16.022156 22.371828 15.878906 22.486328 C 15.305906 22.945328 15.534453 24.316937 16.564453 25.460938 C 17.879453 26.889937 19.139891 26.775859 19.712891 27.005859 C 19.598891 26.205859 19.656594 24.8895 18.683594 23.6875 C 17.997344 22.8295 17.084437 22.325563 16.429688 22.320312 z M 13.308594 25.441406 C 13.090344 25.439656 12.901062 25.492922 12.757812 25.607422 C 12.184812 26.066422 12.413359 27.438031 13.443359 28.582031 C 14.758359 30.011031 16.018797 29.896953 16.591797 30.126953 C 16.477797 29.326953 16.5355 28.010594 15.5625 26.808594 C 14.87625 25.950594 13.963344 25.446656 13.308594 25.441406 z M 20.994141 28.287109 C 21.224141 28.860109 21.109063 30.120547 22.539062 31.435547 C 23.683063 32.465547 25.054672 32.694094 25.513672 32.121094 C 25.972672 31.548094 25.4565 30.231406 24.3125 29.316406 C 23.1105 28.343406 21.794141 28.401109 20.994141 28.287109 z M 17.873047 31.408203 C 18.103047 31.981203 17.987969 33.241641 19.417969 34.556641 C 20.562969 35.586641 21.934578 35.815187 22.392578 35.242188 C 22.850578 34.669187 22.335406 33.3525 21.191406 32.4375 C 19.989406 31.4645 18.673047 31.522203 17.873047 31.408203 z"/></svg>