<svg xmlns="http://www.w3.org/2000/svg"  viewBox="0 0 48 48" width="50px" height="50px"><path d="M 11.5 6 C 8.4802259 6 6 8.4802259 6 11.5 L 6 36.5 C 6 39.519774 8.4802259 42 11.5 42 L 36.5 42 C 39.519774 42 42 39.519774 42 36.5 L 42 11.5 C 42 8.4802259 39.519774 6 36.5 6 L 11.5 6 z M 11.5 9 L 36.5 9 C 37.898226 9 39 10.101774 39 11.5 L 39 36.5 C 39 37.898226 37.898226 39 36.5 39 L 11.5 39 C 10.101774 39 9 37.898226 9 36.5 L 9 11.5 C 9 10.101774 10.101774 9 11.5 9 z M 36 12 C 36 12 32.34925 11.999734 30.65625 13.677734 C 28.70325 15.739734 29.354141 18.063219 29.744141 18.449219 C 30.135141 18.708219 32.477547 19.481969 34.560547 17.417969 C 36.124547 15.739969 36 12 36 12 z M 27 14 C 25.349 14.129 23.228734 15.374641 22.677734 17.556641 C 21.989734 20.250641 23.642734 22.046781 24.052734 22.175781 C 24.465734 22.302781 26.175 21.182 27 19 C 28.103 16.048 27.138 13.872 27 14 z M 20 19 C 20 19 17.403344 20.124719 17.402344 23.386719 C 17.402344 26.646719 18.675234 27.359375 19.490234 27.359375 C 20.305234 27.359375 21.835938 25.824906 21.835938 23.503906 C 21.835938 20.124906 20 19 20 19 z M 31.912109 20.480469 C 31.103938 20.465193 30.107 20.587125 29 21 C 26.818 21.825 25.820219 23.657312 25.949219 24.070312 C 26.077219 24.484312 27.874359 26.136266 30.568359 25.447266 C 32.751359 24.896266 33.872 22.651 34 21 C 34.08 20.91375 33.259062 20.505928 31.912109 20.480469 z M 15 24 C 15 24 12.299828 25.228234 12.298828 28.490234 C 12.298828 31.750234 13.571719 32.464844 14.386719 32.464844 C 15.202719 32.464844 16.731469 30.928422 16.730469 28.607422 C 16.730469 25.228422 15 24 15 24 z M 24.621094 26.289062 C 22.300094 26.289063 20.765625 27.819766 20.765625 28.634766 C 20.765625 29.449766 21.476281 30.722656 24.738281 30.722656 C 28.000281 30.722656 29 28 29 28 C 29 28 28.000094 26.289062 24.621094 26.289062 z M 19.517578 31.392578 C 17.196578 31.392578 15.660156 32.923281 15.660156 33.738281 C 15.660156 34.553281 16.372766 35.826172 19.634766 35.826172 C 22.896766 35.826172 24 33 24 33 C 24 33 22.896578 31.393578 19.517578 31.392578 z"/></svg>