<svg xmlns="http://www.w3.org/2000/svg"  viewBox="0 0 48 48" width="50px" height="50px"><path d="M17.5 6h.761c-.221 1.405-.568 3.44-.974 5.166l2.437 2.437c.073-.239.159-.469.225-.712.596-2.206 1.092-5.199 1.35-6.891h5.404c.257 1.691.754 4.685 1.35 6.891.359 1.331.846 2.604 1.317 3.833.839 2.19 1.631 4.26 1.631 6.42v1.735l3 3v-4.735c0-2.715-.93-5.144-1.829-7.492-.465-1.214-.903-2.359-1.223-3.542C30.444 10.24 30.001 7.673 29.739 6H30.5C31.329 6 32 5.328 32 4.5S31.329 3 30.5 3H28h-8-2.5C16.671 3 16 3.672 16 4.5S16.671 6 17.5 6zM43.561 41.439l-37-37c-.586-.586-1.535-.586-2.121 0s-.586 1.535 0 2.121l10.764 10.764C14.545 19.158 14 21.067 14 23.144V39.5c0 3.032 2.467 5.5 5.5 5.5h9c3.033 0 5.5-2.468 5.5-5.5v-3.379l7.439 7.439C41.732 43.854 42.116 44 42.5 44s.768-.146 1.061-.439C44.146 42.975 44.146 42.025 43.561 41.439zM31 39.5c0 1.379-1.122 2.5-2.5 2.5h-9c-1.378 0-2.5-1.121-2.5-2.5V23.144c0-1.164.234-2.301.577-3.446L31 33.121V39.5z"/></svg>