<svg xmlns="http://www.w3.org/2000/svg"  viewBox="0 0 48 48" width="50px" height="50px"><path d="M 11.5 6 C 8.4802259 6 6 8.4802259 6 11.5 L 6 36.5 C 6 39.519774 8.4802259 42 11.5 42 L 36.5 42 C 39.519774 42 42 39.519774 42 36.5 L 42 11.5 C 42 8.4802259 39.519774 6 36.5 6 L 11.5 6 z M 11.5 9 L 36.5 9 C 37.898226 9 39 10.101774 39 11.5 L 39 36.5 C 39 37.898226 37.898226 39 36.5 39 L 11.5 39 C 10.101774 39 9 37.898226 9 36.5 L 9 11.5 C 9 10.101774 10.101774 9 11.5 9 z M 12.009766 19.976562 C 11.457766 19.976562 11.009766 20.424563 11.009766 20.976562 L 11.009766 26.976562 C 11.009766 27.528562 11.457766 27.976562 12.009766 27.976562 C 12.561766 27.976562 13.009766 27.528562 13.009766 26.976562 L 13.009766 24.9375 L 15.240234 27.615234 C 15.438234 27.852234 15.722766 27.976563 16.009766 27.976562 C 16.235766 27.976562 16.463391 27.900141 16.650391 27.744141 C 17.074391 27.390141 17.130344 26.759937 16.777344 26.335938 L 14.8125 23.976562 L 16.777344 21.615234 C 17.129344 21.191234 17.072437 20.560031 16.648438 20.207031 C 16.224438 19.853031 15.593234 19.912937 15.240234 20.335938 L 13.009766 23.013672 L 13.009766 20.976562 C 13.009766 20.424563 12.561766 19.976562 12.009766 19.976562 z M 21.134766 19.976562 C 19.319766 19.976562 17.84375 21.770562 17.84375 23.976562 C 17.84375 26.182562 19.319766 27.976563 21.134766 27.976562 C 22.581766 27.976562 23.447469 26.996016 23.730469 26.416016 C 23.973469 25.920016 23.767484 25.320125 23.271484 25.078125 C 22.774484 24.836125 22.176547 25.042109 21.935547 25.537109 C 21.933547 25.541109 21.695719 25.976563 21.136719 25.976562 C 20.448719 25.976562 19.84375 25.041562 19.84375 23.976562 C 19.84375 22.911562 20.448719 21.976562 21.136719 21.976562 C 21.660719 21.976562 21.897359 22.349641 21.943359 22.431641 C 22.190359 22.915641 22.780484 23.115 23.271484 22.875 C 23.768484 22.632 23.973469 22.033109 23.730469 21.537109 C 23.447469 20.957109 22.581766 19.976563 21.134766 19.976562 z M 27.669922 19.976562 C 27.265922 19.976562 26.901094 20.219797 26.746094 20.591797 L 24.246094 26.591797 C 24.034094 27.101797 24.275156 27.685437 24.785156 27.898438 C 25.295156 28.110437 25.88175 27.870328 26.09375 27.361328 L 26.253906 26.976562 L 29.087891 26.976562 L 29.246094 27.361328 C 29.406094 27.745328 29.778922 27.976562 30.169922 27.976562 C 30.297922 27.976562 30.428687 27.951438 30.554688 27.898438 C 31.064688 27.686438 31.303797 27.101797 31.091797 26.591797 L 28.59375 20.591797 C 28.43875 20.218797 28.073922 19.976562 27.669922 19.976562 z M 33.001953 19.976562 C 32.449953 19.976562 32.001953 20.424563 32.001953 20.976562 L 32.001953 26.976562 C 32.001953 27.528562 32.449953 27.976562 33.001953 27.976562 L 36.001953 27.976562 C 36.553953 27.976562 37.001953 27.528562 37.001953 26.976562 C 37.001953 26.424563 36.553953 25.976562 36.001953 25.976562 L 34.001953 25.976562 L 34.001953 20.976562 C 34.001953 20.424563 33.553953 19.976562 33.001953 19.976562 z M 27.669922 23.576172 L 28.253906 24.976562 L 27.087891 24.976562 L 27.669922 23.576172 z"/></svg>