<svg xmlns="http://www.w3.org/2000/svg"  viewBox="0 0 48 48" width="50px" height="50px"><path d="M 12.115234 4.5039062 C 11.449295 4.4528982 10.921232 4.8601773 10.703125 5.1328125 C 10.485018 5.4054477 10.407661 5.6220631 10.341797 5.8261719 C 10.210069 6.2343895 10.170453 6.616793 10.164062 7.0566406 C 10.151283 7.9363358 10.314303 9.0081354 10.792969 10.130859 C 11.69011 12.23513 13.94373 14.357351 17.6875 14.855469 L 19.28125 16.701172 C 18.89297 16.795 18.501961 16.885586 18.119141 16.986328 C 13.248883 18.267975 8.9296875 20.050781 8.9296875 20.050781 A 1.50015 1.50015 0 0 0 8.4101562 20.382812 C 7.9891479 20.591634 7.5898755 20.841753 7.2480469 21.183594 C 6.3517799 22.079892 5.9351187 23.310007 5.8808594 24.554688 C 5.8265984 25.799367 6.0937297 27.103254 6.5917969 28.455078 C 7.5879327 31.158726 9.5265293 34.069591 12.197266 36.740234 C 14.868003 39.410877 17.776787 41.349662 20.480469 42.345703 C 21.832311 42.843724 23.140087 43.110946 24.384766 43.056641 C 25.629445 43.002341 26.857639 42.585751 27.753906 41.689453 C 28.111311 41.332036 28.37363 40.9138 28.585938 40.470703 A 1.5001747 1.5001747 0 0 0 28.841797 40.107422 C 28.841797 40.107422 30.758241 36.270755 32.169922 31.691406 L 37.308594 38.412109 A 1.5004636 1.5004636 0 0 0 39.691406 36.587891 L 33.191406 28.087891 A 1.50015 1.50015 0 0 0 33.125 28.007812 C 33.411725 26.615896 33.61178 25.21509 33.640625 23.859375 C 33.663247 22.796233 33.577504 21.742905 33.34375 20.75 L 34.609375 19.484375 C 35.627744 18.466006 36.965938 17.853769 38.238281 17.927734 A 1.50015 1.50015 0 0 0 38.240234 17.927734 C 38.611456 17.948524 38.995436 17.924339 39.380859 17.849609 L 39.380859 17.851562 C 41.197227 17.499958 42.605454 16.067746 42.927734 14.246094 C 43.325057 12.001414 41.942219 9.9872504 39.962891 9.2714844 C 39.936143 8.6111705 39.775524 7.9177689 39.396484 7.2539062 C 38.736158 6.0968745 37.597831 5.1946323 36.171875 4.984375 C 33.444426 4.5850929 31 6.7477791 31 9.4375 L 31 9.4628906 A 1.50015 1.50015 0 0 0 31 9.4746094 C 31.01148 10.912981 30.579663 12.201587 29.673828 13.107422 L 27.060547 15.720703 C 26.539081 15.696782 26.007376 15.695247 25.466797 15.71875 C 24.560995 15.758133 23.615464 15.874749 22.660156 16.023438 L 19.947266 12.880859 C 19.909486 12.221703 19.785364 10.949833 19.056641 9.3242188 C 18.096718 7.1828539 15.898952 4.7949614 12.115234 4.5039062 z M 13.308594 7.7851562 C 14.973378 8.2918817 15.788849 9.3695655 16.318359 10.550781 C 16.564551 11.099978 16.469859 11.171803 16.570312 11.642578 C 14.792706 11.08522 14.002486 10.00803 13.552734 8.953125 C 13.365634 8.514277 13.36169 8.1656751 13.308594 7.7851562 z M 35.376953 7.9375 C 35.491881 7.9301121 35.610941 7.9352043 35.734375 7.953125 C 36.112419 8.008868 36.547342 8.3152193 36.791016 8.7421875 C 37.103413 9.2893312 37.054988 9.5180679 36.900391 9.9433594 A 1.50015 1.50015 0 0 0 38.404297 11.951172 C 38.642082 11.936312 38.665772 11.935547 38.5 11.935547 C 39.437307 11.935547 40.155383 12.701502 39.974609 13.722656 C 39.876889 14.275004 39.36018 14.799854 38.810547 14.90625 C 38.66997 14.93351 38.536982 14.940804 38.408203 14.933594 C 36.104119 14.801006 34.003033 15.848529 32.488281 17.363281 L 31.984375 17.867188 C 31.849499 17.700225 31.715783 17.532189 31.560547 17.376953 C 31.227331 17.043737 30.856054 16.780425 30.462891 16.560547 L 31.794922 15.228516 C 33.369087 13.65435 34.016519 11.518847 34 9.4492188 L 34 9.4375 C 34 8.6310972 34.572461 7.9892153 35.376953 7.9375 z M 25.595703 18.716797 C 27.570992 18.630917 28.969783 19.028377 29.439453 19.498047 C 30.265189 20.323783 30.68288 21.808942 30.640625 23.794922 C 30.598365 25.780901 30.102049 28.149463 29.4375 30.384766 C 29.059062 31.657693 28.636587 32.846432 28.216797 33.951172 C 27.176836 31.381001 25.321115 28.65306 22.802734 26.134766 C 20.429562 23.761677 17.868196 21.969824 15.429688 20.900391 C 16.509753 20.553937 17.673562 20.204429 18.880859 19.886719 C 19.752565 19.657322 20.634824 19.457002 21.507812 19.279297 L 23.408203 21.480469 A 1.50015 1.50015 0 1 0 25.677734 19.519531 L 25.027344 18.765625 C 25.214721 18.751496 25.41539 18.724637 25.595703 18.716797 z M 10.746094 22.814453 C 11.446899 22.783883 12.401034 22.946084 13.480469 23.34375 C 15.639341 24.139082 18.275473 25.849776 20.681641 28.255859 C 23.087809 30.661943 24.79639 33.296234 25.591797 35.455078 C 25.989501 36.5345 26.153597 37.488648 26.123047 38.189453 C 26.092497 38.890259 25.908098 39.293063 25.632812 39.568359 C 25.357526 39.843654 24.952758 40.028019 24.251953 40.058594 C 23.551149 40.089164 22.597014 39.926963 21.517578 39.529297 C 19.358706 38.733966 16.724527 37.025225 14.318359 34.619141 C 11.912191 32.213057 10.201657 29.576813 9.40625 27.417969 C 9.0085465 26.338547 8.8464027 25.3844 8.8769531 24.683594 C 8.9075041 23.982788 9.0938545 23.581937 9.3691406 23.306641 C 9.6444266 23.031346 10.045289 22.845028 10.746094 22.814453 z M 15.484375 27.921875 A 1.50015 1.50015 0 0 0 14.439453 30.498047 L 18.439453 34.498047 A 1.50015 1.50015 0 1 0 20.560547 32.376953 L 16.560547 28.376953 A 1.50015 1.50015 0 0 0 15.484375 27.921875 z"/></svg>