<svg xmlns="http://www.w3.org/2000/svg"  viewBox="0 0 48 48" width="50px" height="50px"><path d="M 5.484375 3.984375 A 1.50015 1.50015 0 0 0 4.4394531 6.5605469 L 11.517578 13.638672 C 9.5879548 14.355753 7.8353046 15.65335 6.4785156 17.439453 C 4.2105156 20.426453 3.4917969 23.578641 4.3417969 26.806641 C 6.4487969 34.811641 17.637563 40.397734 22.351562 42.427734 C 22.894562 42.660734 23.476453 42.779297 24.064453 42.779297 C 24.610453 42.779297 25.162312 42.676609 25.695312 42.474609 C 28.901892 41.255812 32.178668 39.390056 35.064453 37.185547 L 41.439453 43.560547 A 1.50015 1.50015 0 1 0 43.560547 41.439453 L 6.5605469 4.4394531 A 1.50015 1.50015 0 0 0 5.484375 3.984375 z M 32.636719 5.9394531 C 30.288328 5.8838496 28.293469 6.5709219 26.699219 7.9980469 C 25.813219 8.7910469 25.142859 9.743375 24.630859 10.734375 C 24.586859 10.680375 24.548906 10.622313 24.503906 10.570312 C 22.299906 8.0283125 18.654 8 18.5 8 C 17.674 8 17.007906 8.6661875 17.003906 9.4921875 C 16.999906 10.317187 17.666188 10.992 18.492188 11 C 18.516188 11 20.954047 11.041828 22.248047 12.548828 C 22.988047 13.410828 23.247625 14.667109 23.015625 16.287109 C 22.996625 16.423109 23.009344 16.554594 23.027344 16.683594 C 23.027344 16.683594 23.027344 16.685547 23.027344 16.685547 L 25.175781 18.832031 L 25.326172 18.982422 C 26.446172 18.791422 27.5165 18.348859 28.4375 17.630859 C 29.8465 16.532859 31.339 16 33 16 C 37.411 16 41 19.589 41 24 C 41 26.179 39.583344 28.668594 37.402344 31.058594 L 39.515625 33.171875 C 42.231625 30.197875 44 26.975 44 24 C 44 17.935 39.065 13 33 13 C 30.678 13 28.52275 13.762625 26.59375 15.265625 C 26.470997 15.361417 26.343521 15.421629 26.21875 15.5 C 26.500098 13.867495 27.149183 11.619607 28.699219 10.232422 C 29.874219 9.1804219 31.391984 8.7722344 33.333984 8.9902344 C 34.150984 9.0772344 34.899234 8.4890156 34.990234 7.6660156 C 35.082234 6.8430156 34.487063 6.1017656 33.664062 6.0097656 C 33.314312 5.9715156 32.972203 5.9473965 32.636719 5.9394531 z M 13.960938 16.082031 L 23.878906 26 L 19.5 26 A 1.50015 1.50015 0 1 0 19.5 29 L 26.488281 29 A 1.50015 1.50015 0 0 0 26.839844 28.960938 L 30.878906 33 L 27.5 33 A 1.50015 1.50015 0 1 0 27.5 36 L 31.580078 36 C 29.354601 37.505953 26.955349 38.789021 24.632812 39.671875 C 24.257812 39.814875 23.869062 39.815875 23.539062 39.671875 C 14.564063 35.807875 8.4711875 30.713922 7.2421875 26.044922 C 7.0607711 25.35548 6.9948467 24.674932 7.015625 24 L 14.5 24 A 1.50015 1.50015 0 1 0 14.5 21 L 7.78125 21 C 8.0660487 20.418752 8.4250619 19.838272 8.8671875 19.255859 C 10.180376 17.526973 12.037229 16.38337 13.960938 16.082031 z"/></svg>