<svg xmlns="http://www.w3.org/2000/svg"  viewBox="0 0 48 48" width="50px" height="50px"><path d="M 5.484375 3.984375 A 1.50015 1.50015 0 0 0 4.4394531 6.5605469 L 14.933594 17.054688 C 13.970431 17.828061 13.074251 18.608971 12.283203 19.349609 L 5.1953125 15.369141 C 4.7313125 15.108141 4.162125 15.112813 3.703125 15.382812 C 3.244125 15.652812 2.9628906 16.144734 2.9628906 16.677734 L 2.9628906 31.324219 C 2.9628906 31.857219 3.244125 32.349141 3.703125 32.619141 C 4.163125 32.888141 4.7313125 32.892813 5.1953125 32.632812 L 12.283203 28.652344 C 14.782203 30.993344 18.235047 33.755375 21.998047 35.359375 L 21.998047 39.667969 C 21.998047 40.495969 22.669047 41.167969 23.498047 41.167969 C 26.926047 41.167969 29.992531 39.261094 31.519531 36.246094 C 32.181045 36.073354 32.827533 35.843327 33.462891 35.583984 L 41.439453 43.560547 A 1.50015 1.50015 0 1 0 43.560547 41.439453 L 36.279297 34.158203 C 36.287482 34.153211 36.29651 34.149533 36.304688 34.144531 L 34.121094 31.960938 C 34.112722 31.965628 34.104084 31.969932 34.095703 31.974609 L 19.519531 17.398438 C 19.527435 17.393246 19.535059 17.387997 19.542969 17.382812 L 17.386719 15.226562 C 17.378892 15.231903 17.371102 15.236842 17.363281 15.242188 L 6.5605469 4.4394531 A 1.50015 1.50015 0 0 0 5.484375 3.984375 z M 23.498047 6.8320312 C 22.669047 6.8320312 21.998047 7.5040312 21.998047 8.3320312 L 21.998047 12.642578 C 21.325047 12.929578 20.666578 13.263234 20.017578 13.615234 L 22.242188 15.839844 C 22.826187 15.553844 23.416672 15.288313 24.013672 15.070312 C 24.605672 14.853312 24.998047 14.290156 24.998047 13.660156 L 24.998047 10.023438 C 26.815047 10.491437 28.331594 11.795375 29.058594 13.609375 C 29.246594 14.077375 29.656391 14.421484 30.150391 14.521484 C 30.170391 14.525484 30.254875 14.538922 30.296875 14.544922 C 36.656875 15.923922 41.466766 22.494047 42.009766 23.998047 C 41.670766 24.938047 39.66225 27.860906 36.65625 30.253906 L 38.791016 32.388672 C 42.538016 29.368672 45.037109 25.595047 45.037109 23.998047 C 45.037109 21.503047 38.948859 13.687 31.505859 11.75 C 29.976859 8.738 26.916047 6.8320312 23.498047 6.8320312 z M 17.070312 19.191406 L 31.117188 33.238281 C 30.849034 33.316602 30.58117 33.392083 30.306641 33.451172 C 30.280641 33.455172 30.194922 33.470609 30.169922 33.474609 C 29.671922 33.574609 29.258312 33.917672 29.070312 34.388672 C 28.344313 36.202672 26.823047 37.511516 24.998047 37.978516 L 24.998047 34.337891 C 24.998047 33.707891 24.604672 33.146688 24.013672 32.929688 C 19.940672 31.441688 16.085359 28.190562 13.568359 25.726562 C 13.280359 25.444562 12.902531 25.298828 12.519531 25.298828 C 12.268531 25.298828 12.015156 25.361234 11.785156 25.490234 L 5.9628906 28.761719 L 5.9628906 19.238281 L 11.785156 22.509766 C 12.367156 22.837766 13.092359 22.739437 13.568359 22.273438 C 14.548702 21.31378 15.749913 20.238686 17.070312 19.191406 z M 36.5 21 A 1.5 1.5 0 0 0 36.5 24 A 1.5 1.5 0 0 0 36.5 21 z"/></svg>