<svg xmlns="http://www.w3.org/2000/svg"  viewBox="0 0 48 48" width="50px" height="50px"><path d="M 24.140625 1.53125 C 23.778625 1.49725 23.40325 1.5903594 23.09375 1.8183594 C 22.99975 1.8863594 22.900219 1.9823125 22.824219 2.0703125 C 22.128219 2.8863125 18.914656 6.9168594 18.347656 12.005859 L 20.982422 14.638672 C 21.155422 14.393672 21.259766 14.098391 21.259766 13.775391 L 21.257812 13.519531 C 21.257812 10.206531 22.828047 7.2508125 23.998047 5.5078125 C 25.137047 7.2148125 26.740281 10.215266 26.738281 13.572266 L 26.730469 13.736328 C 26.716469 14.350328 27.079531 14.909391 27.644531 15.150391 C 28.208531 15.390391 28.862922 15.262172 29.294922 14.826172 L 29.470703 14.648438 C 31.815703 12.303437 35.019125 11.323922 37.078125 10.919922 C 36.682125 12.925922 35.701359 16.170734 33.318359 18.552734 L 33.179688 18.679688 C 32.739688 19.105687 32.602984 19.756219 32.833984 20.324219 C 33.064984 20.892219 33.644469 21.262813 34.230469 21.257812 L 34.478516 21.255859 C 37.787516 21.255859 40.744281 22.825094 42.488281 23.996094 C 40.783281 25.135094 37.788547 26.738281 34.435547 26.738281 L 34.429688 26.738281 L 34.261719 26.730469 L 34.224609 26.730469 C 33.898609 26.730469 33.601375 26.838578 33.359375 27.017578 L 35.990234 29.648438 C 41.558234 29.035438 45.789422 25.285328 45.982422 25.111328 C 46.553422 24.595328 46.630781 23.716703 46.175781 23.095703 C 46.106781 23.001703 46.009875 22.902172 45.921875 22.826172 C 45.170875 22.187172 41.708031 19.413344 37.207031 18.527344 C 40.031031 14.339344 40.315125 9.4782813 40.328125 9.2382812 C 40.368125 8.4612813 39.791531 7.7808281 39.019531 7.6738281 C 38.913531 7.6598281 38.783828 7.6580156 38.673828 7.6660156 C 37.691828 7.7440156 33.27875 8.2281094 29.46875 10.787109 C 28.50475 5.8281094 25.269375 2.1916719 25.109375 2.0136719 C 24.850875 1.7276719 24.502625 1.56525 24.140625 1.53125 z M 5.484375 3.984375 A 1.50015 1.50015 0 0 0 4.4394531 6.5605469 L 7.7421875 9.8632812 C 7.9125557 11.202647 8.5772451 15.036954 11.035156 18.591797 C 5.8103801 19.543488 2.015625 22.886719 2.015625 22.886719 A 1.50015 1.50015 0 0 0 2.015625 25.113281 C 2.015625 25.113281 5.8057638 28.394497 11.007812 29.34375 C 7.9876857 33.711812 7.6679686 38.757812 7.6679688 38.757812 A 1.50015 1.50015 0 0 0 9.2441406 40.333984 C 9.2441406 40.333984 14.242403 39.972947 18.591797 36.966797 C 19.543127 42.190719 22.886719 45.984375 22.886719 45.984375 A 1.50015 1.50015 0 0 0 25.113281 45.984375 C 25.113281 45.984375 28.42149 42.162527 29.353516 36.925781 C 32.926244 39.419086 36.797686 40.089752 38.138672 40.259766 L 41.439453 43.560547 A 1.50015 1.50015 0 1 0 43.560547 41.439453 L 40.089844 37.96875 A 1.50015 1.50015 0 0 0 39.673828 37.552734 L 10.351562 8.2304688 A 1.50015 1.50015 0 0 0 10.080078 7.9589844 L 6.5605469 4.4394531 A 1.50015 1.50015 0 0 0 5.484375 3.984375 z M 11.796875 13.917969 L 34.083984 36.205078 C 32.527978 35.615759 30.847049 34.725956 29.470703 33.349609 C 29.484043 33.362949 29.438793 33.306049 29.316406 33.177734 A 1.50015 1.50015 0 0 0 26.730469 34.248047 C 26.734469 34.427371 26.742188 34.50158 26.742188 34.480469 C 26.742188 38.101735 25.108163 40.766451 23.984375 42.351562 C 22.952019 40.879647 21.590584 38.611474 21.296875 35.464844 A 1.50015 1.50015 0 0 0 21.291016 35.417969 C 21.266056 35.218857 21.259766 34.858469 21.259766 34.480469 C 21.259766 34.490469 21.267664 34.416149 21.271484 34.248047 A 1.50015 1.50015 0 0 0 18.693359 33.169922 C 18.564935 33.302489 18.515683 33.365177 18.53125 33.349609 C 15.97032 35.91054 12.929165 36.640503 11.013672 36.966797 C 11.323975 35.196237 11.963146 32.628121 13.980469 30.193359 A 1.50015 1.50015 0 0 0 14.009766 30.15625 C 14.132516 29.99818 14.383391 29.737703 14.650391 29.470703 C 14.640391 29.480703 14.699781 29.433233 14.822266 29.316406 A 1.50015 1.50015 0 0 0 13.751953 26.730469 C 13.572629 26.734469 13.49842 26.742188 13.519531 26.742188 C 9.8982649 26.742188 7.233549 25.108163 5.6484375 23.984375 C 7.1203955 22.951917 9.3884054 21.58924 12.535156 21.294922 A 1.50015 1.50015 0 0 0 12.582031 21.291016 C 12.781143 21.266056 13.141531 21.259766 13.519531 21.259766 C 13.509531 21.259766 13.583861 21.265731 13.751953 21.269531 A 1.50015 1.50015 0 0 0 14.830078 18.693359 C 14.697504 18.564891 14.634823 18.513729 14.650391 18.529297 C 13.292163 17.171069 12.392902 15.487688 11.796875 13.917969 z M 12.255859 18.308594 C 12.248159 18.30931 12.242025 18.3118 12.234375 18.3125 C 12.224975 18.3136 12.218434 18.313222 12.208984 18.314453 L 12.255859 18.308594 z M 11.671875 28.279297 C 11.669275 28.282397 11.668616 28.285962 11.666016 28.289062 C 11.657416 28.299962 11.649185 28.305386 11.640625 28.316406 L 11.671875 28.279297 z M 18.308594 35.744141 C 18.309309 35.751841 18.3118 35.757975 18.3125 35.765625 C 18.3136 35.775025 18.313222 35.781566 18.314453 35.791016 L 18.308594 35.744141 z"/></svg>