<svg xmlns="http://www.w3.org/2000/svg"  viewBox="0 0 48 48" width="50px" height="50px"><path d="M 36.5 3.8222656 C 32.666 3.8222656 29.886594 6.3337344 28.433594 8.0527344 C 26.207594 7.3537344 23.88 7 21.5 7 C 18.981 7 16.616797 7.4010469 14.466797 8.1230469 L 16.888672 10.544922 C 18.334672 10.192922 19.88 10 21.5 10 C 23.9 10 26.234453 10.412609 28.439453 11.224609 C 29.074453 11.457609 29.780828 11.239359 30.173828 10.693359 C 30.874828 9.7203594 32.591047 7.6724375 34.998047 7.0234375 L 34.998047 15.003906 C 34.998047 15.351906 35.120797 15.687078 35.341797 15.955078 C 36.767797 17.688078 37.656062 19.672406 37.914062 21.691406 C 38.010062 22.439406 38.647344 23.001953 39.402344 23.001953 L 41.5 23.001953 C 42.327 23.001953 43 23.674953 43 24.501953 C 43 25.735953 42.273437 26.860187 41.148438 27.367188 L 36.021484 29.679688 L 38.289062 31.947266 L 42.380859 30.101562 C 44.579859 29.110563 46 26.912 46 24.5 C 46 22.019 43.981 20 41.5 20 L 40.65625 20 C 40.20125 18.052 39.298 16.170516 38 14.478516 L 38 5.3222656 C 38 4.4942656 37.329 3.8222656 36.5 3.8222656 z M 5.484375 3.984375 A 1.50015 1.50015 0 0 0 4.4394531 6.5605469 L 8.9492188 11.070312 C 8.0692509 11.7573 7.2680474 12.517454 6.5625 13.345703 C 5.7382354 13.274943 5.1895404 12.71505 4.7011719 11.919922 C 4.1704862 11.055896 3.9414063 10.152344 3.9414062 10.152344 A 1.50015 1.50015 0 0 0 2.4023438 8.984375 A 1.50015 1.50015 0 0 0 1.0253906 10.855469 C 1.0253906 10.855469 1.3279669 12.16076 2.1445312 13.490234 C 2.6892208 14.377061 3.574912 15.367392 4.7851562 15.921875 C 3.6355823 18.032175 3 20.425313 3 23 C 3 24.674 3.3275625 26.311047 3.9765625 27.873047 C 3.8325625 29.955047 3.4569219 38.298078 6.2949219 42.330078 C 7.0299219 43.375078 8.2459219 44 9.5449219 44 C 10.662922 44 11.733375 43.524313 12.484375 42.695312 C 13.240375 41.860312 13.609047 40.735328 13.498047 39.611328 C 13.241047 37.028328 13.857234 35.750438 14.365234 35.148438 C 17.440234 37.593438 22.068031 37.989453 24.832031 37.814453 L 28.519531 42.423828 C 29.321531 43.425828 30.514875 44 31.796875 44 C 33.153875 44 34.390453 43.370438 35.189453 42.273438 C 35.988453 41.176437 36.208969 39.806672 35.792969 38.513672 L 35.507812 37.628906 L 41.439453 43.560547 A 1.50015 1.50015 0 1 0 43.560547 41.439453 L 6.5605469 4.4394531 A 1.50015 1.50015 0 0 0 5.484375 3.984375 z M 11.097656 13.21875 L 30.931641 33.052734 C 30.940001 33.17103 30.956326 33.288926 30.994141 33.40625 L 32.9375 39.433594 C 33.0565 39.802594 32.993625 40.195813 32.765625 40.507812 C 32.323625 41.115812 31.333281 41.137781 30.863281 40.550781 L 26.673828 35.308594 C 26.386828 34.950594 25.954953 34.744141 25.501953 34.744141 C 25.438953 34.744141 25.3755 34.749812 25.3125 34.757812 C 23.5995 34.979813 18.139469 34.97675 15.605469 32.21875 C 15.209469 31.78875 14.601828 31.624688 14.048828 31.804688 C 13.876828 31.858687 9.848625 33.212203 10.515625 39.908203 C 10.553625 40.294203 10.372719 40.558641 10.261719 40.681641 C 10.152719 40.801641 9.9179219 41 9.5449219 41 C 9.2209219 41 8.9220469 40.852516 8.7480469 40.603516 C 6.6740469 37.657516 6.7791406 30.322141 6.9941406 27.744141 C 7.0151406 27.491141 6.9731406 27.235906 6.8691406 27.003906 C 6.2921406 25.722906 6 24.376 6 23 C 6 19.012962 7.9381627 15.562402 11.097656 13.21875 z M 34.5 20 A 1.5 1.5 0 0 0 34.5 23 A 1.5 1.5 0 0 0 34.5 20 z"/></svg>