<svg xmlns="http://www.w3.org/2000/svg"  viewBox="0 0 48 48" width="50px" height="50px"><path d="M 13.679688 2.4707031 C 13.28089 2.4704432 12.879276 2.4947229 12.478516 2.5449219 C 11.409822 2.6787857 10.344193 2.9895231 9.3378906 3.4726562 C 5.3126822 5.4051892 2 10 2 16.5 A 1.50015 1.50015 0 0 0 4.3496094 17.736328 C 5.5042896 16.943147 6.8310597 16.998784 8.4921875 17.371094 C 10.153315 17.743404 11.894266 18.5 13.787109 18.5 C 16.491063 18.5 19.211175 17.197202 20.779297 14.828125 A 1.5002444 1.5002444 0 1 0 18.277344 13.171875 C 17.339465 14.588798 15.485156 15.5 13.787109 15.5 C 12.873953 15.5 11.11131 14.883299 9.1484375 14.443359 C 7.9682669 14.178847 6.6237254 14.0534 5.2792969 14.271484 C 5.9155246 10.121709 8.1270222 7.3826585 10.636719 6.1777344 C 12.906377 5.0880542 15.178208 5.1596885 16.814453 6.4257812 C 12.94835 6.8800709 10.523436 8.8613281 10.523438 8.8613281 A 1.50015 1.50015 0 1 0 12.476562 11.138672 C 12.476562 11.138672 15.362099 8.5910492 20.232422 9.4765625 A 1.50015 1.50015 0 0 0 20.314453 9.4882812 C 20.314453 9.4882812 20.790085 9.5145082 21.474609 10.15625 C 22.159135 10.797992 23 12.057692 23 15 L 23 22 L 23 26 L 7.5 26 C 5.5850452 26 4 27.585045 4 29.5 C 4 38.568182 11.431818 46 20.5 46 L 27.5 46 C 36.594719 46 44 38.594719 44 29.5 C 44 27.585045 42.414955 26 40.5 26 L 26 26 L 26 22 C 26 21.416667 26.119005 20.063996 26.634766 18.826172 C 27.120992 17.659229 27.92651 16.648174 29.316406 16.042969 C 31.422751 16.083849 32.99592 16.372338 33.900391 16.673828 C 34.867277 16.996123 35.099609 17.199219 35.099609 17.199219 A 1.50015 1.50015 0 1 0 36.900391 14.800781 C 36.900391 14.800781 36.132723 14.253877 34.849609 13.826172 C 34.100513 13.576473 33.062029 13.367462 31.861328 13.210938 C 33.471723 11.95488 35.684032 11.851915 37.871094 12.861328 C 40.141069 13.909009 42.089756 16.164572 42.716797 19.421875 C 41.540108 19.337565 40.387692 19.548824 39.402344 19.853516 C 37.684281 20.384778 36.156189 21 35.5 21 C 35.126 21 34.115239 20.575005 33.28125 19.970703 C 32.447261 19.366402 31.651145 18.539274 31.662109 18.552734 A 1.50015 1.50015 0 1 0 29.337891 20.447266 C 29.752855 20.956726 30.456473 21.628692 31.521484 22.400391 C 32.586496 23.172089 33.874 24 35.5 24 C 37.325811 24 38.849672 23.163237 40.287109 22.71875 C 41.724547 22.274263 42.760177 22.152247 43.675781 22.753906 A 1.50015 1.50015 0 0 0 46 21.5 C 46 15.95 42.892678 11.875797 39.128906 10.138672 C 35.365134 8.4015462 30.689313 9.0119289 28.251953 12.667969 A 1.50015 1.50015 0 0 0 27.996094 13.369141 A 1.50015 1.50015 0 0 0 27.853516 13.509766 C 27.13594 13.866529 26.488908 14.27902 25.962891 14.777344 C 25.906231 11.374813 24.807498 9.1707255 23.525391 7.96875 C 22.546556 7.0510923 21.656237 6.7718272 21.160156 6.6484375 A 1.50015 1.50015 0 0 0 20.785156 6.5273438 A 1.50015 1.50015 0 0 0 20.691406 6.3417969 C 19.142738 3.7189873 16.471272 2.4725227 13.679688 2.4707031 z M 7.5 29 L 24.253906 29 A 1.50015 1.50015 0 0 0 24.740234 29 L 40.5 29 C 40.795045 29 41 29.204955 41 29.5 C 41 36.973281 34.973281 43 27.5 43 L 20.5 43 C 13.068182 43 7 36.931818 7 29.5 C 7 29.204955 7.2049548 29 7.5 29 z"/></svg>