<svg xmlns="http://www.w3.org/2000/svg"  viewBox="0 0 48 48" width="50px" height="50px"><path d="M43.561 41.439l-37-37c-.586-.586-1.535-.586-2.121 0-.586.585-.586 1.536 0 2.121l7.908 7.908C8.326 15.778 5.142 19.666 5 24.017l.006 1.003C5.153 36.037 11.771 45 19.757 45h.266c1.616 0 3.05-.797 3.978-1.477C24.928 44.203 26.36 45 27.977 45h.266c3.666 0 7.038-1.895 9.632-5.004l3.565 3.565C41.732 43.854 42.116 44 42.5 44s.768-.146 1.061-.439C44.146 42.975 44.146 42.025 43.561 41.439zM28.242 42h-.266c-1.18 0-2.495-1.075-2.898-1.485-.283-.292-.672-.457-1.078-.457s-.795.165-1.078.457C22.549 40.9 21.216 42 20.022 42h-.266c-6.354 0-11.626-7.635-11.751-17l-.007-.934c.106-3.237 3.054-6.836 6.9-7.046l20.875 20.875C33.727 40.447 31.098 42 28.242 42zM16 8c1.483 0 5.756.018 6.408 7.484-.065-.027 2.726 3.306 2.726 3.306.669-.142 1.264-.383 1.837-.63C28.229 17.616 29.656 17 32.75 17c3.995 0 7.108 3.785 7.249 7.19-.002.268-.005.726-.006.79-.035 2.657-.495 5.164-1.263 7.406l2.313 2.313c1.195-2.866 1.903-6.159 1.95-9.662 0-.028.004-.481.005-.781C42.999 24.235 43 24.212 43 24.19v-.221c0 0 0 0 0-.001-.002-.081-.01-.16-.024-.237C42.6 19.045 38.428 14 32.75 14c-3.714 0-5.595.813-6.969 1.406-.128.055-.237.099-.351.145-.125-1.695-.421-3.111-.831-4.315C25.451 11.683 26.431 12 27.5 12c3.414 0 5.927-3.234 6.202-3.603.397-.532.397-1.263 0-1.795C33.427 6.234 30.914 3 27.5 3c-3.334 0-5.803 3.077-6.173 3.565C19.557 5.31 17.549 5 16 5c-.828 0-1.5.671-1.5 1.5S15.172 8 16 8zM27.5 6c1.095 0 2.208.784 2.973 1.5C29.708 8.216 28.595 9 27.5 9c-1.096 0-2.209-.784-2.973-1.5C25.292 6.784 26.405 6 27.5 6z"/></svg>