<svg xmlns="http://www.w3.org/2000/svg"  viewBox="0 0 48 48" width="50px" height="50px"><path d="M 26.443359 3.5644531 C 26.059609 3.5644531 25.675812 3.7109062 25.382812 4.0039062 C 22.282812 7.1039062 21.408125 10.946781 21.453125 15.050781 L 24.664062 18.261719 C 24.137062 13.512719 24.401906 9.228 27.503906 6.125 C 28.089906 5.539 28.089906 4.5899063 27.503906 4.0039062 C 27.210906 3.7109062 26.827109 3.5644531 26.443359 3.5644531 z M 5.484375 3.984375 A 1.50015 1.50015 0 0 0 4.4394531 6.5605469 L 19.707031 21.828125 C 13.900079 21.066887 8.2542368 21.132482 4.0039062 25.382812 C 3.4179063 25.968812 3.4179063 26.917906 4.0039062 27.503906 C 4.5899063 28.089906 5.54 28.089906 6.125 27.503906 C 10.168515 23.460391 16.220698 24.232793 22.695312 25.304688 C 23.078294 27.616384 23.421186 29.877001 23.521484 32.007812 L 18.177734 26.662109 C 16.606734 26.480109 15.122141 26.394656 13.744141 26.472656 L 23.337891 36.066406 C 23.211023 36.846215 23.026024 37.599947 22.761719 38.318359 L 11.28125 26.837891 C 10.22325 27.112891 9.2565781 27.548406 8.3925781 28.191406 L 21.242188 41.041016 C 21.014089 41.327956 20.765631 41.605399 20.496094 41.875 C 19.910094 42.461 19.910094 43.410094 20.496094 43.996094 C 20.789094 44.289094 21.174594 44.435547 21.558594 44.435547 C 21.942594 44.435547 22.326141 44.289094 22.619141 43.996094 C 26.869797 39.746231 26.935263 34.10096 26.173828 28.294922 L 41.439453 43.560547 A 1.50015 1.50015 0 1 0 43.560547 41.439453 L 28.304688 26.183594 C 28.320272 26.185608 28.335979 26.187403 28.351562 26.189453 L 27.816406 25.654297 C 27.818966 25.67068 27.821602 25.686817 27.824219 25.703125 L 25.400391 23.279297 C 25.397788 23.263634 25.395194 23.248115 25.392578 23.232422 L 21.810547 19.650391 C 21.812487 19.665298 21.814455 19.680403 21.816406 19.695312 L 6.5605469 4.4394531 A 1.50015 1.50015 0 0 0 5.484375 3.984375 z M 28.195312 8.3964844 C 27.559313 9.2594844 27.128469 10.234781 26.855469 11.300781 L 38.3125 22.755859 C 37.593006 23.019936 36.835685 23.199881 36.054688 23.326172 L 26.492188 13.765625 C 26.411188 15.151625 26.495922 16.635547 26.669922 18.185547 L 31.994141 23.509766 C 31.254575 23.47454 30.505109 23.421033 29.738281 23.335938 L 32.951172 26.548828 C 37.055172 26.593828 40.897094 25.717187 43.996094 22.617188 C 44.582094 22.031188 44.582094 21.082094 43.996094 20.496094 C 43.410094 19.910094 42.46 19.910094 41.875 20.496094 C 41.604793 20.766301 41.322801 21.007824 41.035156 21.236328 L 28.195312 8.3964844 z"/></svg>