<svg xmlns="http://www.w3.org/2000/svg"  viewBox="0 0 48 48" width="50px" height="50px"><path d="M 5.5 4 C 5.11625 4 4.7324531 4.1464531 4.4394531 4.4394531 C 3.8534531 5.0254531 3.8534531 5.9745469 4.4394531 6.5605469 L 13 15.121094 L 13 21.521484 L 5.6875 24.736328 C 4.0545 25.455328 3 27.072469 3 28.855469 L 3 36.726562 C 3 38.430563 3.9885313 40.017578 5.5195312 40.767578 L 12.484375 44.181641 C 13.106375 44.486641 13.786844 44.638672 14.464844 44.638672 C 15.174844 44.638672 15.883344 44.473625 16.527344 44.140625 L 23.0625 40.769531 C 23.4265 40.581531 23.754875 40.346125 24.046875 40.078125 C 24.358875 40.351125 24.710703 40.585625 25.095703 40.765625 L 32.492188 44.21875 C 33.093187 44.49875 33.742578 44.638672 34.392578 44.638672 C 35.136578 44.638672 35.880828 44.454797 36.548828 44.091797 L 40.058594 42.179688 L 41.4375 43.560547 C 41.7315 43.854547 42.116 44 42.5 44 C 42.884 44 43.267547 43.853547 43.560547 43.560547 C 44.146547 42.974547 44.146547 42.025453 43.560547 41.439453 L 6.5605469 4.4394531 C 6.2675469 4.1464531 5.88375 4 5.5 4 z M 24.03125 4.2324219 C 23.49875 4.2187969 22.963656 4.3247344 22.472656 4.5527344 L 15.029297 8 C 14.826297 8.094 14.640891 8.2127969 14.462891 8.3417969 L 16.669922 10.548828 L 23.732422 7.2773438 C 23.872422 7.2113438 24.037781 7.2131094 24.175781 7.2871094 L 31.732422 11.265625 C 31.896422 11.351625 32 11.521031 32 11.707031 L 32 21.550781 L 29.0625 22.941406 L 31.316406 25.193359 L 33.523438 24.148438 L 41.103516 27.482422 C 41.647516 27.722422 42 28.261469 42 28.855469 L 42 35.878906 L 44.65625 38.533203 C 44.87825 37.997203 45 37.415453 45 36.814453 L 45 28.855469 C 45 27.072469 43.9455 25.455328 42.3125 24.736328 L 35 21.521484 L 35 11.707031 C 35 10.404031 34.284859 9.216375 33.130859 8.609375 L 25.572266 4.6328125 C 25.093266 4.3803125 24.56375 4.2460469 24.03125 4.2324219 z M 28.472656 12 C 28.277703 12.003328 28.080375 12.045156 27.890625 12.128906 L 25.826172 13.046875 C 24.664172 13.564875 23.332875 13.564875 22.171875 13.046875 L 20.107422 12.128906 C 19.552422 11.882906 18.929906 12.003813 18.503906 12.382812 L 22.365234 16.244141 C 22.410234 16.254141 22.453047 16.270297 22.498047 16.279297 L 22.498047 16.380859 L 25.5 19.378906 L 25.5 16.279297 C 26.028 16.172297 26.547875 16.008109 27.046875 15.787109 L 29.109375 14.871094 C 29.866375 14.534094 30.206141 13.646625 29.869141 12.890625 C 29.617141 12.323625 29.057516 11.990016 28.472656 12 z M 16 18.121094 L 22.515625 24.636719 L 16 21.550781 L 16 18.121094 z M 14.476562 24.148438 L 20.140625 26.832031 L 22.5 27.949219 L 22.5 36.6875 L 22.5 36.771484 C 22.5 37.334484 22.1885 37.844516 21.6875 38.103516 L 15.152344 41.474609 C 14.732344 41.692609 14.228688 41.697234 13.804688 41.490234 L 6.8398438 38.074219 C 6.3298438 37.824219 6 37.296516 6 36.728516 L 6 28.855469 C 6 28.260469 6.3524844 27.721422 6.8964844 27.482422 L 14.476562 24.148438 z M 25.722656 27.845703 L 32 34.121094 L 32 37.5 C 32 38.328 32.671 39 33.5 39 C 34.329 39 35 38.328 35 37.5 L 35 37.121094 L 37.847656 39.96875 L 35.113281 41.457031 C 34.696281 41.684031 34.190719 41.701 33.761719 41.5 L 26.365234 38.046875 C 25.839234 37.801875 25.498047 37.2675 25.498047 36.6875 L 25.498047 27.949219 L 25.722656 27.845703 z M 9.46875 27.998047 C 8.8840781 28.008875 8.3364688 28.365109 8.1054688 28.943359 C 7.7974688 29.712359 8.1724062 30.585578 8.9414062 30.892578 L 11.439453 31.890625 C 11.946453 32.093625 12.469047 32.232312 12.998047 32.320312 L 12.998047 37.5 C 12.998047 38.328 13.669047 39 14.498047 39 C 15.327047 39 15.998047 38.328 15.998047 37.5 L 15.998047 32.212891 C 16.540047 32.080891 17.070125 31.889719 17.578125 31.636719 L 19.169922 30.841797 C 19.910922 30.470797 20.209844 29.570125 19.839844 28.828125 C 19.470844 28.088125 18.569125 27.789203 17.828125 28.158203 L 16.238281 28.953125 C 15.090281 29.528125 13.747688 29.583469 12.554688 29.105469 L 10.056641 28.107422 C 9.8638906 28.029922 9.6636406 27.994438 9.46875 27.998047 z M 38.529297 28 C 38.334422 27.996141 38.135609 28.030422 37.943359 28.107422 L 35.443359 29.105469 C 35.388359 29.127469 35.331391 29.134297 35.275391 29.154297 L 37.597656 31.476562 L 39.056641 30.892578 C 39.825641 30.585578 40.199578 29.712359 39.892578 28.943359 C 39.662328 28.366609 39.113922 28.011578 38.529297 28 z"/></svg>