<svg xmlns="http://www.w3.org/2000/svg"  viewBox="0 0 48 48" width="50px" height="50px"><path d="M 24.5 2 C 20.652437 2 18.298828 5.6035156 18.298828 5.6035156 A 1.50015 1.50015 0 0 0 18.275391 5.6367188 C 16.894817 4.6539583 15.157184 4 13 4 A 1.50015 1.50015 0 1 0 13 7 C 16.022643 7 17.351443 8.2183331 18.289062 10.060547 C 18.934153 11.328006 19.25101 12.929509 19.394531 14.472656 C 19.099055 14.34862 18.844855 14.240224 18.423828 14.072266 C 17.104178 13.545823 15.207402 13 12.25 13 C 6.6149486 13 2.1695593 17.812676 2 22.966797 A 1.50015 1.50015 0 0 0 2 23.017578 C 2 23.097258 2.0024062 23.294018 2.0039062 23.527344 C 2.0054063 23.76067 2.0058594 24.057423 2.0058594 24 A 1.50015 1.50015 0 0 0 2.0058594 24.019531 C 2.0771677 29.311182 3.6226569 34.209757 6.2050781 37.871094 C 8.6324962 41.312667 12.069134 43.698531 16 43.972656 L 16 44.5 A 1.50015 1.50015 0 0 0 17.5 46 L 36.5 46 C 41.728774 46 46 41.728774 46 36.5 L 46 24.5 A 1.50015 1.50015 0 0 0 44.435547 23.023438 A 1.50015 1.50015 0 0 0 43 24.5 C 43 27.08582 41.400211 29.306103 39.146484 30.337891 C 39.656602 28.338527 39.962985 26.219169 39.992188 24.019531 C 39.993488 23.968171 39.993741 23.955031 39.994141 23.910156 C 39.994604 23.852456 39.995494 23.776873 39.996094 23.693359 C 39.997194 23.526332 39.997008 23.32882 39.998047 23.189453 A 1.50015 1.50015 0 0 0 39.998047 23.126953 C 39.821198 17.979587 35.416833 13 29.75 13 C 26.792598 13 24.895822 13.545823 23.576172 14.072266 C 23.059302 14.278458 22.722404 14.426009 22.384766 14.564453 C 22.238508 13.143893 21.939469 11.612673 21.40625 10.119141 C 22.293822 10.607233 23.2907 11 24.5 11 C 28.347563 11 30.701172 7.3964844 30.701172 7.3964844 A 1.50015 1.50015 0 0 0 30.701172 5.6035156 C 30.701172 5.6035156 28.347563 2 24.5 2 z M 24.5 5 C 25.547857 5 26.57856 5.7974066 27.347656 6.5 C 26.57856 7.2025934 25.547857 8 24.5 8 C 23.452143 8 22.42144 7.2025934 21.652344 6.5 C 22.42144 5.7974066 23.452143 5 24.5 5 z M 12.25 16 C 14.860598 16 16.2119 16.420317 17.3125 16.859375 C 18.268266 17.240655 19.172664 17.768109 20.412109 17.900391 A 1.50015 1.50015 0 0 0 21.591797 17.900391 C 22.829215 17.767411 23.73275 17.24025 24.6875 16.859375 C 25.7881 16.420317 27.139402 16 29.75 16 C 33.560486 16 36.881584 19.812351 37 23.228516 C 37 23.228516 37 23.230469 37 23.230469 C 36.999069 23.365616 36.997094 23.528361 36.996094 23.673828 C 36.995533 23.756818 36.994641 23.831667 36.994141 23.886719 C 36.993698 23.941769 36.990041 24.067785 36.994141 23.949219 A 1.50015 1.50015 0 0 0 36.992188 23.980469 C 36.959307 26.456888 36.536574 28.81434 35.84375 30.958984 L 17.496094 31 A 1.50015 1.50015 0 0 0 16 32.5 L 16 40.945312 C 13.205675 40.679383 10.651838 38.971907 8.65625 36.142578 C 6.4809213 33.058414 5.0695505 28.70682 5.0058594 23.980469 C 5.005745 23.88277 5.0053463 23.731734 5.0039062 23.507812 C 5.0025561 23.297861 5.0002507 23.099361 5 23.066406 L 5 23.064453 C 5.1135655 19.647155 8.3997461 16 12.25 16 z M 43 31.287109 L 43 36.5 C 43 40.107226 40.107226 43 36.5 43 L 19 43 L 19 42.759766 A 1.50015 1.50015 0 0 0 19 42.121094 L 19 33.996094 L 22 33.990234 L 22 37.5 A 1.50015 1.50015 0 1 0 25 37.5 L 25 33.982422 L 28 33.976562 L 28 36.5 A 1.50015 1.50015 0 1 0 31 36.5 L 31 33.96875 L 34 33.962891 L 34 37.5 A 1.50015 1.50015 0 1 0 37 37.5 L 37 33.945312 A 1.50015 1.50015 0 0 0 37.248047 33.912109 C 39.449468 33.700874 41.457642 32.734298 43 31.287109 z"/></svg>