<svg xmlns="http://www.w3.org/2000/svg"  viewBox="0 0 48 48" width="50px" height="50px"><path d="M 10 6.0644531 C 7.791 6.0644531 6 7.8554531 6 10.064453 L 6 26.277344 A 1.50015 1.50015 0 0 0 6 26.769531 L 6 38.066406 C 6 40.275406 7.791 42.066406 10 42.066406 L 38 42.066406 C 40.209 42.066406 42 40.275406 42 38.066406 L 42 22.673828 A 1.50015 1.50015 0 0 0 42 22.292969 L 42 10.064453 C 42 7.8554531 40.209 6.0644531 38 6.0644531 L 10 6.0644531 z M 10 9.0644531 L 22.814453 9.0644531 L 21.113281 10.765625 A 1.50015 1.50015 0 0 0 20.767578 11.111328 L 12.113281 19.765625 A 1.50015 1.50015 0 0 0 11.767578 20.111328 L 9 22.878906 L 9 10.064453 C 9 9.5134531 9.449 9.0644531 10 9.0644531 z M 29.185547 9.0644531 L 38 9.0644531 C 38.551 9.0644531 39 9.5134531 39 10.064453 L 39 21.878906 L 21.8125 39.066406 L 10 39.066406 C 9.449 39.066406 9 38.617406 9 38.066406 L 9 27.121094 L 14.439453 32.560547 A 1.50015 1.50015 0 1 0 16.560547 30.439453 L 11.121094 25 L 13 23.121094 L 15.439453 25.560547 A 1.50015 1.50015 0 1 0 17.560547 23.439453 L 15.121094 21 L 17.5 18.621094 L 23.439453 24.560547 A 1.50015 1.50015 0 1 0 25.560547 22.439453 L 19.621094 16.5 L 22 14.121094 L 24.439453 16.560547 A 1.50015 1.50015 0 1 0 26.560547 14.439453 L 24.121094 12 L 26 10.121094 L 31.439453 15.560547 A 1.50015 1.50015 0 1 0 33.560547 13.439453 L 29.185547 9.0644531 z M 39 26.121094 L 39 38.066406 C 39 38.617406 38.551 39.066406 38 39.066406 L 26.054688 39.066406 L 39 26.121094 z"/></svg>