<svg xmlns="http://www.w3.org/2000/svg"  viewBox="0 0 48 48" width="50px" height="50px"><path d="M 28.5 2 A 1.50015 1.50015 0 1 0 28.5 5 L 28.984375 5 C 28.966359 5.9666248 28.901398 7.3668172 28.767578 8.8242188 C 28.613142 10.506105 28.34219 12.231921 28.128906 12.871094 A 1.50015 1.50015 0 0 0 28.125 12.878906 L 28.105469 12.941406 C 28.003464 13.245234 27.82049 13.583318 27.576172 13.964844 C 26.653337 15.405491 26.173047 17.047198 26.052734 18.712891 C 25.195954 18.683251 24.220364 18.710154 23.212891 18.876953 C 22.754524 18.082302 22.316201 17.259278 21.734375 16.636719 C 20.90561 15.749933 19.836483 15 18.5 15 C 17.17481 15 16.065589 15.695322 15.185547 16.59375 C 14.596323 17.195284 14.212778 18.047215 13.789062 18.849609 C 10.781503 18.266287 8.0664063 19.064453 8.0664062 19.064453 A 1.50015 1.50015 0 0 0 7 20.5 C 7 22.863755 7.6308132 24.585034 8.4160156 25.753906 C 7.8672693 26.211694 7.3991131 26.726155 7.0214844 27.265625 C 4.9077784 30.285205 5 34 5 34 C 5 36.745876 5.706577 39.445807 7.3632812 41.529297 C 9.0199857 43.612787 11.669769 44.964844 15 44.964844 C 16.40009 44.964844 17.344856 44.667114 18 44.285156 C 18.655144 44.667114 19.59991 44.964844 21 44.964844 C 23.343245 44.964844 25.339784 44.284743 26.900391 43.162109 C 27.723737 44.268332 29.028997 45 30.5 45 L 37.5 45 C 39.967501 45 42 42.967501 42 40.5 L 42 19.5 C 42 17.567369 41.492116 15.63256 40.423828 13.964844 C 40.17951 13.583318 39.996529 13.245222 39.894531 12.941406 L 39.892578 12.935547 L 39.875 12.878906 A 1.50015 1.50015 0 0 0 39.871094 12.871094 C 39.657853 12.231949 39.386858 10.506105 39.232422 8.8242188 C 39.098598 7.3668172 39.03364 5.9666248 39.015625 5 L 39.5 5 A 1.50015 1.50015 0 1 0 39.5 2 L 28.5 2 z M 31.984375 5 L 36.015625 5 C 36.03314 6.0792412 36.101311 7.5421545 36.244141 9.0976562 C 36.406747 10.86851 36.608792 12.56905 37.023438 13.814453 L 37.044922 13.876953 A 1.50015 1.50015 0 0 0 37.046875 13.884766 C 37.269193 14.551718 37.590097 15.103578 37.896484 15.582031 A 1.50015 1.50015 0 0 0 37.896484 15.583984 C 38.628154 16.726234 39 18.094631 39 19.5 L 39 40.5 C 39 41.346499 38.346499 42 37.5 42 L 30.5 42 C 29.80431 42 29.245761 41.554895 29.066406 40.927734 C 30.401371 38.951136 30.986702 36.521465 30.994141 34.046875 C 31.007311 33.915232 31.301514 30.874512 29.841797 27.955078 C 29.496942 27.265369 29.031744 26.580328 28.443359 25.960938 C 29.293794 24.792823 30 23.005499 30 20.5 A 1.50015 1.50015 0 0 0 29.027344 19.095703 C 29.092215 17.834342 29.442582 16.615774 30.103516 15.583984 A 1.50015 1.50015 0 0 0 30.103516 15.582031 C 30.409903 15.103578 30.730807 14.551718 30.953125 13.884766 A 1.50015 1.50015 0 0 0 30.955078 13.876953 L 30.974609 13.820312 C 31.39028 12.574519 31.593046 10.87077 31.755859 9.0976562 C 31.898691 7.5421545 31.966861 6.0792412 31.984375 5 z M 18.5 18 C 18.655517 18 19.025484 18.131833 19.542969 18.685547 C 20.060454 19.239261 20.638747 20.13277 21.160156 21.171875 A 1.50015 1.50015 0 0 0 22.90625 21.943359 C 24.293395 21.552706 25.730556 21.644633 26.8125 21.777344 C 26.633275 22.915264 26.318384 23.743452 25.972656 24.232422 C 25.931234 24.214499 25.893609 24.193095 25.851562 24.175781 C 24.870026 23.771619 23.744801 23.537931 22.462891 23.505859 C 21.180981 23.473789 19.74372 23.643172 18.136719 24.044922 A 1.50015 1.50015 0 0 0 17.226562 24.683594 C 15.350607 24.14373 13.631956 23.872611 12.193359 24.078125 C 11.806197 24.133434 11.442438 24.221853 11.089844 24.326172 C 10.713598 23.847695 10.365944 22.963901 10.179688 21.724609 C 11.206176 21.564174 12.597005 21.448885 14.027344 21.923828 A 1.50015 1.50015 0 0 0 15.900391 21.037109 C 16.274531 20.063151 16.81012 19.224181 17.330078 18.693359 C 17.850036 18.162538 18.30219 18 18.5 18 z M 22.373047 26.501953 C 23.333324 26.524573 24.098725 26.697131 24.710938 26.949219 C 25.935363 27.453394 26.653951 28.286417 27.158203 29.294922 C 28.166708 31.311931 28.005859 33.869141 28.005859 33.869141 A 1.50015 1.50015 0 0 0 28 34 C 28 36.071509 27.47781 37.970759 26.501953 39.359375 A 1.50015 1.50015 0 0 0 26.158203 39.808594 C 25.045764 41.127854 23.474334 41.964844 21 41.964844 C 19.943 41.964844 19.606521 41.784045 19.470703 41.701172 C 19.402793 41.659732 19.377843 41.637772 19.255859 41.529297 C 19.133874 41.420819 18.800125 41 18 41 C 17.199875 41 16.866126 41.420819 16.744141 41.529297 C 16.622155 41.637774 16.597206 41.659735 16.529297 41.701172 C 16.393479 41.784045 16.057 41.964844 15 41.964844 C 12.432231 41.964844 10.831686 41.069119 9.7128906 39.662109 C 8.594095 38.255099 8 36.222124 8 34 C 8 34 8.092222 30.964795 9.4785156 28.984375 C 10.171663 27.994165 11.066169 27.268728 12.619141 27.046875 C 14.172112 26.825022 16.502575 27.178045 19.830078 28.841797 A 1.50015 1.50015 0 0 0 21.703125 26.587891 C 21.900912 26.580791 22.189774 26.497643 22.373047 26.501953 z"/></svg>