<svg xmlns="http://www.w3.org/2000/svg"  viewBox="0 0 48 48" width="50px" height="50px"><path d="M6.561 4.439c-.586-.586-1.535-.586-2.121 0-.586.585-.586 1.536 0 2.121l9.92 9.92c-1.285 1.398-2.913 2.522-4.793 3.282-4.045 1.636-6.682 5.668-6.562 10.034.156 5.624 4.75 10.2 10.241 10.2.616 0 1.231-.044 1.843-.114.054.044.107.089.168.125 3.343 2 7.55 3.183 11.922 3.183 3.718 0 7.548-.879 11.074-2.816l3.187 3.187C41.732 43.854 42.116 44 42.5 44s.768-.146 1.061-.439c.586-.585.586-1.536 0-2.121L6.561 4.439zM30.647 32.768c-1.234.274-2.372.431-3.387.467.6-.675 1.171-1.39 1.701-2.153L30.647 32.768zM10.691 22.543c2.252-.911 4.22-2.257 5.792-3.939l4.813 4.813c-3.742 6.419-12.648 7.406-15.14 7.556-.084-.411-.14-.83-.152-1.259C5.917 26.593 7.801 23.712 10.691 22.543zM13.245 36.996c-2.327 0-4.464-1.244-5.806-3.107 3.739-.356 11.893-1.867 16.049-8.279l3.304 3.304c-.082.125-.152.254-.237.378C23.237 34.116 18.261 36.996 13.245 36.996zM19.518 38.763c1.689-.669 3.304-1.611 4.804-2.775.755.169 1.585.262 2.497.262 1.833 0 3.967-.35 6.296-1.013l2.924 2.924C30.597 40.839 24.424 40.696 19.518 38.763zM21.766 9.86c.585-1.464 1.952-2.359 3.483-2.359.271 0 .547.028.825.086 1.639.34 2.524 2.069 2.906 3.069 0 0 0 0 0 0 1.525 3.987 1.652 8.353.482 12.463l4.299 4.299c1.832.271 3.626.287 5.179.243 1.859-.064 3.417 1.2 3.798 3.048.338 1.64-.895 3.14-1.661 3.889-.023.023-.048.042-.072.065l2.123 2.123c.015-.015.031-.028.046-.043 2.077-2.031 2.965-4.389 2.501-6.64-.671-3.248-3.546-5.524-6.823-5.441-1.665.047-3.619.043-5.495-.344L32.301 24.1c1.396-4.772 1.262-9.863-.518-14.516-1.038-2.714-2.848-4.467-5.097-4.935C23.437 3.973 20.2 5.696 18.98 8.746c-.34.849-.736 1.771-1.2 2.691l2.217 2.217C20.722 12.353 21.294 11.039 21.766 9.86z"/></svg>