<svg xmlns="http://www.w3.org/2000/svg"  viewBox="0 0 48 48" width="50px" height="50px"><path d="M 24.638672 7.4414062 A 1.50015 1.50015 0 0 0 24.058594 7.5410156 C 21.044768 7.8535975 18.025427 9.2650593 15.158203 11.681641 C 11.270169 14.958591 9.1568281 20.863335 8.0585938 26.25 C 7.5094765 28.943332 7.2395508 31.510345 7.2402344 33.603516 C 7.2405761 34.650101 7.3054534 35.575864 7.4589844 36.380859 C 7.6125154 37.185854 7.7730777 37.894171 8.4394531 38.560547 C 9.0330407 39.154134 9.6691649 39.379068 10.431641 39.613281 C 11.194116 39.847495 12.085887 40.025462 13.099609 40.162109 C 15.127053 40.435405 17.633388 40.531886 20.300781 40.382812 C 25.635569 40.084668 31.61284 38.895194 35.466797 35.646484 C 39.09622 32.587046 41.035171 28.845326 41.167969 24.949219 C 41.300766 21.053111 39.669729 17.11969 36.646484 13.533203 C 33.620246 9.9431658 30.098937 7.8279794 26.339844 7.5019531 C 25.851141 7.4595679 25.361538 7.4506993 24.871094 7.46875 A 1.50015 1.50015 0 0 0 24.638672 7.4414062 z M 25.027344 10.460938 C 25.381294 10.450617 25.731962 10.460042 26.080078 10.490234 C 27.824769 10.641552 29.557999 11.302744 31.259766 12.535156 A 4.05 2 53 0 0 30.892578 12.705078 A 4.05 2 53 1 0 35.767578 19.173828 A 4.05 2 53 0 0 36.238281 18.109375 C 37.602174 20.404731 38.243602 22.685979 38.169922 24.847656 C 38.162825 25.05586 38.135128 25.261675 38.115234 25.46875 C 37.510562 25.780896 36.655284 26 36 26 C 34.907932 26 34.058392 25.163815 34.013672 24.080078 A 1.50015 1.50015 0 0 0 31.859375 22.792969 C 31.576385 22.930157 31.297294 23 31 23 C 29.877657 23 29 22.122343 29 21 C 29 20.9521 29.010059 20.849418 29.037109 20.679688 A 1.50015 1.50015 0 0 0 27.320312 18.962891 C 27.150582 18.989936 27.047895 19 27 19 C 25.877657 19 25 18.122343 25 17 C 25 16.566201 25.136945 16.180258 25.380859 15.839844 A 1.50015 1.50015 0 0 0 24.951172 13.691406 C 24.376113 13.334453 24 12.724949 24 12 C 24 11.472426 24.307291 10.961984 25.027344 10.460938 z M 21.046875 11.433594 C 21.021717 11.61921 21 11.80623 21 12 C 21 13.268118 21.588293 14.325705 22.373047 15.207031 C 22.152945 15.766998 22 16.361451 22 17 C 22 19.450015 23.831148 21.41689 26.169922 21.830078 C 26.58311 24.168852 28.549985 26 31 26 C 31.154998 26 31.273321 25.914971 31.423828 25.900391 C 32.177984 27.705371 33.93216 29 36 29 C 36.373254 29 36.75384 28.967911 37.134766 28.912109 C 36.383119 30.448815 35.213509 31.937094 33.533203 33.353516 C 30.63116 35.799806 25.109026 37.110567 20.132812 37.388672 C 17.644706 37.527724 15.291931 37.431002 13.5 37.189453 C 12.604034 37.068679 11.847572 36.908501 11.3125 36.744141 C 10.873899 36.609413 10.649262 36.468493 10.611328 36.458984 C 10.591699 36.398068 10.474839 36.177975 10.40625 35.818359 C 10.305465 35.289921 10.240533 34.516711 10.240234 33.601562 C 10.239637 31.771265 10.485789 29.362152 10.998047 26.849609 C 12.022562 21.824524 14.220878 16.394613 17.089844 13.976562 C 18.438883 12.839552 19.757444 12.010585 21.046875 11.433594 z"/></svg>