<svg xmlns="http://www.w3.org/2000/svg"  viewBox="0 0 48 48" width="50px" height="50px"><path d="M 21.5 1 A 1.50015 1.50015 0 1 0 21.5 4 C 22 4 23.232781 4.4763906 23.550781 4.9003906 C 23.709781 5.1123906 23.760947 5.2158157 23.6875 5.5683594 C 23.631301 5.8381165 23.208702 6.4176996 22.732422 7 L 16.5 7 C 10.517332 7 6 12.718499 6 18.5 A 1.50015 1.50015 0 0 0 7.5 20 L 9 20 L 9 27 C 9 33.609155 13.652102 39.752701 19.285156 41.955078 C 19.304816 42.043158 19.315164 42.117496 19.339844 42.212891 C 19.475858 42.738655 19.688512 43.374013 20.011719 44.03125 C 20.334925 44.688487 20.763473 45.373369 21.402344 45.953125 C 22.041212 46.532881 22.9568 47 24 47 C 25.0432 47 25.958786 46.532881 26.597656 45.953125 C 27.236527 45.373369 27.665075 44.688487 27.988281 44.03125 C 28.311488 43.374013 28.524142 42.738655 28.660156 42.212891 C 28.684836 42.117501 28.695184 42.043155 28.714844 41.955078 C 34.347896 39.752701 39 33.609155 39 27 L 39 20 L 40.5 20 A 1.50015 1.50015 0 0 0 42 18.5 C 42 12.718499 37.482668 7 31.5 7 L 26.289062 7 C 26.399351 6.7275564 26.567318 6.4585132 26.625 6.1816406 C 26.864053 5.0341843 26.540219 3.8876094 25.949219 3.0996094 C 24.767219 1.5236094 23 1 21.5 1 z M 16.5 10 L 23.279297 10 A 1.50015 1.50015 0 0 0 23.691406 10 L 31.5 10 C 34.977919 10 37.98539 13.365817 38.701172 17 L 37.746094 17 A 1.50015 1.50015 0 0 0 37.259766 17 L 9.2988281 17 C 10.01461 13.365817 13.022081 10 16.5 10 z M 12 20 L 36 20 L 36 27 C 36 32.419342 31.39745 38.220231 26.908203 39.5625 A 1.50015 1.50015 0 0 0 25.839844 41.064453 C 25.839844 41.064453 25.839844 41.066406 25.839844 41.066406 C 25.829004 41.140456 25.800879 41.286898 25.755859 41.460938 C 25.665809 41.809016 25.507419 42.278893 25.296875 42.707031 C 25.086331 43.13517 24.818223 43.516131 24.582031 43.730469 C 24.345834 43.944759 24.2068 44 24 44 C 23.7932 44 23.654161 43.94481 23.417969 43.730469 C 23.181777 43.516131 22.913669 43.13517 22.703125 42.707031 C 22.492581 42.278893 22.334188 41.809016 22.244141 41.460938 C 22.199121 41.286898 22.170986 41.140455 22.160156 41.066406 C 22.158856 41.057306 22.160946 41.065294 22.160156 41.058594 A 1.50015 1.50015 0 0 0 21.091797 39.5625 C 16.60255 38.220231 12 32.419342 12 27 L 12 20 z"/></svg>