<svg xmlns="http://www.w3.org/2000/svg"  viewBox="0 0 48 48" width="50px" height="50px"><path d="M 29.976562 5.7128906 C 29.244297 5.6816656 28.493108 5.8278473 27.78125 6.1835938 A 1.50015 1.50015 0 0 0 27.748047 6.1972656 C 26.987635 6.5771407 26.277081 7.1720183 25.761719 7.90625 C 25.434344 7.7238476 25.113315 7.5074055 24.771484 7.4179688 C 23.694069 7.1360732 22.669276 7.3347527 21.878906 7.6660156 C 21.61364 7.7771949 21.484113 7.9307474 21.255859 8.0644531 C 20.814464 7.2918853 20.150034 6.6466761 19.322266 6.2324219 C 16.436811 4.7896944 12.903173 6.8055438 12.679688 10.023438 L 11.958984 16.234375 A 1.50015 1.50015 0 0 0 11.951172 16.310547 C 11.916652 16.844873 11.589726 17.317722 11.037109 17.59375 C 9.2386672 18.492967 8 20.359871 8 22.498047 C 8 24.293911 8.8742517 25.904358 10.216797 26.902344 C 10.827642 27.356244 11.181304 28.218504 11.123047 29.119141 L 10.960938 31.646484 C 10.438144 38.614384 17.20052 43.860692 23.839844 42.064453 C 30.587479 43.878833 37.393082 38.3426 36.6875 31.289062 L 36.517578 29.314453 C 36.438995 28.403929 36.82222 27.527901 37.46875 27.115234 C 38.988382 26.145695 40 24.43183 40 22.5 C 40 20.181444 38.430729 18.258489 36.367188 17.462891 C 35.80554 17.246151 35.435915 16.761417 35.386719 16.189453 A 1.50015 1.50015 0 0 0 35.375 16.089844 L 34.402344 9.7792969 L 34.414062 9.8691406 C 34.19269 7.4921284 32.173358 5.8065658 29.976562 5.7128906 z M 29.908203 8.6816406 C 30.678624 8.6937103 31.344153 9.2699969 31.425781 10.146484 A 1.50015 1.50015 0 0 0 31.4375 10.236328 L 32.410156 16.546875 L 32.398438 16.447266 C 32.547241 18.177302 33.692756 19.646458 35.287109 20.261719 A 1.50015 1.50015 0 0 0 35.289062 20.261719 C 36.353474 20.672125 37 21.528556 37 22.5 C 37 23.39217 36.543884 24.145475 35.853516 24.585938 C 34.128045 25.687271 33.36588 27.67879 33.529297 29.572266 L 33.701172 31.568359 A 1.50015 1.50015 0 0 0 33.703125 31.587891 C 34.215369 36.708669 29.205359 40.694779 24.292969 39.123047 A 1.50015 1.50015 0 0 0 23.376953 39.123047 C 18.523881 40.676497 13.571875 36.926452 13.951172 31.871094 A 1.50015 1.50015 0 0 0 13.953125 31.855469 L 14.117188 29.3125 C 14.232872 27.52403 13.559316 25.650335 12.007812 24.496094 L 12.005859 24.494141 C 11.393734 24.038109 11 23.327172 11 22.498047 C 11 21.510223 11.559384 20.686128 12.376953 20.277344 C 13.794337 19.569372 14.837833 18.16758 14.945312 16.503906 L 15.666016 10.300781 A 1.50015 1.50015 0 0 0 15.673828 10.232422 C 15.756338 9.0443149 16.913924 8.3827431 17.980469 8.9160156 C 18.561215 9.2066484 18.90497 9.8084646 18.859375 10.455078 A 1.50015 1.50015 0 0 0 18.855469 10.589844 L 18.949219 15.595703 C 18.982089 18.770808 18.709235 21.943702 18.134766 25.066406 L 17.439453 28.847656 A 1.50015 1.50015 0 0 0 17.417969 29.005859 C 17.129763 32.756411 20.133329 35.998047 23.894531 35.998047 C 27.751931 35.998047 30.789477 32.59146 30.347656 28.759766 A 1.50015 1.50015 0 0 0 30.302734 28.527344 L 29.828125 26.833984 L 29.828125 26.832031 C 28.584045 22.382163 28 20.008592 28 15.503906 L 28 10.716797 A 1.50015 1.50015 0 0 0 27.998047 10.322266 C 27.957607 9.8208508 28.346949 9.2534866 29.087891 8.8828125 A 1.50015 1.50015 0 0 0 29.121094 8.8671875 C 29.383736 8.7359339 29.651396 8.6776174 29.908203 8.6816406 z M 23.546875 10.289062 C 23.706231 10.269673 23.857801 10.280042 24.011719 10.320312 C 24.25127 10.38299 24.619411 10.722153 25 11.140625 L 25 15.503906 C 25 20.282485 25.683951 23.149946 26.939453 27.640625 L 27.363281 29.152344 C 27.573754 31.23049 25.99188 32.998047 23.894531 32.998047 C 21.844064 32.998047 20.270927 31.300167 20.414062 29.257812 L 21.085938 25.609375 A 1.50015 1.50015 0 0 0 21.085938 25.607422 C 21.69535 22.294765 21.984219 18.930743 21.949219 15.5625 A 1.50015 1.50015 0 0 0 21.949219 15.550781 L 21.869141 11.300781 C 22.031208 11.133709 22.427074 10.690093 23.039062 10.433594 C 23.220378 10.3576 23.387519 10.308452 23.546875 10.289062 z"/></svg>