<svg xmlns="http://www.w3.org/2000/svg"  viewBox="0 0 48 48" width="50px" height="50px"><path d="M 16.587891 5.4785156 A 1.50015 1.50015 0 0 0 15.109375 7 L 15.109375 8.3457031 C 13.768512 8.5929106 12.500521 9.0644304 11.353516 9.7480469 L 10.763672 9.1816406 A 1.50015 1.50015 0 0 0 9.6777344 8.7480469 A 1.50015 1.50015 0 0 0 8.6835938 11.34375 L 8.9765625 11.626953 C 7.9789891 12.627592 7.1294482 13.79731 6.4863281 15.105469 L 5.6269531 14.707031 A 1.50015 1.50015 0 0 0 4.9003906 14.5625 A 1.50015 1.50015 0 0 0 4.3691406 17.429688 L 5.4726562 17.941406 C 5.2129775 19.011175 5.0625 20.126194 5.0625 21.277344 C 5.0625 22.315249 5.1860335 23.323478 5.3984375 24.296875 L 5.2285156 24.34375 A 1.5004278 1.5004278 0 1 0 6.0273438 27.236328 L 6.3535156 27.146484 C 7.0823264 28.724899 8.0887058 30.128565 9.3164062 31.269531 L 8.328125 33.017578 A 1.50015 1.50015 0 1 0 10.939453 34.494141 L 11.769531 33.027344 C 12.782818 33.57752 13.876071 33.977709 15.03125 34.199219 L 15.052734 35.357422 A 1.5002317 1.5002317 0 1 0 18.052734 35.304688 L 18.035156 34.361328 C 18.74861 34.303911 19.442611 34.178577 20.117188 33.992188 C 20.247825 34.953849 20.490961 35.878283 20.845703 36.75 L 20.115234 37.261719 A 1.50015 1.50015 0 1 0 21.833984 39.720703 L 22.34375 39.365234 C 23.44447 40.814576 24.87898 41.99252 26.533203 42.789062 L 26.408203 43.039062 A 1.50015 1.50015 0 1 0 29.091797 44.378906 L 29.414062 43.732422 C 30.086296 43.855784 30.775493 43.929688 31.482422 43.929688 C 32.881505 43.929688 34.217194 43.664918 35.458984 43.203125 L 35.539062 43.375 A 1.50015 1.50015 0 1 0 38.251953 42.09375 L 38.113281 41.800781 C 39.503532 40.811347 40.668468 39.524608 41.505859 38.029297 L 41.945312 38.224609 A 1.50015 1.50015 0 1 0 43.166016 35.484375 L 42.607422 35.236328 C 42.832631 34.341389 42.964844 33.410351 42.964844 32.447266 L 42.964844 30.550781 C 42.964844 29.240711 41.9035 28.21092 40.623047 28.085938 C 40.292986 23.047167 36.380078 18.9375 31.416016 18.9375 C 30.596476 18.9375 29.809826 19.059947 29.058594 19.269531 C 28.970886 18.654672 28.855376 18.050088 28.691406 17.464844 L 29.974609 16.972656 A 1.50015 1.50015 0 0 0 29.439453 14.064453 A 1.50015 1.50015 0 0 0 28.898438 14.171875 L 27.5625 14.685547 C 26.868725 13.392032 25.983803 12.23088 24.9375 11.263672 L 25.320312 10.701172 A 1.50015 1.50015 0 0 0 24.066406 8.3398438 A 1.50015 1.50015 0 0 0 22.839844 9.0136719 L 22.494141 9.5214844 C 21.156701 8.7978363 19.680312 8.3331967 18.109375 8.1972656 L 18.109375 7 A 1.50015 1.50015 0 0 0 16.587891 5.4785156 z M 18.035156 11.193359 C 20.844112 11.501546 23.300685 13.249191 24.771484 15.796875 A 1.5002105 1.5002105 0 0 0 25.867188 18.521484 C 26.039822 19.208922 26.148471 19.927058 26.1875 20.669922 C 23.906029 22.344393 22.379619 25.070856 22.197266 28.146484 C 20.991743 28.3442 20 29.297167 20 30.550781 L 20 30.888672 C 19.350397 31.130508 18.672207 31.294112 17.966797 31.365234 A 1.50015 1.50015 0 0 0 16.435547 30.097656 A 1.50015 1.50015 0 0 0 15.060547 31.132812 C 12.594779 30.486544 10.49571 28.724016 9.2578125 26.310547 A 1.50015 1.50015 0 0 0 8.5527344 23.474609 A 1.50015 1.50015 0 0 0 8.2871094 23.503906 C 8.1445837 22.788614 8.0625 22.045863 8.0625 21.277344 C 8.0625 20.471237 8.1541855 19.694312 8.3105469 18.947266 A 1.50015 1.50015 0 0 0 9.1445312 16.466797 C 10.396288 13.875383 12.6263 11.987649 15.251953 11.367188 A 1.50015 1.50015 0 0 0 18.035156 11.193359 z M 31.416016 21.9375 C 34.647126 21.9375 37.255697 24.561766 37.609375 27.998047 L 25.222656 27.998047 C 25.576335 24.561766 28.184905 21.9375 31.416016 21.9375 z M 23 30.998047 L 39.964844 30.998047 L 39.964844 32.447266 C 39.964844 33.001009 39.908763 33.540956 39.808594 34.064453 A 1.50015 1.50015 0 0 0 39.681641 34.054688 A 1.50015 1.50015 0 0 0 38.775391 36.779297 C 38.235354 37.689717 37.531629 38.489072 36.701172 39.136719 A 1.50015 1.50015 0 0 0 35.804688 38.785156 A 1.50015 1.50015 0 0 0 34.25 40.462891 C 33.382325 40.76046 32.454065 40.929688 31.482422 40.929688 C 31.263 40.929688 31.047146 40.914608 30.832031 40.898438 L 30.841797 40.876953 A 1.50015 1.50015 0 0 0 29.433594 38.689453 A 1.50015 1.50015 0 0 0 28.160156 39.537109 L 27.869141 40.119141 C 26.645968 39.544887 25.585951 38.690095 24.769531 37.632812 A 1.50015 1.50015 0 0 0 23.75 35.101562 A 1.50015 1.50015 0 0 0 23.431641 35.121094 C 23.15454 34.280575 23 33.383449 23 32.447266 L 23 30.998047 z"/></svg>