<svg xmlns="http://www.w3.org/2000/svg"  viewBox="0 0 48 48" width="50px" height="50px"><path d="M 32.740234 4.3457031 C 32.617056 4.340138 32.492971 4.3435443 32.367188 4.3574219 C 30.356195 4.5808655 27.153998 4.6332107 24.650391 6.3535156 C 23.398587 7.2136681 22.370577 8.6079086 22.060547 10.417969 C 21.821557 11.813274 22.087757 13.497163 22.632812 15.375 C 18.514674 14.559037 14.111193 15.50404 10.929688 18.685547 L 6.6855469 22.929688 C 1.6213511 27.993882 1.6213511 36.250257 6.6855469 41.314453 C 11.749743 46.378649 20.006117 46.378649 25.070312 41.314453 L 29.314453 37.070312 C 32.285938 34.098827 33.296883 30.059372 32.78125 26.179688 C 34.477564 26.414748 36.02511 26.420066 37.300781 26 C 38.989264 25.443999 40.2529 24.332261 41.113281 23.064453 C 42.834044 20.528837 43.210129 17.390853 43.623047 15.273438 A 1.50015 1.50015 0 0 0 43.623047 15.271484 C 43.828622 14.214571 43.296799 13.167026 42.494141 12.664062 C 41.858175 12.265553 41.009437 12.28801 40.246094 12.59375 L 41.974609 8.5800781 A 1.50015 1.50015 0 0 0 42.005859 8.5 C 42.37499 7.4851829 42.001062 6.3654226 41.285156 5.75 C 40.56925 5.1345774 39.407012 4.9324322 38.458984 5.4492188 A 1.50015 1.50015 0 0 0 38.458984 5.4511719 L 34.992188 7.3417969 C 35.120168 6.7107123 35.097505 6.0673865 34.787109 5.5527344 C 34.381193 4.8797045 33.602486 4.3846593 32.740234 4.3457031 z M 31.560547 7.4921875 L 25.78125 15.539062 C 25.036619 13.447997 24.849695 11.905941 25.017578 10.925781 C 25.198142 9.8715913 25.634538 9.3175194 26.349609 8.8261719 C 27.54438 8.0052086 29.630366 7.7153869 31.560547 7.4921875 z M 38.623047 8.7773438 L 37.466797 11.462891 C 36.051447 14.749649 33.714046 17.553918 30.736328 19.539062 L 30.265625 19.853516 C 29.954779 19.460254 29.677293 19.048387 29.314453 18.685547 C 28.951613 18.322707 28.539746 18.045221 28.146484 17.734375 L 29.013672 16.435547 C 30.676004 13.942511 32.916986 11.889815 35.546875 10.455078 L 38.623047 8.7773438 z M 40.380859 16.087891 C 40.000327 18.005493 39.553543 20.021247 38.630859 21.380859 C 38.057366 22.225926 37.378189 22.815548 36.361328 23.150391 C 35.406228 23.464896 34.040059 23.505738 32.183594 23.089844 C 32.155584 23.018844 32.136722 22.947543 32.107422 22.876953 A 1.50015 1.50015 0 0 0 32.457031 22.654297 L 40.380859 16.087891 z M 20.121094 17.869141 C 20.419856 17.869141 20.702191 18.014251 21 18.041016 L 21 25 L 15 25 L 15 19.509766 C 16.593693 18.534567 18.317679 17.869141 20.121094 17.869141 z M 24 18.683594 C 25.154638 19.172681 26.247302 19.86449 27.191406 20.808594 C 28.40032 22.017507 29.105513 23.476625 29.568359 25 L 24 25 L 24 18.683594 z M 12 21.859375 L 12 25 L 8.859375 25 L 12 21.859375 z M 6.84375 28 L 12 28 L 12 32 L 5.8925781 32 C 5.9095582 30.623839 6.2588429 29.277382 6.84375 28 z M 15 28 L 21 28 L 21 32 L 15 32 L 15 28 z M 24 28 L 30.107422 28 C 30.090442 29.376161 29.741157 30.722618 29.15625 32 L 24 32 L 24 28 z M 6.4316406 35 L 12 35 L 12 41.316406 C 10.845362 40.827319 9.7526976 40.13551 8.8085938 39.191406 C 7.59968 37.982493 6.8944873 36.523375 6.4316406 35 z M 15 35 L 21 35 L 21 40.490234 C 19.142288 41.626989 17.095468 42.147305 15 41.958984 L 15 35 z M 24 35 L 27.140625 35 L 24 38.140625 L 24 35 z"/></svg>