<svg xmlns="http://www.w3.org/2000/svg"  viewBox="0 0 48 48" width="50px" height="50px"><path d="M 26.636719 1.9101562 C 26.261395 1.9090684 25.898626 1.9459454 25.552734 2.015625 C 24.860951 2.1549841 24.237364 2.4291881 23.722656 2.8066406 C 22.69324 3.5615457 22.101874 4.6050504 21.724609 5.5859375 C 21.044667 7.3537877 21.005747 9.0364764 21.003906 9.3671875 C 18.227802 10.167374 15.597004 12.255436 13.515625 15.273438 C 10.817079 19.186329 9 24.730769 9 31.5 C 9 36.444444 11.272384 40.176449 14.261719 42.519531 C 17.251053 44.862613 20.893091 45.925781 24 45.925781 C 27.106909 45.925781 30.549988 44.843154 33.292969 42.472656 C 36.035949 40.102159 38 36.388889 38 31.5 C 38 24.730769 36.182921 19.186329 33.484375 15.273438 C 30.918074 11.552299 27.519619 9.2396615 24.039062 9.0214844 C 24.071658 8.520274 24.156634 7.6228303 24.525391 6.6640625 C 24.773126 6.0199496 25.11926 5.5009543 25.496094 5.2246094 C 25.872928 4.9482645 26.285081 4.7867037 27.205078 4.9707031 A 1.50015 1.50015 0 1 0 27.794922 2.0292969 C 27.399921 1.9502967 27.012042 1.9112441 26.636719 1.9101562 z M 23.5 12 C 25.833333 12 28.714171 13.639455 31.015625 16.976562 C 33.317079 20.31367 35 25.269231 35 31.5 C 35 35.611111 33.464051 38.360623 31.332031 40.203125 C 29.200012 42.045627 26.393091 42.925781 24 42.925781 C 21.606909 42.925781 18.498947 42.028121 16.113281 40.158203 C 13.727616 38.288285 12 35.555556 12 31.5 C 12 25.269231 13.682921 20.313671 15.984375 16.976562 C 18.285829 13.639455 21.166667 12 23.5 12 z M 23.5 23 C 21.7165 23 20.135837 24.022411 18.681641 25.496094 C 17.227444 26.969776 16 29.049669 16 31.5 C 16 33.780387 16.834639 35.735969 18.232422 37.044922 C 19.630205 38.353875 21.521033 39 23.5 39 C 25.478967 39 27.369795 38.353875 28.767578 37.044922 C 30.165361 35.735969 31 33.780387 31 31.5 C 31 29.049669 29.772556 26.969776 28.318359 25.496094 C 26.864163 24.022411 25.2835 23 23.5 23 z M 23.5 26 C 23.7165 26 25.135837 26.543698 26.181641 27.603516 C 27.227444 28.663333 28 30.084331 28 31.5 C 28 33.085613 27.490514 34.130922 26.716797 34.855469 C 25.94308 35.580016 24.835033 36 23.5 36 C 22.164967 36 21.05692 35.580016 20.283203 34.855469 C 19.509486 34.130922 19 33.085613 19 31.5 C 19 30.084331 19.772556 28.663333 20.818359 27.603516 C 21.864163 26.543698 23.2835 26 23.5 26 z"/></svg>