<svg xmlns="http://www.w3.org/2000/svg"  viewBox="0 0 48 48" width="50px" height="50px"><path d="M 38.5 3 C 31.071429 3 26.629497 6.3068678 24.457031 9.6894531 C 24.395149 9.7858054 24.351396 9.8803562 24.292969 9.9765625 C 23.740757 9.0959643 23.106934 8.3859866 22.460938 7.8476562 C 20.658687 6.3457804 18.746094 6.0195312 18.746094 6.0195312 A 1.50015 1.50015 0 0 0 18.447266 5.9960938 A 1.50015 1.50015 0 0 0 18.253906 8.9804688 C 18.253906 8.9804688 19.341313 9.1542193 20.539062 10.152344 C 21.088857 10.610505 21.646834 11.235458 22.095703 12.113281 C 13.618723 13.064857 7 20.273935 7 29 C 7 38.370748 14.629252 46 24 46 C 33.370748 46 41 38.370748 41 29 C 41 23.602804 38.476325 18.77779 34.541016 15.662109 C 36.640726 14.416387 38.022247 12.809021 38.841797 11.169922 C 40.580311 7.6928939 39.980469 4.2539064 39.980469 4.2539062 A 1.50015 1.50015 0 0 0 38.5 3 z M 37.056641 6.1542969 C 37.029461 7.1339892 36.863069 8.4203463 36.158203 9.8300781 C 34.987451 12.171583 32.363327 14.539199 25.914062 14.876953 C 25.881894 14.575615 25.828288 14.297162 25.779297 14.013672 C 25.989712 13.220431 26.370193 12.263804 26.982422 11.310547 C 28.523551 8.9109689 31.52565 6.5476896 37.056641 6.1542969 z M 22.587891 15.070312 C 22.565299 15.492576 22.570763 15.8995 22.654297 16.294922 C 22.716977 16.591648 22.80344 16.899779 23.056641 17.248047 C 23.185974 17.425943 23.39892 17.616092 23.658203 17.761719 A 1.50015 1.50015 0 0 0 24.783203 17.992188 C 27.339836 17.968229 29.506048 17.63156 31.324219 17.070312 C 35.327866 19.534017 38 23.943025 38 29 C 38 36.749252 31.749252 43 24 43 C 16.250748 43 10 36.749252 10 29 C 10 21.727803 15.505737 15.775643 22.587891 15.070312 z M 32.5 25 A 1.5 1.5 0 0 0 32.5 28 A 1.5 1.5 0 0 0 32.5 25 z M 28.5 30 A 1.5 1.5 0 0 0 28.5 33 A 1.5 1.5 0 0 0 28.5 30 z M 34.5 30 A 1.5 1.5 0 0 0 34.5 33 A 1.5 1.5 0 0 0 34.5 30 z M 31.5 35 A 1.5 1.5 0 0 0 31.5 38 A 1.5 1.5 0 0 0 31.5 35 z"/></svg>