<svg xmlns="http://www.w3.org/2000/svg"  viewBox="0 0 48 48" width="50px" height="50px"><path d="M 22.5 3 C 20.032499 3 18 5.0324991 18 7.5 L 18 8.3789062 C 16.148861 8.7923882 14.467978 9.7012366 13.222656 11.123047 C 11.636297 12.934227 10.551161 15.268409 10.033203 17.685547 C 9.3491282 20.877897 8.1278611 22.127317 6.7714844 23.806641 C 5.4151077 25.485964 4 27.678571 4 31.5 C 4 39.072828 11.073096 45 19.5 45 C 27.926904 45 35 39.072828 35 31.5 C 35 27.678571 33.584892 25.485964 32.228516 23.806641 C 30.872139 22.127317 29.650872 20.877897 28.966797 17.685547 C 28.448839 15.268409 27.363703 12.934227 25.777344 11.123047 C 24.532022 9.7012366 22.851139 8.7923882 21 8.3789062 L 21 7.5 C 21 6.6535009 21.653501 6 22.5 6 A 1.50015 1.50015 0 1 0 22.5 3 z M 25.412109 8.0546875 C 27.399109 9.5656875 28.924969 11.754516 29.917969 14.103516 C 30.577969 14.890516 31.151562 15.770688 31.601562 16.679688 C 33.245563 19.998687 35.150078 21.411203 36.830078 22.658203 C 38.622078 23.985203 39.918656 24.943281 40.722656 28.113281 C 41.410656 30.820281 40.813969 33.695984 39.042969 36.208984 C 37.708969 38.103984 35.827281 39.618953 33.613281 40.626953 C 32.158281 42.387953 30.300344 43.867078 28.152344 44.955078 C 29.359344 44.906078 30.587359 44.739734 31.818359 44.427734 C 35.827359 43.409734 39.263094 41.1065 41.496094 37.9375 C 43.778094 34.6955 44.535859 30.945 43.630859 27.375 C 42.563859 23.17 40.557187 21.684094 38.617188 20.246094 C 37.072187 19.101094 35.613969 18.018609 34.292969 15.349609 C 32.563969 11.857609 29.247109 8.5316875 25.412109 8.0546875 z M 19.429688 11.017578 A 1.50015 1.50015 0 0 0 19.572266 11.017578 C 21.026407 11.042638 22.361839 11.775618 23.521484 13.099609 C 24.701125 14.446429 25.615161 16.363591 26.033203 18.314453 C 26.849128 22.122103 28.627861 24.122683 29.896484 25.693359 C 31.165108 27.264036 32 28.321429 32 31.5 C 32 37.181172 26.537096 42 19.5 42 C 12.462904 42 7 37.181172 7 31.5 C 7 28.321429 7.8348923 27.264036 9.1035156 25.693359 C 10.372139 24.122683 12.150872 22.122103 12.966797 18.314453 C 13.384839 16.363591 14.298875 14.446429 15.478516 13.099609 C 16.63867 11.775037 17.974801 11.042017 19.429688 11.017578 z"/></svg>