<svg xmlns="http://www.w3.org/2000/svg"  viewBox="0 0 48 48" width="50px" height="50px"><path d="M 31.427734 1.9804688 C 28.7881 2.0232459 26.689657 2.9431465 25.246094 4.1132812 C 24.720333 4.5394565 24.281559 4.9897896 23.914062 5.4414062 C 21.782185 2.6286118 18.746094 2.0195313 18.746094 2.0195312 A 1.50015 1.50015 0 0 0 18.447266 1.9960938 A 1.50015 1.50015 0 0 0 18.253906 4.9804688 C 18.253906 4.9804688 20.366158 5.2380845 21.789062 7.5722656 C 19.382408 7.9148957 17.387602 9.7353545 16.900391 12.173828 L 16.574219 13.798828 C 11.333691 16.511822 7.6933594 21.898155 7.6933594 28.193359 C 7.6944585 37.18185 15.012311 44.5 24 44.5 C 32.987689 44.5 40.306641 37.181048 40.306641 28.193359 C 40.306641 21.897296 36.664544 16.510972 31.423828 13.798828 L 31.099609 12.175781 L 31.099609 12.173828 C 31.009025 11.721676 30.85118 11.298624 30.664062 10.892578 C 32.416228 10.535407 33.764196 9.7493222 34.710938 8.796875 C 36.6633 6.8327452 37.015625 4.3789062 37.015625 4.3789062 A 1.50015 1.50015 0 0 0 36.003906 2.7246094 C 34.79428 2.3254042 33.655395 2.1016366 32.591797 2.0175781 C 32.192948 1.9860562 31.804825 1.9743577 31.427734 1.9804688 z M 31.457031 4.9414062 C 31.738086 4.939903 32.032121 4.9522221 32.337891 4.9804688 C 32.690057 5.0130017 33.129027 5.1593707 33.515625 5.2363281 C 33.291569 5.7033597 33.056813 6.2059621 32.583984 6.6816406 C 31.52389 7.748124 29.693911 8.5946117 26.064453 7.7324219 C 26.334961 7.3190115 26.591074 6.8840689 27.134766 6.4433594 C 28.114733 5.6490098 29.489651 4.9519287 31.457031 4.9414062 z M 24.457031 10.476562 C 25.380952 10.74068 26.247855 10.911432 27.0625 11.005859 A 1.5004099 1.5004099 0 0 0 27.236328 11.185547 C 27.698397 11.58422 28.028776 12.126299 28.15625 12.763672 L 28.603516 14.996094 A 1.50015 1.50015 0 0 0 29.458984 16.070312 C 34.08107 18.154923 37.306641 22.780198 37.306641 28.193359 C 37.306641 35.559671 31.366311 41.5 24 41.5 C 16.633689 41.5 10.69426 35.560869 10.693359 28.193359 C 10.693359 22.781297 13.918713 18.153967 18.541016 16.068359 A 1.50015 1.50015 0 0 0 19.394531 14.996094 L 19.841797 12.761719 C 20.106449 11.437147 21.251302 10.5 22.601562 10.5 L 24.169922 10.5 A 1.50015 1.50015 0 0 0 24.457031 10.476562 z M 30.5 23 A 1.5 1.5 0 0 0 30.5 26 A 1.5 1.5 0 0 0 30.5 23 z M 26.5 28 A 1.5 1.5 0 0 0 26.5 31 A 1.5 1.5 0 0 0 26.5 28 z M 32.5 28 A 1.5 1.5 0 0 0 32.5 31 A 1.5 1.5 0 0 0 32.5 28 z M 29.5 33 A 1.5 1.5 0 0 0 29.5 36 A 1.5 1.5 0 0 0 29.5 33 z"/></svg>