<svg xmlns="http://www.w3.org/2000/svg"  viewBox="0 0 48 48" width="50px" height="50px"><path d="M 28.5 1.0507812 C 25.657776 1.0507813 23.243434 2.901052 22.386719 5.4589844 C 22.187154 5.612069 21.984619 5.7376 21.777344 5.7773438 C 20.999344 5.9253437 19.932891 5.0654687 19.212891 5.3554688 C 18.490891 5.6464687 18.310531 7.0096875 17.644531 7.4296875 C 16.992531 7.8416875 15.69075 7.4066875 15.09375 7.9296875 C 14.52775 8.4246875 14.749625 9.72775 14.265625 10.34375 C 14.244625 10.36775 14.222172 10.393969 14.201172 10.417969 C 13.672172 10.955969 12.350391 10.889344 11.900391 11.527344 C 11.458391 12.154344 11.99175 13.425281 11.59375 14.113281 C 11.20775 14.779281 9.8410937 14.940297 9.4960938 15.654297 C 9.1610937 16.349297 9.8819375 17.524812 9.5859375 18.257812 C 9.2959375 18.975812 7.9619844 19.3145 7.7089844 20.0625 C 7.4599844 20.7985 8.3116094 21.881672 8.0996094 22.638672 C 7.8886094 23.388672 6.597875 23.867812 6.421875 24.632812 C 6.246875 25.394813 7.2005469 26.390156 7.0605469 27.160156 C 6.9245469 27.909156 5.7203594 28.517469 5.6933594 29.230469 C 5.6643594 29.987469 6.8241562 30.675672 6.9101562 31.388672 C 6.9991563 32.133672 6.0411406 33.080391 6.2441406 33.775391 C 6.4531406 34.489391 7.7737969 34.770734 8.0917969 35.427734 C 8.4127969 36.092734 7.8104687 37.297391 8.2304688 37.900391 C 8.6504687 38.502391 9.9949531 38.359484 10.501953 38.896484 C 11.004953 39.428484 10.779469 40.758656 11.355469 41.222656 C 11.924469 41.681656 13.180547 41.181313 13.810547 41.570312 C 14.432547 41.955312 14.542891 43.300281 15.212891 43.613281 C 15.876891 43.923281 16.982641 43.147766 17.681641 43.384766 C 18.376641 43.620766 18.782953 44.908359 19.501953 45.068359 C 20.219953 45.228359 21.132281 44.233453 21.863281 44.314453 C 22.595281 44.395453 23.268906 45.566406 24.003906 45.566406 C 24.735906 45.566406 25.400141 44.395406 26.119141 44.316406 C 26.846141 44.236406 27.752984 45.233219 28.458984 45.074219 C 29.172984 44.913219 29.563094 43.625719 30.246094 43.386719 C 30.937094 43.145719 32.044313 43.91075 32.695312 43.59375 C 33.352312 43.27375 33.431062 41.930156 34.039062 41.535156 C 34.651063 41.137156 35.911844 41.610625 36.464844 41.140625 C 37.019844 40.668625 36.753281 39.350594 37.238281 38.808594 C 37.722281 38.267594 39.06275 38.387297 39.46875 37.779297 C 39.86975 37.178297 39.248453 35.987219 39.564453 35.324219 C 39.873453 34.675219 41.191156 34.408125 41.410156 33.703125 C 41.621156 33.021125 40.687641 32.055266 40.806641 31.322266 C 40.920641 30.620266 42.117672 30.003812 42.138672 29.257812 C 42.159672 28.549813 41.0055 27.855375 40.9375 27.109375 C 40.8665 26.323375 41.891625 25.399047 41.765625 24.623047 C 41.638625 23.843047 40.371406 23.289391 40.191406 22.525391 C 40.009406 21.754391 40.894156 20.693312 40.660156 19.945312 C 40.423156 19.187313 39.091734 18.824656 38.802734 18.097656 C 38.508734 17.357656 39.221953 16.174609 38.876953 15.474609 C 38.523953 14.759609 37.152047 14.613266 36.748047 13.947266 C 36.333047 13.264266 36.829281 11.974516 36.363281 11.353516 C 35.883281 10.713516 34.509516 10.836484 33.978516 10.271484 C 33.430516 9.6884844 33.629297 8.3220781 33.029297 7.8300781 C 32.412297 7.3230781 31.117219 7.7915781 30.449219 7.3925781 C 29.768219 6.9855781 29.557172 5.6228438 28.826172 5.3398438 C 28.093172 5.0558438 27.027047 5.9213906 26.248047 5.7753906 C 26.059354 5.7397789 25.874831 5.6402395 25.693359 5.5097656 C 26.319238 4.6298298 27.340564 4.0507812 28.5 4.0507812 C 29.329 4.0507813 30 3.3797812 30 2.5507812 C 30 1.7217812 29.329 1.0507812 28.5 1.0507812 z M 23.814453 9.140625 C 25.885453 11.564625 30.318234 23.223781 28.490234 29.425781 C 27.859234 31.567781 26.559391 32.564453 24.400391 32.564453 C 21.767391 32.564453 20.196937 31.400297 19.460938 28.904297 C 17.614937 22.654297 21.795453 11.509625 23.814453 9.140625 z M 27.660156 9.7714844 C 29.474156 10.490484 31.083078 11.723312 32.455078 13.320312 C 33.095078 14.127312 32.633219 15.847109 32.074219 15.787109 C 30.703219 15.640109 29.645359 14.322313 29.068359 13.070312 C 28.881359 12.664312 27.854156 10.142484 27.660156 9.7714844 z M 19.935547 9.8457031 C 19.288547 11.107703 18.682391 12.583297 18.150391 14.154297 C 17.565391 15.883297 15.985156 17.04875 14.160156 17.09375 C 14.136156 17.09475 14.109938 17.096656 14.085938 17.097656 C 14.158938 16.873656 14.235641 16.663687 14.306641 16.429688 C 15.278641 13.227687 17.252547 10.959703 19.935547 9.8457031 z M 32.523438 17.326172 C 32.66016 17.319996 32.801687 17.333187 32.945312 17.367188 C 33.458312 17.488187 33.933094 17.640172 34.371094 17.826172 L 34.376953 17.828125 C 35.056953 18.120125 35.587719 18.668703 35.886719 19.345703 C 36.220719 20.100703 36.222328 19.926656 36.486328 20.722656 C 36.775328 21.585656 36.151188 22.49525 35.242188 22.53125 C 34.483187 22.56125 33.777672 22.565828 33.138672 22.548828 C 32.267672 22.525828 31.527187 21.907781 31.367188 21.050781 C 31.205188 20.178781 31.306031 20.236891 31.082031 19.337891 C 30.832656 18.335141 31.566379 17.369402 32.523438 17.326172 z M 14.84375 20.087891 L 14.855469 20.087891 C 15.755469 20.100891 16.427828 20.907828 16.298828 21.798828 C 16.114828 23.072828 16.013672 24.271172 16.013672 25.326172 L 16.013672 25.341797 C 16.013672 26.109797 15.442687 26.759422 14.679688 26.857422 L 11.330078 27.291016 C 10.721078 27.370016 10.352 26.947563 10.5 26.351562 C 10.878 24.831563 11.491594 23.453484 12.183594 21.896484 L 12.25 21.746094 C 12.704 20.724094 13.72475 20.070891 14.84375 20.087891 z M 36.417969 25.460938 C 37.101969 25.415937 37.698437 25.918609 37.773438 26.599609 C 37.791438 26.763609 37.808266 26.927797 37.822266 27.091797 C 38.120266 30.405797 37.314375 33.408656 35.484375 35.847656 C 34.841375 36.704656 33.551859 36.685562 32.880859 35.851562 C 32.404859 35.260562 32.003719 34.531438 31.636719 33.773438 C 31.548719 33.591437 31.47125 33.433594 31.40625 33.308594 L 31.376953 33.251953 C 30.951953 32.442953 30.926609 31.500719 31.224609 30.636719 C 31.538609 29.724719 31.74875 28.696781 31.84375 27.550781 C 31.84775 27.500781 31.851469 27.442 31.855469 27.375 C 31.909469 26.366 32.734141 25.570312 33.744141 25.570312 L 33.785156 25.570312 C 34.568156 25.570312 35.616969 25.513938 36.417969 25.460938 z M 14.511719 29.947266 C 15.709539 29.93883 16.807953 30.660891 17.408203 31.744141 C 17.525203 31.955141 17.64925 32.156609 17.78125 32.349609 L 17.890625 32.511719 C 18.610625 33.564719 18.692703 34.931594 18.095703 36.058594 C 18.064703 36.116594 18.039531 36.164172 18.019531 36.201172 C 17.682531 36.832172 17.366313 37.422719 16.945312 38.136719 C 16.593312 38.734719 15.804469 38.92325 15.230469 38.53125 C 14.240469 37.85525 13.353281 37.066641 12.613281 36.181641 C 11.624281 34.998641 10.935109 33.68525 10.537109 32.28125 C 10.378109 31.72125 10.622438 31.113281 11.148438 30.863281 C 11.924438 30.493281 12.874187 30.202094 13.992188 29.996094 C 14.166187 29.963969 14.340602 29.948471 14.511719 29.947266 z M 26.59375 35.349609 C 27.947758 35.285393 29.253641 35.887828 30.025391 37.033203 L 30.041016 37.056641 C 30.115016 37.166641 30.193391 37.275719 30.275391 37.386719 C 31.030391 38.408719 30.562094 39.850969 29.371094 40.292969 C 27.722094 40.904969 25.930172 41.232422 24.076172 41.232422 C 23.268172 41.232422 22.462922 41.168922 21.669922 41.044922 C 20.382922 40.844922 19.695406 39.407672 20.316406 38.263672 C 20.435406 38.045672 20.549062 37.832187 20.664062 37.617188 L 20.708984 37.533203 C 21.377984 36.276203 22.699047 35.521547 24.123047 35.560547 C 24.214047 35.563547 24.307391 35.564453 24.400391 35.564453 C 24.964391 35.564453 25.501719 35.514969 26.011719 35.417969 C 26.205719 35.381219 26.40032 35.358783 26.59375 35.349609 z"/></svg>