<svg xmlns="http://www.w3.org/2000/svg"  viewBox="0 0 48 48" width="50px" height="50px"><path d="M 1.5 11 A 1.50015 1.50015 0 0 0 0 12.5 L 0 15 C 0 28.236719 10.763281 39 24 39 C 37.236719 39 48 28.236719 48 15 L 48 12.5 A 1.50015 1.50015 0 0 0 46.5 11 L 1.5 11 z M 3 14 L 6 14 L 6 15 C 6 24.9236 14.0764 33 24 33 C 33.9236 33 42 24.9236 42 15 L 42 14 L 45 14 L 45 15 C 45 26.615281 35.615281 36 24 36 C 12.384719 36 3 26.615281 3 15 L 3 14 z M 9 14 L 15.001953 14 A 2 2 0 0 0 17 16 A 2 2 0 0 0 18.998047 14 L 39 14 L 39 15 C 39 23.3024 32.3024 30 24 30 C 15.6976 30 9 23.3024 9 15 L 9 14 z M 34 16 A 2 2 0 0 0 34 20 A 2 2 0 0 0 34 16 z M 24 18 A 2 2 0 0 0 24 22 A 2 2 0 0 0 24 18 z M 15.5 20 A 1.5 1.5 0 0 0 15.5 23 A 1.5 1.5 0 0 0 15.5 20 z M 30.5 23 A 1.5 1.5 0 0 0 30.5 26 A 1.5 1.5 0 0 0 30.5 23 z M 20.5 25 A 1.5 1.5 0 0 0 20.5 28 A 1.5 1.5 0 0 0 20.5 25 z"/></svg>