<svg xmlns="http://www.w3.org/2000/svg"  viewBox="0 0 48 48" width="50px" height="50px"><path d="M 35.5 4 C 33.661122 4 32.169484 5.2266922 31.236328 6.7753906 C 30.303172 8.324089 29.669423 10.294141 29.050781 12.613281 C 28.916539 13.116688 28.782623 13.548054 28.648438 14.009766 A 1.5 1.5 0 0 0 28.5 14 A 1.5 1.5 0 0 0 27.765625 16.804688 C 26.828217 19.488074 25.960997 21.212462 25.316406 22.244141 A 1.5 1.5 0 0 0 24.5 22 A 1.5 1.5 0 0 0 23.326172 24.431641 C 22.147943 25.391445 20.481175 26.417737 17.730469 27.642578 A 1.5 1.5 0 0 0 16.5 27 A 1.5 1.5 0 0 0 15.025391 28.769531 C 13.964514 29.186246 12.825174 29.618229 11.5 30.085938 C 11.175946 30.200338 10.870528 30.322657 10.564453 30.445312 A 1.5 1.5 0 0 0 9.5 30 A 1.5 1.5 0 0 0 8.0175781 31.728516 C 7.6550569 31.964742 7.3118672 32.214502 6.9980469 32.486328 C 5.8223868 33.504667 5 34.916777 5 36.5 C 5 38.007093 5.8602788 39.301391 7.0058594 40.181641 C 8.133528 41.048127 9.5816001 41.601364 11.193359 41.849609 C 11.263756 41.867295 14.228737 42.603157 18.289062 42.386719 A 1.5 1.5 0 0 0 19.5 43 A 1.5 1.5 0 0 0 20.861328 42.123047 C 22.50532 41.874441 24.247455 41.454472 26.003906 40.763672 C 26.152687 40.705157 26.300559 40.630908 26.449219 40.568359 A 1.5 1.5 0 0 0 27.5 41 A 1.5 1.5 0 0 0 28.984375 39.289062 C 31.653056 37.691915 34.181335 35.338096 36.21875 31.970703 A 1.5 1.5 0 0 0 36.5 32 A 1.5 1.5 0 0 0 37.550781 29.431641 C 38.060475 28.334361 38.532886 27.16691 38.941406 25.890625 A 1.5 1.5 0 0 0 39.5 26 A 1.5 1.5 0 0 0 39.720703 23.017578 C 40.011961 21.760118 40.246087 20.412905 40.435547 18.998047 A 1.5 1.5 0 0 0 40.5 19 A 1.5 1.5 0 0 0 40.742188 16.021484 C 40.816245 15.032823 40.864608 14.007151 40.888672 12.947266 A 1.5 1.5 0 0 0 40.847656 10.041016 C 40.683638 8.4836599 40.247382 7.1691502 39.517578 6.1347656 C 38.570655 4.7926476 37.05808 4 35.5 4 z M 35.5 7 C 36.15392 7 36.603829 7.2076494 37.066406 7.8632812 C 37.528983 8.5189133 37.925781 9.7093426 37.925781 11.490234 C 37.925781 29.006128 31.375007 35.428539 24.90625 37.972656 C 18.437493 40.516773 11.84375 38.929688 11.84375 38.929688 A 1.50015 1.50015 0 0 0 11.703125 38.902344 C 10.488918 38.723417 9.4661538 38.288485 8.8339844 37.802734 C 8.2018149 37.316984 8 36.879907 8 36.5 C 8 35.874223 8.2348007 35.384567 8.9628906 34.753906 C 9.6909805 34.123246 10.912692 33.474427 12.5 32.914062 C 18.38229 30.837961 21.751254 29.181313 24.007812 27.642578 A 1.5 1.5 0 0 0 25.5 29 A 1.5 1.5 0 0 0 25.998047 26.083984 C 26.189018 25.909436 26.386052 25.735042 26.560547 25.560547 C 27.9141 24.206993 29.91073 21.031053 31.949219 13.386719 C 32.540577 11.169859 33.163547 9.3895672 33.806641 8.3222656 C 34.449735 7.254964 34.853878 7 35.5 7 z M 34.5 9 A 1.5 1.5 0 0 0 34.5 12 A 1.5 1.5 0 0 0 34.5 9 z M 35.5 18 A 1.5 1.5 0 0 0 35.5 21 A 1.5 1.5 0 0 0 35.5 18 z M 10.5 35 A 1.5 1.5 0 0 0 10.5 38 A 1.5 1.5 0 0 0 10.5 35 z M 23.5 35 A 1.5 1.5 0 0 0 23.5 38 A 1.5 1.5 0 0 0 23.5 35 z"/></svg>