<svg xmlns="http://www.w3.org/2000/svg"  viewBox="0 0 48 48" width="50px" height="50px"><path d="M 20 1 A 1.50015 1.50015 0 0 0 19.472656 3.9042969 C 19.472656 3.9042969 20.291609 4.2182187 21.099609 4.8242188 C 21.422012 5.0660208 21.694016 5.3340267 21.923828 5.6152344 C 15.649561 6.2829885 10.270123 9.9453029 7.2089844 15.134766 A 1.50015 1.50015 0 0 0 6.8574219 15.712891 A 1.50015 1.50015 0 0 0 6.8554688 15.716797 C 5.3539555 18.478673 4.5 21.641618 4.5 25 C 4.5 35.635865 13.061937 44.306361 23.654297 44.492188 A 1.50015 1.50015 0 0 0 24.359375 44.490234 C 34.945398 44.297151 43.5 35.631266 43.5 25 C 43.5 20.879622 42.205604 17.060478 40.015625 13.908203 A 1.50015 1.50015 0 0 0 39.560547 13.296875 C 36.233259 8.8841859 31.093486 5.9159266 25.246094 5.5449219 C 25.049575 4.971549 24.761347 4.4584217 24.419922 4 L 28 4 A 1.50015 1.50015 0 1 0 28 1 L 20 1 z M 23.822266 8.5097656 A 1.50015 1.50015 0 0 0 24.185547 8.5097656 C 28.808769 8.5610017 32.960344 10.502952 35.921875 13.599609 L 32.136719 14.544922 A 1.50015 1.50015 0 0 0 31.076172 15.525391 L 29.863281 19.167969 L 27.753906 19.519531 A 1.5007834 1.5007834 0 1 0 28.246094 22.480469 L 31.246094 21.980469 A 1.50015 1.50015 0 0 0 32.423828 20.974609 L 33.662109 17.255859 L 37.941406 16.185547 C 39.554431 18.735578 40.5 21.751624 40.5 25 C 40.5 33.739919 33.74215 40.847745 25.15625 41.441406 L 24.203125 37.626953 L 26.871094 35.720703 A 1.50015 1.50015 0 0 0 27.464844 34.173828 L 26.464844 29.673828 A 1.50015 1.50015 0 0 0 24.945312 28.480469 A 1.50015 1.50015 0 0 0 23.535156 30.326172 L 24.320312 33.855469 L 21.628906 35.779297 A 1.50015 1.50015 0 0 0 21.044922 37.363281 L 22.046875 41.375 C 13.843046 40.410756 7.5 33.468142 7.5 25 C 7.5 22.956395 7.8870116 21.009362 8.5625 19.205078 L 10.771484 22.359375 A 1.50015 1.50015 0 0 0 12.302734 22.96875 L 16.291016 22.146484 L 17.861328 23.976562 A 1.50015 1.50015 0 1 0 20.138672 22.023438 L 17.992188 19.521484 A 1.50015 1.50015 0 0 0 16.550781 19.029297 L 12.662109 19.832031 L 10.082031 16.146484 C 12.977155 11.597482 18.031451 8.5712462 23.822266 8.5097656 z"/></svg>