<svg xmlns="http://www.w3.org/2000/svg"  viewBox="0 0 48 48" width="50px" height="50px"><path d="M 21.263672 3.7226562 C 16.426856 3.7486636 11.527736 5.6714831 7.7695312 9.4296875 C 1.6298907 15.569328 0.44841489 24.731247 4.375 31.712891 C 3.087688 33.570131 3.2035532 36.131288 4.8554688 37.783203 C 6.524661 39.452395 9.1218054 39.556383 10.982422 38.226562 C 13.613665 39.697612 16.514512 40.554855 19.486328 40.576172 A 1.50015 1.50015 0 0 0 20.066406 40.470703 C 22.789099 42.614852 26.213097 43.90625 29.9375 43.90625 C 38.756189 43.90625 45.9375 36.724939 45.9375 27.90625 C 45.9375 27.618907 45.914409 27.438091 45.912109 27.361328 A 1.50015 1.50015 0 0 0 44.412109 25.90625 L 38.308594 25.90625 C 39.445526 21.409988 38.858031 16.653738 36.587891 12.607422 C 37.893127 10.748699 37.78188 8.172505 36.123047 6.5136719 C 34.470222 4.8621305 31.909591 4.7463629 30.052734 6.0332031 C 27.629902 4.6704013 24.96506 3.8710381 22.230469 3.7421875 C 21.908931 3.727037 21.586126 3.7209224 21.263672 3.7226562 z M 20.785156 6.7304688 C 23.811473 6.619164 26.814145 7.3931056 29.369141 9.0488281 A 1.50015 1.50015 0 0 0 31.244141 8.8515625 L 31.490234 8.6054688 C 32.178959 7.9167438 33.280185 7.9155108 34.001953 8.6367188 C 34.723078 9.3592711 34.721755 10.456519 34.03125 11.146484 L 33.787109 11.392578 A 1.50015 1.50015 0 0 0 33.587891 13.269531 C 35.974356 16.952772 36.528153 21.560684 35.240234 25.837891 A 1.50015 1.50015 0 0 0 35.220703 25.90625 L 15.462891 25.90625 A 1.50015 1.50015 0 0 0 13.964844 27.353516 C 13.961644 27.442176 13.9375 27.624824 13.9375 27.90625 C 13.9375 31.440966 15.104225 34.701915 17.054688 37.353516 C 15.128358 37.025013 13.276242 36.328721 11.611328 35.25 A 1.50015 1.50015 0 0 0 9.734375 35.447266 L 9.4902344 35.691406 C 8.8000051 36.381092 7.7007753 36.384372 6.9785156 35.662109 C 6.2559815 34.939575 6.2563086 33.840804 6.9472656 33.150391 L 7.1933594 32.904297 A 1.50015 1.50015 0 0 0 7.390625 31.029297 C 3.6059348 25.188126 4.43264 17.010719 9.8925781 11.550781 C 12.963827 8.4795327 16.894178 6.8735748 20.785156 6.7304688 z M 17.037109 28.90625 L 26.46875 28.90625 L 19.052734 34.927734 C 17.928697 33.165191 17.207146 31.116951 17.037109 28.90625 z M 33.371094 28.90625 L 42.837891 28.90625 C 42.665446 31.148268 41.92519 33.222875 40.773438 35.001953 L 33.371094 28.90625 z M 28.4375 31.171875 L 28.4375 40.8125 C 25.527832 40.478276 22.929882 39.186399 20.945312 37.255859 L 28.4375 31.171875 z M 31.4375 31.199219 L 38.869141 37.318359 C 36.892591 39.215431 34.31667 40.48178 31.4375 40.8125 L 31.4375 31.199219 z"/></svg>