<svg xmlns="http://www.w3.org/2000/svg"  viewBox="0 0 48 48" width="50px" height="50px"><path d="M 24.474609 3 A 1.50015 1.50015 0 0 0 23.251953 3.6679688 L 21.837891 5.7890625 L 18.863281 5.0449219 A 1.50015 1.50015 0 0 0 17.416016 7.5371094 L 19.34375 9.5488281 C 11.362681 11.299933 5 17.284619 5 26 C 5 31.715758 7.5520766 36.655584 11.585938 39.943359 C 14.950813 42.685964 19.204105 44 23.46875 44 L 25.533203 44 C 29.797179 44 34.049265 42.684802 37.414062 39.943359 C 41.446841 36.655579 44 31.715758 44 26 C 44 17.259278 37.599614 11.266634 29.585938 9.5351562 L 31.560547 7.5605469 A 1.50015 1.50015 0 0 0 30.136719 5.0449219 L 27.162109 5.7890625 L 25.748047 3.6679688 A 1.50015 1.50015 0 0 0 24.474609 3 z M 21.662109 12.216797 C 22.40453 12.276193 23 12.914043 23 13.724609 L 23 14.5 A 1.50015 1.50015 0 0 0 23.005859 14.650391 A 1.50015 1.50015 0 0 0 23.025391 14.798828 A 1.50015 1.50015 0 0 0 23.060547 14.943359 A 1.50015 1.50015 0 0 0 23.109375 15.085938 A 1.50015 1.50015 0 0 0 23.173828 15.222656 A 1.50015 1.50015 0 0 0 23.25 15.351562 A 1.50015 1.50015 0 0 0 23.550781 15.683594 A 1.50015 1.50015 0 0 0 23.800781 15.847656 A 1.50015 1.50015 0 0 0 24.078125 15.960938 A 1.50015 1.50015 0 0 0 24.224609 15.996094 A 1.50015 1.50015 0 0 0 24.373047 16.015625 A 1.50015 1.50015 0 0 0 24.671875 16.011719 A 1.50015 1.50015 0 0 0 24.820312 15.986328 A 1.50015 1.50015 0 0 0 24.964844 15.947266 A 1.50015 1.50015 0 0 0 25.105469 15.894531 A 1.50015 1.50015 0 0 0 25.238281 15.826172 A 1.50015 1.50015 0 0 0 25.591797 15.550781 A 1.50015 1.50015 0 0 0 25.847656 15.181641 A 1.50015 1.50015 0 0 0 25.951172 14.900391 A 1.50015 1.50015 0 0 0 26 14.5 L 26 13.724609 C 26 12.798247 26.778179 12.098282 27.664062 12.228516 C 35.266417 13.346289 41 18.244718 41 26 C 41 30.834242 38.902752 34.858967 35.519531 37.617188 C 33.533891 39.234973 31.130673 40.263496 28.585938 40.720703 C 27.357097 39.653341 25.748643 39 24 39 C 22.343276 39 20.810606 39.588614 19.609375 40.558594 C 17.364695 40.039946 15.257358 39.063882 13.482422 37.617188 C 10.098282 34.858963 8 30.834242 8 26 C 8 18.244718 13.733582 13.346289 21.335938 12.228516 C 21.446673 12.212236 21.556049 12.208312 21.662109 12.216797 z M 18.5 17 A 1.5 1.5 0 0 0 18.5 20 A 1.5 1.5 0 0 0 18.5 17 z M 30.5 17 A 1.5 1.5 0 0 0 30.5 20 A 1.5 1.5 0 0 0 30.5 17 z M 13.5 21 A 1.5 1.5 0 0 0 13.5 24 A 1.5 1.5 0 0 0 13.5 21 z M 24.5 21 A 1.5 1.5 0 0 0 24.5 24 A 1.5 1.5 0 0 0 24.5 21 z M 35.5 21 A 1.5 1.5 0 0 0 35.5 24 A 1.5 1.5 0 0 0 35.5 21 z M 19.5 25 A 1.5 1.5 0 0 0 19.5 28 A 1.5 1.5 0 0 0 19.5 25 z M 29.5 25 A 1.5 1.5 0 0 0 29.5 28 A 1.5 1.5 0 0 0 29.5 25 z M 14.5 29 A 1.5 1.5 0 0 0 14.5 32 A 1.5 1.5 0 0 0 14.5 29 z M 24.5 29 A 1.5 1.5 0 0 0 24.5 32 A 1.5 1.5 0 0 0 24.5 29 z M 34.5 29 A 1.5 1.5 0 0 0 34.5 32 A 1.5 1.5 0 0 0 34.5 29 z M 19.5 34 A 1.5 1.5 0 0 0 19.5 37 A 1.5 1.5 0 0 0 19.5 34 z M 29.5 34 A 1.5 1.5 0 0 0 29.5 37 A 1.5 1.5 0 0 0 29.5 34 z"/></svg>