<svg xmlns="http://www.w3.org/2000/svg"  viewBox="0 0 48 48" width="50px" height="50px"><path d="M 24 5.1015625 C 15 5.1015625 6 14.057516 6 25.103516 C 6 36.149516 12.954 43.103516 24 43.103516 C 35.046 43.103516 42 36.149516 42 25.103516 C 42 14.057516 33 5.1015625 24 5.1015625 z M 24 8.1015625 C 31.081 8.1015625 39 15.373516 39 25.103516 C 39 34.496516 33.393 40.103516 24 40.103516 C 14.607 40.103516 9 34.496516 9 25.103516 C 9 15.372516 16.919 8.1015625 24 8.1015625 z M 20.5 14 A 1.5 1.5 0 0 0 20.5 17 A 1.5 1.5 0 0 0 20.5 14 z M 16.5 17 A 1.5 1.5 0 0 0 16.5 20 A 1.5 1.5 0 0 0 16.5 17 z M 23.5 18 A 1.5 1.5 0 0 0 23.5 21 A 1.5 1.5 0 0 0 23.5 18 z M 34.476562 24.978516 A 1.50015 1.50015 0 0 0 33 26.5 C 33 30.444444 30.97462 32.352045 28.777344 33.560547 C 26.580067 34.769049 24.351563 35.007813 24.351562 35.007812 A 1.50015 1.50015 0 1 0 24.648438 37.992188 C 24.648438 37.992188 27.419933 37.730951 30.222656 36.189453 C 33.02538 34.647955 36 31.555556 36 26.5 A 1.50015 1.50015 0 0 0 34.476562 24.978516 z"/></svg>