<svg xmlns="http://www.w3.org/2000/svg"  viewBox="0 0 48 48" width="50px" height="50px"><path d="M 38.5 3 C 31.071429 3 26.629497 6.3068678 24.457031 9.6894531 C 24.395149 9.7858054 24.351396 9.8803562 24.292969 9.9765625 C 23.740757 9.0959643 23.106934 8.3859866 22.460938 7.8476562 C 20.658687 6.3457804 18.746094 6.0195312 18.746094 6.0195312 A 1.50015 1.50015 0 0 0 18.447266 5.9960938 A 1.50015 1.50015 0 0 0 18.253906 8.9804688 C 18.253906 8.9804688 19.341313 9.1542193 20.539062 10.152344 C 21.088857 10.610505 21.646834 11.235458 22.095703 12.113281 C 13.618723 13.064857 7 20.273935 7 29 C 7 38.370748 14.629252 46 24 46 C 33.370748 46 41 38.370748 41 29 C 41 23.602804 38.476325 18.77779 34.541016 15.662109 C 36.640726 14.416387 38.022247 12.809021 38.841797 11.169922 C 40.580311 7.6928939 39.980469 4.2539064 39.980469 4.2539062 A 1.50015 1.50015 0 0 0 38.5 3 z M 37.056641 6.1542969 C 37.029461 7.1339892 36.863069 8.4203463 36.158203 9.8300781 C 34.987451 12.171583 32.363327 14.539199 25.914062 14.876953 C 25.881894 14.575615 25.828288 14.297162 25.779297 14.013672 C 25.989712 13.220431 26.370193 12.263804 26.982422 11.310547 C 28.523551 8.9109689 31.52565 6.5476896 37.056641 6.1542969 z M 22.587891 15.070312 C 22.565299 15.492576 22.570763 15.8995 22.654297 16.294922 C 22.716977 16.591648 22.80344 16.899779 23.056641 17.248047 C 23.185974 17.425943 23.39892 17.616092 23.658203 17.761719 A 1.50015 1.50015 0 0 0 24.783203 17.992188 C 27.339836 17.968229 29.506048 17.63156 31.324219 17.070312 C 33.473131 18.392678 35.234245 20.276222 36.408203 22.519531 C 35.334647 22.800239 34.350997 23.181118 33.517578 23.691406 C 32.134724 24.538105 31 25.837142 31 27.5 C 31 29.245198 32.234384 30.577937 33.724609 31.431641 C 34.789415 32.041634 36.06984 32.470378 37.484375 32.726562 C 35.856485 38.655602 30.456 43 24 43 C 23.115596 43 22.254319 42.909675 21.416016 42.753906 C 22.404312 41.420838 23 39.778252 23 38 C 23 36.693024 22.596358 35.508244 22.037109 34.417969 C 23.153736 33.41271 24 32.113939 24 30.5 C 24 27.480226 21.519774 25 18.5 25 C 17.482639 25 16.578718 25.355375 15.757812 25.841797 C 14.599201 24.783362 13.183192 24 11.5 24 C 11.303043 24 11.111033 24.019735 10.917969 24.037109 C 12.757967 19.171823 17.211373 15.605774 22.587891 15.070312 z M 37.515625 25.335938 C 37.830624 26.502764 38 27.731386 38 29 C 38 29.256694 37.974482 29.506533 37.960938 29.759766 C 36.852001 29.547597 35.892216 29.215051 35.216797 28.828125 C 34.252272 28.275579 34 27.767802 34 27.5 C 34 27.244858 34.215838 26.781552 35.083984 26.25 C 35.677476 25.886615 36.526725 25.564671 37.515625 25.335938 z M 11.5 27 C 12.718333 27 13.772276 27.611533 14.402344 28.542969 A 1.50015 1.50015 0 0 0 16.716797 28.751953 C 17.174218 28.285081 17.793869 28 18.5 28 C 19.898226 28 21 29.101774 21 30.5 C 21 31.508006 20.411629 32.349637 19.558594 32.751953 A 1.50015 1.50015 0 0 0 18.998047 35.007812 C 19.628389 35.848785 20 36.873018 20 38 C 20 39.517946 19.330281 40.857301 18.273438 41.773438 C 13.393382 39.589233 10 34.705415 10 29 C 10 28.4185 10.046847 27.849725 10.115234 27.287109 C 10.53891 27.103925 11.002761 27 11.5 27 z M 28.5 35 A 1.5 1.5 0 0 0 28.5 38 A 1.5 1.5 0 0 0 28.5 35 z"/></svg>