<svg xmlns="http://www.w3.org/2000/svg"  viewBox="0 0 48 48" width="50px" height="50px"><path d="M 31.5 3 C 31.15225 3 30.804437 3.1203281 30.523438 3.3613281 C 28.244438 5.3153281 26.929328 7.290125 26.236328 8.578125 L 25.056641 8.1074219 C 24.379641 7.8354219 23.612516 8.0900781 23.228516 8.7050781 C 23.161516 8.8130781 22.161344 10.441859 21.277344 13.130859 C 21.712344 13.393859 22.155469 13.672516 22.605469 13.978516 L 22.71875 13.878906 C 23.23775 13.421906 23.857094 13.145875 24.496094 13.046875 C 24.746094 12.389875 24.989313 11.824578 25.195312 11.392578 L 26.443359 11.892578 C 26.820359 12.042578 27.251953 12.028375 27.626953 11.859375 C 27.999953 11.688375 28.287875 11.370422 28.421875 10.982422 C 28.430875 10.959422 29.174953 8.8679687 31.501953 6.5429688 C 33.828953 8.8679687 34.572125 10.957609 34.578125 10.974609 C 34.709125 11.366609 34.994141 11.687328 35.369141 11.861328 C 35.742141 12.035328 36.175594 12.047578 36.558594 11.892578 L 37.808594 11.392578 C 38.525594 12.889578 39.689859 15.828 40.005859 19.625 C 40.069859 20.402 40.72 21 41.5 21 L 42.902344 21 C 42.657344 23.154 41.891453 26.487453 39.939453 28.439453 C 39.586453 28.791453 39.432344 29.294203 39.527344 29.783203 C 39.621344 30.272203 39.950203 30.681906 40.408203 30.878906 L 42.191406 31.642578 C 41.028406 33.060578 38.833016 35.248703 35.541016 36.720703 C 35.141016 37.790703 34.625141 38.890141 33.994141 39.994141 C 34.067141 40.130141 34.141984 40.268484 34.208984 40.396484 C 42.064984 38.093484 45.640734 32.027141 45.802734 31.744141 C 46.014734 31.373141 46.058875 30.929437 45.921875 30.523438 C 45.785875 30.117437 45.484797 29.790094 45.091797 29.621094 L 43.402344 28.896484 C 45.965344 24.977484 46 19.753 46 19.5 C 46 18.672 45.328 18 44.5 18 L 42.845703 18 C 42.098703 12.479 39.874437 8.8680781 39.773438 8.7050781 C 39.388438 8.0890781 38.619359 7.8354219 37.943359 8.1074219 L 36.763672 8.578125 C 36.070672 7.290125 34.755563 5.3153281 32.476562 3.3613281 C 32.195563 3.1203281 31.84775 3 31.5 3 z M 13.541016 12 A 1.50015 1.50015 0 0 0 12.123047 12.90625 L 11.619141 14.076172 C 10.192009 13.488318 7.8921056 12.733995 4.3847656 13.003906 A 1.50015 1.50015 0 0 0 3.0039062 14.384766 C 2.7343255 17.88856 3.4862909 20.186609 4.0742188 21.615234 L 2.9082031 22.115234 A 1.50015 1.50015 0 0 0 2.0390625 23.830078 C 2.0390625 23.830078 3.1388407 28.129384 6.5820312 32.662109 L 5.3828125 34 A 1.50015 1.50015 0 0 0 5.4316406 36.054688 C 5.4316406 36.054688 9.0532016 39.684594 13.880859 40.654297 L 13.123047 42.404297 A 1.50015 1.50015 0 0 0 14.066406 44.435547 C 14.066406 44.435547 16.123601 45.052284 19.029297 44.996094 C 21.857497 44.94152 25.627497 44.29723 29.400391 42.027344 C 30.708641 44.437957 31.076172 45.474609 31.076172 45.474609 A 1.5008464 1.5008464 0 1 0 33.923828 44.525391 C 33.923828 44.525391 33.369956 42.992427 31.675781 39.941406 C 34.220978 35.989873 34.938909 31.992876 34.996094 29.029297 C 35.052284 26.123601 34.435547 24.066406 34.435547 24.066406 A 1.50015 1.50015 0 0 0 32.404297 23.123047 L 30.65625 23.878906 C 29.6921 19.057713 26.089844 15.439453 26.089844 15.439453 A 1.50015 1.50015 0 0 0 24.041016 15.378906 L 22.669922 16.587891 C 18.13514 13.140456 13.837891 12.039063 13.837891 12.039062 A 1.50015 1.50015 0 0 0 13.541016 12 z M 14.324219 15.375 C 15.620893 15.772766 18.38147 16.74656 21.802734 19.640625 A 1.50015 1.50015 0 0 0 23.763672 19.621094 L 24.824219 18.685547 C 25.889599 19.957957 28.052734 22.752174 28.052734 25.990234 A 1.50015 1.50015 0 0 0 30.148438 27.367188 L 31.75 26.673828 C 31.878842 27.371712 32.023295 27.564076 31.996094 28.970703 C 31.953116 31.198172 31.469685 34.072179 29.898438 37.021484 C 24.054678 28.339508 14.390625 21.292969 14.390625 21.292969 A 1.50015 1.50015 0 0 0 13.408203 20.988281 A 1.50015 1.50015 0 0 0 12.609375 23.707031 C 12.609375 23.707031 22.58364 31.169266 27.876953 39.412109 C 24.632242 41.376372 21.413404 41.948959 18.970703 41.996094 C 17.564076 42.023294 17.371712 41.878842 16.673828 41.75 L 17.367188 40.148438 A 1.50015 1.50015 0 0 0 15.990234 38.052734 C 12.759922 38.052734 9.9659607 35.879161 8.6894531 34.804688 L 9.6132812 33.773438 A 1.50015 1.50015 0 0 0 9.640625 31.802734 C 6.747749 28.383613 5.7731517 25.619725 5.375 24.320312 L 6.5898438 23.800781 A 1.50015 1.50015 0 0 0 7.3046875 21.683594 C 7.3046875 21.683594 6.1207076 19.399328 6.0292969 16.029297 C 9.398811 16.120737 11.683594 17.304687 11.683594 17.304688 A 1.50015 1.50015 0 0 0 13.798828 16.591797 L 14.324219 15.375 z"/></svg>