<svg xmlns="http://www.w3.org/2000/svg"  viewBox="0 0 48 48" width="50px" height="50px"><path d="M 28.154297 2.0703125 C 27.109278 2.0735924 26.047288 2.2047523 25.017578 2.4570312 C 20.898737 3.4661473 17 6.8956026 17 12.5 A 1.50015 1.50015 0 0 0 19.324219 13.753906 C 19.715675 13.496675 20.089872 13.429972 20.6875 13.5 C 21.285128 13.57003 22.053057 13.822641 22.882812 14.169922 C 24.542323 14.864483 26.3495 16 28.5 16 C 30.75 16 32.326016 15.418724 33.332031 14.748047 C 34.338047 14.07737 34.841797 13.169922 34.841797 13.169922 A 1.50015 1.50015 0 1 0 32.158203 11.830078 C 32.158203 11.830078 32.161903 11.922628 31.667969 12.251953 C 31.173984 12.581276 30.25 13 28.5 13 C 27.6505 13 25.907505 12.183533 24.041016 11.402344 C 23.107771 11.011749 22.117231 10.646097 21.037109 10.519531 C 20.806733 10.492531 20.556854 10.541569 20.316406 10.542969 C 21.011418 7.6121074 23.145206 6.0049615 25.732422 5.3710938 C 27.460786 4.9476444 29.246475 5.0851288 30.677734 5.5566406 C 28.315233 6.0584824 26.628906 7.2792969 26.628906 7.2792969 A 1.50015 1.50015 0 1 0 28.371094 9.7207031 C 28.371094 9.7207031 29.892666 8.67085 31.726562 8.4023438 C 33.558234 8.1341635 35.470636 8.3494643 37.261719 11.570312 A 1.50015 1.50015 0 0 0 37.320312 11.669922 C 39.004953 14.268228 39.263224 17.071862 38.271484 19.291016 C 38.052505 19.781012 37.747284 20.240004 37.400391 20.679688 C 37.334221 20.768027 37.252339 20.794299 37.1875 20.886719 A 1.50015 1.50015 0 0 0 37.095703 21.029297 C 35.988273 22.247251 34.330054 23.200395 31.945312 23.628906 C 31.967119 23.419233 32 23.21012 32 23 C 32 21.541667 31.521003 20.063179 30.496094 18.910156 C 29.471185 17.757133 27.875 17 26 17 C 24.125 17 22.528815 17.757133 21.503906 18.910156 C 21.315917 19.121644 21.15167 19.34687 21 19.578125 C 20.84833 19.34687 20.684083 19.121644 20.496094 18.910156 C 19.471185 17.757133 17.875 17 16 17 C 14.125 17 12.528815 17.757133 11.503906 18.910156 C 10.478997 20.063179 10 21.541667 10 23 C 10 23.745244 10.127613 24.495431 10.386719 25.205078 C 9.2153145 25.501541 8.2187403 26.105968 7.5039062 26.910156 C 6.4789975 28.063179 6 29.541667 6 31 C 6 32.12483 6.3837428 33.216692 6.984375 34.207031 C 5.5780551 34.435908 4.3260217 34.985276 3.5039062 35.910156 C 2.4789976 37.063179 2 38.541667 2 40 C 2 41.458333 2.4789976 42.936821 3.5039062 44.089844 C 4.5288151 45.242867 6.1250005 46 8 46 C 9.8749995 46 11.471185 45.242867 12.496094 44.089844 C 12.83099 43.713085 13.101609 43.299435 13.322266 42.865234 C 13.382458 42.940289 13.439406 43.017281 13.503906 43.089844 C 14.528815 44.242867 16.125 45 18 45 C 19.875 45 21.471185 44.242867 22.496094 43.089844 C 22.684083 42.878356 22.84833 42.65313 23 42.421875 C 23.15167 42.65313 23.315917 42.878356 23.503906 43.089844 C 24.528815 44.242867 26.125 45 28 45 C 29.875 45 31.471185 44.242867 32.496094 43.089844 C 33.521003 41.936821 34 40.458333 34 39 C 34 38.254756 33.872387 37.504569 33.613281 36.794922 C 34.784686 36.498459 35.78126 35.894032 36.496094 35.089844 C 37.521003 33.936821 38 32.458333 38 31 C 38 29.541667 37.521003 28.063179 36.496094 26.910156 C 36.119575 26.486572 35.664654 26.117175 35.148438 25.818359 C 37.08208 25.049718 38.627425 23.899384 39.746094 22.5 C 40.772461 21.100274 41.492569 20.887757 41.878906 20.925781 C 42.280399 20.965301 42.797329 21.351336 43.138672 22.058594 C 43.480015 22.765852 43.52149 23.650695 43.308594 24.144531 C 43.095698 24.638367 42.821429 25 41.5 25 A 1.50015 1.50015 0 1 0 41.5 28 C 43.678571 28 45.405005 26.861695 46.064453 25.332031 C 46.723901 23.802367 46.509125 22.140648 45.839844 20.753906 C 45.170562 19.367164 43.921242 18.111437 42.173828 17.939453 C 42.021958 17.924503 41.872961 18.045414 41.720703 18.048828 C 42.108989 15.507577 41.486395 12.79517 39.998047 10.357422 C 39.998047 10.357422 39.998047 10.355469 39.998047 10.355469 A 1.50015 1.50015 0 0 0 39.890625 10.125 C 39.883125 10.11145 39.872774 10.105277 39.865234 10.091797 C 39.853934 10.074187 39.849281 10.054689 39.837891 10.037109 A 1.50015 1.50015 0 0 0 39.613281 9.7617188 C 38.571969 8.0566517 37.299337 6.921834 35.974609 6.2304688 A 1.500613 1.500613 0 0 0 35.787109 5.7285156 C 34.27445 3.2074168 31.289354 2.0604727 28.154297 2.0703125 z M 16 20 C 17.124999 20 17.778816 20.367867 18.253906 20.902344 C 18.728997 21.436821 19 22.208333 19 23 C 19 23.791667 18.728997 24.563179 18.253906 25.097656 C 17.778816 25.632133 17.124999 26 16 26 C 15.755595 26 15.542771 25.974067 15.339844 25.941406 C 14.920402 25.675584 14.460614 25.454914 13.958984 25.296875 C 13.88747 25.231183 13.810346 25.169941 13.746094 25.097656 C 13.271003 24.563179 13 23.791667 13 23 C 13 22.208333 13.271003 21.436821 13.746094 20.902344 C 14.221184 20.367867 14.875001 20 16 20 z M 26 20 C 27.124999 20 27.778816 20.367867 28.253906 20.902344 C 28.728997 21.436821 29 22.208333 29 23 C 29 23.791667 28.728997 24.563179 28.253906 25.097656 C 27.778816 25.632133 27.124999 26 26 26 C 25.755595 26 25.542771 25.974067 25.339844 25.941406 C 24.920402 25.675584 24.460614 25.454914 23.958984 25.296875 C 23.88747 25.231183 23.810346 25.169941 23.746094 25.097656 C 23.271003 24.563179 23 23.791667 23 23 C 23 22.208333 23.271003 21.436821 23.746094 20.902344 C 24.221184 20.367867 24.875001 20 26 20 z M 12 28 C 12.244405 28 12.457229 28.025933 12.660156 28.058594 C 13.079598 28.324416 13.539386 28.545086 14.041016 28.703125 C 14.11253 28.768817 14.189654 28.830059 14.253906 28.902344 C 14.728997 29.436821 15 30.208333 15 31 C 15 31.791667 14.728997 32.563179 14.253906 33.097656 C 13.778816 33.632133 13.124999 34 12 34 C 10.875001 34 10.221184 33.632133 9.7460938 33.097656 C 9.2710032 32.563179 9 31.791667 9 31 C 9 30.208333 9.2710032 29.436821 9.7460938 28.902344 C 10.221184 28.367867 10.875001 28 12 28 z M 22 28 C 22.244405 28 22.457229 28.025933 22.660156 28.058594 C 23.079598 28.324416 23.539386 28.545086 24.041016 28.703125 C 24.11253 28.768817 24.189654 28.830059 24.253906 28.902344 C 24.728997 29.436821 25 30.208333 25 31 C 25 31.791667 24.728997 32.563179 24.253906 33.097656 C 23.778816 33.632133 23.124999 34 22 34 C 21.755595 34 21.542771 33.974067 21.339844 33.941406 C 20.920402 33.675584 20.460614 33.454914 19.958984 33.296875 C 19.88747 33.231183 19.810346 33.169941 19.746094 33.097656 C 19.271003 32.563179 19 31.791667 19 31 C 19 30.208333 19.271003 29.436821 19.746094 28.902344 C 20.221184 28.367867 20.875001 28 22 28 z M 32 28 C 33.124999 28 33.778816 28.367867 34.253906 28.902344 C 34.728997 29.436821 35 30.208333 35 31 C 35 31.791667 34.728997 32.563179 34.253906 33.097656 C 33.778816 33.632133 33.124999 34 32 34 C 31.755595 34 31.542771 33.974067 31.339844 33.941406 C 30.920402 33.675584 30.460614 33.454914 29.958984 33.296875 C 29.88747 33.231183 29.810346 33.169941 29.746094 33.097656 C 29.271003 32.563179 29 31.791667 29 31 C 29 30.208333 29.271003 29.436821 29.746094 28.902344 C 30.221184 28.367867 30.875001 28 32 28 z M 18 36 C 18.244405 36 18.457229 36.025933 18.660156 36.058594 C 19.079598 36.324416 19.539386 36.545086 20.041016 36.703125 C 20.11253 36.768817 20.189654 36.830059 20.253906 36.902344 C 20.728997 37.436821 21 38.208333 21 39 C 21 39.791667 20.728997 40.563179 20.253906 41.097656 C 19.778816 41.632133 19.124999 42 18 42 C 16.875001 42 16.221184 41.632133 15.746094 41.097656 C 15.271003 40.563179 15 39.791667 15 39 C 15 38.208333 15.271003 37.436821 15.746094 36.902344 C 16.221184 36.367867 16.875001 36 18 36 z M 28 36 C 28.244405 36 28.457229 36.025933 28.660156 36.058594 C 29.079598 36.324416 29.539386 36.545086 30.041016 36.703125 C 30.11253 36.768817 30.189654 36.830059 30.253906 36.902344 C 30.728997 37.436821 31 38.208333 31 39 C 31 39.791667 30.728997 40.563179 30.253906 41.097656 C 29.778816 41.632133 29.124999 42 28 42 C 26.875001 42 26.221184 41.632133 25.746094 41.097656 C 25.271003 40.563179 25 39.791667 25 39 C 25 38.208333 25.271003 37.436821 25.746094 36.902344 C 26.221184 36.367867 26.875001 36 28 36 z M 8 37 C 9.1249992 37 9.7788159 37.367867 10.253906 37.902344 C 10.728997 38.436821 11 39.208333 11 40 C 11 40.791667 10.728997 41.563179 10.253906 42.097656 C 9.778816 42.632133 9.1249992 43 8 43 C 6.8750008 43 6.2211843 42.632133 5.7460938 42.097656 C 5.2710032 41.563179 5 40.791667 5 40 C 5 39.208333 5.2710032 38.436821 5.7460938 37.902344 C 6.2211843 37.367867 6.8750008 37 8 37 z"/></svg>