<svg xmlns="http://www.w3.org/2000/svg"  viewBox="0 0 48 48" width="50px" height="50px"><path d="M 24.5 3 C 22.798602 3 21.276374 3.8728094 20.052734 5.1230469 C 19.088475 6.1082659 18.313983 7.4063416 17.648438 8.8300781 C 12.949967 7.7858926 8.1171875 9.0488281 8.1171875 9.0488281 A 1.50015 1.50015 0 0 0 7 10.5 C 7 13.653502 8.1773552 15.780632 9.2617188 17.169922 C 7.858442 18.782575 7 20.881281 7 23.175781 L 7 24.064453 C 7 25.959232 7.5873101 27.807735 8.6796875 29.355469 L 17.289062 41.552734 C 18.814366 43.713887 21.298486 45 23.943359 45 C 26.664909 45 29.21047 43.637785 30.720703 41.373047 L 39.458984 28.265625 C 40.462882 26.758583 41 24.987151 41 23.175781 C 41 21.165407 40.338237 19.306508 39.232422 17.791016 C 40.400668 16.429502 42 14.158965 42 10.5 A 1.50015 1.50015 0 0 0 40.808594 9.03125 C 40.808594 9.03125 35.820621 7.9729483 31.222656 8.8808594 C 30.477492 7.5143421 29.732925 6.1659225 28.8125 5.1777344 C 27.656553 3.9366848 26.203625 3 24.5 3 z M 24.5 6 C 25.109375 6 25.786633 6.3290027 26.617188 7.2207031 C 27.44774 8.1124036 28.324555 9.5069117 29.160156 11.171875 A 1.50015 1.50015 0 0 0 30.90625 11.943359 C 33.7812 11.133372 37.111811 11.545355 38.751953 11.791016 C 38.480691 13.536027 37.856714 14.721325 37.082031 15.671875 C 35.590385 14.622285 33.77778 14 31.824219 14 L 16.175781 14 C 14.501057 14 12.932832 14.461154 11.578125 15.251953 C 10.932591 14.387453 10.440612 13.278369 10.214844 11.746094 C 11.757447 11.453065 15.043118 10.933133 18.027344 11.923828 A 1.50015 1.50015 0 0 0 19.900391 11.037109 C 20.520923 9.4211689 21.350655 8.0876688 22.197266 7.2226562 C 23.043876 6.3576437 23.841398 6 24.5 6 z M 16.175781 17 L 31.824219 17 C 35.252414 17 38 19.747586 38 23.175781 C 38 24.394412 37.638993 25.586604 36.962891 26.601562 L 28.224609 39.708984 C 27.268843 41.142247 25.665809 42 23.943359 42 C 22.270232 42 20.704931 41.189113 19.740234 39.822266 L 11.130859 27.625 C 10.395237 26.582734 10 25.339674 10 24.064453 L 10 23.175781 C 10 19.747586 12.747586 17 16.175781 17 z M 15.5 19 A 1.5 1.5 0 0 0 15.5 22 A 1.5 1.5 0 0 0 15.5 19 z M 32.5 19 A 1.5 1.5 0 0 0 32.5 22 A 1.5 1.5 0 0 0 32.5 19 z M 20.5 21 A 1.5 1.5 0 0 0 20.5 24 A 1.5 1.5 0 0 0 20.5 21 z M 26.5 21 A 1.5 1.5 0 0 0 26.5 24 A 1.5 1.5 0 0 0 26.5 21 z M 17.5 26 A 1.5 1.5 0 0 0 17.5 29 A 1.5 1.5 0 0 0 17.5 26 z M 23.5 26 A 1.5 1.5 0 0 0 23.5 29 A 1.5 1.5 0 0 0 23.5 26 z M 30.5 26 A 1.5 1.5 0 0 0 30.5 29 A 1.5 1.5 0 0 0 30.5 26 z M 20.5 31 A 1.5 1.5 0 0 0 20.5 34 A 1.5 1.5 0 0 0 20.5 31 z M 27.5 31 A 1.5 1.5 0 0 0 27.5 34 A 1.5 1.5 0 0 0 27.5 31 z M 23.5 36 A 1.5 1.5 0 0 0 23.5 39 A 1.5 1.5 0 0 0 23.5 36 z"/></svg>