<svg xmlns="http://www.w3.org/2000/svg"  viewBox="0 0 48 48" width="50px" height="50px"><path d="M 28.550781 3 A 1.50015 1.50015 0 0 0 27.539062 3.3476562 C 27.539062 3.3476562 25.396833 5.1105178 24.447266 8.1347656 C 24.352141 8.0671498 24.248188 7.9786793 24.154297 7.9140625 L 24.152344 7.9140625 C 22.938538 7.0788484 21.576255 6.5067074 20.154297 6.21875 C 18.732339 5.9307926 17.251253 5.9263715 15.804688 6.2226562 C 12.926275 6.8128923 10.444363 8.5228665 8.8828125 10.996094 C 2.6704421 20.836985 2.967031 36.307336 3.0019531 38.132812 L 3.0019531 38.134766 C 3.0741831 41.880612 6.121686 44.925823 9.8671875 44.998047 C 10.029592 45.001147 10.306638 45.005859 10.679688 45.005859 C 14.445336 45.005859 28.050247 44.76982 37.003906 39.117188 C 39.477416 37.555458 41.18717 35.072623 41.777344 32.193359 L 41.775391 32.193359 C 42.369484 29.300788 41.757521 26.271591 40.085938 23.845703 C 40.020226 23.750246 39.93515 23.646882 39.867188 23.550781 C 42.889985 22.600837 44.652344 20.460937 44.652344 20.460938 A 1.50015 1.50015 0 0 0 44.791016 18.738281 C 44.791013 18.738281 42.879852 15.720811 38.902344 15.113281 C 39.989642 12.095645 40 9.5234375 40 9.5234375 A 1.50015 1.50015 0 0 0 38.613281 8.0234375 C 38.613281 8.0234375 35.941589 7.8178488 32.820312 8.6855469 C 32.077698 4.9859384 29.261719 3.2089844 29.261719 3.2089844 A 1.50015 1.50015 0 0 0 28.550781 3 z M 28.640625 6.6171875 C 29.292773 7.2965694 30 8.3847343 30 10.5 C 30 11.22359 29.812888 11.927978 29.587891 12.525391 C 28.657828 11.639844 27.83113 10.892832 27.048828 10.212891 C 27.239747 8.498126 28.004531 7.3724051 28.640625 6.6171875 z M 17.986328 9.0039062 C 19.571189 9.0060524 21.143404 9.4835862 22.453125 10.384766 C 24.433586 11.747745 26.675171 13.732806 30.470703 17.527344 L 30.472656 17.527344 L 30.488281 17.544922 C 34.266426 21.325187 36.255993 23.572358 37.615234 25.546875 C 38.815654 27.288987 39.265797 29.506415 38.837891 31.589844 C 38.406065 33.69658 37.198834 35.445807 35.402344 36.580078 C 27.626003 41.489445 14.240039 42.005859 10.679688 42.005859 C 10.328736 42.005859 10.073376 42.0029 9.9257812 42 C 7.7592309 41.958263 6.0417695 40.242326 6 38.076172 C 5.9689222 36.451649 6.0242922 21.144765 11.419922 12.597656 C 12.554043 10.801404 14.30148 9.5941975 16.40625 9.1621094 C 16.927967 9.0552518 17.458041 9.0031909 17.986328 9.0039062 z M 36.830078 11.058594 C 36.689477 12.143949 36.381667 13.582313 35.617188 15.214844 C 34.634467 15.435146 33.872184 15.778161 33.271484 16.097656 C 33.033351 15.857223 32.846472 15.659038 32.59375 15.40625 L 32.591797 15.40625 L 32.154297 14.966797 L 32.097656 14.966797 C 32.02124 14.891022 31.960144 14.834326 31.884766 14.759766 C 32.268512 14.044273 32.692603 13.061275 32.888672 11.804688 C 34.424055 11.274681 35.787353 11.107571 36.830078 11.058594 z M 18.351562 12.007812 C 17.154563 12.127812 15.572078 12.424969 14.830078 13.167969 C 13.726078 14.271969 13.726078 16.067875 14.830078 17.171875 C 15.381078 17.721875 16.105078 17.998047 16.830078 17.998047 C 17.555078 17.998047 18.280984 17.722875 18.833984 17.171875 C 19.574984 16.429875 19.872188 14.847391 19.992188 13.650391 C 20.037188 13.202391 19.879547 12.757453 19.560547 12.439453 C 19.241547 12.121453 18.794563 11.963813 18.351562 12.007812 z M 37.5 18 C 39.615266 18 40.703432 18.707227 41.382812 19.359375 C 40.630921 19.992668 39.512559 20.754085 37.810547 20.949219 C 37.145688 20.173147 36.396539 19.336812 35.507812 18.398438 C 36.097906 18.179422 36.790816 18 37.5 18 z M 26.351562 20.009766 C 25.155562 20.129766 23.572078 20.426922 22.830078 21.169922 C 22.294078 21.704922 22 22.415875 22 23.171875 C 22 23.927875 22.293125 24.636875 22.828125 25.171875 L 22.830078 25.173828 C 23.382078 25.722828 24.105078 25.996094 24.830078 25.996094 C 25.555078 25.996094 26.278031 25.721875 26.832031 25.171875 C 27.572031 24.429875 27.872188 22.847391 27.992188 21.650391 C 28.037188 21.202391 27.879547 20.759406 27.560547 20.441406 C 27.243547 20.123406 26.797562 19.965766 26.351562 20.009766 z M 15.351562 22.007812 C 14.154562 22.127813 12.572078 22.424969 11.830078 23.167969 C 10.726078 24.271969 10.726078 26.067875 11.830078 27.171875 C 12.381078 27.721875 13.105078 27.998047 13.830078 27.998047 C 14.555078 27.998047 15.280984 27.722875 15.833984 27.171875 C 16.574984 26.429875 16.872188 24.847391 16.992188 23.650391 C 17.037188 23.202391 16.879547 22.757453 16.560547 22.439453 C 16.242547 22.120453 15.795562 21.965813 15.351562 22.007812 z M 34.351562 28.007812 C 33.154562 28.127813 31.572078 28.424969 30.830078 29.167969 C 29.726078 30.271969 29.726078 32.067875 30.830078 33.171875 C 31.381078 33.721875 32.105078 33.998047 32.830078 33.998047 C 33.555078 33.998047 34.280984 33.722875 34.833984 33.171875 C 35.574984 32.429875 35.872187 30.847391 35.992188 29.650391 C 36.036187 29.202391 35.878547 28.758453 35.560547 28.439453 C 35.243547 28.121453 34.795562 27.963813 34.351562 28.007812 z M 24.351562 31.007812 C 23.154563 31.127813 21.572078 31.424969 20.830078 32.167969 C 19.726078 33.271969 19.726078 35.067875 20.830078 36.171875 C 21.381078 36.721875 22.105078 36.998047 22.830078 36.998047 C 23.555078 36.998047 24.280984 36.722875 24.833984 36.171875 C 25.574984 35.429875 25.872188 33.847391 25.992188 32.650391 C 26.037188 32.202391 25.879547 31.757453 25.560547 31.439453 C 25.241547 31.121453 24.797562 30.963813 24.351562 31.007812 z M 13.351562 33.007812 C 12.154563 33.127812 10.570125 33.426922 9.828125 34.169922 C 8.724125 35.273922 8.724125 37.067875 9.828125 38.171875 L 9.8300781 38.173828 C 10.382078 38.723828 11.104078 38.998047 11.830078 38.998047 C 12.555078 38.998047 13.281937 38.724828 13.835938 38.173828 C 14.576937 37.431828 14.874141 35.847391 14.994141 34.650391 C 15.039141 34.202391 14.8815 33.759406 14.5625 33.441406 C 14.2435 33.123406 13.794563 32.961813 13.351562 33.007812 z"/></svg>