<svg xmlns="http://www.w3.org/2000/svg"  viewBox="0 0 48 48" width="50px" height="50px"><path d="M 24.025391 0.99804688 A 1.50015 1.50015 0 0 0 24 1 A 1.50015 1.50015 0 0 0 23.628906 1.0566406 C 21.064091 1.1996135 18.38774 2.7854927 16.421875 5.9609375 C 14.840153 8.5158792 13.684596 12.09316 13.226562 16.859375 C 12.375255 16.067265 11.287549 15.615678 10.246094 15.822266 C 8.9064819 16.087997 7.6595196 17.227611 7.4589844 18.808594 C 6.8378745 23.698898 7.4929671 30.475389 9.9609375 36.267578 C 12.428908 42.059767 17.010265 47 23.917969 47 A 1.50015 1.50015 0 0 0 24.212891 46.974609 A 1.50015 1.50015 0 0 0 24.5 47 C 31.223042 47 35.777626 42.062466 38.296875 36.279297 C 40.816124 30.496128 41.582927 23.721201 40.958984 18.808594 C 40.758449 17.227611 39.51344 16.087997 38.173828 15.822266 C 36.974065 15.584275 35.650494 16.120853 34.800781 17.205078 C 34.383478 11.920314 33.225113 8.134251 31.5625 5.5605469 C 29.600562 2.5234911 26.910425 1.2147736 24.472656 1.0625 C 24.471256 1.0624156 24.47005 1.0606269 24.46875 1.0605469 A 1.50015 1.50015 0 0 0 24.025391 0.99804688 z M 25.53125 4.3964844 C 26.707825 4.7570747 27.912631 5.4397046 29.042969 7.1894531 C 29.36767 7.692087 29.666171 8.334701 29.958984 9 L 25.513672 9 C 25.520772 7.5133626 25.52858 4.9033071 25.53125 4.3964844 z M 22.53125 4.4609375 C 22.528515 4.9803841 22.520642 7.5321639 22.513672 9 L 18.25 9 C 18.487058 8.4957198 18.715693 7.9541335 18.972656 7.5390625 C 20.129684 5.6701257 21.363977 4.8848847 22.53125 4.4609375 z M 17.162109 12 L 22.5 12 C 22.4928 13.669107 22.491105 14.048964 22.484375 16 L 16.367188 16 C 16.562461 14.501214 16.832664 13.180553 17.162109 12 z M 25.5 12 L 30.964844 12 C 31.262485 13.169997 31.508764 14.492742 31.683594 16 L 25.484375 16 C 25.491075 14.049514 25.49287 13.667996 25.5 12 z M 10.828125 18.765625 C 11.04685 18.722235 11.202403 18.730495 11.363281 19.007812 C 11.363281 19.007812 11.365234 19.007812 11.365234 19.007812 L 22.583984 39.041016 A 1.50015 1.50015 0 0 0 23.75 39.996094 A 1.50015 1.50015 0 0 0 23.898438 40.013672 A 1.50015 1.50015 0 0 0 24.003906 40.015625 A 1.50015 1.50015 0 0 0 24.123047 40.011719 A 1.50015 1.50015 0 0 0 25.404297 39.070312 L 37.050781 19.011719 A 1.50015 1.50015 0 0 0 37.052734 19.007812 C 37.214138 18.728012 37.370455 18.722106 37.589844 18.765625 C 37.809232 18.809145 37.941957 18.868483 37.982422 19.1875 C 38.520479 23.423893 37.803626 29.899497 35.546875 35.080078 C 33.290077 40.260652 29.776958 44 24.5 44 A 1.50015 1.50015 0 0 0 24.205078 44.025391 A 1.50015 1.50015 0 0 0 23.917969 44 C 18.407672 44 14.924233 40.263358 12.720703 35.091797 C 10.517174 29.920236 9.8946566 23.446195 10.435547 19.1875 C 10.476017 18.868483 10.608737 18.809144 10.828125 18.765625 z M 16.125 19 L 22.474609 19 C 22.470809 20.453188 22.472503 21.606464 22.470703 23 L 17.5 23 A 1.50015 1.50015 0 0 0 17.070312 23.056641 L 16.015625 21.173828 C 16.020929 20.392192 16.086117 19.719827 16.125 19 z M 25.474609 19 L 31.882812 19 C 31.922805 19.832232 32 20.579426 32 21.5 A 1.50015 1.50015 0 0 0 32.013672 21.712891 L 31.265625 23 L 25.470703 23 C 25.472503 21.605703 25.470838 20.454538 25.474609 19 z M 18.71875 26 L 22.46875 26 C 22.468852 27.127775 22.462244 28.55014 22.464844 29.507812 C 22.468444 30.836326 22.476598 31.8699 22.486328 32.726562 L 18.71875 26 z M 25.46875 26 L 29.523438 26 L 25.486328 32.951172 C 25.475428 32.093385 25.468734 30.93043 25.464844 29.498047 C 25.462244 28.544977 25.46885 27.124198 25.46875 26 z"/></svg>