<svg xmlns="http://www.w3.org/2000/svg"  viewBox="0 0 48 48" width="50px" height="50px"><path d="M 33.484375 4.9824219 A 1.50015 1.50015 0 0 0 32.251953 7.3320312 C 32.251953 7.3320312 33.027062 8.5147386 33.126953 10.212891 C 33.226843 11.911042 32.788018 14.022789 29.628906 16.279297 A 1.50015 1.50015 0 0 0 29.511719 16.371094 A 1.50015 1.50015 0 0 0 29.402344 16.474609 A 1.50015 1.50015 0 0 0 28.988281 17.400391 A 1.50015 1.50015 0 0 0 28.986328 17.414062 A 1.50015 1.50015 0 0 0 28.986328 17.416016 A 1.50015 1.50015 0 0 0 28.984375 17.564453 A 1.50015 1.50015 0 0 0 29.066406 18.005859 A 1.50015 1.50015 0 0 0 29.123047 18.144531 A 1.50015 1.50015 0 0 0 29.193359 18.277344 A 1.50015 1.50015 0 0 0 29.275391 18.402344 A 1.50015 1.50015 0 0 0 29.371094 18.519531 A 1.50015 1.50015 0 0 0 29.476562 18.625 A 1.50015 1.50015 0 0 0 29.716797 18.802734 A 1.50015 1.50015 0 0 0 29.849609 18.873047 A 1.50015 1.50015 0 0 0 29.988281 18.929688 A 1.50015 1.50015 0 0 0 31.371094 18.720703 A 1.50015 1.50015 0 0 0 31.488281 18.628906 C 35.235202 15.35035 37.569037 15.342985 39.052734 15.806641 C 40.536432 16.270296 41.251953 17.332031 41.251953 17.332031 A 1.50015 1.50015 0 1 0 43.748047 15.667969 C 43.748047 15.667969 42.463568 13.729704 39.947266 12.943359 C 39.486043 12.799227 38.947107 12.755164 38.412109 12.708984 L 40.560547 10.560547 A 1.50015 1.50015 0 1 0 38.439453 8.4394531 L 36.070312 10.808594 C 36.079012 10.554515 36.137197 10.277572 36.123047 10.037109 C 35.972938 7.4852614 34.748047 5.6679686 34.748047 5.6679688 A 1.50015 1.50015 0 0 0 33.484375 4.9824219 z M 12.476562 9.9785156 A 1.50015 1.50015 0 0 0 11 11.5 C 11 11.5 11.01713 11.733026 10.808594 12.462891 C 10.600061 13.192755 10.166615 14.295976 9.2519531 15.667969 A 1.50015 1.50015 0 0 0 8.9902344 16.541016 C 6.7634232 19.106953 5.2629433 22.328912 5.0332031 25.962891 C 4.4031478 35.92832 13.009327 44.136748 23.072266 42.869141 C 24.160286 42.732063 25.127254 42.305778 26.132812 41.966797 A 1.50015 1.50015 0 0 0 27.169922 41.841797 C 27.169922 41.841797 28.75 41 32.5 41 A 1.50015 1.50015 0 0 0 32.568359 38.001953 C 34.744343 35.712256 36.30444 32.819974 36.808594 29.501953 C 37.060809 27.843911 37.058485 26.217049 36.830078 24.660156 A 1.50015 1.50015 0 0 0 36.828125 24.658203 C 36.785205 24.366548 36.736345 24.076603 36.677734 23.789062 A 1.50015 1.50015 0 0 0 36.675781 23.789062 C 36.465919 22.760126 36.781015 21.667794 37.509766 20.853516 A 1.50015 1.50015 0 1 0 35.273438 18.853516 C 33.940188 20.343238 33.328191 22.387609 33.736328 24.388672 C 33.783718 24.621131 33.826248 24.857358 33.861328 25.095703 C 34.046655 26.360245 34.051434 27.685497 33.84375 29.050781 C 32.964406 34.838767 28.509958 39.160249 22.697266 39.892578 C 14.422204 40.934971 7.511399 34.312914 8.0273438 26.152344 C 8.4331387 19.733569 13.198857 14.742891 19.591797 14.074219 C 21.339377 13.891972 23.01295 14.052839 24.568359 14.496094 C 26.851363 15.146863 29.248102 14.400334 30.871094 12.777344 A 1.50015 1.50015 0 1 0 28.75 10.65625 C 27.846992 11.559258 26.545621 11.940559 25.390625 11.611328 C 23.472034 11.064579 21.40767 10.86809 19.28125 11.089844 A 1.50015 1.50015 0 0 0 19.279297 11.089844 C 17.313211 11.295492 15.469087 11.853301 13.794922 12.6875 C 13.88525 12.160962 14 11.5 14 11.5 A 1.50015 1.50015 0 0 0 12.476562 9.9785156 z M 15.533203 16.994141 A 1.50015 1.50015 0 0 0 15.025391 19.923828 L 16.658203 20.466797 C 16.867216 20.536383 17 20.722104 17 20.941406 L 17 22.5 A 1.50015 1.50015 0 1 0 20 22.5 L 20 20.941406 C 20 19.440709 19.030456 18.095508 17.605469 17.621094 L 15.974609 17.076172 A 1.50015 1.50015 0 0 0 15.533203 16.994141 z M 27.611328 24.453125 C 27.060949 24.476965 26.515825 24.630032 26.025391 24.910156 L 24.707031 25.664062 A 1.50015 1.50015 0 1 0 26.195312 28.267578 L 27.513672 27.515625 C 27.656802 27.433875 27.822054 27.426161 27.96875 27.494141 A 1.50015 1.50015 0 0 0 27.970703 27.496094 L 29.919922 28.396484 A 1.50015 1.50015 0 1 0 31.177734 25.673828 L 29.230469 24.773438 C 28.716817 24.535425 28.161707 24.429283 27.611328 24.453125 z M 11.533203 25.994141 A 1.50015 1.50015 0 0 0 11.025391 28.923828 L 11.974609 29.238281 C 12.591759 29.44383 13 30.010923 13 30.662109 L 13 31.5 A 1.50015 1.50015 0 1 0 16 31.5 L 16 30.662109 C 16 28.731295 14.756678 27.003029 12.923828 26.392578 L 11.974609 26.076172 A 1.50015 1.50015 0 0 0 11.533203 25.994141 z M 24.167969 32.568359 C 23.099386 32.587819 22.058274 32.988041 21.246094 33.714844 L 20.5 34.382812 A 1.50015 1.50015 0 1 0 22.5 36.617188 L 23.246094 35.949219 A 1.50015 1.50015 0 0 0 23.248047 35.949219 C 23.61114 35.624293 24.103407 35.49624 24.578125 35.603516 L 26.169922 35.962891 A 1.50015 1.50015 0 1 0 26.830078 33.037109 L 25.238281 32.677734 C 24.883461 32.597553 24.524163 32.561873 24.167969 32.568359 z"/></svg>