<svg xmlns="http://www.w3.org/2000/svg"  viewBox="0 0 48 48" width="50px" height="50px"><path d="M 29 4 C 26.549985 4 24.58311 5.831148 24.169922 8.1699219 C 21.279278 8.5937964 19 10.997963 19 14 C 19 15.35464 19.462645 16.594838 20.234375 17.587891 L 6.2558594 31.568359 C 3.7340982 34.090121 3.7340982 38.222379 6.2558594 40.744141 C 8.7776205 43.265902 12.909879 43.265902 15.431641 40.744141 L 30.015625 26.160156 C 30.884633 26.691085 31.899909 27 33 27 C 36.104318 27 38.599345 24.573831 38.888672 21.541016 C 40.69217 20.788185 42 19.068049 42 17 C 42 15.973172 41.602158 15.080438 41.068359 14.289062 C 41.609602 13.29596 42 12.206241 42 11 C 42 7.1515984 38.848402 4 35 4 C 33.793217 4 32.703817 4.3904372 31.710938 4.9316406 C 30.919563 4.397842 30.026828 4 29 4 z M 29 7 C 29.595304 7 30.105453 7.2548942 30.482422 7.6777344 A 1.50015 1.50015 0 0 0 32.53125 7.859375 C 33.216588 7.3197443 34.061016 7 35 7 C 37.227598 7 39 8.7724016 39 11 C 39 11.937716 38.679934 12.78382 38.140625 13.46875 A 1.50015 1.50015 0 0 0 38.322266 15.517578 C 38.745106 15.894547 39 16.404696 39 17 C 39 18.031421 38.246943 18.839203 37.253906 18.966797 A 1.50015 1.50015 0 0 0 35.955078 20.636719 C 35.984624 20.879798 36 20.989471 36 21 C 36 22.674135 34.674135 24 33 24 C 31.362408 24 30.070942 22.727975 30.013672 21.103516 A 1.50015 1.50015 0 0 0 29.011719 19.742188 C 27.984115 19.381664 27.126529 18.658739 26.59375 17.726562 A 1.50015 1.50015 0 0 0 25.199219 16.974609 C 24.925614 16.991361 24.87 17 25 17 C 23.325865 17 22 15.674135 22 14 C 22 12.325865 23.325865 11 25 11 C 25.01632 11 25.130715 11.015122 25.369141 11.044922 A 1.50015 1.50015 0 0 0 27.037109 9.3203125 C 27.010064 9.1505823 27 9.0478947 27 9 C 27 7.877657 27.877657 7 29 7 z M 22.613281 19.421875 C 23.223052 19.685805 23.880808 19.859983 24.572266 19.912109 C 24.628446 19.987329 24.69306 20.053981 24.751953 20.126953 L 18.939453 25.939453 A 1.50015 1.50015 0 1 0 21.060547 28.060547 L 27.060547 22.060547 A 1.50015 1.50015 0 0 0 27.080078 22.039062 C 27.131528 22.066053 27.178318 22.09917 27.230469 22.125 C 27.36508 22.802155 27.610057 23.441783 27.943359 24.021484 L 13.326172 38.638672 C 11.941933 40.022911 9.745567 40.022911 8.3613281 38.638672 C 6.9770893 37.254433 6.9770893 35.058067 8.3613281 33.673828 L 22.613281 19.421875 z"/></svg>