<svg xmlns="http://www.w3.org/2000/svg"  viewBox="0 0 48 48" width="50px" height="50px"><path d="M 23.976562 2.9785156 A 1.50015 1.50015 0 0 0 22.5 4.5 L 22.5 6 A 1.50015 1.50015 0 0 0 22.525391 6.2988281 C 17.192177 7.0519354 13 11.464975 13 17 C 13 17.367992 12.812955 17.711382 12.470703 17.933594 C 8.7068138 20.375521 6 24.698278 6 29.5 C 6 38.042657 12.957343 45 21.5 45 L 26.5 45 C 35.042657 45 42 38.042657 42 29.5 C 42 24.698278 39.293186 20.375521 35.529297 17.933594 C 35.187045 17.711382 35 17.367992 35 17 C 35 11.46431 30.806802 7.0511007 25.472656 6.2988281 A 1.50015 1.50015 0 0 0 25.5 6 L 25.5 4.5 A 1.50015 1.50015 0 0 0 23.976562 2.9785156 z M 24 9 C 24.692863 9 25.359967 9.0961795 26 9.2597656 L 26 15.349609 C 26 18.385339 27.08653 21.322222 29.0625 23.626953 L 29.222656 23.814453 C 31.014957 25.905913 32 28.567913 32 31.322266 C 32 33.726789 31.249039 36.070522 29.851562 38.027344 L 27.279297 41.628906 A 1.50015 1.50015 0 0 0 27.087891 41.970703 C 26.891716 41.979779 26.698483 42 26.5 42 L 21.5 42 C 21.302175 42 21.109595 41.979719 20.914062 41.970703 A 1.50015 1.50015 0 0 0 20.720703 41.628906 L 18.148438 38.027344 C 16.750961 36.070522 16 33.726789 16 31.322266 C 16 28.567913 16.985043 25.905913 18.777344 23.814453 L 18.9375 23.626953 L 18.9375 23.625 C 20.912765 21.320464 22 18.384769 22 15.349609 L 22 9.2597656 C 22.640033 9.0961795 23.307137 9 24 9 z M 19 10.748047 L 19 15.349609 C 19 17.66988 18.170186 19.91256 16.660156 21.673828 L 16.498047 21.863281 C 14.241053 24.497625 13 27.853188 13 31.322266 C 13 34.351743 13.946508 37.306306 15.707031 39.771484 L 16.583984 40.998047 C 12.118757 39.094159 9 34.673883 9 29.5 C 9 25.849722 11.159405 22.359292 14.103516 20.449219 C 15.255264 19.70143 16 18.414008 16 17 C 16 14.461182 17.170221 12.210893 19 10.748047 z M 29 10.748047 C 30.829779 12.210893 32 14.461182 32 17 C 32 18.414008 32.744736 19.70143 33.896484 20.449219 C 36.840595 22.359292 39 25.849722 39 29.5 C 39 34.673883 35.881243 39.094159 31.416016 40.998047 L 32.292969 39.771484 C 34.053492 37.306306 35 34.351743 35 31.322266 C 35 27.853188 33.758947 24.497625 31.501953 21.863281 L 31.501953 21.861328 L 31.339844 21.673828 C 29.829814 19.912607 29 17.66988 29 15.349609 L 29 10.748047 z"/></svg>