<svg xmlns="http://www.w3.org/2000/svg"  viewBox="0 0 48 48" width="50px" height="50px"><path d="M 28.5 4 C 25.905489 4 23.6253 5.3397657 22.279297 7.3574219 C 20.710538 6.4939746 18.910803 6 17 6 C 10.942442 6 6 10.942442 6 17 C 6 17.339265 6.0233308 17.670899 6.0546875 18 L 5.5 18 A 1.50015 1.50015 0 0 0 4 19.5 L 4 39.5 C 4 41.967501 6.0324991 44 8.5 44 L 39.5 44 C 41.967501 44 44 41.967501 44 39.5 L 44 19.5 A 1.50015 1.50015 0 0 0 42.5 18 L 41.560547 18 C 41.839758 17.21629 42 16.376199 42 15.5 C 42 11.585101 38.928 8.4402977 35.091797 8.1210938 C 33.845512 5.7009875 31.395896 4 28.5 4 z M 28.5 7 C 30.476671 7 32.127795 8.2619027 32.742188 10.013672 A 1.50015 1.50015 0 0 0 34.236328 11.015625 C 34.394926 11.007278 34.478828 11 34.5 11 C 37.003499 11 39 12.996501 39 15.5 C 39 16.434944 38.70727 17.283638 38.220703 18 L 27.945312 18 C 27.976744 17.67128 28 17.338985 28 17 C 28 13.928605 26.72595 11.147578 24.683594 9.1484375 C 25.471999 7.865245 26.870815 7 28.5 7 z M 17 9 C 21.436442 9 25 12.563558 25 17 C 25 17.337845 24.971387 17.670663 24.927734 18 L 9.0722656 18 C 9.0286467 17.670494 9 17.338386 9 17 C 9 12.563558 12.563558 9 17 9 z M 7 21 L 41 21 L 41 26 L 7 26 L 7 21 z M 7 29 L 41 29 L 41 34 L 7 34 L 7 29 z M 7 37 L 41 37 L 41 39.5 C 41 40.346499 40.346499 41 39.5 41 L 8.5 41 C 7.6535009 41 7 40.346499 7 39.5 L 7 37 z"/></svg>