<svg xmlns="http://www.w3.org/2000/svg"  viewBox="0 0 48 48" width="50px" height="50px"><path d="M 26.5 2 A 1.50015 1.50015 0 1 0 26.5 5 C 26.5 5 27.683852 5.036007 28.65625 5.5664062 C 29.492957 6.0227919 30.204826 6.5664929 30.121094 8.3125 C 26.027937 9.3726514 22.982422 13.094853 22.982422 17.509766 L 22.982422 18.818359 C 21.899375 17.879379 20.66689 17.159113 19.300781 16.931641 A 1.50015 1.50015 0 0 0 17.642578 17.900391 C 17.642578 17.900391 17.207001 19.065176 16.830078 20.0625 C 15.964812 18.124227 14.789994 16.68642 13.601562 15.789062 C 11.665926 14.327507 9.7304687 14.017578 9.7304688 14.017578 A 1.50015 1.50015 0 0 0 9.4316406 14.001953 A 1.50015 1.50015 0 0 0 8.1582031 16.169922 C 9.2436315 18.341501 8.0543751 21.896 7.1386719 23.867188 C 6.1661824 25.807858 5 27.808966 5 30.5 C 5 33.701235 6.4230667 36.304976 8.453125 38.287109 C 7.5685139 39.085918 7 40.215682 7 41.5 C 7 43.967501 9.0324991 46 11.5 46 L 16 46 C 30.341657 46 42 34.341657 42 20 L 42 17.509766 C 42 12.470559 38.032639 8.33097 33.066406 8.0292969 C 32.942513 5.4917199 31.558907 3.7327703 30.09375 2.9335938 C 28.316148 1.9639927 26.5 2 26.5 2 z M 32.490234 11 C 36.102472 11 39 13.897528 39 17.509766 L 39 20 C 39 32.720343 28.720343 43 16 43 L 11.5 43 C 10.653501 43 10 42.346499 10 41.5 C 10 40.653501 10.653501 40 11.5 40 L 11.5 39.917969 A 1.5003255 1.5003255 0 0 0 11.550781 39.900391 C 15.662155 39.653386 19.161859 37.978525 21.619141 35.255859 C 24.276921 32.311041 25.770752 28.280541 25.980469 23.820312 L 25.982422 23.785156 L 25.982422 23.724609 A 1.5008464 1.5008464 0 0 0 25.982422 23.277344 L 25.982422 17.509766 C 25.982375 13.897532 28.877996 11 32.490234 11 z M 11.619141 18.085938 C 11.685581 18.132818 11.727372 18.132584 11.794922 18.183594 C 13.158284 19.213038 14.64322 21.004324 15.007812 24.648438 A 1.50015 1.50015 0 0 0 16.658203 25.992188 C 17.655327 25.886225 17.656062 25.498371 17.773438 25.347656 C 17.890812 25.196942 17.955213 25.082517 18.023438 24.960938 C 18.159885 24.717776 18.283811 24.454562 18.421875 24.146484 C 18.698002 23.53033 19.011614 22.756726 19.3125 21.986328 C 19.605151 21.237017 19.661934 21.064315 19.873047 20.496094 C 20.348859 20.739815 20.789051 20.843728 21.257812 21.28125 C 22.018142 21.990909 22.645349 22.902372 22.978516 23.744141 C 22.784365 27.591961 21.495923 30.913425 19.390625 33.246094 C 17.448136 35.39837 14.820582 36.746323 11.476562 36.957031 C 9.3390122 35.30233 8 33.282839 8 30.5 C 8 28.674112 8.8179157 27.217684 9.8417969 25.169922 A 1.50015 1.50015 0 0 0 9.8613281 25.132812 C 10.589494 23.565328 11.732443 20.889786 11.619141 18.085938 z"/></svg>