<svg xmlns="http://www.w3.org/2000/svg"  viewBox="0 0 48 48" width="50px" height="50px"><path d="M 39.460938 2.9804688 A 1.50015 1.50015 0 0 0 38.121094 5.0917969 C 39.481864 8.2669266 38.975412 9.8522556 38.359375 10.820312 C 38.301515 10.911233 38.286865 10.861652 38.226562 10.941406 C 34.40067 10.763259 33.423828 7.5253906 33.423828 7.5253906 A 1.5008465 1.5008465 0 1 0 30.576172 8.4746094 C 30.576172 8.4746094 31.360512 10.235643 33.03125 11.783203 C 31.262436 11.96412 29.564417 12.681877 28.330078 14.085938 C 26.333063 16.356949 24.684608 17.501058 22.597656 18.230469 C 21.514588 18.609012 20.276654 18.866117 18.824219 19.060547 C 18.694419 18.693486 18.565826 18.341185 18.433594 17.935547 A 1.5 1.5 0 0 0 18 15 A 1.5 1.5 0 0 0 17.580078 15.060547 C 17.536417 14.901102 17.492929 14.777233 17.449219 14.613281 C 16.830577 12.294141 16.196828 10.324089 15.263672 8.7753906 C 14.330516 7.2266922 12.838878 6 11 6 C 9.4419204 6 7.9293449 6.7926476 6.9824219 8.1347656 C 6.2526183 9.1691502 5.8163619 10.48366 5.6523438 12.041016 A 1.5 1.5 0 0 0 5.6015625 14.945312 C 5.6245563 16.005517 5.6707254 17.03503 5.7421875 18.023438 A 1.5 1.5 0 0 0 6 21 A 1.5 1.5 0 0 0 6.03125 20.998047 C 6.1250175 21.72085 6.2309085 22.426037 6.3515625 23.107422 A 1.5005394 1.5005394 0 0 0 6.3574219 23.128906 C 4.7221676 25.125416 4 27.696282 4 30.376953 C 4 36.126501 8.8121651 40.076193 14.298828 40.779297 C 16.576543 41.070315 19.529304 41.195764 22.685547 40.75 A 1.50015 1.50015 0 0 0 22.779297 40.732422 C 23.780826 41.515269 25.020329 42 26.371094 42 C 27.257263 42 28.103934 41.788897 28.871094 41.431641 C 29.769377 41.806839 30.756505 42 31.75 42 C 32.742977 42 33.727478 41.807053 34.625 41.435547 C 35.393963 41.793477 36.244051 42 37.130859 42 C 38.995891 42 40.614556 41.029313 41.587891 39.638672 C 42.561225 38.24803 43.001953 36.488819 43.001953 34.621094 L 43.001953 34.566406 C 43.001953 32.468974 41.805732 30.829794 40.414062 29.824219 C 39.981993 29.512019 39.526279 29.255972 39.066406 29.021484 C 40.136728 26.659925 40.912469 23.88927 41.298828 20.648438 C 41.43646 19.49427 41.268068 18.356237 40.964844 17.259766 C 41.703964 17.668666 42.52216 18 43.5 18 A 1.50015 1.50015 0 1 0 43.5 15 C 42.666667 15 41.739047 14.351879 41.003906 13.511719 C 40.697998 13.162109 40.710178 13.102126 40.519531 12.8125 C 40.642916 12.654926 40.7764 12.609182 40.890625 12.429688 C 42.024588 10.647744 42.518137 7.7330734 40.878906 3.9082031 A 1.50015 1.50015 0 0 0 39.460938 2.9804688 z M 11 9 C 11.646122 9 12.050265 9.2549636 12.693359 10.322266 C 12.810883 10.517313 12.926859 10.76097 13.042969 11.001953 A 1.5 1.5 0 0 0 13 11 A 1.5 1.5 0 0 0 13 14 A 1.5 1.5 0 0 0 14.027344 13.589844 C 14.203771 14.15229 14.379385 14.744195 14.550781 15.386719 C 14.953932 16.898869 15.356775 18.179185 15.755859 19.363281 C 15.230429 19.403735 14.726815 19.445529 14.150391 19.482422 C 12.186904 19.608348 10.479144 20.1141 9.0507812 20.90625 C 8.9522409 20.185302 8.8695961 19.440766 8.8007812 18.667969 A 1.5 1.5 0 0 0 9.4707031 18.828125 A 1.5 1.5 0 0 0 9.4707031 15.828125 A 1.5 1.5 0 0 0 8.6289062 16.085938 C 8.5941485 15.247857 8.5742188 14.384659 8.5742188 13.490234 C 8.5742188 11.709342 8.9710168 10.518913 9.4335938 9.8632812 C 9.8961707 9.2076493 10.34608 9 11 9 z M 34.125 14.679688 C 34.573271 14.70841 35.02396 14.800205 35.458984 14.958984 C 37.589775 15.737369 38.608615 17.8753 38.320312 20.292969 C 37.957595 23.335492 37.235091 25.845541 36.273438 27.923828 C 36.203359 27.902315 36.12742 27.876178 36.058594 27.855469 C 35.227337 27.605334 34.931641 27.118633 34.931641 26.785156 L 34.931641 21.724609 A 1.50015 1.50015 0 0 0 33.388672 20.224609 A 1.50015 1.50015 0 0 0 32.912109 20.316406 L 27.941406 22.152344 A 1.50015 1.50015 0 0 0 26.962891 23.613281 L 27.083984 27.09375 C 27.093284 27.435833 26.830599 27.913789 26.046875 28.162109 A 1.50015 1.50015 0 0 0 26.046875 28.164062 C 24.78184 28.56502 23.369586 29.045716 22.158203 30.029297 C 20.946821 31.012877 20.037109 32.624703 20.037109 34.621094 C 20.037109 35.801521 20.265299 36.927942 20.689453 37.9375 C 18.452215 38.115078 16.349146 38.017991 14.679688 37.804688 C 10.318351 37.245795 7 34.475405 7 30.376953 C 7 28.185566 7.5888668 26.305088 8.7382812 24.947266 C 9.8876958 23.589444 11.620987 22.65106 14.341797 22.476562 C 18.133732 22.233871 21.007593 21.96434 23.587891 21.0625 C 26.168188 20.16066 28.359046 18.596347 30.582031 16.068359 C 31.450932 15.079985 32.780187 14.593519 34.125 14.679688 z M 31.931641 23.876953 L 31.931641 26.785156 C 31.931641 28.689679 33.394569 30.186651 35.195312 30.728516 C 36.429682 31.099923 37.758169 31.606935 38.65625 32.255859 C 39.554331 32.904784 40.001953 33.510839 40.001953 34.566406 L 40.001953 34.621094 C 40.001953 36.000368 39.646775 37.18086 39.130859 37.917969 C 38.686233 38.553223 38.191672 38.881915 37.478516 38.964844 C 37.538564 38.858669 37.608304 38.76233 37.662109 38.650391 A 1.50015 1.50015 0 1 0 34.958984 37.351562 C 34.432727 38.446413 33.357843 39 31.75 39 C 30.054697 39 28.955597 38.412941 28.460938 37.167969 A 1.50015 1.50015 0 0 0 27.068359 36.203125 A 1.50015 1.50015 0 0 0 25.673828 38.275391 C 25.770735 38.519289 25.894564 38.74119 26.019531 38.960938 C 25.259362 38.869336 24.612294 38.499058 24.076172 37.835938 C 23.457724 37.070988 23.037109 35.929226 23.037109 34.621094 C 23.037109 33.410484 23.389711 32.894545 24.048828 32.359375 C 24.707946 31.824205 25.77616 31.39648 26.953125 31.023438 C 28.757401 30.451757 30.134714 28.885589 30.083984 27.013672 A 1.50015 1.50015 0 0 0 30.083984 27.001953 L 29.998047 24.591797 L 31.931641 23.876953 z"/></svg>