<svg xmlns="http://www.w3.org/2000/svg"  viewBox="0 0 48 48" width="50px" height="50px"><path d="M 24 4.5273438 C 23.17014 4.5273645 22.340373 4.7706138 21.640625 5.2597656 C 19.546273 6.7227248 17.896864 8.906891 16.832031 11.503906 C 16.791776 11.483857 16.753355 11.461107 16.712891 11.441406 L 16.710938 11.441406 C 16.229233 11.20703 15.71951 11.080842 15.210938 11.054688 C 13.683357 10.976128 12.167372 11.793578 11.460938 13.246094 C 10.567422 15.079258 10.035197 17.127511 9.9609375 19.291016 C 9.9034609 20.966814 10.136203 22.586777 10.59375 24.111328 C 10.550239 24.164 10.500459 24.20834 10.458984 24.263672 C 9.1640967 25.991187 9.3043903 28.208551 10.136719 29.998047 C 10.969048 31.787546 12.421104 33.37369 14.111328 34.640625 C 15.801552 35.907559 17.730506 36.855451 19.681641 37.152344 C 19.75888 37.164097 19.838166 37.166513 19.916016 37.175781 L 19.916016 42.5 A 1.50015 1.50015 0 0 0 21.416016 44 L 26.582031 44 A 1.50015 1.50015 0 0 0 28.082031 42.5 L 28.082031 37.083984 C 30.002925 36.874098 32.02832 36.037036 33.888672 34.642578 C 35.773572 33.22972 37.163396 31.492036 37.896484 29.681641 C 38.629573 27.871246 38.707858 25.824267 37.541016 24.267578 C 37.500401 24.213394 37.45077 24.17078 37.408203 24.119141 C 37.867348 22.592813 38.096801 20.968877 38.039062 19.291016 C 37.964762 17.126357 37.431557 15.076922 36.539062 13.244141 C 35.831775 11.792341 34.316322 10.974 32.789062 11.052734 C 32.279976 11.078984 31.769233 11.206331 31.287109 11.441406 C 31.248759 11.460081 31.211991 11.481013 31.173828 11.5 C 30.108233 8.9036859 28.453319 6.7228604 26.359375 5.2597656 C 25.659377 4.770961 24.82986 4.527323 24 4.5273438 z M 24 7.4707031 C 24.201987 7.4711042 24.404576 7.5545093 24.642578 7.7207031 C 26.311393 8.8871393 27.724486 10.78679 28.587891 13.138672 C 27.725353 13.815769 26.940592 14.584014 26.246094 15.429688 C 25.541526 15.067487 24.776375 14.863316 24.001953 14.863281 C 23.226485 14.863246 22.459976 15.066804 21.753906 15.429688 C 21.057938 14.582366 20.270912 13.813033 19.40625 13.134766 C 20.270123 10.782578 21.690194 8.8847169 23.359375 7.71875 C 23.596626 7.5529018 23.798013 7.470302 24 7.4707031 z M 15.03125 14.035156 C 15.152161 14.044561 15.27616 14.079101 15.398438 14.138672 C 17.008583 14.922377 18.396957 16.069557 19.503906 17.447266 C 18.319463 18.913171 17.366019 20.656166 16.685547 22.595703 C 16.306754 22.511036 15.929062 22.441816 15.556641 22.404297 C 14.784646 22.326525 14.009176 22.365317 13.277344 22.529297 C 13.042961 21.525315 12.921794 20.478853 12.958984 19.394531 C 13.018704 17.654679 13.444199 16.023012 14.158203 14.558594 C 14.333768 14.19761 14.668517 14.006943 15.03125 14.035156 z M 32.96875 14.035156 C 33.331055 14.007351 33.665584 14.196895 33.841797 14.558594 C 34.555302 16.023812 34.981315 17.653237 35.041016 19.392578 L 35.041016 19.394531 C 35.078345 20.479367 34.95531 21.525185 34.720703 22.529297 C 33.989625 22.365254 33.214531 22.328561 32.443359 22.40625 C 32.071549 22.443707 31.69457 22.513205 31.316406 22.597656 C 30.635758 20.657655 29.680499 18.913794 28.496094 17.447266 C 29.603029 16.069201 30.991417 14.922377 32.601562 14.138672 L 32.601562 14.136719 C 32.723439 14.077294 32.847982 14.044425 32.96875 14.035156 z M 24.001953 17.71875 C 24.447608 17.718745 24.892843 17.954685 25.363281 18.425781 C 26.67175 19.7357 27.768731 21.530728 28.503906 23.638672 C 27.843296 23.981923 27.189198 24.385231 26.556641 24.859375 C 25.554335 25.61067 24.699303 26.456724 24.001953 27.353516 C 23.304273 26.455823 22.446562 25.611343 21.443359 24.859375 C 20.810778 24.385213 20.158683 23.979977 19.498047 23.636719 C 20.233526 21.529746 21.330402 19.734776 22.638672 18.425781 C 23.110222 17.954705 23.556298 17.718755 24.001953 17.71875 z M 14.396484 25.373047 C 14.652597 25.353505 14.937904 25.35664 15.255859 25.388672 C 15.629261 25.426289 16.037298 25.521558 16.458984 25.644531 A 1.50015 1.50015 0 0 0 17.808594 26.169922 C 18.421327 26.460003 19.042224 26.808297 19.644531 27.259766 C 20.894991 28.197069 21.810605 29.312351 22.365234 30.347656 C 21.98204 31.524539 21.88751 32.767492 22.232422 33.892578 C 21.732561 34.247774 21.078947 34.329218 20.134766 34.185547 C 18.869866 33.993074 17.278568 33.26595 15.910156 32.240234 C 14.541743 31.214516 13.397012 29.890581 12.857422 28.730469 C 12.317832 27.570356 12.310112 26.795229 12.859375 26.0625 C 13.130031 25.701416 13.628146 25.431672 14.396484 25.373047 z M 33.603516 25.375 C 34.372183 25.434065 34.869969 25.705323 35.140625 26.066406 C 35.501501 26.547852 35.595001 27.371834 35.115234 28.556641 C 34.635466 29.741449 33.583424 31.122651 32.089844 32.242188 C 30.596265 33.361725 28.974947 33.983202 27.703125 34.111328 C 26.830731 34.199214 26.213463 34.065623 25.785156 33.824219 C 26.106384 32.716918 26.010589 31.501482 25.634766 30.347656 C 26.189395 29.312352 27.106962 28.197069 28.357422 27.259766 C 28.958146 26.809483 29.576625 26.463344 30.1875 26.173828 A 1.50015 1.50015 0 0 0 31.546875 25.642578 C 31.965573 25.521018 32.371071 25.428012 32.742188 25.390625 C 33.060143 25.358594 33.347293 25.355312 33.603516 25.375 z M 24.021484 36.269531 C 24.351617 36.484847 24.706942 36.657506 25.082031 36.789062 L 25.082031 41 L 22.916016 41 L 22.916016 36.839844 C 23.303846 36.692782 23.676904 36.51085 24.021484 36.269531 z"/></svg>