<svg xmlns="http://www.w3.org/2000/svg"  viewBox="0 0 48 48" width="50px" height="50px"><path d="M 38.242188 4.3242188 A 1.50015 1.50015 0 0 0 36.986328 5.0839844 C 35.62766 7.4843845 32.851322 9.8454035 30.279297 11.634766 A 1.50015 1.50015 0 0 0 30.160156 11.726562 C 28.062967 13.156393 26.302545 15.381048 24.599609 17.083984 C 22.914852 18.768742 21.256594 20.294602 19.347656 21.451172 C 17.508564 22.565717 15.475062 23.446664 13.378906 24.310547 C 10.777687 25.383193 7.851094 26.700708 5.7519531 29.201172 C 3.4351664 31.959616 3.5779349 35.864419 5.0253906 38.761719 C 6.7615965 42.236483 10.263956 44.064004 13.933594 44.191406 C 18.981332 44.365582 24.342523 42.047475 27.804688 39.417969 C 31.112323 36.906243 33.777384 33.663069 35.810547 30.126953 C 37.931049 26.438322 40.004011 22.080125 40.294922 17.455078 L 40.242188 17.451172 A 1.50015 1.50015 0 0 0 40.294922 17.267578 C 40.924917 14.351328 41.988217 11.151385 44.0625 8.5117188 A 1.50015 1.50015 0 0 0 43.419922 6.1835938 L 38.830078 4.421875 A 1.50015 1.50015 0 0 0 38.242188 4.3242188 z M 38.75 7.6054688 L 40.730469 8.3652344 C 39.284551 10.683166 38.320471 13.070688 37.746094 15.357422 C 35.656225 15.181894 34.22174 14.455581 33.181641 13.154297 C 35.237704 11.634485 37.224994 9.7955253 38.75 7.6054688 z M 30.832031 15.027344 C 32.355522 16.853307 34.525158 18.023508 37.179688 18.349609 C 36.703445 21.848024 35.046638 25.439596 33.210938 28.632812 C 31.3481 31.872696 28.924599 34.801022 25.990234 37.029297 C 23.082399 39.237791 18.031371 41.331184 14.037109 41.193359 C 11.254747 41.096759 8.9247785 39.853158 7.7089844 37.419922 C 6.7324401 35.465222 6.7356149 32.692462 8.0488281 31.128906 C 9.5796872 29.30537 12.010703 28.119338 14.521484 27.083984 C 16.647328 26.207867 18.827436 25.275033 20.902344 24.017578 C 23.149406 22.656148 24.98346 20.942321 26.720703 19.205078 C 28.169258 17.756523 29.583557 16.153673 30.832031 15.027344 z"/></svg>