<svg xmlns="http://www.w3.org/2000/svg"  viewBox="0 0 48 48" width="50px" height="50px"><path d="M 18.476562 3.9785156 A 1.50015 1.50015 0 0 0 17 5.5 C 17 7.1599877 16.508438 8.7836667 15.587891 10.164062 L 12.646484 14.576172 C 10.269175 18.141598 9 22.332123 9 26.617188 C 9 32.646692 12.483443 38.109117 17.703125 40.585938 C 17.428565 41.190707 17.818929 42 18.609375 42 L 20 42 L 21.167969 43.751953 C 21.563969 44.345953 22.436031 44.345953 22.832031 43.751953 L 24 42 L 25.167969 43.751953 C 25.563969 44.345953 26.436031 44.345953 26.832031 43.751953 L 28 42 L 29.390625 42 C 30.177638 42 30.568328 41.197665 30.300781 40.59375 C 35.423695 38.204324 39 33.012747 39 27 L 39 26.619141 C 39 22.333151 37.730748 18.143436 35.353516 14.578125 L 32.412109 10.166016 L 32.412109 10.164062 C 31.491907 8.7827457 31 7.1593926 31 5.5 A 1.50015 1.50015 0 1 0 28 5.5 C 28 7.7520123 28.666856 9.9538103 29.916016 11.828125 L 32.857422 16.242188 C 34.90619 19.314877 36 22.925131 36 26.619141 L 36 27 C 36 33.645277 30.663445 39.006678 24.001953 39 C 23.557854 38.999555 23.107024 38.975152 22.652344 38.925781 C 16.537884 38.263418 12 32.829861 12 26.617188 C 12 22.924252 13.093887 19.312808 15.142578 16.240234 L 18.083984 11.828125 C 19.333437 9.9545213 20 7.7520123 20 5.5 A 1.50015 1.50015 0 0 0 18.476562 3.9785156 z M 24 11 C 23.1696 11 22.562236 11.363723 22.041016 11.767578 C 21.519795 12.171433 21.057273 12.67161 20.597656 13.251953 C 19.678422 14.412639 18.78696 15.904079 17.972656 17.523438 C 16.344048 20.762153 15 24.325427 15 27 C 15 31.952719 19.047281 36 24 36 C 28.952719 36 33 31.952719 33 27 C 33 24.325427 31.655952 20.762153 30.027344 17.523438 C 29.21304 15.904079 28.321578 14.412639 27.402344 13.251953 C 26.942727 12.67161 26.480205 12.171433 25.958984 11.767578 C 25.437764 11.363723 24.8304 11 24 11 z M 24 14.064453 C 24.039351 14.085908 24.05878 14.090388 24.121094 14.138672 C 24.351827 14.31745 24.690086 14.659796 25.050781 15.115234 C 25.772172 16.026111 26.59946 17.383201 27.347656 18.871094 C 28.844048 21.846878 30 25.532573 30 27 C 30 30.331281 27.331281 33 24 33 C 20.668719 33 18 30.331281 18 27 C 18 25.532573 19.155952 21.846878 20.652344 18.871094 C 21.40054 17.383201 22.227828 16.026111 22.949219 15.115234 C 23.309914 14.659796 23.648173 14.31745 23.878906 14.138672 C 23.94122 14.090389 23.960649 14.085908 24 14.064453 z M 24 20.828125 C 23.675 20.828125 23.349297 20.983922 23.154297 21.294922 C 22.267297 22.710922 21 25.923 21 27 C 21 28.657 22.343 30 24 30 C 25.657 30 27 28.657 27 27 C 27 25.923 25.732703 22.710922 24.845703 21.294922 C 24.650703 20.983922 24.325 20.828125 24 20.828125 z"/></svg>