<svg xmlns="http://www.w3.org/2000/svg"  viewBox="0 0 48 48" width="50px" height="50px"><path d="M 39.460938 4.9804688 A 1.50015 1.50015 0 0 0 38.121094 7.0917969 C 39.481864 10.266927 38.975412 11.852256 38.359375 12.820312 C 38.301515 12.911233 38.286865 12.861652 38.226562 12.941406 C 34.40067 12.763259 33.423828 9.5253906 33.423828 9.5253906 A 1.5008464 1.5008464 0 1 0 30.576172 10.474609 C 30.576172 10.474609 31.136347 11.774145 32.216797 13.064453 C 30.631965 13.358332 29.140636 14.107996 28.023438 15.388672 C 25.964292 17.749837 24.259038 18.944281 22.105469 19.703125 C 19.951899 20.461969 17.252668 20.755624 13.404297 21.003906 C 9.9533871 21.226723 7.2470126 22.570283 5.5039062 24.646484 C 3.7608 26.722685 3 29.427052 3 32.25 C 3 38.177751 7.9242048 42.261048 13.558594 42.988281 C 17.626468 43.513168 23.821191 43.542522 29.478516 40.78125 C 35.13584 38.019978 40.095804 32.310705 41.296875 22.148438 C 41.408991 21.1996 41.360905 20.246463 41.185547 19.324219 C 41.879048 19.675327 42.607288 20 43.5 20 A 1.50015 1.50015 0 1 0 43.5 17 C 42.666667 17 41.739047 16.351879 41.003906 15.511719 C 40.697998 15.162109 40.710178 15.102126 40.519531 14.8125 C 40.642916 14.654926 40.7764 14.609182 40.890625 14.429688 C 42.024588 12.647744 42.518137 9.7330734 40.878906 5.9082031 A 1.50015 1.50015 0 0 0 39.460938 4.9804688 z M 32.910156 15.982422 C 33.233628 15.989033 33.565816 16.084702 33.896484 16.101562 C 33.381348 17.101464 33.044922 18.136719 33.044922 18.136719 A 1.50015 1.50015 0 1 0 35.955078 18.863281 C 35.955078 18.863281 36.178344 18.036094 36.599609 17.333984 C 36.666619 17.222308 36.732786 17.186908 36.804688 17.091797 C 38.002136 18.188011 38.541154 19.911363 38.318359 21.796875 C 37.21143 31.162607 33.019285 35.715209 28.162109 38.085938 C 23.304934 40.456665 17.623532 40.486832 13.941406 40.011719 C 9.4417951 39.430955 6 36.540249 6 32.25 C 6 29.963948 6.6100906 27.994768 7.8027344 26.574219 C 8.9953781 25.15367 10.789613 24.177277 13.595703 23.996094 C 17.497332 23.744376 20.453835 23.466859 23.103516 22.533203 C 25.753196 21.599547 27.999348 19.980163 30.283203 17.361328 C 30.887358 16.668769 31.70155 16.212222 32.589844 16.011719 C 32.69529 15.987919 32.802332 15.980218 32.910156 15.982422 z"/></svg>