<svg xmlns="http://www.w3.org/2000/svg"  viewBox="0 0 48 48" width="50px" height="50px"><path d="M 35.628906 3.9179688 A 1.50015 1.50015 0 0 0 34.111328 5.0605469 L 31.351562 15.677734 C 29.292643 16.562447 27.417816 17.66476 25.71875 18.916016 C 23.183024 16.572453 19.962112 15.210996 16.310547 14.351562 L 14.304688 7.9082031 A 1.50015 1.50015 0 0 0 12.841797 6.8339844 A 1.50015 1.50015 0 0 0 11.441406 8.8007812 L 13.634766 15.84375 L 13.634766 18.957031 C 13.394061 18.850459 13.146659 18.737661 12.914062 18.634766 C 12.115545 18.281521 11.385664 17.958427 10.873047 17.71875 C 10.673458 17.62543 10.546539 17.56069 10.431641 17.501953 L 4.4453125 7.8261719 A 1.50015 1.50015 0 1 0 1.8945312 9.4042969 L 7.9433594 19.179688 C 8.7438359 21.874038 9.3214283 24.469405 9.5039062 27.197266 C 9.6873222 29.939907 9.5117188 32.747602 9.5117188 35.677734 C 9.5117188 38.420676 11.075111 40.835301 13.359375 42.472656 C 15.643639 44.110011 18.683684 45.0625 22.011719 45.0625 C 22.842278 45.0625 23.65546 45.00242 24.443359 44.886719 A 1.5002648 1.5002648 0 0 0 24.619141 44.849609 C 25.372819 44.986395 26.149918 45.0625 26.943359 45.0625 C 32.809022 45.0625 37.878906 41.148014 37.878906 35.931641 C 37.878906 34.940541 37.731448 34.091982 37.697266 33.388672 C 37.507556 29.461977 37.844274 25.412076 38.890625 21.671875 L 46.123047 9.375 A 1.50015 1.50015 0 0 0 44.865234 7.0976562 A 1.50015 1.50015 0 0 0 43.537109 7.8554688 L 36.410156 19.974609 C 36.330166 20.017841 35.121823 20.669215 34.726562 20.882812 L 34.052734 17.205078 A 1.50015 1.50015 0 0 0 34.068359 17.146484 L 37.015625 5.8164062 A 1.50015 1.50015 0 0 0 35.628906 3.9179688 z M 16.634766 17.666016 C 19.280465 18.397339 21.568238 19.356708 23.357422 20.845703 C 22.609583 21.521397 21.902979 22.224441 21.238281 22.947266 C 19.720643 22.058284 18.537027 21.316106 17.566406 20.796875 C 17.309646 20.65956 16.942393 20.495957 16.634766 20.345703 L 16.634766 17.666016 z M 31.349609 19.091797 L 31.951172 22.382812 C 30.768313 23.021871 30.591757 23.117462 29.232422 23.851562 C 28.011029 24.511169 26.967919 25.075687 25.875 25.666016 C 25.401298 25.385711 24.560528 24.906137 23.931641 24.527344 C 26.001323 22.370631 28.488896 20.519473 31.349609 19.091797 z M 11.583984 21.324219 C 11.628234 21.343799 11.656514 21.357203 11.701172 21.376953 C 13.299387 22.083964 15.16915 22.915596 16.152344 23.441406 C 17.708246 24.273732 20.846776 26.137898 22.8125 27.318359 C 22.671963 27.394138 22.452451 27.512338 22.337891 27.574219 C 22.131605 27.685644 21.967987 27.774247 21.857422 27.833984 C 21.802142 27.863854 21.761142 27.886824 21.732422 27.902344 C 21.703702 27.917864 21.689453 27.925781 21.689453 27.925781 L 21.628906 27.960938 C 20.022113 28.928929 18.648512 29.97005 17.634766 31.271484 C 16.62102 32.572919 16.009766 34.168642 16.009766 35.931641 C 16.009766 38.088328 16.885598 40.016005 18.316406 41.542969 C 17.085799 41.186183 15.99125 40.666729 15.107422 40.033203 C 13.410436 38.816808 12.511719 37.289792 12.511719 35.677734 C 12.511719 32.873867 12.696683 29.997406 12.496094 26.998047 C 12.365268 25.042337 12.014581 23.173059 11.583984 21.324219 z M 35.445312 23.90625 C 34.853999 27.101965 34.547426 30.350891 34.701172 33.533203 C 34.746992 34.475893 34.878906 35.27874 34.878906 35.931641 C 34.878906 39.143268 31.497697 42.0625 26.943359 42.0625 C 22.389022 42.0625 19.009766 39.143268 19.009766 35.931641 C 19.009766 34.812639 19.326746 33.97955 20 33.115234 C 20.67165 32.252978 21.743863 31.394108 23.167969 30.535156 C 23.196079 30.519956 23.234329 30.500116 23.285156 30.472656 C 23.395526 30.413026 23.557436 30.326243 23.763672 30.214844 C 24.176145 29.992046 24.765395 29.672993 25.472656 29.291016 C 26.887179 28.52706 28.772022 27.508856 30.658203 26.490234 C 33.05148 25.197758 34.015276 24.678513 35.445312 23.90625 z"/></svg>