<svg xmlns="http://www.w3.org/2000/svg"  viewBox="0 0 48 48" width="50px" height="50px"><path d="M 24 3.5 C 22.208036 3.5 19.952215 4.2618801 18.269531 6.4042969 C 17.104122 7.8881129 16.23535 9.9799317 15.804688 12.824219 C 13.235647 9.1541807 10.703456 8.0865288 8.6445312 6.8984375 C 7.7139148 6.3614631 6.7998899 6.0088336 5.9277344 5.859375 C 5.0555789 5.7099164 4.225131 5.7636612 3.4589844 6.0371094 C 2.6928377 6.3105576 1.8225888 7.059197 1.7480469 8.109375 C 1.6735049 9.159553 2.2575495 9.9483619 2.9765625 10.580078 C 3.1826236 10.761121 3.3320665 11.018221 3.4570312 11.695312 C 3.5819962 12.372405 3.6280196 13.386025 3.6796875 14.662109 C 3.7830233 17.214277 3.9519344 20.815165 5.2890625 25.408203 C 6.6658088 30.137329 9.1750145 33.109373 11.355469 34.853516 C 13.19675 36.326354 14.812915 36.941144 15.294922 37.105469 C 15.339687 37.205429 15.37985 37.309071 15.425781 37.408203 C 17.013575 40.835132 19.385597 43.77663 23.087891 45.626953 A 1.50015 1.50015 0 0 0 23.824219 45.792969 A 1.50015 1.50015 0 0 0 24.992188 45.429688 C 28.856987 43.405821 31.55134 40.400528 33.505859 36.765625 C 34.953418 36.095977 40.472774 33.133168 42.955078 25.859375 C 44.328447 21.835048 44.770877 18.882516 45.107422 16.876953 C 45.275695 15.874172 45.426308 15.117969 45.599609 14.626953 C 45.772911 14.135937 45.915178 13.935038 46.171875 13.734375 C 46.87721 13.183007 47.498797 12.45605 47.457031 11.412109 C 47.415265 10.368168 46.57041 9.640444 45.853516 9.3632812 C 45.136622 9.0861187 44.357498 9.006641 43.535156 9.109375 C 42.712815 9.212109 41.847078 9.4964443 40.955078 9.9472656 C 39.575347 10.644118 37.927754 11.241218 36.185547 12.71875 C 34.966999 13.752177 33.747509 15.200748 32.490234 17.332031 C 32.491235 17.24329 32.5 17.152988 32.5 17.064453 C 32.5 11.916687 31.413152 8.5467136 29.730469 6.4042969 C 28.047785 4.2618801 25.791964 3.5 24 3.5 z M 24 6.5 C 25.008036 6.5 26.253777 6.8352293 27.371094 8.2578125 C 28.48841 9.6803957 29.5 12.342219 29.5 17.064453 C 29.5 22.706984 27.301071 28.540227 25.5 32.455078 L 25.5 20.191406 A 1.50015 1.50015 0 0 0 23.976562 18.669922 A 1.50015 1.50015 0 0 0 22.5 20.191406 L 22.5 32.455078 C 20.698929 28.540227 18.5 22.706984 18.5 17.064453 C 18.5 12.342219 19.51159 9.6803957 20.628906 8.2578125 C 21.746223 6.8352293 22.991964 6.5 24 6.5 z M 5.3691406 8.8808594 C 5.8649855 8.9523394 6.4925396 9.1198885 7.1445312 9.4960938 C 10.175821 11.245283 12.301774 11.554529 15.361328 18.089844 A 1.5002192 1.5002192 0 0 0 15.552734 18.394531 C 15.717675 21.461959 16.415311 24.598793 17.328125 27.501953 A 1.5002938 1.5002938 0 0 0 17.273438 27.753906 C 17.097069 29.201309 16.78706 30.378162 16.445312 31.337891 C 15.91479 29.448673 15.448234 27.413038 14.976562 25.261719 A 1.50015 1.50015 0 1 0 12.046875 25.902344 C 12.57873 28.328164 13.103588 30.672475 13.761719 32.888672 C 13.582986 32.761734 13.421968 32.664508 13.228516 32.509766 C 11.45722 31.092908 9.3701756 28.691233 8.1699219 24.568359 C 6.93005 20.309397 6.7803986 17.076598 6.6777344 14.541016 C 6.6264023 13.273225 6.5978633 12.178018 6.4082031 11.150391 C 6.2587045 10.340369 5.9018004 9.5606067 5.3691406 8.8808594 z M 43.753906 12.199219 C 43.38949 12.663642 42.9575 13.096335 42.769531 13.628906 C 42.472677 14.469984 42.322743 15.353766 42.150391 16.380859 C 41.805686 18.435046 41.408865 21.097999 40.115234 24.888672 C 38.880879 28.505654 37.114634 30.623553 35.599609 31.884766 C 36.386431 29.587507 37.002198 27.144067 37.507812 24.603516 A 1.50015 1.50015 0 1 0 34.566406 24.017578 C 34.045397 26.63548 33.403804 29.035919 32.603516 31.232422 C 32.032996 28.852924 31.82974 25.470637 33.566406 21.740234 C 35.305268 18.005118 36.79516 16.137282 38.126953 15.007812 C 39.458746 13.878345 40.726325 13.424147 42.308594 12.625 C 42.833505 12.359707 43.327826 12.259025 43.753906 12.199219 z M 29.498047 30.865234 C 29.835587 32.816673 30.397736 34.318988 30.816406 35.251953 C 29.453803 37.706029 27.729181 39.7649 25.5 41.376953 L 25.5 39.380859 C 25.816972 38.837039 27.681578 35.588016 29.498047 30.865234 z M 19.169922 32.529297 C 20.784695 36.39927 22.221692 38.903374 22.5 39.380859 L 22.5 41.486328 C 20.658037 40.071418 19.184829 38.385278 18.148438 36.148438 C 18.043848 35.922703 17.94659 35.685 17.847656 35.451172 C 18.23729 34.753238 18.719279 33.760861 19.169922 32.529297 z"/></svg>