<svg xmlns="http://www.w3.org/2000/svg"  viewBox="0 0 48 48" width="50px" height="50px"><path d="M 23.068359 3.5722656 C 22.847258 3.5815468 22.629258 3.6024826 22.416016 3.6347656 C 21.563047 3.7638975 20.779431 4.0663276 20.115234 4.4570312 C 17.665435 5.8980897 16.497556 8.1991499 16.310547 8.5800781 C 15.70319 8.6090791 15.091503 8.6304271 14.580078 8.8203125 C 13.180915 9.3398038 12.323159 10.531807 11.990234 11.626953 C 11.696783 12.592256 11.681851 13.529864 11.75 14.289062 C 11.475019 14.213362 11.199596 14.141447 10.925781 14.060547 A 1.50015 1.50015 0 0 0 10.480469 14 A 1.50015 1.50015 0 0 0 9.2128906 16.271484 L 11.759766 20.517578 C 11.250145 21.366296 9.7456854 23.854332 9.0585938 25.228516 A 1.50015 1.50015 0 0 0 9.0488281 25.248047 C 7.5100649 28.435495 7 32.048485 7 35.5 C 7 38.518182 9.4818182 41 12.5 41 L 26.710938 41 C 27.64996 42.145568 29.093739 42.793546 30.681641 43.265625 C 32.621018 43.842197 34.867569 44.075442 37.019531 43.867188 C 39.171493 43.658932 41.275845 43.032748 42.763672 41.544922 C 44.251498 40.057095 44.797684 37.646958 43.923828 35.025391 C 43.315767 33.201206 42.12124 31.972508 40.734375 31.201172 C 40.415316 29.191548 39.897238 27.140178 38.941406 25.228516 C 38.254314 23.854332 36.749855 21.366296 36.240234 20.517578 L 38.787109 16.271484 A 1.50015 1.50015 0 0 0 37.074219 14.060547 C 36.956205 14.095415 36.836985 14.124301 36.71875 14.158203 C 36.095352 11.951929 35.01254 10.377672 33.634766 9.4238281 C 32.631286 8.7291117 31.543967 8.4617564 30.464844 8.3417969 C 28.688969 5.9057338 26.927562 4.432467 25.132812 3.8535156 C 24.426432 3.625651 23.731663 3.5444222 23.068359 3.5722656 z M 23.488281 6.5566406 C 23.715562 6.5775001 23.955295 6.6265191 24.210938 6.7089844 C 24.908687 6.9340648 25.831329 7.6662996 26.835938 8.7226562 C 24.572171 9.304932 22.728516 10.212891 22.728516 10.212891 A 1.50015 1.50015 0 0 0 22.710938 10.224609 C 21.844774 9.8302001 21.118637 9.4165522 19.927734 9.0625 C 19.809723 9.026597 19.726528 9.0345141 19.611328 9.0019531 C 20.113623 8.3225631 20.809604 7.5283581 21.634766 7.0429688 C 22.033069 6.8086724 22.421328 6.6423524 22.837891 6.5761719 C 23.046172 6.5430814 23.261 6.5357812 23.488281 6.5566406 z M 29.726562 11.21875 C 30.543751 11.247382 31.289928 11.447116 31.927734 11.888672 C 32.654001 12.391472 33.345323 13.260757 33.810547 14.894531 C 33.202034 15.026777 32.590934 15.144623 31.978516 15.251953 A 1.5 1.5 0 0 0 30.5 14 A 1.5 1.5 0 0 0 29.009766 15.675781 C 28.398508 15.742386 27.786843 15.79574 27.173828 15.837891 C 27.314491 15.054815 27.260323 14.16147 26.783203 13.275391 C 26.55429 12.850267 26.014409 12.511963 25.638672 12.130859 C 26.519059 11.755547 27.677239 11.354093 28.886719 11.244141 C 29.173327 11.218085 29.454166 11.209206 29.726562 11.21875 z M 16.828125 11.501953 C 17.392204 11.52941 18.128611 11.650824 19.0625 11.935547 A 1.50015 1.50015 0 0 0 19.072266 11.9375 C 19.084365 11.941097 19.093423 11.945619 19.105469 11.949219 A 1.5 1.5 0 0 0 20.5 14 A 1.5 1.5 0 0 0 21.908203 13.013672 C 23.315449 13.701718 23.946572 14.335208 24.142578 14.699219 C 24.439426 15.250507 24.248311 15.538681 23.966797 15.945312 A 1.5004764 1.5004764 0 0 0 23.964844 15.949219 C 20.937988 15.94692 17.912808 15.639204 14.933594 15.042969 C 14.920546 14.983263 14.580551 13.415237 14.859375 12.498047 C 15.001451 12.030693 15.130413 11.816447 15.625 11.632812 C 15.872294 11.540996 16.264046 11.474496 16.828125 11.501953 z M 13.572266 17.703125 C 20.453089 19.198833 27.546911 19.198833 34.427734 17.703125 L 33.484375 19.277344 C 27.493315 22.054182 20.506685 22.054182 14.515625 19.277344 L 13.572266 17.703125 z M 14.185547 22.318359 C 20.468981 24.937101 27.531019 24.937101 33.814453 22.318359 C 34.45571 23.399846 35.778135 25.610956 36.257812 26.570312 C 36.814789 27.684264 37.205307 28.920933 37.492188 30.208984 C 35.030709 29.973484 32.633109 30.540266 31.025391 31.076172 C 28.812678 31.813743 27.118582 33.057647 26.201172 34.708984 C 25.643406 35.712962 25.423319 36.857283 25.533203 38 L 12.5 38 C 11.118182 38 10 36.881818 10 35.5 C 10 32.354995 10.489912 29.173433 11.748047 26.5625 C 12.231466 25.597665 13.545558 23.397708 14.185547 22.318359 z M 36.630859 33.158203 C 36.866264 33.163562 37.098209 33.178303 37.324219 33.203125 C 39.132297 33.4017 40.412188 33.982658 41.076172 35.974609 C 41.702316 37.853042 41.373502 38.692905 40.642578 39.423828 C 39.911655 40.154752 38.453507 40.716068 36.730469 40.882812 C 35.834201 40.969548 34.880671 40.950576 33.955078 40.853516 A 1.5 1.5 0 0 0 32.5 39 A 1.5 1.5 0 0 0 31.03125 40.201172 C 29.801233 39.739021 28.976646 39.099778 28.841797 38.830078 C 28.330265 37.807015 28.366631 36.989678 28.824219 36.166016 C 29.281809 35.342353 30.287322 34.486257 31.974609 33.923828 C 31.998719 33.915792 32.032017 33.908432 32.056641 33.900391 A 1.5 1.5 0 0 0 33.5 35 A 1.5 1.5 0 0 0 34.980469 33.265625 C 35.531392 33.197964 36.08864 33.14586 36.630859 33.158203 z M 38.5 36 A 1.5 1.5 0 0 0 38.5 39 A 1.5 1.5 0 0 0 38.5 36 z"/></svg>