<svg xmlns="http://www.w3.org/2000/svg"  viewBox="0 0 48 48" width="50px" height="50px"><path d="M 33.210938 5.75 C 30.754122 5.659836 28.12431 6.3776435 26.205078 8.296875 C 25.353311 9.1486419 24.695304 10.127118 24.236328 11.169922 A 1.50015 1.50015 0 0 0 24.236328 11.171875 C 23.747851 12.28279 22.864304 13.060563 21.726562 13.361328 C 20.000477 13.81765 18.362621 14.72448 17.011719 16.074219 A 1.50015 1.50015 0 0 0 17.011719 16.076172 C 15.661227 17.426664 14.753154 19.065091 14.296875 20.791016 C 13.996149 21.928605 13.219514 22.811046 12.107422 23.300781 C 11.064618 23.759758 10.084189 24.415811 9.2324219 25.267578 C 5.6201923 28.879808 5.2206786 34.691382 9.2324219 38.703125 C 12.829456 42.300159 18.942566 42.428528 22.667969 38.703125 C 23.519736 37.851358 24.177742 36.872882 24.636719 35.830078 C 25.125195 34.719164 26.008744 33.94139 27.146484 33.640625 C 28.872571 33.184303 30.510426 32.27552 31.861328 30.925781 C 33.21341 29.574864 34.120054 27.936251 34.576172 26.210938 C 34.876897 25.073348 35.653533 24.190907 36.765625 23.701172 C 37.808429 23.242196 38.788858 22.584189 39.640625 21.732422 C 43.365236 18.007811 43.239642 11.897091 39.640625 8.296875 A 1.50015 1.50015 0 0 0 39.638672 8.296875 C 38.030159 6.6888639 35.667752 5.8401637 33.210938 5.75 z M 33.101562 8.7480469 C 34.895497 8.8138829 36.625138 9.5258857 37.517578 10.417969 C 39.924561 12.825753 40.040967 17.087939 37.517578 19.611328 C 36.931345 20.197561 36.26979 20.642054 35.558594 20.955078 A 1.50015 1.50015 0 0 0 35.556641 20.955078 C 33.666733 21.787343 32.213056 23.410949 31.675781 25.443359 C 31.349899 26.676045 30.710152 27.835605 29.740234 28.804688 C 28.769136 29.774949 27.61082 30.414556 26.378906 30.740234 C 24.346646 31.277469 22.722148 32.731961 21.890625 34.623047 C 21.577635 35.333696 21.132711 35.996195 20.546875 36.582031 C 18.024278 39.104628 13.758435 38.984997 11.355469 36.582031 C 8.3672117 33.593775 8.7196981 30.026395 11.355469 27.390625 C 11.941702 26.804392 12.603257 26.359899 13.314453 26.046875 A 1.50015 1.50015 0 0 0 13.316406 26.044922 C 15.206314 25.212657 16.659991 23.589051 17.197266 21.556641 C 17.522987 20.324566 18.163306 19.166773 19.132812 18.197266 C 20.103911 17.227004 21.262227 16.587397 22.494141 16.261719 C 24.526401 15.724484 26.150899 14.269992 26.982422 12.378906 C 27.295446 11.66771 27.739939 11.004202 28.326172 10.417969 C 29.53094 9.2132 31.307628 8.6822105 33.101562 8.7480469 z M 32.935547 11 C 31.727214 11 30.631029 11.507133 29.939453 12.285156 C 29.247878 13.063179 28.935547 14.041667 28.935547 15 C 28.935547 15.958333 29.247878 16.936821 29.939453 17.714844 C 30.631029 18.492867 31.727214 19 32.935547 19 C 34.14388 19 35.240065 18.492867 35.931641 17.714844 C 36.623216 16.936821 36.935547 15.958333 36.935547 15 C 36.935547 14.041667 36.623216 13.063179 35.931641 12.285156 C 35.240065 11.507133 34.14388 11 32.935547 11 z M 32.935547 14 C 33.39388 14 33.547696 14.117867 33.689453 14.277344 C 33.831211 14.436821 33.935547 14.708333 33.935547 15 C 33.935547 15.291667 33.831211 15.563179 33.689453 15.722656 C 33.547696 15.882133 33.39388 16 32.935547 16 C 32.477214 16 32.323398 15.882133 32.181641 15.722656 C 32.039883 15.563179 31.935547 15.291667 31.935547 15 C 31.935547 14.708333 32.039883 14.436821 32.181641 14.277344 C 32.323398 14.117867 32.477214 14 32.935547 14 z M 24.435547 18 C 22.727214 18 21.256029 18.694633 20.314453 19.753906 C 19.372878 20.813179 18.935547 22.166667 18.935547 23.5 C 18.935547 24.833333 19.372878 26.186821 20.314453 27.246094 C 21.256029 28.305367 22.727214 29 24.435547 29 C 26.14388 29 27.615065 28.305367 28.556641 27.246094 C 29.498216 26.186821 29.935547 24.833333 29.935547 23.5 C 29.935547 22.166667 29.498216 20.813179 28.556641 19.753906 C 27.615065 18.694633 26.14388 18 24.435547 18 z M 24.435547 21 C 25.393879 21 25.922696 21.305367 26.314453 21.746094 C 26.70621 22.186821 26.935547 22.833333 26.935547 23.5 C 26.935547 24.166667 26.70621 24.813179 26.314453 25.253906 C 25.922696 25.694633 25.393879 26 24.435547 26 C 23.477214 26 22.948398 25.694633 22.556641 25.253906 C 22.164883 24.813179 21.935547 24.166667 21.935547 23.5 C 21.935547 22.833333 22.164883 22.186821 22.556641 21.746094 C 22.948398 21.305367 23.477214 21 24.435547 21 z M 15.935547 28 C 14.727214 28 13.631029 28.507133 12.939453 29.285156 C 12.247878 30.063179 11.935547 31.041667 11.935547 32 C 11.935547 32.958333 12.247878 33.936821 12.939453 34.714844 C 13.631029 35.492867 14.727214 36 15.935547 36 C 17.14388 36 18.240065 35.492867 18.931641 34.714844 C 19.623216 33.936821 19.935547 32.958333 19.935547 32 C 19.935547 31.041667 19.623216 30.063179 18.931641 29.285156 C 18.240065 28.507133 17.14388 28 15.935547 28 z M 15.935547 31 C 16.39388 31 16.547696 31.117867 16.689453 31.277344 C 16.831211 31.436821 16.935547 31.708333 16.935547 32 C 16.935547 32.291667 16.831211 32.563179 16.689453 32.722656 C 16.547696 32.882133 16.39388 33 15.935547 33 C 15.477214 33 15.323398 32.882133 15.181641 32.722656 C 15.039883 32.563179 14.935547 32.291667 14.935547 32 C 14.935547 31.708333 15.039883 31.436821 15.181641 31.277344 C 15.323398 31.117867 15.477214 31 15.935547 31 z"/></svg>