<svg xmlns="http://www.w3.org/2000/svg"  viewBox="0 0 48 48" width="50px" height="50px"><path d="M 24 3.9765625 C 22.568304 3.9765625 21.285877 4.5031347 20.152344 5.2421875 C 19.479283 4.9307963 18.759517 4.7050781 17.980469 4.7050781 C 15.636691 4.7050781 13.743762 6.2861441 12.933594 8.4082031 C 12.827573 8.4014431 12.738671 8.3496094 12.630859 8.3496094 C 10.44315 8.3496094 8.650616 9.7521704 7.7636719 11.644531 C 5.5763651 12.612925 4 14.732072 4 17.273438 C 4 20.707341 6.8160965 23.523438 10.25 23.523438 C 11.248628 23.523438 12.173177 23.264879 12.998047 22.837891 C 14.451005 23.754842 15.940496 25.674991 17.039062 28.382812 C 18.248736 31.364499 19 35.227843 19 39.439453 L 19 40.193359 C 19 42.290771 20.732666 44.023438 22.830078 44.023438 L 22.833984 44.023438 L 25.167969 44.023438 L 25.171875 44.023438 C 27.269287 44.023438 29.001953 42.290771 29.001953 40.193359 L 29.001953 39.416016 C 29.004853 35.288837 29.726219 31.494815 30.896484 28.541016 C 32.002612 25.749103 33.523811 23.766769 35.005859 22.837891 C 35.830342 23.264429 36.753789 23.523438 37.751953 23.523438 C 41.185857 23.523438 44.001953 20.707341 44.001953 17.273438 C 44.000753 14.733676 42.424507 12.614203 40.238281 11.644531 C 39.402142 9.8593315 37.749599 8.5551091 35.724609 8.4101562 C 34.915374 6.2914283 33.03162 4.7050781 30.689453 4.7050781 C 29.748003 4.7050781 28.903078 5.0297999 28.130859 5.4707031 C 26.93708 4.6048431 25.562199 3.9765625 24 3.9765625 z M 24 6.9765625 C 25.160394 6.9765625 26.207941 7.4574174 27.03125 8.2929688 A 1.50015 1.50015 0 0 0 29.117188 8.34375 C 29.565051 7.930485 30.097202 7.7050781 30.689453 7.7050781 C 31.896468 7.7050781 32.96688 8.6891085 33.166016 10.128906 A 1.50015 1.50015 0 0 0 34.941406 11.394531 C 35.096659 11.363881 35.236962 11.349609 35.369141 11.349609 C 36.410865 11.349609 37.329397 12.074218 37.707031 13.220703 A 1.50015 1.50015 0 0 0 38.693359 14.185547 C 40.02923 14.594417 41.001264 15.801731 41.001953 17.275391 C 41.000853 19.086543 39.563381 20.523438 37.751953 20.523438 C 36.061545 20.523438 34.72017 19.262793 34.542969 17.621094 A 1.50015 1.50015 0 0 0 33.972656 16.597656 C 33.747941 16.422877 33.553279 16.218704 33.392578 15.984375 A 1.50015 1.50015 0 0 0 31.564453 15.453125 C 31.281336 15.574461 30.991214 15.638672 30.6875 15.638672 C 30.196949 15.638672 29.752259 15.483364 29.353516 15.195312 A 1.50015 1.50015 0 0 0 27.316406 15.457031 C 26.468414 16.486625 25.303452 17.095703 24 17.095703 C 22.696548 17.095703 21.53187 16.486971 20.683594 15.457031 A 1.50015 1.50015 0 0 0 18.646484 15.195312 C 18.247341 15.483828 17.802872 15.638672 17.3125 15.638672 C 17.008786 15.638672 16.720617 15.574462 16.4375 15.453125 A 1.50015 1.50015 0 0 0 14.609375 15.984375 C 14.449725 16.217172 14.253223 16.42341 14.027344 16.599609 A 1.50015 1.50015 0 0 0 13.457031 17.621094 C 13.279874 19.26238 11.939098 20.523438 10.25 20.523438 C 8.4379035 20.523438 7 19.085534 7 17.273438 C 7 15.798858 7.9709121 14.595639 9.3066406 14.1875 A 1.50015 1.50015 0 0 0 10.292969 13.222656 C 10.670603 12.076171 11.589135 11.349609 12.630859 11.349609 C 12.909442 11.349609 13.176091 11.404229 13.445312 11.509766 A 1.50015 1.50015 0 0 0 15.484375 10.257812 C 15.630446 8.7511561 16.734241 7.7050781 17.980469 7.7050781 C 18.476984 7.7050781 18.926289 7.8602658 19.326172 8.1523438 A 1.50015 1.50015 0 0 0 21.203125 8.0664062 C 21.988573 7.3720251 22.946438 6.9765625 24 6.9765625 z M 19 18.287109 L 19 25.792969 C 17.983936 23.754465 16.778623 21.987463 15.283203 20.792969 C 15.73486 20.123738 16.07947 19.374567 16.255859 18.558594 C 16.294509 18.522124 16.327459 18.479064 16.365234 18.441406 C 16.68455 18.503966 16.975199 18.638672 17.3125 18.638672 C 17.910691 18.638672 18.465478 18.486812 19 18.287109 z M 29.001953 18.289062 C 29.535404 18.488134 30.089776 18.638672 30.6875 18.638672 C 31.02516 18.638672 31.317086 18.504094 31.636719 18.441406 C 31.674519 18.479126 31.707379 18.522046 31.746094 18.558594 C 31.922494 19.374428 32.26714 20.12375 32.71875 20.792969 C 31.220353 21.986453 30.01817 23.754456 29.001953 25.792969 L 29.001953 18.289062 z M 22 19.748047 C 22.62816 19.967624 23.293971 20.095703 24 20.095703 C 24.706676 20.095703 25.373248 19.968067 26.001953 19.748047 L 26.001953 39.416016 C 26.001948 39.424216 26 39.431263 26 39.439453 A 1.50015 1.50015 0 0 0 26.001953 39.488281 L 26.001953 40.193359 C 26.001953 40.669948 25.648463 41.023438 25.171875 41.023438 L 25.167969 41.023438 L 22.833984 41.023438 L 22.830078 41.023438 C 22.353478 41.023432 22 40.669948 22 40.193359 L 22 39.439453 L 22 19.748047 z"/></svg>