<svg xmlns="http://www.w3.org/2000/svg"  viewBox="0 0 48 48" width="50px" height="50px"><path d="M 20.689453 3.5390625 C 20.349951 3.5560661 20.012457 3.594031 19.681641 3.6523438 C 17.225536 4.0852794 14.971417 5.8215637 14.333984 8.4707031 C 13.071351 9.431088 12.128797 10.816614 11.626953 12.441406 C 11.138384 14.023219 11.10446 15.89674 12.044922 17.408203 C 11.467907 18.97978 11.00464 20.5767 11.035156 22.164062 C 11.064246 23.677373 11.854131 25.130276 13.134766 26.181641 C 13.057986 28.057239 13.47967 29.846119 14.603516 31.205078 C 15.627381 32.44314 17.172512 33.19405 18.919922 33.646484 C 18.860512 34.342492 18.679014 35.095254 18.841797 35.701172 C 19.121726 36.743102 19.788102 37.579898 20.539062 38.136719 C 21.613339 38.933271 22.817921 39.349436 24.025391 39.767578 C 24.021291 41.643693 24.001953 43.512546 24.001953 45.042969 A 1.50015 1.50015 0 1 0 27.001953 45.042969 C 27.001953 43.654953 27.032664 41.877392 27.052734 40.128906 C 28.704316 39.717742 30.332118 38.986676 31.330078 37.458984 C 32.232856 36.076998 32.134919 34.16967 31.431641 32.134766 C 35.193342 30.932126 37.029142 27.228963 36.013672 23.876953 C 37.317052 21.893308 37.085669 19.340731 36.277344 17.197266 C 35.508682 15.158957 34.32528 13.335553 32.623047 12.365234 C 32.402004 9.7801824 30.511489 7.1145211 26.878906 6.0820312 C 25.482594 4.5338251 23.614353 3.6882972 21.712891 3.5507812 C 21.370463 3.5260168 21.028955 3.5220589 20.689453 3.5390625 z M 20.835938 6.5371094 C 22.326539 6.4614695 23.895415 7.0213947 24.878906 8.2734375 A 1.50015 1.50015 0 0 0 25.728516 8.8085938 C 29.04549 9.559224 29.891317 11.793208 29.744141 13.146484 A 1.50015 1.50015 0 0 0 30.767578 14.732422 C 31.288308 14.903295 32.790236 16.451441 33.470703 18.255859 C 34.15117 20.060277 34.089412 21.783401 33.378906 22.542969 A 1.50015 1.50015 0 0 0 33.128906 24.230469 C 34.179468 26.368418 33.071916 29.462891 29.496094 29.691406 A 1.50015 1.50015 0 0 0 28.285156 31.925781 C 29.48421 34.049619 29.298289 35.083676 28.818359 35.818359 C 28.498933 36.307342 27.814352 36.69707 27.019531 37.009766 C 26.957491 29.655018 26.256486 20.725823 21.849609 13.849609 A 1.50015 1.50015 0 1 0 19.324219 15.46875 C 23.047234 21.277911 23.801421 29.352242 23.947266 36.40625 C 23.444598 36.201824 22.593851 35.926994 22.326172 35.728516 C 21.973257 35.466837 21.835321 35.28307 21.738281 34.921875 C 21.641241 34.56068 21.620866 33.932659 21.882812 32.916016 A 1.50015 1.50015 0 0 0 20.615234 31.052734 C 18.829134 30.8306 17.637855 30.16582 16.916016 29.292969 C 16.194176 28.420118 15.863544 27.285366 16.066406 25.78125 A 1.50015 1.50015 0 0 0 15.251953 24.240234 C 14.264211 23.744665 14.05471 23.226167 14.033203 22.107422 C 14.011693 20.988677 14.439743 19.388455 15.091797 17.740234 A 1.50015 1.50015 0 0 0 14.746094 16.115234 C 14.231149 15.612048 14.106269 14.581962 14.494141 13.326172 C 14.882012 12.070382 15.852273 10.851731 16.365234 10.564453 A 1.50015 1.50015 0 0 0 17.119141 9.4511719 C 17.329587 7.8444715 18.540903 6.9004205 20.203125 6.6074219 C 20.410903 6.570797 20.622994 6.5479151 20.835938 6.5371094 z"/></svg>