<svg xmlns="http://www.w3.org/2000/svg"  viewBox="0 0 48 48" width="50px" height="50px"><path d="M 15.488281 3.84375 C 14.598891 3.85059 13.413346 4.0390595 12.201172 4.6601562 C 11.22028 5.162748 10.323302 6.1176251 9.7285156 7.3476562 C 8.2359906 7.6668205 6.9271899 8.466166 6.109375 9.6445312 C 5.2690472 10.855335 4.9406207 12.355729 5.0917969 13.865234 C 4.1372311 14.967875 3.4980469 16.261503 3.4980469 17.654297 C 3.4980469 19.045391 4.0896192 20.397925 4.9746094 21.683594 C 4.4913634 23.119973 4.4351329 24.616426 4.8789062 25.931641 C 5.3353563 27.284426 6.2066753 28.403771 7.2792969 29.259766 C 7.426478 30.586534 7.8810564 31.93508 9.0117188 32.982422 C 10.131551 34.019732 11.834509 34.745858 14.001953 35.361328 L 14.001953 43.298828 A 1.50015 1.50015 0 1 0 17.001953 43.298828 L 17.001953 35.412109 C 17.932255 35.153918 18.747979 34.867021 19.492188 34.552734 C 20.21337 34.875179 21.071128 35.154425 22 35.416016 L 22 43.298828 A 1.50015 1.50015 0 1 0 25 43.298828 L 25 35.464844 C 25.96239 35.201866 26.845261 34.920821 27.582031 34.591797 C 28.258033 34.885927 29.15062 35.116415 30 35.359375 L 30 43.298828 A 1.50015 1.50015 0 1 0 33 43.298828 L 33 35.412109 C 35.254661 34.786555 36.978651 34.040774 38.095703 32.960938 C 39.194742 31.898513 39.602641 30.554678 39.732422 29.248047 C 40.798046 28.392798 41.66484 27.278444 42.119141 25.931641 C 42.562768 24.616479 42.506292 23.11983 42.023438 21.683594 C 42.908425 20.397925 43.5 19.045391 43.5 17.654297 C 43.5 16.261503 42.860816 14.967875 41.90625 13.865234 C 42.057426 12.355729 41.729 10.855335 40.888672 9.6445312 C 40.076453 8.474229 38.777694 7.6831478 37.298828 7.3574219 C 36.759611 6.1325086 35.904727 5.1628991 34.927734 4.6621094 C 33.699195 4.0323811 32.459174 3.8501867 31.509766 3.84375 A 1.50015 1.50015 0 0 0 31.486328 3.84375 C 30.433016 3.8521377 28.916505 4.0938616 27.527344 5.0527344 C 27.333066 4.9064851 27.134829 4.7682624 26.927734 4.6621094 C 25.699195 4.0323811 24.459174 3.8501867 23.509766 3.84375 A 1.50015 1.50015 0 0 0 23.486328 3.84375 C 22.436629 3.8523541 20.899566 4.098243 19.527344 5.0527344 C 19.333066 4.9064851 19.134829 4.7682624 18.927734 4.6621094 C 17.699195 4.0323811 16.459174 3.8501867 15.509766 3.84375 A 1.50015 1.50015 0 0 0 15.488281 3.84375 z M 15.5 6.8457031 C 16.026635 6.8508231 16.903306 6.9961419 17.558594 7.3320312 C 18.217554 7.669803 18.640352 8.0655628 18.802734 8.8671875 A 1.50015 1.50015 0 0 0 20.271484 10.070312 C 21.080942 10.070312 21.867334 10.553633 22.423828 11.355469 C 22.980322 12.157304 23.197938 13.197037 22.990234 13.966797 A 1.50015 1.50015 0 0 0 23.417969 15.458984 C 24.216249 16.198274 24.501953 16.880643 24.501953 17.654297 C 24.501953 18.427951 24.161471 19.392301 23.273438 20.488281 A 1.50015 1.50015 0 0 0 23.117188 22.144531 C 23.58785 23.016684 23.602321 24.009242 23.277344 24.972656 C 22.952367 25.936071 22.25904 26.802851 21.566406 27.230469 A 1.50015 1.50015 0 0 0 20.855469 28.505859 C 20.855469 29.555662 20.697967 30.139414 20.009766 30.804688 C 19.515433 31.282549 18.436661 31.788329 17.001953 32.271484 L 17.001953 26.542969 L 20.396484 23.148438 A 1.0001 1.0001 0 1 0 18.982422 21.734375 L 17.001953 23.714844 L 17.001953 19.542969 L 20.396484 16.148438 A 1.0001 1.0001 0 1 0 18.982422 14.734375 L 17.001953 16.714844 L 17.001953 13.431641 A 1.50015 1.50015 0 1 0 14.001953 13.431641 L 14.001953 16.71875 L 12.017578 14.734375 A 1.0001 1.0001 0 0 0 11.300781 14.431641 A 1.0001 1.0001 0 0 0 10.603516 16.148438 L 14.001953 19.548828 L 14.001953 23.71875 L 12.017578 21.734375 A 1.0001 1.0001 0 0 0 11.300781 21.431641 A 1.0001 1.0001 0 0 0 10.603516 23.148438 L 14.001953 26.548828 L 14.001953 32.222656 C 12.627152 31.750247 11.562798 31.255535 11.050781 30.78125 C 10.314018 30.09878 10.142578 29.521836 10.142578 28.505859 A 1.50015 1.50015 0 0 0 9.4316406 27.230469 C 8.7389154 26.802795 8.0457518 25.936006 7.7207031 24.972656 C 7.3956544 24.009306 7.4079552 23.016587 7.8789062 22.144531 A 1.50015 1.50015 0 0 0 7.7265625 20.488281 C 6.8390285 19.392392 6.4980469 18.428328 6.4980469 17.654297 C 6.4980469 16.880266 6.7825228 16.197575 7.5800781 15.458984 A 1.50015 1.50015 0 0 0 8.0078125 13.966797 C 7.800109 13.197037 8.0177249 12.157304 8.5742188 11.355469 C 9.1307124 10.553633 9.9171051 10.070312 10.726562 10.070312 A 1.50015 1.50015 0 0 0 12.173828 8.9609375 C 12.397961 8.1299679 12.892783 7.6762314 13.568359 7.3300781 C 14.240577 6.9856454 15.086071 6.8501824 15.5 6.8457031 z M 23.5 6.8457031 C 24.026635 6.8508231 24.903306 6.9961419 25.558594 7.3320312 C 26.217554 7.669803 26.640352 8.0655628 26.802734 8.8671875 A 1.50015 1.50015 0 0 0 28.271484 10.070312 C 29.080942 10.070312 29.867334 10.553633 30.423828 11.355469 C 30.980322 12.157304 31.197938 13.197037 30.990234 13.966797 A 1.50015 1.50015 0 0 0 31.417969 15.458984 C 32.215524 16.197575 32.5 16.880266 32.5 17.654297 C 32.5 18.428328 32.159018 19.392392 31.271484 20.488281 A 1.50015 1.50015 0 0 0 31.117188 22.144531 C 31.58785 23.016684 31.602321 24.009242 31.277344 24.972656 C 30.952367 25.936071 30.25904 26.802851 29.566406 27.230469 A 1.50015 1.50015 0 0 0 28.855469 28.505859 C 28.855469 29.555662 28.697967 30.139414 28.009766 30.804688 C 27.358699 31.434062 25.959578 32.132584 23.583984 32.724609 C 23.214433 32.633051 22.892631 32.536709 22.558594 32.441406 C 23.311302 31.477688 23.622978 30.349927 23.732422 29.248047 C 24.798046 28.392798 25.66484 27.278444 26.119141 25.931641 C 26.562768 24.616479 26.506292 23.11983 26.023438 21.683594 C 26.908836 20.398008 27.501953 19.045499 27.501953 17.654297 C 27.501953 16.261242 26.861276 14.968115 25.90625 13.865234 C 26.057423 12.355729 25.729 10.855335 24.888672 9.6445312 C 24.111285 8.524417 22.882543 7.7638697 21.482422 7.4140625 C 22.199439 7.0371679 23.059662 6.8513219 23.5 6.8457031 z M 31.498047 6.8457031 C 32.02452 6.8505731 32.902717 6.9958401 33.558594 7.3320312 C 34.217554 7.669803 34.640352 8.0655628 34.802734 8.8671875 A 1.50015 1.50015 0 0 0 36.271484 10.070312 C 37.080942 10.070312 37.867334 10.553633 38.423828 11.355469 C 38.980322 12.157304 39.197938 13.197037 38.990234 13.966797 A 1.50015 1.50015 0 0 0 39.417969 15.458984 C 40.215524 16.197575 40.5 16.880266 40.5 17.654297 C 40.5 18.428328 40.159018 19.392392 39.271484 20.488281 A 1.50015 1.50015 0 0 0 39.117188 22.144531 C 39.587851 23.016684 39.602321 24.009242 39.277344 24.972656 C 38.952367 25.936071 38.25904 26.802851 37.566406 27.230469 A 1.50015 1.50015 0 0 0 36.855469 28.505859 C 36.855469 29.555662 36.697967 30.139414 36.009766 30.804688 C 35.358699 31.434062 33.959578 32.132584 31.583984 32.724609 C 31.214717 32.633195 30.89062 32.536564 30.556641 32.441406 C 31.309873 31.477486 31.622943 30.350279 31.732422 29.248047 C 32.798046 28.392798 33.66484 27.278444 34.119141 25.931641 C 34.562768 24.616479 34.506292 23.11983 34.023438 21.683594 C 34.908425 20.397925 35.5 19.045391 35.5 17.654297 C 35.5 16.261503 34.860816 14.967875 33.90625 13.865234 C 34.057426 12.355729 33.729 10.855335 32.888672 9.6445312 C 32.106469 8.5174777 30.868023 7.7529489 29.457031 7.40625 C 30.169049 7.0263063 31.055615 6.8515398 31.498047 6.8457031 z"/></svg>