<svg xmlns="http://www.w3.org/2000/svg"  viewBox="0 0 48 48" width="50px" height="50px"><path d="M 32.730469 5.9433594 C 30.595089 5.881117 28.800988 6.4518221 27.433594 7.4140625 C 26.093721 8.3569359 25.237464 9.6264383 24.601562 10.904297 C 24.002854 10.114753 23.322472 9.4512835 22.585938 9.0546875 C 20.565129 7.9665601 18.5 8 18.5 8 A 1.50015 1.50015 0 1 0 18.5 11 C 18.5 11 19.934871 11.033441 21.164062 11.695312 C 22.345706 12.331583 23.350495 13.222016 23.044922 15.966797 C 22.402909 15.815436 21.775482 15.538832 21.214844 15.119141 A 1.50015 1.50015 0 0 0 21.214844 15.117188 C 19.302693 13.685923 17.092147 12.950189 14.763672 13.001953 L 14.761719 13.001953 C 11.415477 13.076093 8.4290421 14.873061 6.4785156 17.441406 C 4.5889632 19.930207 3.8083007 22.58338 4.0429688 25.123047 C 4.2776366 27.662714 5.4710989 30.017129 7.2089844 32.138672 C 10.684444 36.381378 16.375885 39.854043 22.351562 42.427734 C 23.441854 42.897874 24.644555 42.874879 25.697266 42.474609 C 30.020801 40.831329 34.476874 38.03566 37.941406 34.785156 C 41.405985 31.534704 44 27.836908 44 24 C 44 17.942442 39.057558 13 33 13 C 30.680524 13 28.487905 13.789616 26.59375 15.265625 C 26.477144 15.356472 26.350523 15.426127 26.226562 15.501953 C 26.369514 14.661233 26.589169 13.684514 27.003906 12.716797 C 27.491697 11.578617 28.191643 10.548734 29.160156 9.8671875 C 30.12867 9.1856408 31.383968 8.7735658 33.333984 8.9902344 A 1.50015 1.50015 0 1 0 33.666016 6.0097656 C 33.347268 5.9743492 33.035523 5.9522511 32.730469 5.9433594 z M 33 16 C 37.436442 16 41 19.563558 41 24 C 41 26.368092 39.03664 29.64416 35.888672 32.597656 C 35.743591 32.733774 35.58501 32.865308 35.435547 33 L 27.5 33 A 1.50015 1.50015 0 1 0 27.5 36 L 31.580078 36 C 29.3421 37.509081 26.934246 38.794456 24.630859 39.669922 A 1.50015 1.50015 0 0 0 24.630859 39.671875 C 24.24757 39.817611 23.858772 39.809736 23.539062 39.671875 C 17.840328 37.217636 12.479026 33.839196 9.5292969 30.238281 C 8.0544323 28.437824 7.1933164 26.622739 7.0292969 24.847656 C 7.0033106 24.566423 6.9999952 24.283458 7.0078125 24 L 14.5 24 A 1.50015 1.50015 0 1 0 14.5 21 L 7.7832031 21 C 8.062431 20.43319 8.4146443 19.854494 8.8691406 19.255859 C 10.334231 17.326709 12.527167 16.05247 14.828125 16.001953 A 1.50015 1.50015 0 0 0 14.830078 16.001953 C 16.514878 15.964173 17.97466 16.4392 19.417969 17.519531 C 22.045171 19.486243 25.755251 19.720593 28.4375 17.630859 C 29.877298 16.508821 31.331476 16 33 16 z M 19.5 26 A 1.50015 1.50015 0 1 0 19.5 29 L 30.5 29 A 1.50015 1.50015 0 1 0 30.5 26 L 19.5 26 z"/></svg>