<svg xmlns="http://www.w3.org/2000/svg"  viewBox="0 0 48 48" width="50px" height="50px"><path d="M 23.644531 2.9824219 C 21.977196 2.9824219 20.205396 3.3614574 18.613281 4.21875 C 16.248036 5.4917037 14.306641 8.002728 14.306641 11.439453 C 14.306641 14.647829 15.170967 17.300809 16.378906 19.382812 C 18.255262 22.614232 20.929551 24.48748 22.5 25.384766 L 22.5 35.320312 C 22.066774 34.702898 21.608783 34.102938 21.136719 33.513672 C 21.171632 33.286637 21.330594 32.198547 21.248047 30.703125 C 21.156447 29.043637 20.797089 26.917803 19.333984 25.234375 C 18.060841 23.769514 16.486045 22.770455 14.576172 22.199219 C 12.666299 21.627982 10.435871 21.424988 7.5546875 21.335938 C 5.9418151 21.286268 4.6642451 21.483794 3.7734375 22.464844 C 3.3280337 22.955369 3.1089526 23.616458 3.0859375 24.1875 C 3.0629225 24.758542 3.1861181 25.259127 3.3535156 25.724609 C 4.0231059 27.58654 5.5068676 29.265316 6.1777344 30.263672 C 7.2126145 31.803512 8.1159421 33.449792 9.359375 34.837891 C 10.602808 36.225989 12.364498 37.34375 14.607422 37.34375 C 16.534695 37.34375 18.040859 36.700976 19.203125 35.859375 C 20.429313 37.455112 21.51383 39.188401 22.5 41.035156 L 22.5 43.517578 A 1.50015 1.50015 0 1 0 25.5 43.517578 L 25.5 40.972656 C 26.813386 38.522586 28.297751 36.269438 30.068359 34.283203 C 31.139089 34.968435 32.516427 35.487091 34.255859 35.486328 C 36.295092 35.486328 37.92609 34.572654 39.087891 33.416016 C 40.249691 32.259377 41.081244 30.905165 42.017578 29.662109 C 42.611596 28.873366 43.977447 27.530535 44.638672 25.890625 C 44.803978 25.480647 44.934992 25.02034 44.910156 24.470703 C 44.885316 23.921067 44.634334 23.274818 44.189453 22.837891 C 43.299691 21.964037 42.16858 21.848194 40.699219 21.888672 C 38.068065 21.960902 36.034199 22.124559 34.289062 22.589844 C 32.543926 23.055129 31.088193 23.876205 29.898438 25.097656 C 27.41947 27.642665 27.973352 31.1935 28.130859 31.984375 C 27.181608 33.024719 26.307007 34.121986 25.5 35.267578 L 25.5 25.679688 C 26.814869 24.714092 33.693359 19.293761 33.693359 11.439453 C 33.693359 7.9106942 32.087442 5.4912589 29.992188 4.3066406 C 27.896931 3.1220223 25.523229 2.9824219 23.644531 2.9824219 z M 23.644531 5.9824219 C 25.327833 5.9824219 27.226881 6.189337 28.515625 6.9179688 C 29.804369 7.6466005 30.693359 8.7072123 30.693359 11.439453 C 30.693359 16.058521 27.488712 19.754686 25.5 21.621094 L 25.5 11.728516 A 1.50015 1.50015 0 0 0 23.976562 10.207031 A 1.50015 1.50015 0 0 0 22.5 11.728516 L 22.5 21.820312 C 21.420328 21.042296 20.097682 19.811083 18.974609 17.876953 C 18.004548 16.204956 17.306641 14.117078 17.306641 11.439453 C 17.306641 9.0521785 18.420402 7.7303744 20.035156 6.8613281 L 20.037109 6.8613281 C 21.122948 6.2766207 22.447866 5.9824219 23.644531 5.9824219 z M 7.4628906 24.335938 C 10.243708 24.421888 12.25067 24.633752 13.716797 25.072266 C 15.182924 25.510779 16.123503 26.115986 17.068359 27.203125 C 17.723371 27.956772 18.065175 29.170325 18.195312 30.335938 C 16.859009 29.094701 15.383643 27.963303 13.716797 26.990234 A 1.5007177 1.5007177 0 0 0 12.203125 29.582031 C 14.128047 30.70576 15.777978 32.062517 17.244141 33.587891 C 16.597154 34.051697 15.809931 34.34375 14.607422 34.34375 C 13.257345 34.34375 12.505567 33.855792 11.59375 32.837891 C 10.681938 31.819989 9.7890885 30.258004 8.6679688 28.589844 C 7.8188354 27.326199 6.503691 25.622757 6.1757812 24.710938 C 6.1268033 24.574745 6.1305706 24.541225 6.1191406 24.470703 C 6.0951146 24.517223 6.3377409 24.301284 7.4628906 24.335938 z M 40.78125 24.888672 C 41.592122 24.866332 41.619425 24.933635 41.720703 24.953125 C 41.383925 25.621744 40.367324 26.86657 39.621094 27.857422 C 38.588427 29.228366 37.778153 30.487154 36.970703 31.291016 C 36.163254 32.094877 35.498627 32.486328 34.255859 32.486328 L 34.253906 32.486328 C 33.394054 32.486705 32.780787 32.336836 32.275391 32.097656 C 33.336698 31.172952 34.48393 30.324557 35.755859 29.582031 A 1.5002252 1.5002252 0 0 0 34.244141 26.990234 C 33.155636 27.62568 32.152897 28.332591 31.210938 29.087891 C 31.332254 28.388079 31.57054 27.680431 32.046875 27.191406 C 32.884119 26.331857 33.723636 25.845246 35.0625 25.488281 C 36.401364 25.131316 38.239404 24.958446 40.78125 24.888672 z"/></svg>