<svg xmlns="http://www.w3.org/2000/svg"  viewBox="0 0 48 48" width="50px" height="50px"><path d="M36.312,21.165l6.074-4.455c0.668-0.49,0.813-1.429,0.323-2.097c-0.49-0.669-1.431-0.811-2.097-0.323l-6.683,4.901	l9.631-9.631c0.586-0.586,0.586-1.535,0-2.121s-1.535-0.586-2.121,0l-3.598,3.598c0.909-2.111,1.408-4.378,1.15-6.704	c-0.093-0.823-0.837-1.416-1.657-1.325c-0.823,0.092-1.416,0.834-1.325,1.657c0.731,6.576-6.648,13.158-9.375,15.348	c-0.41-0.037-0.825,0.089-1.142,0.375L9.195,35.165c-1.094,0.969-1.672,2.36-1.585,3.819c0.108,1.819,1.221,3.384,2.902,4.084	c0.594,0.248,1.214,0.368,1.828,0.368c1.125,0,2.23-0.406,3.114-1.185c0.007-0.006,0.013-0.012,0.019-0.018L27.46,31.315	c0.311-0.282,0.488-0.681,0.49-1.1l0-0.033c2.922-2.784,10.425-8.681,13.489-5.622c0.586,0.586,1.535,0.586,2.121,0	s0.586-1.535,0-2.121C41.544,20.422,38.929,20.345,36.312,21.165z M24.954,29.541L13.465,40.007	c-0.507,0.442-1.18,0.551-1.799,0.292c-0.624-0.26-1.021-0.817-1.062-1.492c-0.031-0.525,0.186-1.047,0.593-1.407L24.98,24.902	L24.954,29.541z"/></svg>