<svg xmlns="http://www.w3.org/2000/svg"  viewBox="0 0 48 48" width="50px" height="50px"><path d="M 12.001953 5.1367188 C 10.908421 5.1618519 9.7973551 5.4235881 8.71875 5.9628906 C 4.9850684 7.8297314 3.237888 12.22762 4.6582031 16.150391 C 4.6871574 16.246255 6.1863322 21.136738 11.058594 28.046875 C 10.388474 29.215525 10 30.56309 10 32 C 10 35.627692 11.463359 38.291278 13.478516 39.869141 C 15.493672 41.447004 17.926448 42 20 42 L 20.5 42 C 28.870313 42 34.90981 38.809759 38.681641 33.980469 C 42.453471 29.151178 44 22.821914 44 16.5 C 44 11.823343 40.176657 8 35.5 8 C 32.00087 8 28.979371 10.141 27.679688 13.177734 C 25.189485 13.935448 23.657228 13.624663 22.535156 12.998047 C 21.360469 12.342058 20.560941 11.212583 20.019531 10.183594 C 18.404812 7.1149284 15.282549 5.0613191 12.001953 5.1367188 z M 12.160156 8.1054688 C 14.244671 8.0473894 16.207954 9.3807454 17.365234 11.580078 C 18.040825 12.864089 19.147703 14.542431 21.072266 15.617188 C 22.596298 16.46827 24.601072 16.838494 27.003906 16.416016 C 27.003626 16.444316 27 16.471637 27 16.5 C 27 20.666333 23.8285 24 18.5 24 L 18 24 C 16.151453 24 14.448228 24.640255 13.089844 25.703125 C 8.7471494 19.392399 7.5078125 15.234375 7.5078125 15.234375 A 1.50015 1.50015 0 0 0 7.4785156 15.144531 C 6.5573543 12.625592 7.6621538 9.8456809 10.060547 8.6464844 C 10.756942 8.2982869 11.465318 8.1248285 12.160156 8.1054688 z M 35.5 11 C 38.555343 11 41 13.444657 41 16.5 C 41 22.328086 39.546529 27.999604 36.318359 32.132812 C 33.09019 36.266022 28.129687 39 20.5 39 L 20 39 C 18.483552 39 16.665469 38.552996 15.328125 37.505859 C 13.990781 36.458722 13 34.872308 13 32 C 13 29.220585 15.220585 27 18 27 L 18.5 27 C 18.793676 27 19.078955 26.978933 19.365234 26.960938 C 20.835293 28.240163 22.824287 29 25 29 C 29.275794 29 33 25.995867 33 22 C 33 19.757597 31.77545 17.794491 29.998047 16.544922 C 29.998113 16.529793 30 16.515143 30 16.5 C 30 13.444657 32.444657 11 35.5 11 z M 29.347656 20.035156 C 29.768696 20.62573 30 21.294354 30 22 C 30 24.080133 27.904206 26 25 26 C 24.579139 26 24.174538 25.953513 23.787109 25.875 C 26.422774 24.669093 28.391985 22.578295 29.347656 20.035156 z"/></svg>