<svg xmlns="http://www.w3.org/2000/svg"  viewBox="0 0 48 48" width="50px" height="50px"><path d="M 24 3 C 12.41978 3 3 12.419789 3 24 C 3 35.580211 12.41978 45 24 45 C 35.58022 45 45 35.580211 45 24 C 45 12.419789 35.58022 3 24 3 z M 24 6 C 33.9589 6 42 14.041106 42 24 C 42 33.958894 33.9589 42 24 42 C 14.0411 42 6 33.958894 6 24 C 6 14.041106 14.0411 6 24 6 z M 26.5 8 A 1.5 1.5 0 0 0 26.5 11 A 1.5 1.5 0 0 0 26.5 8 z M 31.5 12 A 1.5 1.5 0 0 0 31.5 15 A 1.5 1.5 0 0 0 31.5 12 z M 24 15 C 19.047202 15 15 19.047206 15 24 C 15 28.952794 19.047202 33 24 33 C 28.952798 33 33 28.952794 33 24 C 33 19.047206 28.952798 15 24 15 z M 11.5 17 A 1.5 1.5 0 0 0 11.5 20 A 1.5 1.5 0 0 0 11.5 17 z M 24 18 C 27.331479 18 30 20.668523 30 24 C 30 27.331477 27.331479 30 24 30 C 20.668521 30 18 27.331477 18 24 C 18 20.668523 20.668521 18 24 18 z M 9.5 22 A 1.5 1.5 0 0 0 9.5 25 A 1.5 1.5 0 0 0 9.5 22 z M 38.5 25 A 1.5 1.5 0 0 0 38.5 28 A 1.5 1.5 0 0 0 38.5 25 z M 36.5 30 A 1.5 1.5 0 0 0 36.5 33 A 1.5 1.5 0 0 0 36.5 30 z M 16.5 34 A 1.5 1.5 0 0 0 16.5 37 A 1.5 1.5 0 0 0 16.5 34 z M 21.5 36 A 1.5 1.5 0 0 0 21.5 39 A 1.5 1.5 0 0 0 21.5 36 z"/></svg>