<svg xmlns="http://www.w3.org/2000/svg"  viewBox="0 0 48 48" width="50px" height="50px"><path d="M 29.5 3 C 22.325157 3 16.26844 7.8947144 14.515625 14.539062 C 7.8985663 16.305274 3 22.33636 3 29.5 C 3 38.042645 9.9573486 45 18.5 45 C 25.664304 45 31.695352 40.100404 33.460938 33.482422 C 40.10251 31.729184 45 25.675123 45 18.5 C 45 9.957343 38.042657 3 29.5 3 z M 29.5 6 C 36.421343 6 42 11.578657 42 18.5 C 42 23.843609 38.662284 28.37949 33.966797 30.173828 C 33.976555 29.948783 34 29.727393 34 29.5 C 34 20.957355 27.042651 14 18.5 14 C 18.274579 14 18.055146 14.023613 17.832031 14.033203 C 19.62797 9.3412747 24.158516 6 29.5 6 z M 30.5 8 A 1.5 1.5 0 0 0 30.5 11 A 1.5 1.5 0 0 0 30.5 8 z M 24.5 10 A 1.5 1.5 0 0 0 24.5 13 A 1.5 1.5 0 0 0 24.5 10 z M 37.5 13 A 1.5 1.5 0 0 0 37.5 16 A 1.5 1.5 0 0 0 37.5 13 z M 31.5 14 A 1.5 1.5 0 0 0 31.5 17 A 1.5 1.5 0 0 0 31.5 14 z M 18.5 17 C 25.421332 17 31 22.578672 31 29.5 C 31 36.421328 25.421332 42 18.5 42 C 11.578668 42 6 36.421328 6 29.5 C 6 22.578672 11.578668 17 18.5 17 z M 16.5 21 A 1.5 1.5 0 0 0 16.5 24 A 1.5 1.5 0 0 0 16.5 21 z M 36.5 21 A 1.5 1.5 0 0 0 36.5 24 A 1.5 1.5 0 0 0 36.5 21 z M 24.5 22 A 1.5 1.5 0 0 0 24.5 25 A 1.5 1.5 0 0 0 24.5 22 z M 10.5 25 A 1.5 1.5 0 0 0 10.5 28 A 1.5 1.5 0 0 0 10.5 25 z M 17.5 28 A 1.5 1.5 0 0 0 17.5 31 A 1.5 1.5 0 0 0 17.5 28 z M 25.5 30 A 1.5 1.5 0 0 0 25.5 33 A 1.5 1.5 0 0 0 25.5 30 z M 12.5 34 A 1.5 1.5 0 0 0 12.5 37 A 1.5 1.5 0 0 0 12.5 34 z M 20.5 36 A 1.5 1.5 0 0 0 20.5 39 A 1.5 1.5 0 0 0 20.5 36 z"/></svg>