<svg xmlns="http://www.w3.org/2000/svg"  viewBox="0 0 48 48" width="50px" height="50px"><path d="M 23.943359 2.0019531 A 1.50015 1.50015 0 0 0 22.689453 2.7695312 C 22.689453 2.7695312 21.912941 4.1625739 21.078125 5.8164062 C 20.243309 7.4702386 19.352975 9.2427608 19.035156 10.675781 C 18.697342 12.197155 19.368869 13.644269 20.345703 14.554688 C 20.46351 14.664485 20.623362 14.711959 20.75 14.810547 C 20.31483 15.450278 20 16.176531 20 17 L 20 23 L 12.5 23 C 9.4802259 23 7 25.480226 7 28.5 L 7 31.5 L 7 43 L 4.5 43 A 1.50015 1.50015 0 1 0 4.5 46 L 43.5 46 A 1.50015 1.50015 0 1 0 43.5 43 L 41 43 L 41 31.5 L 41 28.5 C 41 25.480226 38.519774 23 35.5 23 L 28 23 L 28 17 C 28 16.176531 27.68517 15.450278 27.25 14.810547 C 27.376638 14.711957 27.53649 14.664485 27.654297 14.554688 C 28.631131 13.64427 29.302658 12.197155 28.964844 10.675781 C 28.647025 9.2427608 27.756691 7.4702386 26.921875 5.8164062 C 26.087059 4.1625739 25.310547 2.7695313 25.310547 2.7695312 A 1.50015 1.50015 0 0 0 23.943359 2.0019531 z M 24 6.7089844 C 24.120208 6.9414108 24.116738 6.9194444 24.242188 7.1679688 C 25.045372 8.7591364 25.904975 10.737239 26.035156 11.324219 C 26.116346 11.689845 26.004046 11.991543 25.609375 12.359375 C 25.214709 12.727207 24.549273 13 24 13 C 23.450727 13 22.785291 12.727207 22.390625 12.359375 C 21.995959 11.991543 21.883658 11.689845 21.964844 11.324219 C 22.095025 10.737239 22.954628 8.7591363 23.757812 7.1679688 C 23.883262 6.9194444 23.879792 6.9414108 24 6.7089844 z M 24 16 C 24.570718 16 25 16.429282 25 17 L 25 23 L 23 23 L 23 17 C 23 16.429282 23.429282 16 24 16 z M 12.5 26 L 21.5 26 L 26.5 26 L 35.5 26 C 36.898226 26 38 27.101774 38 28.5 L 38 31.5 C 38 32.337067 37.714104 32.862828 37.212891 33.287109 C 36.711677 33.71139 35.937671 34 35 34 C 34.062329 34 33.288323 33.71139 32.787109 33.287109 C 32.285896 32.862828 32 32.337067 32 31.5 A 1.50015 1.50015 0 0 0 31.994141 31.349609 A 1.50015 1.50015 0 0 0 31.939453 31.056641 A 1.50015 1.50015 0 0 0 31.890625 30.914062 A 1.50015 1.50015 0 0 0 31.826172 30.777344 A 1.50015 1.50015 0 0 0 31.328125 30.228516 A 1.50015 1.50015 0 0 0 30.921875 30.039062 A 1.50015 1.50015 0 0 0 30.775391 30.003906 A 1.50015 1.50015 0 0 0 30.476562 29.978516 A 1.50015 1.50015 0 0 0 30.328125 29.988281 A 1.50015 1.50015 0 0 0 30.179688 30.013672 A 1.50015 1.50015 0 0 0 30.035156 30.052734 A 1.50015 1.50015 0 0 0 29.894531 30.105469 A 1.50015 1.50015 0 0 0 29.634766 30.253906 A 1.50015 1.50015 0 0 0 29.515625 30.345703 A 1.50015 1.50015 0 0 0 29.408203 30.449219 A 1.50015 1.50015 0 0 0 29.310547 30.564453 A 1.50015 1.50015 0 0 0 29.226562 30.6875 A 1.50015 1.50015 0 0 0 29.152344 30.818359 A 1.50015 1.50015 0 0 0 29.09375 30.957031 A 1.50015 1.50015 0 0 0 29.048828 31.099609 A 1.50015 1.50015 0 0 0 29.017578 31.246094 A 1.50015 1.50015 0 0 0 29.001953 31.394531 A 1.50015 1.50015 0 0 0 29 31.5 C 29 32.138878 28.688549 32.623929 27.808594 33.134766 C 26.928639 33.645603 25.533571 34 24 34 C 23.053 34 21.571271 33.661059 20.509766 33.103516 C 19.44826 32.545973 19 31.937671 19 31.5 A 1.50015 1.50015 0 0 0 18.994141 31.349609 A 1.50015 1.50015 0 0 0 18.826172 30.777344 A 1.50015 1.50015 0 0 0 18.660156 30.529297 A 1.50015 1.50015 0 0 0 18.560547 30.417969 A 1.50015 1.50015 0 0 0 18.328125 30.228516 A 1.50015 1.50015 0 0 0 18.0625 30.087891 A 1.50015 1.50015 0 0 0 17.921875 30.039062 A 1.50015 1.50015 0 0 0 17.775391 30.003906 A 1.50015 1.50015 0 0 0 17.328125 29.988281 A 1.50015 1.50015 0 0 0 17.179688 30.013672 A 1.50015 1.50015 0 0 0 16.634766 30.253906 A 1.50015 1.50015 0 0 0 16.408203 30.449219 A 1.50015 1.50015 0 0 0 16.310547 30.564453 A 1.50015 1.50015 0 0 0 16.226562 30.6875 A 1.50015 1.50015 0 0 0 16.152344 30.818359 A 1.50015 1.50015 0 0 0 16.048828 31.099609 A 1.50015 1.50015 0 0 0 16.001953 31.394531 A 1.50015 1.50015 0 0 0 16 31.5 C 16 32.337067 15.714104 32.862828 15.212891 33.287109 C 14.711677 33.71139 13.937671 34 13 34 C 12.062329 34 11.288323 33.71139 10.787109 33.287109 C 10.285896 32.862828 10 32.337067 10 31.5 L 10 28.5 C 10 27.101774 11.101774 26 12.5 26 z M 17.792969 34.730469 C 18.227546 35.094462 18.633287 35.506629 19.115234 35.759766 C 20.678729 36.580973 22.447 37 24 37 C 25.966429 37 27.821361 36.596429 29.316406 35.728516 C 29.698377 35.506771 29.961737 35.136899 30.289062 34.835938 C 30.485722 35.076526 30.614921 35.377506 30.849609 35.576172 C 31.977146 36.530641 33.452671 37 35 37 C 36.064862 37 37.09317 36.771986 38 36.322266 L 38 43 L 10 43 L 10 36.322266 C 10.90683 36.771986 11.935138 37 13 37 C 14.547329 37 16.022854 36.530641 17.150391 35.576172 C 17.418848 35.34892 17.574809 35.011989 17.792969 34.730469 z"/></svg>