<svg xmlns="http://www.w3.org/2000/svg"  viewBox="0 0 48 48" width="50px" height="50px"><path d="M 35.5 3 C 33.34375 3 31.741295 3.3275948 30.517578 3.9394531 C 29.293861 4.5513115 28.485488 5.498195 28.107422 6.4433594 C 28.089802 6.4874084 28.10972 6.5166984 28.09375 6.5605469 C 27.295974 6.208771 26.423279 6 25.5 6 C 23.458334 6 21.737148 6.8196335 20.628906 8.0664062 C 19.520664 9.3131791 19 10.916667 19 12.5 C 19 13.729815 19.420492 14.922346 20.080078 16 L 16 16 L 11.5 16 L 11 16 C 8.256343 16 6 18.256343 6 21 C 6 21.086414 6.0092506 21.170468 6.0136719 21.255859 C 6.0100087 21.337519 6 21.417495 6 21.5 L 6 39.5 C 6 42.519774 8.4802259 45 11.5 45 L 37.5 45 C 40.519774 45 43 42.519774 43 39.5 L 43 21.5 C 43 21.417495 42.989991 21.337519 42.986328 21.255859 C 42.990749 21.170468 43 21.086414 43 21 C 43 18.256343 40.743657 16 38 16 L 37.5 16 L 33 16 L 30.826172 16 C 31.505914 14.973489 32 13.815092 32 12.5 C 32 11.281116 31.567649 10.2008 30.976562 9.2226562 A 1.50015 1.50015 0 0 0 30.892578 8.9433594 C 30.892578 8.9433594 30.64871 8.1663119 30.892578 7.5566406 C 31.014508 7.251805 31.206139 6.9486885 31.857422 6.6230469 C 32.508705 6.2974052 33.65625 6 35.5 6 A 1.50015 1.50015 0 1 0 35.5 3 z M 25.5 9 C 27.450766 9 29 10.549235 29 12.5 C 29 14.450765 27.450766 16 25.5 16 C 24.208334 16 23.429518 15.569633 22.871094 14.941406 C 22.31267 14.313179 22 13.416667 22 12.5 C 22 11.583333 22.31267 10.686821 22.871094 10.058594 C 23.429518 9.4303663 24.208334 9 25.5 9 z M 11.5 19 L 16 19 L 25.5 19 L 33 19 L 37.5 19 C 38.81455 19 39.855295 19.97738 39.976562 21.255859 C 39.853434 22.251398 39.034442 23 38 23 C 37.451385 23 36.983331 22.77286 36.597656 22.375 A 1.50015 1.50015 0 0 0 34.4375 22.380859 C 34.06695 22.766493 33.571637 23 33 23 L 32.5 23 C 31.945066 23 31.472771 22.769 31.085938 22.363281 A 1.50015 1.50015 0 0 0 28.916016 22.363281 C 28.528537 22.769066 28.053926 23 27.5 23 L 27 23 C 26.445066 23 25.972771 22.769 25.585938 22.363281 A 1.50015 1.50015 0 0 0 23.416016 22.363281 C 23.028537 22.769066 22.553926 23 22 23 L 21.5 23 C 20.945066 23 20.472771 22.769 20.085938 22.363281 A 1.50015 1.50015 0 0 0 17.916016 22.363281 C 17.528537 22.769066 17.053926 23 16.5 23 L 16 23 C 15.428363 23 14.93305 22.766534 14.5625 22.380859 A 1.50015 1.50015 0 0 0 12.404297 22.375 C 12.017086 22.773815 11.547173 23 11 23 C 9.9655577 23 9.1465664 22.251398 9.0234375 21.255859 C 9.1447045 19.97738 10.18545 19 11.5 19 z M 19 25.207031 C 19.738298 25.660402 20.55829 26 21.5 26 L 22 26 C 22.94269 26 23.761989 25.660454 24.5 25.207031 C 25.238298 25.660402 26.05829 26 27 26 L 27.5 26 C 28.44269 26 29.261989 25.660454 30 25.207031 C 30.738298 25.660402 31.55829 26 32.5 26 L 33 26 C 33.93528 26 34.763659 25.667743 35.513672 25.216797 C 36.248262 25.664425 37.063848 26 38 26 C 38.710411 26 39.385641 25.844105 40 25.572266 L 40 29 L 9 29 L 9 25.572266 C 9.6143586 25.844105 10.289589 26 11 26 C 11.935595 26 12.750004 25.664021 13.484375 25.216797 C 14.23469 25.668253 15.064144 26 16 26 L 16.5 26 C 17.44269 26 18.261989 25.660454 19 25.207031 z M 9 32 L 40 32 L 40 36 L 9 36 L 9 32 z M 9 39 L 40 39 L 40 39.5 C 40 40.898226 38.898226 42 37.5 42 L 11.5 42 C 10.101774 42 9 40.898226 9 39.5 L 9 39 z"/></svg>