<svg xmlns="http://www.w3.org/2000/svg"  viewBox="0 0 48 48" width="50px" height="50px"><path d="M 24 3 C 14.6 3 7 16.599219 7 28.199219 C 7 39.799219 14.6 45 24 45 C 33.4 45 41 39.799219 41 28.199219 C 41 16.599219 33.4 3 24 3 z M 24 6 C 31.5 6 38 18.199219 38 28.199219 C 38 40.699219 28.2 42 24 42 C 19.8 42 10 40.699219 10 28.199219 C 10 18.199219 16.5 6 24 6 z M 18.5 24 A 1.5 1.5 0 0 0 18.5 27 A 1.5 1.5 0 0 0 18.5 24 z M 29.5 24 A 1.5 1.5 0 0 0 29.5 27 A 1.5 1.5 0 0 0 29.5 24 z M 18.546875 28.988281 A 1.50015 1.50015 0 0 0 17.617188 31.712891 C 21.430115 34.485929 26.569884 34.485929 30.382812 31.712891 A 1.5001539 1.5001539 0 1 0 28.617188 29.287109 C 25.830116 31.314071 22.169884 31.314071 19.382812 29.287109 A 1.50015 1.50015 0 0 0 18.546875 28.988281 z"/></svg>