<svg xmlns="http://www.w3.org/2000/svg"  viewBox="0 0 48 48" width="50px" height="50px"><path d="M 21.912109 7.5039062 C 21.034892 7.5054169 20.34783 7.5214844 19.921875 7.5214844 C 15.569416 7.5214844 11.535143 9.0136531 8.6015625 11.863281 C 5.667982 14.71291 3.890625 18.898737 3.890625 24.007812 C 3.890625 33.06982 11.059967 40.492188 19.921875 40.492188 C 26.213346 40.492188 31.568043 36.692133 34.1875 31.279297 C 39.700544 30.92755 44.126953 26.427029 44.126953 20.828125 C 44.126953 17.275058 42.718129 14.464123 40.611328 12.517578 C 38.504527 10.571034 35.781332 9.4249022 33.023438 8.7050781 C 28.886595 7.625342 24.543761 7.4993744 21.912109 7.5039062 z M 21.982422 10.511719 C 24.574866 10.516551 28.573592 10.645736 32.265625 11.609375 C 34.72698 12.251801 36.995082 13.261685 38.574219 14.720703 C 40.153355 16.179721 41.126953 18.024192 41.126953 20.828125 C 41.126953 25.033519 37.750316 28.410156 33.544922 28.410156 C 33.570562 28.410156 33.501692 28.404258 33.333984 28.398438 A 1.50015 1.50015 0 0 0 31.898438 29.322266 C 29.899013 34.140164 25.293896 37.492186 19.921875 37.492188 C 12.731783 37.492187 6.890625 31.497805 6.890625 24.007812 C 6.890625 19.580889 8.3659869 16.272543 10.691406 14.013672 C 13.016826 11.7548 16.248334 10.521484 19.921875 10.521484 C 20.40992 10.521484 21.118274 10.510108 21.982422 10.511719 z M 15.5 21 A 1.5 1.5 0 0 0 15.5 24 A 1.5 1.5 0 0 0 15.5 21 z M 26.5 21 A 1.5 1.5 0 0 0 26.5 24 A 1.5 1.5 0 0 0 26.5 21 z M 15.546875 25.988281 A 1.50015 1.50015 0 0 0 14.617188 28.712891 C 18.417325 31.476944 23.582675 31.476944 27.382812 28.712891 A 1.5001539 1.5001539 0 1 0 25.617188 26.287109 C 22.859326 28.293056 19.140674 28.293056 16.382812 26.287109 A 1.50015 1.50015 0 0 0 15.546875 25.988281 z"/></svg>