<svg xmlns="http://www.w3.org/2000/svg"  viewBox="0 0 48 48" width="50px" height="50px"><path d="M 31.560547 4.3007812 C 31.399821 4.2984913 31.23786 4.3047011 31.074219 4.3203125 L 16.074219 5.7480469 C 13.777234 5.965813 12 7.9213342 12 10.228516 L 12 10.306641 C 9.7170242 10.976029 8 13.011198 8 15.5 L 8 17.5 A 1.50015 1.50015 0 0 0 9.5 19 L 10.222656 19 L 13.480469 39.369141 C 13.906421 42.026208 16.218439 44 18.910156 44 L 29.089844 44 C 31.781561 44 34.093579 42.026208 34.519531 39.369141 L 37.777344 19 L 38.5 19 A 1.50015 1.50015 0 0 0 40 17.5 L 40 15.5 C 40 13.011198 38.282976 10.976034 36 10.306641 L 36 8.7988281 C 36 6.3332609 33.97144 4.3351302 31.560547 4.3007812 z M 31.357422 7.3066406 A 1.50015 1.50015 0 0 0 31.359375 7.3066406 C 32.263066 7.2204237 33 7.8907665 33 8.7988281 L 33 10 L 15.085938 10 C 15.196627 9.3372973 15.662563 8.8002512 16.357422 8.734375 L 31.357422 7.3066406 z M 13.740234 13 L 34.5 13 C 35.898226 13 37 14.101774 37 15.5 L 37 16 L 11 16 L 11 15.5 C 11 14.119639 12.082325 13.047196 13.455078 13.019531 A 1.50015 1.50015 0 0 0 13.740234 13 z M 13.257812 19 L 34.742188 19 L 32.181641 35 L 29.5 35 A 1.50015 1.50015 0 1 0 29.5 38 L 31.701172 38 L 31.558594 38.894531 C 31.362546 40.117464 30.328126 41 29.089844 41 L 18.910156 41 C 17.671874 41 16.637454 40.117464 16.441406 38.894531 L 16.298828 38 L 18.5 38 A 1.50015 1.50015 0 1 0 18.5 35 L 15.818359 35 L 13.257812 19 z M 19.5 22 A 1.5 1.5 0 0 0 19.5 25 A 1.5 1.5 0 0 0 19.5 22 z M 28.5 22 A 1.5 1.5 0 0 0 28.5 25 A 1.5 1.5 0 0 0 28.5 22 z M 28.587891 26.976562 A 1.50015 1.50015 0 0 0 27.503906 27.378906 C 25.497337 29.162611 22.502663 29.162611 20.496094 27.378906 A 1.50015 1.50015 0 0 0 19.544922 26.986328 A 1.50015 1.50015 0 0 0 18.503906 29.621094 C 21.629337 32.399389 26.370663 32.399389 29.496094 29.621094 A 1.50015 1.50015 0 0 0 28.587891 26.976562 z"/></svg>