<svg xmlns="http://www.w3.org/2000/svg"  viewBox="0 0 48 48" width="50px" height="50px"><path d="M 19.048828 9.0410156 C 15.451795 9.0410156 12.513437 11.600699 11.751953 14.880859 L 11.517578 14.880859 C 7.7989735 14.880859 5.0188842 18.448733 5.9277344 22.054688 L 6.0585938 22.572266 L 2.7558594 25.916016 C -1.4664954 30.148998 2.4768105 37.042231 7.4082031 36.019531 C 8.1940049 35.85598 9.4525247 35.537987 10.728516 35.210938 C 11.88344 36.106917 13.327396 36.630859 14.865234 36.630859 L 15.496094 36.630859 C 16.504079 38.041077 18.139296 38.957031 19.960938 38.957031 L 28.039062 38.957031 C 29.860615 38.957031 31.494471 38.041446 32.501953 36.630859 L 33.134766 36.630859 C 34.662935 36.630859 36.096921 36.110199 37.248047 35.224609 C 38.521139 35.550796 39.746237 35.856805 40.529297 36.019531 C 45.460688 37.04223 49.403991 30.148998 45.181641 25.916016 L 45.175781 25.910156 L 41.929688 22.621094 L 42.072266 22.054688 C 42.98276 18.448861 40.201387 14.880859 36.482422 14.880859 L 36.248047 14.880859 C 35.486814 11.600639 32.546927 9.0410156 28.949219 9.0410156 L 19.048828 9.0410156 z M 19.048828 12.041016 L 28.949219 12.041016 C 31.772742 12.041016 33.866443 14.530489 33.382812 17.3125 L 30.501953 33.886719 C 30.292028 35.095207 29.265297 35.957031 28.039062 35.957031 L 19.960938 35.957031 C 18.735218 35.957031 17.705922 35.094019 17.496094 33.886719 L 14.615234 17.3125 C 14.573037 17.069764 14.556895 16.830578 14.552734 16.59375 A 1.50015 1.50015 0 0 0 14.560547 16.203125 C 14.717704 13.902089 16.609342 12.041016 19.048828 12.041016 z M 11.517578 17.880859 L 11.669922 17.880859 L 14.400391 33.591797 C 12.87761 33.403608 11.609888 32.316489 11.226562 30.794922 L 8.8378906 21.322266 L 8.8378906 21.320312 C 8.3902265 19.539079 9.6808775 17.880859 11.517578 17.880859 z M 36.328125 17.880859 L 36.482422 17.880859 C 38.319457 17.880859 39.611615 19.540139 39.162109 21.320312 L 36.773438 30.794922 C 36.390029 32.316162 35.121057 33.404142 33.597656 33.591797 L 36.328125 17.880859 z M 19.5 21 A 1.5 1.5 0 0 0 19.5 24 A 1.5 1.5 0 0 0 19.5 21 z M 28.5 21 A 1.5 1.5 0 0 0 28.5 24 A 1.5 1.5 0 0 0 28.5 21 z M 28.417969 25.53125 A 1.50015 1.50015 0 0 0 27.478516 25.830078 C 25.399778 27.34196 22.598269 27.34196 20.519531 25.830078 A 1.5003692 1.5003692 0 1 0 18.755859 28.257812 C 21.877122 30.527932 26.122878 30.527931 29.244141 28.257812 A 1.50015 1.50015 0 0 0 28.417969 25.53125 z M 6.9160156 25.972656 L 8.3183594 31.529297 C 8.4137184 31.907814 8.5406632 32.271395 8.6953125 32.619141 C 8.0309405 32.782478 7.1976308 32.998997 6.7988281 33.082031 C 4.9626404 33.46283 2.3632579 30.550805 4.8828125 28.03125 A 1.50015 1.50015 0 0 0 4.8886719 28.025391 L 6.9160156 25.972656 z M 41.070312 26.023438 L 43.048828 28.023438 A 1.50015 1.50015 0 0 0 43.054688 28.03125 C 45.574241 30.550805 42.974858 33.46283 41.138672 33.082031 C 40.747281 33.000697 39.945796 32.794163 39.296875 32.634766 C 39.454791 32.282229 39.584796 31.913548 39.681641 31.529297 L 41.070312 26.023438 z"/></svg>