<svg xmlns="http://www.w3.org/2000/svg"  viewBox="0 0 48 48" width="50px" height="50px"><path d="M 24 2 C 17.19375 2 10.917245 4.7624424 6.4394531 9.2402344 A 1.50015 1.50015 0 0 0 6.1191406 10.886719 L 19.919922 43.386719 A 1.50015 1.50015 0 0 0 19.923828 43.398438 C 21.404962 46.805045 26.495429 46.805045 27.976562 43.398438 A 1.50015 1.50015 0 0 0 27.978516 43.390625 L 41.878906 10.890625 A 1.50015 1.50015 0 0 0 41.560547 9.2402344 C 37.082755 4.7624424 30.80625 2 24 2 z M 24 5 C 29.641458 5 34.816484 7.2138803 38.681641 10.738281 L 37.224609 14.144531 C 33.790735 10.977856 29.098088 9 24 9 C 18.896896 9 14.200391 10.982157 10.765625 14.154297 L 9.3164062 10.740234 C 13.181764 7.2147394 18.357555 5 24 5 z M 24 12 C 28.71963 12 33.026076 14.033049 35.949219 17.125 L 29.15625 33.007812 C 29.103662 33.006115 29.054066 33 29 33 C 26.8 33 25 34.8 25 37 C 25 38.07293 25.457589 39.094181 26.236328 39.835938 L 25.224609 42.201172 C 24.706155 43.393617 23.197762 43.39363 22.677734 42.203125 C 22.677734 42.203125 22.675781 42.201172 22.675781 42.201172 L 20.654297 37.441406 C 21.517494 36.505006 22 35.313721 22 34 C 22 31.22444 19.837322 29.041856 17.072266 29.003906 L 12.035156 17.142578 C 14.958507 14.040962 19.271667 12 24 12 z M 19.5 17 A 1.5 1.5 0 0 0 19.5 20 A 1.5 1.5 0 0 0 19.5 17 z M 28.5 17 A 1.5 1.5 0 0 0 28.5 20 A 1.5 1.5 0 0 0 28.5 17 z M 28.578125 21.980469 A 1.50015 1.50015 0 0 0 27.505859 22.376953 C 25.449115 24.196381 22.550885 24.196381 20.494141 22.376953 A 1.50015 1.50015 0 0 0 19.541016 21.986328 A 1.50015 1.50015 0 0 0 18.505859 24.623047 C 21.649115 27.403619 26.350885 27.403619 29.494141 24.623047 A 1.50015 1.50015 0 0 0 28.578125 21.980469 z"/></svg>