<svg xmlns="http://www.w3.org/2000/svg"  viewBox="0 0 48 48" width="50px" height="50px"><path d="M 24 1 C 22.080495 1 20.451994 2.3720488 20.080078 4.2011719 A 1.50015 1.50015 0 1 0 23.019531 4.7988281 C 23.111615 4.3459512 23.501505 4 24 4 C 24.570718 4 25 4.4292824 25 5 C 25 7.0229112 23.550646 7.9773963 23.345703 8.1074219 C 21.538843 8.220608 19.836712 8.7757846 18.291016 9.6738281 C 17.1126 9.2441651 15.863355 9 14.574219 9 C 10.702682 9 7.2459759 11.094985 4.8398438 14.283203 C 2.4337116 17.471421 1 21.775627 1 26.5 C 1 31.224373 2.4337116 35.528579 4.8398438 38.716797 C 7.2459759 41.905015 10.702682 44 14.574219 44 C 15.837475 44 17.061906 43.766326 18.21875 43.353516 C 19.96529 44.401852 21.918864 45 24 45 C 26.082043 45 28.036083 44.40075 29.783203 43.351562 C 30.940913 43.765163 32.16656 44 33.429688 44 C 36.416008 44 39.178109 42.745483 41.367188 40.707031 L 41.369141 40.705078 C 44.851733 37.47267 46.998047 32.299763 46.998047 26.496094 C 46.998047 21.774048 45.565679 17.470931 43.160156 14.283203 C 40.754586 11.095523 37.297669 9 33.427734 9 C 32.131546 9 30.878057 9.2465035 29.695312 9.6796875 C 28.812393 9.1664683 27.882921 8.7544322 26.908203 8.4804688 C 27.491592 7.5684758 28 6.466397 28 5 C 28 2.8087176 26.191282 1 24 1 z M 24.048828 11.007812 C 27.517089 11.029943 30.697824 13.343565 32.771484 17.208984 A 1.5003485 1.5003485 0 1 0 35.416016 15.791016 C 34.659969 14.38172 33.740061 13.120069 32.693359 12.039062 C 32.935836 12.016115 33.180539 12 33.427734 12 C 36.2228 12 38.801898 13.487571 40.765625 16.089844 C 42.729352 18.692116 43.998047 22.38614 43.998047 26.496094 C 43.998047 31.551324 42.076413 35.956097 39.326172 38.507812 L 39.326172 38.509766 L 39.324219 38.509766 C 37.597665 40.118157 35.586446 41 33.429688 41 C 33.193422 41 32.960919 40.982199 32.728516 40.960938 C 33.760142 39.872272 34.666487 38.606148 35.416016 37.208984 A 1.5003485 1.5003485 0 0 0 32.771484 35.791016 C 30.687855 39.675018 27.487698 42 24 42 C 20.512302 42 17.312145 39.675018 15.228516 35.791016 A 1.50015 1.50015 0 0 0 13.884766 34.980469 A 1.50015 1.50015 0 0 0 12.583984 37.208984 C 13.333753 38.606596 14.239447 39.873992 15.271484 40.962891 C 15.040643 40.983693 14.809231 41 14.574219 41 C 11.776756 41 9.1984928 39.512688 7.234375 36.910156 C 5.2702572 34.307624 4 30.612627 4 26.5 C 4 22.387373 5.2702572 18.692376 7.234375 16.089844 C 9.1984928 13.487312 11.776756 12 14.574219 12 C 14.817964 12 15.057691 12.016706 15.296875 12.039062 C 14.253517 13.12048 13.338527 14.384506 12.583984 15.791016 A 1.5003485 1.5003485 0 0 0 15.228516 17.208984 C 17.299392 13.348754 20.474668 11.038024 23.9375 11.009766 A 1.50015 1.50015 0 0 0 24.048828 11.007812 z M 18 24 A 2 2 0 0 0 18 28 A 2 2 0 0 0 18 24 z M 30 24 A 2 2 0 0 0 30 28 A 2 2 0 0 0 30 24 z M 20 31 C 19.653 31 19.330438 31.179609 19.148438 31.474609 C 18.966437 31.769609 18.950469 32.137266 19.105469 32.447266 C 19.158469 32.552266 20.423 35 24 35 C 27.577 35 28.841531 32.551266 28.894531 32.447266 C 29.049531 32.137266 29.034562 31.769609 28.851562 31.474609 C 28.668563 31.179609 28.347 31 28 31 L 20 31 z"/></svg>