<svg xmlns="http://www.w3.org/2000/svg"  viewBox="0 0 48 48" width="50px" height="50px"><path d="M 9.9824219 4 C 8.9262456 4 7.9123377 4.4196936 7.1660156 5.1660156 C 6.4192973 5.912734 5.9980469 6.9262456 5.9980469 7.9824219 L 5.9980469 11.966797 L 1.8378906 17.050781 A 1.50015 1.50015 0 0 0 2.1269531 19.220703 C 3.2769049 20.042097 4.6006086 20.566482 5.9980469 20.919922 L 5.9980469 40.029297 C 5.9980469 41.347691 6.5238423 42.611733 7.4550781 43.542969 C 8.3868571 44.474748 9.6528771 45 10.970703 45 L 38.027344 45 C 39.345738 45 40.61119 44.474748 41.542969 43.542969 C 42.475291 42.610647 42.998047 41.346036 42.998047 40.029297 L 42.998047 20.615234 C 44.196119 20.292062 45.399772 19.919493 46.619141 19.365234 A 1.50015 1.50015 0 0 0 47.160156 17.050781 L 42.998047 11.962891 L 42.998047 7.9824219 C 42.998047 6.9273672 42.57875 5.912734 41.832031 5.1660156 C 41.0862 4.4217845 40.072197 4 39.015625 4 L 9.9824219 4 z M 9.9824219 7 L 39.015625 7 C 39.277053 7 39.526722 7.1032936 39.712891 7.2890625 C 39.896984 7.4741333 39.998047 7.7203681 39.998047 7.9824219 L 39.998047 11 L 8.9980469 11 L 8.9980469 7.9824219 C 8.9980469 7.7225982 9.1018277 7.472391 9.2871094 7.2871094 C 9.4707873 7.1034314 9.7225982 7 9.9824219 7 z M 8.2089844 14 L 40.789062 14 L 43.490234 17.300781 C 39.127366 18.837537 35.299298 18.674306 31.726562 16.689453 A 1.50015 1.50015 0 0 0 30.328125 16.658203 C 25.650119 18.997206 21.855458 18.983284 17.726562 16.689453 A 1.50015 1.50015 0 0 0 16.328125 16.658203 C 12.404403 18.620064 8.3064915 18.736067 5.3652344 17.476562 L 8.2089844 14 z M 16.976562 19.599609 C 21.435496 21.826011 26.157171 21.812918 30.988281 19.599609 C 33.803661 20.99613 36.837749 21.466821 39.998047 21.128906 L 39.998047 40.029297 C 39.998047 40.552558 39.791553 41.052197 39.421875 41.421875 C 39.051654 41.792096 38.55095 42 38.027344 42 L 10.970703 42 C 10.448529 42 9.9463929 41.792096 9.5761719 41.421875 C 9.2054077 41.051111 8.9980469 40.552903 8.9980469 40.029297 L 8.9980469 21.333984 C 11.597105 21.408374 14.337048 20.801601 16.976562 19.599609 z M 17.498047 26 A 1.5 1.5 0 0 0 17.498047 29 A 1.5 1.5 0 0 0 17.498047 26 z M 30.498047 26 A 1.5 1.5 0 0 0 30.498047 29 A 1.5 1.5 0 0 0 30.498047 26 z M 20.501953 31.982422 A 1.50015 1.50015 0 0 0 19.328125 34.4375 C 20.556672 35.973184 22.248047 36.875 23.998047 36.875 C 25.748047 36.875 27.441375 35.973184 28.669922 34.4375 A 1.50015 1.50015 0 1 0 26.328125 32.5625 C 25.556672 33.526816 24.748047 33.875 23.998047 33.875 C 23.248047 33.875 22.441375 33.526816 21.669922 32.5625 A 1.50015 1.50015 0 0 0 20.501953 31.982422 z"/></svg>