<svg xmlns="http://www.w3.org/2000/svg"  viewBox="0 0 48 48" width="50px" height="50px"><path d="M 23.957031 5.0214844 C 18.949675 5.0214844 14.408773 5.935377 10.986328 7.5097656 C 9.2751059 8.2969599 7.8352837 9.2489124 6.7675781 10.410156 C 5.6998725 11.5714 5 13.003327 5 14.552734 C 5 14.757201 5.0134964 14.958239 5.0371094 15.158203 A 1.50015 1.50015 0 0 0 5 15.5 L 5 32.037109 C 5 35.396068 7.4646919 38.173279 10.912109 40.033203 C 14.359527 41.893127 18.948399 42.978516 24 42.978516 C 29.051653 42.978516 33.640503 41.893246 37.087891 40.033203 C 40.535278 38.17316 43 35.395712 43 32.037109 L 43 14.5 A 1.50015 1.50015 0 0 0 42.865234 13.859375 C 42.692113 12.577217 42.054796 11.395919 41.148438 10.410156 C 40.080731 9.2489124 38.640909 8.2969599 36.929688 7.5097656 C 33.507243 5.935377 28.964387 5.0214843 23.957031 5.0214844 z M 23.957031 8.0214844 C 28.591469 8.0214843 32.779678 8.9040665 35.675781 10.236328 C 37.123833 10.902459 38.240315 11.681019 38.939453 12.441406 C 39.638591 13.201793 39.916016 13.884443 39.916016 14.552734 C 39.916016 15.221026 39.638591 15.901722 38.939453 16.662109 C 38.240315 17.422496 37.123833 18.201056 35.675781 18.867188 C 32.779678 20.199448 28.591469 21.082031 23.957031 21.082031 C 19.322594 21.082031 15.136338 20.199449 12.240234 18.867188 C 10.792183 18.201056 9.6757002 17.422496 8.9765625 16.662109 C 8.2774248 15.901722 8 15.221026 8 14.552734 C 8 13.884443 8.2774248 13.201793 8.9765625 12.441406 C 9.6757002 11.681019 10.792183 10.902459 12.240234 10.236328 C 15.136338 8.9040665 19.322594 8.0214844 23.957031 8.0214844 z M 23.957031 12 A 8 2.51 0 0 0 23.957031 17.019531 A 8 2.51 0 0 0 23.957031 12 z M 40 19.738281 L 40 32.037109 C 40 33.893507 38.548222 35.835371 35.662109 37.392578 C 32.775997 38.949785 28.614347 39.978516 24 39.978516 C 19.385601 39.978516 15.223973 38.951608 12.337891 37.394531 C 9.4518081 35.837455 8 33.894151 8 32.037109 L 8 19.800781 C 8.8631918 20.475462 9.858537 21.074945 10.986328 21.59375 C 14.408773 23.168139 18.949675 24.082031 23.957031 24.082031 C 28.964387 24.082031 33.507243 23.168139 36.929688 21.59375 C 38.093216 21.058505 39.119078 20.439867 40 19.738281 z M 18.5 27 A 1.5 1.5 0 0 0 18.5 30 A 1.5 1.5 0 0 0 18.5 27 z M 29.5 27 A 1.5 1.5 0 0 0 29.5 30 A 1.5 1.5 0 0 0 29.5 27 z M 18.546875 31.988281 A 1.50015 1.50015 0 0 0 17.617188 34.712891 C 21.417326 37.476944 26.582674 37.476944 30.382812 34.712891 A 1.5001539 1.5001539 0 1 0 28.617188 32.287109 C 25.859326 34.293056 22.140674 34.293056 19.382812 32.287109 A 1.50015 1.50015 0 0 0 18.546875 31.988281 z"/></svg>