<svg xmlns="http://www.w3.org/2000/svg"  viewBox="0 0 48 48" width="50px" height="50px"><path d="M 13.5 4 C 12.7 4 12 4.7 12 5.5 L 12 7 L 6.5 7 C 6.1 7 5.7003906 7.2 5.4003906 7.5 C 5.1003906 7.8 5 8.1996094 5 8.5996094 L 5.6992188 17.099609 C 5.8992187 16.999609 6.2 17 6.5 17 L 8.5996094 17 L 8.0996094 10 L 12 10 L 12 17 L 15 17 L 15 7 L 19 7 L 19 17 C 20.4 17.1 21.5 18.000781 22 19.300781 L 22 9 L 26 9 L 26 19.300781 C 26.5 18.000781 27.6 17.1 29 17 L 29 7 L 33 7 L 33 17 L 36 17 L 36 10 L 39.800781 10 L 39.300781 17 L 41.5 17 C 41.8 17 42.100781 16.999609 42.300781 17.099609 L 43 8.5996094 C 43 8.1996094 42.9 7.8 42.5 7.5 C 42.2 7.2 41.800391 7 41.400391 7 L 36 7 L 36 5.5 C 36 4.7 35.3 4 34.5 4 L 27.5 4 C 26.7 4 26 4.7 26 5.5 L 26 6 L 22 6 L 22 5.5 C 22 4.7 21.3 4 20.5 4 L 13.5 4 z M 6.5 19 A 1.50015 1.50015 0 0 0 5.0195312 20.738281 L 8.0195312 39.337891 C 8.4385424 41.977896 10.712409 44 13.400391 44 L 34.599609 44 C 37.299609 44 39.545854 42.016823 40.070312 39.394531 A 1.50015 1.50015 0 0 0 40.080078 39.337891 L 43.080078 20.738281 A 1.50015 1.50015 0 0 0 41.599609 19 L 29.300781 19 A 1.50015 1.50015 0 0 0 27.865234 20.0625 C 27.348596 21.760027 25.82 23 24 23 C 22.18 23 20.651404 21.760027 20.134766 20.0625 A 1.50015 1.50015 0 0 0 18.699219 19 L 6.5 19 z M 8.2617188 22 L 17.78125 22 C 18.93818 24.32868 21.239201 26 24 26 C 26.760799 26 29.06182 24.32868 30.21875 22 L 39.837891 22 L 37.128906 38.806641 L 37.126953 38.808594 C 36.85068 40.184453 35.898672 41 34.599609 41 L 13.400391 41 C 12.289864 41 11.165239 40.023077 10.982422 38.865234 A 1.50015 1.50015 0 0 0 10.980469 38.861328 L 8.2617188 22 z M 18.5 27 A 1.5 1.5 0 0 0 18.5 30 A 1.5 1.5 0 0 0 18.5 27 z M 29.5 27 A 1.5 1.5 0 0 0 29.5 30 A 1.5 1.5 0 0 0 29.5 27 z M 18.546875 31.988281 A 1.50015 1.50015 0 0 0 17.617188 34.712891 C 21.430115 37.485929 26.569884 37.485929 30.382812 34.712891 A 1.5001539 1.5001539 0 1 0 28.617188 32.287109 C 25.830116 34.314071 22.169884 34.314071 19.382812 32.287109 A 1.50015 1.50015 0 0 0 18.546875 31.988281 z"/></svg>