<svg xmlns="http://www.w3.org/2000/svg"  viewBox="0 0 48 48" width="50px" height="50px"><path d="M 14.5 6 C 12.585045 6 11 7.5850452 11 9.5 L 11 12.945312 L 9.0273438 15.246094 A 1.50015 1.50015 0 0 0 9.0273438 15.248047 C 8.0064225 16.439769 7.97648 18.096759 8.6484375 19.267578 C 9.116364 20.082893 10.009836 20.562094 11 20.78125 L 11 35.5 C 11 37.467063 12.124232 39.108239 13.539062 40.216797 C 14.953895 41.325355 16.714031 42 18.5 42 L 30.5 42 C 34.071938 42 37 39.071938 37 35.5 L 37 21 C 37.97938 20.867882 38.886011 20.47074 39.423828 19.724609 C 40.16385 18.697953 40.34032 17.197267 39.623047 15.941406 A 1.50015 1.50015 0 0 0 39.443359 15.691406 L 37 12.931641 L 37 9.5 C 37 7.5850452 35.414955 6 33.5 6 L 14.5 6 z M 14.5 9 L 33.5 9 C 33.795045 9 34 9.2049548 34 9.5 L 34 12 L 14 12 L 14 9.5 C 14 9.2049548 14.204955 9 14.5 9 z M 13.189453 15 L 34.824219 15 L 37.015625 17.474609 C 37.111485 17.676284 37.097004 17.820618 36.990234 17.96875 C 36.873756 18.130344 36.750953 18.220957 36.486328 18.167969 L 33.722656 17.613281 C 31.669025 17.202768 30.223846 17.288885 28.230469 17.820312 L 27.167969 18.103516 C 25.117489 18.650134 22.95572 18.608574 20.927734 17.984375 C 18.735821 17.309597 16.413406 17.172096 14.158203 17.582031 L 11.773438 18.015625 C 11.465328 18.071695 11.361246 17.963864 11.251953 17.773438 C 11.142661 17.583005 11.100604 17.43745 11.304688 17.199219 L 13.189453 15 z M 31.070312 20.322266 C 31.653333 20.296786 32.235581 20.376896 33.134766 20.556641 L 34 20.730469 L 34 35.5 C 34 37.450062 32.450062 39 30.5 39 L 18.5 39 C 17.524969 39 16.285544 38.556661 15.390625 37.855469 C 14.495706 37.154276 14 36.293937 14 35.5 L 14 20.660156 L 14.695312 20.533203 C 16.47811 20.209139 18.312835 20.318341 20.044922 20.851562 C 22.610936 21.641364 25.345933 21.693335 27.939453 21.001953 L 29.001953 20.71875 C 29.903265 20.478464 30.487293 20.347749 31.070312 20.322266 z M 18.5 24 A 1.5 1.5 0 0 0 18.5 27 A 1.5 1.5 0 0 0 18.5 24 z M 29.5 24 A 1.5 1.5 0 0 0 29.5 27 A 1.5 1.5 0 0 0 29.5 24 z M 18.546875 28.988281 A 1.50015 1.50015 0 0 0 17.617188 31.712891 C 21.417326 34.476944 26.582674 34.476944 30.382812 31.712891 A 1.5001539 1.5001539 0 1 0 28.617188 29.287109 C 25.859326 31.293056 22.140674 31.293056 19.382812 29.287109 A 1.50015 1.50015 0 0 0 18.546875 28.988281 z"/></svg>