<svg xmlns="http://www.w3.org/2000/svg"  viewBox="0 0 48 48" width="50px" height="50px"><path d="M 31 3.0664062 C 30.813 3.0664062 30.626219 3.1004219 30.449219 3.1699219 C 30.105219 3.3059219 24.935422 5.4575312 21.107422 11.519531 C 22.026422 11.849531 22.965969 12.241031 23.917969 12.707031 C 26.533969 8.7510313 29.723 6.8518437 31 6.2148438 C 33.33 7.3778438 42 12.673 42 27 C 42 31.197 40.009766 34.890156 37.009766 37.035156 C 36.574766 38.215156 35.983859 39.340484 35.255859 40.396484 C 35.378859 40.649484 35.510188 40.911531 35.617188 41.144531 C 41.072187 39.094531 45 33.536 45 27 C 45 8.69 32.099781 3.3869219 31.550781 3.1699219 C 31.373781 3.1004219 31.187 3.0664062 31 3.0664062 z M 11.642578 12.013672 C 7.6752744 12.14585 5.0527344 13.273438 5.0527344 13.273438 A 1.50015 1.50015 0 0 0 4.2734375 14.052734 C 4.2734375 14.052734 2.7997987 17.478575 3.0234375 22.421875 C 3.2470763 27.365175 5.1728673 33.958024 11.607422 40.392578 C 16.923933 45.70909 25.088144 46.474575 30.646484 42.332031 C 31.80147 44.625029 32.029297 45.796875 32.029297 45.796875 A 1.5003673 1.5003673 0 0 0 34.970703 45.203125 C 34.970703 45.203125 34.547345 43.279785 32.908203 40.195312 C 37.528329 34.637309 36.885576 26.10042 31.392578 20.607422 C 24.957558 14.172402 18.365074 12.24721 13.421875 12.023438 C 12.803975 11.995466 12.209336 11.994789 11.642578 12.013672 z M 11.994141 14.998047 C 12.400727 14.993491 12.831291 15.000938 13.285156 15.021484 C 17.592207 15.21646 23.341504 16.800489 29.271484 22.730469 C 33.466387 26.92537 34.117742 33.08806 31.255859 37.402344 C 25.429249 28.539352 15.384766 21.289063 15.384766 21.289062 A 1.50015 1.50015 0 0 0 14.550781 20.988281 A 1.50015 1.50015 0 0 0 13.615234 23.710938 C 13.615234 23.710938 23.913951 31.357088 29.158203 39.710938 C 24.836073 43.190006 18.174755 42.717724 13.728516 38.271484 C 7.7990697 32.342039 6.2143924 26.594309 6.0195312 22.287109 C 5.8552598 18.656063 6.5801672 16.543031 6.84375 15.84375 C 7.4555577 15.613122 9.1480364 15.029935 11.994141 14.998047 z"/></svg>