<svg xmlns="http://www.w3.org/2000/svg"  viewBox="0 0 48 48" width="50px" height="50px"><path d="M 16 4 C 14.017953 4 12.215245 4.3530418 10.775391 5.0175781 C 10.055464 5.3498463 9.4171123 5.7587449 8.9042969 6.3183594 C 8.648558 6.5974367 8.6151555 7.038715 8.453125 7.40625 A 1.50015 1.50015 0 0 0 8 8.5 L 8 39.5 A 1.50015 1.50015 0 0 0 8.453125 40.595703 C 8.615102 40.962563 8.6489498 41.402991 8.9042969 41.681641 C 9.4171123 42.241255 10.055464 42.650154 10.775391 42.982422 C 12.215245 43.646958 14.017953 44 16 44 C 17.982047 44 19.784755 43.646958 21.224609 42.982422 C 21.597919 42.810128 21.87221 42.53277 22.195312 42.308594 C 22.918154 42.655531 23.664878 42.990188 24.505859 43.230469 C 26.411696 43.774836 28.241621 43.930939 29.808594 43.6875 C 30.59208 43.565781 31.318049 43.346397 31.964844 42.949219 C 32.611639 42.55204 33.199238 41.922065 33.433594 41.101562 L 39.917969 21.400391 L 39.919922 21.394531 A 1.50015 1.50015 0 0 0 39.933594 21.351562 A 1.50015 1.50015 0 0 0 39.935547 21.345703 A 1.50015 1.50015 0 0 0 39.951172 21.294922 C 39.951557 21.293622 39.950789 21.292316 39.951172 21.291016 A 1.50015 1.50015 0 0 0 39.814453 20.117188 C 39.759523 19.719645 39.848803 19.285571 39.679688 18.947266 C 39.340319 18.268361 38.839235 17.698897 38.238281 17.181641 C 37.036374 16.147128 35.400055 15.313921 33.494141 14.769531 C 31.588304 14.225164 29.758379 14.069061 28.191406 14.3125 C 27.40792 14.434219 26.681951 14.653603 26.035156 15.050781 C 25.711759 15.249371 25.557942 15.664646 25.300781 15.974609 A 1.50015 1.50015 0 0 0 24.607422 16.775391 L 24 18.367188 L 24 8.5 A 1.50015 1.50015 0 0 0 23.546875 7.4042969 C 23.384898 7.0374368 23.35105 6.5970091 23.095703 6.3183594 C 22.582888 5.7587449 21.944536 5.3498463 21.224609 5.0175781 C 19.784755 4.3530418 17.982047 4 16 4 z M 16 7 C 17.607953 7 19.054151 7.3190207 19.966797 7.7402344 C 20.42312 7.9508412 20.737815 8.1874738 20.882812 8.3457031 C 21.02781 8.5039324 21 8.5247965 21 8.5 L 21 26.373047 A 1.50015 1.50015 0 0 0 21 26.650391 L 21 39.5 C 21 39.4752 21.02781 39.4961 20.882812 39.654297 C 20.737815 39.812526 20.42312 40.049159 19.966797 40.259766 C 19.744395 40.362411 19.28047 40.352053 19 40.439453 L 19 11.5 A 1.50015 1.50015 0 0 0 17.369141 9.9863281 A 1.50015 1.50015 0 0 0 16.953125 9.9648438 C 16.642131 9.9881458 16.324433 10 16 10 C 14.392047 10 12.945849 9.6809793 12.033203 9.2597656 C 11.57688 9.0491588 11.262184 8.8125262 11.117188 8.6542969 C 10.972189 8.4960676 11 8.4752035 11 8.5 C 11 8.5247965 10.972189 8.5039324 11.117188 8.3457031 C 11.262185 8.1874738 11.57688 7.9508412 12.033203 7.7402344 C 12.945849 7.3190207 14.392047 7 16 7 z M 11 12.052734 C 12.404628 12.658448 14.110341 13 16 13 L 16 41 C 14.392047 41 12.945849 40.680979 12.033203 40.259766 C 11.57688 40.049159 11.262184 39.812526 11.117188 39.654297 C 10.972189 39.496068 11 39.475204 11 39.5 L 11 12.052734 z M 29.482422 17.208984 C 30.389663 17.189795 31.5103 17.323072 32.669922 17.654297 C 34.216007 18.095908 35.519408 18.801294 36.28125 19.457031 C 36.662171 19.7849 36.900117 20.097061 36.996094 20.289062 C 37.091174 20.47927 37.060346 20.49181 37.066406 20.46875 C 37.066406 20.46875 37.066406 20.470703 37.066406 20.470703 L 30.566406 40.220703 A 1.50015 1.50015 0 0 0 30.548828 40.277344 C 30.555728 40.253344 30.577398 40.280244 30.394531 40.392578 C 30.21167 40.504868 29.844295 40.645501 29.347656 40.722656 C 29.116835 40.758516 28.692109 40.626676 28.414062 40.634766 L 34.300781 22.865234 A 1.50015 1.50015 0 0 0 33.166016 20.900391 A 1.50015 1.50015 0 0 0 32.771484 20.765625 C 32.466761 20.702885 32.158116 20.62802 31.847656 20.539062 A 1.50015 1.50015 0 0 0 31.845703 20.539062 C 30.299618 20.097452 28.996217 19.392065 28.234375 18.736328 C 27.853454 18.408459 27.615508 18.096298 27.519531 17.904297 C 27.423551 17.712295 27.458022 17.698686 27.451172 17.722656 C 27.444272 17.746656 27.422602 17.719756 27.605469 17.607422 C 27.78833 17.495132 28.155705 17.354499 28.652344 17.277344 C 28.900663 17.238766 29.180008 17.215381 29.482422 17.208984 z M 26.226562 20.947266 C 26.247543 20.965676 26.256114 20.991486 26.277344 21.009766 C 27.465457 22.032405 29.083023 22.855691 30.960938 23.400391 L 25.349609 40.347656 C 25.342109 40.345556 25.337598 40.347898 25.330078 40.345703 C 24.792512 40.192113 24.352381 39.973684 23.886719 39.771484 C 23.898362 39.66812 24 39.606288 24 39.5 L 24 26.773438 L 26.226562 20.947266 z"/></svg>