<svg xmlns="http://www.w3.org/2000/svg"  viewBox="0 0 48 48" width="50px" height="50px"><path d="M 12.744141 2.3105469 C 12.493711 2.3198212 12.240167 2.3672712 11.994141 2.4609375 C 9.9188145 3.2506739 8.0310209 4.8127291 6.40625 6.4375 C 4.5701248 8.2736252 3.059513 10.259358 2.3066406 12.345703 C 1.6243812 14.236366 1.7603854 16.391234 3.0351562 18.039062 A 1.50015 1.50015 0 0 0 2.9824219 18.287109 C 2.9824219 18.287109 2.6469108 20.526625 3.9140625 22.744141 C 4.9593889 24.573462 7.2319328 26.210244 10.966797 26.751953 L 9.4882812 29.460938 C 9.2337596 29.927644 9.13343 30.430057 9.0253906 30.927734 C 6.8072221 30.82104 5.844215 30.167938 5.4179688 29.599609 C 4.9559686 28.983609 4.9667969 28.5 4.9667969 28.5 A 1.50015 1.50015 0 1 0 1.9667969 28.5 C 1.9667969 28.5 1.9795779 30.016391 3.0175781 31.400391 C 4.0245626 32.743037 6.0614766 33.883536 9.2226562 33.953125 C 9.5391989 34.823611 10.084068 35.581361 10.8125 36.207031 C 9.3985 36.884372 7.4093536 37.558824 4.7617188 37.029297 A 1.50015 1.50015 0 1 0 4.171875 39.970703 C 9.1307414 40.962476 12.603692 38.776905 13.583984 38.113281 L 15.828125 39.507812 C 13.854661 39.93875 12.278552 40.567151 11.40625 41.439453 C 10.729473 42.11623 10.358167 42.835654 10.169922 43.400391 C 9.9816762 43.965127 9.9667969 44.5 9.9667969 44.5 A 1.50015 1.50015 0 1 0 12.966797 44.5 C 12.966797 44.5 12.953865 44.53487 13.015625 44.349609 C 13.077375 44.164346 13.20412 43.88377 13.527344 43.560547 C 14.173788 42.9141 15.716797 42 19.466797 42 A 1.50015 1.50015 0 0 0 19.792969 41.96875 L 20.662109 42.507812 C 22.38704 43.579028 24.569147 43.610787 26.324219 42.591797 L 27.349609 41.996094 A 1.50015 1.50015 0 0 0 27.466797 42 C 31.216797 42 33.084026 42.915658 34.029297 43.671875 C 34.501932 44.049983 34.755418 44.399077 34.890625 44.630859 C 35.025832 44.862642 35.011719 44.863281 35.011719 44.863281 A 1.50015 1.50015 0 1 0 37.921875 44.136719 C 37.921875 44.136719 37.782762 43.637358 37.480469 43.119141 C 37.178175 42.600923 36.681662 41.950017 35.904297 41.328125 C 34.959377 40.572189 33.430622 39.977543 31.568359 39.546875 L 34.185547 38.027344 C 34.994094 38.589731 38.644449 40.994157 43.761719 39.970703 A 1.50015 1.50015 0 1 0 43.171875 37.029297 C 40.45113 37.573446 38.441993 36.854794 37.042969 36.166016 C 37.776084 35.558243 38.331452 34.819349 38.664062 33.962891 C 41.858019 33.906231 43.905011 32.751 44.917969 31.400391 C 45.955969 30.016391 45.966797 28.5 45.966797 28.5 A 1.50015 1.50015 0 1 0 42.966797 28.5 C 42.966797 28.5 42.979577 28.983609 42.517578 29.599609 C 42.093231 30.165405 41.127516 30.812259 38.931641 30.923828 C 38.82652 30.393536 38.716336 29.860157 38.445312 29.363281 L 37.060547 26.822266 C 40.908526 26.396008 43.227429 24.611512 44.195312 22.667969 C 45.297153 20.455439 44.951172 18.28125 44.951172 18.28125 A 1.50015 1.50015 0 0 0 44.916016 18.107422 C 46.24129 16.45208 46.384887 14.26205 45.693359 12.345703 C 44.940487 10.259358 43.429875 8.2736252 41.59375 6.4375 C 39.968979 4.8127291 38.081185 3.2506739 36.005859 2.4609375 C 35.021755 2.0862723 33.927075 2.438166 33.314453 3.1074219 C 32.701831 3.7766778 32.445122 4.843558 32.853516 5.796875 A 1.50015 1.50015 0 0 0 32.855469 5.7988281 L 34.228516 8.9921875 L 33.382812 8.7109375 C 31.892411 8.2141365 30.341993 8.8139558 29.513672 9.8828125 C 28.685351 10.951669 28.486609 12.591529 29.322266 13.917969 C 29.898185 14.832127 30.62092 15.709893 31.472656 16.560547 C 33.410553 18.498443 35.762708 19.775402 38.107422 20.222656 C 39.367729 20.46306 40.650331 20.425228 41.837891 20.101562 C 41.769011 20.497636 41.730043 20.889707 41.509766 21.332031 C 40.868558 22.619505 39.593114 24 35.466797 24 A 1.50015 1.50015 0 0 0 35.349609 24.003906 C 33.944928 22.158118 31.792211 21 29.431641 21 L 18.556641 21 C 16.226164 21 14.09641 22.128816 12.689453 23.933594 C 8.7178631 23.759983 7.2039884 22.453659 6.5195312 21.255859 C 6.2772996 20.831954 6.2347587 20.472132 6.1503906 20.097656 C 7.3412322 20.424516 8.6280378 20.463867 9.8925781 20.222656 C 12.237292 19.775402 14.589447 18.498443 16.527344 16.560547 C 17.37908 15.709893 18.101815 14.832127 18.677734 13.917969 C 19.513391 12.591529 19.314649 10.951669 18.486328 9.8828125 C 17.658007 8.8139558 16.10759 8.2141365 14.617188 8.7109375 L 13.771484 8.9921875 L 15.144531 5.7988281 A 1.50015 1.50015 0 0 0 15.146484 5.796875 C 15.554831 4.8435549 15.298169 3.7766778 14.685547 3.1074219 C 14.379236 2.7727939 13.951774 2.5173867 13.478516 2.3925781 C 13.241886 2.3301738 12.994571 2.3012725 12.744141 2.3105469 z M 11.792969 6.0019531 L 9.6953125 10.880859 A 1.50015 1.50015 0 0 0 11.546875 12.896484 L 15.564453 11.556641 C 15.86805 11.455442 15.981055 11.547541 16.115234 11.720703 C 16.249413 11.893846 16.312969 12.046753 16.140625 12.320312 C 15.708544 13.006156 15.128514 13.716154 14.40625 14.4375 C 12.870146 15.973604 10.985364 16.959645 9.3300781 17.275391 C 7.6747932 17.591136 6.3668074 17.276964 5.5273438 16.4375 C 4.68788 15.598036 4.6187786 14.776937 5.1289062 13.363281 C 5.6390339 11.949626 6.8894689 10.198422 8.5273438 8.5605469 C 9.5714422 7.5164483 10.711374 6.6598528 11.792969 6.0019531 z M 36.207031 6.0019531 C 37.288626 6.6598528 38.428558 7.5164483 39.472656 8.5605469 C 41.110531 10.198422 42.360966 11.949626 42.871094 13.363281 C 43.381221 14.776937 43.31212 15.598036 42.472656 16.4375 C 41.633192 17.276964 40.325208 17.591136 38.669922 17.275391 C 37.014636 16.959645 35.129854 15.973604 33.59375 14.4375 C 32.871486 13.716154 32.291456 13.006155 31.859375 12.320312 C 31.687032 12.046753 31.750588 11.893846 31.884766 11.720703 C 32.018945 11.54756 32.13195 11.455442 32.435547 11.556641 L 36.453125 12.896484 A 1.50015 1.50015 0 0 0 38.304688 10.880859 L 36.207031 6.0019531 z M 18.556641 24 L 29.431641 24 C 31.081648 24 32.593314 24.897413 33.382812 26.345703 L 35.8125 30.798828 C 36.469266 32.002899 36.059644 33.469028 34.873047 34.158203 L 24.818359 39.996094 C 24.017432 40.461108 23.03121 40.44777 22.244141 39.958984 L 12.998047 34.21875 C 11.858556 33.511545 11.478834 32.076124 12.121094 30.898438 L 14.431641 26.664062 A 1.50015 1.50015 0 0 0 14.878906 26.0625 A 1.50015 1.50015 0 0 0 14.878906 26.060547 C 15.708964 24.818646 17.044567 24 18.556641 24 z"/></svg>