<svg xmlns="http://www.w3.org/2000/svg"  viewBox="0 0 48 48" width="50px" height="50px"><path d="M 38.314453 3.6953125 C 36.775746 3.6953125 35.237512 4.2781129 34.072266 5.4433594 L 32.767578 6.7480469 C 31.22665 5.5465635 29.364968 4.9394531 27.5 4.9394531 C 25.303275 4.9394531 23.106663 5.7722432 21.439453 7.4394531 L 7.4394531 21.439453 C 4.3568208 24.522086 4.1309636 29.411583 6.7480469 32.767578 L 5.4433594 34.072266 C 3.1128664 36.402759 3.1128664 40.226148 5.4433594 42.556641 C 7.7738524 44.887134 11.597241 44.887134 13.927734 42.556641 L 15.21875 41.265625 C 18.576909 43.965561 23.535302 43.761572 26.648438 40.648438 L 40.648438 26.648438 C 43.761572 23.535302 43.965561 18.576909 41.265625 15.21875 L 42.556641 13.927734 C 44.886932 11.597443 44.886443 7.7744879 42.556641 5.4433594 C 41.391394 4.2781129 39.85316 3.6953125 38.314453 3.6953125 z M 38.314453 6.6777344 C 39.079246 6.6777344 39.843793 6.9726996 40.435547 7.5644531 C 41.619744 8.7493246 41.619255 10.622932 40.435547 11.806641 L 38.242188 14 L 29.757812 14 L 33.669922 10.087891 A 1.50015 1.50015 0 0 0 34.091797 9.6660156 A 1.50015 1.50015 0 0 0 34.097656 9.6582031 L 36.193359 7.5644531 C 36.785113 6.9726996 37.54966 6.6777344 38.314453 6.6777344 z M 27.5 7.9199219 C 28.592374 7.9199219 29.683483 8.2439545 30.626953 8.8886719 L 8.8886719 30.626953 C 7.4042012 28.4546 7.6270035 25.49409 9.5605469 23.560547 L 23.560547 9.5605469 C 24.654337 8.4667568 26.077169 7.9199219 27.5 7.9199219 z M 28.5 17 L 35.242188 17 L 28 24.242188 L 28 17.5 C 28 17.204955 28.204955 17 28.5 17 z M 39.082031 17.402344 C 40.638477 19.578811 40.486463 22.568225 38.527344 24.527344 L 24.527344 38.527344 C 22.56823 40.486458 19.578742 40.638568 17.402344 39.082031 L 39.082031 17.402344 z M 25 18.757812 L 25 24.5 C 25 24.795045 24.795045 25 24.5 25 L 18.757812 25 L 25 18.757812 z M 17.5 28 L 24.242188 28 L 17 35.242188 L 17 28.5 C 17 28.204955 17.204955 28 17.5 28 z M 14 29.757812 L 14 38.242188 L 11.806641 40.435547 C 10.623134 41.619054 8.7479601 41.619054 7.5644531 40.435547 C 6.3809461 39.25204 6.3809461 37.376866 7.5644531 36.193359 L 14 29.757812 z"/></svg>