<svg xmlns="http://www.w3.org/2000/svg"  viewBox="0 0 48 48" width="50px" height="50px"><path d="M 19.5 4 A 1.50015 1.50015 0 0 0 18.111328 4.9316406 L 4.8359375 37.292969 C 4.1015461 39.082821 4.6340193 41.001392 5.8164062 42.183594 C 6.9987933 43.365795 8.9175798 43.898588 10.707031 43.164062 L 43.068359 29.888672 A 1.50015 1.50015 0 0 0 44 28.5 C 44 14.986404 33.013596 4 19.5 4 z M 20.466797 7.0976562 C 31.570952 7.5978081 40.402192 16.429048 40.902344 27.533203 L 37.410156 28.966797 C 36.949406 19.015021 28.984979 11.050594 19.033203 10.589844 L 20.466797 7.0976562 z M 18 13.494141 A 1.50015 1.50015 0 0 0 18.146484 13.5 C 20.313438 13.5 22.375142 13.930081 24.265625 14.691406 C 23.792432 15.891545 22.636677 16.75 21.25 16.75 C 19.437904 16.75 18 15.312096 18 13.5 A 1.50015 1.50015 0 0 0 18 13.494141 z M 26.941406 16.072266 C 31.485593 18.973524 34.5 24.048313 34.5 29.853516 A 1.50015 1.50015 0 0 0 34.525391 30.150391 L 27.748047 32.929688 C 27.792158 32.651608 27.818359 32.371265 27.818359 32.091797 C 27.818359 31.32692 27.58906 30.580338 27.248047 29.873047 C 27.935855 29.633143 28.557924 29.290549 29.001953 28.791016 C 29.750362 27.949055 30.091797 26.88538 30.091797 25.841797 C 30.091797 24.798214 29.750362 23.732585 29.001953 22.890625 C 28.253544 22.048665 27.072 21.5 25.75 21.5 C 24.428 21.5 23.246456 22.048665 22.498047 22.890625 C 21.749638 23.732585 21.408203 24.798214 21.408203 25.841797 C 21.408203 26.378757 21.507733 26.916849 21.697266 27.431641 C 20.719102 27.66965 19.829029 28.07662 19.230469 28.75 C 18.387393 29.69846 18 30.906214 18 32.091797 C 18 33.27738 18.387393 34.48318 19.230469 35.431641 C 19.454164 35.683298 19.714144 35.909422 20 36.109375 L 9.5683594 40.388672 C 8.8948111 40.665147 8.3491129 40.474048 7.9375 40.0625 C 7.5258871 39.650952 7.3347195 39.105789 7.6113281 38.431641 L 8.3125 36.722656 C 9.0899668 37.493808 10.220324 38 11.5 38 C 12.875 38 14.096185 37.430367 14.871094 36.558594 C 15.646003 35.686821 16 34.583333 16 33.5 C 16 32.416667 15.646003 31.313179 14.871094 30.441406 C 14.096185 29.569633 12.875 29 11.5 29 C 11.493406 29 11.487056 28.999974 11.480469 29 L 16.291016 17.277344 C 17.43626 18.774473 19.233444 19.75 21.25 19.75 C 23.77042 19.75 25.957157 18.242475 26.941406 16.072266 z M 25.75 24.5 C 26.321999 24.5 26.561175 24.661351 26.759766 24.884766 C 26.958356 25.10818 27.091797 25.46488 27.091797 25.841797 C 27.091797 26.218714 26.958356 26.57346 26.759766 26.796875 C 26.561175 27.02029 26.321999 27.181641 25.75 27.181641 C 25.178001 27.181641 24.938825 27.02029 24.740234 26.796875 C 24.541644 26.57346 24.408203 26.218714 24.408203 25.841797 C 24.408203 25.46488 24.541644 25.10818 24.740234 24.884766 C 24.938825 24.661351 25.178001 24.5 25.75 24.5 z M 22.908203 30.181641 C 23.669536 30.181641 24.050493 30.414226 24.34375 30.744141 C 24.637007 31.074055 24.818359 31.57288 24.818359 32.091797 C 24.818359 32.610714 24.637007 33.107585 24.34375 33.4375 C 24.050493 33.767415 23.669536 34 22.908203 34 C 22.14687 34 21.765914 33.767415 21.472656 33.4375 C 21.179399 33.107585 21 32.610714 21 32.091797 C 21 31.57288 21.179399 31.074055 21.472656 30.744141 C 21.765914 30.414226 22.14687 30.181641 22.908203 30.181641 z M 11.5 32 C 12.124999 32 12.403816 32.180367 12.628906 32.433594 C 12.853997 32.686821 13 33.083333 13 33.5 C 13 33.916667 12.853997 34.313179 12.628906 34.566406 C 12.403816 34.819633 12.124999 35 11.5 35 C 10.875001 35 10.596184 34.819633 10.371094 34.566406 C 10.146003 34.313179 10 33.916667 10 33.5 C 10 33.083333 10.146003 32.686821 10.371094 32.433594 C 10.596184 32.180367 10.875001 32 11.5 32 z"/></svg>