<svg xmlns="http://www.w3.org/2000/svg"  viewBox="0 0 48 48" width="50px" height="50px"><path d="M 26 5 C 17.181206 5 10 12.181213 10 21 C 10 25.633306 12.01327 29.779801 15.173828 32.705078 L 6.4394531 41.439453 A 1.50015 1.50015 0 1 0 8.5605469 43.560547 L 17.560547 34.560547 A 1.50015 1.50015 0 0 0 17.576172 34.542969 C 20.029956 36.075632 22.901397 37 26 37 C 34.818794 37 42 29.818787 42 21 C 42 12.181213 34.818794 5 26 5 z M 26 8 C 33.197475 8 39 13.80253 39 21 C 39 28.19747 33.197475 34 26 34 C 18.802525 34 13 28.19747 13 21 C 13 13.80253 18.802525 8 26 8 z M 28.5 11 C 23.572631 11 19 15.017723 19 21 C 19 23.991139 20.175693 26.381311 21.994141 27.876953 C 23.812588 29.372595 26.15703 30 28.5 30 C 30.903327 30 32.996118 29.088054 34.263672 27.353516 C 35.531226 25.618977 36 23.300554 36 20.5 C 36 17.699446 35.531226 15.381023 34.263672 13.646484 C 32.996118 11.911946 30.903327 11 28.5 11 z M 28.5 14 C 30.238673 14 31.144851 14.464257 31.841797 15.417969 C 32.538743 16.37168 33 18.053554 33 20.5 C 33 22.946446 32.538743 24.62832 31.841797 25.582031 C 31.144851 26.535743 30.238673 27 28.5 27 C 26.70097 27 25.046443 26.501202 23.900391 25.558594 C 22.754338 24.615986 22 23.255861 22 21 C 22 16.488277 25.143369 14 28.5 14 z M 26.5 17 A 2.5 2.5 0 0 0 26.5 22 A 2.5 2.5 0 0 0 26.5 17 z"/></svg>