<svg xmlns="http://www.w3.org/2000/svg"  viewBox="0 0 48 48" width="50px" height="50px"><path d="M 15.5 2 C 13.032499 2 11 4.0324991 11 6.5 L 11 18.015625 C 8.7964441 18.17111 7.2215209 20.426006 7.90625 22.566406 L 14.181641 42.177734 C 14.908536 44.450312 17.033945 46.001953 19.419922 46.001953 L 28.580078 46.001953 C 30.965427 46.001953 33.091297 44.450834 33.818359 42.177734 L 40.09375 22.566406 C 40.669292 20.767315 39.648451 18.882134 38 18.234375 L 38 14.5 C 38 12.032499 35.967501 10 33.5 10 C 32.969409 10 32.47448 10.134564 32 10.306641 L 32 8.5 C 32 6.0324991 29.967501 4 27.5 4 C 25.098738 4 23.142183 5.9350868 23.037109 8.3125 C 22.552816 8.1322923 22.043598 8 21.5 8 C 20.969409 8 20.47448 8.1345643 20 8.3066406 L 20 6.5 C 20 4.0324991 17.967501 2 15.5 2 z M 15.5 5 C 16.346499 5 17 5.6535009 17 6.5 L 17 12.5 L 17 18.195312 A 1.50015 1.50015 0 0 0 16.259766 18 L 14 18 L 14 6.5 C 14 5.6535009 14.653501 5 15.5 5 z M 27.5 7 C 28.346499 7 29 7.6535009 29 8.5 L 29 14.5 L 29 19.5 L 29 20.869141 C 28.180316 21.714443 27.160109 22.361485 26 22.707031 L 26 14.5 L 26 12.5 L 26 8.5 C 26 7.6535009 26.653501 7 27.5 7 z M 21.5 11 C 22.346499 11 23 11.653501 23 12.5 L 23 14.5 L 23 22.925781 C 21.890044 22.767275 20.874486 22.342817 20 21.728516 L 20 20.085938 L 20 12.5 C 20 11.653501 20.653501 11 21.5 11 z M 33.5 13 C 34.346499 13 35 13.653501 35 14.5 L 35 18 L 32 18 L 32 14.5 C 32 13.653501 32.653501 13 33.5 13 z M 11.240234 21 L 12.253906 21 A 1.50015 1.50015 0 0 0 12.740234 21 L 15.455078 21 C 15.919452 21.790815 16.490748 22.508294 17.138672 23.146484 A 1.50015 1.50015 0 0 0 18.056641 23.953125 C 19.706704 25.22793 21.752373 26 24 26 C 24.063701 26 24.124122 25.987554 24.1875 25.986328 A 1.50015 1.50015 0 0 0 25.011719 25.929688 C 27.412272 25.678504 29.532692 24.557479 31.111328 22.890625 A 1.50015 1.50015 0 0 0 31.957031 21.876953 C 32.164647 21.593045 32.366059 21.304598 32.544922 21 L 36.253906 21 A 1.50015 1.50015 0 0 0 36.740234 21 L 36.759766 21 C 37.141334 21 37.352804 21.288252 37.236328 21.652344 L 30.960938 41.263672 C 30.628 42.304572 29.67273 43.001953 28.580078 43.001953 L 19.419922 43.001953 C 18.325899 43.001953 17.372167 42.305094 17.039062 41.263672 L 10.763672 21.652344 C 10.647196 21.288252 10.858666 21 11.240234 21 z"/></svg>