<svg xmlns="http://www.w3.org/2000/svg"  viewBox="0 0 48 48" width="50px" height="50px"><path d="M 14 3 A 2 2 0 0 0 12.021484 5.28125 A 2 2 0 0 0 11 5 A 2 2 0 0 0 11 9 A 2 2 0 0 0 12.322266 8.4980469 L 13.570312 10.992188 C 12.585934 11.891599 12 13.177659 12 14.548828 L 12 15.705078 C 12 16.193057 11.893274 16.683325 11.689453 17.154297 A 1.50015 1.50015 0 0 0 11.689453 17.158203 C 11.439442 17.7395 11.258734 18.358363 11.142578 19 L 9.8457031 19 C 7.7205812 19 6.0537639 20.95383 6.390625 23.052734 A 1.50015 1.50015 0 0 0 6.3964844 23.09375 L 9.6210938 40.251953 L 9.6152344 40.210938 C 9.9630394 42.382853 11.857999 44 14.058594 44 L 18.253906 44 A 1.50015 1.50015 0 0 0 18.740234 44 L 29.253906 44 A 1.50015 1.50015 0 0 0 29.740234 44 L 33.941406 44 C 36.142001 44 38.036961 42.382852 38.384766 40.210938 L 38.378906 40.251953 L 41.603516 23.09375 A 1.50015 1.50015 0 0 0 41.609375 23.052734 C 41.944321 20.954999 40.279692 19 38.154297 19 L 35.841797 19 C 35.494991 16.57447 34.761273 14.740341 33.71875 13.402344 L 36.648438 10.474609 A 2 2 0 0 0 38 11 A 2 2 0 0 0 38 7 A 2 2 0 0 0 37.998047 7 A 2 2 0 0 0 36 5 A 2 2 0 0 0 34.527344 8.3515625 L 31.439453 11.439453 A 1.50015 1.50015 0 0 0 31.414062 11.466797 C 30.361775 10.921632 29.23766 10.672528 28.189453 10.626953 C 24.75272 10.47753 21.78125 12.183594 21.78125 12.183594 A 1.50015 1.50015 0 0 0 21.767578 12.191406 C 21.310712 11.985401 20.84532 11.785251 20.541016 11.472656 L 20.267578 11.189453 A 1.50015 1.50015 0 0 0 20.265625 11.1875 C 19.536406 10.438741 18.601994 9.9690811 17.617188 9.8027344 C 17.187601 9.7301716 16.748844 9.7264105 16.3125 9.7714844 L 14.841797 6.8300781 A 1.50015 1.50015 0 0 0 14.833984 6.8164062 A 2 2 0 0 0 14 3 z M 16.556641 12.75 C 16.744676 12.721983 16.934294 12.724658 17.119141 12.755859 C 17.488267 12.818169 17.837703 12.996832 18.115234 13.28125 L 18.390625 13.5625 A 1.50015 1.50015 0 0 0 18.390625 13.564453 C 19.224902 14.421459 20.243718 14.95346 21.253906 15.292969 C 22.959295 15.865945 24.26317 17.256632 24.759766 19 L 14.310547 19 C 14.372747 18.788601 14.357057 18.548725 14.443359 18.347656 L 14.445312 18.34375 C 14.800401 17.521726 15 16.625657 15 15.705078 L 15 14.548828 C 15 13.887266 15.360546 13.294056 15.933594 12.972656 A 1.50015 1.50015 0 0 0 16.207031 12.861328 C 16.323016 12.819314 16.437692 12.767723 16.556641 12.75 z M 28.060547 13.623047 C 29.21718 13.673337 30.228747 13.998766 31.101562 14.941406 C 31.80383 15.699854 32.451031 16.961964 32.800781 19 L 27.847656 19 C 27.483954 17.071417 26.449065 15.385613 25.013672 14.140625 C 25.904799 13.856031 26.989075 13.576461 28.060547 13.623047 z M 9.8457031 22 L 38.154297 22 C 38.489686 22 38.697452 22.247674 38.646484 22.578125 L 36.6875 33 L 31.5 33 C 29.585045 33 28 34.585045 28 36.5 L 28 41 L 20 41 L 20 36.5 C 20 34.585045 18.414955 33 16.5 33 L 11.3125 33 L 9.3535156 22.576172 C 9.3024747 22.246882 9.5120376 22 9.8457031 22 z M 35.097656 24.001953 C 33.241656 23.978953 31.733547 24.465938 30.685547 25.210938 C 29.617547 25.970938 29.026297 26.997438 29.029297 28.023438 C 29.034297 29.545437 30.343094 31.010953 33.371094 31.001953 C 34.123094 30.996953 34.785672 30.925125 35.388672 30.828125 C 35.564672 30.801125 35.736391 30.770281 35.900391 30.738281 L 36.253906 29.322266 C 35.666906 29.506266 34.925078 29.660109 34.330078 29.662109 C 32.717078 29.667109 31.634812 28.766937 31.632812 27.585938 C 31.630813 26.956937 31.905344 26.403047 32.402344 25.998047 C 32.934344 25.565047 33.718219 25.304687 34.699219 25.304688 C 35.476219 25.304688 35.930234 25.505922 36.240234 25.794922 C 36.302234 25.851922 36.360156 25.910656 36.410156 25.972656 L 36.664062 25.972656 L 37.158203 24.302734 C 36.649203 24.143734 35.894656 24.009953 35.097656 24.001953 z M 22.810547 24.064453 L 18.988281 24.070312 L 18.892578 24.431641 L 18.869141 24.521484 C 19.129141 24.538484 19.491312 24.761344 19.195312 25.027344 C 19.156312 25.059344 16.123047 27.289062 16.123047 27.289062 L 16.146484 27.210938 L 16.777344 25.013672 C 16.910344 24.574672 17.400391 24.521484 17.400391 24.521484 L 17.521484 24.068359 L 13.871094 24.070312 L 13.777344 24.431641 L 13.753906 24.521484 C 13.928906 24.564484 14.426906 24.658109 14.253906 25.287109 C 13.035906 29.520109 13.173797 29.101031 13.091797 29.332031 C 12.818797 30.335031 12.410063 30.473047 12.164062 30.498047 C 12.110062 30.503047 12.063297 30.504859 12.029297 30.505859 L 11.980469 30.695312 L 11.904297 30.994141 L 15.236328 30.994141 L 15.722656 30.994141 L 15.851562 30.496094 C 15.851562 30.496094 15.244375 30.382891 15.359375 29.962891 C 15.418375 29.751891 15.572031 29.215187 15.707031 28.742188 C 15.838031 28.283188 15.953125 27.880859 15.953125 27.880859 C 16.615125 28.901859 16.768359 29.028031 17.568359 30.082031 C 18.303359 31.058031 19.088328 31.011 20.986328 31 C 21.141328 30.999 21.302609 30.998047 21.474609 30.998047 L 21.599609 30.509766 C 21.117609 30.510766 20.799422 30.172609 20.607422 29.974609 C 20.413422 29.775609 18.730469 27.257813 18.730469 27.257812 L 21.705078 24.96875 L 21.804688 24.892578 C 21.937687 24.785578 22.061875 24.709297 22.171875 24.654297 C 22.487875 24.498297 22.691406 24.519531 22.691406 24.519531 L 22.810547 24.064453 z M 23.433594 24.066406 L 23.337891 24.429688 L 23.314453 24.517578 C 23.314453 24.517578 24.030547 24.595203 23.810547 25.283203 L 22.177734 30.996094 L 24.955078 31.001953 L 25.443359 31.001953 L 25.568359 30.511719 C 25.568359 30.511719 24.957187 30.370172 25.117188 29.826172 C 25.125187 29.792172 25.355188 28.980187 25.492188 28.492188 C 25.553187 28.281188 25.597656 28.130859 25.597656 28.130859 L 27.09375 28.130859 C 27.33875 28.130859 27.524922 28.172563 27.669922 28.226562 C 27.968922 28.336562 28.085938 28.505859 28.085938 28.505859 L 28.519531 26.806641 L 25.996094 26.806641 L 26.269531 25.837891 L 26.371094 25.474609 L 28.5625 25.472656 C 28.7805 25.472656 28.960031 25.548438 29.082031 25.648438 C 29.185031 25.733438 29.248047 25.834875 29.248047 25.921875 L 29.496094 25.921875 L 29.978516 24.066406 L 23.433594 24.066406 z M 11.875 36 L 16.5 36 C 16.795045 36 17 36.204955 17 36.5 L 17 41 L 14.058594 41 C 13.311188 41 12.694367 40.474412 12.576172 39.736328 A 1.50015 1.50015 0 0 0 12.570312 39.697266 L 11.875 36 z M 31.5 36 L 36.125 36 L 35.429688 39.697266 A 1.50015 1.50015 0 0 0 35.423828 39.736328 C 35.305673 40.474414 34.688812 41 33.941406 41 L 31 41 L 31 36.5 C 31 36.204955 31.204955 36 31.5 36 z"/></svg>