<svg xmlns="http://www.w3.org/2000/svg"  viewBox="0 0 48 48" width="50px" height="50px"><path d="M 15.523438 2.5546875 C 15.134075 2.5268895 14.734055 2.6002365 14.347656 2.8007812 C 13.574859 3.2018701 13.099506 4.4241854 13.388672 5.2753906 L 13.5625 5.7910156 C 14.571994 8.7706796 14.739158 12.041327 15.494141 15.505859 C 16.132235 18.432968 18.766597 20.517578 21.777344 20.517578 L 21.675781 20.513672 L 29.474609 21.050781 L 29.476562 21.050781 C 29.713231 21.066921 29.847656 21.224073 29.847656 21.419922 L 29.847656 24.408203 C 29.847656 26.376084 30.803361 28.212455 32.373047 29.365234 C 34.281607 30.766473 36.601215 30.764744 38.462891 30.509766 C 41.479253 30.097737 43.935547 27.575571 43.935547 24.40625 L 43.935547 12.167969 C 43.935547 8.3333179 40.747166 5.2622368 36.910156 5.2148438 L 36.908203 5.2148438 C 31.754158 5.1520773 26.447715 6.8419941 22.515625 10.421875 L 22.515625 10.423828 C 22.486855 10.450033 22.493158 10.438525 22.46875 10.458984 C 22.464229 10.447148 22.465651 10.454241 22.460938 10.441406 L 22.458984 10.441406 L 22.458984 10.439453 C 21.991237 9.1670616 21.5977 7.5998166 20.589844 6.1113281 C 19.467882 4.4553496 17.849953 3.6572697 16.634766 2.9199219 L 16.632812 2.9199219 C 16.290858 2.7126851 15.912798 2.5824851 15.523438 2.5546875 z M 16.875 6.8554688 C 17.267451 7.1593862 17.868055 7.4445069 18.105469 7.7949219 C 18.741612 8.7344334 19.112322 10.028954 19.644531 11.476562 C 19.985398 12.403683 20.625166 13.334672 21.730469 13.589844 C 22.83639 13.845158 23.804315 13.306308 24.535156 12.640625 C 27.814573 9.6549551 32.405701 8.1600581 36.873047 8.2148438 C 39.161153 8.2424828 40.935547 9.9812794 40.935547 12.167969 L 40.935547 24.40625 C 40.935547 26.034929 39.696279 27.313138 38.056641 27.537109 C 36.574317 27.740131 35.053877 27.612029 34.148438 26.947266 C 33.346123 26.358045 32.847656 25.390322 32.847656 24.408203 L 32.847656 21.419922 C 32.847656 19.6524 31.4381 18.177419 29.681641 18.056641 L 29.679688 18.056641 L 21.830078 17.517578 L 21.777344 17.517578 C 20.140091 17.517578 18.759734 16.408079 18.423828 14.867188 C 17.873667 12.342361 17.547741 9.6267273 16.875 6.8554688 z M 11.929688 16.658203 L 5.1289062 19.820312 C 4.3109063 20.200312 3.6415938 20.802641 3.1835938 21.556641 C 3.0305937 21.807641 2.9028281 22.075422 2.7988281 22.357422 C 2.3868281 23.486422 2.4393125 24.708828 2.9453125 25.798828 L 4.84375 29.878906 L 8.6386719 38.039062 L 11.800781 44.839844 C 12.307781 45.929844 13.208891 46.756922 14.337891 47.169922 C 14.840891 47.353922 15.364766 47.445312 15.884766 47.445312 C 16.530766 47.445312 17.175297 47.304438 17.779297 47.023438 L 21.859375 45.125 L 27.300781 42.595703 L 30.019531 41.330078 L 36.820312 38.167969 C 37.910313 37.660969 38.737391 36.759859 39.150391 35.630859 C 39.533391 34.582859 39.499844 33.456734 39.089844 32.427734 C 38.970844 32.448734 38.854375 32.475188 38.734375 32.492188 C 38.048375 32.586188 37.380047 32.634766 36.748047 32.634766 C 36.445047 32.634766 36.164047 32.598172 35.873047 32.576172 L 36.28125 33.453125 C 36.45025 33.816125 36.468078 34.223609 36.330078 34.599609 C 36.192078 34.975609 35.917687 35.277312 35.554688 35.445312 L 31.474609 37.34375 L 30.208984 34.623047 L 28.943359 31.902344 L 27.679688 29.183594 L 26.414062 26.462891 L 25.148438 23.742188 C 25.148438 23.742188 21.056063 22.492891 20.789062 22.462891 L 18.443359 23.552734 L 15.724609 24.818359 L 14.458984 22.097656 L 13.193359 19.378906 L 11.929688 16.658203 z M 10.472656 20.642578 L 11.738281 23.363281 L 13.003906 26.082031 L 10.283203 27.347656 L 7.5625 28.611328 L 5.6660156 24.53125 C 5.4970156 24.16725 5.4801875 23.760766 5.6171875 23.384766 C 5.7551875 23.008766 6.0295781 22.708063 6.3925781 22.539062 L 10.472656 20.642578 z M 22.429688 25.007812 L 23.695312 27.726562 L 24.960938 30.447266 L 22.240234 31.712891 L 19.519531 32.976562 L 18.255859 30.257812 L 16.990234 27.537109 L 19.710938 26.271484 L 22.429688 25.007812 z M 14.267578 28.802734 L 15.533203 31.521484 L 16.798828 34.242188 L 14.078125 35.507812 L 11.357422 36.771484 L 8.828125 31.332031 L 11.548828 30.066406 L 14.267578 28.802734 z M 26.224609 33.169922 L 27.488281 35.888672 L 28.753906 38.609375 L 25.707031 40.025391 L 23.314453 41.138672 L 22.048828 38.419922 L 20.783203 35.699219 L 23.503906 34.433594 L 26.224609 33.169922 z M 18.0625 36.964844 L 19.328125 39.683594 L 20.59375 42.404297 L 16.513672 44.300781 C 16.419672 44.344781 16.325516 44.377391 16.228516 44.400391 C 16.220516 44.402391 16.211125 44.403297 16.203125 44.404297 C 16.114125 44.424297 16.025547 44.436453 15.935547 44.439453 C 15.932547 44.439453 15.928781 44.438453 15.925781 44.439453 C 15.831781 44.442453 15.737531 44.436875 15.644531 44.421875 C 15.635531 44.419875 15.626188 44.415063 15.617188 44.414062 C 15.531187 44.398063 15.446234 44.379609 15.365234 44.349609 C 15.179234 44.281609 15.013094 44.179781 14.871094 44.050781 C 14.866094 44.045781 14.861469 44.038203 14.855469 44.033203 C 14.717469 43.904203 14.602531 43.751219 14.519531 43.574219 L 12.623047 39.494141 L 15.34375 38.228516 L 18.0625 36.964844 z"/></svg>