<svg xmlns="http://www.w3.org/2000/svg"  viewBox="0 0 48 48" width="50px" height="50px"><path d="M 24 4.8007812 C 23.115486 4.8008121 22.230049 5.1301891 21.556641 5.7871094 L 21.662109 5.6933594 L 4.0800781 19.900391 A 1.50015 1.50015 0 0 0 3.9765625 19.994141 C 3.0523753 20.894594 2.7671141 22.172145 3.0136719 23.28125 A 1.50015 1.50015 0 0 0 3 23.5 L 3 38.5 C 3 41.519774 5.4802259 44 8.5 44 L 39.5 44 C 42.519774 44 45 41.519774 45 38.5 L 45 23.5 A 1.50015 1.50015 0 0 0 44.986328 23.285156 C 45.23486 22.175301 44.950736 20.895722 44.025391 19.994141 A 1.50015 1.50015 0 0 0 43.919922 19.900391 L 26.337891 5.6933594 L 26.443359 5.7851562 C 25.769649 5.1287869 24.884514 4.8007505 24 4.8007812 z M 24 7.7832031 C 24.122846 7.7830654 24.24632 7.8329631 24.349609 7.9335938 A 1.50015 1.50015 0 0 0 24.453125 8.0273438 L 41.933594 22.152344 C 42.129399 22.348897 42.122162 22.49763 42.044922 22.6875 C 41.966274 22.880829 41.87145 23 41.582031 23 L 6.4199219 23 C 6.1296642 23 6.0336079 22.882577 5.9550781 22.689453 C 5.8776791 22.49911 5.8702127 22.348124 6.0683594 22.150391 L 23.546875 8.0273438 A 1.50015 1.50015 0 0 0 23.652344 7.9335938 C 23.754935 7.833514 23.877154 7.7833409 24 7.7832031 z M 25.5 13 A 1.5 1.5 0 0 0 25.5 16 A 1.5 1.5 0 0 0 25.5 13 z M 29.5 16 A 1.5 1.5 0 0 0 29.5 19 A 1.5 1.5 0 0 0 29.5 16 z M 25.5 18 A 1.5 1.5 0 0 0 25.5 21 A 1.5 1.5 0 0 0 25.5 18 z M 41.919922 25.892578 C 41.812497 27.502111 41.275177 28.049823 40.675781 28.345703 C 40.014977 28.671896 39.31247 28.636815 39.310547 28.636719 L 34.837891 28.140625 C 33.784429 28.023879 32.719702 28.213395 31.771484 28.6875 L 30.435547 29.355469 A 1.50015 1.50015 0 0 0 30.433594 29.355469 C 29.794829 29.674851 29.053012 29.70432 28.388672 29.439453 L 26.417969 28.652344 C 25.209826 28.167986 23.867848 28.128494 22.634766 28.539062 L 19.748047 29.501953 C 19.064738 29.729931 18.313578 29.652284 17.691406 29.287109 A 1.50015 1.50015 0 0 0 17.691406 29.285156 L 16.904297 28.824219 C 15.881052 28.2232 14.691332 27.971017 13.513672 28.101562 L 8.6777344 28.638672 C 8.6777344 28.638672 8.6738481 28.638671 8.6738281 28.638672 C 8.6698681 28.638867 8.028366 28.670962 7.4492188 28.408203 C 6.8682871 28.144635 6.3417969 27.87158 6.3417969 26.158203 A 1.50015 1.50015 0 0 0 6.3320312 25.972656 C 6.3647503 25.973581 6.3869571 26 6.4199219 26 L 41.582031 26 C 41.709111 26 41.796838 25.906 41.919922 25.892578 z M 6 31.023438 C 6.0698338 31.060358 6.1392364 31.107027 6.2089844 31.138672 C 7.6150527 31.776604 8.9550781 31.625 8.9550781 31.625 A 1.50015 1.50015 0 0 0 8.9824219 31.623047 L 13.84375 31.082031 C 14.38009 31.022581 14.92001 31.139131 15.384766 31.412109 A 1.50015 1.50015 0 0 0 15.386719 31.412109 L 16.173828 31.873047 C 17.541086 32.675538 19.191128 32.848905 20.695312 32.347656 L 23.582031 31.386719 C 24.144949 31.199288 24.752924 31.215903 25.300781 31.435547 A 1.50015 1.50015 0 0 0 25.302734 31.4375 L 27.273438 32.226562 C 28.730611 32.808884 30.370765 32.741376 31.775391 32.039062 L 33.113281 31.371094 C 33.545064 31.155202 34.027275 31.06784 34.507812 31.121094 L 39.015625 31.623047 A 1.50015 1.50015 0 0 0 39.052734 31.626953 C 39.052734 31.626953 40.504633 31.775663 42 31.039062 L 42 31.390625 A 1.50015 1.50015 0 0 0 41.998047 31.501953 C 41.998047 33.570253 41.337489 34.019064 40.675781 34.345703 C 40.014073 34.672342 39.310547 34.636719 39.310547 34.636719 L 34.839844 34.140625 C 33.786383 34.023879 32.719702 34.213395 31.771484 34.6875 L 30.435547 35.355469 C 29.796173 35.675156 29.053498 35.705137 28.388672 35.439453 L 26.417969 34.650391 L 26.417969 34.652344 C 25.209826 34.167986 23.869801 34.128493 22.636719 34.539062 L 19.748047 35.501953 C 19.064738 35.729931 18.315531 35.652284 17.693359 35.287109 A 1.50015 1.50015 0 0 0 17.693359 35.285156 L 16.90625 34.824219 L 16.904297 34.824219 C 15.881457 34.223872 14.692675 33.971084 13.515625 34.101562 A 1.50015 1.50015 0 0 0 13.513672 34.101562 L 8.6523438 34.640625 A 1.50015 1.50015 0 0 0 8.5742188 34.652344 C 8.5742188 34.652344 7.7905189 34.744044 7.1386719 34.523438 C 6.4868718 34.302832 6 34.173879 6 32.5 L 6 31.023438 z M 42 37.039062 L 42 38.5 C 42 39.898226 40.898226 41 39.5 41 L 8.5 41 C 7.1017741 41 6 39.898226 6 38.5 L 6 37.289062 C 6.059191 37.312536 6.1189352 37.345335 6.1777344 37.365234 C 7.5607113 37.833275 8.7827436 37.656384 8.9824219 37.623047 L 13.845703 37.082031 C 14.382043 37.022581 14.921963 37.139131 15.386719 37.412109 L 16.173828 37.873047 C 17.541656 38.675873 19.192575 38.849678 20.697266 38.347656 L 23.583984 37.386719 C 24.146902 37.199288 24.754877 37.215903 25.302734 37.435547 A 1.50015 1.50015 0 0 0 25.302734 37.4375 L 27.275391 38.226562 C 28.732564 38.808884 30.372718 38.741375 31.777344 38.039062 L 33.113281 37.371094 C 33.545064 37.155202 34.027274 37.06784 34.507812 37.121094 L 39.015625 37.623047 A 1.50015 1.50015 0 0 0 39.054688 37.626953 C 39.054688 37.626953 40.504636 37.775663 42 37.039062 z"/></svg>