<svg xmlns="http://www.w3.org/2000/svg"  viewBox="0 0 48 48" width="50px" height="50px"><path d="M 20.46875 4 C 18.570342 4 16.998047 5.5703425 16.998047 7.46875 C 16.998047 8.086948 16.62992 8.6323185 16.056641 8.8613281 L 16.03125 8.8710938 C 13.578563 9.8521683 12.161663 12.466525 12.679688 15.056641 L 12.712891 15.224609 A 1.50015 1.50015 0 0 0 12 16.5 L 12 38.5 C 12 41.519774 14.480226 44 17.5 44 L 30.5 44 C 33.29992 44 35.547733 41.838632 35.873047 39.121094 A 1.50015 1.50015 0 0 0 36 38.5 L 36 16.5 L 36 12.8125 C 36 9.6148934 34.365402 6.6344587 31.669922 4.9160156 A 1.50015 1.50015 0 0 0 31.533203 4.8398438 C 29.964768 4.0556264 28 5.2705804 28 7.0234375 C 28 7.3411354 27.769896 7.5210022 27.462891 7.4453125 C 26.963386 7.3203109 26.564827 6.9527951 26.402344 6.4648438 L 26.382812 6.4003906 A 1.50015 1.50015 0 0 0 26.378906 6.3925781 C 25.903199 4.9689625 24.559547 4 23.058594 4 L 20.46875 4 z M 20.46875 7 L 23.058594 7 C 23.278614 7 23.462171 7.1331021 23.533203 7.3417969 C 23.533203 7.3417969 23.535156 7.34375 23.535156 7.34375 L 23.554688 7.40625 A 1.50015 1.50015 0 0 0 23.556641 7.4121094 C 24.042065 8.8701605 25.243879 9.98247 26.734375 10.355469 C 28.46868 10.789045 30.13947 9.7395026 30.726562 8.1601562 C 32.078848 9.3573859 33 10.973458 33 12.8125 L 33 15.539062 C 32.400365 15.823034 31.569045 16.244718 30.583984 16.814453 C 30.470703 16.538315 30.329984 16.248676 30.146484 15.955078 C 29.342833 14.669236 27.796764 13.203471 25.056641 12.107422 C 24.295571 11.802994 23.546485 11.643468 22.835938 11.607422 C 22.12539 11.571372 21.45435 11.659363 20.845703 11.851562 C 19.62841 12.235971 18.697928 12.981469 18.009766 13.746094 C 17.377668 14.448424 16.93694 15.182551 16.625 15.787109 C 16.357676 15.703524 16.073521 15.610996 15.837891 15.542969 L 15.621094 14.46875 L 15.621094 14.466797 C 15.384241 13.27761 16.017858 12.106919 17.144531 11.65625 L 17.169922 11.646484 C 18.874644 10.965575 19.998047 9.304552 19.998047 7.46875 C 19.998047 7.1931575 20.193158 7 20.46875 7 z M 22.691406 14.587891 C 23.047507 14.606669 23.454429 14.697006 23.943359 14.892578 C 26.203236 15.796529 27.157167 16.830764 27.603516 17.544922 C 28.033238 18.232478 28.000894 18.466785 27.998047 18.484375 C 27.257904 19.013356 26.510873 19.584243 25.791016 20.228516 C 25.452182 19.9988 25.127874 19.68435 24.789062 19.474609 C 22.946036 18.333688 21.122526 17.479815 19.488281 16.820312 C 19.690045 16.471404 19.927487 16.101404 20.240234 15.753906 C 20.677072 15.268531 21.18409 14.889029 21.748047 14.710938 C 22.030025 14.621892 22.335305 14.569112 22.691406 14.587891 z M 15 18.466797 C 16.747344 18.927001 19.644464 19.817574 23.210938 22.025391 C 28.197495 25.112307 33 30.083333 33 38.5 C 33 39.898226 31.898226 41 30.5 41 L 17.5 41 C 16.101774 41 15 39.898226 15 38.5 L 15 18.466797 z M 33 18.910156 L 33 27.783203 C 31.665194 25.54032 30.061127 23.627892 28.248047 22.074219 C 30.051468 20.567638 31.62007 19.608664 33 18.910156 z M 18.5 29 A 1.5 1.5 0 0 0 18.5 32 A 1.5 1.5 0 0 0 18.5 29 z M 22.5 32 A 1.5 1.5 0 0 0 22.5 35 A 1.5 1.5 0 0 0 22.5 32 z M 18.5 35 A 1.5 1.5 0 0 0 18.5 38 A 1.5 1.5 0 0 0 18.5 35 z"/></svg>