<svg xmlns="http://www.w3.org/2000/svg"  viewBox="0 0 48 48" width="50px" height="50px"><path d="M 19.255859 5.2441406 A 1.50015 1.50015 0 0 0 17.865234 6.1835938 L 5.5898438 36.539062 C 5.5898438 36.539062 5.5898438 36.541016 5.5898438 36.541016 C 4.8566383 38.330311 5.3903076 40.247915 6.5722656 41.429688 C 7.7542237 42.61146 9.6700892 43.143495 11.458984 42.410156 L 11.460938 42.410156 L 41.816406 30.134766 A 1.50015 1.50015 0 0 0 42.755859 28.744141 C 42.755859 15.309266 32.690734 5.2441406 19.255859 5.2441406 z M 20.232422 8.3320312 C 31.338963 8.7832916 39.216708 16.661037 39.667969 27.767578 L 37.125 28.796875 C 36.471291 19.180011 28.819989 11.528709 19.203125 10.875 L 20.232422 8.3320312 z M 18.037109 13.757812 C 26.976303 13.831463 34.168536 21.023697 34.242188 29.962891 L 10.330078 39.630859 A 1.50015 1.50015 0 0 0 10.322266 39.634766 C 9.6487049 39.911247 9.1049723 39.718189 8.6933594 39.306641 C 8.2817464 38.895092 8.0886258 38.351882 8.3652344 37.677734 A 1.50015 1.50015 0 0 0 8.3691406 37.669922 L 18.037109 13.757812 z M 20.484375 16.984375 A 1.50015 1.50015 0 0 0 19.439453 19.560547 L 28.439453 28.560547 A 1.50015 1.50015 0 1 0 30.560547 26.439453 L 21.560547 17.439453 A 1.50015 1.50015 0 0 0 20.484375 16.984375 z M 16.484375 22.984375 A 1.50015 1.50015 0 0 0 15.439453 25.560547 L 22.439453 32.560547 A 1.50015 1.50015 0 1 0 24.560547 30.439453 L 17.560547 23.439453 A 1.50015 1.50015 0 0 0 16.484375 22.984375 z M 13.484375 29.984375 A 1.50015 1.50015 0 0 0 12.439453 32.560547 L 15.439453 35.560547 A 1.50015 1.50015 0 1 0 17.560547 33.439453 L 14.560547 30.439453 A 1.50015 1.50015 0 0 0 13.484375 29.984375 z"/></svg>