<svg xmlns="http://www.w3.org/2000/svg"  viewBox="0 0 48 48" width="50px" height="50px"><path d="M 30 4 C 28.895 4 28 4.895 28 6 L 28 7 C 28 7.736778 28.4014 8.3737032 28.994141 8.7207031 C 29.013441 11.860176 28.301063 13.738652 27.4375 15.675781 C 26.378742 18.05077 25 20.62647 25 24.853516 C 25 26.822441 25.280236 28.206496 25.529297 29.457031 C 25.778358 30.707567 26 31.833212 26 33.664062 C 26 36.010987 25.7327 37.092763 25.447266 38.433594 C 24.735828 41.780241 27.390724 44.957031 30.826172 44.957031 L 37.193359 44.957031 C 40.634147 44.957031 43.288559 41.770942 42.570312 38.421875 A 1.50015 1.50015 0 0 0 42.570312 38.419922 C 42.276846 37.055248 42 36.029356 42 33.666016 C 42 31.835697 42.218746 30.784441 42.46875 29.560547 C 42.718754 28.336652 43 26.939664 43 24.853516 C 43 20.626343 41.596044 18.246264 40.548828 16.015625 C 39.676639 14.157803 38.951328 12.27307 39.005859 8.7207031 C 39.5986 8.3737032 40 7.736778 40 7 L 40 6 C 40 4.895 39.105 4 38 4 L 30 4 z M 31.976562 9 L 36.019531 9 C 36.040856 12.854055 36.911221 15.325467 37.833984 17.291016 C 38.614908 18.954435 39.338157 20.212939 39.71875 22 L 28.273438 22 C 28.656127 20.082873 29.395569 18.651027 30.177734 16.896484 C 31.071097 14.89251 31.9228 12.481815 31.976562 9 z M 17.498047 11.292969 C 10.380047 11.292969 4.5898438 16.999672 4.5898438 24.013672 L 4.5898438 24.578125 C 4.5898438 25.470125 4.6840469 26.366234 4.8730469 27.240234 C 4.8850469 27.293234 4.8999687 27.344484 4.9179688 27.396484 L 9.8476562 41.869141 C 10.507656 43.808141 12.343063 45.111328 14.414062 45.111328 L 21.318359 45.111328 C 21.356359 45.111328 21.393641 45.104516 21.431641 45.103516 C 21.501641 45.105516 21.568672 45.111328 21.638672 45.111328 C 21.769672 45.111328 21.895625 45.087688 22.015625 45.054688 C 23.026625 44.906687 23.946063 44.436953 24.664062 43.751953 C 23.961063 42.742953 23.521812 41.594438 23.382812 40.398438 L 23.242188 40.878906 C 23.010188 41.673906 22.273641 42.225438 21.431641 42.273438 C 20.112641 42.228437 19.016453 41.781016 18.189453 40.916016 C 17.076453 39.754016 16.491031 37.874063 16.582031 35.789062 L 16.820312 31.980469 C 16.933312 29.371469 18.622484 27.10675 21.021484 26.34375 C 21.715484 26.12275 22.381672 25.869563 23.013672 25.601562 C 23.005672 25.361563 23 25.112516 23 24.853516 C 23 23.974516 23.061344 23.178781 23.152344 22.425781 C 22.247344 22.877781 21.249016 23.31125 20.166016 23.65625 C 18.988016 24.03125 17.940922 24.666844 17.044922 25.464844 C 15.660922 23.644844 13.110594 22.407906 10.933594 21.628906 C 12.546594 20.370906 14.928 19.611328 17.5 19.611328 C 19.688 19.611328 21.746563 20.158484 23.351562 21.146484 C 23.551562 20.115484 23.815094 19.18775 24.121094 18.34375 C 22.201094 17.34075 19.9 16.791016 17.5 16.791016 C 13.666 16.791016 10.214234 18.149391 8.1152344 20.400391 C 9.5902344 16.724391 13.237 14.111328 17.5 14.111328 C 20.29 14.111328 22.813625 15.233156 24.640625 17.035156 C 24.850625 16.542156 25.064438 16.064469 25.273438 15.605469 C 25.471438 15.172469 25.659844 14.748312 25.839844 14.320312 C 23.587844 12.435313 20.677047 11.292969 17.498047 11.292969 z M 7.4355469 23.515625 C 7.6105469 23.559625 7.7934219 23.606203 7.9824219 23.658203 C 7.9934219 23.661203 8.003625 23.664969 8.015625 23.667969 C 10.682625 24.401969 14.51425 25.925828 15.15625 27.798828 C 14.48025 29.010828 14.067859 30.383078 14.005859 31.830078 L 13.767578 35.640625 C 13.653578 38.255625 14.326063 40.581062 15.664062 42.289062 L 14.414062 42.289062 L 14.414062 42.291016 C 13.551063 42.291016 12.789531 41.756938 12.519531 40.960938 L 7.6152344 26.566406 C 7.4782344 25.912406 7.4101562 25.242172 7.4101562 24.576172 L 7.4101562 24.011719 C 7.4101562 23.843719 7.4265469 23.681625 7.4355469 23.515625 z M 28.666016 30 L 39.347656 30 C 39.164989 31.001229 39 32.114264 39 33.666016 C 39 36.284675 39.358185 37.755502 39.636719 39.050781 C 39.962472 40.569714 38.832572 41.957031 37.193359 41.957031 L 30.826172 41.957031 C 29.18962 41.957031 28.06025 40.573993 28.382812 39.056641 C 28.659378 37.757471 29 36.25714 29 33.664062 C 29 32.142493 28.843532 31.016926 28.666016 30 z"/></svg>