<svg xmlns="http://www.w3.org/2000/svg"  viewBox="0 0 48 48" width="50px" height="50px"><path d="M 10 5.9980469 C 7.791 5.9980469 6 7.7890469 6 9.9980469 L 6 38.001953 C 6 40.210953 7.791 42.001953 10 42.001953 L 38 42.001953 C 40.209 42.001953 42 40.210953 42 38.001953 L 42 9.9980469 C 42 7.7890469 40.209 5.9980469 38 5.9980469 L 10 5.9980469 z M 10 8.9980469 L 23.394531 8.9980469 A 1.50015 1.50015 0 0 0 23.5 9 L 27 9 L 27 39 L 24.5 39 A 1.50015 1.50015 0 0 0 24.449219 39.001953 L 10 39.001953 C 9.449 39.001953 9 38.552953 9 38.001953 L 9 9.9980469 C 9 9.4470469 9.449 8.9980469 10 8.9980469 z M 30 8.9980469 L 38 8.9980469 C 38.551 8.9980469 39 9.4470469 39 9.9980469 L 39 13.087891 A 1.5 1.5 0 0 0 39 15.914062 L 39 38.001953 C 39 38.552953 38.551 39.001953 38 39.001953 L 30 39.001953 L 30 15.912109 A 1.5 1.5 0 0 0 30 13.085938 L 30 8.9980469 z M 34.5 13 A 1.5 1.5 0 0 0 34.5 16 A 1.5 1.5 0 0 0 34.5 13 z M 18.554688 14.333984 C 18.404688 14.330984 18.252891 14.395844 18.150391 14.527344 L 17.710938 15.089844 C 17.249938 15.679844 17 16.40725 17 17.15625 L 17 17.179688 C 17 18.315688 17.574344 19.373188 18.527344 19.992188 L 18.537109 20 C 19.453109 19.374 20 18.337516 20 17.228516 L 20 17.082031 C 20 16.379031 19.778187 15.693047 19.367188 15.123047 L 18.951172 14.542969 C 18.853672 14.407469 18.704687 14.336984 18.554688 14.333984 z M 14.585938 19 C 14.261938 19 14 19.261938 14 19.585938 C 14 20.490938 14.36 21.36 15 22 C 15.64 22.64 16.508063 23 17.414062 23 C 17.738062 23 18 22.738062 18 22.414062 C 18 21.509062 17.64 20.64 17 20 C 16.36 19.36 15.491938 19 14.585938 19 z M 22.414062 19 C 21.508063 19 20.64 19.36 20 20 C 19.36 20.64 19 21.509062 19 22.414062 C 19 22.738062 19.261938 23 19.585938 23 C 20.491937 23 21.36 22.64 22 22 C 22.64 21.36 23 20.490938 23 19.585938 C 23 19.261938 22.738062 19 22.414062 19 z M 14.585938 23 C 14.261938 23 14 23.261938 14 23.585938 C 14 24.490938 14.36 25.36 15 26 C 15.64 26.64 16.508063 27 17.414062 27 C 17.738062 27 18 26.738062 18 26.414062 C 18 25.509062 17.64 24.64 17 24 C 16.36 23.36 15.491938 23 14.585938 23 z M 22.414062 23 C 21.508063 23 20.64 23.36 20 24 C 19.36 24.64 19 25.509062 19 26.414062 C 19 26.738062 19.261938 27 19.585938 27 C 20.491937 27 21.36 26.64 22 26 C 22.64 25.36 23 24.490938 23 23.585938 C 23 23.261938 22.738062 23 22.414062 23 z M 14.585938 27 C 14.261938 27 14 27.261938 14 27.585938 C 14 28.490938 14.36 29.36 15 30 C 15.64 30.64 16.508063 31 17.414062 31 C 17.738062 31 18 30.738062 18 30.414062 C 18 29.509062 17.64 28.64 17 28 C 16.36 27.36 15.491938 27 14.585938 27 z M 22.414062 27 C 21.508063 27 20.64 27.36 20 28 C 19.36 28.64 19 29.509062 19 30.414062 C 19 30.738062 19.261938 31 19.585938 31 C 20.491937 31 21.36 30.64 22 30 C 22.64 29.36 23 28.490938 23 27.585938 C 23 27.261938 22.738062 27 22.414062 27 z"/></svg>