<svg xmlns="http://www.w3.org/2000/svg"  viewBox="0 0 48 48" width="50px" height="50px"><path d="M 24 4.0898438 C 15.782015 4.0898438 9.0898437 10.782015 9.0898438 19 L 9.0898438 19.675781 C 9.0898438 20.722937 9.2005916 21.766177 9.4179688 22.789062 A 1.410141 1.410141 0 0 0 9.4609375 22.943359 L 15.248047 40.21875 C 15.985066 42.419009 18.058941 43.910156 20.378906 43.910156 L 28.484375 43.910156 C 28.489677 43.910165 28.494694 43.910156 28.5 43.910156 A 1.410156 1.410156 0 0 0 28.732422 43.888672 C 31.036055 43.781337 33.046176 42.223476 33.685547 39.990234 L 38.662109 22.619141 A 1.410141 1.410141 0 0 0 38.697266 22.466797 C 38.83842 21.637515 38.910156 20.797262 38.910156 19.955078 L 38.910156 19 C 38.910153 10.782015 32.217985 4.0898438 24 4.0898438 z M 24 6.9101562 C 27.127833 6.9101562 29.962529 8.0989919 32.105469 10.037109 C 31.795839 9.9805937 31.49147 9.9364855 31.199219 9.9082031 C 29.306663 9.7250526 28.139207 10.013639 27.732422 10.097656 C 27.174864 9.7186561 26.618739 9.3141229 26.042969 9.0742188 C 24.358135 8.3722045 22.732422 8.109375 22.732422 8.109375 A 1.410141 1.410141 0 0 0 22.451172 8.0917969 A 1.410141 1.410141 0 0 0 21.089844 9.5 L 21.089844 11.126953 C 17.855549 11.224353 15.501978 12.266115 14.039062 13.474609 C 13.38543 14.014567 12.94322 14.516332 12.613281 14.960938 C 14.271587 10.266064 18.725937 6.9101563 24 6.9101562 z M 23.910156 11.371094 C 24.3554 11.49465 24.445223 11.462524 24.957031 11.675781 C 25.614614 11.949774 26.235141 12.30539 26.609375 12.648438 C 26.983609 12.991485 27.089844 13.22 27.089844 13.5 A 1.410156 1.410156 0 0 0 29.910156 13.5 C 29.910156 13.23501 29.783773 13.022246 29.728516 12.777344 C 30.233736 12.742554 30.277787 12.654091 30.925781 12.716797 C 32.468476 12.86609 33.959606 13.461181 34.951172 14.880859 C 34.159658 15.516621 31.207723 17.813581 26.84375 19.203125 C 25.345425 19.680077 24.109969 20.571265 23.029297 21.615234 C 21.59914 19.47675 19.034093 18.172727 16.705078 17.251953 C 15.796392 16.892705 15.742709 16.964447 14.958984 16.726562 C 15.17784 16.373555 15.154292 16.213488 15.835938 15.650391 C 16.833382 14.826414 18.587264 14.147545 21.089844 14.039062 L 21.089844 15.5 A 1.410156 1.410156 0 0 0 23.910156 15.5 L 23.910156 12.732422 A 1.410141 1.410141 0 0 0 23.910156 12.273438 L 23.910156 11.371094 z M 36.009766 17.648438 C 36.058927 18.092777 36.089844 18.542207 36.089844 19 L 36.089844 19.955078 C 36.089844 20.62252 36.030004 21.290387 35.919922 21.951172 L 30.974609 39.212891 A 1.410141 1.410141 0 0 0 30.974609 39.214844 C 30.655697 40.328765 29.649756 41.087267 28.490234 41.089844 C 26.325672 41.087268 24.866857 40.259845 23.826172 38.876953 C 22.783861 37.491903 22.216823 35.466173 22.316406 33.169922 L 22.595703 28.759766 A 1.410141 1.410141 0 0 0 22.595703 28.732422 C 22.731967 25.598359 24.752545 22.826667 27.699219 21.888672 C 31.370345 20.719739 34.355841 18.832892 36.009766 17.648438 z M 11.925781 18.673828 C 12.860045 18.908684 14.130643 19.264495 15.669922 19.873047 C 18.220042 20.881234 20.689547 22.527624 21.162109 23.945312 A 1.410141 1.410141 0 0 0 21.1875 24.013672 C 20.410403 25.416007 19.851686 26.949534 19.779297 28.607422 C 19.779297 28.607422 19.779297 28.609375 19.779297 28.609375 L 19.5 33.019531 A 1.410141 1.410141 0 0 0 19.5 33.048828 C 19.377583 35.871577 20.044076 38.541566 21.572266 40.572266 C 21.708244 40.752958 21.859547 40.92102 22.009766 41.089844 L 20.378906 41.089844 C 19.260872 41.089844 18.276856 40.382007 17.921875 39.322266 L 12.171875 22.15625 C 12.001683 21.339863 11.910156 20.508917 11.910156 19.675781 L 11.910156 19 C 11.910156 18.889811 11.922875 18.783295 11.925781 18.673828 z M 26.5 26 A 1.5 1.5 0 0 0 26.5 29 A 1.5 1.5 0 0 0 26.5 26 z M 27.5 31 A 1.5 1.5 0 0 0 27.5 34 A 1.5 1.5 0 0 0 27.5 31 z"/></svg>