<svg xmlns="http://www.w3.org/2000/svg"  viewBox="0 0 48 48" width="50px" height="50px"><path d="M 35.498047 3.9824219 A 1.50015 1.50015 0 0 0 34.267578 4.6464844 L 31.507812 8.6308594 C 28.992727 6.7032388 26.391329 6.530228 24.585938 7.2246094 C 23.233708 7.7446975 22.430336 8.4457561 21.916016 8.9648438 C 19.277717 8.712284 17.324952 9.6849063 16.3125 10.832031 A 1.50015 1.50015 0 0 0 16.3125 10.833984 C 15.747329 11.47542 14.92965 11.874778 14.085938 11.921875 C 10.400773 12.128121 8.2968801 14.125872 7.515625 16.025391 C 7.2185251 16.74775 7.075406 17.45288 7.0117188 18.050781 L 2.2285156 25.705078 A 1.50015 1.50015 0 1 0 4.7714844 27.294922 L 8.1132812 21.949219 L 14.382812 39.978516 C 15.009733 41.782967 16.72308 43 18.632812 43 L 30.277344 43 C 32.251078 43 34.007447 41.699352 34.582031 39.810547 L 34.582031 39.808594 L 39.976562 22.089844 L 43.228516 27.294922 A 1.50015 1.50015 0 1 0 45.771484 25.705078 L 40.771484 17.705078 A 1.50015 1.50015 0 0 0 40.755859 17.681641 A 1.50015 1.50015 0 0 0 40.71875 17.626953 A 1.50015 1.50015 0 0 0 40.699219 17.601562 C 40.165084 15.941405 39.003149 14.680644 37.9375 13.828125 C 37.67777 13.620341 37.425111 13.453103 37.173828 13.283203 L 40.4375 10.671875 A 1.5007322 1.5007322 0 1 0 38.5625 8.328125 L 33.724609 12.197266 A 1.50015 1.50015 0 0 0 33.382812 12.472656 L 31.396484 14.060547 L 36.732422 6.3535156 A 1.50015 1.50015 0 0 0 35.498047 3.9824219 z M 26.970703 9.765625 C 27.764322 9.7723697 28.687912 10.095601 29.826172 11.060547 L 25.996094 16.59375 A 1.5 1.5 0 0 0 24.5 15 A 1.5 1.5 0 0 0 23.085938 17 L 10.365234 17 C 10.808809 16.009173 11.599845 15.066398 14.251953 14.917969 C 15.915771 14.825095 17.467722 14.060304 18.5625 12.818359 C 19.108002 12.200296 19.916158 11.554801 22.070312 11.951172 A 1.5 1.5 0 0 0 23.5 13 A 1.5 1.5 0 0 0 24.673828 10.568359 C 24.961464 10.367919 25.283 10.171953 25.664062 10.025391 C 26.0654 9.87103 26.494532 9.7615782 26.970703 9.765625 z M 34.693359 15.267578 C 35.080456 15.480419 35.567144 15.77559 36.0625 16.171875 C 36.376226 16.422856 36.661973 16.703503 36.925781 17 L 32.527344 17 L 34.693359 15.267578 z M 11.761719 20 L 26.107422 20 A 1.50015 1.50015 0 0 0 26.828125 20 L 36.673828 20 L 33.892578 22.916016 A 1.50015 1.50015 0 0 0 33.890625 22.916016 C 33.230553 23.608336 32.31745 24 31.359375 24 L 17.457031 24 C 16.574521 24 15.728944 23.668916 15.082031 23.070312 L 11.761719 20 z M 12.158203 24.451172 L 13.044922 25.271484 C 14.24601 26.382833 15.821542 27 17.457031 27 L 31.359375 27 C 33.06671 27 34.700796 26.321319 35.914062 25.126953 L 31.712891 38.935547 A 1.50015 1.50015 0 0 0 31.710938 38.9375 C 31.517062 39.575781 30.945051 40 30.277344 40 L 18.632812 40 C 17.988546 40 17.427877 39.60169 17.216797 38.994141 L 12.158203 24.451172 z"/></svg>