<svg xmlns="http://www.w3.org/2000/svg"  viewBox="0 0 48 48" width="50px" height="50px"><path d="M 24 4.8007812 C 23.115486 4.8008121 22.230049 5.1301891 21.556641 5.7871094 L 21.662109 5.6933594 L 4.0800781 19.900391 A 1.50015 1.50015 0 0 0 3.9765625 19.994141 C 3.0523753 20.894594 2.7671141 22.172145 3.0136719 23.28125 A 1.50015 1.50015 0 0 0 3 23.5 L 3 32.5 L 3 38.5 C 3 41.519774 5.4802259 44 8.5 44 L 12.341797 44 A 1.50015 1.50015 0 0 0 13.787109 42.900391 C 14.061927 41.906725 15.223673 40.675387 17.244141 39.75 C 19.264608 38.824613 22.036055 38.222656 25.085938 38.222656 C 28.136426 38.222656 30.907467 38.824765 32.927734 39.75 C 34.948001 40.675235 36.10788 41.906001 36.382812 42.900391 A 1.50015 1.50015 0 0 0 37.828125 44 L 39.498047 44 C 42.517821 44 44.998047 41.519774 44.998047 38.5 L 44.998047 31.501953 L 44.998047 25.501953 L 44.998047 23.5 A 1.50015 1.50015 0 0 0 44.984375 23.291016 C 45.235262 22.179796 44.952383 20.897327 44.025391 19.994141 A 1.50015 1.50015 0 0 0 43.919922 19.900391 L 26.337891 5.6933594 L 26.443359 5.7851562 C 25.769649 5.1287869 24.884514 4.8007505 24 4.8007812 z M 24 7.7832031 C 24.122846 7.7830654 24.24632 7.8329631 24.349609 7.9335938 A 1.50015 1.50015 0 0 0 24.453125 8.0273438 L 41.933594 22.152344 C 42.129399 22.348897 42.122162 22.49763 42.044922 22.6875 C 41.966274 22.880829 41.87145 23 41.582031 23 L 38.164062 23 C 37.094299 21.537865 35.557533 20.349014 33.554688 19.53125 C 31.160006 18.553498 28.245367 18 25.085938 18 C 21.926977 18 19.01001 18.553516 16.615234 19.53125 C 14.61231 20.349 13.075718 21.537815 12.005859 23 L 6.4199219 23 C 6.1296642 23 6.0336079 22.882577 5.9550781 22.689453 C 5.8776791 22.49911 5.8702127 22.348124 6.0683594 22.150391 L 23.546875 8.0273438 A 1.50015 1.50015 0 0 0 23.652344 7.9335938 C 23.754935 7.833514 23.877154 7.7833409 24 7.7832031 z M 25.085938 21 C 27.889506 21 30.455806 21.505845 32.421875 22.308594 C 34.206657 23.037322 35.443555 24.021091 36.025391 24.914062 L 36.025391 26.802734 C 35.303053 26.267041 34.486496 25.796474 33.554688 25.416016 C 31.160006 24.438264 28.245367 23.882813 25.085938 23.882812 C 21.926976 23.882812 19.01001 24.436329 16.615234 25.414062 C 15.678471 25.796523 14.869145 26.278121 14.144531 26.818359 L 14.144531 24.914062 C 14.726307 24.021167 15.963124 23.037338 17.748047 22.308594 C 19.714271 21.505828 22.282898 21 25.085938 21 z M 41.919922 25.892578 C 41.812497 27.502111 41.275177 28.049823 40.675781 28.345703 C 40.014073 28.672342 39.308594 28.636719 39.308594 28.636719 L 39.025391 28.605469 L 39.025391 26 L 41.582031 26 C 41.709111 26 41.796838 25.906 41.919922 25.892578 z M 6.3320312 25.972656 C 6.3647512 25.973547 6.3869571 26 6.4199219 26 L 11.144531 26 L 11.144531 28.365234 L 8.6777344 28.638672 C 8.6777344 28.638672 8.6738481 28.638671 8.6738281 28.638672 C 8.6698681 28.638867 8.028366 28.670962 7.4492188 28.408203 C 6.8682871 28.144635 6.3417969 27.87158 6.3417969 26.158203 A 1.50015 1.50015 0 0 0 6.3320312 25.972656 z M 25.085938 26.882812 C 27.889506 26.882812 30.455806 27.390611 32.421875 28.193359 C 34.206657 28.922089 35.443555 29.904201 36.025391 30.796875 L 36.025391 32.630859 C 35.284001 32.142348 34.452693 31.718219 33.554688 31.351562 C 31.160006 30.373811 28.245367 29.820312 25.085938 29.820312 C 21.926976 29.820312 19.01001 30.373828 16.615234 31.351562 C 15.718084 31.71785 14.885356 32.14102 14.144531 32.628906 L 14.144531 30.796875 C 14.726307 29.904276 15.963124 28.922104 17.748047 28.193359 C 19.714271 27.390594 22.282898 26.882812 25.085938 26.882812 z M 6 31.023438 C 6.0698338 31.060358 6.1392364 31.107027 6.2089844 31.138672 C 7.6150527 31.776604 8.9550781 31.625 8.9550781 31.625 A 1.50015 1.50015 0 0 0 8.9824219 31.623047 L 11.144531 31.382812 L 11.144531 34.363281 L 8.6523438 34.640625 A 1.50015 1.50015 0 0 0 8.5742188 34.652344 C 8.5742188 34.652344 7.7905189 34.744044 7.1386719 34.523438 C 6.4868248 34.302831 6 34.173879 6 32.5 L 6 31.023438 z M 41.998047 31.039062 L 41.998047 31.501953 C 41.998047 33.570253 41.337489 34.019064 40.675781 34.345703 C 40.014073 34.672342 39.310547 34.636719 39.310547 34.636719 L 39.025391 34.605469 L 39.025391 31.625 A 1.50015 1.50015 0 0 0 39.052734 31.626953 C 39.052734 31.626953 40.503267 31.774733 41.998047 31.039062 z M 25.085938 32.820312 C 27.889506 32.820312 30.455806 33.326158 32.421875 34.128906 C 34.206657 34.857635 35.443555 35.841404 36.025391 36.734375 L 36.025391 38.226562 C 35.418957 37.815629 34.887387 37.349336 34.175781 37.023438 C 31.671798 35.876672 28.523449 35.222656 25.085938 35.222656 C 21.648819 35.222656 18.498173 35.876573 15.994141 37.023438 C 15.281876 37.349658 14.751428 37.81716 14.144531 38.228516 L 14.144531 36.734375 C 14.156513 36.715986 14.165192 36.698151 14.177734 36.679688 A 1.5004238 1.5004238 0 0 0 14.355469 36.445312 C 15.000343 35.634 16.154097 34.779681 17.748047 34.128906 C 19.714271 33.32614 22.282898 32.820312 25.085938 32.820312 z M 41.998047 37.039062 L 41.998047 38.5 C 41.998047 39.898226 40.896273 41 39.498047 41 L 39.025391 41 L 39.025391 37.623047 A 1.50015 1.50015 0 0 0 39.054688 37.626953 C 39.054688 37.626953 40.503272 37.774733 41.998047 37.039062 z M 6 37.289062 C 6.059191 37.312536 6.1189352 37.345335 6.1777344 37.365234 C 7.5607113 37.833275 8.7827436 37.656384 8.9824219 37.623047 L 11.144531 37.382812 L 11.144531 41 L 8.5 41 C 7.1017741 41 6 39.898226 6 38.5 L 6 37.289062 z"/></svg>