<svg xmlns="http://www.w3.org/2000/svg"  viewBox="0 0 48 48" width="50px" height="50px"><path d="M 16.5 5.25 C 15.94647 5.2500065 15.392573 5.3769555 14.884766 5.6308594 L 12.527344 6.8085938 A 1.50015 1.50015 0 0 0 12.525391 6.8105469 C 12.398932 6.8740569 12.250279 6.8906137 12.107422 6.8554688 L 11.488281 6.7011719 C 9.2436123 6.1387416 7 7.8895326 7 10.203125 L 7 13.365234 C 5.064197 20.328592 5.0643663 27.681539 7.0019531 34.644531 A 1.50015 1.50015 0 0 0 7 34.748047 L 7 38.332031 C 7 40.953931 9.8810441 42.735542 12.226562 41.564453 C 12.400939 41.477413 12.601052 41.478263 12.773438 41.564453 L 14.732422 42.542969 C 15.890529 43.122878 17.27567 43.035622 18.351562 42.318359 A 1.50015 1.50015 0 0 0 18.353516 42.318359 L 19.3125 41.675781 C 19.496113 41.553081 19.724439 41.538978 19.923828 41.638672 L 21.884766 42.619141 C 22.900389 43.126099 24.099619 43.126948 25.115234 42.619141 L 27.224609 41.5625 C 27.398986 41.47546 27.601052 41.47631 27.773438 41.5625 L 29.884766 42.619141 C 30.900389 43.126099 32.099619 43.126948 33.115234 42.619141 L 35.472656 41.439453 A 1.50015 1.50015 0 0 0 35.474609 41.4375 C 35.601068 41.37399 35.749721 41.357428 35.892578 41.392578 L 36.511719 41.548828 C 38.756341 42.111303 41 40.358514 41 38.044922 L 41 34.748047 A 1.50015 1.50015 0 0 0 41 34.746094 A 1.50015 1.50015 0 0 0 41.017578 34.560547 C 42.92473 27.648772 42.925602 20.357316 41.019531 13.445312 A 1.50015 1.50015 0 0 0 41 13.259766 L 41 9.9160156 C 41 7.2941157 38.118752 5.5128896 35.773438 6.6855469 C 35.599061 6.7725889 35.398947 6.7717389 35.226562 6.6855469 L 33.267578 5.7070312 L 33.265625 5.7070312 C 32.107924 5.1280971 30.723782 5.2147434 29.648438 5.9316406 L 28.6875 6.5722656 C 28.503887 6.6949657 28.275561 6.7110222 28.076172 6.6113281 L 26.115234 5.6308594 C 25.099611 5.1239012 23.900381 5.1230516 22.884766 5.6308594 L 20.773438 6.6855469 C 20.59949 6.7716589 20.398335 6.7714319 20.226562 6.6855469 L 18.115234 5.6308594 C 17.607423 5.3773803 17.05353 5.2499935 16.5 5.25 z M 16.5 8.25 C 16.593862 8.2498938 16.688202 8.2709321 16.775391 8.3144531 L 18.884766 9.3691406 C 19.900381 9.8769484 21.099611 9.8760988 22.115234 9.3691406 L 24.226562 8.3144531 C 24.398335 8.2285681 24.59949 8.2283411 24.773438 8.3144531 L 26.734375 9.2929688 C 27.890224 9.870893 29.275477 9.7863503 30.351562 9.0683594 L 30.353516 9.0664062 L 31.3125 8.4277344 C 31.496606 8.3049968 31.727935 8.2905813 31.923828 8.3886719 L 33.884766 9.3691406 C 34.900381 9.8769484 36.097658 9.8760988 37.113281 9.3691406 A 1.50015 1.50015 0 0 0 37.115234 9.3691406 C 37.577827 9.1377952 38 9.3999156 38 9.9160156 L 38 12 L 10 12 L 10 10.203125 C 10 9.7687174 10.338435 9.5057584 10.759766 9.6113281 L 11.378906 9.765625 A 1.50015 1.50015 0 0 0 11.380859 9.765625 C 12.214102 9.9735097 13.097035 9.8788756 13.869141 9.4921875 L 16.226562 8.3144531 C 16.312755 8.2713571 16.406138 8.2501062 16.5 8.25 z M 9.6757812 15 L 38.324219 15 C 39.819721 20.909715 39.824451 27.090247 38.330078 33 L 9.671875 33 C 8.1772852 27.090061 8.180279 20.909934 9.6757812 15 z M 33.5 17 C 31.25 17 29.525391 17.576172 28.025391 18.076172 C 26.525391 18.576172 25.25 19 23.5 19 C 21.75 19 20.710889 18.600722 19.591797 18.121094 C 18.494445 17.650783 17.246311 17.039775 15.587891 17.015625 C 15.468069 17.00773 14.210506 16.935602 13.078125 17.816406 C 11.891008 18.739785 11 20.552232 11 23.5 C 11 26.190582 12.053363 28.236276 13.572266 29.429688 C 15.091168 30.623099 16.916594 31 18.5 31 C 20.07158 31 21.41481 30.652494 22.654297 30.171875 C 23.42459 30.503368 24.635986 31 26.5 31 C 29.75 31 32.370904 30.185704 34.210938 28.652344 C 36.05097 27.118983 37 24.875 37 22.5 C 37 20.25 36.4141 18.793007 35.560547 17.939453 C 35.13377 17.512676 34.664346 17.264417 34.287109 17.138672 C 33.909873 17.012926 33.5 17 33.5 17 z M 15.333984 19.990234 L 15.417969 20 L 15.5 20 C 16.458547 20 17.195999 20.358534 18.410156 20.878906 C 18.757472 21.027761 19.148714 21.180109 19.568359 21.326172 A 1.5 1.5 0 0 0 20.5 24 A 1.5 1.5 0 0 0 21.869141 21.886719 C 22.374199 21.956181 22.914006 22 23.5 22 C 25.415613 22 26.904628 21.571546 28.244141 21.138672 C 27.773905 21.80165 27.31162 22.424612 26.804688 23.09375 C 25.671735 24.589217 24.446081 25.955425 22.859375 26.869141 A 1.5 1.5 0 0 0 21.5 26 A 1.5 1.5 0 0 0 20.048828 27.876953 C 19.562371 27.954984 19.049375 28 18.5 28 C 17.416406 28 16.240129 27.710151 15.425781 27.070312 C 15.39588 27.046819 15.371131 27.01461 15.341797 26.990234 A 1.5 1.5 0 0 0 15.5 27 A 1.5 1.5 0 0 0 15.5 24 A 1.5 1.5 0 0 0 14.130859 24.894531 C 14.048508 24.493795 14 24.037928 14 23.5 C 14 21.114768 14.608992 20.426965 14.921875 20.183594 C 15.234758 19.940223 15.333984 19.990234 15.333984 19.990234 z M 33.429688 20.052734 C 33.436087 20.058634 33.432153 20.053287 33.439453 20.060547 C 33.585865 20.207006 34 20.75 34 22.5 C 34 24.125 33.44903 25.381017 32.289062 26.347656 C 31.129095 27.314296 29.25 28 26.5 28 C 26.40404 28 26.365297 27.968074 26.275391 27.964844 C 27.399967 26.998624 28.402756 25.952403 29.195312 24.90625 C 30.283503 23.469869 31.166702 22.091679 31.929688 21.181641 C 32.658549 20.312301 33.115499 20.07671 33.429688 20.052734 z M 10 36 L 38 36 L 38 38.044922 C 38 38.479329 37.661565 38.744242 37.240234 38.638672 L 36.621094 38.482422 A 1.50015 1.50015 0 0 0 36.619141 38.482422 C 35.784605 38.274215 34.89991 38.369616 34.126953 38.757812 L 31.773438 39.935547 C 31.601665 40.021427 31.40051 40.021657 31.226562 39.935547 L 29.115234 38.878906 C 28.099619 38.371098 26.900389 38.371948 25.884766 38.878906 L 23.773438 39.935547 C 23.601665 40.021427 23.40051 40.021657 23.226562 39.935547 L 23.224609 39.935547 L 21.265625 38.955078 C 20.109014 38.376773 18.722871 38.462341 17.646484 39.181641 L 16.6875 39.822266 C 16.503394 39.945003 16.272065 39.959421 16.076172 39.861328 L 14.115234 38.880859 C 13.099619 38.373052 11.902342 38.373901 10.886719 38.880859 C 10.424238 39.111773 10 38.848131 10 38.332031 L 10 36 z"/></svg>