<svg xmlns="http://www.w3.org/2000/svg"  viewBox="0 0 48 48" width="50px" height="50px"><path d="M 24 5.1113281 C 22.41 5.1113281 20.931203 5.7963594 19.908203 6.9433594 C 19.049203 6.4033594 18.049 6.1113281 17 6.1113281 C 16.503 6.1113281 16.003625 6.1775469 15.515625 6.3105469 C 13.718625 6.7985469 12.271328 8.2167187 11.736328 10.011719 C 11.626328 10.380719 11.554484 10.756812 11.521484 11.132812 C 11.176484 11.162812 10.833141 11.224359 10.494141 11.318359 C 8.5881406 11.851359 7.11725 13.374922 6.65625 15.294922 C 6.31225 16.729922 6.5399219 18.204266 7.2949219 19.447266 C 6.8749219 20.756266 7.1131563 22.166047 7.9101562 23.248047 C 8.2649106 23.730882 8.7167621 24.122595 9.2246094 24.416016 L 14.634766 40.505859 C 15.077452 41.980319 16.449562 43 17.988281 43 L 29.011719 43 C 30.550696 43 31.92286 41.979281 32.365234 40.505859 L 37.630859 24.845703 C 38.462636 24.619952 39.215965 24.14986 39.783203 23.474609 C 40.602203 22.499609 40.944609 21.218937 40.724609 19.960938 C 40.699609 19.820937 40.674484 19.683875 40.646484 19.546875 C 41.441484 18.295875 41.69575 16.766828 41.34375 15.298828 C 40.88375 13.380828 39.413766 11.856266 37.509766 11.322266 C 37.169766 11.227266 36.824516 11.163813 36.478516 11.132812 C 36.445516 10.756813 36.374672 10.381719 36.263672 10.011719 C 35.728672 8.2167188 34.280375 6.7995 32.484375 6.3125 C 31.996375 6.1805 31.497 6.1113281 31 6.1113281 C 29.951 6.1113281 28.950797 6.4053125 28.091797 6.9453125 C 27.068797 5.7973125 25.59 5.1113281 24 5.1113281 z M 24 8.1113281 C 25.027 8.1113281 25.901203 8.7331406 26.283203 9.6191406 C 26.461203 10.032141 26.777844 10.377516 27.214844 10.478516 C 27.353844 10.510516 27.491906 10.544078 27.628906 10.580078 C 27.738906 10.609078 27.848031 10.623047 27.957031 10.623047 C 28.373031 10.623047 28.770156 10.421125 29.035156 10.078125 C 29.490156 9.490125 30.198 9.1113281 31 9.1113281 C 31.227 9.1113281 31.461219 9.1400781 31.699219 9.2050781 C 32.500219 9.4230781 33.151672 10.071187 33.388672 10.867188 C 33.542672 11.384187 33.529531 11.879312 33.394531 12.320312 C 33.217531 12.896313 33.33525 13.514922 33.78125 13.919922 C 33.78825 13.925922 33.795734 13.932453 33.802734 13.939453 C 34.071734 14.184453 34.416578 14.308594 34.767578 14.308594 C 34.926578 14.308594 35.086187 14.282469 35.242188 14.230469 C 35.480187 14.152469 35.735953 14.109375 36.001953 14.109375 C 36.227953 14.109375 36.462172 14.140031 36.701172 14.207031 C 37.542172 14.443031 38.224734 15.144141 38.427734 15.994141 C 38.613734 16.769141 38.435203 17.497688 38.033203 18.054688 C 37.610203 18.640687 37.548219 19.402375 37.699219 20.109375 C 37.725219 20.231375 37.749484 20.354516 37.771484 20.478516 C 37.909484 21.270516 37.313766 22 36.509766 22 L 28.75 22 A 1.50015 1.50015 0 0 0 28.443359 21.980469 A 1.50015 1.50015 0 0 0 28.265625 22 L 19.748047 22 A 1.50015 1.50015 0 0 0 19.449219 21.980469 A 1.50015 1.50015 0 0 0 19.257812 22 L 11.369141 22 C 10.520141 22 9.8837188 21.181094 10.136719 20.371094 C 10.139719 20.360094 10.143484 20.349844 10.146484 20.339844 C 10.405484 19.513844 10.306422 18.631578 9.8574219 17.892578 C 9.5344219 17.360578 9.4062188 16.698094 9.5742188 15.996094 C 9.7782188 15.146094 10.460734 14.443984 11.302734 14.208984 C 11.540734 14.141984 11.774 14.111328 12 14.111328 C 12.264 14.111328 12.517859 14.153469 12.755859 14.230469 C 12.912859 14.281469 13.074375 14.308594 13.234375 14.308594 C 13.588375 14.308594 13.935078 14.183547 14.205078 13.935547 C 14.210078 13.930547 14.214703 13.925875 14.220703 13.921875 C 14.665703 13.515875 14.783422 12.896313 14.607422 12.320312 C 14.472422 11.878312 14.457328 11.384187 14.611328 10.867188 C 14.848328 10.071188 15.499781 9.4220781 16.300781 9.2050781 C 16.538781 9.1400781 16.773 9.1113281 17 9.1113281 C 17.801 9.1113281 18.508891 9.490125 18.962891 10.078125 C 19.227891 10.421125 19.623063 10.621094 20.039062 10.621094 C 20.149062 10.621094 20.260094 10.607125 20.371094 10.578125 C 20.508094 10.542125 20.647156 10.508563 20.785156 10.476562 C 21.223156 10.375562 21.538797 10.031141 21.716797 9.6191406 C 22.098797 8.7321406 22.973 8.1113281 24 8.1113281 z M 19.5 13 A 1.5 1.5 0 0 0 19.5 16 A 1.5 1.5 0 0 0 19.5 13 z M 30.5 15 A 1.5 1.5 0 0 0 30.5 18 A 1.5 1.5 0 0 0 30.5 15 z M 24.5 17 A 1.5 1.5 0 0 0 24.5 20 A 1.5 1.5 0 0 0 24.5 17 z M 15.5 18 A 1.5 1.5 0 0 0 15.5 21 A 1.5 1.5 0 0 0 15.5 18 z M 12.587891 25 L 18.166016 25 L 19.929688 40 L 17.988281 40 C 17.761 40 17.573126 39.862071 17.507812 39.644531 A 1.50015 1.50015 0 0 0 17.494141 39.597656 L 12.587891 25 z M 21.1875 25 L 26.712891 25 L 24.066406 40 L 22.951172 40 L 21.1875 25 z M 29.757812 25 L 34.412109 25 L 29.505859 39.597656 A 1.50015 1.50015 0 0 0 29.492188 39.644531 C 29.426561 39.863115 29.240741 40 29.011719 40 L 27.111328 40 L 29.757812 25 z"/></svg>