<svg xmlns="http://www.w3.org/2000/svg"  viewBox="0 0 48 48" width="50px" height="50px"><path d="M 12.275391 6 C 10.89264 6 9.8032474 6.864066 9.2324219 8 L 7.7363281 8 C 5.1968735 8 3.4691977 10.79362 4.6054688 13.064453 L 5 13.853516 L 5 35.5 C 5 38.519774 7.4802259 41 10.5 41 L 16.5 41 L 24.449219 41 C 25.734725 41.636484 27.162757 42 28.652344 42 L 33.349609 42 C 37.071244 42 40.457273 39.819209 41.998047 36.431641 L 44.865234 30.121094 A 1.50015 1.50015 0 0 0 43.5 28 L 41.644531 28 L 44.460938 25.652344 A 1.50015 1.50015 0 0 0 43.457031 22.988281 A 1.50015 1.50015 0 0 0 42.539062 23.347656 L 37 27.964844 L 37 13.746094 L 38.044922 10.607422 L 38.044922 10.605469 C 38.785313 8.3816467 37.06841 6 34.724609 6 L 12.275391 6 z M 12.275391 9 L 34.724609 9 C 35.110122 9 35.32117 9.2926312 35.199219 9.6582031 L 34.751953 11 L 12.248047 11 L 11.800781 9.6582031 C 11.6791 9.2925962 11.889878 9 12.275391 9 z M 7.7363281 11 L 9.0839844 11 L 10 13.746094 L 10 35.5 C 10 36.399198 10.224692 37.247721 10.613281 38 L 10.5 38 C 9.1017741 38 8 36.898226 8 35.5 L 8 13.5 A 1.50015 1.50015 0 0 0 7.8417969 12.830078 L 7.2890625 11.722656 C 7.0953334 11.335489 7.3017827 11 7.7363281 11 z M 13 14 L 34 14 L 34 28 L 18.5 28 A 1.50015 1.50015 0 0 0 17.134766 30.121094 L 20.003906 36.431641 C 20.25963 36.994049 20.582966 37.508562 20.933594 38 L 16.5 38 L 15.5 38 C 14.101774 38 13 36.898226 13 35.5 L 13 14 z M 23.554688 16.333984 C 23.404688 16.330984 23.252891 16.395844 23.150391 16.527344 L 22.710938 17.089844 C 22.249938 17.679844 22 18.40725 22 19.15625 L 22 19.179688 C 22 20.315688 22.574344 21.373188 23.527344 21.992188 L 23.537109 22 C 24.453109 21.374 25 20.337516 25 19.228516 L 25 19.082031 C 25 18.379031 24.778187 17.693047 24.367188 17.123047 L 23.951172 16.542969 C 23.853672 16.407469 23.704687 16.336984 23.554688 16.333984 z M 19.585938 21 C 19.261938 21 19 21.261938 19 21.585938 C 19 22.490938 19.36 23.36 20 24 C 20.64 24.64 21.508063 25 22.414062 25 C 22.738062 25 23 24.738062 23 24.414062 C 23 23.509062 22.64 22.64 22 22 C 21.36 21.36 20.491937 21 19.585938 21 z M 27.414062 21 C 26.508063 21 25.64 21.36 25 22 C 24.36 22.64 24 23.509062 24 24.414062 C 24 24.738062 24.261938 25 24.585938 25 C 25.491937 25 26.36 24.64 27 24 C 27.64 23.36 28 22.490938 28 21.585938 C 28 21.261938 27.738062 21 27.414062 21 z M 20.830078 31 L 37.292969 31 A 1.50015 1.50015 0 0 0 37.691406 31 L 41.169922 31 L 39.265625 35.189453 C 38.208399 37.513885 35.901974 39 33.349609 39 L 28.652344 39 C 26.099979 39 23.790494 37.513241 22.734375 35.189453 L 20.830078 31 z"/></svg>