<svg xmlns="http://www.w3.org/2000/svg"  viewBox="0 0 48 48" width="50px" height="50px"><path d="M 16.5 5 C 13.480226 5 11 7.4802259 11 10.5 L 11 13.146484 L 8.953125 17.240234 C 7.6676989 19.80891 7 22.642008 7 25.513672 L 7 37.5 C 7 40.519774 9.4802259 43 12.5 43 L 27.484375 43 L 35.447266 43.078125 C 38.486327 43.107083 41 40.61819 41 37.578125 L 41 24.582031 C 41 22.363041 40.600098 20.164649 39.822266 18.087891 L 38 13.228516 L 38 10.5 C 38 7.4802259 35.519774 5 32.5 5 L 16.5 5 z M 16.5 8 L 32.5 8 C 33.898226 8 35 9.1017741 35 10.5 L 35 12 L 14 12 L 14 10.5 C 14 9.1017741 15.101774 8 16.5 8 z M 13.427734 15 L 34.335938 15 L 33.177734 18.087891 C 32.822683 19.035854 32.5568 20.010959 32.361328 21 L 10.675781 21 C 10.928185 20.171064 11.246627 19.361554 11.636719 18.582031 L 13.427734 15 z M 36.5 17.771484 L 37.013672 19.140625 C 37.665839 20.881867 38 22.723021 38 24.582031 L 38 37.578125 C 38 38.987395 36.884606 40.092053 35.476562 40.078125 L 34.353516 40.066406 C 34.763541 39.298163 35 38.42545 35 37.5 L 35 24.582031 C 35 22.723021 35.334161 20.881867 35.986328 19.140625 L 36.5 17.771484 z M 10.078125 24 L 32.025391 24 C 32.019248 24.194322 32 24.387324 32 24.582031 L 32 37.5 C 32 38.898226 30.898226 40 29.5 40 L 27.515625 40 L 12.5 40 C 11.101774 40 10 38.898226 10 37.5 L 10 25.513672 C 10 25.006684 10.028804 24.502335 10.078125 24 z"/></svg>