<svg xmlns="http://www.w3.org/2000/svg"  viewBox="0 0 48 48" width="50px" height="50px"><path d="M 16.5 3 C 15.671 3 15 3.672 15 4.5 L 15 6.1445312 L 10.580078 14.982422 C 10.200078 15.740422 10 16.591359 10 17.443359 L 10 18.951172 C 10.445 18.747172 10.926688 18.617281 11.429688 18.613281 L 11.435547 18.613281 C 12.005547 18.613281 12.531 18.744609 13 18.974609 L 13 18 L 25 18 L 25 41 L 21.806641 41 C 21.333641 42.309 20.817766 43.305 20.259766 44 L 34.5 44 C 36.43 44 38 42.43 38 40.5 L 38 17.443359 C 38 16.595359 37.799922 15.745375 37.419922 14.984375 L 33 6.1445312 L 33 4.5 C 33 3.672 32.329 3 31.5 3 L 16.5 3 z M 17.427734 8 L 29.072266 8 L 25.580078 14.984375 C 25.577578 14.98937 25.576703 14.994998 25.574219 15 L 13.927734 15 L 17.427734 8 z M 31.5 9.8535156 L 34.736328 16.324219 C 34.909328 16.670219 35 17.058359 35 17.443359 L 35 40.5 C 35 40.775 34.775 41 34.5 41 L 28 41 L 28 17.443359 C 28 17.054243 28.09086 16.671182 28.263672 16.326172 L 31.5 9.8535156 z M 11.386719 20.615234 A 1.50015 1.50015 0 0 0 10.216797 21.265625 C 10.216797 21.265625 9.3412395 22.541458 8.4589844 24.056641 C 8.0178568 24.814232 7.5724936 25.633034 7.21875 26.423828 C 7.0332316 26.838555 6.8648102 27.22715 6.7421875 27.634766 C 6.7345204 27.632843 6.7264097 27.630822 6.71875 27.628906 C 5.0041284 27.199991 3.4648438 26.9375 3.4648438 26.9375 A 1.50015 1.50015 0 0 0 3.1660156 26.916016 A 1.50015 1.50015 0 0 0 1.7363281 28.689453 C 1.7363281 28.689453 2.1386541 31.06695 2.8554688 33.306641 A 1.50015 1.50015 0 0 0 1.7363281 35.037109 C 1.7363281 35.037109 2.0193175 36.558653 2.4667969 38.253906 C 2.6905366 39.101533 2.954729 39.995365 3.2636719 40.804688 C 3.5726147 41.61401 3.8422823 42.320274 4.4941406 42.972656 A 1.50015 1.50015 0 0 0 4.4960938 42.974609 C 5.7362808 44.214796 7.4683181 44.650037 9.0625 44.373047 C 9.3805872 44.317779 9.6939919 44.220196 10.001953 44.099609 L 10 46.507812 A 1.50015 1.50015 0 1 0 13 46.507812 L 13.001953 44.097656 C 13.312257 44.21974 13.62856 44.317332 13.949219 44.373047 C 15.543401 44.650037 17.277391 44.214796 18.517578 42.974609 A 1.50015 1.50015 0 0 0 18.517578 42.972656 C 19.169436 42.320274 19.439104 41.61401 19.748047 40.804688 C 20.05699 39.995365 20.321182 39.101533 20.544922 38.253906 C 20.992401 36.558653 21.275391 35.037109 21.275391 35.037109 A 1.50015 1.50015 0 0 0 20.148438 33.304688 C 20.36677 32.602976 20.557353 31.886654 20.720703 31.224609 C 21.064914 29.829553 21.277344 28.689453 21.277344 28.689453 A 1.50015 1.50015 0 0 0 19.734375 26.916016 A 1.50015 1.50015 0 0 0 19.546875 26.9375 C 19.546875 26.9375 18.00759 27.199991 16.292969 27.628906 C 16.283951 27.631162 16.274653 27.634454 16.265625 27.636719 C 16.138772 27.222114 15.962986 26.828056 15.769531 26.408203 C 15.404511 25.616005 14.944871 24.796876 14.490234 24.039062 C 13.580962 22.523436 12.679688 21.248047 12.679688 21.248047 A 1.50015 1.50015 0 0 0 11.386719 20.615234 z M 11.472656 24.898438 C 11.67922 25.221124 11.696852 25.213461 11.917969 25.582031 C 12.338333 26.282718 12.753692 27.032011 13.044922 27.664062 C 13.208104 28.018214 13.3053 28.322007 13.369141 28.542969 C 12.698707 28.798398 12.082935 29.064361 11.519531 29.626953 C 11.514591 29.631889 11.510777 29.637626 11.505859 29.642578 C 11.501596 29.638285 11.498421 29.633187 11.494141 29.628906 C 10.928461 29.063187 10.310353 28.797376 9.6367188 28.541016 C 9.6991816 28.317672 9.7948484 28.010997 9.9570312 27.648438 C 10.240225 27.015356 10.644612 26.267315 11.052734 25.566406 C 11.262083 25.206872 11.27641 25.214744 11.472656 24.898438 z M 17.837891 30.365234 C 17.819631 30.440954 17.825791 30.428234 17.806641 30.505859 C 17.513745 31.692938 17.09353 33.070635 16.730469 33.880859 C 16.569701 33.919051 16.458214 33.937179 16.292969 33.978516 C 15.435658 34.192973 14.531148 34.445919 13.712891 34.748047 C 13.701741 34.752164 13.692752 34.757615 13.681641 34.761719 A 1.50015 1.50015 0 0 0 13.630859 34.720703 C 13.383414 34.532669 13.20773 34.302873 13.097656 33.949219 C 12.875174 33.233016 13.109872 32.278242 13.638672 31.75 A 1.50015 1.50015 0 0 0 13.640625 31.75 C 13.601055 31.78957 14.099086 31.455904 14.751953 31.214844 C 14.89861 31.160693 15.07665 31.109944 15.238281 31.056641 A 1.50015 1.50015 0 0 0 15.457031 30.984375 C 15.957863 30.826291 16.487075 30.672746 17.021484 30.539062 C 17.447918 30.432391 17.456723 30.448692 17.837891 30.365234 z M 5.3183594 30.396484 C 5.6416649 30.468784 5.6393448 30.451284 5.9902344 30.539062 C 6.7829236 30.737355 7.6068984 30.973784 8.2597656 31.214844 C 8.9126329 31.455904 9.4126174 31.789571 9.3730469 31.75 C 9.9018469 32.278242 10.136545 33.233016 9.9140625 33.949219 A 1.50015 1.50015 0 0 0 9.9140625 33.951172 C 9.8145595 34.271973 9.6586228 34.488972 9.4472656 34.667969 A 1.50015 1.50015 0 0 0 9.3417969 34.765625 C 9.3266895 34.760044 9.3140066 34.753651 9.2988281 34.748047 C 8.4805704 34.445919 7.5760608 34.192973 6.71875 33.978516 C 6.5519418 33.936788 6.4395771 33.917428 6.2773438 33.878906 C 5.8399557 32.900177 5.6276843 31.721301 5.3183594 30.396484 z M 5.1914062 36.71875 C 5.5665534 36.80107 5.5739773 36.78406 5.9921875 36.888672 C 6.7848767 37.086964 7.6068984 37.32144 8.2597656 37.5625 C 8.9126329 37.80356 9.4126174 38.137227 9.3730469 38.097656 C 9.9026523 38.627262 10.136822 39.581733 9.9140625 40.298828 C 9.7049593 40.969538 9.2302913 41.297611 8.5488281 41.416016 C 7.86676 41.534525 7.0870004 41.321376 6.6171875 40.851562 C 6.6459843 40.879919 6.313428 40.383438 6.0664062 39.736328 C 5.8190366 39.088306 5.5741978 38.27253 5.3671875 37.488281 C 5.2609591 37.08584 5.2763209 37.081312 5.1914062 36.71875 z M 17.820312 36.71875 C 17.735402 37.081312 17.750762 37.08584 17.644531 37.488281 C 17.437521 38.27253 17.192683 39.088306 16.945312 39.736328 C 16.698291 40.383438 16.365734 40.879919 16.394531 40.851562 C 15.924718 41.321376 15.144959 41.534525 14.462891 41.416016 C 13.781427 41.297611 13.306759 40.969538 13.097656 40.298828 L 13.097656 40.296875 C 12.875843 39.579984 13.109506 38.62682 13.638672 38.097656 C 13.599102 38.137226 14.099086 37.80356 14.751953 37.5625 C 15.40482 37.32144 16.228795 37.086964 17.021484 36.888672 C 17.438976 36.784236 17.445695 36.800972 17.820312 36.71875 z"/></svg>