<svg xmlns="http://www.w3.org/2000/svg"  viewBox="0 0 48 48" width="50px" height="50px"><path d="M 23.476562 1.9785156 A 1.50015 1.50015 0 0 0 23.179688 2.0136719 A 1.50015 1.50015 0 0 0 22.634766 2.2539062 A 1.50015 1.50015 0 0 0 22.152344 2.8183594 A 1.50015 1.50015 0 0 0 22.048828 3.0996094 A 1.50015 1.50015 0 0 0 22.017578 3.2460938 A 1.50015 1.50015 0 0 0 22 3.5 C 22 4.5 21.828011 5.0818883 21.5 5.5390625 C 21.171989 5.9962367 20.6875 6.328125 20.0625 6.828125 C 19.4375 7.328125 18.671989 7.9962367 18.0625 8.9140625 C 17.757755 9.3729754 17.49223 9.8940968 17.302734 10.488281 C 17.113238 11.082466 17 11.75 17 12.5 A 1.50015 1.50015 0 0 0 17.005859 12.650391 A 1.50015 1.50015 0 0 0 17.060547 12.943359 A 1.50015 1.50015 0 0 0 17.109375 13.085938 A 1.50015 1.50015 0 0 0 17.173828 13.222656 A 1.50015 1.50015 0 0 0 17.439453 13.582031 A 1.50015 1.50015 0 0 0 17.550781 13.683594 A 1.50015 1.50015 0 0 0 17.800781 13.847656 A 1.50015 1.50015 0 0 0 17.9375 13.912109 A 1.50015 1.50015 0 0 0 18.224609 13.996094 A 1.50015 1.50015 0 0 0 18.373047 14.015625 A 1.50015 1.50015 0 0 0 18.671875 14.011719 A 1.50015 1.50015 0 0 0 19.105469 13.894531 A 1.50015 1.50015 0 0 0 19.238281 13.826172 A 1.50015 1.50015 0 0 0 19.365234 13.746094 A 1.50015 1.50015 0 0 0 19.591797 13.550781 A 1.50015 1.50015 0 0 0 19.689453 13.435547 A 1.50015 1.50015 0 0 0 19.951172 12.900391 A 1.50015 1.50015 0 0 0 19.982422 12.753906 A 1.50015 1.50015 0 0 0 20 12.5 C 20 11.5 20.171989 10.918112 20.5 10.460938 C 20.828011 10.003763 21.3125 9.671875 21.9375 9.171875 C 22.875 8.421875 24.128778 7.2942728 24.697266 5.5117188 C 24.886762 4.917534 25 4.25 25 3.5 A 1.50015 1.50015 0 0 0 24.994141 3.3496094 A 1.50015 1.50015 0 0 0 24.974609 3.2011719 A 1.50015 1.50015 0 0 0 24.939453 3.0566406 A 1.50015 1.50015 0 0 0 24.890625 2.9140625 A 1.50015 1.50015 0 0 0 24.449219 2.3164062 A 1.50015 1.50015 0 0 0 24.328125 2.2285156 A 1.50015 1.50015 0 0 0 24.199219 2.1523438 A 1.50015 1.50015 0 0 0 24.0625 2.0878906 A 1.50015 1.50015 0 0 0 23.921875 2.0390625 A 1.50015 1.50015 0 0 0 23.775391 2.0039062 A 1.50015 1.50015 0 0 0 23.626953 1.984375 A 1.50015 1.50015 0 0 0 23.476562 1.9785156 z M 29.476562 3.9785156 A 1.50015 1.50015 0 0 0 29.328125 3.9882812 A 1.50015 1.50015 0 0 0 29.179688 4.0136719 A 1.50015 1.50015 0 0 0 29.035156 4.0527344 A 1.50015 1.50015 0 0 0 28.894531 4.1054688 A 1.50015 1.50015 0 0 0 28.761719 4.1738281 A 1.50015 1.50015 0 0 0 28.515625 4.3457031 A 1.50015 1.50015 0 0 0 28.310547 4.5644531 A 1.50015 1.50015 0 0 0 28.226562 4.6875 A 1.50015 1.50015 0 0 0 28.152344 4.8183594 A 1.50015 1.50015 0 0 0 28.09375 4.9570312 A 1.50015 1.50015 0 0 0 28.048828 5.0996094 A 1.50015 1.50015 0 0 0 28 5.5 C 28 6.25 27.854916 6.5637711 27.650391 6.8535156 C 27.445865 7.1432601 27.099609 7.4257812 26.599609 7.8007812 C 26.099609 8.1757812 25.445865 8.6432601 24.900391 9.4160156 C 24.627653 9.8023934 24.402796 10.261198 24.246094 10.779297 C 24.089391 11.297396 24 11.875 24 12.5 A 1.50015 1.50015 0 0 0 24.005859 12.650391 A 1.50015 1.50015 0 0 0 24.025391 12.798828 A 1.50015 1.50015 0 0 0 24.060547 12.943359 A 1.50015 1.50015 0 0 0 24.173828 13.222656 A 1.50015 1.50015 0 0 0 24.339844 13.470703 A 1.50015 1.50015 0 0 0 24.550781 13.683594 A 1.50015 1.50015 0 0 0 24.671875 13.771484 A 1.50015 1.50015 0 0 0 24.9375 13.912109 A 1.50015 1.50015 0 0 0 25.078125 13.960938 A 1.50015 1.50015 0 0 0 25.224609 13.996094 A 1.50015 1.50015 0 0 0 25.373047 14.015625 A 1.50015 1.50015 0 0 0 25.523438 14.021484 A 1.50015 1.50015 0 0 0 25.671875 14.011719 A 1.50015 1.50015 0 0 0 25.820312 13.986328 A 1.50015 1.50015 0 0 0 26.105469 13.894531 A 1.50015 1.50015 0 0 0 26.238281 13.826172 A 1.50015 1.50015 0 0 0 26.591797 13.550781 A 1.50015 1.50015 0 0 0 26.689453 13.435547 A 1.50015 1.50015 0 0 0 26.847656 13.181641 A 1.50015 1.50015 0 0 0 26.90625 13.042969 A 1.50015 1.50015 0 0 0 26.951172 12.900391 A 1.50015 1.50015 0 0 0 27 12.5 C 27 11.75 27.145084 11.436229 27.349609 11.146484 C 27.554135 10.85674 27.900391 10.574219 28.400391 10.199219 C 28.900391 9.8242185 29.554135 9.3567399 30.099609 8.5839844 C 30.645084 7.8112289 31 6.75 31 5.5 A 1.50015 1.50015 0 0 0 30.939453 5.0566406 A 1.50015 1.50015 0 0 0 30.826172 4.7773438 A 1.50015 1.50015 0 0 0 30.560547 4.4179688 A 1.50015 1.50015 0 0 0 30.449219 4.3164062 A 1.50015 1.50015 0 0 0 30.328125 4.2285156 A 1.50015 1.50015 0 0 0 30.199219 4.1523438 A 1.50015 1.50015 0 0 0 29.921875 4.0390625 A 1.50015 1.50015 0 0 0 29.626953 3.984375 A 1.50015 1.50015 0 0 0 29.476562 3.9785156 z M 6.5 16 A 1.50015 1.50015 0 1 0 6.5 19 L 7 19 L 7 37.5 C 7 41.624501 10.375499 45 14.5 45 L 29.5 45 C 33.624501 45 37 41.624501 37 37.5 L 37 37 L 38 37 C 41.848402 37 45 33.848402 45 30 C 45 26.151598 41.848402 23 38 23 L 37 23 L 37 19 L 37.5 19 A 1.50015 1.50015 0 1 0 37.5 16 L 37 16 L 7 16 L 6.5 16 z M 10 19 L 34 19 L 34 37.5 C 34 40.003499 32.003499 42 29.5 42 L 14.5 42 C 11.996501 42 10 40.003499 10 37.5 L 10 19 z M 37 26 L 38 26 C 40.227598 26 42 27.772402 42 30 C 42 32.227598 40.227598 34 38 34 L 37 34 L 37 26 z"/></svg>