<svg xmlns="http://www.w3.org/2000/svg"  viewBox="0 0 48 48" width="50px" height="50px"><path d="M 16.5 3 C 15.671 3 15 3.672 15 4.5 L 15 6.1464844 L 10.580078 14.984375 C 10.197461 15.748907 10 16.591117 10 17.443359 L 10 40.5 C 10 42.414955 11.585045 44 13.5 44 L 34.5 44 C 36.414955 44 38 42.414955 38 40.5 L 38 33.716797 A 1.50015 1.50015 0 0 0 38 33.132812 L 38 17.443359 C 38 16.588865 37.799664 15.748554 37.419922 14.986328 A 1.50015 1.50015 0 0 0 37.419922 14.984375 L 33 6.1464844 L 33 4.5 C 33 3.672 32.329 3 31.5 3 L 16.5 3 z M 17.425781 8 L 29.072266 8 L 25.580078 14.984375 C 25.577578 14.98937 25.576703 14.994998 25.574219 15 L 13.925781 15 L 17.425781 8 z M 31.5 9.8535156 L 34.736328 16.326172 C 34.910021 16.675477 35 17.056494 35 17.443359 L 35 31.427734 C 33.301675 31.136982 31.268207 31.228956 28.845703 31.847656 C 28.526749 31.929066 28.280136 31.963428 28 32.019531 L 28 17.443359 C 28 17.054243 28.09086 16.671182 28.263672 16.326172 L 31.5 9.8535156 z M 13 18 L 25 18 L 25 32.083984 C 24.622188 31.97745 24.271337 31.825335 23.927734 31.621094 C 22.730259 30.909303 21.439322 29.351255 19.644531 26.90625 C 17.723832 24.290353 15.47972 23.182001 13.496094 23.039062 C 13.326448 23.026837 13.16544 23.041476 13 23.042969 L 13 18 z M 13.369141 25.972656 C 14.434559 25.988935 15.670262 26.562037 17.226562 28.681641 C 19.047773 31.162636 20.452757 33.04501 22.394531 34.199219 C 23.189508 34.67176 24.057982 34.965581 25 35.107422 L 25 41 L 13.5 41 C 13.204955 41 13 40.795045 13 40.5 L 13 25.996094 C 13.122109 25.983964 13.242502 25.970721 13.369141 25.972656 z M 33.410156 34.263672 C 34.017327 34.283751 34.538969 34.366591 35 34.484375 L 35 40.5 C 35 40.795045 34.795045 41 34.5 41 L 28 41 L 28 35.070312 C 28.512105 34.994208 29.037313 34.894436 29.587891 34.753906 C 31.119504 34.362737 32.377228 34.229514 33.410156 34.263672 z"/></svg>