<svg xmlns="http://www.w3.org/2000/svg"  viewBox="0 0 48 48" width="50px" height="50px"><path d="M 12.5 0 C 8.3754991 0 5 3.3754991 5 7.5 C 5 11.284583 7.8450688 14.429672 11.5 14.923828 L 13.552734 38.884766 C 13.751044 41.198877 15.714026 43 18.037109 43 L 29.962891 43 C 32.285974 43 34.248956 41.198877 34.447266 38.884766 L 37.025391 8.7988281 C 37.198392 6.7781714 35.564911 5 33.537109 5 L 19.570312 5 C 18.537121 2.086627 15.750612 -1.0403453e-15 12.5 0 z M 12.5 3 C 14.067585 3 15.422309 3.799643 16.226562 5 L 14.462891 5 C 12.435089 5 10.801608 6.7781714 10.974609 8.7988281 L 11.232422 11.800781 C 9.3595882 11.256638 8 9.5593692 8 7.5 C 8 4.9965009 9.9965009 3 12.5 3 z M 14.462891 8 L 18.316406 8 A 1.50015 1.50015 0 0 0 18.517578 8 L 33.537109 8 C 33.853307 8 34.064108 8.2276255 34.037109 8.5429688 L 33.568359 14 L 14.431641 14 L 13.962891 8.5429688 C 13.935892 8.2276254 14.146693 8 14.462891 8 z M 14.6875 17 L 33.3125 17 L 31.457031 38.626953 C 31.389341 39.416841 30.755807 40 29.962891 40 L 18.037109 40 C 17.244193 40 16.610659 39.416841 16.542969 38.626953 L 14.6875 17 z"/></svg>