<svg xmlns="http://www.w3.org/2000/svg"  viewBox="0 0 48 48" width="50px" height="50px"><path d="M 17.5 3 A 1.50015 1.50015 0 1 0 17.5 6 L 18.232422 6 C 18.038528 7.5596676 17.676294 10.798797 17.052734 13.109375 C 16.155225 16.436793 14 19.86282 14 24.144531 L 14 40.5 C 14 43.519774 16.480226 46 19.5 46 L 28.5 46 C 31.519774 46 34 43.519774 34 40.5 L 34 24.144531 C 34 19.86282 31.844771 16.43586 30.947266 13.109375 C 30.323706 10.798797 29.961472 7.5596676 29.767578 6 L 30.5 6 A 1.50015 1.50015 0 1 0 30.5 3 L 28 3 L 20 3 L 17.5 3 z M 21.320312 6 L 26.679688 6 C 26.869484 7.6004628 27.320905 11.178857 28.052734 13.890625 C 29.103229 17.78414 31 20.946242 31 24.144531 L 31 40.5 C 31 41.898226 29.898226 43 28.5 43 L 19.5 43 C 18.101774 43 17 41.898226 17 40.5 L 17 24.144531 C 17 20.946242 18.896775 17.785207 19.947266 13.890625 C 20.679095 11.178857 21.130515 7.6004628 21.320312 6 z"/></svg>