<svg xmlns="http://www.w3.org/2000/svg"  viewBox="0 0 48 48" width="50px" height="50px"><path d="M 20 2 C 18.895 2 18 2.895 18 4 L 18 5 C 18 5.7358325 18.400707 6.3714359 18.992188 6.71875 C 19.061047 10.123752 18.325331 12.107464 17.433594 14.150391 C 16.373813 16.578297 15 19.195938 15 23.5 C 15 27.510165 16 30.75 16 34.5 C 16 36.901461 15.73251 38.014452 15.447266 39.382812 C 14.743221 42.764133 17.371402 46.001953 20.826172 46.001953 L 27.193359 46.001953 C 30.653438 46.001953 33.282905 42.753529 32.572266 39.369141 C 32.279106 37.977146 32 36.919 32 34.5 C 32 30.75 33 27.75 33 23.5 C 33 19.195812 31.603262 16.779125 30.554688 14.498047 C 29.656525 12.544179 28.903474 10.561923 29.005859 6.71875 C 29.598155 6.3716388 30 5.7364441 30 5 L 30 4 C 30 2.895 29.105 2 28 2 L 20 2 z M 21.978516 7 L 26.017578 7 C 26.010733 8.0992291 26.062573 9.1017953 26.171875 10 L 21.769531 10 C 21.903133 9.092837 21.976693 8.0963399 21.978516 7 z M 21.076172 13 L 26.789062 13 C 27.094714 14.03425 27.45477 14.939753 27.828125 15.751953 C 28.525549 17.269134 29.182355 18.455949 29.587891 20 L 18.388672 20 C 18.796947 18.308659 19.476543 16.964954 20.181641 15.349609 C 20.496566 14.62813 20.802718 13.849447 21.076172 13 z M 18.40625 28 L 29.607422 28 C 29.325501 30.006983 29 32.044141 29 34.5 C 29 37.169 29.357878 38.662322 29.636719 39.986328 C 29.970079 41.57394 28.813281 43.001953 27.193359 43.001953 L 20.826172 43.001953 C 19.208942 43.001953 18.052857 41.57882 18.382812 39.994141 C 18.659568 38.666501 19 37.142539 19 34.5 C 19 32.087562 18.684873 29.998956 18.40625 28 z"/></svg>