<svg xmlns="http://www.w3.org/2000/svg"  viewBox="0 0 48 48" width="50px" height="50px"><path d="M 13.5 1 C 9.3754991 1 6 4.3754991 6 8.5 C 6 12.263627 8.8137736 15.395366 12.439453 15.916016 L 13.021484 25.669922 A 1.50015 1.50015 0 0 0 13.021484 25.673828 C 13.352182 30.963929 17.419664 35.194371 22.544922 35.878906 A 3 3 0 0 0 22.306641 40.972656 L 16.023438 43.078125 C 15.326437 43.311125 14.901531 44.014234 15.019531 44.740234 C 15.137531 45.466234 15.765 46 16.5 46 L 31.5 46 C 32.235 46 32.862469 45.465234 32.980469 44.740234 C 33.098469 44.015234 32.673563 43.311125 31.976562 43.078125 L 25.697266 40.972656 A 3 3 0 0 0 25.451172 35.878906 C 29.115989 35.390749 32.235818 33.091314 33.839844 29.882812 C 37.836522 29.256671 41 25.898119 41 21.5 C 41 19.585045 39.414955 18 37.5 18 L 35.435547 18 L 35.998047 8.5898438 A 1.50015 1.50015 0 0 0 35.998047 8.5742188 C 35.998051 8.5741405 34.924092 7.0606246 34.923828 7.0605469 C 34.923564 7.0604691 34.751147 7.02092 34.714844 7.015625 C 34.642234 7.005035 34.621865 7.0053742 34.601562 7.0039062 C 34.560963 7.0009762 34.544864 7.00063 34.527344 7 C 34.492314 6.99875 34.463274 6.9967538 34.425781 6.9960938 C 34.350791 6.9947837 34.251585 6.9932575 34.123047 6.9921875 C 33.865971 6.9900575 33.496977 6.9899812 33.035156 6.9882812 C 32.111515 6.9849013 30.817903 6.9822188 29.330078 6.9804688 C 26.761703 6.9774478 23.653388 6.9769388 20.84375 6.9785156 C 20.135142 3.5771707 17.103345 1 13.5 1 z M 13.5 4 C 16.003499 4 18 5.9965009 18 8.5 L 14 7.0859375 A 1.50015 1.50015 0 0 0 12.017578 8.8554688 L 12.253906 12.806641 C 10.36995 12.269406 9 10.56722 9 8.5 C 9 5.9965009 10.996501 4 13.5 4 z M 20.84375 9.9785156 C 23.651938 9.9769363 26.759355 9.9774468 29.326172 9.9804688 C 30.766269 9.9821587 31.995533 9.9850713 32.908203 9.9882812 L 32.609375 15 L 15.390625 15 L 15.376953 14.759766 A 1.50015 1.50015 0 0 0 15.332031 14.03125 L 15.132812 10.667969 L 18.650391 11.914062 A 1.50015 1.50015 0 0 0 20.564453 11.001953 C 20.680991 10.673335 20.771796 10.329732 20.84375 9.9785156 z M 15.570312 18 L 32.429688 18 L 31.984375 25.486328 C 31.719884 29.717334 28.238488 32.986328 24 32.986328 C 19.762824 32.986328 16.282025 29.719335 16.015625 25.490234 L 16.015625 25.486328 L 15.570312 18 z M 35.257812 21 L 37.5 21 C 37.795045 21 38 21.204955 38 21.5 C 38 23.923569 36.755312 25.6953 34.886719 26.503906 C 34.924912 26.229396 34.960962 25.954624 34.978516 25.673828 A 1.50015 1.50015 0 0 0 34.978516 25.669922 L 35.257812 21 z"/></svg>