<svg xmlns="http://www.w3.org/2000/svg"  viewBox="0 0 48 48" width="50px" height="50px"><path d="M 12.5 4 C 10.02 4 8 6.02 8 8.5 L 8 39.5 C 8 41.98 10.02 44 12.5 44 L 28 44 L 28 41 L 12.5 41 C 11.67 41 11 40.33 11 39.5 L 11 8.5 C 11 7.67 11.67 7 12.5 7 L 34.5 7 C 35.88 7 37 8.12 37 9.5 L 37 22.050781 C 38.06 22.160781 39.07 22.429844 40 22.839844 L 40 9.5 C 40 6.47 37.53 4 34.5 4 L 12.5 4 z M 23 10 C 22.448 10 22 10.448 22 11 L 22 13 L 26 13 L 26 11 C 26 10.448 25.552 10 25 10 L 23 10 z M 22 15 L 22 17.849609 C 19.67 18.679609 18 20.89 18 23.5 L 18 35 C 18 36.1 18.9 37 20 37 L 27.339844 37 C 26.629844 35.77 26.169062 34.380625 26.039062 32.890625 C 25.869063 32.960625 25.69 33 25.5 33 L 22.5 33 C 21.67 33 21 32.33 21 31.5 L 21 25.5 C 21 24.67 21.67 24 22.5 24 L 25.5 24 C 26.33 24 27 24.67 27 25.5 L 27 27.650391 C 27.7 26.210391 28.73 24.959766 30 24.009766 L 30 23.5 C 30 20.89 28.33 18.679609 26 17.849609 L 26 15 L 22 15 z M 36 24 C 31.599487 24 28 27.59949 28 32 C 28 34.014253 28.760065 35.855411 30 37.265625 L 30 46.5 A 1.50015 1.50015 0 0 0 32.332031 47.748047 L 36 45.302734 L 39.667969 47.748047 A 1.50015 1.50015 0 0 0 42 46.5 L 42 37.265625 C 43.239935 35.855411 44 34.014253 44 32 C 44 27.59949 40.400513 24 36 24 z M 36 27 C 38.779194 27 41 29.220808 41 32 C 41 33.352852 40.468128 34.568365 39.607422 35.464844 A 1.50015 1.50015 0 0 0 39.367188 35.6875 C 38.480076 36.496955 37.307035 37 36 37 C 34.690971 37 33.516465 36.495256 32.628906 35.683594 A 1.50015 1.50015 0 0 0 32.392578 35.464844 C 31.531872 34.568365 31 33.352852 31 32 C 31 29.220808 33.220806 27 36 27 z M 33 39.408203 C 33.927888 39.786761 34.940058 40 36 40 C 37.059942 40 38.072112 39.786761 39 39.408203 L 39 43.697266 L 36.832031 42.251953 A 1.50015 1.50015 0 0 0 35.167969 42.251953 L 33 43.697266 L 33 39.408203 z"/></svg>