<svg xmlns="http://www.w3.org/2000/svg"  viewBox="0 0 48 48" width="50px" height="50px"><path d="M 25.5 3 A 1.5 1.5 0 0 0 25.5 6 A 1.5 1.5 0 0 0 25.5 3 z M 19.5 5 A 1.5 1.5 0 0 0 19.5 8 A 1.5 1.5 0 0 0 19.5 5 z M 37.189453 6 A 1.50015 1.50015 0 0 0 36.935547 6.0292969 L 23.207031 8.7695312 A 1.50015 1.50015 0 0 0 22.029297 10.533203 L 22.171875 11.246094 L 11.064453 9.0292969 A 1.50015 1.50015 0 0 0 10.765625 9 A 1.50015 1.50015 0 0 0 9.3007812 10.207031 L 6.1679688 25.896484 C 5.3525308 29.980138 7.6465255 33.987856 11.396484 35.464844 L 10.5 39.921875 L 6.1601562 39.847656 A 1.50015 1.50015 0 0 0 5.8417969 42.818359 L 16.628906 44.970703 A 1.50015 1.50015 0 0 0 17.474609 42.105469 L 13.441406 40.509766 L 14.337891 36.050781 C 18.367266 36.127235 22.024454 33.309097 22.839844 29.224609 L 24.298828 21.910156 L 25.160156 26.224609 C 25.97561 30.308343 29.632746 33.127097 33.662109 33.050781 L 34.558594 37.509766 L 30.525391 39.105469 A 1.50015 1.50015 0 0 0 31.371094 41.970703 L 42.158203 39.818359 A 1.50015 1.50015 0 0 0 41.839844 36.847656 L 37.5 36.921875 L 36.603516 32.464844 C 40.352425 30.987807 42.646252 26.980515 41.832031 22.896484 L 38.699219 7.2070312 A 1.50015 1.50015 0 0 0 37.189453 6 z M 36.050781 9.2636719 L 37.197266 15 L 25.978516 15 L 25.779297 13.998047 A 1.50015 1.50015 0 0 0 25.771484 13.951172 L 25.552734 12.863281 A 1.50015 1.50015 0 0 0 25.550781 12.853516 L 25.263672 11.417969 L 36.050781 9.2636719 z M 11.949219 12.263672 L 22.734375 14.417969 L 22.021484 18 L 10.802734 18 L 11.949219 12.263672 z M 26.578125 18 L 37.794922 18 L 38.890625 23.484375 C 39.486937 26.480972 37.567874 29.354952 34.572266 29.953125 C 31.576351 30.55136 28.69982 28.632746 28.101562 25.636719 L 26.578125 18 z M 10.205078 21 L 21.421875 21 L 19.898438 28.636719 C 19.300107 31.633899 16.423649 33.553313 13.427734 32.955078 C 10.430554 32.356749 8.5111404 29.480289 9.109375 26.484375 L 10.205078 21 z M 17.5 23 A 1.5 1.5 0 0 0 17.5 26 A 1.5 1.5 0 0 0 17.5 23 z M 35.5 23 A 1.5 1.5 0 0 0 35.5 26 A 1.5 1.5 0 0 0 35.5 23 z"/></svg>