<svg xmlns="http://www.w3.org/2000/svg"  viewBox="0 0 48 48" width="50px" height="50px"><path d="M 9.5351562 7 C 7.5651775 7 5.9712702 8.6728398 6.0351562 10.630859 C 6.3393004 20.05523 8.6458961 26.535035 10.925781 30.667969 C 12.059391 32.722956 13.21339 34.21351 14.089844 35.201172 C 12.827582 36.356781 12.269074 37.947356 12.060547 39.021484 A 1.50015 1.50015 0 0 0 12.060547 39.023438 C 11.766581 40.539767 12.988862 42 14.525391 42 L 33.480469 42 C 35.015428 42 36.238639 40.538955 35.945312 39.023438 C 35.737228 37.94719 35.177509 36.353198 33.912109 35.197266 C 34.6393 34.377568 35.557371 33.190676 36.496094 31.644531 A 1.50015 1.50015 0 0 0 38.947266 30.107422 C 38.947266 30.107422 38.909661 30.089522 39.025391 29.777344 C 39.141119 29.465164 39.430417 28.915441 40.779297 28.333984 C 42.432744 27.621282 44.156036 26.699411 45.548828 25.371094 C 46.941615 24.042776 48 22.205714 48 20 C 48 17.256343 45.743657 15 43 15 C 42.514406 15 42.054981 15.073381 41.625 15.193359 C 41.784966 13.746667 41.914523 12.247909 41.966797 10.630859 A 1.50015 1.50015 0 0 0 41.966797 10.628906 C 42.028907 8.67248 40.435086 7 38.464844 7 L 9.5351562 7 z M 9.5351562 10 L 38.464844 10 C 38.764601 10 38.976687 10.22363 38.966797 10.535156 L 38.96875 10.533203 C 38.678359 19.51489 36.502008 25.494166 34.447266 29.21875 C 32.674922 32.431436 31.302731 33.658577 30.898438 34 L 17.101562 34 C 16.697273 33.65858 15.324968 32.431422 13.552734 29.21875 C 11.49812 25.494183 9.323059 19.514832 9.0332031 10.533203 C 9.0230891 10.223223 9.2371351 10 9.5351562 10 z M 21.816406 15.001953 C 21.164906 15.014328 20.517516 15.262594 20.041016 15.746094 C 19.040016 16.764094 17.345703 19.042906 17.345703 21.128906 L 17.345703 21.402344 C 17.345703 23.502344 18.347344 25.507578 20.027344 26.767578 L 20.556641 27.164062 C 20.940641 27.452063 21.394563 27.597656 21.851562 27.597656 C 22.280562 27.597656 22.711031 27.469891 23.082031 27.212891 L 23.705078 26.779297 C 25.514078 25.527297 26.595703 23.465625 26.595703 21.265625 C 26.595703 19.078625 24.722234 16.724687 23.615234 15.679688 C 23.122734 15.213687 22.467906 14.989578 21.816406 15.001953 z M 43 18 C 44.122343 18 45 18.877657 45 20 C 45 21.294286 44.461974 22.261286 43.478516 23.199219 C 42.495058 24.137151 41.063349 24.943827 39.591797 25.578125 C 39.477935 25.627207 39.377345 25.682593 39.269531 25.734375 C 39.813904 24.22483 40.311586 22.544403 40.730469 20.673828 C 41.128511 19.659716 41.425324 18.867505 41.703125 18.503906 C 41.982542 18.138193 42.0906 18 43 18 z M 27.78125 18.037109 C 28.25225 19.020109 28.595703 20.123578 28.595703 21.267578 C 28.595703 23.665578 27.597625 25.926641 25.890625 27.556641 C 27.908625 27.457641 29.011203 26.920922 30.158203 25.544922 C 31.123203 24.387922 31.654297 22.919109 31.654297 21.412109 L 31.654297 19.908203 C 31.655297 18.876203 30.816156 18.037109 29.785156 18.037109 L 27.78125 18.037109 z M 16.806641 37 L 31.199219 37 C 32.111568 37.358195 32.542902 38.172685 32.789062 39 L 15.21875 39 C 15.46559 38.172593 15.8949 37.357998 16.806641 37 z"/></svg>