<svg xmlns="http://www.w3.org/2000/svg"  viewBox="0 0 48 48" width="50px" height="50px"><path d="M 34.5 4 C 31.186555 4 29.308435 6.361672 28.759766 7.1035156 C 21.041042 7.387441 16.830464 11.57601 15.046875 16.001953 C 13.812677 19.064593 13.54303 22.227985 13.496094 24.320312 C 12.442764 23.971187 11.445523 23.775845 10.519531 23.802734 C 8.9714851 23.847687 7.5972257 24.439485 6.5996094 25.375 C 4.6043768 27.246029 4 30.138269 4 33 C 4 39.057558 8.9424416 44 15 44 C 18.657773 44 21.900415 42.191235 23.902344 39.429688 C 27.430458 43.274038 33.329824 44.174799 37.892578 41.287109 C 43.00753 38.042637 44.531096 31.221607 41.287109 26.107422 C 39.754931 23.691924 37.698028 21.570905 35.011719 21.058594 C 34.340141 20.930516 33.635542 20.925092 32.931641 21.050781 C 32.227739 21.176458 31.524973 21.434312 30.859375 21.830078 C 30.057313 22.306986 29.315268 23.012801 28.607422 23.880859 C 26.880248 20.634187 27.172601 17.432966 27.998047 14.755859 C 28.482755 13.183845 29.15123 11.855699 29.699219 10.917969 C 30.759218 11.933717 32.276556 13 34.5 13 C 38.347563 13 40.701172 9.3964844 40.701172 9.3964844 A 1.50015 1.50015 0 0 0 40.701172 7.6035156 C 40.701172 7.6035156 38.347563 4 34.5 4 z M 34.5 7 C 35.547857 7 36.57856 7.7974066 37.347656 8.5 C 36.57856 9.2025934 35.547857 10 34.5 10 C 33.452143 10 32.42144 9.2025934 31.652344 8.5 C 32.42144 7.7974066 33.452143 7 34.5 7 z M 26.701172 10.347656 C 26.158749 11.362613 25.576112 12.42704 25.130859 13.871094 C 24.137595 17.092472 23.826047 21.362357 26.074219 25.488281 C 25.360802 25.668533 24.705526 25.894258 24.121094 26.175781 C 23.903046 25.893213 23.665814 25.623901 23.400391 25.375 C 22.402774 24.439485 21.028515 23.847687 19.480469 23.802734 C 18.555535 23.775876 17.559799 23.971967 16.507812 24.320312 C 16.557347 22.379966 16.796088 19.684027 17.828125 17.123047 C 19.127979 13.897484 21.591308 11.14133 26.701172 10.347656 z M 33.951172 23.951172 C 34.116088 23.955016 34.282273 23.973648 34.451172 24.005859 C 35.802363 24.263548 37.476084 25.698389 38.753906 27.712891 C 41.12992 31.458706 40.032158 36.378379 36.287109 38.753906 L 36.287109 38.751953 C 32.61031 41.078937 27.840515 40.072514 25.410156 36.519531 C 25.786658 35.412222 26 34.231689 26 33 C 26 31.582365 25.851218 30.158272 25.458984 28.853516 C 26.158519 28.495689 27.133048 28.196549 28.455078 28.037109 A 1.50015 1.50015 0 0 0 29.9375 27.083984 C 30.812489 25.68575 31.664802 24.840941 32.392578 24.408203 C 32.966135 24.067165 33.456423 23.939638 33.951172 23.951172 z M 10.605469 26.800781 C 11.463827 26.775854 12.655245 27.036562 14.171875 27.771484 A 1.50015 1.50015 0 0 0 15.818359 27.775391 C 17.339794 27.03671 18.534285 26.775801 19.394531 26.800781 C 20.283985 26.826611 20.847226 27.093343 21.349609 27.564453 C 21.651238 27.847306 21.915384 28.245904 22.144531 28.714844 A 1.50015 1.50015 0 0 0 22.332031 29.123047 C 22.75392 30.173669 23 31.532786 23 33 C 23 34.050988 22.793896 35.049556 22.429688 35.966797 A 1.50015 1.50015 0 0 0 22.302734 36.267578 C 21.058251 39.061224 18.269322 41 15 41 C 10.563558 41 7 37.436442 7 33 C 7 30.614731 7.6456232 28.506674 8.6503906 27.564453 C 9.1527743 27.093343 9.7160149 26.82661 10.605469 26.800781 z"/></svg>