<svg xmlns="http://www.w3.org/2000/svg"  viewBox="0 0 48 48" width="50px" height="50px"><path d="M 23.5 3 C 21.798602 3 20.276374 3.8728094 19.052734 5.1230469 C 18.088475 6.1082659 17.313983 7.4063416 16.648438 8.8300781 C 11.949967 7.7858926 7.1171875 9.0488281 7.1171875 9.0488281 A 1.50015 1.50015 0 0 0 6 10.5 C 6 13.249761 6.895616 15.217784 7.84375 16.599609 C 6.6999663 17.917103 6 19.62924 6 21.5 C 6 24.621196 7.9342799 27.310422 10.662109 28.435547 C 10.240935 29.37406 10 30.410826 10 31.5 C 10 35.183235 12.740638 38.127948 16.253906 38.746094 C 16.872052 42.259362 19.816765 45 23.5 45 C 27.183235 45 30.127948 42.259362 30.746094 38.746094 C 34.259362 38.127948 37 35.183235 37 31.5 C 37 30.410826 36.759065 29.37406 36.337891 28.435547 C 39.06572 27.310422 41 24.621196 41 21.5 C 41 19.67475 40.336674 17.99761 39.242188 16.693359 C 40.203116 15.329134 41 13.439075 41 10.5 A 1.50015 1.50015 0 0 0 39.808594 9.03125 C 39.808594 9.03125 34.820621 7.9729483 30.222656 8.8808594 C 29.477492 7.5143421 28.732925 6.1659225 27.8125 5.1777344 C 26.656553 3.9366848 25.203625 3 23.5 3 z M 23.5 6 C 24.109375 6 24.786633 6.3290027 25.617188 7.2207031 C 26.44774 8.1124036 27.324555 9.5069117 28.160156 11.171875 A 1.50015 1.50015 0 0 0 29.90625 11.943359 C 32.819843 11.122485 36.223928 11.556168 37.820312 11.798828 C 37.671647 13.144242 37.370424 14.052945 36.884766 14.820312 C 35.865454 14.29975 34.717335 14 33.5 14 C 31.003975 14 28.790381 15.236678 27.425781 17.126953 C 26.280914 16.417166 24.938524 16 23.5 16 C 22.065207 16 20.713179 16.408432 19.568359 17.113281 C 18.202574 15.231481 15.990394 14 13.5 14 C 12.331003 14 11.227142 14.279203 10.238281 14.761719 C 9.7604563 13.974299 9.3995527 12.999705 9.2148438 11.746094 C 10.757447 11.453065 14.043118 10.933133 17.027344 11.923828 A 1.50015 1.50015 0 0 0 18.900391 11.037109 C 19.520923 9.4211689 20.350655 8.0876689 21.197266 7.2226562 C 22.043876 6.3576437 22.841398 6 23.5 6 z M 13.5 17 C 15.155591 17 16.57748 17.890049 17.361328 19.205078 C 16.507777 20.424654 16 21.906962 16 23.5 C 16 24.052619 16.063016 24.59179 16.177734 25.113281 C 15.427258 25.670757 14.51161 26 13.5 26 C 10.996501 26 9 24.003499 9 21.5 C 9 18.996501 10.996501 17 13.5 17 z M 33.5 17 C 36.003499 17 38 18.996501 38 21.5 C 38 23.902305 36.155562 25.818162 33.794922 25.970703 A 1.50015 1.50015 0 0 0 33.734375 25.976562 C 33.655047 25.980634 33.580424 26 33.5 26 C 32.485447 26 31.573575 25.655923 30.824219 25.095703 C 30.937156 24.580476 31 24.047806 31 23.5 C 31 21.906493 30.492953 20.427419 29.636719 19.208984 C 30.4189 17.891709 31.842325 17 33.5 17 z M 23.5 19 C 26.003499 19 28 20.996501 28 23.5 C 28 25.862757 26.21467 27.751568 23.910156 27.958984 A 1.50015 1.50015 0 0 0 23.519531 27.998047 C 23.512837 27.998075 23.506702 28 23.5 28 C 21.63784 28 20.060003 26.882321 19.369141 25.291016 C 19.131084 24.743036 19 24.141697 19 23.5 C 19 22.158685 19.577692 20.972578 20.5 20.146484 C 21.296537 19.432529 22.339057 19 23.5 19 z M 17.423828 27.865234 C 18.496136 29.352942 20.092845 30.424765 21.943359 30.818359 C 21.976998 31.040224 22 31.265855 22 31.5 C 22 33.972907 20.046385 35.934444 17.585938 35.982422 A 1.50015 1.50015 0 0 0 17.414062 35.982422 C 14.953616 35.934444 13 33.972907 13 31.5 C 13 30.559613 13.292725 29.705711 13.779297 28.988281 C 15.11209 28.93866 16.353193 28.526157 17.423828 27.865234 z M 29.566406 27.884766 C 30.636385 28.544253 31.888202 28.936363 33.21875 28.986328 C 33.706264 29.704209 34 30.558623 34 31.5 C 34 33.972907 32.046385 35.934444 29.585938 35.982422 A 1.50015 1.50015 0 0 0 29.414062 35.982422 C 26.953616 35.934444 25 33.972907 25 31.5 C 25 31.271699 25.024353 31.051706 25.056641 30.833984 C 26.899232 30.440603 28.493175 29.362811 29.566406 27.884766 z M 23.5 35.755859 C 24.530888 37.201455 26.000294 38.213525 27.771484 38.648438 C 27.259544 40.57195 25.595111 42 23.5 42 C 21.404889 42 19.740456 40.57195 19.228516 38.648438 C 20.999706 38.213524 22.469112 37.201455 23.5 35.755859 z"/></svg>