<svg xmlns="http://www.w3.org/2000/svg"  viewBox="0 0 48 48" width="50px" height="50px"><path d="M 37.5 6 C 31.727273 6 28.091835 7.6046569 25.9375 9.328125 C 24.999875 10.078225 24.350733 10.867722 23.900391 11.529297 C 22.324497 10.565458 20.48125 10 18.5 10 C 12.718499 10 8 14.718499 8 20.5 C 8 21.780262 8.237454 23.009127 8.6601562 24.148438 C 6.7091346 26.096492 5.5 28.787389 5.5 31.75 C 5.5 37.669293 10.330703 42.5 16.25 42.5 C 19.417167 42.5 22.263726 41.108734 24.234375 38.916016 C 25.983993 40.220004 28.156763 41 30.5 41 C 36.281501 41 41 36.281501 41 30.5 C 41 27.125783 39.386148 24.122604 36.898438 22.199219 C 43.102856 15.533928 38.841797 6.8300781 38.841797 6.8300781 A 1.50015 1.50015 0 0 0 37.5 6 z M 36.521484 9.0664062 C 37.258663 10.96586 38.722033 16.156873 34.439453 20.439453 A 1.50015 1.50015 0 0 0 34.226562 20.697266 C 33.0661 20.253421 31.812905 20 30.5 20 C 29.961063 20 29.459142 20.130248 28.941406 20.208984 C 28.865604 17.603418 27.835207 15.235133 26.197266 13.431641 C 26.449044 13.010178 26.910141 12.393762 27.8125 11.671875 C 29.296453 10.484713 31.962794 9.2411319 36.521484 9.0664062 z M 18.5 13 C 22.660499 13 26 16.339501 26 20.5 C 26 20.708166 25.977277 20.908446 25.960938 21.111328 C 24.808323 21.670102 23.761434 22.410714 22.880859 23.3125 C 21.050824 21.870104 18.750903 21 16.25 21 C 14.437717 21 12.72932 21.457621 11.228516 22.255859 C 11.092649 21.691186 11 21.109461 11 20.5 C 11 16.339501 14.339501 13 18.5 13 z M 17 15 A 2 2 0 0 0 17 19 A 2 2 0 0 0 17 15 z M 30.5 23 C 34.660499 23 38 26.339501 38 30.5 C 38 34.660499 34.660499 38 30.5 38 C 28.762454 38 27.181267 37.410723 25.912109 36.425781 C 26.60168 35.009296 27 33.425956 27 31.75 C 27 29.406574 26.235195 27.240693 24.953125 25.470703 C 26.322831 23.959406 28.288428 23 30.5 23 z M 16.25 24 C 20.547978 24 24 27.452025 24 31.75 C 24 36.047975 20.547978 39.5 16.25 39.5 C 11.952022 39.5 8.5 36.047975 8.5 31.75 C 8.5 27.452025 11.952022 24 16.25 24 z M 15 29 A 2 2 0 0 0 15 33 A 2 2 0 0 0 15 29 z M 33 29 A 2 2 0 0 0 33 33 A 2 2 0 0 0 33 29 z"/></svg>