<svg xmlns="http://www.w3.org/2000/svg"  viewBox="0 0 48 48" width="50px" height="50px"><path d="M 21 3 C 17.061834 3 13.483469 3.8084748 10.763672 5.21875 C 8.0438751 6.6290252 6 8.7853135 6 11.5 C 6 14.214686 8.0438751 16.370975 10.763672 17.78125 C 13.228605 19.059372 16.402201 19.83698 19.90625 19.972656 L 19.439453 20.439453 A 1.50015 1.50015 0 1 0 21.560547 22.560547 L 24.560547 19.560547 A 1.50015 1.50015 0 0 0 24.560547 17.439453 L 21.560547 14.439453 A 1.50015 1.50015 0 0 0 20.484375 13.984375 A 1.50015 1.50015 0 0 0 19.439453 16.560547 L 19.847656 16.96875 C 16.79478 16.823469 14.070858 16.11603 12.144531 15.117188 C 9.9783281 13.993963 9 12.651314 9 11.5 C 9 10.348686 9.9783281 9.0060373 12.144531 7.8828125 C 14.310735 6.7595877 17.482166 6 21 6 C 28.18776 6 31.680341 7.8014345 34.439453 10.560547 A 1.50015 1.50015 0 1 0 36.560547 8.4394531 C 33.319659 5.1985654 28.72424 3 21 3 z M 39.560547 11.984375 A 1.50015 1.50015 0 0 0 38.398438 12.482422 L 26.84375 25 L 9.5 25 C 7.5850452 25 6 26.585045 6 28.5 C 6 37.568182 13.431818 45 22.5 45 L 25.5 45 C 34.594719 45 42 37.594719 42 28.5 C 42 26.585045 40.414955 25 38.5 25 L 30.925781 25 L 40.601562 14.517578 A 1.50015 1.50015 0 0 0 39.560547 11.984375 z M 9.5 28 L 27.269531 28 A 1.50015 1.50015 0 0 0 27.689453 28 L 38.5 28 C 38.795045 28 39 28.204955 39 28.5 C 39 35.973281 32.973281 42 25.5 42 L 22.5 42 C 15.068182 42 9 35.931818 9 28.5 C 9 28.204955 9.2049548 28 9.5 28 z"/></svg>