<svg xmlns="http://www.w3.org/2000/svg"  viewBox="0 0 48 48" width="50px" height="50px"><path d="M 30 3.609375 C 27.079475 3.609375 24.159064 4.7198426 21.939453 6.9394531 L 7.9394531 20.939453 L 8.015625 21.015625 C 4.9919924 23.091319 3 26.569504 3 30.5 C 3 36.833506 8.1664891 42 14.5 42 C 18.430499 42 21.908682 40.008008 23.984375 36.984375 L 24.060547 37.060547 L 38.060547 23.060547 C 42.499768 18.621326 42.499768 11.378674 38.060547 6.9394531 C 35.840936 4.7198426 32.920525 3.609375 30 3.609375 z M 30 6.5917969 C 32.146532 6.5917969 34.293064 7.4141574 35.939453 9.0605469 C 39.232232 12.353326 39.232232 17.646674 35.939453 20.939453 L 25.980469 30.898438 C 25.985081 30.765169 26 30.634357 26 30.5 C 26 24.166494 20.833511 19 14.5 19 C 14.365643 19 14.234831 19.014919 14.101562 19.019531 L 24.060547 9.0605469 C 25.706936 7.4141574 27.853468 6.5917969 30 6.5917969 z M 14.5 22 C 17.563092 22 20.227251 23.606934 21.722656 26.021484 A 2 2 0 0 0 22 30 A 2 2 0 0 0 22.962891 29.753906 C 22.984161 30.000424 23 30.247745 23 30.5 C 23 35.212189 19.212192 39 14.5 39 C 12.368435 39 10.431586 38.218687 8.9433594 36.933594 A 1.5 1.5 0 0 0 8.5 34 A 1.5 1.5 0 0 0 7.171875 34.806641 C 6.4309937 33.544188 6 32.076702 6 30.5 C 6 29.972082 6.053474 29.457719 6.1445312 28.957031 A 1.5 1.5 0 0 0 6.5 29 A 1.5 1.5 0 0 0 7.1875 26.169922 C 8.3916258 24.133652 10.413398 22.644331 12.816406 22.166016 A 1.5 1.5 0 0 0 13.5 25 A 1.5 1.5 0 0 0 13.810547 22.033203 C 14.038764 22.015014 14.266913 22 14.5 22 z M 13 29 A 2 2 0 0 0 13 33 A 2 2 0 0 0 13 29 z M 18.5 34 A 1.5 1.5 0 0 0 18.5 37 A 1.5 1.5 0 0 0 18.5 34 z"/></svg>