<svg xmlns="http://www.w3.org/2000/svg"  viewBox="0 0 48 48" width="50px" height="50px"><path d="M 24 7 C 22.458334 7 21.112148 7.6321335 20.253906 8.5976562 C 19.395664 9.5631791 19 10.791667 19 12 C 19 12.833865 19.202716 13.671625 19.601562 14.431641 C 9.6984771 16.391293 2 24.786605 2 34.5 L 2 36 L 1.5 36 C 0.671 36 0 36.672 0 37.5 C 0 38.328 0.671 39 1.5 39 L 22.636719 39 C 22.326719 38.044 22.129781 37.038 22.050781 36 L 5 36 L 5 34.5 C 5 25.014 13.701 17 24 17 C 29.169 17 33.933391 19.021422 37.400391 22.232422 C 39.709391 22.665422 41.800813 23.711359 43.507812 25.193359 C 40.464428 19.794018 34.906449 15.724911 28.396484 14.435547 C 28.796732 13.674519 29 12.835289 29 12 C 29 10.791667 28.604336 9.5631791 27.746094 8.5976562 C 26.887852 7.6321335 25.541666 7 24 7 z M 24 10 C 24.791666 10 25.195482 10.242867 25.503906 10.589844 C 25.81233 10.936821 26 11.458333 26 12 C 26 12.541667 25.81233 13.063179 25.503906 13.410156 C 25.195482 13.757133 24.791666 14 24 14 C 23.208334 14 22.804518 13.757133 22.496094 13.410156 C 22.18767 13.063179 22 12.541667 22 12 C 22 11.458333 22.18767 10.936821 22.496094 10.589844 C 22.804518 10.242867 23.208334 10 24 10 z M 24 20.447266 C 23.68 20.447266 23.359234 20.5685 23.115234 20.8125 L 21.929688 22 L 20.25 22 C 19.56 22 19 22.56 19 23.25 L 19 24.929688 L 17.8125 26.115234 C 17.3245 26.603234 17.3245 27.396766 17.8125 27.884766 L 19 29.070312 L 19 30.75 C 19 31.44 19.56 32 20.25 32 L 21.929688 32 L 22.273438 32.345703 C 23.077438 28.487703 25.601 25.255516 29 23.478516 L 29 23.25 C 29 22.56 28.44 22 27.75 22 L 26.070312 22 L 24.884766 20.8125 C 24.640766 20.5685 24.32 20.447266 24 20.447266 z M 35 24 C 28.926 24 24 28.926 24 35 C 24 41.074 28.926 46 35 46 C 41.074 46 46 41.074 46 35 C 46 28.926 41.074 24 35 24 z M 35 28 C 37.207 28 39 29.793 39 32 C 39 33.684 38.034719 34.597938 37.261719 35.335938 L 36.996094 35.589844 C 36.410094 36.159844 36.066187 36.52 35.992188 37.125 C 35.930187 37.629 35.496 38 35 38 C 34.961 38 34.918 37.996187 34.875 37.992188 C 34.328 37.926187 33.936813 37.426 34.007812 36.875 C 34.175812 35.547 34.980406 34.762406 35.566406 34.191406 L 35.882812 33.882812 C 36.616812 33.188812 37 32.789 37 32 C 37 30.898 36.102 30 35 30 C 33.898 30 33 30.898 33 32 C 33 32.551 32.555 33 32 33 C 31.445 33 31 32.551 31 32 C 31 29.793 32.793 28 35 28 z M 35 39.75 C 35.691 39.75 36.25 40.309 36.25 41 C 36.25 41.691 35.691 42.25 35 42.25 C 34.309 42.25 33.75 41.691 33.75 41 C 33.75 40.309 34.309 39.75 35 39.75 z"/></svg>