<svg xmlns="http://www.w3.org/2000/svg"  viewBox="0 0 48 48" width="50px" height="50px"><path d="M 24 4 C 12.972066 4 4 12.972074 4 24 C 4 35.027926 12.972066 44 24 44 C 35.027934 44 44 35.027926 44 24 C 44 12.972074 35.027934 4 24 4 z M 24 7 C 33.406615 7 41 14.593391 41 24 C 41 33.406609 33.406615 41 24 41 C 14.593385 41 7 33.406609 7 24 C 7 14.593391 14.593385 7 24 7 z M 30 11 A 1 1 0 0 0 30 13 A 1 1 0 0 0 30 11 z M 18.517578 11.5 C 14.694679 11.499716 11.5 14.561556 11.5 18.357422 C 11.5 20.191636 12.246905 21.870538 13.443359 23.09375 L 13.445312 23.09375 C 13.716287 23.370428 13.818179 23.715086 13.773438 23.962891 C 13.680378 24.478389 13.673421 25.022984 13.765625 25.570312 C 14.05414 27.297717 15.358732 28.582131 17 29.128906 L 17 31 A 2 2 0 0 0 17 35 A 2 2 0 0 0 18.498047 34.320312 A 2 2 0 0 0 20 35 A 2 2 0 0 0 20 31 L 20 29.179688 C 21.873113 28.542693 23.300781 26.856029 23.300781 24.785156 C 23.300781 24.59255 23.287662 24.398957 23.263672 24.207031 C 23.201662 23.712082 23.316732 23.341164 23.572266 23.078125 C 24.993653 21.615945 25.769116 19.492897 25.414062 17.263672 C 24.928801 14.215504 22.376762 11.874166 19.289062 11.541016 C 19.029372 11.513083 18.772438 11.500019 18.517578 11.5 z M 27 14 A 1 1 0 0 0 27 16 A 1 1 0 0 0 27 14 z M 18.0625 14.517578 C 18.354372 14.488664 18.656428 14.490053 18.966797 14.523438 C 20.717097 14.712288 22.190433 16.098496 22.451172 17.736328 C 22.656119 19.023103 22.228535 20.154509 21.419922 20.986328 C 20.449457 21.98529 20.133122 23.351027 20.287109 24.580078 C 20.295109 24.644148 20.300781 24.713762 20.300781 24.785156 C 20.300781 25.846688 19.360555 26.71245 18.091797 26.457031 C 17.403138 26.318138 16.831628 25.716782 16.724609 25.076172 L 16.724609 25.074219 C 16.689509 24.866888 16.691889 24.677343 16.724609 24.496094 C 16.965867 23.159898 16.456917 21.883416 15.587891 20.996094 C 14.906347 20.299353 14.5 19.385207 14.5 18.357422 C 14.5 16.37023 16.019396 14.71998 18.0625 14.517578 z M 31 15 A 1 1 0 0 0 31 17 A 1 1 0 0 0 31 15 z M 34 17 A 1 1 0 0 0 34 19 A 1 1 0 0 0 34 17 z M 29 18 A 1 1 0 0 0 29 20 A 1 1 0 0 0 29 18 z M 34.097656 20.529297 C 33.856672 20.546713 33.619678 20.591309 33.394531 20.664062 C 32.493944 20.955089 31.694724 21.545681 30.828125 22.419922 C 30.132328 23.121405 29.974997 23.097166 29.261719 23.388672 C 28.548441 23.680178 27.494086 24.233544 26.203125 25.568359 C 24.401898 27.431369 23.681603 29.287584 23.533203 30.765625 C 23.388318 32.208658 23.817703 33.368079 23.863281 33.501953 C 24.72566 36.813418 29.654317 37.788313 33.294922 34.169922 C 35.973002 31.507271 37.243391 28.377854 37.46875 25.597656 C 37.602809 23.945836 37.53134 22.248217 36.109375 21.101562 C 35.753883 20.814899 35.299568 20.632496 34.822266 20.558594 C 34.583614 20.521644 34.33864 20.511881 34.097656 20.529297 z M 34.244141 23.572266 C 34.223851 23.621576 34.564927 24.290745 34.478516 25.355469 C 34.311875 27.411271 33.361607 29.873619 31.179688 32.042969 C 28.607229 34.59973 26.787669 32.879814 26.753906 32.744141 L 26.740234 32.693359 L 26.724609 32.644531 C 26.589403 32.227227 26.437682 31.879662 26.519531 31.064453 C 26.601381 30.249244 26.953602 29.108287 28.359375 27.654297 C 29.423414 26.554112 29.820262 26.401509 30.396484 26.166016 C 30.972706 25.930522 31.941781 25.55872 32.958984 24.533203 L 32.958984 24.53125 C 33.588278 23.896407 34.035583 23.652091 34.244141 23.572266 z"/></svg>