<svg xmlns="http://www.w3.org/2000/svg"  viewBox="0 0 48 48" width="50px" height="50px"><path d="M 31 4 C 27.517005 4 25.10159 5.1668486 23.097656 6.8183594 C 23.082996 6.8301554 23.053463 6.8528934 23.001953 6.8964844 C 20.173354 9.2576874 17.870928 12.375763 12.248047 15.638672 C 7.1065054 18.153145 3.5566406 23.428959 3.5566406 29.527344 C 3.5566406 38.053997 10.499666 45 19.027344 45 C 27.389001 45 33.676732 41.765556 37.693359 36.539062 C 41.709986 31.312569 43.5 24.233333 43.5 16.5 C 43.5 9.6143004 37.8857 4 31 4 z M 31 7 C 36.2643 7 40.5 11.2357 40.5 16.5 C 40.5 23.766667 38.790826 30.187431 35.314453 34.710938 C 31.83808 39.234444 26.637686 42 19.027344 42 C 12.121021 42 6.5566406 36.432691 6.5566406 29.527344 C 6.5566406 24.557402 9.4589051 20.299547 13.650391 18.289062 A 1.50015 1.50015 0 0 0 13.753906 18.234375 C 19.795778 14.728329 22.523865 11.201371 24.931641 9.1933594 A 1.50015 1.50015 0 0 0 24.939453 9.1855469 C 24.936453 9.1880469 24.95894 9.1721279 25 9.1386719 A 1.50015 1.50015 0 0 0 25.005859 9.1328125 C 26.697893 7.7383243 28.114995 7 31 7 z M 33 15.5 A 2 2 0 0 0 33 19.5 A 2 2 0 0 0 33 15.5 z M 20 21.5 A 2 2 0 0 0 20 25.5 A 2 2 0 0 0 20 21.5 z M 26 32.5 A 2 2 0 0 0 26 36.5 A 2 2 0 0 0 26 32.5 z"/></svg>