<svg xmlns="http://www.w3.org/2000/svg"  viewBox="0 0 48 48" width="50px" height="50px"><path d="M 24 7 C 22.458334 7 21.112148 7.6321335 20.253906 8.5976562 C 19.395664 9.5631791 19 10.791667 19 12 C 19 12.842561 19.272251 13.661429 19.679688 14.427734 C 9.963507 16.343033 2 24.527121 2 34.5 L 2 36 L 1.5 36 A 1.50015 1.50015 0 1 0 1.5 39 L 46.5 39 A 1.50015 1.50015 0 1 0 46.5 36 L 46 36 L 46 34.5 C 46 24.527121 38.036493 16.343033 28.320312 14.427734 C 28.727749 13.661429 29 12.842561 29 12 C 29 10.791667 28.604336 9.5631791 27.746094 8.5976562 C 26.887852 7.6321335 25.541666 7 24 7 z M 24 10 C 24.791666 10 25.195482 10.242867 25.503906 10.589844 C 25.81233 10.936821 26 11.458333 26 12 C 26 12.541667 25.81233 13.063179 25.503906 13.410156 C 25.195482 13.757133 24.791666 14 24 14 C 23.208334 14 22.804518 13.757133 22.496094 13.410156 C 22.18767 13.063179 22 12.541667 22 12 C 22 11.458333 22.18767 10.936821 22.496094 10.589844 C 22.804518 10.242867 23.208334 10 24 10 z M 24 17 C 33.980121 17 43 24.934285 43 34.5 L 43 36 L 5 36 L 5 34.5 C 5 24.934285 14.019879 17 24 17 z M 24 20.447266 C 23.68 20.447266 23.359234 20.5685 23.115234 20.8125 L 21.927734 22 L 20.25 22 C 19.56 22 19 22.56 19 23.25 L 19 24.927734 L 17.8125 26.115234 C 17.3245 26.603234 17.3245 27.396766 17.8125 27.884766 L 19 29.072266 L 19 30.75 C 19 31.44 19.56 32 20.25 32 L 21.927734 32 L 23.115234 33.1875 C 23.603234 33.6755 24.396766 33.6755 24.884766 33.1875 L 26.072266 32 L 27.75 32 C 28.44 32 29 31.44 29 30.75 L 29 29.072266 L 30.1875 27.884766 C 30.6755 27.396766 30.6755 26.603234 30.1875 26.115234 L 29 24.927734 L 29 23.25 C 29 22.56 28.44 22 27.75 22 L 26.072266 22 L 24.884766 20.8125 C 24.640766 20.5685 24.32 20.447266 24 20.447266 z"/></svg>