<svg xmlns="http://www.w3.org/2000/svg"  viewBox="0 0 48 48" width="50px" height="50px"><path d="M 37.5 5 C 34.89072 5 32.740886 6.7136048 31.296875 8.9121094 C 30.696502 9.8261762 30.205314 10.845482 29.828125 11.921875 C 26.8839 9.4830224 23.113215 8 19 8 C 9.6292523 8 2 15.629252 2 25 C 2 34.370748 9.6292523 42 19 42 C 24.86581 42 30.048576 39.009338 33.105469 34.474609 C 33.044295 36.623622 33 38.345813 33 38.75 C 33 41.469479 34.829723 44 37.5 44 C 40.170277 44 42 41.469479 42 38.75 C 42 37.862015 41.835159 31.729579 41.583984 24.863281 C 44.196804 23.395884 46 20.50337 46 16.699219 C 46 13.89849 45.147136 11.110614 43.703125 8.9121094 C 42.259114 6.7136048 40.10928 5 37.5 5 z M 37.5 8 C 38.75672 8 40.105823 8.8998482 41.195312 10.558594 C 42.284802 12.217339 43 14.528947 43 16.699219 C 43 20.024365 41.543766 21.872841 39.525391 22.636719 A 1.50015 1.50015 0 0 0 38.558594 24.095703 C 38.839157 31.517163 39 38.256313 39 38.75 C 39 40.172521 38.143723 41 37.5 41 C 36.856277 41 36 40.172521 36 38.75 C 36 38.255 36.161799 31.523117 36.443359 24.095703 A 1.50015 1.50015 0 0 0 35.474609 22.636719 C 33.456115 21.872796 32 20.024102 32 16.699219 C 32 14.528947 32.715198 12.217339 33.804688 10.558594 C 34.894177 8.8998482 36.24328 8 37.5 8 z M 19 11 C 19.414185 11 19.879563 11.183118 20.464844 11.773438 C 21.050125 12.363755 21.677372 13.342133 22.212891 14.619141 C 22.724825 15.839908 23.152584 17.33198 23.462891 19 L 14.537109 19 C 14.847416 17.33198 15.275175 15.839908 15.787109 14.619141 C 16.322628 13.342133 16.949875 12.363756 17.535156 11.773438 C 18.120437 11.183118 18.585815 11 19 11 z M 13.699219 12.052734 C 13.459904 12.498101 13.230532 12.960485 13.021484 13.458984 C 12.349285 15.061925 11.829942 16.939664 11.484375 19 L 6.3925781 19 C 7.8822845 15.868108 10.486131 13.379062 13.699219 12.052734 z M 24.302734 12.056641 C 26.118338 12.8012 27.738041 13.911296 29.078125 15.304688 C 29.03204 15.767669 29 16.232863 29 16.699219 C 29 17.512591 29.096852 18.274969 29.251953 19 L 26.515625 19 C 26.170058 16.939664 25.650715 15.061925 24.978516 13.458984 C 24.770074 12.961931 24.54126 12.500877 24.302734 12.056641 z M 5.3378906 22 L 11.119141 22 C 11.042948 22.974689 11 23.974288 11 25 C 11 26.381567 11.078142 27.715345 11.214844 29 L 5.6464844 29 C 5.2660328 27.725172 5 26.400837 5 25 C 5 23.967251 5.1270989 22.96827 5.3378906 22 z M 14.128906 22 L 23.871094 22 C 23.955181 22.967553 24 23.971047 24 25 C 24 26.390325 23.911608 27.729512 23.761719 29 L 14.238281 29 C 14.088392 27.729512 14 26.390325 14 25 C 14 23.971047 14.044819 22.967553 14.128906 22 z M 26.880859 22 L 30.451172 22 C 31.117089 23.063757 31.982177 23.933456 32.988281 24.583984 C 32.992301 24.722762 33 24.861174 33 25 C 33 26.400837 32.733967 27.725172 32.353516 29 L 26.785156 29 C 26.921858 27.715345 27 26.381567 27 25 C 27 23.974288 26.957052 22.974689 26.880859 22 z M 6.9335938 32 L 11.671875 32 C 12.008746 33.667236 12.46005 35.202209 13.021484 36.541016 C 13.230163 37.038634 13.458432 37.500634 13.697266 37.945312 C 10.84353 36.761254 8.4736962 34.654579 6.9335938 32 z M 14.740234 32 L 23.259766 32 C 22.974839 33.266868 22.620631 34.408555 22.212891 35.380859 C 21.677372 36.657867 21.050125 37.636244 20.464844 38.226562 C 19.879563 38.816882 19.414185 39 19 39 C 18.585815 39 18.120437 38.816882 17.535156 38.226562 C 16.949875 37.636244 16.322628 36.657867 15.787109 35.380859 C 15.379369 34.408555 15.025161 33.266868 14.740234 32 z M 26.328125 32 L 31.066406 32 C 29.526304 34.654579 27.15647 36.761254 24.302734 37.945312 C 24.541568 37.500634 24.769837 37.038634 24.978516 36.541016 C 25.53995 35.202209 25.991254 33.667236 26.328125 32 z"/></svg>