<svg xmlns="http://www.w3.org/2000/svg"  viewBox="0 0 48 48" width="50px" height="50px"><path d="M 23.470703 2.9042969 A 1.50015 1.50015 0 0 0 22.439453 3.3574219 L 20.439453 5.3574219 A 1.5005306 1.5005306 0 1 0 22.560547 7.4804688 L 24.560547 5.4804688 A 1.50015 1.50015 0 0 0 23.470703 2.9042969 z M 31.470703 3.9042969 A 1.50015 1.50015 0 0 0 30.439453 4.3574219 L 27.439453 7.3574219 A 1.5005306 1.5005306 0 1 0 29.560547 9.4804688 L 32.560547 6.4804688 A 1.50015 1.50015 0 0 0 31.470703 3.9042969 z M 39.470703 4.9042969 A 1.50015 1.50015 0 0 0 38.439453 5.3574219 L 34.439453 9.3574219 A 1.5005306 1.5005306 0 0 0 36.560547 11.480469 L 40.560547 7.4804688 A 1.50015 1.50015 0 0 0 39.470703 4.9042969 z M 15.728516 8.9199219 C 12.521477 8.9199219 10.060267 11.150993 8.8574219 13.839844 C 7.4893635 16.897965 4 21.862078 4 28.230469 L 4 28.367188 C 4 30.574216 4.1102606 32.778385 4.8261719 34.804688 C 5.5420831 36.830989 6.9759972 38.666914 9.28125 39.726562 A 1.50015 1.50015 0 0 0 9.5527344 39.820312 L 25.986328 43.837891 C 26.963043 44.386583 28.074653 44.628561 29.298828 44.800781 C 30.649815 44.990843 32.115623 45.060331 33.488281 45.076172 C 36.173003 45.107152 38.405755 44.926153 38.507812 44.917969 C 40.463969 44.914869 42.053465 43.871105 42.894531 42.535156 C 43.73685 41.197217 44 39.654893 44 38.238281 C 44 33.7534 41.207587 29.695975 40.013672 27.457031 C 38.420585 24.468518 37.999048 23.469485 38 20.191406 A 1.50015 1.50015 0 0 0 38 20.189453 C 38 16.674717 35.470765 13.722737 32.142578 13.060547 A 1.50015 1.50015 0 0 0 31.927734 12.982422 C 31.927734 12.982422 28.980897 12.10246 25.523438 11.160156 C 22.065977 10.217852 18.179817 9.2123823 15.916016 8.9296875 A 1.50015 1.50015 0 0 0 15.730469 8.9199219 L 15.728516 8.9199219 z M 15.675781 11.939453 C 17.484745 12.179175 21.364573 13.136273 24.734375 14.054688 C 25.407847 14.238237 25.872062 14.37423 26.488281 14.546875 C 25.435003 15.430712 24.588647 16.56554 23.929688 17.697266 C 22.215253 20.644384 19 25.903206 19 32.230469 C 19 34.74452 20.013624 37.119179 21.3125 39.107422 C 21.451425 39.320079 21.605091 39.50929 21.75 39.712891 L 10.472656 36.957031 C 8.9273396 36.224851 8.1574937 35.228926 7.6542969 33.804688 C 7.1424581 32.355989 7 30.457157 7 28.367188 L 7 28.230469 C 7 22.97686 9.9897616 18.654332 11.595703 15.064453 C 12.439555 13.178099 13.874927 11.966098 15.675781 11.939453 z M 30.728516 15.919922 L 30.730469 15.919922 C 33.106675 15.919922 35 17.812933 35 20.189453 C 34.999 23.799374 35.720275 25.779654 37.367188 28.869141 C 38.707226 31.382197 41 35.085162 41 38.238281 C 41 39.24167 40.76315 40.289939 40.355469 40.9375 C 39.947788 41.585061 39.539833 41.919922 38.5 41.919922 A 1.50015 1.50015 0 0 0 38.378906 41.923828 C 38.378906 41.923828 36.107121 42.105989 33.523438 42.076172 C 32.231595 42.061262 30.867435 41.991952 29.716797 41.830078 C 28.576192 41.66962 27.637837 41.364409 27.332031 41.169922 A 1.5007145 1.5007145 0 0 0 27.308594 41.154297 C 26.312041 40.499581 24.900076 39.113655 23.824219 37.466797 C 22.744345 35.813789 22 33.905418 22 32.230469 C 22 26.935731 24.785872 22.193913 26.523438 19.207031 L 26.521484 19.207031 C 27.678351 17.220179 28.949299 15.919922 30.728516 15.919922 z M 29.470703 19.904297 A 1.50015 1.50015 0 0 0 28.439453 20.357422 C 26.8359 21.960975 26.081085 24.168548 25.611328 25.980469 C 25.141571 27.79239 25.005859 29.283203 25.005859 29.283203 A 1.5002944 1.5002944 0 1 0 27.994141 29.554688 C 27.994141 29.554688 28.108429 28.295501 28.513672 26.732422 C 28.918915 25.169343 29.6641 23.376915 30.560547 22.480469 A 1.50015 1.50015 0 0 0 29.470703 19.904297 z M 35.40625 30.902344 A 1.50015 1.50015 0 0 0 34.212891 33.191406 C 34.894796 34.327915 35.171985 35.160112 35.228516 35.640625 C 35.285046 36.121138 35.210696 36.202427 35.111328 36.318359 C 34.912587 36.550224 33.833333 36.919922 32.5 36.919922 A 1.50015 1.50015 0 1 0 32.5 39.919922 C 34.166667 39.919922 36.087413 39.787666 37.388672 38.269531 C 38.039301 37.510464 38.339953 36.404253 38.208984 35.291016 C 38.078015 34.177779 37.605204 33.009976 36.787109 31.646484 A 1.50015 1.50015 0 0 0 35.40625 30.902344 z"/></svg>