<svg xmlns="http://www.w3.org/2000/svg"  viewBox="0 0 48 48" width="50px" height="50px"><path d="M46.5,36H46v-1.5c0-9.73-7.725-18.138-17.653-20.079C28.75,13.701,29,12.883,29,12c0-2.757-2.243-5-5-5s-5,2.243-5,5 c0,2.507,1.861,4.569,4.27,4.926l0.104,0.104C23.583,17.024,23.789,17,24,17c10.299,0,19,8.014,19,17.5V36h-4.879L6.561,4.439 c-0.586-0.586-1.535-0.586-2.121,0s-0.586,1.535,0,2.121l9.704,9.704C7.011,19.698,2,26.667,2,34.5V36H1.5 C0.672,36,0,36.672,0,37.5S0.672,39,1.5,39h35.379l4.561,4.561C41.732,43.854,42.116,44,42.5,44s0.768-0.146,1.061-0.439 c0.586-0.586,0.586-1.535,0-2.121L41.121,39H46.5c0.828,0,1.5-0.672,1.5-1.5S47.328,36,46.5,36z M24,10c1.103,0,2,0.897,2,2 s-0.897,2-2,2s-2-0.897-2-2S22.897,10,24,10z M5,36v-1.5c0-7.017,4.769-13.207,11.417-15.962l3.524,3.524 C19.404,22.203,19,22.669,19,23.25v1.679l-1.187,1.187c-0.488,0.488-0.488,1.28,0,1.768L19,29.071v1.679 c0,0.69,0.56,1.25,1.25,1.25h1.679l1.187,1.187c0.488,0.488,1.28,0.488,1.768,0L26.071,32h1.679c0.581,0,1.047-0.404,1.188-0.941 L33.879,36H5z"/></svg>