<svg xmlns="http://www.w3.org/2000/svg"  viewBox="0 0 48 48" width="50px" height="50px"><path d="M 24 6 C 14.903384 6 7.595729 13.591784 7.0957031 23 L 5.5 23 A 1.50015 1.50015 0 0 0 4.140625 25.134766 L 11.140625 40.134766 A 1.50015 1.50015 0 0 0 12.5 41 L 35.5 41 A 1.50015 1.50015 0 0 0 36.863281 40.123047 C 36.863281 40.123047 38.579387 36.375465 40.310547 32.628906 C 41.176127 30.755627 42.045569 28.881862 42.705078 27.482422 C 43.034833 26.782702 43.311546 26.201515 43.505859 25.804688 C 43.603019 25.606274 43.682147 25.451555 43.726562 25.367188 C 43.748773 25.325008 43.764726 25.296433 43.753906 25.314453 C 43.748506 25.323453 43.740603 25.339753 43.689453 25.408203 C 43.663873 25.442433 43.635123 25.488023 43.535156 25.583984 C 43.485176 25.631964 43.28246 25.779753 43.283203 25.779297 C 43.283948 25.778836 42.499461 26 42.5 26 L 42.5 23 L 40.904297 23 C 40.404271 13.591784 33.096616 6 24 6 z M 24 9 C 31.38085 9 37.417633 15.133775 37.90625 23 L 10.09375 23 C 10.582367 15.133775 16.61915 9 24 9 z M 20.5 13 A 1.5 1.5 0 0 0 20.5 16 A 1.5 1.5 0 0 0 20.5 13 z M 27.5 13 A 1.5 1.5 0 0 0 27.5 16 A 1.5 1.5 0 0 0 27.5 13 z M 16.5 18 A 1.5 1.5 0 0 0 16.5 21 A 1.5 1.5 0 0 0 16.5 18 z M 23.5 18 A 1.5 1.5 0 0 0 23.5 21 A 1.5 1.5 0 0 0 23.5 18 z M 30.5 18 A 1.5 1.5 0 0 0 30.5 21 A 1.5 1.5 0 0 0 30.5 18 z M 7.8554688 26 L 14.076172 26 L 16.845703 38 L 13.455078 38 L 7.8554688 26 z M 17.154297 26 L 22.5 26 L 22.5 38 L 19.923828 38 L 17.154297 26 z M 25.5 26 L 30.845703 26 L 28.076172 38 L 25.5 38 L 25.5 26 z M 33.923828 26 L 40.087891 26 C 40.049741 26.08075 40.029894 26.120927 39.990234 26.205078 C 39.324306 27.618138 38.453108 29.494373 37.585938 31.371094 C 36.054177 34.686122 34.872706 37.271127 34.539062 38 L 31.154297 38 L 33.923828 26 z"/></svg>