<svg xmlns="http://www.w3.org/2000/svg"  viewBox="0 0 48 48" width="50px" height="50px"><path d="M 32.484375 3.9804688 A 1.50015 1.50015 0 0 0 31.017578 5.7382812 C 31.019678 5.7546333 31.403033 8.7520111 30.589844 10.988281 C 30.182139 12.109468 29.578876 12.944496 28.523438 13.40625 C 27.467999 13.868004 25.755226 14.003044 22.974609 13.076172 C 19.706589 11.986832 16.869844 12.105356 14.587891 13.003906 C 12.305937 13.90246 10.627946 15.521074 9.4199219 17.205078 C 7.8711931 19.36403 7.0777274 21.599584 6.671875 23 L 4.5 23 A 1.50015 1.50015 0 1 0 4.5 26 L 6.2539062 26 L 8.109375 35.882812 C 8.7726169 39.420935 11.881311 42 15.480469 42 L 32.519531 42 C 36.119443 42 39.229336 39.420935 39.892578 35.882812 L 41.746094 26 L 43.5 26 A 1.50015 1.50015 0 1 0 43.5 23 L 41.980469 23 C 42.297355 21.75958 42.255569 20.410939 41.984375 19.115234 C 41.507304 16.835894 40.408016 14.51715 39.175781 12.376953 C 36.791044 8.2350415 33.946405 4.8945992 33.757812 4.6738281 A 1.50015 1.50015 0 0 0 32.484375 3.9804688 z M 34.349609 10.541016 C 35.097977 11.608539 35.840165 12.598112 36.574219 13.873047 C 37.716984 15.85785 38.680196 17.976606 39.046875 19.728516 C 39.351395 21.183442 39.270127 22.232205 38.783203 23 L 23.109375 23 C 25.757587 20.632175 28.520325 18.89523 30.759766 16.859375 C 32.236884 15.51654 33.503853 13.989019 34.144531 12.029297 C 34.293461 11.573748 34.275143 11.033778 34.349609 10.541016 z M 18.433594 15.28125 C 19.476118 15.278575 20.659401 15.468498 22.025391 15.923828 C 23.539265 16.428453 24.874346 16.655415 26.095703 16.710938 C 23.871673 18.391311 21.350191 20.24941 18.839844 23 L 9.8144531 23 C 10.222169 21.836504 10.873386 20.326839 11.857422 18.955078 C 12.830148 17.599083 14.083891 16.426368 15.6875 15.794922 C 16.489304 15.479199 17.39107 15.283925 18.433594 15.28125 z M 9.3085938 26 L 14.544922 26 L 15.9375 39 L 15.480469 39 C 13.305627 39 11.457399 37.467957 11.056641 35.330078 L 9.3085938 26 z M 17.5625 26 L 19.515625 26 L 22.5 26 L 22.5 39 L 18.955078 39 L 17.5625 26 z M 25.5 26 L 30.4375 26 L 29.044922 39 L 25.5 39 L 25.5 26 z M 33.455078 26 L 38.691406 26 L 36.943359 35.330078 C 36.542601 37.467957 34.69562 39 32.519531 39 L 32.0625 39 L 33.455078 26 z"/></svg>