<svg xmlns="http://www.w3.org/2000/svg"  viewBox="0 0 48 48" width="50px" height="50px"><path d="M 11.5 7 C 8.4802259 7 6 9.4802259 6 12.5 L 6 35.5 C 6 38.519774 8.4802259 41 11.5 41 L 26.5 41 C 26.715117 41 26.925826 40.983455 27.134766 40.958984 A 1.50015 1.50015 0 0 0 27.5 41 L 36.5 41 C 39.519774 41 42 38.519774 42 35.5 L 42 12.5 C 42 9.4802259 39.519774 7 36.5 7 L 27.5 7 A 1.50015 1.50015 0 0 0 27.136719 7.0410156 C 26.927158 7.0163965 26.715778 7 26.5 7 L 11.5 7 z M 11.5 10 L 26.5 10 C 27.898226 10 29 11.101774 29 12.5 L 29 14 L 9 14 L 9 12.5 C 9 11.101774 10.101774 10 11.5 10 z M 31.386719 10 L 36.5 10 C 37.898226 10 39 11.101774 39 12.5 L 39 19.085938 A 1.5 1.5 0 0 0 38.5 19 A 1.5 1.5 0 0 0 38.5 22 A 1.5 1.5 0 0 0 39 21.912109 L 39 31.085938 A 1.5 1.5 0 0 0 38.5 31 A 1.5 1.5 0 0 0 38.5 34 A 1.5 1.5 0 0 0 39 33.912109 L 39 35.5 C 39 36.898226 37.898226 38 36.5 38 L 31.386719 38 C 31.775308 37.247721 32 36.399198 32 35.5 L 32 12.5 C 32 11.600802 31.775308 10.752279 31.386719 10 z M 35.5 13 A 1.5 1.5 0 0 0 35.5 16 A 1.5 1.5 0 0 0 35.5 13 z M 9 17 L 29 17 L 29 22 L 9 22 L 9 17 z M 9 25 L 29 25 L 29 30 L 9 30 L 9 25 z M 35.5 25 A 1.5 1.5 0 0 0 35.5 28 A 1.5 1.5 0 0 0 35.5 25 z M 9 33 L 29 33 L 29 35.5 C 29 36.898226 27.898226 38 26.5 38 L 11.5 38 C 10.101774 38 9 36.898226 9 35.5 L 9 33 z"/></svg>