<svg xmlns="http://www.w3.org/2000/svg"  viewBox="0 0 48 48" width="50px" height="50px"><path d="M 12.5 4 C 10.032499 4 8 6.0324991 8 8.5 L 8 37.253906 A 1.50015 1.50015 0 0 0 8 37.740234 L 8 39.5 C 8 41.967501 10.032499 44 12.5 44 L 38.5 44 A 1.50015 1.50015 0 1 0 38.5 41 L 12.5 41 C 11.653501 41 11 40.346499 11 39.5 L 11 39 L 38.5 39 A 1.50015 1.50015 0 0 0 40 37.5 L 40 8.5 C 40 6.0324991 37.967501 4 35.5 4 L 12.5 4 z M 12.5 7 L 35.5 7 C 36.346499 7 37 7.6535009 37 8.5 L 37 36 L 11 36 L 11 8.5 C 11 7.6535009 11.653501 7 12.5 7 z M 31.130859 10.460938 C 29.588403 10.410321 27.890081 11.039557 26.464844 12.464844 C 24.430858 14.498901 24.022284 17.088988 24.892578 18.986328 L 23.5 20.378906 L 16.560547 13.439453 A 1.50015 1.50015 0 0 0 15.478516 13 A 1.50015 1.50015 0 0 0 14.300781 13.599609 C 13.154781 15.127609 13.241956 17.051259 13.728516 18.78125 C 14.215076 20.511241 15.122345 22.225049 16.103516 23.794922 C 16.635199 24.645616 17.184024 25.436886 17.714844 26.164062 L 14.439453 29.439453 A 1.50015 1.50015 0 1 0 16.560547 31.560547 L 19.580078 28.541016 C 19.898393 28.916465 20.384766 29.503906 20.384766 29.503906 A 1.50015 1.50015 0 0 0 22.560547 29.560547 L 25.5 26.621094 L 29.439453 30.560547 A 1.50015 1.50015 0 1 0 31.560547 28.439453 L 26.734375 23.613281 A 1.50015 1.50015 0 0 0 26.388672 23.267578 L 25.621094 22.5 L 27.011719 21.109375 C 28.909226 21.98053 31.50062 21.569763 33.535156 19.535156 C 36.06891 17.001314 36.085748 13.601308 34.242188 11.757812 C 33.43563 10.951283 32.330548 10.500306 31.130859 10.460938 z M 30.757812 13.355469 C 31.349172 13.313369 31.805415 13.563239 32.121094 13.878906 C 32.752451 14.510241 33.122873 15.705193 31.414062 17.414062 C 29.705253 19.122933 28.510263 18.752429 27.878906 18.121094 C 27.247549 17.489759 26.877127 16.294807 28.585938 14.585938 C 29.440342 13.731503 30.166453 13.397569 30.757812 13.355469 z M 16.576172 17.697266 L 22.230469 23.351562 A 1.50015 1.50015 0 0 0 22.660156 23.779297 L 23.378906 24.5 L 21.658203 26.220703 C 20.973875 25.419357 20.003171 24.375777 18.646484 22.205078 C 17.752655 20.774951 16.972424 19.238759 16.615234 17.96875 C 16.584614 17.859883 16.600372 17.799676 16.576172 17.697266 z"/></svg>