<svg xmlns="http://www.w3.org/2000/svg"  viewBox="0 0 48 48" width="50px" height="50px"><path d="M 33.517578 4 A 1.50015 1.50015 0 0 0 33.333984 4.0097656 C 29.35306 4.4520906 27.026187 6.5313779 25.863281 8.7675781 C 25.851494 8.751335 25.842009 8.7329038 25.830078 8.7167969 C 24.603663 7.061137 22.779803 6.2652421 21.056641 5.90625 C 19.333479 5.5472579 17.608921 5.580406 16.316406 5.703125 C 15.023892 5.825844 14.162109 6.0390625 14.162109 6.0390625 A 1.50015 1.50015 0 0 0 13.023438 7.2324219 C 13.023438 7.2324219 12.390989 10.31276 13.6875 13.287109 C 14.335756 14.774284 15.554899 16.265833 17.490234 17.103516 C 18.433687 17.511875 19.524535 17.764196 20.777344 17.841797 C 17.399503 20.882674 16.034687 23.872208 15.554688 25.033203 C 11.654509 23.774683 7.0812061 26.189974 5.1152344 30.925781 C 4.0851114 33.407233 3.9809852 36.003297 4.6035156 38.228516 C 5.226046 40.453734 6.6042185 42.380221 8.6660156 43.236328 A 1.50015 1.50015 0 0 0 8.6679688 43.236328 C 10.727135 44.090949 13.061908 43.714203 15.076172 42.587891 C 17.090435 41.461579 18.854678 39.555585 19.884766 37.074219 C 21.544243 33.076722 20.593157 28.961403 18.113281 26.59375 C 18.33828 26.010296 19.619716 22.826401 22.988281 19.878906 C 26.675263 16.652798 32.481367 14.061402 42.068359 16.9375 A 1.5009065 1.5009065 0 1 0 42.931641 14.0625 C 40.328392 13.281524 37.926744 12.879202 35.720703 12.771484 C 35.130393 12.742661 34.558466 12.741862 33.996094 12.753906 C 34.608545 11.877414 35.017836 10.962707 35.214844 10.076172 C 35.824585 7.3323316 34.904297 4.9726562 34.904297 4.9726562 A 1.50015 1.50015 0 0 0 33.517578 4 z M 32.332031 7.3007812 C 32.408331 7.9057185 32.46088 8.6330501 32.285156 9.4238281 C 31.952056 10.92278 30.963085 12.510082 27.865234 13.525391 C 27.855024 12.846844 27.859134 12.080687 28.076172 11.255859 C 28.522622 9.5593511 29.511867 7.9941125 32.332031 7.3007812 z M 18.490234 8.6367188 C 19.13526 8.6506279 19.80494 8.710746 20.443359 8.84375 C 21.720197 9.1097579 22.771337 9.6263631 23.419922 10.501953 C 23.998058 11.282437 24.289227 12.584844 24.046875 14.587891 C 21.551489 14.988741 19.778443 14.824345 18.681641 14.349609 C 17.476351 13.827917 16.851744 13.038216 16.4375 12.087891 C 15.90755 10.872122 15.878634 9.6817584 15.917969 8.8105469 C 16.225461 8.7641709 16.234524 8.7429639 16.683594 8.703125 C 17.224836 8.6551095 17.845208 8.6228096 18.490234 8.6367188 z M 30.5 20 C 28.268927 20 26.324331 21.293134 25.03125 23.125 C 23.738169 24.956866 23 27.366675 23 30 C 23 32.633325 23.738169 35.043134 25.03125 36.875 C 26.324331 38.706866 28.268927 40 30.5 40 C 32.731073 40 34.675669 38.706866 35.96875 36.875 C 37.261831 35.043134 38 32.633325 38 30 C 38 27.366675 37.261831 24.956866 35.96875 23.125 C 34.675669 21.293134 32.731073 20 30.5 20 z M 30.5 23 C 31.582638 23 32.639088 23.61094 33.517578 24.855469 C 34.396068 26.099998 35 27.938905 35 30 C 35 32.061095 34.396068 33.900002 33.517578 35.144531 C 32.639088 36.38906 31.582638 37 30.5 37 C 29.417362 37 28.360912 36.38906 27.482422 35.144531 C 26.603932 33.900002 26 32.061095 26 30 C 26 27.938905 26.603932 26.099998 27.482422 24.855469 C 28.360912 23.61094 29.417362 23 30.5 23 z M 29.5 27 A 1.5 1.5 0 0 0 29.5 30 A 1.5 1.5 0 0 0 29.5 27 z M 13.621094 27.625 C 14.086472 27.632547 14.528087 27.719762 14.925781 27.884766 C 17.041353 28.76251 18.646488 32.237162 17.115234 35.925781 C 16.345322 37.780415 15.011065 39.186062 13.611328 39.96875 C 12.211592 40.751438 10.81724 40.880223 9.8164062 40.464844 C 8.8172035 40.049951 7.9254071 38.968454 7.4921875 37.419922 C 7.0589679 35.87139 7.1148886 33.928767 7.8847656 32.074219 C 9.0460432 29.27683 11.233123 27.824927 13.148438 27.644531 C 13.308047 27.629499 13.465968 27.622484 13.621094 27.625 z M 11.5 31 A 1.5 1.5 0 0 0 11.5 34 A 1.5 1.5 0 0 0 11.5 31 z"/></svg>