<svg xmlns="http://www.w3.org/2000/svg"  viewBox="0 0 48 48" width="50px" height="50px"><path d="M 24 3 C 22.536514 3 21.204243 3.6249746 20.009766 4.5039062 C 19.511092 4.3093195 19.069109 4 18.5 4 C 16.964499 4 15.852777 4.991144 15.140625 6.03125 C 14.524716 6.9307913 14.179968 7.9556061 14.082031 9.0117188 C 14.053259 9.0113759 14.028894 9 14 9 L 13.955078 9 A 1.50015 1.50015 0 0 0 13.951172 9 C 11.936838 9.00602 10.381383 10.435976 9.8984375 12.224609 C 7.6937496 12.743832 6 14.645962 6 17 C 6 17.785811 6.1880357 18.528972 6.515625 19.189453 C 4.5892137 19.996483 3.56472 22.075638 4.0058594 24.089844 C 4.0952454 24.499218 4.2301161 24.892843 4.390625 25.292969 C 5.5902224 28.281486 8.8442756 29.742488 11.890625 29.070312 C 12.099619 29.024021 12.305211 29 12.5 29 C 12.881018 29 13.617147 29.429499 14.316406 30.240234 C 15.411305 31.510449 16.049038 33.158378 16.193359 34.894531 L 16.699219 40.957031 C 16.935959 43.793814 19.332861 46 22.179688 46 L 23.753906 46 A 1.50015 1.50015 0 0 0 24.240234 46 L 25.818359 46 C 28.665186 46 31.062087 43.793814 31.298828 40.957031 A 1.50015 1.50015 0 0 0 31.300781 40.957031 L 31.804688 34.894531 C 31.949009 33.158378 32.586742 31.510449 33.681641 30.240234 A 1.50015 1.50015 0 0 0 33.681641 30.238281 C 34.379094 29.428655 35.117029 29 35.498047 29 C 35.689927 29 35.893678 29.023639 36.099609 29.068359 C 39.144792 29.733385 42.402239 28.278581 43.599609 25.285156 L 43.597656 25.285156 C 43.757278 24.886676 43.891497 24.496468 43.980469 24.091797 L 43.980469 24.089844 C 44.422913 22.085932 43.394088 20.004634 41.482422 19.193359 C 41.811162 18.531946 42 17.787296 42 17 C 42 14.653528 40.317146 12.755516 38.123047 12.228516 C 37.647547 10.426715 36.06047 9.0048346 34.046875 9 A 1.50015 1.50015 0 0 0 34.044922 9 L 34 9 C 33.97111 9 33.946739 9.0113758 33.917969 9.0117188 C 33.820031 7.9556059 33.475284 6.9307913 32.859375 6.03125 C 32.147223 4.991144 31.035501 4 29.5 4 C 28.930891 4 28.488908 4.3093195 27.990234 4.5039062 C 26.795757 3.6249746 25.463486 3 24 3 z M 24 6 C 24.885909 6 25.775183 6.3697 26.716797 7.2148438 A 1.50015 1.50015 0 0 0 28.613281 7.3007812 C 28.876125 7.1053606 29.168806 7 29.5 7 C 29.621499 7 30.009215 7.1809185 30.382812 7.7265625 C 30.75641 8.2722065 31 9.0767505 31 9.5 A 1.50015 1.50015 0 0 0 31.017578 9.7382812 C 29.465658 10.468644 28.152628 11.666468 27.177734 13.142578 C 25.644724 15.463746 24.678235 18.383198 24 21.328125 C 23.321765 18.383198 22.355276 15.463746 20.822266 13.142578 C 19.847866 11.667216 18.535235 10.470762 16.984375 9.7402344 A 1.50015 1.50015 0 0 0 17 9.5 C 17 9.0767505 17.24359 8.2722065 17.617188 7.7265625 C 17.990785 7.1809185 18.378501 7 18.5 7 C 18.831194 7 19.123875 7.1053603 19.386719 7.3007812 A 1.50015 1.50015 0 0 0 21.283203 7.2148438 C 22.224817 6.3696995 23.114091 6 24 6 z M 13.960938 12 L 14 12 C 15.796053 12 17.101295 12.952135 18.318359 14.794922 C 19.535424 16.637709 20.46625 19.309269 21.099609 22.083984 C 21.654822 24.516347 21.985436 27.010356 22.189453 29.144531 C 21.88394 28.123288 21.549471 27.147999 21.171875 26.253906 C 20.258518 24.091208 19.137161 22.314327 17.777344 21.039062 C 16.417527 19.763799 14.777778 19 13 19 A 1.0001 1.0001 0 1 0 13 21 C 14.222222 21 15.332473 21.487374 16.410156 22.498047 C 17.487839 23.50872 18.491482 25.052151 19.328125 27.033203 C 20.986703 30.960478 21.978717 36.579597 21.996094 42.982422 C 20.76953 42.894347 19.793492 41.953702 19.689453 40.707031 L 19.183594 34.646484 L 19.183594 34.644531 C 18.991607 32.339391 18.142519 30.082541 16.589844 28.28125 C 15.633103 27.171985 14.328982 26 12.5 26 C 12.06945 26 11.648575 26.051174 11.244141 26.140625 C 9.4864897 26.52845 7.8081839 25.751264 7.1757812 24.175781 C 7.0565266 23.878496 6.9741177 23.617195 6.9375 23.449219 A 1.50015 1.50015 0 0 0 6.9355469 23.447266 C 6.7964733 22.812267 7.2725597 21.970183 7.7871094 21.837891 C 8.4260529 21.673467 9.0497616 21.375035 9.6621094 20.958984 A 1.50015 1.50015 0 0 0 9.7578125 18.548828 C 9.2884714 18.172347 9 17.63208 9 17 C 9 15.877657 9.877657 15 11 15 C 10.841429 15 10.869094 15.003098 11.115234 15.017578 A 1.50015 1.50015 0 0 0 12.699219 13.416016 C 12.644817 12.6387 13.141458 12.002451 13.960938 12 z M 34 12 L 34.041016 12 C 34.846858 12.0019 35.376051 12.661516 35.3125 13.388672 A 1.50015 1.50015 0 0 0 36.876953 15.017578 C 37.143435 15.005279 37.176424 15 37 15 C 38.122343 15 39 15.877657 39 17 C 39 17.63208 38.711526 18.1723 38.242188 18.548828 A 1.50015 1.50015 0 0 0 38.335938 20.957031 C 38.946362 21.373061 39.56953 21.671645 40.205078 21.835938 C 40.81221 21.995544 41.210677 22.720612 41.050781 23.443359 A 1.50015 1.50015 0 0 0 41.050781 23.447266 C 41.013751 23.615954 40.932595 23.874993 40.814453 24.169922 A 1.50015 1.50015 0 0 0 40.8125 24.171875 C 40.18187 25.74845 38.503052 26.521693 36.740234 26.136719 A 1.50015 1.50015 0 0 0 36.738281 26.136719 C 36.338992 26.049684 35.923552 26 35.498047 26 C 33.669065 26 32.366656 27.170924 31.410156 28.28125 C 29.857055 30.083035 29.006132 32.340638 28.814453 34.646484 L 28.310547 40.707031 C 28.206563 41.953043 27.229723 42.893481 26.003906 42.982422 C 26.021283 36.579597 27.013297 30.960478 28.671875 27.033203 C 29.508518 25.052151 30.512161 23.50872 31.589844 22.498047 C 32.667527 21.487374 33.777778 21 35 21 A 1.0001 1.0001 0 1 0 35 19 C 33.222222 19 31.582473 19.763799 30.222656 21.039062 C 28.862839 22.314328 27.741482 24.091208 26.828125 26.253906 C 26.450529 27.147999 26.11606 28.123288 25.810547 29.144531 C 26.014564 27.010356 26.345178 24.516347 26.900391 22.083984 C 27.53375 19.309269 28.464576 16.637709 29.681641 14.794922 C 30.898705 12.952135 32.203947 12 34 12 z"/></svg>