<svg xmlns="http://www.w3.org/2000/svg"  viewBox="0 0 48 48" width="50px" height="50px"><path d="M 9.4765625 1 A 1.50015 1.50015 0 0 0 8.0703125 2.9511719 C 8.0703125 2.9511719 9.2813792 7.3035296 10.148438 15.394531 C 9.685793 14.541241 9.2224421 13.679079 8.7421875 12.970703 C 6.0964034 9.0681717 3.3183594 7.2421875 3.3183594 7.2421875 A 1.50015 1.50015 0 0 0 1.2519531 9.3320312 C 1.2519531 9.3320312 2.0946503 10.543303 3.0546875 14.023438 C 3.9466421 17.256773 4.7869136 22.573977 4.9121094 30 L 4.5 30 A 1.50015 1.50015 0 0 0 3 31.5 L 3 36.087891 A 1.50015 1.50015 0 0 0 2 37.5 L 2 39.5 C 2 42.519774 4.4802259 45 7.5 45 L 40.5 45 C 43.519774 45 46 42.519774 46 39.5 L 46 37.5 A 1.50015 1.50015 0 0 0 45 36.087891 L 45 31.5 A 1.50015 1.50015 0 0 0 44.060547 30.109375 C 44.149607 22.627567 44.791686 17.480382 45.464844 14.451172 C 46.18592 11.20633 46.787109 10.271484 46.787109 10.271484 A 1.50015 1.50015 0 0 0 44.71875 8.2207031 C 44.71875 8.2207031 42.144712 9.8226951 39.744141 13.490234 C 39.452912 13.935166 39.178067 14.516151 38.892578 15.025391 C 39.757328 7.1933822 40.929688 2.9511719 40.929688 2.9511719 A 1.50015 1.50015 0 0 0 38.339844 1.5507812 C 38.339844 1.5507812 34.347145 6.5558977 31.582031 15.173828 C 31.289361 9.5008416 30.976562 6.2324219 30.976562 6.2324219 A 1.50015 1.50015 0 0 0 28.279297 5.6289062 C 28.279297 5.6289062 26.866126 7.6498821 25.568359 11.802734 C 25.200145 12.981021 24.89793 14.778104 24.5625 16.330078 C 24.197721 14.405623 23.853182 12.315988 23.445312 10.847656 C 22.160804 6.2234206 20.810547 3.7714844 20.810547 3.7714844 A 1.50015 1.50015 0 0 0 18.013672 4.3007812 C 18.013672 4.3007812 17.690156 8.4826867 17.396484 15.097656 C 14.632145 6.5248656 10.660156 1.5507813 10.660156 1.5507812 A 1.50015 1.50015 0 0 0 9.4765625 1 z M 12.628906 10.835938 C 14.67861 15.375241 16.670834 21.916023 16.910156 30 L 13.943359 30 C 13.868459 21.756773 13.287969 15.405362 12.628906 10.835938 z M 36.371094 10.835938 C 35.712031 15.405362 35.131544 21.756773 35.056641 30 L 32.089844 30 C 32.329166 21.916023 34.32139 15.37524 36.371094 10.835938 z M 20.478516 11.429688 C 20.506356 11.527738 20.526768 11.551838 20.554688 11.652344 C 21.691626 15.74532 22.756571 21.983448 22.900391 30 L 20.035156 30 C 20.066086 21.663932 20.257317 15.39288 20.478516 11.429688 z M 28.527344 12.453125 C 28.744883 15.937923 28.930928 21.796694 28.962891 30 L 26.101562 30 C 26.248985 22.069264 27.309333 16.28865 28.431641 12.697266 C 28.467431 12.582748 28.491794 12.563469 28.527344 12.453125 z M 6.2109375 14.599609 C 6.2281885 14.624859 6.2405465 14.628827 6.2578125 14.654297 C 8.4514045 17.889843 10.595628 22.91327 10.888672 30 L 7.9121094 30 C 7.79967 23.091592 7.0707926 18.094924 6.2109375 14.599609 z M 42.347656 15.023438 C 41.699819 18.293005 41.152275 23.114351 41.066406 30 L 38.101562 30 C 38.367153 22.922999 40.300342 18.122361 42.255859 15.134766 C 42.290359 15.082056 42.313256 15.075035 42.347656 15.023438 z M 6 33 L 6.2539062 33 A 1.50015 1.50015 0 0 0 6.7402344 33 L 42 33 L 42 36 L 6 36 L 6 33 z M 5 39 L 43 39 L 43 39.5 C 43 40.898226 41.898226 42 40.5 42 L 7.5 42 C 6.1017741 42 5 40.898226 5 39.5 L 5 39 z"/></svg>