<svg xmlns="http://www.w3.org/2000/svg"  viewBox="0 0 48 48" width="50px" height="50px"><path d="M 9.921875 0.44921875 A 1.50015 1.50015 0 0 0 8.4453125 1.9707031 L 8.4453125 3.7753906 C 7.7542509 3.9297577 7.1265931 4.1332672 6.5625 4.4667969 L 5.3496094 3.2539062 A 1.5005305 1.5005305 0 1 0 3.2265625 5.375 L 4.4492188 6.5976562 C 4.1021899 7.1958892 3.8461134 7.8067988 3.7011719 8.4707031 L 1.9453125 8.4707031 A 1.50015 1.50015 0 1 0 1.9453125 11.470703 L 3.7011719 11.470703 C 3.8461134 12.134607 4.1021898 12.745517 4.4492188 13.34375 L 3.2265625 14.566406 A 1.5012209 1.5012209 0 1 0 5.3496094 16.689453 L 6.5625 15.476562 C 7.1264659 15.809976 7.7544474 16.01167 8.4453125 16.166016 L 8.4453125 17.970703 A 1.50015 1.50015 0 1 0 11.445312 17.970703 L 11.445312 16.166016 C 12.105002 16.003512 12.702862 15.763922 13.267578 15.416016 L 14.541016 16.689453 A 1.5005302 1.5005302 0 0 0 16.662109 14.566406 L 15.390625 13.294922 C 15.738889 12.729747 15.978093 12.131012 16.140625 11.470703 L 17.945312 11.470703 A 1.50015 1.50015 0 1 0 17.945312 8.4707031 L 16.140625 8.4707031 C 15.977989 7.8104743 15.738953 7.2115706 15.390625 6.6464844 L 16.662109 5.375 A 1.50015 1.50015 0 1 0 14.541016 3.2539062 L 13.269531 4.5253906 C 12.704445 4.1770618 12.105541 3.9380268 11.445312 3.7753906 L 11.445312 1.9707031 A 1.50015 1.50015 0 0 0 9.921875 0.44921875 z M 9.8535156 6.4882812 A 1.50015 1.50015 0 0 0 10.03125 6.4882812 C 10.925438 6.5106063 11.721449 6.8602689 12.324219 7.421875 A 1.50015 1.50015 0 0 0 12.492188 7.5878906 C 13.055525 8.1910072 13.40537 8.9890105 13.427734 9.8847656 A 1.50015 1.50015 0 0 0 13.427734 10.056641 C 13.405444 10.950878 13.055772 11.748765 12.494141 12.351562 A 1.50015 1.50015 0 0 0 12.326172 12.519531 C 11.723191 13.082217 10.926409 13.43077 10.03125 13.453125 A 1.50015 1.50015 0 0 0 9.8535156 13.453125 C 8.8531479 13.43354 8.1998295 13.121657 7.6875 12.685547 A 1.50015 1.50015 0 0 0 7.2558594 12.244141 C 6.7790884 11.640326 6.4771526 10.856161 6.4648438 10.023438 A 1.50015 1.50015 0 0 0 6.4648438 9.9160156 C 6.4775444 9.0839759 6.7794605 8.3006095 7.2558594 7.6972656 A 1.50015 1.50015 0 0 0 7.6914062 7.2539062 C 8.2033467 6.8194919 8.8554441 6.507817 9.8535156 6.4882812 z M 22.699219 11.949219 C 22.095885 11.949219 21.446874 12.176173 20.986328 12.636719 C 20.525782 13.097265 20.300781 13.746276 20.300781 14.349609 L 20.300781 20.667969 C 19.762864 20.943958 19.173812 21.319569 18.607422 21.941406 C 17.780045 22.849781 17.106238 24.190294 16.833984 26 L 16.5 26 L 14 26 A 1.50015 1.50015 0 1 0 14 29 L 15 29 L 15 34.5 C 15 39.728774 19.271226 44 24.5 44 L 33.5 44 C 38.728774 44 43 39.728774 43 34.5 L 43 29 L 44 29 A 1.50015 1.50015 0 1 0 44 26 L 41.5 26 L 41.072266 26 L 34.660156 19.589844 A 1.50015 1.50015 0 0 0 33.578125 19.150391 A 1.50015 1.50015 0 0 0 32.982422 19.283203 L 29.326172 20.933594 C 29.183699 20.845486 29.037622 20.744213 28.900391 20.671875 L 28.900391 14.349609 C 28.900391 13.746276 28.673436 13.097265 28.212891 12.636719 C 27.752345 12.176173 27.103333 11.949219 26.5 11.949219 L 22.699219 11.949219 z M 23.300781 14.949219 L 25.900391 14.949219 L 25.900391 21.640625 A 1.50015 1.50015 0 0 0 26.925781 23.0625 C 27.297623 23.186447 27.819503 23.407787 28.304688 23.917969 C 28.693654 24.326977 29.078523 24.949348 29.304688 25.978516 L 20.242188 25.978516 A 1.50015 1.50015 0 0 0 20.005859 26 L 19.873047 26 C 20.084123 24.971445 20.45762 24.365569 20.826172 23.960938 C 21.320812 23.417873 21.851797 23.203046 22.273438 23.0625 A 1.50015 1.50015 0 0 0 23.300781 21.640625 L 23.300781 14.949219 z M 33.271484 22.443359 L 36.808594 25.978516 L 32.357422 25.978516 C 32.190925 24.910464 31.881871 24.000965 31.480469 23.251953 L 33.271484 22.443359 z M 18 29 L 19.689453 29 L 27.996094 36.488281 A 1.50015 1.50015 0 0 0 30.003906 36.488281 L 38.310547 29 L 39.835938 29 A 1.50015 1.50015 0 0 0 40 29.123047 L 40 34.5 C 40 38.107226 37.107226 41 33.5 41 L 24.5 41 C 20.892774 41 18 38.107226 18 34.5 L 18 29 z M 24.167969 29 L 33.832031 29 L 29 33.357422 L 24.167969 29 z"/></svg>