<svg xmlns="http://www.w3.org/2000/svg"  viewBox="0 0 48 48" width="50px" height="50px"><path d="M 6.5 7 C 4.0324991 7 2 9.0324991 2 11.5 L 2 33.5 C 2 35.967501 4.0324991 38 6.5 38 L 7.2148438 38 C 7.8742368 40.298413 10.000264 42 12.5 42 C 14.999736 42 17.125763 40.298413 17.785156 38 L 30.214844 38 C 30.874237 40.298413 33.000264 42 35.5 42 C 37.999736 42 40.125763 40.298413 40.785156 38 L 41.5 38 C 43.967501 38 46 35.967501 46 33.5 L 46 27.136719 C 46 26.505308 45.866775 25.885098 45.613281 25.3125 A 1.50015 1.50015 0 0 0 45.611328 25.310547 L 42.662109 18.673828 L 42.662109 18.671875 C 41.941923 17.05033 40.324799 16 38.550781 16 L 32 16 L 32 11.5 C 32 9.0324991 29.967501 7 27.5 7 L 6.5 7 z M 6.5 10 L 27.5 10 C 28.346499 10 29 10.653501 29 11.5 L 29 17.5 L 29 35 L 17.785156 35 C 17.125763 32.701587 14.999736 31 12.5 31 C 10.000264 31 7.8742368 32.701587 7.2148438 35 L 6.5 35 C 5.6535009 35 5 34.346499 5 33.5 L 5 11.5 C 5 10.653501 5.6535009 10 6.5 10 z M 17 15 C 13.686 15 11 17.686 11 21 C 11 24.314 13.686 27 17 27 C 20.314 27 23 24.314 23 21 C 23 17.686 20.314 15 17 15 z M 17 17.605469 C 17.829 17.605469 18.5 18.276469 18.5 19.105469 L 18.5 20.197266 L 19.25 20.697266 C 19.939 21.157266 20.125016 22.088344 19.666016 22.777344 C 19.377016 23.211344 18.901016 23.445312 18.416016 23.445312 C 18.130016 23.445312 17.841938 23.363359 17.585938 23.193359 L 16.167969 22.248047 C 15.750969 21.970047 15.5 21.501 15.5 21 L 15.5 19.105469 C 15.5 18.276469 16.171 17.605469 17 17.605469 z M 32 19 L 38.550781 19 C 39.148248 19 39.677843 19.345067 39.919922 19.890625 L 41.746094 24 L 32 24 L 32 19 z M 32 27 L 42.986328 27 C 42.990597 27.045531 43 27.091276 43 27.136719 L 43 33.5 C 43 34.346499 42.346499 35 41.5 35 L 40.785156 35 C 40.125763 32.701587 37.999736 31 35.5 31 C 34.174012 31 32.953662 31.479254 32 32.271484 L 32 27 z M 12.5 34 C 13.848747 34 14.91448 35.032799 14.986328 36.361328 A 1.50015 1.50015 0 0 0 14.986328 36.638672 C 14.91448 37.967201 13.848747 39 12.5 39 C 11.151253 39 10.08552 37.967201 10.013672 36.638672 A 1.50015 1.50015 0 0 0 10.013672 36.361328 C 10.08552 35.032799 11.151253 34 12.5 34 z M 35.5 34 C 36.896406 34 38 35.103594 38 36.5 C 38 37.896406 36.896406 39 35.5 39 C 34.103594 39 33 37.896406 33 36.5 C 33 35.103594 34.103594 34 35.5 34 z"/></svg>