<svg xmlns="http://www.w3.org/2000/svg"  viewBox="0 0 48 48" width="50px" height="50px"><path d="M 20.5 4 C 18.032499 4 16 6.0324991 16 8.5 L 16 10 L 14.5 10 C 11.480226 10 9 12.480226 9 15.5 L 9 19 L 8.5 19 A 1.50015 1.50015 0 1 0 8.5 22 L 9 22 L 9 32 L 8.5 32 A 1.50015 1.50015 0 1 0 8.5 35 L 9 35 L 9 38.5 C 9 41.519774 11.480226 44 14.5 44 L 33.5 44 C 36.519774 44 39 41.519774 39 38.5 L 39 35 L 39.5 35 A 1.50015 1.50015 0 1 0 39.5 32 L 39 32 L 39 22 L 39.5 22 A 1.50015 1.50015 0 1 0 39.5 19 L 39 19 L 39 15.5 C 39 12.480226 36.519774 10 33.5 10 L 32 10 L 32 8.5 C 32 6.0324991 29.967501 4 27.5 4 L 20.5 4 z M 20.5 7 L 27.5 7 C 28.346499 7 29 7.6535009 29 8.5 L 29 10 L 19 10 L 19 8.5 C 19 7.6535009 19.653501 7 20.5 7 z M 14.5 13 L 17.253906 13 A 1.50015 1.50015 0 0 0 17.740234 13 L 30.253906 13 A 1.50015 1.50015 0 0 0 30.740234 13 L 33.5 13 C 34.898226 13 36 14.101774 36 15.5 L 36 19 L 12 19 L 12 15.5 C 12 14.101774 13.101774 13 14.5 13 z M 12 22 L 36 22 L 36 32 L 12 32 L 12 22 z M 12 35 L 36 35 L 36 38.5 C 36 39.898226 34.898226 41 33.5 41 L 14.5 41 C 13.101774 41 12 39.898226 12 38.5 L 12 35 z"/></svg>