<svg xmlns="http://www.w3.org/2000/svg"  viewBox="0 0 48 48" width="50px" height="50px"><path d="M 43.433594 6.2441406 C 43.176828 6.2401875 42.917656 6.2634531 42.660156 6.3144531 C 30.288156 8.7664531 17.743141 8.7683125 5.3691406 6.3203125 C 4.3601406 6.1213125 3.3082813 6.3520781 2.4882812 6.9550781 C 1.6972813 7.5360781 1.2055625 8.38475 1.1015625 9.34375 C 1.0325625 9.96975 1 10.523062 1 11.039062 C 1 16.388063 2.9889688 21.300906 6.2929688 25.128906 C 6.9059687 24.334906 7.6623437 23.653906 8.5273438 23.128906 C 6.8193437 21.138906 5.523625 18.814391 4.765625 16.275391 C 11.321625 17.639391 17.88025 18.322266 24.40625 18.322266 C 30.71325 18.322266 36.989312 17.684156 43.195312 16.410156 C 42.358312 19.133156 40.903375 21.605734 38.984375 23.677734 C 38.923375 23.682734 38.863734 23.689172 38.802734 23.701172 C 34.248734 24.623172 29.675438 25.098953 25.023438 25.126953 C 24.663438 25.988953 24.227297 27.035047 23.779297 28.123047 C 24.050297 28.126047 24.321797 28.128906 24.591797 28.128906 C 27.790797 28.128906 30.954563 27.925531 34.101562 27.519531 C 31.135562 29.184531 27.683953 30.138672 24.001953 30.138672 C 23.653953 30.138672 23.307844 30.130281 22.964844 30.113281 C 22.532844 31.176281 22.124828 32.195109 21.798828 33.037109 C 22.523828 33.104109 23.257953 33.138672 24.001953 33.138672 C 36.684953 33.138672 47.001953 23.223109 47.001953 11.037109 C 46.999953 10.518109 46.983266 10.012672 46.947266 9.5136719 C 46.873266 8.5136719 46.370359 7.5904687 45.568359 6.9804688 C 44.952609 6.5117188 44.203891 6.256 43.433594 6.2441406 z M 4.6484375 9.25 C 4.6944375 9.25 4.7411094 9.2536719 4.7871094 9.2636719 C 17.545109 11.787672 30.482141 11.786812 43.244141 9.2578125 C 43.491141 9.2118125 43.671906 9.3042344 43.753906 9.3652344 C 43.838906 9.4302344 43.941078 9.5484219 43.955078 9.7324219 C 43.985078 10.158422 44 10.591063 44 11.039062 C 44 11.769063 43.957047 12.490219 43.873047 13.199219 C 30.831047 16.072219 17.456281 16.028359 4.1132812 13.068359 C 4.0382813 12.401359 4 11.723063 4 11.039062 C 4 10.634063 4.0269844 10.186969 4.0839844 9.6679688 C 4.0969844 9.5519688 4.157625 9.4510469 4.265625 9.3730469 C 4.374625 9.2920469 4.5094375 9.25 4.6484375 9.25 z M 21.900391 20.050781 C 21.706177 20.061469 21.511312 20.100958 21.324219 20.173828 L 10.664062 24.314453 C 8.6219203 25.045395 7.1130491 26.805264 6.703125 28.935547 C 6.678497 29.06183 6.6552905 29.183504 6.6328125 29.300781 C 6.3231807 30.919071 6.6780375 32.59668 7.6171875 33.951172 L 7.9257812 34.396484 C 7.5977287 34.621571 7.1463119 35.030278 6.9589844 35.091797 C 6.5933652 35.211867 6.5256745 35.157444 6.4355469 35.115234 C 6.2552911 35.030807 6.0351564 34.671875 6.0351562 34.671875 A 1.50015 1.50015 0 1 0 3.234375 35.746094 C 3.234375 35.746094 3.71051 36.909022 4.9335938 37.634766 L 3.3730469 39.195312 A 1.50015 1.50015 0 1 0 5.4941406 41.316406 L 7.140625 39.669922 C 7.7463861 40.909516 8.7675781 41.558594 8.7675781 41.558594 A 1.5002874 1.5002874 0 1 0 10.255859 38.953125 C 10.255859 38.953125 9.8963671 38.702877 9.7617188 38.34375 C 9.6637788 38.082531 9.7788701 37.541779 10.332031 36.730469 C 11.904574 37.743442 13.850093 38.007367 15.625 37.402344 C 17.393526 36.800067 18.796083 35.424207 19.425781 33.662109 C 20.220866 31.440216 22.825811 25.189702 23.845703 22.761719 A 1.50015 1.50015 0 0 0 23.845703 22.757812 C 24.155305 22.016347 23.939683 21.143006 23.439453 20.630859 C 23.189341 20.374786 22.847493 20.188263 22.474609 20.101562 C 22.288168 20.058212 22.094605 20.040094 21.900391 20.050781 z M 20.169922 23.839844 C 18.960646 26.736742 17.310283 30.671799 16.601562 32.652344 A 1.50015 1.50015 0 0 0 16.599609 32.652344 C 16.463933 33.03201 16.247248 33.364449 15.988281 33.658203 L 13.734375 30.861328 A 1.0001 1.0001 0 0 0 12.953125 30.478516 A 1.0001 1.0001 0 0 0 12.177734 32.117188 L 14.224609 34.65625 C 13.420503 34.809134 12.58808 34.662043 11.898438 34.199219 L 11.539062 33.958984 A 1.50015 1.50015 0 0 0 11.537109 33.957031 C 11.211582 33.738887 10.929752 33.462447 10.705078 33.138672 A 1.50015 1.50015 0 0 0 10.705078 33.136719 L 10.082031 32.242188 L 10.082031 32.240234 C 9.6020311 31.547018 9.4218345 30.692294 9.5800781 29.865234 C 9.6033681 29.743721 9.6253525 29.624172 9.6484375 29.505859 A 1.50015 1.50015 0 0 0 9.6484375 29.501953 C 9.8586548 28.41037 10.627924 27.51373 11.675781 27.138672 A 1.50015 1.50015 0 0 0 11.712891 27.125 L 12.972656 26.636719 A 1.0001 1.0001 0 0 0 13.140625 26.902344 L 15.085938 29.171875 A 1.0001 1.0001 0 1 0 16.603516 27.869141 L 14.904297 25.884766 L 20.169922 23.839844 z"/></svg>