<svg xmlns="http://www.w3.org/2000/svg"  viewBox="0 0 48 48" width="50px" height="50px"><path d="M 13.466797 3.984375 A 1.50015 1.50015 0 0 0 12.337891 4.5527344 L 11.126953 6.0351562 A 1.50015 1.50015 0 0 0 11.126953 6.0371094 C 9.6493185 7.8506969 9.5478568 10.440466 10.880859 12.363281 C 11.390924 13.09937 11.422503 14.055948 10.960938 14.824219 L 9.2148438 17.726562 A 1.50015 1.50015 0 1 0 11.785156 19.273438 L 13.53125 16.369141 C 14.595683 14.597411 14.525591 12.354208 13.347656 10.654297 C 12.768658 9.819115 12.81076 8.7200531 13.453125 7.9316406 L 14.662109 6.4472656 A 1.50015 1.50015 0 0 0 13.466797 3.984375 z M 19.466797 3.984375 A 1.50015 1.50015 0 0 0 18.337891 4.5527344 L 17.126953 6.0351562 A 1.50015 1.50015 0 0 0 17.126953 6.0371094 C 15.649318 7.8506969 15.547856 10.440466 16.880859 12.363281 C 17.390924 13.09937 17.422504 14.055948 16.960938 14.824219 L 15.214844 17.726562 A 1.50015 1.50015 0 1 0 17.785156 19.273438 L 19.53125 16.369141 C 20.595683 14.597411 20.525591 12.354208 19.347656 10.654297 C 18.768658 9.819115 18.81076 8.7200531 19.453125 7.9316406 L 20.662109 6.4472656 A 1.50015 1.50015 0 0 0 19.466797 3.984375 z M 25.466797 3.984375 A 1.50015 1.50015 0 0 0 24.337891 4.5527344 L 23.126953 6.0351562 A 1.50015 1.50015 0 0 0 23.126953 6.0371094 C 21.649318 7.8506969 21.547856 10.440466 22.880859 12.363281 C 23.390924 13.09937 23.422504 14.055948 22.960938 14.824219 L 21.214844 17.726562 A 1.50015 1.50015 0 1 0 23.785156 19.273438 L 25.53125 16.369141 C 26.595683 14.597411 26.525591 12.354208 25.347656 10.654297 C 24.768658 9.819115 24.81076 8.7200531 25.453125 7.9316406 L 26.662109 6.4472656 A 1.50015 1.50015 0 0 0 25.466797 3.984375 z M 41.970703 11.486328 A 1.50015 1.50015 0 0 0 40.939453 11.939453 L 28.878906 24 L 7.5 24 C 5.5850452 24 4 25.585045 4 27.5 C 4 36.568182 11.431818 44 20.5 44 L 29.5 44 C 34.04736 44 37.792135 42.091441 40.269531 39.054688 C 42.746927 36.017933 44 31.926645 44 27.5 C 44 25.585045 42.414955 24 40.5 24 L 33.121094 24 L 43.060547 14.060547 A 1.50015 1.50015 0 0 0 41.970703 11.486328 z M 7.5 27 L 29.279297 27 A 1.50015 1.50015 0 0 0 29.691406 27 L 40.5 27 C 40.795045 27 41 27.204955 41 27.5 C 41 31.357355 39.894963 34.765957 37.943359 37.158203 C 35.991755 39.550449 33.23664 41 29.5 41 L 20.5 41 C 13.068182 41 7 34.931818 7 27.5 C 7 27.204955 7.2049548 27 7.5 27 z"/></svg>