<svg xmlns="http://www.w3.org/2000/svg"  viewBox="0 0 48 48" width="50px" height="50px"><path d="M 40.277344 4.9785156 C 40.016933 4.9652214 39.643902 4.9585419 39.191406 4.984375 C 38.286414 5.036042 37.066896 5.2185483 35.804688 5.7382812 C 33.28027 6.7777471 30.558921 9.3915853 30.009766 14.333984 C 29.568348 18.306741 27.250825 20.838985 23.900391 22.6875 C 20.549956 24.536015 16.207592 25.525076 12.314453 26.011719 C 7.8946434 26.564195 5.1896978 28.886352 3.7519531 31.042969 C 2.3142084 33.199586 2.015625 35.287109 2.015625 35.287109 A 1.50015 1.50015 0 0 0 3.1738281 36.964844 C 3.1738281 36.964844 14.592101 39.571285 24.699219 37.339844 C 29.752778 36.224123 34.626492 33.818378 37.292969 29.060547 C 39.910504 24.390042 40.192243 17.703582 37.050781 8.4882812 C 38.732917 7.8328986 40.314453 7.9882814 40.314453 7.9882812 A 1.50015 1.50015 0 1 0 40.685547 5.0117188 C 40.685547 5.0117188 40.537755 4.9918099 40.277344 4.9785156 z M 34.46875 10.375 C 34.763234 11.296096 35.006776 12.171654 35.226562 13.025391 A 1.5 1.5 0 0 0 35.5 16 A 1.5 1.5 0 0 0 35.873047 15.951172 C 36.782867 21.141902 36.179563 24.912484 34.675781 27.595703 C 32.561008 31.369122 28.622222 33.400877 24.050781 34.410156 C 19.187062 35.483964 14.226298 35.355218 10.564453 34.996094 A 1.5 1.5 0 0 0 10.5 32 A 1.5 1.5 0 0 0 10.160156 34.960938 C 7.9825531 34.731989 6.309948 34.428292 5.4824219 34.269531 C 5.6731872 33.790349 5.8528254 33.299863 6.2480469 32.707031 C 7.3103022 31.113648 9.1053566 29.435805 12.685547 28.988281 C 16.792408 28.474924 21.450044 27.463985 25.349609 25.3125 C 29.249175 23.161015 32.431652 19.693259 32.990234 14.666016 C 33.213035 12.660813 33.764002 11.316082 34.46875 10.375 z M 34.5 18 A 1.5 1.5 0 0 0 34.5 21 A 1.5 1.5 0 0 0 34.5 18 z M 32 23 A 2 2 0 0 0 32 27 A 2 2 0 0 0 32 23 z M 27.5 27 A 2.5 2.5 0 0 0 27.5 32 A 2.5 2.5 0 0 0 27.5 27 z M 21 29 A 2 2 0 0 0 21 33 A 2 2 0 0 0 21 29 z M 15.5 31 A 1.5 1.5 0 0 0 15.5 34 A 1.5 1.5 0 0 0 15.5 31 z"/></svg>