<svg xmlns="http://www.w3.org/2000/svg"  viewBox="0 0 48 48" width="50px" height="50px"><path d="M 5.484375 3.984375 A 1.50015 1.50015 0 0 0 4.4394531 6.5605469 L 14.539062 16.660156 C 12.955452 18.69051 12 21.230908 12 24 C 12 25.102777 12.161587 26.166618 12.441406 27.181641 L 6.3964844 28.390625 A 1.50015 1.50015 0 0 0 6.3945312 28.390625 C 3.8983725 28.890881 2.7571987 31.984792 4.3300781 33.986328 L 10.796875 42.216797 A 1.50015 1.50015 0 0 0 10.798828 42.216797 C 12.537293 44.427083 16.263818 43.631703 16.945312 40.902344 L 18.507812 34.65625 C 20.155678 35.509066 22.019988 36 24 36 C 26.769092 36 29.30949 35.044548 31.339844 33.460938 L 41.439453 43.560547 A 1.50015 1.50015 0 1 0 43.560547 41.439453 L 6.5605469 4.4394531 A 1.50015 1.50015 0 0 0 5.484375 3.984375 z M 34.857422 5.0175781 C 34.526554 5.0000038 34.197403 5.0286157 33.882812 5.1035156 C 32.624451 5.4031154 31.484623 6.467264 31.240234 7.9335938 L 30.263672 13.785156 C 28.437564 12.661254 26.297132 12 24 12 C 22.334 12 20.746734 12.342984 19.302734 12.958984 L 21.662109 15.318359 C 22.408109 15.116359 23.19 15 24 15 C 28.962 15 33 19.038 33 24 C 33 24.81 32.883641 25.591891 32.681641 26.337891 L 35.041016 28.697266 C 35.657016 27.253266 36 25.666 36 24 C 36 22.925958 35.844027 21.889714 35.578125 20.898438 L 41.164062 20.341797 C 43.786966 20.079677 45.196595 16.913967 43.638672 14.789062 L 37.515625 6.4394531 C 36.856161 5.5406423 35.850025 5.070301 34.857422 5.0175781 z M 34.847656 8.0136719 C 34.931557 8.0389065 35.011846 8.098598 35.095703 8.2128906 L 41.21875 16.5625 C 41.490827 16.933595 41.324331 17.309589 40.865234 17.355469 L 34.378906 18.005859 C 33.960662 17.284521 33.470003 16.612597 32.916016 15.996094 A 1.5007834 1.5007834 0 0 0 32.980469 15.746094 L 34.199219 8.4257812 C 34.245829 8.146111 34.376034 8.0691346 34.576172 8.0214844 C 34.676241 7.9976594 34.763755 7.9884372 34.847656 8.0136719 z M 16.677734 18.798828 L 29.201172 31.322266 C 27.73148 32.372709 25.94101 33 24 33 C 19.038 33 15 28.962 15 24 C 15 22.05899 15.627291 20.26852 16.677734 18.798828 z M 13.626953 30.003906 C 14.234395 31.049263 14.993905 31.991535 15.876953 32.806641 L 14.035156 40.175781 C 13.910651 40.674422 13.473785 40.766996 13.15625 40.363281 L 6.6894531 32.132812 C 6.4203326 31.790349 6.5565337 31.417775 6.984375 31.332031 L 13.626953 30.003906 z"/></svg>