<svg xmlns="http://www.w3.org/2000/svg"  viewBox="0 0 48 48" width="50px" height="50px"><path d="M 20.5 3 A 1.50015 1.50015 0 1 0 20.5 6 C 20.5 6 21.275499 5.99793 22.140625 6.6035156 C 22.82313 7.081269 23.452267 8.1984616 23.744141 10.064453 C 23.392811 9.768812 23.089202 9.424318 22.654297 9.21875 C 21.150677 8.5080297 19.327409 8.4972494 17.136719 9.0449219 C 13.978802 9.834401 11.671285 12.357578 10.197266 15.509766 C 8.723246 18.661954 8 22.527101 8 26.5 C 8 31.763227 9.5368354 36.341204 12.126953 39.652344 C 14.717071 42.963483 18.418426 45 22.5 45 C 30.65493 45 38 37.257778 38 27.5 C 38 18.647059 34.726861 13.998478 31.294922 11.853516 C 29.70371 10.859008 28.133085 10.420698 26.871094 10.203125 C 26.562722 7.1470357 25.291567 5.1490189 23.859375 4.1464844 C 22.224501 3.0020725 20.5 3 20.5 3 z M 20.044922 11.654297 C 20.612195 11.665157 21.038482 11.771547 21.373047 11.929688 C 22.042177 12.245966 22.57063 12.864056 23.134766 14.021484 C 25.073777 17.999535 27.927864 25.334089 23.134766 35.878906 A 1.50015 1.50015 0 1 0 25.865234 37.121094 C 30.95123 25.931903 28.069673 17.47176 25.982422 13.080078 C 26.95504 13.192896 28.242851 13.482592 29.705078 14.396484 C 32.273139 16.001522 35 19.352941 35 27.5 C 35 35.742222 28.70507 42 22.5 42 C 19.401574 42 16.603163 40.506345 14.488281 37.802734 C 12.373399 35.099124 11 31.177773 11 26.5 C 11 22.898899 11.684083 19.411562 12.914062 16.78125 C 14.144044 14.150938 15.837198 12.461599 17.863281 11.955078 C 18.767936 11.728914 19.477649 11.643435 20.044922 11.654297 z"/></svg>