<svg xmlns="http://www.w3.org/2000/svg"  viewBox="0 0 48 48" width="50px" height="50px"><path d="M 30.912109 6.4804688 C 29.503859 6.4750938 28.098297 7.0057187 27.029297 8.0742188 L 25.849609 9.2539062 C 26.569609 9.9859062 27.136813 10.863891 27.507812 11.837891 L 29.150391 10.195312 C 30.118391 9.2293125 31.704547 9.2436094 32.685547 10.224609 L 39.728516 17.265625 C 40.710516 18.247625 40.723812 19.835734 39.757812 20.802734 L 32.951172 27.607422 C 33.458172 28.549422 33.869281 29.5825 34.113281 30.6875 L 41.878906 22.923828 C 44.014906 20.786828 44.001609 17.295531 41.849609 15.144531 L 34.806641 8.1035156 C 33.731641 7.0275156 32.320359 6.4858437 30.912109 6.4804688 z M 10.519531 9 C 7.4755313 9 5 11.457516 5 14.478516 L 5 34.519531 C 5 37.541531 7.4755313 40 10.519531 40 L 19.5625 40 C 18.8985 39.116 18.277875 38.107 17.796875 37 L 10.519531 37 C 9.1295313 37 8 35.888484 8 34.521484 L 8 14.478516 C 8 13.111516 9.1295313 12 10.519531 12 L 20.480469 12 C 21.870469 12 23.001953 13.111516 23.001953 14.478516 L 23.001953 22.09375 C 23.278953 21.87275 23.488937 21.717438 23.585938 21.648438 L 24.746094 20.822266 C 25.117094 20.559266 25.578953 20.493469 26.001953 20.605469 L 26.001953 14.478516 C 26.000953 11.457516 23.524469 9 20.480469 9 L 10.519531 9 z M 25.613281 23 C 25.308656 23 25.003641 23.092844 24.744141 23.277344 C 24.504141 23.448344 18.875 27.514219 18.875 32.824219 C 18.875 37.139219 22.592281 40.633813 24.113281 41.882812 L 24.113281 43.951172 C 24.113281 44.779172 24.785281 45.451172 25.613281 45.451172 C 26.441281 45.451172 27.113281 44.779172 27.113281 43.951172 L 27.113281 41.882812 C 28.636281 40.632812 32.353516 37.138219 32.353516 32.824219 C 32.353516 27.515219 26.723422 23.448344 26.482422 23.277344 C 26.222422 23.092844 25.917906 23 25.613281 23 z M 25.613281 26.429688 C 26.950281 27.605687 29.353516 30.099219 29.353516 32.824219 C 29.353516 35.550219 26.949281 38.04375 25.613281 39.21875 C 24.276281 38.04275 21.875 35.549219 21.875 32.824219 C 21.875 30.099219 24.276281 27.605687 25.613281 26.429688 z"/></svg>