<svg xmlns="http://www.w3.org/2000/svg"  viewBox="0 0 48 48" width="50px" height="50px"><path d="M 9.921875 -0.021484375 A 1.50015 1.50015 0 0 0 8.4453125 1.5 L 8.4453125 3.0957031 C 7.605454 3.266696 6.8186214 3.5836234 6.1035156 4.0097656 L 5.0683594 2.9726562 A 1.50015 1.50015 0 0 0 3.9921875 2.5195312 A 1.50015 1.50015 0 0 0 2.9472656 5.09375 L 3.8769531 6.0253906 C 3.2326707 6.8958684 2.7639083 7.9035661 2.5410156 9 L 1.5 9 A 1.50015 1.50015 0 1 0 1.5 12 L 4.5 12 A 1.50015 1.50015 0 0 0 4.5507812 11.998047 L 15.394531 11.998047 A 1.50015 1.50015 0 0 0 15.5 12 L 18.5 12 A 1.50015 1.50015 0 1 0 18.5 9 L 17.349609 9 C 17.17823 8.1569649 16.858047 7.3677019 16.429688 6.6503906 L 18.035156 5.1191406 A 1.50015 1.50015 0 0 0 17.005859 2.5195312 A 1.50015 1.50015 0 0 0 15.964844 2.9472656 L 14.414062 4.4257812 C 13.545148 3.7836201 12.539066 3.3183884 11.445312 3.0957031 L 11.445312 1.5 A 1.50015 1.50015 0 0 0 9.921875 -0.021484375 z M 9.9453125 5.9433594 C 11.944754 5.9433594 13.58158 7.2217165 14.201172 8.9980469 L 5.6894531 8.9980469 C 6.3090454 7.2217165 7.9458712 5.9433594 9.9453125 5.9433594 z M 24 11.957031 C 22.777667 11.957031 21.671232 12.469962 20.972656 13.255859 C 20.274081 14.041757 19.957031 15.031167 19.957031 16 C 19.957031 16.473853 20.036083 16.952677 20.195312 17.410156 C 11.737923 19.093276 4.8125 26.220959 4.8125 34.923828 L 4.8125 36.011719 L 4.5878906 36.011719 A 1.50015 1.50015 0 1 0 4.5878906 39.011719 L 43.412109 39.011719 A 1.50015 1.50015 0 1 0 43.412109 36.011719 L 43.1875 36.011719 L 43.1875 34.923828 C 43.1875 26.220959 36.262077 19.093276 27.804688 17.410156 C 27.963917 16.952677 28.042969 16.473853 28.042969 16 C 28.042969 15.031167 27.725919 14.041757 27.027344 13.255859 C 26.328768 12.469962 25.222333 11.957031 24 11.957031 z M 24 14.957031 C 24.472333 14.957031 24.636399 15.080695 24.785156 15.248047 C 24.933914 15.415399 25.042969 15.697833 25.042969 16 C 25.042969 16.302167 24.933914 16.584601 24.785156 16.751953 C 24.650403 16.903551 24.490925 17.014707 24.113281 17.035156 C 24.075274 17.034931 24.038035 17.029297 24 17.029297 C 23.961965 17.029297 23.924726 17.034931 23.886719 17.035156 C 23.509075 17.014707 23.349597 16.903551 23.214844 16.751953 C 23.066086 16.584601 22.957031 16.302167 22.957031 16 C 22.957031 15.697833 23.066086 15.415399 23.214844 15.248047 C 23.363601 15.080695 23.527667 14.957031 24 14.957031 z M 23.910156 20.033203 C 23.940848 20.033852 23.969156 20.042969 24 20.042969 C 24.030844 20.042969 24.059152 20.033852 24.089844 20.033203 C 32.555887 20.081001 40.1875 26.826978 40.1875 34.923828 L 40.1875 36.011719 L 7.8125 36.011719 L 7.8125 34.923828 C 7.8125 26.826978 15.444113 20.081001 23.910156 20.033203 z"/></svg>