<svg xmlns="http://www.w3.org/2000/svg"  viewBox="0 0 48 48" width="50px" height="50px"><path d="M 28.5 3 C 26 3 24.337089 4.4723072 23.658203 5.8300781 C 23.440355 6.2657753 23.31242 6.6780474 23.214844 7.0625 C 22.005962 7.2371455 20.962342 7.8006659 20.253906 8.5976562 C 19.395664 9.5631791 19 10.791667 19 12 C 19 12.765752 19.178837 13.532303 19.513672 14.242188 C 18.86626 14.084612 18.19185 14 17.5 14 C 12.823343 14 9 17.823343 9 22.5 C 9 23.664174 9.2379838 24.774506 9.6660156 25.787109 L 8.5917969 25.464844 C 5.3475198 24.489184 2 26.976713 2 30.365234 C 2 32.222082 3.0132472 33.935682 4.6367188 34.835938 C 15.982113 42.893372 31.154984 43.070144 42.675781 35.246094 L 43.400391 34.755859 L 43.251953 34.84375 C 44.938952 33.963516 46 32.21149 46 30.308594 L 46 30.289062 C 46 27.770799 44.150681 25.744922 41.863281 25.277344 C 41.103291 25.12199 40.295159 25.139282 39.490234 25.367188 C 39.813403 24.468389 40 23.505291 40 22.5 C 40 17.823343 36.176657 14 31.5 14 C 30.375129 14 29.29621 14.224656 28.308594 14.625 C 28.778887 13.817385 29 12.903402 29 12 C 29 10.791667 28.604336 9.5631791 27.746094 8.5976562 C 27.337883 8.1384192 26.816265 7.7586684 26.21875 7.4824219 C 26.25636 7.3784024 26.289409 7.2746978 26.341797 7.1699219 C 26.662911 6.5276928 27 6 28.5 6 A 1.50015 1.50015 0 1 0 28.5 3 z M 24 10 C 24.791666 10 25.195482 10.242867 25.503906 10.589844 C 25.81233 10.936821 26 11.458333 26 12 C 26 12.541667 25.81233 13.063179 25.503906 13.410156 C 25.195482 13.757133 24.791666 14 24 14 C 23.208334 14 22.804518 13.757133 22.496094 13.410156 C 22.18767 13.063179 22 12.541667 22 12 C 22 11.458333 22.18767 10.936821 22.496094 10.589844 C 22.804518 10.242867 23.208334 10 24 10 z M 17.5 17 C 17.673873 17 17.842611 17.015688 18.011719 17.03125 C 16.760239 18.5124 16 20.419849 16 22.5 C 16 24.580151 16.760239 26.4876 18.011719 27.96875 C 17.843032 27.98429 17.673336 28 17.5 28 C 17.392952 28 17.289063 27.990298 17.183594 27.984375 C 16.604608 27.849052 16.026744 27.703249 15.455078 27.53125 L 14.958984 27.380859 C 13.196939 26.468131 12 24.635303 12 22.5 C 12 19.444657 14.444657 17 17.5 17 z M 24.5 17 C 26.492943 17 28.221238 18.043943 29.185547 19.615234 C 28.472695 19.559168 27.774666 19.635435 27.136719 19.794922 C 25.90845 20.101989 24.830078 20.658203 23.830078 21.158203 C 21.99409 22.076197 21.359903 21.664554 20.779297 21.183594 C 20.198691 20.702635 19.910156 19.990234 19.910156 19.990234 A 1.50015 1.50015 0 0 0 19.767578 19.693359 C 20.721892 18.078563 22.474247 17 24.5 17 z M 31.5 17 C 34.555343 17 37 19.444657 37 22.5 C 37 24.026028 36.386344 25.389425 35.390625 26.386719 A 1.50015 1.50015 0 0 0 35.220703 26.583984 L 31.476562 27.650391 C 31.380167 27.677857 31.282155 27.696228 31.185547 27.722656 C 32.317574 26.278455 33 24.467272 33 22.5 C 33 20.419849 32.239761 18.5124 30.988281 17.03125 C 31.157414 17.015706 31.326206 17 31.5 17 z M 28.894531 22.580078 C 29.209485 22.598235 29.508964 22.681239 29.830078 22.841797 A 1.50015 1.50015 0 0 0 29.980469 22.908203 C 29.773048 25.769159 27.417242 28 24.5 28 C 21.850597 28 19.664126 26.160309 19.128906 23.679688 C 20.470387 24.630186 22.695532 25.078992 25.169922 23.841797 C 26.169922 23.341797 27.09155 22.898011 27.863281 22.705078 C 28.249147 22.608612 28.579577 22.561921 28.894531 22.580078 z M 40.820312 28.167969 C 42.001299 28.111357 43 29.025287 43 30.289062 L 43 30.308594 C 43 31.101698 42.564283 31.817828 41.863281 32.183594 A 1.50015 1.50015 0 0 0 41.716797 32.273438 L 40.992188 32.763672 C 30.457476 39.918054 16.590151 39.738596 6.2441406 32.3125 A 1.50015 1.50015 0 0 0 6.09375 32.216797 C 5.4170725 31.843539 5 31.138575 5 30.365234 C 5 28.905756 6.3288395 27.91755 7.7265625 28.337891 L 13.962891 30.214844 C 14.812272 30.607225 15.732909 30.867601 16.703125 30.958984 C 21.843963 32.124678 27.207288 31.985927 32.298828 30.535156 L 40.304688 28.253906 C 40.478425 28.204417 40.6516 28.176056 40.820312 28.167969 z"/></svg>