<svg xmlns="http://www.w3.org/2000/svg"  viewBox="0 0 48 48" width="50px" height="50px"><path d="M 24 7.8574219 C 18.386023 7.8569045 13.295141 8.8991628 9.4746094 10.679688 C 5.6540775 12.460211 2.8529063 15.11522 2.8515625 18.513672 C 2.8509223 20.13726 3.502261 21.587077 4.5859375 22.857422 C 5.0169465 24.431278 5.7021524 26.529923 6.3886719 28.529297 C 6.8018755 29.732684 7.2084414 30.875768 7.5410156 31.783203 C 7.8735899 32.690638 8.0946191 33.290108 8.28125 33.691406 C 9.0318679 35.305916 10.678265 36.826563 13.267578 38.050781 C 15.856891 39.275 19.405418 40.142578 24 40.142578 C 33.161017 40.142578 38.280864 37.150944 39.742188 33.634766 C 39.998928 33.018161 40.701367 31.083266 41.509766 28.748047 C 42.219712 26.697225 42.94956 24.496162 43.402344 22.871094 C 44.492654 21.598538 45.147794 20.145891 45.148438 18.517578 C 45.149738 15.119201 42.350383 12.462801 38.53125 10.681641 C 34.712117 8.9004794 29.621762 7.8579393 24.007812 7.8574219 L 24 7.8574219 z M 24 10.857422 L 24.007812 10.857422 C 29.243865 10.857904 33.974305 11.866301 37.263672 13.400391 C 40.553039 14.93448 42.149093 16.856002 42.148438 18.515625 C 42.147781 20.175173 40.550734 22.099087 37.259766 23.632812 C 33.968809 25.166538 29.236023 26.174311 24 26.173828 L 23.992188 26.173828 C 18.756124 26.173346 14.025695 25.164949 10.736328 23.630859 C 9.2289056 22.92783 8.0945484 22.141602 7.2890625 21.337891 C 7.283962 21.316623 7.2684949 21.270575 7.2636719 21.25 L 7.2109375 21.261719 C 6.3090809 20.335587 5.8512165 19.388851 5.8515625 18.513672 C 5.8522187 16.854124 7.4492666 14.932162 10.740234 13.398438 C 14.031203 11.864712 18.763977 10.856939 24 10.857422 z M 28.4375 12.287109 C 27.6135 12.279109 26.88125 12.459938 26.15625 12.835938 C 25.51625 13.168938 24.828391 13.212844 24.150391 13.464844 C 23.997391 13.521844 23.823453 13.617297 23.814453 13.779297 C 23.808453 13.889297 23.882703 13.987687 23.970703 14.054688 C 24.606703 14.539687 25.432875 14.143562 26.171875 15.101562 C 26.469875 15.488562 26.886969 15.770953 26.917969 16.126953 C 26.955969 16.548953 27.504203 16.743141 27.908203 16.619141 C 28.312203 16.494141 28.621656 16.1755 28.972656 15.9375 C 29.379656 15.6605 29.851406 15.493078 30.316406 15.330078 C 30.598406 15.231078 30.881734 15.130031 31.177734 15.082031 C 31.568734 15.018031 31.972328 15.047703 32.361328 14.970703 C 32.490328 14.944703 32.644625 14.871234 32.640625 14.740234 C 32.638625 14.674234 32.595734 14.619312 32.552734 14.570312 C 32.270734 14.251312 31.923797 14.070312 31.591797 13.820312 C 31.510797 13.759313 31.444766 13.697812 31.384766 13.632812 C 31.225766 13.459812 31.116453 13.272891 30.939453 13.087891 C 30.337453 12.452891 29.2665 12.296109 28.4375 12.287109 z M 17.349609 12.662109 C 17.088609 12.657094 16.819172 12.726078 16.576172 12.798828 C 16.227172 12.903828 15.884875 13.028063 15.546875 13.164062 C 14.920875 13.415062 14.314594 13.717078 13.683594 13.955078 C 13.089594 14.179078 12.489937 14.417391 11.960938 14.775391 C 11.480937 15.100391 11.116703 15.560562 10.720703 15.976562 C 10.625703 16.075562 10.526672 16.186266 10.513672 16.322266 C 10.496672 16.497266 10.638734 16.642781 10.802734 16.675781 C 10.902734 16.695781 11.005422 16.691266 11.107422 16.697266 C 11.671422 16.733266 12.120844 17.115766 12.589844 17.384766 C 13.055844 17.650766 13.570703 17.770703 14.095703 17.845703 L 15.796875 18.087891 C 16.277875 18.156891 16.772141 18.224469 17.244141 18.105469 C 17.621141 18.010469 17.960469 17.797531 18.230469 17.519531 C 18.268469 17.480531 18.304844 17.440438 18.339844 17.398438 C 18.635844 17.049437 18.899469 16.630656 19.105469 16.222656 C 19.339469 15.757656 19.543641 15.156344 19.306641 14.652344 C 19.172641 14.366344 18.915406 14.168078 18.691406 13.955078 C 18.451406 13.726078 18.30325 13.468828 18.15625 13.173828 C 18.04725 12.953828 17.852422 12.753359 17.607422 12.693359 C 17.523422 12.672859 17.436609 12.663781 17.349609 12.662109 z M 36.892578 17.775391 C 36.246328 17.767766 35.491656 17.994828 35.097656 18.173828 C 34.350656 18.513828 31.881672 18.468344 31.388672 18.652344 C 31.237672 18.708344 31.064688 18.803844 31.054688 18.964844 C 31.048687 19.074844 31.123938 19.171281 31.210938 19.238281 C 32.408937 19.552281 33.937672 20.765781 34.138672 21.300781 C 34.285672 21.694781 34.720047 21.915016 35.123047 21.791016 C 36.164047 21.471016 37.585547 20.265375 37.935547 19.234375 C 37.991547 19.070375 38.021297 18.922109 38.029297 18.787109 C 38.075297 18.024609 37.538828 17.783016 36.892578 17.775391 z M 13.126953 19.992188 C 13.001953 19.979188 12.854078 19.984031 12.830078 20.082031 C 12.813078 20.148031 12.715469 23.334266 16.355469 23.197266 C 17.060469 23.161266 17.855125 22.95775 18.203125 22.46875 C 18.263125 22.38375 18.302266 22.298797 18.322266 22.216797 C 18.487266 21.559797 17.670016 21.228344 17.041016 21.152344 C 16.581016 21.097344 16.338328 21.018156 15.861328 20.785156 C 15.379328 20.550156 14.854375 20.273891 14.359375 20.212891 C 13.951375 20.161891 13.532953 20.035187 13.126953 19.992188 z M 26.484375 20.962891 C 26.346641 20.97775 26.205422 21.012844 26.076172 21.058594 C 25.698172 21.193594 25.494125 21.214734 25.078125 21.177734 C 24.660125 21.140734 24.200922 21.07775 23.794922 21.21875 C 23.460922 21.33575 23.106437 21.382859 22.773438 21.505859 C 22.670437 21.544859 22.555828 21.607797 22.548828 21.716797 C 22.544828 21.789797 22.594344 21.856391 22.652344 21.900391 C 22.771344 21.990391 22.932922 21.952437 23.044922 22.023438 C 23.180922 22.109438 23.281906 22.302734 23.378906 22.427734 C 23.417906 22.478734 23.458047 22.529078 23.498047 22.580078 C 23.633047 22.755078 23.770453 22.931266 23.939453 23.072266 C 24.510453 23.549266 25.147828 23.768625 25.798828 23.390625 C 26.360828 23.063625 26.9725 22.531437 27.1875 21.898438 C 27.2255 21.788437 27.245953 21.688656 27.251953 21.597656 C 27.284953 21.053156 26.897578 20.918312 26.484375 20.962891 z M 8.6972656 25.953125 C 8.9534785 26.086037 9.2019791 26.225193 9.46875 26.349609 C 13.287883 28.13077 18.378239 29.173311 23.992188 29.173828 L 24 29.173828 C 29.613977 29.174346 34.704859 28.132087 38.525391 26.351562 C 38.786076 26.230073 39.028669 26.094435 39.279297 25.964844 C 39.075659 26.573424 38.881567 27.173127 38.675781 27.767578 C 37.87818 30.071609 37.076915 32.232027 36.972656 32.482422 C 36.35598 33.966243 32.460983 37.142578 24 37.142578 C 19.783582 37.142578 16.675968 36.344625 14.550781 35.339844 C 12.425594 34.335062 11.298335 33.063272 11.001953 32.425781 C 10.965584 32.34758 10.681316 31.633752 10.357422 30.75 C 10.033527 29.866248 9.6332339 28.741004 9.2265625 27.556641 C 9.0433024 27.022926 8.8774033 26.496728 8.6972656 25.953125 z"/></svg>