<svg xmlns="http://www.w3.org/2000/svg"  viewBox="0 0 48 48" width="50px" height="50px"><path d="M 28.5 5 C 26.221919 5 24.282435 6.0570639 22.755859 7.5234375 C 21.360082 6.6320576 19.774913 6 18 6 C 13.047281 6 9 10.047281 9 15 C 9 16.161204 9.2884349 17.23871 9.6914062 18.257812 A 1.50015 1.50015 0 0 0 9.4882812 18.953125 C 8.6316069 20.116491 8 21.452976 8 23 C 8 25.928438 9.8580943 28.370604 12.429688 29.408203 C 12.689863 30.434751 13.053369 31.402609 13.603516 32.275391 L 4.4394531 41.439453 A 1.50015 1.50015 0 1 0 6.5605469 43.560547 L 15.523438 34.597656 C 17.26977 36.091308 19.530258 37 22 37 C 22.386708 37 22.740644 36.941769 23.103516 36.898438 C 24.581999 38.145131 26.419141 39 28.5 39 C 33.176657 39 37 35.176657 37 30.5 C 37 29.385674 36.723203 28.352103 36.330078 27.375 C 39.603211 26.190019 42 23.167018 42 19.5 C 42 18.476991 41.761405 17.522521 41.427734 16.613281 C 42.97441 15.426054 44 13.592798 44 11.5 C 44 7.9280619 41.071938 5 37.5 5 C 35.951809 5 34.640764 5.6784249 33.525391 6.5878906 A 1.50015 1.50015 0 0 0 33.017578 6.4863281 C 31.687947 5.6270098 30.194179 5 28.5 5 z M 28.5 8 C 29.942459 8 31.213423 8.5815493 32.193359 9.4824219 C 32.333495 9.6644631 32.439422 9.7355941 32.595703 10.152344 C 32.850455 10.831683 32.98527 11.567993 32.251953 12.667969 A 1.50015 1.50015 0 1 0 34.748047 14.332031 C 36.01473 12.432007 35.899545 10.418317 35.404297 9.0976562 C 35.362919 8.9873155 35.336625 9.0213677 35.291016 8.9179688 C 35.900169 8.3888746 36.626303 8 37.5 8 C 39.450062 8 41 9.5499381 41 11.5 C 41 12.922856 40.160883 14.117471 38.953125 14.671875 A 1.50015 1.50015 0 0 0 38.275391 16.779297 C 38.736323 17.585929 39 18.505829 39 19.5 C 39 22.364724 36.839485 24.689937 34.0625 24.970703 A 1.50015 1.50015 0 0 0 32.988281 27.330078 C 33.625816 28.230359 34 29.313272 34 30.5 C 34 33.555343 31.555343 36 28.5 36 C 26.940696 36 25.552818 35.357428 24.548828 34.320312 A 1.50015 1.50015 0 0 0 23.212891 33.886719 C 22.801577 33.958849 22.39962 34 22 34 C 18.48904 34 15.616016 31.437008 15.09375 28.085938 A 1.50015 1.50015 0 0 0 13.990234 26.865234 C 12.273086 26.417788 11 24.873386 11 23 C 11 21.744093 11.56754 20.643878 12.462891 19.908203 A 1.50015 1.50015 0 0 0 12.679688 19.6875 C 12.962468 19.464793 13.100907 19.275452 13.761719 19.035156 C 14.800588 18.657386 15.991609 18.493219 17.599609 19.699219 A 1.50015 1.50015 0 1 0 19.400391 17.300781 C 17.008391 15.506781 14.449412 15.592614 12.738281 16.214844 C 12.587561 16.269654 12.519624 16.347035 12.378906 16.408203 C 12.256603 15.934207 12 15.514186 12 15 C 12 11.668719 14.668719 9 18 9 C 19.502213 9 20.85658 9.5488518 21.912109 10.458984 A 1.50015 1.50015 0 0 0 24.09375 10.220703 C 25.09939 8.87302 26.686334 8 28.5 8 z M 19.548828 24.984375 A 1.50015 1.50015 0 0 0 18.300781 27.400391 C 18.300781 27.400391 19.281936 28.692726 21.080078 29.591797 C 22.878221 30.490868 25.618853 31.042414 28.974609 29.923828 A 1.5008464 1.5008464 0 1 0 28.025391 27.076172 C 25.381147 27.957586 23.621779 27.509132 22.419922 26.908203 C 21.218064 26.307274 20.699219 25.599609 20.699219 25.599609 A 1.50015 1.50015 0 0 0 19.548828 24.984375 z"/></svg>