<svg xmlns="http://www.w3.org/2000/svg"  viewBox="0 0 48 48" width="50px" height="50px"><path d="M 24.25 2 C 19.24687 2 15.021484 5.7390181 15.021484 10.5 C 15.021484 10.906182 15.1482 11.273467 15.224609 11.658203 A 1.50015 1.50015 0 0 0 14.871094 11.927734 C 11.629026 13.292089 9.5 16.125709 9.5 19.5 C 9.5 22.315161 10.982692 24.765871 13.224609 26.304688 L 22.658203 45.169922 A 1.50015 1.50015 0 0 0 25.355469 45.140625 L 33.855469 27.140625 A 1.50015 1.50015 0 0 0 33.873047 27.099609 C 36.881101 25.716193 39 22.867642 39 19.5 C 39 16.588208 37.360274 14.14177 34.974609 12.644531 A 1.5002872 1.5002872 0 0 0 34.363281 12.158203 C 33.99217 11.997591 33.622101 11.863319 33.255859 11.746094 C 33.328922 11.328564 33.478516 10.937394 33.478516 10.5 C 33.478516 5.7390181 29.25313 2 24.25 2 z M 24.25 5 C 27.78487 5 30.478516 7.5289819 30.478516 10.5 C 30.478516 10.717614 30.44865 10.927733 30.419922 11.138672 C 29.401495 11.012175 28.667969 11 28.667969 11 A 1.50015 1.50015 0 1 0 28.667969 14 C 28.667969 14 30.009242 14.0045 31.570312 14.384766 C 32.10658 14.515715 32.657742 14.689599 33.171875 14.912109 A 1.5002872 1.5002872 0 0 0 33.226562 14.933594 C 34.921313 15.928513 36 17.61725 36 19.5 C 36 22.471018 33.306355 25 29.771484 25 C 27.980867 25 26.390693 24.330223 25.269531 23.292969 A 1.50015 1.50015 0 0 0 23.230469 23.292969 C 22.109307 24.330223 20.519133 25 18.728516 25 C 15.193645 25 12.5 22.471018 12.5 19.5 C 12.5 17.119588 13.809684 15.247011 16.388672 14.408203 C 18.819464 13.824699 21.345554 14.341538 22.9375 17.224609 A 1.50015 1.50015 0 1 0 25.5625 15.775391 C 23.884545 12.736554 21.070384 11.372549 18.308594 11.242188 C 18.234922 11.23871 18.161454 11.241947 18.087891 11.240234 C 18.049495 10.996992 18.021484 10.752173 18.021484 10.5 C 18.021484 7.5289819 20.71513 5 24.25 5 z M 24.25 26.128906 C 25.814429 27.235137 27.672361 28 29.771484 28 C 29.896569 28 30.01852 27.987054 30.142578 27.982422 L 23.960938 41.070312 L 17.375 27.896484 C 17.819137 27.957578 18.268553 28 18.728516 28 C 20.827639 28 22.685571 27.235137 24.25 26.128906 z"/></svg>