<svg xmlns="http://www.w3.org/2000/svg"  viewBox="0 0 48 48" width="50px" height="50px"><path d="M 12.689453 5 C 10.746512 5 9.0351562 6.5260843 9.0351562 8.5039062 L 9.0351562 12.072266 L 6.9335938 14.509766 C 5.8489227 15.768113 5.8174931 17.518055 6.53125 18.753906 C 7.1917603 19.897562 8.5476909 20.697557 10.041016 20.578125 L 10.041016 36 C 10.041016 39.833052 13.181682 42.972656 17.013672 42.972656 L 30.986328 42.972656 C 34.81938 42.972656 37.957031 39.83199 37.957031 36 L 37.957031 20.748047 C 39.300517 20.856995 40.548739 20.220629 41.259766 19.240234 C 42.044895 18.157664 42.235363 16.574848 41.472656 15.248047 A 1.50015 1.50015 0 0 0 41.417969 15.158203 L 38.966797 11.509766 A 1.50015 1.50015 0 0 0 38.964844 11.507812 L 38.964844 8.5039062 C 38.964844 6.5260843 37.253488 5 35.310547 5 L 12.689453 5 z M 12.689453 8 L 35.310547 8 C 35.747606 8 35.964844 8.2677284 35.964844 8.5039062 L 35.964844 11.009766 L 12.035156 11.009766 L 12.035156 8.5039062 C 12.035156 8.2677284 12.252394 8 12.689453 8 z M 11.326172 14.009766 L 37.033203 14.009766 L 38.871094 16.75 C 39.038735 17.048176 38.988229 17.263139 38.832031 17.478516 C 38.67416 17.696195 38.473761 17.826088 38.121094 17.755859 A 1.50015 1.50015 0 0 0 38.121094 17.753906 L 35.078125 17.150391 C 32.73262 16.683722 30.311039 16.760456 28 17.373047 L 26.832031 17.681641 C 24.544969 18.287171 22.132017 18.242736 19.871094 17.550781 C 17.481528 16.819868 14.952362 16.670698 12.494141 17.115234 L 9.8671875 17.589844 C 9.4613388 17.663255 9.2773525 17.505602 9.1308594 17.251953 C 8.9843662 16.998304 8.9407491 16.775403 9.2050781 16.46875 L 11.326172 14.009766 z M 31.621094 19.853516 C 32.581564 19.823353 33.545893 19.903131 34.494141 20.091797 L 34.957031 20.183594 L 34.957031 36 C 34.957031 38.21001 33.197276 39.972656 30.986328 39.972656 L 17.013672 39.972656 C 14.803662 39.972656 13.041016 38.210948 13.041016 36 L 13.041016 20.169922 A 1.50015 1.50015 0 0 0 13.037109 20.064453 C 15.021815 19.70716 17.064881 19.829806 18.994141 20.419922 C 21.791217 21.275967 24.772671 21.330501 27.599609 20.582031 L 28.769531 20.271484 C 29.704012 20.02378 30.660623 19.883678 31.621094 19.853516 z M 27.107422 23.009766 C 27.027047 22.993891 26.942828 22.996078 26.861328 23.017578 C 26.783328 23.038578 26.083234 23.234531 25.365234 23.894531 C 24.602234 24.595531 24.505953 25.472766 24.501953 25.509766 C 24.487953 25.654766 24.550875 25.795625 24.671875 25.890625 C 24.763875 25.962625 24.881 26 25 26 C 25.038 26 25.076234 25.996281 25.115234 25.988281 C 25.154234 25.979281 26.094953 25.773422 26.751953 24.982422 C 27.365953 24.243422 27.482141 23.585672 27.494141 23.513672 C 27.518141 23.362672 27.456125 23.209375 27.328125 23.109375 C 27.264125 23.059375 27.187797 23.025641 27.107422 23.009766 z M 22.240234 27 C 20.142234 27 18.5 28.624219 18.5 30.699219 C 18.5 33.324219 20.443609 36 22.349609 36 C 23.063609 36 23.558516 35.771766 23.853516 35.634766 C 23.901516 35.612766 23.948375 35.584359 23.984375 35.568359 C 24.047375 35.587359 24.098391 35.617625 24.150391 35.640625 C 24.447391 35.774625 24.943391 36 25.650391 36 C 27.556391 36 29.5 33.324219 29.5 30.699219 C 29.5 28.624219 27.857766 27 25.759766 27 C 24.998766 27 24.498172 27.226328 24.201172 27.361328 C 24.155172 27.382328 24.112641 27.408828 24.056641 27.423828 C 24.055641 27.423828 24.036234 27.427734 23.990234 27.427734 L 23.935547 27.425781 C 23.883547 27.409781 23.843781 27.387187 23.800781 27.367188 C 23.505781 27.230187 23.010234 27 22.240234 27 z"/></svg>