<svg xmlns="http://www.w3.org/2000/svg"  viewBox="0 0 48 48" width="50px" height="50px"><path d="M 34.857422 5.0175781 C 34.526554 5.0000038 34.197403 5.0286157 33.882812 5.1035156 C 32.624451 5.4031154 31.484623 6.467264 31.240234 7.9335938 L 30.228516 14.001953 C 28.384199 12.844858 26.330142 12 24 12 C 17.390347 12 12 17.390352 12 24 C 12 25.10238 12.162827 26.166445 12.443359 27.181641 L 6.3964844 28.390625 A 1.50015 1.50015 0 0 0 6.3945312 28.390625 C 3.8983725 28.890881 2.7571987 31.984792 4.3300781 33.986328 L 10.796875 42.216797 A 1.50015 1.50015 0 0 0 10.798828 42.216797 C 12.537293 44.427083 16.263819 43.631703 16.945312 40.902344 L 18.507812 34.654297 C 20.156084 35.508584 22.021261 36 24 36 C 30.609653 36 36 30.609648 36 24 C 36 22.908721 35.650102 21.925954 35.375 20.919922 L 41.164062 20.341797 C 43.786966 20.079677 45.196595 16.913967 43.638672 14.789062 L 37.515625 6.4394531 C 36.856161 5.5406423 35.850025 5.070301 34.857422 5.0175781 z M 34.847656 8.0136719 C 34.931557 8.0389065 35.011846 8.098598 35.095703 8.2128906 L 41.21875 16.5625 C 41.490827 16.933595 41.324331 17.309589 40.865234 17.355469 L 34.351562 18.007812 A 1.50015 1.50015 0 0 0 34.175781 18.033203 C 33.778934 17.361826 33.390486 16.689078 32.875 16.109375 A 1.50015 1.50015 0 0 0 32.980469 15.746094 L 34.199219 8.4257812 C 34.24583 8.146111 34.376034 8.0691346 34.576172 8.0214844 C 34.676241 7.9976594 34.763755 7.9884372 34.847656 8.0136719 z M 24.658203 15.033203 C 29.335555 15.368815 33 19.233794 33 24 C 33 24.998576 32.834282 25.955609 32.537109 26.851562 L 24.658203 15.033203 z M 21.302734 15.408203 L 30.894531 29.794922 C 29.805014 31.091377 28.35698 32.075012 26.697266 32.591797 L 17.105469 18.205078 C 18.194986 16.908623 19.64302 15.924988 21.302734 15.408203 z M 15.462891 21.148438 L 23.341797 32.966797 C 18.664445 32.631185 15 28.766206 15 24 C 15 23.001424 15.165718 22.044391 15.462891 21.148438 z M 13.628906 30.003906 C 14.236264 31.047711 14.996842 31.988178 15.878906 32.802734 L 14.035156 40.175781 C 13.910651 40.674422 13.473785 40.766996 13.15625 40.363281 L 6.6894531 32.132812 C 6.4203326 31.790349 6.5565337 31.417775 6.984375 31.332031 L 13.628906 30.003906 z"/></svg>