<svg xmlns="http://www.w3.org/2000/svg"  viewBox="0 0 48 48" width="50px" height="50px"><path d="M 24 6.96875 C 21.305138 6.96875 19.02896 8.6857212 18.074219 11.087891 C 12.94315 11.4092 8.676601 15.295675 8.1035156 20.466797 L 6.1582031 38.03125 L 4.5 38.03125 A 1.50015 1.50015 0 1 0 4.5 41.03125 L 7.2617188 41.03125 A 1.50015 1.50015 0 0 0 7.7402344 41.03125 L 16.5 41.03125 L 31.5 41.03125 L 40.257812 41.03125 A 1.50015 1.50015 0 0 0 40.742188 41.03125 L 43.5 41.03125 A 1.50015 1.50015 0 1 0 43.5 38.03125 L 41.841797 38.03125 L 39.871094 20.253906 C 39.30216 15.124436 35.027397 11.257855 29.912109 11.046875 C 28.946973 8.6662417 26.679851 6.96875 24 6.96875 z M 24 9.96875 C 25.792204 9.96875 27.266668 11.307753 27.439453 13.091797 L 29.849609 38.03125 L 18.150391 38.03125 L 20.560547 13.091797 C 20.732643 11.306911 22.206107 9.96875 24 9.96875 z M 30.556641 14.166016 C 33.856383 14.650751 36.512539 17.177135 36.890625 20.585938 L 38.824219 38.03125 L 32.861328 38.03125 L 30.556641 14.166016 z M 17.439453 14.205078 L 15.138672 38.03125 L 9.1738281 38.03125 L 11.085938 20.796875 C 11.468651 17.343525 14.121863 14.775982 17.439453 14.205078 z"/></svg>