<svg xmlns="http://www.w3.org/2000/svg"  viewBox="0 0 48 48" width="50px" height="50px"><path d="M 29.75 6 C 23.458326 5.9989285 18.143996 10.301535 17.169922 16.042969 L 16.5 16.042969 C 16.005 16.042969 15.542672 16.285359 15.263672 16.693359 C 14.984672 17.101359 14.923563 17.621031 15.101562 18.082031 L 16.197266 20.917969 L 19.414062 20.917969 L 18.6875 19.042969 L 40.777344 19.042969 C 40.350344 20.104969 39.799688 21.540375 39.054688 23.484375 C 38.228687 25.640375 37.408172 27.797 36.951172 29 L 30.96875 29 C 30.97575 29.184 31 29.350969 31 29.542969 C 31 30.487969 30.622234 31.361 29.990234 32 L 37.986328 32 C 38.609328 32 39.168672 31.61325 39.388672 31.03125 C 41.101672 26.51425 43.905781 19.179062 44.300781 18.289062 C 44.426781 18.068062 44.498047 17.813969 44.498047 17.542969 C 44.499047 16.714969 43.828 16.042969 43 16.042969 L 42.339844 16.042969 C 41.368206 10.30756 36.04144 6.0010523 29.75 6 z M 29.75 9 C 34.48738 9.0007923 38.332201 12.05845 39.269531 16.042969 L 20.224609 16.042969 C 21.161865 12.061303 25.012418 8.9991925 29.75 9 z M 11.958984 22.917969 C 9.8663457 22.917969 7.8215413 22.914669 6.0136719 23.818359 C 4.2058025 24.722043 3 26.772781 3 29.542969 A 1.50015 1.50015 0 0 0 4.03125 30.964844 L 4.03125 33.994141 A 1.50015 1.50015 0 0 0 3 35.417969 C 3 38.188157 4.2056739 40.236961 6.0136719 41.140625 C 7.8216698 42.044289 9.8678059 42.042969 11.960938 42.042969 L 20.041016 42.042969 C 22.133655 42.042969 24.178459 42.044269 25.986328 41.140625 C 27.794198 40.236941 29 38.188157 29 35.417969 A 1.50015 1.50015 0 0 0 27.96875 33.994141 L 27.96875 30.964844 A 1.50015 1.50015 0 0 0 28.998047 29.542969 C 28.998047 26.772781 27.792244 24.722043 25.984375 23.818359 C 24.176506 22.914676 22.131702 22.917969 20.039062 22.917969 L 11.958984 22.917969 z M 11.958984 25.917969 L 20.039062 25.917969 C 22.065424 25.917969 23.750698 26.056137 24.642578 26.501953 C 25.221115 26.791141 25.549316 27.287484 25.757812 28.042969 L 6.2421875 28.042969 C 6.4506907 27.287538 6.7769509 26.791132 7.3554688 26.501953 C 8.2473492 26.056137 9.9326239 25.917969 11.958984 25.917969 z M 7.03125 31.042969 L 24.96875 31.042969 L 24.96875 33.917969 L 7.03125 33.917969 L 7.03125 31.042969 z M 6.2421875 36.917969 L 25.757812 36.917969 C 25.549228 37.672611 25.222769 38.167992 24.644531 38.457031 C 23.752651 38.902848 22.067377 39.042969 20.041016 39.042969 L 11.960938 39.042969 C 9.9340681 39.042969 8.2474707 38.902867 7.3554688 38.457031 C 6.7771518 38.16798 6.4507695 37.6726 6.2421875 36.917969 z"/></svg>