<svg xmlns="http://www.w3.org/2000/svg"  viewBox="0 0 48 48" width="50px" height="50px"><path d="M 14.5 6 C 12.585045 6 11 7.5850452 11 9.5 L 11 12.945312 L 9.0273438 15.246094 A 1.50015 1.50015 0 0 0 9.0273438 15.248047 C 8.0064225 16.439769 7.97648 18.096759 8.6484375 19.267578 C 9.2720694 20.354194 10.583514 21.042296 12 20.923828 L 12 35.5 C 12 39.071938 14.928062 42 18.5 42 L 30.5 42 C 34.071938 42 37 39.071938 37 35.5 L 37 21.099609 C 38.379809 21.331315 39.702443 20.72541 40.423828 19.724609 C 41.16385 18.697953 41.34032 17.197267 40.623047 15.941406 L 39 13.101562 L 39 9.5 C 39 7.5850452 37.414955 6 35.5 6 L 14.5 6 z M 14.5 9 L 35.5 9 C 35.795045 9 36 9.2049548 36 9.5 L 36 12 L 14 12 L 14 9.5 C 14 9.2049548 14.204955 9 14.5 9 z M 13.189453 15 L 36.628906 15 L 38.019531 17.429688 L 38.017578 17.429688 C 38.151305 17.663826 38.106704 17.807156 37.990234 17.96875 C 37.873756 18.130344 37.750953 18.220957 37.486328 18.167969 L 34.722656 17.613281 C 32.571161 17.183206 30.350561 17.255104 28.230469 17.820312 L 27.167969 18.103516 C 25.117489 18.650134 22.95572 18.608574 20.927734 17.984375 C 18.735821 17.309597 16.413406 17.172096 14.158203 17.582031 L 11.773438 18.015625 C 11.465328 18.071695 11.361246 17.963864 11.251953 17.773438 C 11.142661 17.583005 11.100604 17.43745 11.304688 17.199219 L 13.189453 15 z M 31.558594 20.341797 C 32.374627 20.315957 33.192904 20.393657 34 20.544922 L 34 35.5 C 34 37.450062 32.450062 39 30.5 39 L 18.5 39 C 16.549938 39 15 37.450062 15 35.5 L 15 20.515625 C 16.687026 20.256037 18.410792 20.348497 20.044922 20.851562 C 22.610936 21.641364 25.345933 21.693335 27.939453 21.001953 L 29.001953 20.71875 C 29.839907 20.495355 30.697502 20.369058 31.558594 20.341797 z"/></svg>