<svg xmlns="http://www.w3.org/2000/svg"  viewBox="0 0 48 48" width="50px" height="50px"><path d="M 30.5625 6.4804688 A 1.50015 1.50015 0 0 0 29.091797 7.4824219 C 29.091797 7.4824219 29.031367 7.7132975 28.566406 8.1171875 C 28.193964 8.4407126 27.478322 8.7497686 26.416016 8.8847656 C 26.346716 8.7945686 26.322716 8.6838565 26.246094 8.5976562 C 25.387852 7.6321335 24.041666 7 22.5 7 C 20.958334 7 19.612148 7.6321335 18.753906 8.5976562 C 17.895664 9.5631791 17.5 10.791667 17.5 12 C 17.5 12.682041 17.663588 13.355905 17.927734 14 L 12.949219 14 C 12.694299 11.766623 10.796595 10 8.5 10 C 6.0324991 10 4 12.032499 4 14.5 L 4 37.5 C 4 39.967501 6.0324991 42 8.5 42 L 39.5 42 C 41.967501 42 44 39.967501 44 37.5 L 44 34.5 L 44 21.746094 A 1.50015 1.50015 0 0 0 44 21.259766 L 44 18.5 C 44 16.032499 41.967501 14 39.5 14 L 27.072266 14 C 27.336412 13.355905 27.5 12.682041 27.5 12 C 27.5 11.898666 27.454819 11.800675 27.449219 11.699219 C 28.753327 11.417052 29.858598 10.970511 30.535156 10.382812 C 31.509198 9.536703 31.908203 8.5175781 31.908203 8.5175781 A 1.50015 1.50015 0 0 0 30.5625 6.4804688 z M 22.5 10 C 23.291666 10 23.695482 10.242867 24.003906 10.589844 C 24.31233 10.936821 24.5 11.458333 24.5 12 C 24.5 12.541667 24.31233 13.063179 24.003906 13.410156 C 23.695482 13.757133 23.291666 14 22.5 14 C 21.708334 14 21.304518 13.757133 20.996094 13.410156 C 20.68767 13.063179 20.5 12.541667 20.5 12 C 20.5 11.458333 20.68767 10.936821 20.996094 10.589844 C 21.304518 10.242867 21.708334 10 22.5 10 z M 8.5 13 C 9.3464991 13 10 13.653501 10 14.5 L 10 15.253906 A 1.50015 1.50015 0 0 0 10 15.740234 L 10 21.253906 A 1.50015 1.50015 0 0 0 10 21.740234 L 10 34.5 A 1.50015 1.50015 0 0 0 11.5 36 L 41 36 L 41 37.5 C 41 38.346499 40.346499 39 39.5 39 L 8.5 39 C 7.6535009 39 7 38.346499 7 37.5 L 7 14.5 C 7 13.653501 7.6535009 13 8.5 13 z M 13 17 L 22.5 17 L 39.5 17 C 40.346499 17 41 17.653501 41 18.5 L 41 20 L 36.5 20 A 1.50015 1.50015 0 0 0 35 21.5 L 35 25.5 C 35 26.346499 34.346499 27 33.5 27 C 32.653501 27 32 26.346499 32 25.5 L 32 21.5 A 1.50015 1.50015 0 0 0 30.5 20 L 24.746094 20 A 1.50015 1.50015 0 0 0 24.476562 19.978516 A 1.50015 1.50015 0 0 0 24.259766 20 L 13 20 L 13 17 z M 13 23 L 23 23 L 23 25.5 A 1.50015 1.50015 0 1 0 26 25.5 L 26 23 L 29 23 L 29 25.5 C 29 27.967501 31.032499 30 33.5 30 C 35.967501 30 38 27.967501 38 25.5 L 38 23 L 41 23 L 41 33 L 13 33 L 13 23 z"/></svg>