<svg xmlns="http://www.w3.org/2000/svg"  viewBox="0 0 48 48" width="50px" height="50px"><path d="M 9.5 5 C 5.9142857 5 3 7.9142857 3 11.5 L 3 12.5 C 3 15.554138 5.1574104 18.003273 8 18.697266 L 8 37.5 C 8 40.518182 10.481818 43 13.5 43 L 34.5 43 C 37.518182 43 40 40.518182 40 37.5 L 40 17.697266 C 42.84259 17.003273 45 14.554138 45 11.5 C 45 7.9142857 42.085714 5 38.5 5 L 9.5 5 z M 9.5 8 L 38.5 8 C 40.514286 8 42 9.4857143 42 11.5 C 42 13.514286 40.514286 15 38.5 15 A 1.50015 1.50015 0 0 0 37 16.5 L 37 37.5 C 37 38.881818 35.881818 40 34.5 40 L 13.5 40 C 12.118182 40 11 38.881818 11 37.5 L 11 17.5 A 1.50015 1.50015 0 0 0 9.5 16 C 7.4857143 16 6 14.514286 6 12.5 L 6 11.5 C 6 9.4857143 7.4857143 8 9.5 8 z M 18.5 22 A 1.5 1.5 0 0 0 18.5 25 A 1.5 1.5 0 0 0 18.5 22 z M 29.5 22 A 1.5 1.5 0 0 0 29.5 25 A 1.5 1.5 0 0 0 29.5 22 z M 18.546875 26.988281 A 1.50015 1.50015 0 0 0 17.617188 29.712891 C 21.430115 32.485929 26.569884 32.485929 30.382812 29.712891 A 1.5001539 1.5001539 0 1 0 28.617188 27.287109 C 25.830116 29.314071 22.169884 29.314071 19.382812 27.287109 A 1.50015 1.50015 0 0 0 18.546875 26.988281 z"/></svg>