<svg xmlns="http://www.w3.org/2000/svg"  viewBox="0 0 48 48" width="50px" height="50px"><path d="M 24.224609 4 C 17.514559 3.8862703 12 9.2864407 12 16 L 12 32.5 C 12 35.518182 14.481818 38 17.5 38 L 22.5 38 L 22.5 46.5 A 1.50015 1.50015 0 1 0 25.5 46.5 L 25.5 38 L 30.5 38 C 33.518182 38 36 35.518182 36 32.5 L 36 16.300781 C 36 9.8113078 30.874876 4.1146261 24.226562 4 A 1.50015 1.50015 0 0 0 24.224609 4 z M 24.173828 7 C 29.125513 7.0853739 33 11.390255 33 16.300781 L 33 32.5 C 33 33.881818 31.881818 35 30.5 35 L 24.246094 35 A 1.50015 1.50015 0 0 0 23.759766 35 L 17.5 35 C 16.118182 35 15 33.881818 15 32.5 L 15 16 C 15 10.913559 19.083878 6.9137297 24.173828 7 z M 19.5 19 A 1.5 1.5 0 0 0 19.5 22 A 1.5 1.5 0 0 0 19.5 19 z M 28.5 19 A 1.5 1.5 0 0 0 28.5 22 A 1.5 1.5 0 0 0 28.5 19 z M 28.578125 23.980469 A 1.50015 1.50015 0 0 0 27.505859 24.376953 C 25.449115 26.196381 22.550885 26.196381 20.494141 24.376953 A 1.50015 1.50015 0 0 0 19.541016 23.986328 A 1.50015 1.50015 0 0 0 18.505859 26.623047 C 21.649115 29.403619 26.350885 29.403619 29.494141 26.623047 A 1.50015 1.50015 0 0 0 28.578125 23.980469 z"/></svg>