<svg xmlns="http://www.w3.org/2000/svg"  viewBox="0 0 48 48" width="50px" height="50px"><path d="M 24 6.0390625 C 23.119577 6.0390625 22.238556 6.2500496 21.4375 6.671875 A 1.50015 1.50015 0 0 0 21.308594 6.75 L 17.873047 9.0234375 C 17.778187 9.0753915 17.806527 9.11125 17.289062 9.03125 L 15.339844 8.7304688 C 12.035378 8.2204108 9.0019531 10.820138 9.0019531 14.164062 L 9.0019531 15.417969 L 7.2695312 15.996094 C 4.711399 16.847892 3.1383228 19.457674 3.5820312 22.117188 L 3.9648438 24.412109 L 3.109375 27.404297 C 2.3039034 30.221396 3.8790664 33.208843 6.6582031 34.134766 L 8.0039062 34.583984 C 8.0498556 38.669796 11.403842 42 15.5 42 L 32.5 42 C 36.596158 42 39.950144 38.669796 39.996094 34.583984 L 41.341797 34.134766 C 44.119546 33.207482 45.694906 30.220649 44.890625 27.404297 L 44.035156 24.412109 L 44.341797 22.566406 C 44.826979 19.655312 42.890956 16.85199 39.998047 16.271484 L 39.998047 14.082031 C 39.998047 10.776654 37.031892 8.1868247 33.755859 8.6328125 L 30.431641 9.0859375 C 30.335871 9.0989545 30.238858 9.0791274 30.150391 9.0371094 L 26.689453 6.7480469 A 1.50015 1.50015 0 0 0 26.5625 6.671875 C 25.761444 6.2500496 24.880423 6.0390625 24 6.0390625 z M 23.998047 9.0449219 C 24.390337 9.0446018 24.782508 9.1368223 25.142578 9.3222656 L 28.605469 11.611328 A 1.50015 1.50015 0 0 0 28.734375 11.6875 C 29.379276 12.026554 30.114381 12.156669 30.835938 12.058594 L 34.162109 11.605469 C 35.690077 11.397457 36.998047 12.541408 36.998047 14.082031 L 36.998047 16.273438 C 36.998047 17.691319 38.014392 18.933296 39.40625 19.210938 C 40.744882 19.47841 41.607382 20.7268 41.382812 22.074219 L 41.019531 24.253906 A 1.50015 1.50015 0 0 0 41.058594 24.912109 L 42.005859 28.228516 C 42.377578 29.530163 41.676829 30.860348 40.392578 31.289062 L 40.392578 31.287109 L 40 31.417969 L 40 30 C 40 21.181311 32.818689 14 24 14 C 15.181311 14 8 21.181311 8 30 L 8 31.417969 L 7.6074219 31.287109 C 6.3225586 30.859032 5.6216122 29.531416 5.9941406 28.228516 L 6.9414062 24.912109 A 1.50015 1.50015 0 0 0 6.9804688 24.253906 L 6.5410156 21.625 C 6.3367242 20.400513 7.0389291 19.233999 8.2167969 18.841797 L 9.9511719 18.263672 A 1.50015 1.50015 0 0 0 9.953125 18.263672 C 11.169522 17.857543 12.001953 16.705627 12.001953 15.421875 L 12.001953 14.164062 C 12.001953 12.603988 13.341279 11.45737 14.882812 11.695312 L 16.832031 11.996094 C 17.737719 12.135718 18.628699 12.023344 19.283203 11.679688 A 1.50015 1.50015 0 0 0 19.412109 11.601562 L 22.853516 9.3242188 C 23.213348 9.1381056 23.605757 9.0452419 23.998047 9.0449219 z M 24 17 C 31.197311 17 37 22.802689 37 30 L 37 33.425781 A 1.5008464 1.5008464 0 0 0 37 33.576172 L 37 34.5 C 37 37.003499 35.003499 39 32.5 39 L 15.5 39 C 12.996501 39 11 37.003499 11 34.5 L 11 33.488281 L 11 30 C 11 22.802689 16.802689 17 24 17 z M 18.5 26 A 1.5 1.5 0 0 0 18.5 29 A 1.5 1.5 0 0 0 18.5 26 z M 29.5 26 A 1.5 1.5 0 0 0 29.5 29 A 1.5 1.5 0 0 0 29.5 26 z M 18.546875 30.988281 A 1.50015 1.50015 0 0 0 17.617188 33.712891 C 21.417326 36.476944 26.582674 36.476944 30.382812 33.712891 A 1.5001539 1.5001539 0 1 0 28.617188 31.287109 C 25.859326 33.293056 22.140674 33.293056 19.382812 31.287109 A 1.50015 1.50015 0 0 0 18.546875 30.988281 z"/></svg>