<svg xmlns="http://www.w3.org/2000/svg"  viewBox="0 0 48 48" width="50px" height="50px"><path d="M 24 2 C 21.176692 2 18.846628 3.8847727 17.990234 6.4296875 C 14.221963 6.7491795 10.97751 8.5537377 8.5703125 11.171875 C 5.9268507 14.04698 4.1830367 17.797727 3.4316406 21.597656 C 2.8869625 24.202524 4.7964904 26.614971 7.3515625 26.894531 L 11.253906 39.902344 C 11.25447 39.904344 11.255259 39.906103 11.255859 39.908203 C 11.932652 42.334322 14.135005 44 16.599609 44 L 31.400391 44 C 33.864995 44 36.067301 42.334363 36.744141 39.908203 L 40.648438 26.894531 C 43.20351 26.614971 45.113038 24.202524 44.568359 21.597656 C 43.816963 17.797727 42.073149 14.04698 39.429688 11.171875 C 37.022489 8.5537377 33.778037 6.7491795 30.009766 6.4296875 C 29.153372 3.8847727 26.823308 2 24 2 z M 24 5 C 25.74 5 27.206885 6.3445302 27.412109 7.9863281 A 1.50015 1.50015 0 0 0 28.900391 9.3007812 C 32.239864 9.3007812 35.01695 10.806259 37.220703 13.203125 C 39.424457 15.599991 40.978998 18.893488 41.628906 22.189453 A 1.50015 1.50015 0 0 0 41.632812 22.208984 C 41.850305 23.242047 41.204482 24 40.199219 24 L 39.753906 24 A 1.50015 1.50015 0 0 0 39.267578 24 L 8.7285156 24 A 1.50015 1.50015 0 0 0 8.2597656 24 L 7.8007812 24 C 6.7955181 24 6.1497008 23.242046 6.3671875 22.208984 A 1.50015 1.50015 0 0 0 6.3710938 22.189453 C 7.0209985 18.893487 8.5755432 15.599991 10.779297 13.203125 C 12.98305 10.806259 15.760136 9.3007812 19.099609 9.3007812 A 1.50015 1.50015 0 0 0 20.587891 7.9863281 C 20.793115 6.3445302 22.26 5 24 5 z M 16.5 13 A 1.5 1.5 0 0 0 16.5 16 A 1.5 1.5 0 0 0 16.5 13 z M 12.5 17 A 1.5 1.5 0 0 0 12.5 20 A 1.5 1.5 0 0 0 12.5 17 z M 20.5 17 A 1.5 1.5 0 0 0 20.5 20 A 1.5 1.5 0 0 0 20.5 17 z M 10.517578 27 L 37.482422 27 L 33.863281 39.068359 A 1.50015 1.50015 0 0 0 33.855469 39.097656 C 33.530307 40.268192 32.533724 41 31.400391 41 L 16.599609 41 C 15.466276 41 14.469681 40.268195 14.144531 39.097656 A 1.50015 1.50015 0 0 0 14.136719 39.068359 L 10.517578 27 z M 19.5 29 A 1.5 1.5 0 0 0 19.5 32 A 1.5 1.5 0 0 0 19.5 29 z M 28.5 29 A 1.5 1.5 0 0 0 28.5 32 A 1.5 1.5 0 0 0 28.5 29 z M 28.578125 33.980469 A 1.50015 1.50015 0 0 0 27.505859 34.376953 C 25.449115 36.196381 22.550885 36.196381 20.494141 34.376953 A 1.50015 1.50015 0 0 0 19.541016 33.986328 A 1.50015 1.50015 0 0 0 18.505859 36.623047 C 21.649115 39.403619 26.350885 39.403619 29.494141 36.623047 A 1.50015 1.50015 0 0 0 28.578125 33.980469 z"/></svg>