<svg xmlns="http://www.w3.org/2000/svg"  viewBox="0 0 48 48" width="50px" height="50px"><path d="M 21.5 2 C 20.671 2 20 2.671 20 3.5 L 20 15.5 C 20 16.329 20.671 17 21.5 17 C 22.329 17 23 16.329 23 15.5 L 23 3.5 C 23 2.671 22.329 2 21.5 2 z M 41.556641 2 C 41.456705 1.996625 41.354703 2.0020312 41.251953 2.0195312 L 26 4.5625 L 26 7.6035156 L 41.746094 4.9804688 C 42.562094 4.8434687 43.115516 4.0719062 42.978516 3.2539062 C 42.858641 2.5381563 42.256189 2.023625 41.556641 2 z M 15.5 3 C 14.671 3 14 3.671 14 4.5 L 14 26 L 11 26 L 11 5.5 C 11 4.671 10.329 4 9.5 4 C 8.671 4 8 4.671 8 5.5 L 8 7.5625 L 5.2539062 8.0214844 C 4.4369062 8.1574844 3.8844844 8.9280938 4.0214844 9.7460938 C 4.1434844 10.479094 4.7780469 11 5.4980469 11 C 5.5800469 11 5.6620938 10.993516 5.7460938 10.978516 L 8 10.603516 L 8 12 L 5.5 12 C 4.671 12 4 12.671 4 13.5 C 4 14.329 4.671 15 5.5 15 L 8 15 L 8 26 L 5.5 26 C 3.57 26 2 27.57 2 29.5 C 2 38.598 9.402 46 18.5 46 L 29.5 46 C 38.598 46 46 38.598 46 29.5 C 46 27.57 44.43 26 42.5 26 L 17 26 L 17 4.5 C 17 3.671 16.329 3 15.5 3 z M 26 12 L 26 15 L 41.5 15 C 42.328 15 43 14.329 43 13.5 C 43 12.671 42.328 12 41.5 12 L 26 12 z M 5.5 29 L 42.5 29 C 42.775 29 43 29.225 43 29.5 C 43 36.944 36.944 43 29.5 43 L 18.5 43 C 11.056 43 5 36.944 5 29.5 C 5 29.225 5.224 29 5.5 29 z M 18.5 31 A 1.5 1.5 0 0 0 18.5 34 A 1.5 1.5 0 0 0 18.5 31 z M 29.5 31 A 1.5 1.5 0 0 0 29.5 34 A 1.5 1.5 0 0 0 29.5 31 z M 18.546875 35.988281 A 1.50015 1.50015 0 0 0 17.617188 38.712891 C 21.417326 41.476944 26.582674 41.476944 30.382812 38.712891 A 1.5001539 1.5001539 0 1 0 28.617188 36.287109 C 25.859326 38.293056 22.140674 38.293056 19.382812 36.287109 A 1.50015 1.50015 0 0 0 18.546875 35.988281 z"/></svg>