<svg xmlns="http://www.w3.org/2000/svg"  viewBox="0 0 48 48" width="50px" height="50px"><path d="M 34.541016 -0.00390625 A 1.50015 1.50015 0 0 0 34.287109 0.015625 L 27.287109 1.015625 A 1.50015 1.50015 0 0 0 26.076172 2.0253906 L 23.417969 10 L 11.5 10 A 1.50015 1.50015 0 1 0 11.5 13 L 11.550781 13 L 14.507812 40.957031 A 1.50015 1.50015 0 0 0 14.511719 40.986328 C 14.800505 43.296232 16.766667 45 19 45 L 28.699219 45 C 30.999219 45 32.88881 43.238221 33.1875 40.998047 A 1.50015 1.50015 0 0 0 33.189453 40.972656 L 36.435547 13 L 36.5 13 A 1.50015 1.50015 0 1 0 36.5 10 L 26.582031 10 L 28.628906 3.8535156 L 34.712891 2.984375 A 1.50015 1.50015 0 0 0 34.541016 -0.00390625 z M 14.568359 13 L 24.259766 13 A 1.50015 1.50015 0 0 0 24.726562 13 L 33.416016 13 L 30.212891 40.601562 C 30.111581 41.361388 29.399219 42 28.699219 42 L 19 42 C 18.234208 42 17.602565 41.503459 17.490234 40.615234 C 17.490234 40.615234 17.488281 40.613281 17.488281 40.613281 L 14.568359 13 z M 19.5 20 A 1.5 1.5 0 0 0 19.5 23 A 1.5 1.5 0 0 0 19.5 20 z M 28.5 20 A 1.5 1.5 0 0 0 28.5 23 A 1.5 1.5 0 0 0 28.5 20 z M 28.578125 24.980469 A 1.50015 1.50015 0 0 0 27.505859 25.376953 C 25.449115 27.196381 22.550885 27.196381 20.494141 25.376953 A 1.50015 1.50015 0 0 0 19.541016 24.986328 A 1.50015 1.50015 0 0 0 18.505859 27.623047 C 21.649115 30.403619 26.350885 30.403619 29.494141 27.623047 A 1.50015 1.50015 0 0 0 28.578125 24.980469 z"/></svg>