<svg xmlns="http://www.w3.org/2000/svg"  viewBox="0 0 48 48" width="50px" height="50px"><path d="M 15.5 3 C 14.671 3 14 3.672 14 4.5 L 14 6.1464844 L 9.5800781 14.984375 C 9.1974607 15.748907 9 16.591117 9 17.443359 L 9 40.5 C 9 42.414955 10.585045 44 12.5 44 L 35.5 44 C 37.414955 44 39 42.414955 39 40.5 L 39 17.443359 C 39 16.588865 38.799664 15.748554 38.419922 14.986328 A 1.50015 1.50015 0 0 0 38.419922 14.984375 L 34 6.1464844 L 34 4.5 C 34 3.672 33.329 3 32.5 3 L 15.5 3 z M 16.425781 8 L 30.072266 8 L 26.580078 14.984375 C 26.577578 14.98937 26.576703 14.994998 26.574219 15 L 12.925781 15 L 16.425781 8 z M 32.5 9.8535156 L 35.736328 16.326172 C 35.910021 16.675477 36 17.056494 36 17.443359 L 36 40.5 C 36 40.795045 35.795045 41 35.5 41 L 29 41 L 29 17.443359 C 29 17.054243 29.09086 16.671182 29.263672 16.326172 L 32.5 9.8535156 z M 12 18 L 26 18 L 26 41 L 12.5 41 C 12.204955 41 12 40.795045 12 40.5 L 12 18 z M 15.5 24 A 1.5 1.5 0 0 0 15.5 27 A 1.5 1.5 0 0 0 15.5 24 z M 22.5 24 A 1.5 1.5 0 0 0 22.5 27 A 1.5 1.5 0 0 0 22.5 24 z M 15.263672 29.115234 A 1.50015 1.50015 0 0 0 14.314453 31.744141 C 16.919152 34.156318 20.913992 34.155932 23.519531 31.744141 A 1.50015 1.50015 0 0 0 22.529297 29.128906 A 1.50015 1.50015 0 0 0 21.480469 29.542969 C 19.944008 30.965178 17.886864 30.964791 16.351562 29.542969 A 1.50015 1.50015 0 0 0 15.263672 29.115234 z"/></svg>