<svg xmlns="http://www.w3.org/2000/svg"  viewBox="0 0 48 48" width="50px" height="50px"><path d="M 18 4 C 13.42034 4 9.583029 7.3033406 8.3222656 11.472656 C 5.1414546 13.077107 3 16.174454 3 20 C 3 25.356018 7.2796481 29.680085 12.580078 29.914062 L 18.978516 41.109375 A 1.50015 1.50015 0 0 0 18.978516 41.111328 C 19.99855 42.895665 21.900847 44 23.957031 44 C 26.073469 44 28.024219 42.829101 29.019531 40.962891 L 35.414062 29.916016 C 40.71743 29.685258 45 25.358146 45 20 C 45 16.114071 42.73039 12.794875 39.474609 11.142578 C 38.228132 7.0343917 34.498616 4 30 4 C 27.710884 4 25.689086 4.9062909 24 6.2070312 C 22.310914 4.9062909 20.289116 4 18 4 z M 18 7 C 19.937218 7 21.673954 7.7796398 22.941406 9.0429688 A 1.50015 1.50015 0 0 0 25.058594 9.0429688 C 26.326046 7.7796398 28.062782 7 30 7 C 33.36081 7 36.140042 9.3513926 36.832031 12.486328 A 1.50015 1.50015 0 0 0 37.712891 13.544922 C 40.227561 14.604423 42 17.082905 42 20 C 42 23.883178 38.883178 27 35 27 C 32.784925 27 30.835217 25.977545 29.550781 24.376953 A 1.50015 1.50015 0 0 0 27.185547 24.408203 C 26.452089 25.376163 25.310821 26 24 26 C 22.689179 26 21.547911 25.376163 20.814453 24.408203 A 1.50015 1.50015 0 0 0 18.449219 24.376953 C 17.164783 25.977545 15.215075 27 13 27 C 9.1168223 27 6 23.883178 6 20 C 6 17.024766 7.5027676 14.968331 10.082031 13.882812 A 1.50015 1.50015 0 0 0 10.964844 12.822266 C 11.648902 9.7195717 14.722134 7 18 7 z M 18.5 12 A 1.5 1.5 0 0 0 18.5 15 A 1.5 1.5 0 0 0 18.5 12 z M 29.5 12 A 1.5 1.5 0 0 0 29.5 15 A 1.5 1.5 0 0 0 29.5 12 z M 18.546875 16.988281 A 1.50015 1.50015 0 0 0 17.617188 19.712891 C 21.417326 22.476944 26.582674 22.476944 30.382812 19.712891 A 1.5001539 1.5001539 0 1 0 28.617188 17.287109 C 25.859326 19.293056 22.140674 19.293056 19.382812 17.287109 A 1.50015 1.50015 0 0 0 18.546875 16.988281 z M 19.601562 27.207031 C 20.546032 28.007055 21.648634 28.531886 22.921875 28.742188 L 22.029297 33.205078 A 1.50015 1.50015 0 1 0 24.970703 33.794922 L 25.970703 28.794922 A 1.50015 1.50015 0 0 0 26.001953 28.519531 C 26.910481 28.236822 27.689638 27.807428 28.398438 27.207031 C 29.496885 28.214602 30.700485 29.09828 32.166016 29.537109 L 26.398438 39.505859 A 1.50015 1.50015 0 0 0 26.373047 39.550781 C 25.896358 40.444573 24.970594 41 23.957031 41 C 22.973215 41 22.069997 40.47471 21.582031 39.621094 L 15.824219 29.542969 C 17.294028 29.104677 18.500422 28.217072 19.601562 27.207031 z"/></svg>