<svg xmlns="http://www.w3.org/2000/svg"  viewBox="0 0 48 48" width="50px" height="50px"><path d="M 9.5 9 C 7.0324991 9 5 11.032499 5 13.5 L 5 36.5 C 5 38.967501 7.0324991 41 9.5 41 L 40.5 41 C 42.967501 41 45 38.967501 45 36.5 L 45 33.5 L 45 17.5 C 45 15.032499 42.967501 13 40.5 13 L 13.949219 13 C 13.694299 10.766623 11.796595 9 9.5 9 z M 9.5 12 C 10.346499 12 11 12.653501 11 13.5 L 11 14.253906 A 1.50015 1.50015 0 0 0 11 14.740234 L 11 33.5 A 1.50015 1.50015 0 0 0 12.5 35 L 42 35 L 42 36.5 C 42 37.346499 41.346499 38 40.5 38 L 9.5 38 C 8.6535009 38 8 37.346499 8 36.5 L 8 13.5 C 8 12.653501 8.6535009 12 9.5 12 z M 14 16 L 40.5 16 C 41.346499 16 42 16.653501 42 17.5 L 42 32 L 14 32 L 14 16 z"/></svg>