<svg xmlns="http://www.w3.org/2000/svg"  viewBox="0 0 48 48" width="50px" height="50px"><path d="M 22.931641 5.9863281 C 22.291634 5.9863281 21.652023 6.2268836 21.171875 6.7070312 L 19.072266 8.8066406 C 17.464922 10.413984 17.18926 12.417491 17.552734 13.824219 C 17.568527 13.885545 17.596839 13.940039 17.615234 14 L 12.949219 14 C 12.694299 11.766623 10.796595 10 8.5 10 C 6.0324991 10 4 12.032499 4 14.5 L 4 37.5 C 4 39.967501 6.0324991 42 8.5 42 L 39.5 42 C 41.967501 42 44 39.967501 44 37.5 L 44 34.5 L 44 21.746094 A 1.50015 1.50015 0 0 0 44 21.259766 L 44 18.5 C 44 16.032499 41.967501 14 39.5 14 L 28.248047 14 C 28.26666 13.939478 28.294581 13.884173 28.310547 13.822266 L 28.3125 13.822266 C 28.674077 12.417518 28.39911 10.414731 26.791016 8.8066406 L 24.691406 6.7070312 C 24.211259 6.2268836 23.571647 5.9863281 22.931641 5.9863281 z M 22.931641 9.1894531 L 24.669922 10.927734 C 25.629831 11.887644 25.566673 12.450967 25.40625 13.074219 C 25.273292 13.589754 24.773725 13.964844 24.189453 13.964844 L 21.675781 13.964844 C 21.09151 13.964844 20.589128 13.588072 20.457031 13.074219 L 20.457031 13.072266 C 20.296505 12.450993 20.234703 11.886391 21.193359 10.927734 L 22.931641 9.1894531 z M 8.5 13 C 9.3464991 13 10 13.653501 10 14.5 L 10 15.253906 A 1.50015 1.50015 0 0 0 10 15.740234 L 10 21.253906 A 1.50015 1.50015 0 0 0 10 21.740234 L 10 34.5 A 1.50015 1.50015 0 0 0 11.5 36 L 41 36 L 41 37.5 C 41 38.346499 40.346499 39 39.5 39 L 8.5 39 C 7.6535009 39 7 38.346499 7 37.5 L 7 14.5 C 7 13.653501 7.6535009 13 8.5 13 z M 13 17 L 39.5 17 C 40.346499 17 41 17.653501 41 18.5 L 41 20 L 36.5 20 A 1.50015 1.50015 0 0 0 35 21.5 L 35 25.5 C 35 26.346499 34.346499 27 33.5 27 C 32.653501 27 32 26.346499 32 25.5 L 32 21.5 A 1.50015 1.50015 0 0 0 30.5 20 L 24.746094 20 A 1.50015 1.50015 0 0 0 24.476562 19.978516 A 1.50015 1.50015 0 0 0 24.259766 20 L 13 20 L 13 17 z M 13 23 L 23 23 L 23 25.5 A 1.50015 1.50015 0 1 0 26 25.5 L 26 23 L 29 23 L 29 25.5 C 29 27.967501 31.032499 30 33.5 30 C 35.967501 30 38 27.967501 38 25.5 L 38 23 L 41 23 L 41 33 L 13 33 L 13 23 z"/></svg>