<svg xmlns="http://www.w3.org/2000/svg"  viewBox="0 0 48 48" width="50px" height="50px"><path d="M 30.470703 6.7480469 C 27.714333 6.7128019 24.946119 7.7082434 22.802734 9.7441406 A 1.50015 1.50015 0 0 0 22.796875 9.7480469 L 10.4375 21.591797 C 8.2150645 23.709421 8.1704925 27.291589 10.341797 29.462891 L 13.216797 32.337891 A 1.50015 1.50015 0 0 0 13.160156 32.396484 L 7.4101562 38.46875 A 1.500412 1.500412 0 1 0 9.5898438 40.53125 L 15.339844 34.460938 L 18.537109 37.658203 C 20.710772 39.831866 24.296877 39.784466 26.414062 37.556641 L 31 32.769531 L 31 39.5 A 1.50015 1.50015 0 1 0 34 39.5 L 34 29.638672 L 38 25.464844 L 38 26.5 A 1.50015 1.50015 0 1 0 41 26.5 L 41 20.5 A 1.50015 1.50015 0 0 0 40.845703 19.818359 C 41.546018 16.341115 40.739161 12.618067 38.060547 9.9394531 C 35.970711 7.8496175 33.227073 6.7832921 30.470703 6.7480469 z M 30.433594 9.7304688 C 32.428474 9.7559738 34.413289 10.534383 35.939453 12.060547 C 38.991782 15.112876 39.055093 20.000787 36.082031 23.130859 L 33.957031 25.347656 C 33.61725 22.407856 32.513704 18.459807 29.292969 15.347656 C 27.72489 13.832175 27.484974 12.585853 27.5 11.658203 C 27.51503 10.730553 27.804688 10.240234 27.804688 10.240234 A 1.50015 1.50015 0 0 0 27.859375 10.136719 C 28.695253 9.8610964 29.564464 9.7193568 30.433594 9.7304688 z M 24.523438 12.25 C 24.654849 13.808284 25.368887 15.729371 27.207031 17.505859 C 30.945411 21.118202 31.119835 26.419083 31.052734 28.378906 L 24.244141 35.486328 A 1.50015 1.50015 0 0 0 24.240234 35.490234 C 23.25742 36.524409 21.66654 36.545451 20.658203 35.537109 L 12.462891 27.341797 C 11.45592 26.334826 11.47549 24.742744 12.507812 23.761719 A 1.50015 1.50015 0 0 0 12.513672 23.757812 L 24.523438 12.25 z M 39.5 30 A 1.5 1.5 0 0 0 39.5 33 A 1.5 1.5 0 0 0 39.5 30 z"/></svg>