<svg xmlns="http://www.w3.org/2000/svg"  viewBox="0 0 48 48" width="50px" height="50px"><path d="M 30.25 4 C 22.673848 4 16.5 10.173853 16.5 17.75 C 16.5 20.997652 17.68111 23.948253 19.574219 26.304688 L 5.7929688 40.085938 A 1.50015 1.50015 0 1 0 7.9140625 42.207031 L 21.695312 28.425781 C 24.006325 30.282403 26.890735 31.447705 30.064453 31.492188 A 1.50015 1.50015 0 0 0 30.25 31.501953 C 30.623975 31.501953 31.004165 31.479021 31.386719 31.443359 C 31.651383 31.421489 31.911608 31.386351 32.171875 31.349609 C 38.840362 30.408235 44 24.672166 44 17.75 C 44 10.173853 37.826152 4 30.25 4 z M 30.25 7 C 35.767411 7 40.281466 11.119561 40.916016 16.460938 C 40.244509 14.620272 39.15603 13.141102 37.873047 12.070312 C 35.738187 10.28854 33.183498 9.5332031 31.039062 9.5332031 C 26.000091 9.5332031 22.03125 13.189932 22.03125 17.751953 C 22.03125 22.272735 25.729218 25.96875 30.25 25.96875 C 33.287807 25.96875 36.097656 23.721982 36.097656 20.517578 C 36.097656 17.524396 33.637714 15.064453 30.644531 15.064453 A 1.50015 1.50015 0 1 0 30.644531 18.064453 C 32.015349 18.064453 33.097656 19.146761 33.097656 20.517578 C 33.097656 22.055174 31.954193 22.96875 30.25 22.96875 C 27.350782 22.96875 25.03125 20.651171 25.03125 17.751953 C 25.03125 14.893975 27.384034 12.533203 31.039062 12.533203 C 32.434627 12.533203 34.426531 13.102522 35.951172 14.375 C 37.475812 15.647478 38.628906 17.543339 38.628906 20.599609 C 38.628906 23.456531 37.506275 25.301532 35.896484 26.583984 C 34.518055 27.682121 32.729254 28.302362 31.072266 28.458984 C 30.799867 28.479489 30.527816 28.5 30.25 28.5 C 24.295167 28.5 19.5 23.704829 19.5 17.75 C 19.5 11.795171 24.295167 7 30.25 7 z M 9.5 14.9375 C 7.7916671 14.9375 6.3204817 15.632133 5.3789062 16.691406 C 4.4373308 17.750679 4 19.104167 4 20.4375 C 4 21.770833 4.4373308 23.124321 5.3789062 24.183594 C 6.3204817 25.242867 7.7916671 25.9375 9.5 25.9375 C 11.208333 25.9375 12.679518 25.242867 13.621094 24.183594 C 14.562669 23.124321 15 21.770833 15 20.4375 C 15 19.104167 14.562669 17.750679 13.621094 16.691406 C 12.679518 15.632133 11.208333 14.9375 9.5 14.9375 z M 9.5 17.9375 C 10.458333 17.9375 10.987149 18.242867 11.378906 18.683594 C 11.770664 19.124321 12 19.770833 12 20.4375 C 12 21.104167 11.770664 21.750679 11.378906 22.191406 C 10.987149 22.632133 10.458333 22.9375 9.5 22.9375 C 8.5416674 22.9375 8.012851 22.632133 7.6210938 22.191406 C 7.2293364 21.750679 7 21.104167 7 20.4375 C 7 19.770833 7.2293364 19.124321 7.6210938 18.683594 C 8.012851 18.242867 8.5416674 17.9375 9.5 17.9375 z M 26.125 33.759766 C 24.603667 33.759766 23.271904 34.383805 22.423828 35.337891 C 22.30343 35.473339 22.213464 35.624404 22.111328 35.769531 L 21.208984 35.294922 A 1.50015 1.50015 0 0 0 21.207031 35.294922 C 20.865488 35.115868 20.498838 35.046602 20.140625 35.068359 C 19.065985 35.133629 18.067394 36.013751 18.050781 37.171875 L 18 40.599609 C 17.97507 42.295188 20.096386 43.373103 21.451172 42.351562 L 21.451172 42.353516 L 22.216797 41.775391 C 22.288399 41.869311 22.344212 41.970978 22.423828 42.060547 C 23.271904 43.014632 24.603667 43.638672 26.125 43.638672 C 27.646333 43.638672 28.978096 43.014632 29.826172 42.060547 C 29.918822 41.956316 29.949434 41.822953 30.03125 41.712891 L 30.695312 42.150391 C 32.028174 43.027439 33.954164 42.045781 34.03125 40.453125 L 34.03125 40.451172 L 34.193359 37.066406 C 34.236439 36.175551 33.684381 35.358579 32.972656 35.017578 C 32.260931 34.676577 31.280995 34.756868 30.613281 35.347656 L 30.099609 35.802734 C 29.995107 35.653326 29.949962 35.477155 29.826172 35.337891 C 28.978096 34.383805 27.646333 33.759766 26.125 33.759766 z M 26.125 36.759766 C 26.896333 36.759766 27.285727 36.996492 27.583984 37.332031 C 27.882242 37.667571 28.064453 38.172802 28.064453 38.699219 C 28.064453 39.225636 27.882242 39.730867 27.583984 40.066406 C 27.285727 40.401946 26.896333 40.638672 26.125 40.638672 C 25.353667 40.638672 24.964273 40.401946 24.666016 40.066406 C 24.367758 39.730867 24.185547 39.225636 24.185547 38.699219 C 24.185547 38.172802 24.367758 37.667571 24.666016 37.332031 C 24.964273 36.996492 25.353667 36.759766 26.125 36.759766 z M 21.03125 38.589844 L 21.1875 38.673828 C 21.187461 38.682292 21.185547 38.690757 21.185547 38.699219 C 21.185547 38.73048 21.192822 38.761684 21.193359 38.792969 L 21.025391 38.917969 L 21.03125 38.589844 z"/></svg>