<svg xmlns="http://www.w3.org/2000/svg"  viewBox="0 0 48 48" width="50px" height="50px"><path d="M 17.476562 8.9785156 A 1.50015 1.50015 0 0 0 17.259766 9 L 14.058594 9 C 11.917183 9 9.9621051 10.2504 9.0644531 12.195312 A 1.50015 1.50015 0 0 0 9.0449219 12.240234 L 4.1171875 23.916016 A 1.50015 1.50015 0 0 0 4.0859375 24 L 2.5 24 A 1.50015 1.50015 0 1 0 2.5 27 L 4.4726562 27 L 9.0292969 38.71875 A 1.50015 1.50015 0 0 0 9.0644531 38.804688 C 9.9621053 40.749598 11.917183 42 14.058594 42 L 17.253906 42 A 1.50015 1.50015 0 0 0 17.740234 42 L 23.753906 42 A 1.50015 1.50015 0 0 0 24.240234 42 L 30.253906 42 A 1.50015 1.50015 0 0 0 30.740234 42 L 33.941406 42 C 36.082817 42 38.037895 40.7496 38.935547 38.804688 A 1.50015 1.50015 0 0 0 38.970703 38.71875 L 43.527344 27 L 45.5 27 A 1.50015 1.50015 0 1 0 45.5 24 L 43.914062 24 A 1.50015 1.50015 0 0 0 43.882812 23.916016 L 38.953125 12.240234 A 1.50015 1.50015 0 0 0 38.933594 12.195312 C 38.035941 10.250399 36.080863 9 33.939453 9 L 30.746094 9 A 1.50015 1.50015 0 0 0 30.259766 9 L 24.246094 9 A 1.50015 1.50015 0 0 0 23.759766 9 L 17.746094 9 A 1.50015 1.50015 0 0 0 17.476562 8.9785156 z M 14.058594 12 L 16 12 L 16 14.5 A 1.50015 1.50015 0 1 0 19 14.5 L 19 12 L 22.5 12 L 22.5 14.5 A 1.50015 1.50015 0 1 0 25.5 14.5 L 25.5 12 L 29 12 L 29 14.5 A 1.50015 1.50015 0 1 0 32 14.5 L 32 12 L 33.939453 12 C 34.915165 12 35.793179 12.562705 36.205078 13.447266 L 40.660156 24 L 7.3398438 24 L 11.789062 13.453125 C 12.199412 12.564038 13.080004 12 14.058594 12 z M 7.6914062 27 L 40.308594 27 L 36.207031 37.550781 C 35.795647 38.43685 34.918077 39 33.941406 39 L 32 39 L 32 36.5 A 1.50015 1.50015 0 1 0 29 36.5 L 29 39 L 25.5 39 L 25.5 36.5 A 1.50015 1.50015 0 1 0 22.5 36.5 L 22.5 39 L 19 39 L 19 36.5 A 1.50015 1.50015 0 1 0 16 36.5 L 16 39 L 14.058594 39 C 13.081923 39 12.204353 38.43685 11.792969 37.550781 L 7.6914062 27 z"/></svg>