<svg xmlns="http://www.w3.org/2000/svg"  viewBox="0 0 48 48" width="50px" height="50px"><path d="M 17.095703 6 C 14.429489 6 12.715427 9.0799799 14.121094 11.345703 L 16.449219 15.095703 L 5.1621094 18.210938 L 5.1621094 18.208984 C 2.7368098 18.877266 1.8020135 21.980238 3.4511719 23.878906 A 1.50015 1.50015 0 0 0 3.4511719 23.880859 L 18.960938 41.716797 C 20.725995 43.746869 24.212248 42.979577 24.962891 40.396484 A 1.50015 1.50015 0 0 0 24.962891 40.394531 L 27.253906 32.503906 L 28.240234 34.09375 C 29.67451 36.405564 33.294663 36.161389 34.408203 33.679688 L 44.605469 10.931641 C 45.620176 8.6677989 43.891191 6 41.410156 6 L 17.095703 6 z M 17.095703 9 L 24.085938 9 A 1.5 1.5 0 0 0 25.5 10 A 1.5 1.5 0 0 0 26.912109 9 L 41.410156 9 C 41.829122 9 42.03848 9.3229195 41.867188 9.7050781 L 36.591797 21.472656 A 1.5 1.5 0 0 0 35.5 21 A 1.5 1.5 0 0 0 35.460938 23.998047 L 31.671875 32.451172 C 31.473416 32.89347 31.044787 32.923902 30.789062 32.511719 L 28.378906 28.628906 L 31.941406 16.355469 C 32.68274 13.799908 30.213952 11.2986 27.648438 12.005859 L 19.462891 14.263672 L 16.669922 9.7636719 C 16.421588 9.3633952 16.625917 9 17.095703 9 z M 36.5 11 A 1.5 1.5 0 0 0 36.5 14 A 1.5 1.5 0 0 0 36.5 11 z M 28.751953 14.876953 C 29.018694 14.929072 29.158546 15.181702 29.060547 15.519531 L 26.25 25.199219 L 23.4375 20.667969 A 1.5 1.5 0 0 0 22.5 18 A 1.5 1.5 0 0 0 21.869141 18.140625 L 21.111328 16.919922 L 28.447266 14.896484 C 28.560387 14.865299 28.66304 14.85958 28.751953 14.876953 z M 18.097656 17.751953 L 25.125 29.076172 L 22.082031 39.558594 C 21.948673 40.017501 21.537551 40.107975 21.224609 39.748047 L 17.914062 35.941406 A 1.5 1.5 0 0 0 17.5 33 A 1.5 1.5 0 0 0 16.130859 33.890625 L 5.7148438 21.912109 C 5.4340021 21.588778 5.5462839 21.215282 5.9589844 21.101562 A 1.50015 1.50015 0 0 0 5.9609375 21.101562 L 18.097656 17.751953 z M 13.5 22 A 1.5 1.5 0 0 0 13.5 25 A 1.5 1.5 0 0 0 13.5 22 z M 21.5 25 A 1.5 1.5 0 0 0 21.5 28 A 1.5 1.5 0 0 0 21.5 25 z"/></svg>