<svg xmlns="http://www.w3.org/2000/svg"  viewBox="0 0 48 48" width="50px" height="50px"><path d="M 38.486328 2.6660156 A 1.50015 1.50015 0 0 0 37.253906 3.3300781 L 30.351562 13.298828 C 28.682771 11.357623 26.213433 10.119141 23.462891 10.119141 C 22.12253 10.119141 20.85144 10.418711 19.703125 10.943359 C 18.55624 10.422653 17.286855 10.119141 15.951172 10.119141 C 11.745918 10.119141 8.1901176 12.996415 7.1660156 16.900391 A 1.50015 1.50015 0 0 0 5.8828125 17.667969 L 0.51757812 26.970703 A 1.5001761 1.5001761 0 1 0 3.1171875 28.46875 L 6.921875 21.871094 L 12.074219 40.03125 C 12.743287 42.390811 14.912176 44.03125 17.365234 44.03125 L 30.634766 44.03125 C 33.087265 44.03125 35.257438 42.392262 35.927734 40.033203 L 41.078125 21.871094 L 44.882812 28.46875 A 1.5001764 1.5001764 0 0 0 47.482422 26.970703 L 42.117188 17.667969 A 1.50015 1.50015 0 0 0 40.576172 16.919922 A 1.50015 1.50015 0 0 0 40.498047 16.917969 L 34.628906 16.917969 L 43.716797 9.6464844 A 1.50015 1.50015 0 1 0 41.84375 7.3046875 L 33.566406 13.925781 L 39.720703 5.0371094 A 1.50015 1.50015 0 0 0 38.486328 2.6660156 z M 15.951172 13.119141 C 16.202169 13.119141 16.447374 13.138778 16.689453 13.167969 C 15.743995 14.22636 15.04231 15.503317 14.673828 16.917969 L 10.314453 16.917969 C 11.21696 14.694071 13.386747 13.119141 15.951172 13.119141 z M 23.462891 13.119141 C 25.609487 13.119141 27.473701 14.223468 28.560547 15.886719 L 27.845703 16.917969 L 17.841797 16.917969 C 18.745145 14.695472 20.900547 13.119141 23.462891 13.119141 z M 10.953125 19.917969 L 37.537109 19.917969 L 34.710938 22.792969 A 1.50015 1.50015 0 0 0 34.708984 22.794922 C 33.984792 23.53271 32.968709 23.957031 31.898438 23.957031 L 16.978516 23.957031 C 15.992431 23.957031 15.049852 23.598457 14.337891 22.958984 A 1.50015 1.50015 0 0 0 14.337891 22.957031 L 10.953125 19.917969 z M 10.519531 23.560547 L 12.333984 25.189453 C 13.606023 26.33198 15.262601 26.957031 16.978516 26.957031 L 31.898438 26.957031 C 33.762166 26.957031 35.549801 26.220696 36.849609 24.896484 L 37.203125 24.537109 L 33.041016 39.212891 C 32.733312 40.295832 31.760266 41.03125 30.634766 41.03125 L 17.365234 41.03125 C 16.240293 41.03125 15.26787 40.295329 14.960938 39.212891 L 10.519531 23.560547 z"/></svg>