<svg xmlns="http://www.w3.org/2000/svg"  viewBox="0 0 48 48" width="50px" height="50px"><path d="M 23.935547 7 C 7.7733973 7 1.9046867 15.378172 1.7460938 20.789062 C 1.7234148 21.554268 2.054395 22.408674 2.6191406 22.931641 C 2.7863415 23.086472 2.9626756 23.20948 3.1445312 23.318359 C 2.5550904 24.718654 1.8710937 26.448191 1.8710938 29.28125 C 1.8710938 32.749009 4.689971 35.62835 8.6660156 37.669922 C 12.64206 39.711494 18.003287 41 23.998047 41 C 29.992764 41 35.35403 39.711227 39.330078 37.669922 C 43.306126 35.628616 46.125 32.750962 46.125 29.283203 C 46.125 26.574487 45.263232 24.831561 44.458984 23.460938 C 44.736741 23.326774 45.004175 23.161089 45.251953 22.931641 C 45.816699 22.408674 46.145726 21.554269 46.123047 20.789062 C 45.964454 15.378173 40.097696 7 23.935547 7 z M 23.935547 10 C 38.945461 10 42.932956 17.470876 43.09375 20.771484 C 43.04806 20.795424 43.00648 20.834134 42.730469 20.892578 C 41.996809 21.047924 40.538553 21.060139 38.703125 20.935547 C 35.032269 20.68636 29.767005 20 23.935547 20 C 18.104089 20 12.836871 20.686361 9.1660156 20.935547 C 7.3305877 21.06014 5.8742844 21.047924 5.140625 20.892578 C 4.865614 20.834347 4.8236233 20.79572 4.7773438 20.771484 C 4.9381487 17.470869 8.9256555 10 23.935547 10 z M 21.957031 23.027344 C 21.978063 23.18237 22 23.337911 22 23.5 C 22 25.450062 20.450062 27 18.5 27 C 16.549938 27 15 25.450062 15 23.5 C 15 23.482594 15.005609 23.466555 15.005859 23.449219 C 17.186932 23.261488 19.464643 23.092834 21.957031 23.027344 z M 26.042969 23.03125 C 28.542484 23.100867 30.814032 23.271943 32.996094 23.460938 C 32.996247 23.474421 33 23.48646 33 23.5 C 33 25.450062 31.450062 27 29.5 27 C 27.549938 27 26 25.450062 26 23.5 C 26 23.339368 26.022319 23.185404 26.042969 23.03125 z M 12.009766 23.703125 C 12.075704 25.801629 13.147284 27.657092 14.759766 28.800781 C 14.06553 29.181655 13.272083 29.402344 12.417969 29.402344 C 9.6846345 29.402344 7.5 27.219662 7.5 24.486328 C 7.5 24.325412 7.5239932 24.173366 7.5390625 24.017578 C 8.1167271 24.00093 8.7168645 23.972012 9.3691406 23.927734 C 10.134637 23.875771 11.148555 23.778843 12.009766 23.703125 z M 35.988281 23.714844 C 36.803419 23.786161 37.771678 23.878294 38.5 23.927734 C 38.876183 23.953271 39.229234 23.972413 39.580078 23.990234 A 1.50015 1.50015 0 0 0 39.501953 24.486328 C 39.501953 27.219662 37.317318 29.402344 34.583984 29.402344 C 33.959035 29.402344 33.370191 29.279643 32.824219 29.068359 C 34.661239 27.963772 35.912866 25.983316 35.988281 23.714844 z M 42.371094 25.871094 C 42.817581 26.753004 43.125 27.730331 43.125 29.283203 C 43.125 31.001444 41.407937 33.231259 37.958984 35.001953 C 34.510032 36.772648 29.55733 38 23.998047 38 C 18.438807 38 13.486065 36.772881 10.037109 35.001953 C 6.5881544 33.231025 4.8710937 30.999491 4.8710938 29.28125 C 4.8710938 28.486553 4.9272841 27.839971 5.0195312 27.273438 C 6.1544356 30.261157 9.0444519 32.402344 12.417969 32.402344 C 14.065781 32.402344 15.50039 31.763893 16.769531 30.896484 C 18.418868 33.193638 21.050799 34.736328 24.083984 34.736328 C 26.878851 34.736328 29.334234 33.419217 31 31.423828 C 32.090413 31.990548 33.275 32.402344 34.583984 32.402344 C 38.465559 32.402344 41.710133 29.569902 42.371094 25.871094 z M 24 26.742188 C 24.959959 28.354339 26.536952 29.556638 28.429688 29.894531 C 27.329019 31.028098 25.798515 31.736328 24.083984 31.736328 C 22.356567 31.736328 20.820744 31.010699 19.71875 29.863281 C 21.544765 29.489585 23.065425 28.311709 24 26.742188 z"/></svg>