<svg xmlns="http://www.w3.org/2000/svg"  viewBox="0 0 48 48" width="50px" height="50px"><path d="M 20.5 4 A 1.50015 1.50015 0 0 0 19 5.5 L 19 22.234375 L 5.2792969 35.953125 A 1.50015 1.50015 0 0 0 5.2167969 38.009766 C 8.8449498 42.102882 14.098779 44.68053 19.935547 44.912109 C 19.935547 44.912109 19.9375 44.912109 19.9375 44.912109 A 1.50015 1.50015 0 0 0 20.744141 45 L 20.75 45 C 32.168185 45 42 35.988774 42 24.5 C 42 12.987709 31.918226 4 20.5 4 z M 23.421875 7.3183594 C 26.173572 7.7419117 28.763816 8.7288587 31.011719 10.222656 L 26.978516 14.255859 A 1.5 1.5 0 0 0 25.5 13 A 1.5 1.5 0 0 0 25.255859 15.978516 L 22 19.234375 L 22 9.9140625 A 1.5 1.5 0 0 0 22.5 10 A 1.5 1.5 0 0 0 23.421875 7.3183594 z M 32.267578 13.208984 C 32.708618 13.466158 33 13.938224 33 14.5 C 33 15.346499 32.346499 16 31.5 16 C 30.938224 16 30.466158 15.708618 30.208984 15.267578 L 32.267578 13.208984 z M 35.947266 15.027344 C 37.357884 17.092008 38.325676 19.45445 38.724609 22 L 31.914062 22 A 1.5 1.5 0 0 0 30.5 21 A 1.5 1.5 0 0 0 29.087891 22 L 23.476562 22 L 28.087891 17.388672 C 28.916233 18.363721 30.133769 19 31.5 19 C 33.787277 19 35.679947 17.247817 35.947266 15.027344 z M 25.056641 25 L 33.03125 25 C 33.012815 25.165136 33 25.330906 33 25.5 C 33 27.967501 35.032499 30 37.5 30 C 37.6762 30 37.846366 29.975033 38.017578 29.955078 C 37.361571 31.830066 36.390685 33.562285 35.154297 35.095703 L 29.587891 29.53125 A 1.5 1.5 0 0 0 28.5 27 A 1.5 1.5 0 0 0 27.46875 27.412109 L 25.056641 25 z M 36.095703 25 L 38.947266 25 C 38.936384 25.360127 38.902634 25.712981 38.869141 26.066406 C 38.646207 26.606367 38.137459 27 37.5 27 C 36.653501 27 36 26.346499 36 25.5 C 36 25.319493 36.039585 25.156004 36.095703 25 z M 22 26.185547 L 27.511719 31.695312 C 26.021408 32.56486 25 34.164278 25 36 C 25 37.988897 26.193131 39.708859 27.890625 40.511719 C 26.051255 41.265145 24.067283 41.738772 22 41.878906 L 22 40.912109 A 1.5 1.5 0 0 0 22 38.085938 L 22 26.185547 z M 19 26.474609 L 19 41.810547 C 18.210384 41.732114 17.442747 41.588197 16.689453 41.412109 A 1.5 1.5 0 0 0 15.5 39 A 1.5 1.5 0 0 0 14 40.552734 C 11.946902 39.707256 10.085647 38.498245 8.5019531 36.972656 L 9.2148438 36.259766 C 10.135018 37.32556 11.493875 38 13 38 C 15.743657 38 18 35.743657 18 33 C 18 31.494172 17.327067 30.133035 16.261719 29.212891 L 19 26.474609 z M 14.125 31.349609 C 14.65078 31.706224 15 32.3034 15 33 C 15 34.122343 14.122343 35 13 35 C 12.302872 35 11.706291 34.650663 11.349609 34.125 L 14.125 31.349609 z M 29.832031 34.015625 L 31.984375 36.167969 C 31.900342 37.20714 31.064629 38 30 38 C 28.877657 38 28 37.122343 28 36 C 28 34.935371 28.79286 34.099658 29.832031 34.015625 z"/></svg>