<svg xmlns="http://www.w3.org/2000/svg"  viewBox="0 0 48 48" width="50px" height="50px"><path d="M 14 5 A 2 2 0 0 0 12.021484 7.28125 A 2 2 0 0 0 11 7 A 2 2 0 0 0 11 11 A 2 2 0 0 0 12.322266 10.498047 L 13.570312 12.992188 C 12.585934 13.891599 12 15.177659 12 16.548828 L 12 17.705078 C 12 18.193057 11.893274 18.683325 11.689453 19.154297 A 1.50015 1.50015 0 0 0 11.689453 19.158203 C 11.439442 19.7395 11.258734 20.358363 11.142578 21 L 9.5 21 A 1.50015 1.50015 0 0 0 8.0917969 23.019531 L 14.128906 39.402344 C 14.923401 41.559418 16.989555 43 19.289062 43 L 28.710938 43 C 31.010445 43 33.076599 41.559418 33.871094 39.402344 L 39.908203 23.019531 A 1.50015 1.50015 0 0 0 38.5 21 L 35.841797 21 C 35.494991 18.57447 34.761273 16.740341 33.71875 15.402344 L 36.648438 12.474609 A 2 2 0 0 0 38 13 A 2 2 0 0 0 38 9 A 2 2 0 0 0 37.998047 9 A 2 2 0 0 0 36 7 A 2 2 0 0 0 34.527344 10.351562 L 31.439453 13.439453 A 1.50015 1.50015 0 0 0 31.414062 13.466797 C 30.361775 12.921632 29.23766 12.672528 28.189453 12.626953 C 24.75272 12.47753 21.78125 14.183594 21.78125 14.183594 A 1.50015 1.50015 0 0 0 21.767578 14.191406 C 21.310712 13.985401 20.84532 13.785251 20.541016 13.472656 L 20.267578 13.189453 A 1.50015 1.50015 0 0 0 20.265625 13.1875 C 19.536361 12.438682 18.601994 11.969081 17.617188 11.802734 C 17.187601 11.730172 16.748844 11.72641 16.3125 11.771484 L 14.841797 8.8300781 A 1.50015 1.50015 0 0 0 14.833984 8.8164062 A 2 2 0 0 0 14 5 z M 16.556641 14.75 C 16.744676 14.721983 16.934294 14.724658 17.119141 14.755859 C 17.488267 14.818169 17.837703 14.996832 18.115234 15.28125 L 18.390625 15.5625 A 1.50015 1.50015 0 0 0 18.390625 15.564453 C 19.224902 16.421459 20.243718 16.95346 21.253906 17.292969 C 22.959295 17.865945 24.26317 19.256632 24.759766 21 L 14.310547 21 C 14.372747 20.788601 14.357057 20.548725 14.443359 20.347656 L 14.445312 20.34375 C 14.800401 19.521726 15 18.625657 15 17.705078 L 15 16.548828 C 15 15.887266 15.360546 15.294056 15.933594 14.972656 A 1.50015 1.50015 0 0 0 16.207031 14.861328 C 16.323016 14.819314 16.437692 14.767723 16.556641 14.75 z M 28.060547 15.623047 C 29.21718 15.673337 30.228747 15.998766 31.101562 16.941406 C 31.80383 17.699854 32.451031 18.961964 32.800781 21 L 27.847656 21 C 27.483954 19.071417 26.449065 17.385613 25.013672 16.140625 C 25.904799 15.856031 26.989075 15.576461 28.060547 15.623047 z M 11.652344 24 L 12.5 24 L 26.5 24 L 34.509766 24 L 36.347656 24 L 35.242188 27 L 12.757812 27 L 11.652344 24 z M 13.861328 30 L 34.138672 30 L 31.056641 38.365234 C 30.693136 39.35216 29.763428 40 28.710938 40 L 19.289062 40 C 18.236572 40 17.306864 39.35216 16.943359 38.365234 L 13.861328 30 z"/></svg>