<svg xmlns="http://www.w3.org/2000/svg"  viewBox="0 0 48 48" width="50px" height="50px"><path d="M 22.603516 4.125 C 22.500641 4.1195 22.39425 4.16975 22.34375 4.28125 L 21.300781 6.5976562 C 21.092623 6.5904117 20.886488 6.5761719 20.675781 6.5761719 C 20.052554 6.5761719 19.482401 6.6595812 18.935547 6.7773438 L 17.261719 5.1835938 C 17.084719 5.0135938 16.790594 5.1514844 16.808594 5.3964844 L 16.953125 7.4863281 C 16.269684 7.8474884 15.674675 8.2925067 15.162109 8.78125 L 13.492188 8.1210938 C 13.265187 8.0300938 13.044344 8.2672812 13.152344 8.4882812 L 13.974609 10.171875 C 13.851399 10.352214 13.727219 10.533615 13.623047 10.712891 C 13.356316 11.171924 13.162922 11.587831 12.996094 11.982422 C 10.265007 8.3759835 9.0625 5.9667969 9.0625 5.9667969 A 1.50015 1.50015 0 0 0 7.7421875 5.1191406 A 1.50015 1.50015 0 0 0 6.3789062 7.3085938 C 6.3789062 7.3085938 7.8752965 10.248356 11.199219 14.501953 C 10.409817 14.993298 9.6855505 15.581329 9.046875 16.255859 L 6.5917969 15.453125 C 6.3587969 15.377125 6.1524375 15.62875 6.2734375 15.84375 L 7.6015625 18.191406 C 7.3161211 18.687103 7.0640649 19.205472 6.8652344 19.753906 C 6.7695344 20.017899 6.6861027 20.28483 6.6113281 20.552734 L 4.0761719 21.392578 C 3.8431719 21.470578 3.8277344 21.793531 4.0527344 21.894531 L 6.21875 22.861328 C 6.1268409 24.110345 6.2196252 25.368494 6.4609375 26.599609 L 4.4160156 28.023438 C 4.2140156 28.163438 4.2902031 28.478719 4.5332031 28.511719 L 7.0742188 28.847656 C 7.4535019 29.946331 7.9321486 30.998112 8.4882812 31.970703 L 7.203125 34.300781 C 7.085125 34.514781 7.2923906 34.764547 7.5253906 34.685547 L 9.7890625 33.917969 C 10.49631 34.837645 11.277465 35.66285 12.132812 36.382812 L 11.621094 38.804688 C 11.571094 39.044688 11.841016 39.220172 12.041016 39.076172 L 13.951172 37.707031 C 14.909909 38.318174 15.923809 38.834607 16.974609 39.269531 L 17.128906 41.640625 C 17.144906 41.885625 17.452469 41.983016 17.605469 41.791016 L 19.029297 40.011719 C 20.121678 40.345474 21.238292 40.5986 22.359375 40.789062 L 22.892578 43.041016 C 22.948578 43.280016 23.268672 43.324375 23.388672 43.109375 L 24.519531 41.078125 C 25.651623 41.188676 26.777402 41.243396 27.873047 41.242188 C 28.03611 41.242014 28.202936 41.231536 28.367188 41.228516 L 29.623047 43.515625 C 29.741047 43.731625 30.061141 43.688219 30.119141 43.449219 L 30.691406 41.089844 C 31.806687 40.971097 32.926323 40.774646 34.027344 40.486328 L 35.667969 42.248047 C 35.834969 42.428047 36.136766 42.3075 36.134766 42.0625 L 36.111328 39.800781 C 37.092025 39.418368 38.036416 38.945636 38.933594 38.373047 L 40.859375 39.527344 C 41.069375 39.654344 41.325859 39.456703 41.255859 39.220703 L 40.638672 37.15625 C 41.261664 36.630405 41.886039 35.938262 42.177734 34.882812 C 42.251301 34.617245 42.307344 34.353275 42.357422 34.089844 L 44.408203 33.248047 C 44.635203 33.154047 44.628437 32.830094 44.398438 32.746094 L 42.533203 32.064453 C 42.514051 30.832056 42.273973 29.635233 41.900391 28.488281 L 43.642578 26.996094 C 43.829578 26.836094 43.722563 26.530484 43.476562 26.521484 L 41.078125 26.447266 C 40.609232 25.454193 40.072404 24.517355 39.521484 23.638672 L 40.853516 21.757812 C 40.995516 21.557813 40.817125 21.287844 40.578125 21.339844 L 38.353516 21.822266 C 37.842448 21.039022 37.390787 20.197888 36.960938 19.316406 L 38.634766 17.550781 C 38.802766 17.372781 38.663922 17.079656 38.419922 17.097656 L 35.982422 17.275391 C 35.726942 16.728617 35.487504 16.200558 35.207031 15.640625 C 35.070413 15.367856 34.923034 15.105824 34.775391 14.84375 L 36.257812 12.6875 C 36.397813 12.4845 36.213609 12.219437 35.974609 12.273438 L 33.476562 12.855469 C 32.931379 12.135236 32.337794 11.471545 31.699219 10.865234 L 32.6875 8.7265625 C 32.7915 8.5035625 32.565844 8.2702344 32.339844 8.3652344 L 29.892578 9.3925781 C 29.25807 8.9495094 28.590688 8.5576066 27.894531 8.2148438 L 27.935547 5.65625 C 27.939547 5.41025 27.638703 5.2887969 27.470703 5.4667969 L 25.705078 7.3378906 C 25.047767 7.131209 24.37153 6.9663338 23.675781 6.84375 L 22.845703 4.3085938 C 22.806703 4.1920937 22.706391 4.1305 22.603516 4.125 z M 20.675781 9.5761719 C 26.09356 9.5761719 30.110862 12.163583 32.525391 16.984375 C 33.588625 19.107005 34.477005 21.471994 35.996094 23.716797 C 38.064147 26.77343 40.039189 30.378612 39.382812 33.646484 C 27.755813 27.684804 20.014409 20.395709 15.257812 14.783203 C 15.318716 14.442322 15.524482 13.410196 16.216797 12.21875 C 17.033602 10.813062 18.206799 9.5761719 20.675781 9.5761719 z M 13.119141 16.845703 C 18.013084 22.581908 25.786859 29.894512 37.222656 35.908203 C 34.578849 37.549967 31.135262 38.23868 27.869141 38.242188 C 21.805875 38.248888 15.208072 36.504525 11.806641 31.623047 C 9.7183674 28.626391 8.496327 24.057864 9.6855469 20.777344 C 10.289091 19.112588 11.532998 17.730934 13.119141 16.845703 z M 12.703125 20.654297 C 12.158344 20.675672 11.653969 21.016344 11.449219 21.558594 C 11.175219 22.280594 11.540672 23.088328 12.263672 23.361328 C 12.986672 23.634328 15.3125 23.003906 15.3125 23.003906 C 15.3125 23.003906 13.974953 21.016187 13.251953 20.742188 C 13.071203 20.673938 12.884719 20.647172 12.703125 20.654297 z M 16.083984 26.382812 C 16.083984 26.382812 13.689406 26.419953 13.066406 26.876953 C 12.443406 27.332953 12.307625 28.208078 12.765625 28.830078 C 13.224625 29.452078 14.097703 29.588813 14.720703 29.132812 C 15.343703 28.676813 16.083984 26.382813 16.083984 26.382812 z M 19.648438 29.818359 C 19.648438 29.818359 17.299266 30.564219 16.822266 31.199219 C 16.344266 31.834219 16.472422 32.736844 17.107422 33.214844 C 17.741422 33.693844 18.644094 33.568594 19.121094 32.933594 C 19.599094 32.298594 19.648438 29.818359 19.648438 29.818359 z M 24.230469 32.068359 C 24.230469 32.068359 22.483109 33.483641 22.287109 34.181641 C 22.091109 34.879641 22.499266 35.605781 23.197266 35.800781 C 23.894266 35.994781 24.620406 35.586672 24.816406 34.888672 C 25.012406 34.190672 24.230469 32.068359 24.230469 32.068359 z M 28.951172 32.958984 C 28.951172 32.958984 27.977344 34.607609 28.027344 35.224609 C 28.077344 35.840609 28.620328 36.298094 29.236328 36.246094 C 29.852328 36.195094 30.311766 35.655062 30.259766 35.039062 C 30.207766 34.423063 28.951172 32.958984 28.951172 32.958984 z"/></svg>