<svg xmlns="http://www.w3.org/2000/svg"  viewBox="0 0 48 48" width="50px" height="50px"><path d="M 23.976562 3.9785156 A 1.50015 1.50015 0 0 0 23.71875 4.0078125 C 19.728757 4.063356 16.019853 5.2918001 12.917969 7.3652344 A 1.50015 1.50015 0 0 0 12.375 7.7578125 C 7.3146608 11.390502 4 17.30945 4 24 C 4 28.683259 5.6294701 32.986414 8.3359375 36.398438 A 1.50015 1.50015 0 0 0 8.75 36.910156 C 12.363251 41.17151 17.719476 43.906467 23.710938 43.992188 A 1.50015 1.50015 0 0 0 24.28125 43.992188 C 35.179451 43.840477 44 34.933573 44 24 C 44 13.069046 35.183657 4.1636828 24.289062 4.0078125 A 1.50015 1.50015 0 0 0 23.976562 3.9785156 z M 22.5 7.0761719 L 22.5 13.253906 A 1.50015 1.50015 0 0 0 22.5 13.740234 L 22.5 34.253906 A 1.50015 1.50015 0 0 0 22.5 34.740234 L 22.5 40.923828 C 18.244058 40.552885 14.45194 38.621271 11.679688 35.703125 L 13.138672 34 L 16.449219 34 A 1.50015 1.50015 0 0 0 17.742188 33.257812 L 19.794922 29.757812 A 1.50015 1.50015 0 0 0 18.533203 27.482422 A 1.50015 1.50015 0 0 0 17.205078 28.242188 L 15.589844 31 L 12.449219 31 A 1.50015 1.50015 0 0 0 11.310547 31.523438 L 9.7773438 33.3125 C 8.0254567 30.638392 7 27.4438 7 24 C 7 19.283239 8.9102901 15.023481 12 11.947266 L 12 14.5 A 1.50015 1.50015 0 0 0 12.628906 15.720703 L 15.5 17.771484 L 15.5 20.5 A 1.50015 1.50015 0 1 0 18.5 20.5 L 18.5 17 A 1.50015 1.50015 0 0 0 17.871094 15.779297 L 15 13.728516 L 15 9.5878906 C 17.211109 8.2064213 19.757407 7.3152129 22.5 7.0761719 z M 25.5 7.0761719 C 34.19914 7.8343782 41 15.100151 41 24 C 41 32.899849 34.19914 40.165622 25.5 40.923828 L 25.5 35.695312 C 31.373061 34.922953 36 30.078181 36 24 C 36 17.921819 31.373061 13.077047 25.5 12.304688 L 25.5 7.0761719 z M 25.5 15.300781 C 29.738066 16.035449 33 19.544597 33 24 C 33 28.455403 29.738066 31.964551 25.5 32.699219 L 25.5 15.300781 z M 28.621094 18.378906 C 28.237219 18.378906 27.853047 18.525359 27.560547 18.818359 C 27.179547 19.199359 26.845203 20.430141 26.658203 21.244141 C 26.575203 21.603141 26.896859 21.924797 27.255859 21.841797 C 28.069859 21.654797 29.300641 21.320453 29.681641 20.939453 C 30.267641 20.354453 30.267641 19.404359 29.681641 18.818359 C 29.388641 18.525359 29.004969 18.378906 28.621094 18.378906 z M 30.03125 22.5 C 29.50425 22.5 28.421516 23.134125 27.728516 23.578125 C 27.422516 23.773125 27.422516 24.225875 27.728516 24.421875 C 28.421516 24.865875 29.50425 25.5 30.03125 25.5 C 30.84225 25.5 31.5 24.828 31.5 24 C 31.5 23.172 30.84225 22.5 30.03125 22.5 z M 27.255859 26.158203 C 26.896859 26.075203 26.575203 26.396859 26.658203 26.755859 C 26.845203 27.569859 27.179547 28.800641 27.560547 29.181641 C 28.145547 29.767641 29.095641 29.767641 29.681641 29.181641 C 30.267641 28.595641 30.267641 27.645547 29.681641 27.060547 C 29.300641 26.679547 28.069859 26.345203 27.255859 26.158203 z"/></svg>