<svg xmlns="http://www.w3.org/2000/svg"  viewBox="0 0 48 48" width="50px" height="50px"><path d="M 25.779297 4.0488281 A 1.50015 1.50015 0 0 0 25.378906 4.1054688 C 24.069884 4.4566082 23.028893 5.1716175 22.376953 6.0820312 C 21.972524 6.6468054 21.731695 7.2598275 21.582031 7.8730469 C 21.152103 7.7811011 20.668879 7.7086121 20.099609 7.6855469 C 17.232533 7.5694709 14.948494 9.8266008 14.753906 12.476562 A 1.50015 1.50015 0 0 0 14.751953 12.525391 C 14.749253 12.592161 14.747341 12.647234 14.744141 12.744141 C 14.742541 12.792591 14.741434 12.840671 14.740234 12.876953 C 14.739034 12.913233 14.730281 13.045088 14.738281 12.908203 A 1.50015 1.50015 0 0 0 14.736328 12.955078 C 14.712165 13.852692 14.788555 14.728369 14.947266 15.566406 C 14.824451 15.644028 14.698753 15.722232 14.589844 15.796875 C 14.283874 15.077964 13.881589 14.348716 13.300781 13.6875 C 12.186681 12.41916 10.215807 11.569756 8.0097656 12.132812 A 1.5004664 1.5004664 0 1 0 8.75 15.041016 C 10.030958 14.714072 10.477976 15.020306 11.046875 15.667969 C 11.22091 15.866097 11.284371 16.23843 11.433594 16.509766 C 10.703114 16.474516 9.9627834 16.410726 8.7792969 16.712891 C 5.5520901 17.536422 3.7479975 20.842428 4.4101562 23.84375 A 1.50015 1.50015 0 0 0 4.4238281 23.908203 C 4.4199781 23.893764 4.4431943 23.982165 4.4785156 24.117188 C 3.0558524 24.562342 2 25.887161 2 27.445312 C 2 36.513494 9.4318182 43.945312 18.5 43.945312 L 29.5 43.945312 C 38.594719 43.945312 46 36.540033 46 27.445312 C 46 25.749052 44.734154 24.378453 43.119141 24.072266 C 43.136731 24.005036 43.165739 23.8946 43.162109 23.908203 A 1.50015 1.50015 0 0 0 43.177734 23.84375 C 43.839893 20.842428 42.033847 17.536422 38.806641 16.712891 C 37.623592 16.410945 36.884552 16.474533 36.154297 16.509766 C 36.303487 16.238518 36.367028 15.866044 36.541016 15.667969 C 37.109915 15.020309 37.554978 14.714072 38.835938 15.041016 A 1.5007075 1.5007075 0 1 0 39.578125 12.132812 C 37.372083 11.569757 35.40121 12.41916 34.287109 13.6875 C 33.706302 14.348716 33.302064 15.077964 32.996094 15.796875 C 32.745763 15.625237 32.447075 15.443636 32.111328 15.263672 C 32.207087 14.746975 32.278887 14.219938 32.308594 13.679688 L 32.308594 13.675781 C 32.324344 13.423216 32.322479 13.410004 32.324219 13.345703 A 1.50015 1.50015 0 0 0 32.328125 13.304688 L 32.330078 13.226562 A 1.50015 1.50015 0 0 0 32.205078 12.59375 C 31.904633 10.206385 30.043523 8.0878735 27.390625 7.9804688 C 26.111115 7.9286265 25.183141 8.1364626 24.558594 8.3476562 C 24.625706 8.1528274 24.708268 7.9764098 24.814453 7.828125 C 25.054764 7.4925387 25.396273 7.2058136 26.15625 7.0019531 A 1.50015 1.50015 0 0 0 25.779297 4.0488281 z M 19.978516 10.683594 C 20.965318 10.723574 21.363614 10.87736 21.751953 11.050781 C 22.140293 11.224203 22.694418 11.600364 23.591797 11.636719 C 24.489387 11.673079 25.071656 11.342667 25.472656 11.201172 C 25.873656 11.059677 26.282815 10.938537 27.269531 10.978516 C 28.317175 11.020926 29.33417 12.314332 29.328125 13.234375 C 29.328125 13.234375 29.328125 13.236328 29.328125 13.236328 C 29.318225 13.420502 29.300933 13.708437 29.314453 13.492188 A 1.50015 1.50015 0 0 0 29.314453 13.505859 C 29.299102 13.790831 29.260056 14.066869 29.220703 14.341797 C 27.011238 14.128192 24.994849 15.250368 23.792969 16.966797 C 22.490278 15.106399 20.229522 13.946211 17.806641 14.425781 C 17.751741 13.975483 17.72353 13.512553 17.736328 13.037109 C 17.736332 13.030509 17.737481 13.001419 17.738281 12.980469 C 17.739581 12.942179 17.740588 12.892549 17.742188 12.84375 C 17.744688 12.77032 17.745294 12.721922 17.746094 12.695312 L 17.746094 12.693359 C 17.814594 11.775587 18.894193 10.639694 19.978516 10.683594 z M 18.798828 17.328125 C 20.130472 17.338445 21.560212 18.449943 21.888672 19.572266 C 21.902562 19.626886 21.900643 19.623806 21.914062 19.677734 C 21.928632 19.736254 21.944348 19.794403 21.955078 19.837891 C 21.965798 19.881381 22.012227 20.112112 21.960938 19.855469 A 1.50015 1.50015 0 0 0 21.972656 19.912109 C 22.309708 21.311318 22.366628 22.694545 22.212891 23.945312 L 7.5488281 23.945312 C 7.5187386 23.845041 7.4849063 23.748495 7.4570312 23.646484 L 7.4511719 23.621094 C 7.45079 23.619694 7.4495987 23.618588 7.4492188 23.617188 C 7.3971937 23.410688 7.3639417 23.280871 7.3398438 23.191406 C 7.0559461 21.88692 8.0248011 20.00107 9.5214844 19.619141 C 10.739989 19.308033 11.329613 19.348646 11.876953 19.419922 C 12.194615 19.461292 12.730339 19.426619 13.181641 19.449219 A 1.50015 1.50015 0 0 0 14.945312 18.998047 C 15.329441 18.762243 15.815872 18.537748 16.074219 18.349609 C 16.520245 18.024796 17.019241 17.705663 18.238281 17.394531 C 18.421048 17.347892 18.608593 17.326651 18.798828 17.328125 z M 28.787109 17.328125 C 28.9774 17.326617 29.164828 17.347876 29.347656 17.394531 C 30.565971 17.705151 31.065583 18.022735 31.511719 18.347656 C 31.770017 18.535775 32.256676 18.760279 32.640625 18.996094 A 1.50015 1.50015 0 0 0 34.404297 19.449219 C 34.855907 19.426709 35.391347 19.461352 35.708984 19.419922 C 36.256282 19.348532 36.845511 19.308033 38.064453 19.619141 C 39.561136 20.00107 40.529991 21.88692 40.246094 23.191406 C 40.208284 23.334877 40.128485 23.645349 40.132812 23.628906 C 40.103752 23.737141 40.061262 23.838684 40.029297 23.945312 L 25.421875 23.945312 C 25.263537 22.687618 25.273825 21.321145 25.613281 19.912109 C 25.623631 19.870579 25.644035 19.788096 25.671875 19.675781 C 25.684985 19.622891 25.683136 19.629951 25.697266 19.574219 C 26.024984 18.451507 27.455078 17.338679 28.787109 17.328125 z M 5.5 26.945312 L 42.5 26.945312 C 42.795045 26.945312 43 27.150267 43 27.445312 C 43 34.918594 36.973281 40.945312 29.5 40.945312 L 18.5 40.945312 C 11.068182 40.945312 5 34.877131 5 27.445312 C 5 27.150267 5.2049548 26.945314 5.5 26.945312 z"/></svg>