<svg xmlns="http://www.w3.org/2000/svg"  viewBox="0 0 48 48" width="50px" height="50px"><path d="M 23.982422 7.0449219 C 22.226561 7.0456969 20.471197 7.7452091 19.191406 9.1425781 L 2.3945312 27.486328 A 1.50015 1.50015 0 0 0 2.2070312 29.259766 C 6.4723607 36.510933 14.947766 42 24 42 C 33.178015 42 41.603849 36.720533 45.808594 29.234375 A 1.50015 1.50015 0 0 0 45.605469 27.486328 L 28.775391 9.1386719 C 27.494758 7.7417354 25.738282 7.0441468 23.982422 7.0449219 z M 23.984375 10.019531 C 24.923765 10.019056 25.863086 10.400952 26.564453 11.166016 L 38.953125 24.671875 C 34.882154 29.281586 29.42141 33 24 33 C 18.732065 33 13.23417 29.189238 9.1132812 24.589844 L 21.404297 11.167969 C 22.105506 10.402338 23.044985 10.020006 23.984375 10.019531 z M 25.5 16 A 1.5 1.5 0 0 0 25.5 19 A 1.5 1.5 0 0 0 25.5 16 z M 19.5 21 A 1.5 1.5 0 0 0 19.5 24 A 1.5 1.5 0 0 0 19.5 21 z M 27.5 23 A 1.5 1.5 0 0 0 27.5 26 A 1.5 1.5 0 0 0 27.5 23 z M 7.0761719 26.816406 C 11.507327 31.72099 17.453079 36 24 36 C 30.633233 36 36.588146 31.822832 40.992188 26.894531 L 42.556641 28.601562 C 38.735484 34.643217 31.641689 39 24 39 C 16.559843 39 9.3400848 34.45861 5.4550781 28.585938 L 7.0761719 26.816406 z"/></svg>