<svg xmlns="http://www.w3.org/2000/svg"  viewBox="0 0 48 48" width="50px" height="50px"><path d="M 25.779297 6.0214844 A 1.50015 1.50015 0 0 0 25.378906 6.078125 C 24.069884 6.4292645 23.028893 7.1442738 22.376953 8.0546875 C 21.972524 8.6194616 21.731695 9.2324836 21.582031 9.8457031 C 21.152103 9.7537574 20.668879 9.6812684 20.099609 9.6582031 C 17.232533 9.5421272 14.948494 11.797303 14.753906 14.447266 A 1.50015 1.50015 0 0 0 14.751953 14.498047 C 14.749253 14.564817 14.747341 14.61989 14.744141 14.716797 C 14.742541 14.765247 14.741434 14.813337 14.740234 14.849609 C 14.739034 14.885889 14.730281 15.017745 14.738281 14.880859 A 1.50015 1.50015 0 0 0 14.736328 14.927734 C 14.711678 15.826669 14.7866 16.702751 14.945312 17.541016 C 14.823407 17.618135 14.698063 17.695336 14.589844 17.769531 C 14.283874 17.05062 13.881589 16.321373 13.300781 15.660156 C 12.186681 14.391816 10.215807 13.544366 8.0097656 14.107422 A 1.50015 1.50015 0 1 0 8.75 17.013672 C 10.030958 16.686728 10.477976 16.992962 11.046875 17.640625 C 11.22091 17.838754 11.284371 18.211087 11.433594 18.482422 C 10.703114 18.447172 9.9627834 18.383382 8.7792969 18.685547 C 5.5520901 19.509079 3.7479975 22.815084 4.4101562 25.816406 A 1.50015 1.50015 0 0 0 4.4257812 25.880859 C 4.4172113 25.848719 4.6017956 26.567339 4.546875 26.347656 A 1.50015 1.50015 0 0 0 4.5546875 26.373047 C 4.9105916 27.692805 5.4351225 28.916607 6.0859375 30.015625 C 4.3643348 30.226552 3 31.699457 3 33.472656 C 3 38.149313 6.823343 41.972656 11.5 41.972656 L 36.5 41.972656 C 41.176657 41.972656 45 38.149313 45 33.472656 C 45 31.560348 43.419208 29.977029 41.507812 29.972656 C 42.150427 28.881305 42.680695 27.679905 43.033203 26.373047 A 1.50015 1.50015 0 0 0 43.035156 26.365234 C 43.050046 26.308654 43.172819 25.840697 43.162109 25.880859 A 1.50015 1.50015 0 0 0 43.177734 25.816406 C 43.839893 22.815084 42.033847 19.509079 38.806641 18.685547 C 37.623592 18.383601 36.884552 18.447189 36.154297 18.482422 C 36.303487 18.211174 36.367028 17.8387 36.541016 17.640625 C 37.109915 16.992965 37.554978 16.686728 38.835938 17.013672 A 1.50015 1.50015 0 1 0 39.578125 14.107422 C 37.372083 13.544366 35.40121 14.391816 34.287109 15.660156 C 33.706302 16.321373 33.302064 17.05062 32.996094 17.769531 C 32.744799 17.597233 32.444875 17.415014 32.107422 17.234375 C 32.203379 16.717602 32.278577 16.192112 32.308594 15.652344 L 32.308594 15.650391 C 32.324714 15.392219 32.322439 15.381841 32.324219 15.316406 A 1.50015 1.50015 0 0 0 32.328125 15.277344 L 32.330078 15.201172 L 32.330078 15.199219 L 32.330078 15.197266 A 1.50015 1.50015 0 0 0 32.207031 14.566406 C 31.907092 12.178628 30.043899 10.060545 27.390625 9.953125 C 26.111115 9.9012828 25.183141 10.109119 24.558594 10.320312 C 24.625706 10.125484 24.708268 9.9490663 24.814453 9.8007812 C 25.054764 9.465195 25.396273 9.180423 26.15625 8.9765625 A 1.50015 1.50015 0 0 0 25.779297 6.0214844 z M 19.978516 12.65625 C 20.965318 12.69623 21.363614 12.850016 21.751953 13.023438 C 22.140293 13.196858 22.694418 13.571067 23.591797 13.607422 C 24.489387 13.643782 25.071656 13.315323 25.472656 13.173828 C 25.873656 13.032333 26.282815 12.911193 27.269531 12.951172 C 28.317175 12.993592 29.334171 14.286988 29.328125 15.207031 C 29.328125 15.207031 29.328125 15.208984 29.328125 15.208984 C 29.318225 15.393159 29.300933 15.681093 29.314453 15.464844 A 1.50015 1.50015 0 0 0 29.314453 15.476562 C 29.298938 15.761887 29.264259 16.039572 29.224609 16.314453 C 27.048589 16.09893 25.021304 17.150174 23.792969 18.802734 C 22.459507 17.008739 20.185419 15.934227 17.800781 16.410156 C 17.745433 15.957251 17.723216 15.487937 17.736328 15.009766 C 17.736376 15.002466 17.737481 14.972432 17.738281 14.951172 C 17.739581 14.912882 17.740587 14.865202 17.742188 14.816406 C 17.744588 14.743696 17.745194 14.695707 17.746094 14.667969 C 17.813504 13.749931 18.893592 12.612326 19.978516 12.65625 z M 18.800781 19.300781 C 20.133896 19.311454 21.564265 20.425408 21.890625 21.548828 A 1.50015 1.50015 0 0 0 21.890625 21.550781 C 21.904265 21.604401 21.903296 21.599291 21.916016 21.650391 C 21.930586 21.708911 21.944358 21.767059 21.955078 21.810547 C 21.965798 21.854037 22.012227 22.084768 21.960938 21.828125 A 1.50015 1.50015 0 0 0 21.972656 21.884766 C 21.977354 21.904306 21.979776 21.923818 21.984375 21.943359 C 21.471414 21.804557 20.855556 21.690785 20.099609 21.660156 C 17.232533 21.54408 14.948494 23.799257 14.753906 26.449219 A 1.50015 1.50015 0 0 0 14.751953 26.5 C 14.749253 26.56677 14.747341 26.61989 14.744141 26.716797 C 14.742541 26.765247 14.741434 26.813327 14.740234 26.849609 C 14.739034 26.885889 14.730281 27.017745 14.738281 26.880859 A 1.50015 1.50015 0 0 0 14.736328 26.929688 C 14.707868 27.990797 14.851908 28.999973 15.076172 29.972656 L 9.75 29.972656 C 8.75991 28.843706 7.9225062 27.333648 7.453125 25.595703 C 7.4527317 25.594203 7.4515619 25.593297 7.4511719 25.591797 C 7.3994619 25.386448 7.3640879 25.259885 7.3398438 25.169922 L 7.3398438 25.167969 C 7.0532372 23.863349 8.023351 21.974097 9.5214844 21.591797 C 10.739989 21.280689 11.331566 21.321302 11.878906 21.392578 C 12.196369 21.433918 12.730716 21.399175 13.181641 21.421875 A 1.50015 1.50015 0 0 0 14.945312 20.970703 C 15.329441 20.734899 15.815872 20.510404 16.074219 20.322266 C 16.520245 19.997453 17.019241 19.67832 18.238281 19.367188 C 18.421223 19.320504 18.610336 19.299257 18.800781 19.300781 z M 28.787109 19.300781 C 28.9774 19.299274 29.164828 19.320532 29.347656 19.367188 C 30.565971 19.677806 31.065583 19.997345 31.511719 20.322266 C 31.770466 20.510711 32.25762 20.734571 32.642578 20.970703 A 1.50015 1.50015 0 0 0 34.404297 21.421875 C 34.855907 21.399365 35.391347 21.434008 35.708984 21.392578 C 36.256282 21.321188 36.845511 21.28069 38.064453 21.591797 C 39.561136 21.973727 40.529991 23.859577 40.246094 25.164062 C 40.208284 25.307534 40.128485 25.618006 40.132812 25.601562 C 39.664716 27.330706 38.836606 28.847189 37.851562 29.972656 L 31.802734 29.972656 C 31.999235 29.209275 32.263513 28.477194 32.308594 27.652344 L 32.308594 27.646484 C 32.323984 27.399447 32.322509 27.383505 32.324219 27.320312 A 1.50015 1.50015 0 0 0 32.328125 27.277344 L 32.330078 27.199219 A 1.50015 1.50015 0 0 0 32.205078 26.566406 C 31.904715 24.179048 30.043523 22.062483 27.390625 21.955078 C 26.678851 21.92624 26.081088 21.97756 25.576172 22.064453 C 25.589716 22.004278 25.598776 21.945045 25.613281 21.884766 C 25.623731 21.842856 25.644245 21.759928 25.671875 21.648438 C 25.684985 21.595537 25.683136 21.602608 25.697266 21.546875 C 26.024984 20.424163 27.455078 19.311335 28.787109 19.300781 z M 19.978516 24.65625 C 20.965318 24.69623 21.363614 24.851969 21.751953 25.025391 C 22.140293 25.198812 22.694418 25.573021 23.591797 25.609375 C 24.489387 25.645735 25.071656 25.317276 25.472656 25.175781 C 25.873656 25.034286 26.282815 24.911193 27.269531 24.951172 C 28.317175 24.993592 29.33417 26.286989 29.328125 27.207031 C 29.328125 27.207031 29.328125 27.208984 29.328125 27.208984 C 29.318225 27.393159 29.300933 27.681093 29.314453 27.464844 A 1.50015 1.50015 0 0 0 29.314453 27.478516 C 29.266283 28.378776 29.045308 29.204058 28.775391 29.972656 L 18.275391 29.972656 C 17.976824 29.063426 17.707068 28.100759 17.736328 27.009766 C 17.736332 27.003166 17.737481 26.974065 17.738281 26.953125 C 17.739581 26.914835 17.740588 26.865205 17.742188 26.816406 C 17.744688 26.742976 17.745294 26.694578 17.746094 26.667969 L 17.746094 26.666016 C 17.814594 25.748244 18.894194 24.61235 19.978516 24.65625 z M 6.5 32.972656 L 41.5 32.972656 C 41.795045 32.972656 42 33.177611 42 33.472656 C 42 36.527999 39.555343 38.972656 36.5 38.972656 L 11.5 38.972656 C 8.444657 38.972656 6 36.527999 6 33.472656 C 6 33.177611 6.2049548 32.972656 6.5 32.972656 z"/></svg>