<svg xmlns="http://www.w3.org/2000/svg"  viewBox="0 0 48 48" width="50px" height="50px"><path d="M 27.5 1 C 25.75 1 24.355507 1.4608997 23.439453 2.3769531 C 22.5234 3.2930065 22.25 4.5 22.25 5.5 C 22.25 6.2153013 22.4269 6.7798995 22.576172 7.3496094 C 20.498794 7.7419472 18.572141 8.727059 17.099609 10.394531 C 15.28423 12.45024 13.999381 15.233804 13.392578 18.400391 C 13.029035 20.297952 12.013629 22.050346 10.617188 23.566406 C 8.3777919 25.997781 7 29.11285 7 32.5 C 7 40.646574 14.760093 47 24 47 C 33.239907 47 41 40.646574 41 32.5 C 41 29.11285 39.621952 25.99666 37.382812 23.564453 C 35.98703 22.04911 34.972279 20.298145 34.607422 18.400391 L 34.607422 18.398438 C 34.000456 15.233163 32.715403 12.449682 30.900391 10.394531 C 29.504075 8.8134732 27.689 7.877811 25.740234 7.4277344 C 25.600413 7.0889598 25.25 6.3273901 25.25 5.5 C 25.25 5 25.3516 4.7069935 25.560547 4.4980469 C 25.769493 4.2891003 26.25 4 27.5 4 A 1.50015 1.50015 0 1 0 27.5 1 z M 24 10 C 25.678715 10 27.26872 10.814173 28.652344 12.380859 C 30.035967 13.947546 31.142925 16.255953 31.662109 18.964844 C 32.155546 21.534397 33.490005 23.767478 35.175781 25.597656 C 36.972642 27.549449 38 29.91915 38 32.5 C 38 38.713426 31.880093 44 24 44 C 16.119907 44 10 38.713426 10 32.5 C 10 29.91915 11.027614 27.548281 12.824219 25.597656 C 14.509776 23.767716 15.845434 21.535283 16.337891 18.964844 C 16.857087 16.25543 17.964036 13.94765 19.347656 12.380859 C 20.731276 10.814068 22.321285 10 24 10 z"/></svg>