<svg xmlns="http://www.w3.org/2000/svg"  viewBox="0 0 48 48" width="50px" height="50px"><path d="M 24.339844 3.0058594 C 23.927333 2.9938653 23.519286 3.0041598 23.117188 3.0371094 C 17.487806 3.4984035 13 8.241886 13 14 L 13 14.324219 C 13 15.652089 12.519276 16.943554 11.660156 18.015625 C 9.3750873 20.867013 8 24.523916 8 28.5 C 8 37.567679 15.153339 45 24 45 C 32.846661 45 40 37.567679 40 28.5 C 40 24.523916 38.624913 20.867013 36.339844 18.015625 C 35.480493 16.943265 35 15.653303 35 14.324219 C 35 8.8364929 31.102896 3.8872565 25.589844 3.1113281 C 25.16933 3.0521362 24.752355 3.0178535 24.339844 3.0058594 z M 24.246094 6.0019531 C 24.551011 6.0115458 24.859764 6.0380982 25.171875 6.0820312 C 29.122823 6.638103 32 10.253944 32 14.324219 C 32 16.377135 32.743398 18.324985 33.998047 19.890625 C 35.868978 22.225237 37 25.214084 37 28.5 C 37 36.000321 31.169339 42 24 42 C 16.830661 42 11 36.000321 11 28.5 C 11 25.214084 12.131022 22.225237 14.001953 19.890625 C 15.256833 18.324696 16 16.376349 16 14.324219 L 16 14 C 16 9.4819079 19.672331 5.8580629 24.246094 6.0019531 z M 23.982422 21 A 1.50015 1.50015 0 0 0 23.046875 21.341797 C 20.748476 23.234596 19.448408 25.185118 18.931641 27.091797 C 18.414873 28.998476 18.716958 30.78793 19.320312 32.210938 C 20.380733 34.711925 22.114789 36.080542 22.574219 36.427734 A 1.50015 1.50015 0 0 0 23.710938 37.009766 A 1.50015 1.50015 0 0 0 23.830078 37.009766 A 1.50015 1.50015 0 0 0 25.021484 36.376953 A 1.50015 1.50015 0 0 0 25.023438 36.375 C 27.114736 34.820581 28.43011 33.107353 28.933594 31.349609 C 29.474641 29.460727 29.153762 27.646764 28.544922 26.175781 C 27.327243 23.233816 24.953125 21.341797 24.953125 21.341797 A 1.50015 1.50015 0 0 0 23.982422 21 z M 24.011719 24.640625 C 24.61067 25.30686 25.315893 26.218771 25.773438 27.324219 C 26.199348 28.353236 26.369047 29.414273 26.050781 30.525391 C 25.795586 31.416318 25.032316 32.427399 23.792969 33.486328 C 23.217243 32.909582 22.534418 32.106013 22.082031 31.039062 C 21.678386 30.08707 21.50444 29.064024 21.826172 27.876953 C 22.078223 26.946978 22.83473 25.835755 24.011719 24.640625 z"/></svg>