<svg xmlns="http://www.w3.org/2000/svg"  viewBox="0 0 48 48" width="50px" height="50px"><path d="M 17.5 5 C 13.36451 5 9.6738477 7.2704032 7.1035156 10.730469 C 4.5331836 14.190534 3 18.866407 3 24 C 3 24.070496 3.0072355 24.138663 3.0078125 24.208984 A 1.50015 1.50015 0 0 0 3.0332031 24.892578 C 3.2008927 29.672087 4.6839347 34.0124 7.1035156 37.269531 C 9.6738477 40.729597 13.36451 43 17.5 43 C 17.740753 43 17.979192 42.991739 18.216797 42.976562 A 1.50015 1.50015 0 0 0 18.5 43 L 23 43 C 31.843464 43 39.242189 36.914597 41.347656 28.708984 C 43.427499 28.106589 45 26.266204 45 24 C 45 21.733796 43.427499 19.893411 41.347656 19.291016 C 39.242189 11.085403 31.843464 5 23 5 L 18.5 5 A 1.50015 1.50015 0 0 0 18.214844 5.0234375 C 17.977877 5.0083432 17.740098 5 17.5 5 z M 17.5 8 C 19.073927 8 20.583123 8.4473953 21.970703 9.2695312 L 16.947266 21.408203 L 10.904297 10.933594 C 12.808323 9.0579714 15.076271 8 17.5 8 z M 25.664062 8.2890625 C 32.193386 9.3811958 37.378917 14.367402 38.681641 20.8125 A 1.50015 1.50015 0 0 0 40.085938 22.013672 C 41.165582 22.060663 42 22.910069 42 24 C 42 25.089931 41.165582 25.939337 40.085938 25.986328 A 1.50015 1.50015 0 0 0 38.681641 27.1875 C 37.371713 33.668239 32.150652 38.72342 25.572266 39.785156 C 26.418123 39.044693 27.201208 38.205482 27.896484 37.269531 C 30.466816 33.809466 32 29.133593 32 24 C 32 18.866407 30.466816 14.190534 27.896484 10.730469 C 27.225688 9.8274727 26.475461 9.0107958 25.664062 8.2890625 z M 24.402344 11.244141 C 24.7783 11.640699 25.145324 12.057858 25.488281 12.519531 C 27.463787 15.178867 28.77598 18.873406 28.962891 23 L 19.539062 23 L 24.402344 11.244141 z M 8.8886719 13.443359 L 14.402344 23 L 6.0371094 23 C 6.2034284 19.328036 7.263343 16.005106 8.8886719 13.443359 z M 6.0996094 26 L 15.048828 26 L 10.597656 36.755859 C 10.2217 36.359301 9.854676 35.942142 9.5117188 35.480469 C 7.6970644 33.037663 6.4387909 29.721457 6.0996094 26 z M 19.597656 26 L 28.900391 26 C 28.561209 29.721457 27.302936 33.037663 25.488281 35.480469 C 25.40892 35.587302 25.321438 35.679786 25.240234 35.783203 L 19.597656 26 z M 17.392578 28.183594 L 23.050781 37.988281 C 21.382189 39.282504 19.493534 40 17.5 40 C 15.926073 40 14.416877 39.552605 13.029297 38.730469 L 17.392578 28.183594 z"/></svg>