<svg xmlns="http://www.w3.org/2000/svg"  viewBox="0 0 48 48" width="50px" height="50px"><path d="M 35.957031 3 A 1.50015 1.50015 0 0 0 34.919922 3.4394531 L 3.4394531 34.919922 A 1.50015 1.50015 0 0 0 3.4394531 37.041016 C 12.705671 46.307233 27.774798 46.307233 37.041016 37.041016 C 46.307233 27.774798 46.307233 12.705671 37.041016 3.4394531 A 1.50015 1.50015 0 0 0 35.957031 3 z M 35.873047 6.7285156 C 42.935015 14.89323 42.676255 27.163588 34.919922 34.919922 C 27.163588 42.676255 14.89323 42.935019 6.7285156 35.873047 L 8.796875 33.804688 C 15.760264 39.682102 26.241047 39.353622 32.798828 32.796875 C 39.356198 26.24054 39.682943 15.761014 33.804688 8.796875 L 35.873047 6.7285156 z M 31.685547 10.916016 C 32.705823 12.165247 33.477916 13.545977 34.027344 14.992188 L 25.259766 17.341797 L 31.685547 10.916016 z M 34.798828 17.892578 C 35.048255 19.448555 35.048676 21.033965 34.798828 22.589844 L 26.037109 20.240234 L 34.798828 17.892578 z M 25.259766 23.138672 L 34.027344 25.486328 C 33.477764 26.932826 32.704252 28.313188 31.683594 29.5625 L 25.259766 23.138672 z M 17.341797 25.259766 L 14.994141 34.025391 C 13.5481 33.475944 12.166999 32.703865 10.917969 31.683594 L 17.341797 25.259766 z M 23.138672 25.259766 L 29.5625 31.683594 C 28.312897 32.703865 26.932771 33.476085 25.486328 34.025391 L 23.138672 25.259766 z M 20.240234 26.037109 L 22.587891 34.796875 C 21.032606 35.046403 19.449751 35.046224 17.894531 34.796875 L 20.240234 26.037109 z"/></svg>