<svg xmlns="http://www.w3.org/2000/svg"  viewBox="0 0 48 48" width="50px" height="50px"><path d="M 35.302734 4.5019531 C 34.029956 4.5019531 32.693842 5.365188 31.873047 6.7675781 C 31.052252 8.1699683 30.413991 10.161671 29.732422 13.240234 C 29.349223 14.970772 28.88346 16.437195 28.357422 17.75 C 26.166208 15.438634 23.158122 14.426704 19.826172 14.470703 A 1.50015 1.50015 0 0 0 19.712891 14.476562 C 16.405098 14.773402 13.70537 16.585778 11.794922 18.755859 C 9.8844739 20.925941 8.6923879 23.442229 8.3710938 25.652344 C 8.1753399 26.998919 8.8349023 28.256754 9.8339844 28.914062 C 10.833066 29.571372 12.280706 29.667871 13.425781 28.912109 C 15.16434 27.762326 17.100951 25.925159 19.150391 24.300781 C 20.831096 22.968662 22.573698 21.842085 24.015625 21.337891 C 24.114228 21.652648 24.150473 22.065657 23.888672 22.732422 C 23.701471 23.209589 23.358418 23.685841 22.917969 24.101562 C 19.700216 27.140814 16.063087 28.984345 11.894531 31.117188 A 1.50015 1.50015 0 0 0 11.892578 31.117188 C 8.9910508 32.603133 6.5648888 34.241062 5.0800781 36.679688 C 4.4736175 37.655907 4.5065605 38.681069 4.7675781 39.605469 A 1.50015 1.50015 0 0 0 4.9023438 40.033203 C 4.9227931 40.088614 4.9352638 40.148787 4.9570312 40.203125 C 5.3827691 41.265885 6.1109484 42.304272 7.4433594 42.685547 C 9.1084065 43.160933 10.785514 43.158203 12.236328 43.158203 C 20.101963 43.158203 26.726579 39.796457 31.859375 34.958984 C 31.701997 36.485154 31.57047 37.9832 31.572266 39.298828 C 31.573566 40.275755 31.631176 41.155546 31.861328 41.974609 C 32.09148 42.793673 32.593738 43.743723 33.638672 44.105469 C 33.662222 44.114969 33.683614 44.124506 33.708984 44.134766 A 1.50015 1.50015 0 0 0 34.015625 44.222656 C 35.420876 44.465814 36.700384 43.834247 37.726562 42.970703 C 38.752742 42.107159 39.643575 40.943628 40.447266 39.609375 C 42.054647 36.940869 43.293427 33.588884 43.751953 30.5625 C 44.016941 28.816022 43.251571 27.236003 42.203125 26.126953 C 41.154679 25.017903 39.815605 24.245167 38.496094 23.738281 C 38.452168 23.721421 38.409148 23.707831 38.365234 23.691406 C 39.491004 20.882245 40.109375 17.805631 40.109375 13.964844 C 40.109375 11.870779 39.83422 9.7548166 39.191406 8.0019531 C 38.869999 7.1255214 38.458931 6.3269708 37.84375 5.6699219 C 37.228569 5.0128729 36.31392 4.5019531 35.302734 4.5019531 z M 35.125 7.5019531 C 35.176866 7.4969812 35.232929 7.5019531 35.302734 7.5019531 C 35.393544 7.5019531 35.442978 7.4950031 35.654297 7.7207031 C 35.865616 7.9464042 36.145407 8.409088 36.375 9.0351562 C 36.834186 10.287293 37.109375 12.152909 37.109375 13.964844 C 37.109375 17.631725 36.534524 20.316724 35.470703 22.861328 C 35.369096 22.839297 35.242438 22.804837 35.146484 22.785156 C 34.68147 22.689776 34.286207 22.622651 33.998047 22.578125 C 33.853967 22.555865 33.737558 22.538934 33.648438 22.527344 C 33.603878 22.521544 33.567618 22.517542 33.533203 22.513672 C 33.498798 22.509826 33.627697 22.5 33.328125 22.5 A 1.50015 1.50015 0 0 0 33.269531 22.501953 A 1.50015 1.50015 0 0 0 32.751953 22.425781 A 1.50015 1.50015 0 0 0 31.722656 22.884766 C 31.666435 22.941419 31.559306 23.060005 31.492188 23.128906 C 31.287549 22.29297 30.916727 21.418185 30.365234 20.613281 C 31.302819 18.707997 32.076547 16.524267 32.660156 13.888672 C 33.311588 10.946235 33.951435 9.157063 34.462891 8.2832031 C 34.846482 7.6278083 34.969401 7.5168688 35.125 7.5019531 z M 19.945312 17.476562 C 21.580264 17.461964 22.913572 17.693902 24.066406 18.195312 A 1.50015 1.50015 0 0 0 23.744141 18.384766 C 21.409119 18.964983 19.260896 20.386758 17.287109 21.951172 C 15.110143 23.676626 13.10289 25.528572 11.773438 26.408203 C 11.624512 26.506493 11.58759 26.47549 11.482422 26.40625 C 11.377254 26.33706 11.312597 26.271409 11.339844 26.083984 C 11.54655 24.662099 12.511823 22.48195 14.046875 20.738281 C 15.573672 19.00399 17.597363 17.699407 19.945312 17.476562 z M 27.041016 21.556641 C 27.826508 22.165305 28.356181 22.92907 28.580078 23.847656 C 28.840848 24.917523 28.668397 26.101213 28.603516 26.419922 C 27.750794 27.481107 26.887749 28.488834 25.921875 29.330078 C 24.721936 30.375036 23.377423 31.283212 21.955078 32.089844 C 18.649628 33.965988 15.038718 35.413457 11.363281 36.591797 C 10.283619 36.937542 9.2123943 37.254883 8.1464844 37.527344 C 9.2387683 36.153437 10.950679 34.971604 13.259766 33.789062 C 17.41721 31.661905 21.382268 29.679953 24.978516 26.283203 C 25.678067 25.622925 26.296842 24.808958 26.681641 23.828125 C 27.001964 23.012313 27.079526 22.249096 27.041016 21.556641 z M 35.466797 25.984375 C 36.110435 26.143572 36.753566 26.283288 37.419922 26.539062 C 38.39641 26.914178 39.398133 27.52605 40.023438 28.1875 C 40.648741 28.84895 40.889168 29.425806 40.785156 30.111328 C 40.400683 32.648944 39.252572 35.778756 37.876953 38.0625 C 37.189144 39.204372 36.438242 40.134419 35.794922 40.675781 C 35.264519 41.122122 34.981005 41.149842 34.75 41.164062 C 34.75 41.164062 34.75 41.162109 34.75 41.162109 C 34.649972 40.80613 34.573401 40.127042 34.572266 39.294922 C 34.569966 37.630682 34.819814 35.345765 35.074219 33.070312 C 35.328623 30.794861 35.590581 28.535074 35.568359 26.697266 C 35.565259 26.436876 35.481609 26.229019 35.466797 25.984375 z M 32.535156 26.447266 C 32.542356 26.575233 32.566649 26.590671 32.568359 26.732422 C 32.579346 27.640821 32.486159 28.839514 32.363281 30.123047 A 1.5001855 1.5001855 0 0 0 32.072266 30.388672 C 31.603494 30.948357 31.110993 31.488747 30.59375 32.009766 C 25.77379 36.866124 19.653521 40.158203 12.236328 40.158203 C 11.522735 40.158203 10.812092 40.148888 10.138672 40.099609 C 10.861782 39.891892 11.577051 39.674113 12.279297 39.449219 C 16.08986 38.227558 19.890997 36.711074 23.435547 34.699219 C 24.993202 33.81585 26.506517 32.798839 27.892578 31.591797 C 29.084949 30.553281 30.082784 29.401702 31.007812 28.244141 A 1.50015 1.50015 0 0 0 31.185547 28.019531 C 31.356099 27.80385 31.528783 27.587996 31.695312 27.373047 C 31.815963 27.21743 32.205965 26.812651 32.535156 26.447266 z"/></svg>