<svg xmlns="http://www.w3.org/2000/svg"  viewBox="0 0 48 48" width="50px" height="50px"><path d="M 33.527344 1.9960938 A 1.5003992 1.5003992 0 0 0 33.46875 1.9980469 A 1.50015 1.50015 0 0 0 33.363281 2.0058594 C 30.115335 2.3011272 28.249275 4.3306279 27.541016 6.140625 C 27.407136 6.4827625 27.312393 6.8159398 27.234375 7.1386719 L 26.615234 6.6679688 C 25.992672 6.1960407 25.246282 5.9609188 24.5 5.9609375 C 23.753718 5.9609562 23.007163 6.1974576 22.384766 6.6699219 L 20.765625 7.8984375 C 20.677226 7.9654987 20.57266 8 20.462891 8 L 18.556641 8 C 17.171961 8 15.909397 8.8242562 15.351562 10.089844 L 15.351562 10.091797 L 14.166016 12.791016 L 14.164062 12.791016 C 14.127062 12.875546 14.067892 12.949436 13.990234 13.001953 L 11.537109 14.662109 C 10.577761 15.312159 10.001953 16.401065 10.001953 17.560547 L 10.001953 21.175781 C 10.001953 21.227991 9.9923834 21.278704 9.9746094 21.332031 L 8.7871094 24.892578 C 8.5478547 25.610342 8.5478547 26.387705 8.7871094 27.105469 L 9.9746094 30.667969 L 9.9765625 30.667969 C 9.9929535 30.716899 10.001953 30.772009 10.001953 30.824219 L 10.001953 34.439453 C 10.001953 35.598935 10.577761 36.685887 11.537109 37.335938 L 13.990234 38.998047 C 14.066654 39.049727 14.126592 39.121454 14.166016 39.210938 L 15.351562 41.908203 C 15.908781 43.176353 17.170263 43.998047 18.554688 43.998047 L 20.462891 43.998047 C 20.57266 43.998047 20.675273 44.034498 20.763672 44.101562 L 22.384766 45.330078 C 23.629889 46.273934 25.370111 46.273934 26.615234 45.330078 L 28.236328 44.101562 C 28.324728 44.034503 28.42734 43.998047 28.537109 43.998047 L 30.445312 43.998047 C 31.829738 43.998047 33.091219 43.176353 33.648438 41.908203 L 34.832031 39.214844 C 34.871275 39.125647 34.932437 39.053189 35.011719 39 L 37.449219 37.365234 C 38.417347 36.716303 39 35.623239 39 34.458984 L 39 30.751953 C 39 30.697973 39.009704 30.642729 39.027344 30.589844 L 39.027344 30.587891 L 40.205078 27.117188 C 40.450263 26.393891 40.452244 25.610759 40.210938 24.886719 L 39.025391 21.332031 L 39.023438 21.330078 C 39.007047 21.281148 38.998047 21.227991 38.998047 21.175781 L 38.998047 17.560547 C 38.998047 16.401065 38.422239 15.312159 37.462891 14.662109 L 35.009766 13.001953 C 34.933346 12.950273 34.873408 12.878545 34.833984 12.789062 L 33.648438 10.091797 C 33.09122 8.8236469 31.829738 8 30.445312 8 L 30.109375 8 C 30.160608 7.7547861 30.231858 7.4953617 30.333984 7.234375 C 30.750725 6.1693721 31.384665 5.1988728 33.636719 4.9941406 A 1.5003992 1.5003992 0 0 0 33.527344 1.9960938 z M 24.5 8.953125 C 24.604869 8.952991 24.710296 8.9885218 24.802734 9.0585938 L 26.421875 10.287109 C 26.945584 10.6851 27.570593 10.915107 28.220703 10.974609 A 1.5003831 1.5003831 0 0 0 28.53125 11 C 28.532557 11.000002 28.535802 10.999999 28.537109 11 L 30.445312 11 C 30.646888 11 30.821561 11.114978 30.902344 11.298828 L 32.087891 13.996094 L 32.087891 13.998047 C 32.352467 14.598565 32.782502 15.116012 33.330078 15.486328 L 35.779297 17.146484 C 35.917949 17.240434 35.998047 17.392029 35.998047 17.560547 L 35.998047 21.175781 C 35.998047 21.553572 36.060077 21.926136 36.179688 22.283203 L 37.363281 25.835938 C 37.397931 25.939896 37.398101 26.051594 37.363281 26.154297 L 36.185547 29.626953 C 36.063633 29.987422 36 30.36857 36 30.751953 L 36 34.458984 C 36 34.628233 35.91843 34.779876 35.779297 34.873047 L 33.339844 36.507812 C 32.787125 36.878625 32.352742 37.400962 32.085938 38.007812 L 30.902344 40.701172 C 30.821564 40.885022 30.646889 40.998047 30.445312 40.998047 L 28.537109 40.998047 C 27.772878 40.998047 27.029476 41.249999 26.421875 41.710938 L 24.802734 42.939453 C 24.617858 43.079597 24.382142 43.079597 24.197266 42.939453 L 22.578125 41.710938 C 21.970524 41.249998 21.227122 40.998047 20.462891 40.998047 L 18.554688 40.998047 C 18.353112 40.998047 18.178439 40.885022 18.097656 40.701172 L 16.912109 38.001953 C 16.647908 37.402287 16.21834 36.883881 15.671875 36.513672 L 13.220703 34.853516 C 13.082051 34.759566 13.001953 34.607971 13.001953 34.439453 L 13.001953 30.824219 C 13.001953 30.447076 12.939513 30.073308 12.820312 29.716797 L 12.820312 29.714844 L 11.634766 26.158203 C 11.600016 26.053967 11.600016 25.946033 11.634766 25.841797 L 12.820312 22.28125 C 12.938538 21.926577 13.001953 21.553572 13.001953 21.175781 L 13.001953 17.560547 C 13.001953 17.392029 13.082053 17.240434 13.220703 17.146484 L 15.669922 15.486328 C 16.215492 15.117369 16.647011 14.600458 16.912109 13.996094 L 16.914062 13.994141 L 18.095703 11.300781 L 18.097656 11.298828 C 18.18022 11.114185 18.354319 11 18.556641 11 L 20.462891 11 C 21.227122 11 21.970524 10.748048 22.578125 10.287109 L 24.199219 9.0585938 C 24.290821 8.989058 24.395131 8.953259 24.5 8.953125 z M 24.5 13 C 21.708198 13 19.263297 14.637011 17.611328 17.011719 C 15.959359 19.386427 15 22.542395 15 26 C 15 29.457605 15.959359 32.613573 17.611328 34.988281 C 19.18884 37.255958 21.493662 38.833487 24.128906 38.972656 A 1.50015 1.50015 0 0 0 24.671875 39.011719 A 1.50015 1.50015 0 0 0 24.867188 38.972656 C 27.504065 38.834858 29.81038 37.257078 31.388672 34.988281 C 33.040641 32.613573 34 29.457605 34 26 C 34 22.542395 33.040641 19.386427 31.388672 17.011719 C 29.736703 14.637011 27.291802 13 24.5 13 z M 23 16.283203 L 23 20.5 C 23 23.003499 21.003499 25 18.5 25 L 18.037109 25 C 18.20346 22.512168 18.975984 20.303323 20.074219 18.724609 C 20.92787 17.497485 21.930114 16.680714 23 16.283203 z M 26 16.283203 C 27.069886 16.680714 28.07213 17.497485 28.925781 18.724609 C 30.024016 20.303323 30.79654 22.512168 30.962891 25 L 30.5 25 C 27.996501 25 26 23.003499 26 20.5 L 26 16.283203 z M 24.5 24.755859 C 24.988316 25.440617 25.559383 26.011684 26.244141 26.5 C 25.559383 26.988316 24.988316 27.559383 24.5 28.244141 C 24.011684 27.559383 23.440617 26.988316 22.755859 26.5 C 23.440617 26.011684 24.011684 25.440617 24.5 24.755859 z M 18.136719 28 L 18.5 28 C 21.003499 28 23 29.996501 23 32.5 L 23 35.716797 C 21.930114 35.319286 20.92787 34.502515 20.074219 33.275391 C 19.125779 31.912007 18.419448 30.076973 18.136719 28 z M 30.5 28 L 30.863281 28 C 30.580552 30.076973 29.874221 31.912007 28.925781 33.275391 C 28.07213 34.502515 27.069886 35.319286 26 35.716797 L 26 32.5 C 26 29.996501 27.996501 28 30.5 28 z"/></svg>