<svg xmlns="http://www.w3.org/2000/svg"  viewBox="0 0 48 48" width="50px" height="50px"><path d="M 23.949219 1.9804688 A 1.50015 1.50015 0 0 0 22.574219 3.9628906 C 22.574219 3.9628906 22.79999 4.6909277 22.830078 5.4921875 C 22.833371 5.5798755 22.825271 5.6514736 22.824219 5.7324219 C 21.843353 5.3280203 20.623468 5 19 5 C 11.067495 5 4 13.525089 4 23.669922 C 4 34.561728 10.871316 39.944068 15.023438 41.947266 C 18.044164 43.403783 21.398683 44.317973 23.490234 45.527344 C 24.775443 46.269909 26.374606 46.077826 27.472656 45.142578 L 27.472656 45.140625 C 28.698147 44.096015 30.390745 43.238628 33.224609 41.400391 C 36.552422 39.244127 39.257428 37.120103 41.142578 34.320312 C 43.027729 31.520571 44 28.095419 44 23.669922 C 44 18.890605 42.376873 14.30516 39.712891 10.84375 C 37.048908 7.3823397 33.260676 5 29 5 C 27.996891 5 26.920381 5.185697 25.822266 5.5136719 C 25.821407 5.4713206 25.829672 5.4200977 25.828125 5.3789062 C 25.779713 4.089666 25.425781 3.0371094 25.425781 3.0371094 A 1.50015 1.50015 0 0 0 23.949219 1.9804688 z M 19 8 C 19.746934 8 20.225472 8.1270338 20.734375 8.2402344 C 20.250226 8.6261402 19.755581 8.9779371 19.296875 9.4375 C 16.278648 12.461364 14 17.145397 14 23.5 C 14 29.562438 18.359375 34.472656 18.359375 34.472656 A 1.50015 1.50015 0 1 0 20.640625 32.527344 C 20.640625 32.527344 17 28.055562 17 23.5 C 17 17.849603 18.949649 14.03348 21.419922 11.558594 C 23.890195 9.0837075 26.971946 8 29 8 C 32.139324 8 35.099919 9.7665353 37.335938 12.671875 C 39.571955 15.577215 41 19.578239 41 23.669922 C 41 27.671425 40.185396 30.370571 38.654297 32.644531 C 37.123197 34.918491 34.782984 36.815076 31.591797 38.882812 C 28.869661 40.648575 27.133853 41.489985 25.527344 42.859375 L 25.527344 42.857422 C 25.357394 43.002174 25.146978 43.019118 24.992188 42.929688 C 22.327738 41.389057 18.971445 40.521577 16.326172 39.246094 C 12.842294 37.565334 7 33.324115 7 23.669922 C 7 14.946755 13.344505 8 19 8 z"/></svg>