<svg xmlns="http://www.w3.org/2000/svg"  viewBox="0 0 48 48" width="50px" height="50px"><path d="M 24.001953 3.9433594 C 22.163901 3.9433594 20.529149 4.7791092 19.183594 6.0917969 C 18.623065 5.9728052 18.052776 5.890625 17.466797 5.890625 C 14.424202 5.890625 11.723422 7.5719749 9.8710938 10.074219 C 8.0187651 12.576462 6.9296875 15.926597 6.9296875 19.597656 C 6.9296875 19.674735 6.9325073 19.745597 6.9335938 19.820312 C 5.05573 20.903638 3.8669072 23.048504 4.2167969 25.355469 C 4.3962754 26.540027 4.6965445 27.747785 5.1347656 28.970703 C 7.471356 35.478266 12.951506 40.373078 19.544922 41.9375 C 20.662756 43.179113 22.201315 44.056641 24 44.056641 C 25.801241 44.056641 27.340783 43.175155 28.458984 41.931641 C 35.687111 40.268446 41.445083 34.750856 43.337891 27.597656 A 1.50015 1.50015 0 0 0 43.337891 27.595703 C 43.521394 26.902149 43.611319 26.069176 43.703125 25.119141 A 1.50015 1.50015 0 0 0 43.705078 25.119141 C 43.914021 22.943738 42.803633 20.945707 41.0625 19.882812 C 41.023489 16.290612 39.947349 13.015061 38.128906 10.558594 C 36.276578 8.0563458 33.575798 6.375 30.533203 6.375 C 30.085965 6.375 29.646677 6.4201019 29.212891 6.4902344 C 27.800433 4.9453119 26.021727 3.9433594 24.001953 3.9433594 z M 24.001953 6.9433594 C 25.400949 6.9433594 26.846736 7.9171604 28.039062 9.9238281 C 29.231389 11.930496 30.035156 14.861838 30.035156 18.123047 C 30.035156 18.450404 30.005356 18.762217 29.990234 19.082031 L 17.990234 19.082031 C 17.975367 18.766026 17.966797 18.446488 17.966797 18.123047 C 17.966797 14.862372 18.770536 11.930653 19.962891 9.9238281 C 21.155245 7.9170036 22.603077 6.9433594 24.001953 6.9433594 z M 17.097656 8.9160156 C 15.74393 11.428921 14.966797 14.625166 14.966797 18.123047 C 14.966797 18.445434 14.97733 18.764494 14.990234 19.082031 L 9.9492188 19.082031 C 10.048059 16.221305 10.945582 13.666319 12.283203 11.859375 C 13.611058 10.065624 15.29073 9.040872 17.097656 8.9160156 z M 31.173828 9.4179688 C 32.877651 9.6225739 34.455348 10.637751 35.716797 12.341797 C 36.978754 14.046529 37.854727 16.417202 38.033203 19.082031 L 33.013672 19.082031 C 33.026503 18.764312 33.035156 18.445734 33.035156 18.123047 C 33.035156 14.857459 32.36424 11.847892 31.173828 9.4179688 z M 9.6679688 22.082031 L 38.230469 22.082031 C 39.730583 22.082031 40.862624 23.334083 40.71875 24.832031 C 40.63256 25.723042 40.50793 26.563888 40.4375 26.830078 C 38.798747 33.023169 33.760107 37.82774 27.453125 39.136719 A 1.50015 1.50015 0 0 0 26.537109 39.734375 C 25.96316 40.538587 25.053289 41.056641 24 41.056641 C 22.946067 41.056641 22.037341 40.539462 21.464844 39.736328 A 1.50015 1.50015 0 0 0 20.558594 39.140625 C 14.83893 37.910796 9.9932533 33.628048 7.9570312 27.957031 L 7.9589844 27.957031 C 7.5852087 26.913949 7.3321621 25.899692 7.1816406 24.90625 C 6.9538856 23.404568 8.1260119 22.082031 9.6679688 22.082031 z"/></svg>