<svg xmlns="http://www.w3.org/2000/svg"  viewBox="0 0 48 48" width="50px" height="50px"><path d="M 29.550781 0.98046875 A 1.50015 1.50015 0 0 0 28.044922 2.1367188 C 28.044922 2.1367188 27.678599 3.5318905 28.201172 5.0996094 C 28.608845 6.32263 29.688862 7.6222929 31.507812 8.4179688 C 31.508274 9.0169114 31.542802 9.6650445 31.609375 10.462891 C 31.718164 11.766735 31.86683 13.318166 31.945312 14.783203 C 31.644166 16.893684 30.584026 18.490701 28.912109 19.851562 C 27.129271 21.30271 24.648877 22.406514 21.958984 23.183594 C 16.579199 24.737754 10.416667 25 7.5 25 C 4.2632295 25 2.2373644 28.940551 4.3496094 31.462891 C 5.3534207 32.661982 7.1030554 34.15348 9.4453125 35.240234 C 8.710669 35.36738 7.9073298 35.512523 7.3203125 35.609375 C 6.3432632 35.770578 5.6612785 35.864209 5.0253906 36.076172 C 3.2067583 36.682063 2.3248089 38.372189 2.0996094 40.148438 C 1.9870096 41.036561 2.0826874 42.009683 2.5566406 42.904297 C 3.030594 43.798911 3.9089618 44.551918 5.0253906 44.923828 C 8.1726263 45.972907 10.052 46 12.5 46 C 23.704545 46 31.611328 43.714947 36.75 39.117188 C 41.888672 34.519427 44 27.75 44 19.5 C 44 15.701286 42.781108 12.890898 40.875 10.851562 C 39.149363 9.0053147 36.951762 7.7738594 34.679688 6.5527344 A 1.50015 1.50015 0 0 0 33.794922 6.0292969 C 31.690926 5.6084976 31.276255 4.8326718 31.048828 4.1503906 C 30.821401 3.4681095 30.955078 2.8632813 30.955078 2.8632812 A 1.50015 1.50015 0 0 0 29.550781 0.98046875 z M 34.585938 9.953125 C 36.197428 10.877091 37.659647 11.804876 38.683594 12.900391 C 40.128985 14.446806 41 16.298714 41 19.5 C 41 27.25 39.111328 32.980572 34.75 36.882812 C 30.388672 40.785053 23.295455 43 12.5 43 C 10.052 43 8.8273737 43.027093 5.9746094 42.076172 C 5.4895382 41.914582 5.3297655 41.729714 5.2070312 41.498047 C 5.0842971 41.266379 5.0255216 40.924892 5.0761719 40.525391 C 5.1774724 39.726389 5.8962417 38.949937 5.9746094 38.923828 C 6.0887215 38.885788 6.8442368 38.729422 7.8085938 38.570312 C 8.7729507 38.411203 10.013929 38.212234 11.423828 37.941406 C 14.243627 37.39975 17.743678 36.569141 21.199219 35.134766 C 24.654759 33.70039 28.083595 31.659601 30.683594 28.634766 C 33.283592 25.609931 35 21.578947 35 16.5 C 35 15.970617 34.984816 15.425402 34.958984 14.876953 C 34.958922 14.875634 34.959047 14.874366 34.958984 14.873047 C 34.96809 14.793015 34.98679 14.717577 34.994141 14.636719 A 1.50015 1.50015 0 0 0 34.900391 13.939453 C 34.813494 12.605121 34.689847 11.296344 34.599609 10.214844 C 34.590009 10.099388 34.594507 10.063469 34.585938 9.953125 z M 31.160156 21.867188 C 30.533083 23.7218 29.590435 25.3046 28.410156 26.677734 C 26.228905 29.215399 23.220241 31.04961 20.050781 32.365234 C 19.476457 32.603633 18.895694 32.806076 18.316406 33.011719 A 1.5008464 1.5008464 0 0 0 18.025391 33.076172 C 15.427205 33.942234 13.034618 33.538744 11.005859 32.660156 C 8.9771014 31.781569 7.3517242 30.37488 6.6503906 29.537109 C 6.3006356 29.119449 6.9027705 28 7.5 28 C 10.583333 28 16.920801 27.762246 22.791016 26.066406 C 25.726123 25.218486 28.558229 24.00979 30.806641 22.179688 C 30.928722 22.080319 31.041723 21.97072 31.160156 21.867188 z"/></svg>