<svg xmlns="http://www.w3.org/2000/svg"  viewBox="0 0 48 48" width="50px" height="50px"><path d="M 21.447266 2.9902344 A 1.50015 1.50015 0 0 0 20.830078 5.8417969 C 20.830078 5.8417969 23.699684 7.4089917 23.923828 10.195312 C 22.171264 9.2153024 20.16627 9 18.5 9 C 15.110218 9 12.166012 11.129506 10.167969 14.226562 C 8.1699247 17.32362 7 21.458493 7 26 C 7 30.541507 8.1699247 34.67638 10.167969 37.773438 C 12.166012 40.870494 15.110218 43 18.5 43 C 20.385101 43 22.676457 42.657662 24.572266 41.310547 C 26.092439 42.414421 27.719246 43 29.5 43 C 32.889782 43 35.833988 40.870494 37.832031 37.773438 C 39.830075 34.67638 41 30.541507 41 26 C 41 21.458493 39.830075 17.32362 37.832031 14.226562 C 35.833988 11.129506 32.889782 9 29.5 9 C 28.545853 9 27.642083 9.1833121 26.757812 9.4570312 C 26.103181 5.247377 22.169922 3.1582031 22.169922 3.1582031 A 1.50015 1.50015 0 0 0 21.447266 2.9902344 z M 18.5 12 C 19.833072 12 21.115619 12.328025 22.210938 12.878906 C 21.132413 14.122984 19.858863 15.881717 19.044922 19.136719 A 1.50015 1.50015 0 1 0 21.955078 19.863281 C 22.941837 15.917171 24.489836 14.631258 25.560547 13.560547 A 1.50015 1.50015 0 0 0 25.572266 13.548828 C 26.926045 12.163306 27.656375 12 29.5 12 C 31.633218 12 33.689341 13.340573 35.310547 15.853516 C 36.931753 18.366458 38 21.981507 38 26 C 38 30.018493 36.931753 33.633542 35.310547 36.146484 C 33.689341 38.659427 31.633218 40 29.5 40 C 27.656375 40 26.926046 39.836695 25.572266 38.451172 A 1.50015 1.50015 0 0 0 25.566406 38.447266 A 1.50015 1.50015 0 0 0 25.560547 38.439453 C 23.031951 35.910858 21.970703 31.205078 21.970703 31.205078 A 1.50015 1.50015 0 1 0 19.029297 31.794922 C 19.029297 31.794922 19.84537 35.74415 22.304688 39.068359 C 21.195236 39.6569 19.872607 40 18.5 40 C 16.366782 40 14.310659 38.659427 12.689453 36.146484 C 11.068247 33.633542 10 30.018493 10 26 C 10 21.981507 11.068247 18.366458 12.689453 15.853516 C 14.310659 13.340573 16.366782 12 18.5 12 z M 28.5 29 A 1.5 1.5 0 0 0 28.5 32 A 1.5 1.5 0 0 0 28.5 29 z M 33.5 31 A 1.5 1.5 0 0 0 33.5 34 A 1.5 1.5 0 0 0 33.5 31 z M 29.5 34 A 1.5 1.5 0 0 0 29.5 37 A 1.5 1.5 0 0 0 29.5 34 z"/></svg>