<svg xmlns="http://www.w3.org/2000/svg"  viewBox="0 0 48 48" width="50px" height="50px"><path d="M 22.482422 4 A 1.50015 1.50015 0 0 0 22.324219 4.0078125 C 21.268407 4.0502378 20.158221 4.2858915 19.054688 4.6699219 C 16.233401 5.6517307 13.205947 7.6197581 10.443359 10.365234 C 7.6807721 13.11071 5.6926791 16.128228 4.6933594 18.943359 C 4.2846357 20.094753 4.0413911 21.251575 4.0097656 22.349609 A 1.50015 1.50015 0 0 0 4 22.529297 L 4 24 C 4 29.116415 5.959685 34.243967 9.859375 38.142578 C 17.65764 45.939657 30.34477 45.940386 38.142578 38.142578 C 45.940751 30.344406 45.940751 17.655594 38.142578 9.8574219 C 34.211832 5.9277534 29.088503 3.9989042 24.003906 4.0039062 L 23.998047 4.0039062 L 22.482422 4 z M 22.859375 7.0097656 C 23.602846 7.0500073 24.144559 7.27142 24.472656 7.6015625 C 25.128852 8.2618478 25.345139 9.780916 24.544922 12.035156 C 23.744708 14.289395 21.994486 17.01701 19.507812 19.488281 C 17.02114 21.959551 14.282605 23.692325 12.023438 24.478516 C 9.7642693 25.264708 8.2479923 25.039193 7.5917969 24.378906 C 6.9356021 23.718621 6.7212706 22.199551 7.5214844 19.945312 C 8.3216981 17.691073 10.069968 14.963458 12.556641 12.492188 C 15.043315 10.020917 17.781849 8.2900984 20.041016 7.5039062 C 21.1706 7.1108101 22.115904 6.969524 22.859375 7.0097656 z M 27.757812 7.4335938 C 30.768415 8.1079214 33.640156 9.5978404 36.021484 11.978516 C 42.673312 18.630343 42.673312 29.367704 36.021484 36.019531 C 29.369657 42.671359 18.632296 42.671359 11.980469 36.019531 C 9.5948491 33.634606 8.0841698 30.725579 7.4121094 27.666016 C 9.0639413 28.212368 11.046235 27.99581 13.009766 27.3125 C 15.831053 26.330691 18.860459 24.36071 21.623047 21.615234 C 24.385634 18.869758 26.371775 15.854193 27.371094 13.039062 C 28.067821 11.076348 28.297214 9.0909367 27.757812 7.4335938 z M 21.609375 10.011719 C 21.519625 9.9910937 21.425937 9.9962969 21.335938 10.029297 C 19.814937 10.558297 17.410703 11.778984 14.595703 14.583984 C 12.405703 16.764984 10.731906 19.232469 10.003906 21.355469 C 9.9419063 21.535469 9.9860938 21.734141 10.121094 21.869141 C 10.216094 21.965141 10.346563 22.017578 10.476562 22.017578 C 10.529563 22.017578 10.583719 22.007234 10.636719 21.990234 C 12.777719 21.269234 15.269609 19.597391 17.474609 17.400391 C 19.583609 15.300391 21.223656 12.845063 21.972656 10.664062 C 22.035656 10.481063 21.987562 10.280484 21.851562 10.146484 C 21.783563 10.078984 21.699125 10.032344 21.609375 10.011719 z"/></svg>