<svg xmlns="http://www.w3.org/2000/svg"  viewBox="0 0 48 48" width="50px" height="50px"><path d="M 24 5 C 15.680266 5 9 12.233925 9 21.5 L 9 22 L 7.5 22 A 1.50015 1.50015 0 0 0 6 23.5 C 6 24.695797 6.137382 25.866102 6.375 27.005859 A 1.5 1.5 0 0 0 6.5 30 A 1.5 1.5 0 0 0 7.2128906 29.818359 C 7.5669062 30.712797 7.9905288 31.576133 8.4863281 32.396484 A 1.5 1.5 0 0 0 9.5 35 A 1.5 1.5 0 0 0 10.236328 34.804688 C 11.331222 36.065678 12.621271 37.166285 14.060547 38.083984 A 1.5 1.5 0 0 0 15.5 40 A 1.5 1.5 0 0 0 16.65625 39.455078 C 18.031943 40.040307 19.504426 40.475642 21.066406 40.714844 C 21.613159 41.951431 22.54252 43 24 43 C 25.45748 43 26.386841 41.951431 26.933594 40.714844 C 28.495574 40.475642 29.968057 40.040307 31.34375 39.455078 A 1.5 1.5 0 0 0 32.5 40 A 1.5 1.5 0 0 0 33.939453 38.083984 C 35.378729 37.166285 36.668778 36.065678 37.763672 34.804688 A 1.5 1.5 0 0 0 38.5 35 A 1.5 1.5 0 0 0 39.513672 32.394531 C 40.009421 31.574089 40.433166 30.710933 40.787109 29.816406 A 1.5 1.5 0 0 0 41.5 30 A 1.5 1.5 0 0 0 41.625 27.007812 C 41.862872 25.867471 42 24.69645 42 23.5 A 1.50015 1.50015 0 0 0 40.5 22 L 39 22 L 39 21.5 C 39 12.233925 32.319734 5 24 5 z M 24 8 C 30.592266 8 36 13.646075 36 21.5 L 36 22 L 12 22 L 12 21.5 C 12 13.646075 17.407734 8 24 8 z M 9.2753906 25 L 10.253906 25 A 1.50015 1.50015 0 0 0 10.740234 25 L 37.253906 25 A 1.50015 1.50015 0 0 0 37.740234 25 L 38.724609 25 C 38.024556 31.555534 33.120178 37.101927 25.806641 37.894531 A 1.50015 1.50015 0 0 0 24.480469 39.199219 C 24.402674 39.819503 24.080081 40 24 40 C 23.919919 40 23.597326 39.819503 23.519531 39.199219 A 1.50015 1.50015 0 0 0 22.193359 37.894531 C 14.879822 37.101927 9.9754435 31.555534 9.2753906 25 z M 14.5 27 A 1.5 1.5 0 0 0 14.5 30 A 1.5 1.5 0 0 0 14.5 27 z M 20.5 27 A 1.5 1.5 0 0 0 20.5 30 A 1.5 1.5 0 0 0 20.5 27 z M 17.5 31 A 1.5 1.5 0 0 0 17.5 34 A 1.5 1.5 0 0 0 17.5 31 z"/></svg>