<svg xmlns="http://www.w3.org/2000/svg"  viewBox="0 0 48 48" width="50px" height="50px"><path d="M 29.208984 3.5078125 A 1.50015 1.50015 0 0 0 27.703125 4.6640625 C 27.703125 4.6640625 27.341061 6.0483997 27.859375 7.6035156 C 28.202159 8.6319834 29.059349 9.6995804 30.394531 10.490234 C 29.431342 11.507509 28.790071 12.751933 28.462891 14.064453 C 27.966154 16.057508 27.041954 20.235803 22.009766 24.576172 A 1.50015 1.50015 0 0 0 22.009766 24.578125 C 19.755112 26.523689 17.211532 28.07181 14.521484 29.597656 C 12.71198 30.62429 10.904794 31.703918 9.1601562 32.9375 C 7.7459482 33.936721 6.1034106 34.969279 4.734375 36.53125 C 4.1126811 37.240333 3.4488907 38.143017 3.140625 39.304688 C 2.8323593 40.466357 3.12148 42.075617 4.296875 43.064453 C 5.3991497 43.991958 6.6887932 44.254723 7.6933594 44.386719 C 9.4152786 44.612251 11.029918 44.349359 12.474609 44.099609 C 14.507953 43.747947 16.490736 43.199858 18.412109 42.517578 L 18.412109 42.519531 C 21.173032 41.53995 23.809397 40.24614 26.287109 38.701172 C 26.288809 38.700172 26.291169 38.700295 26.292969 38.699219 C 31.680542 35.461261 36.040836 31.083927 39.078125 25.429688 A 1.50015 1.50015 0 0 0 39.111328 25.361328 C 40.493613 22.440193 40.998047 19.725573 40.998047 17.484375 C 40.998047 14.689852 40.53734 12.54339 39.533203 10.958984 C 38.529066 9.3745787 36.845691 8.4707031 35.126953 8.4707031 C 34.690897 8.4707031 34.323287 8.6217062 33.917969 8.6953125 A 1.50015 1.50015 0 0 0 33.408203 8.5019531 C 31.332186 8.0866658 30.928264 7.323931 30.705078 6.6542969 C 30.481892 5.9846628 30.613281 5.3925781 30.613281 5.3925781 A 1.50015 1.50015 0 0 0 29.208984 3.5078125 z M 35.126953 11.470703 C 35.952216 11.470703 36.453637 11.704312 37 12.566406 C 37.546363 13.4285 37.998047 15.038898 37.998047 17.484375 C 37.998047 19.268306 37.595232 21.535526 36.410156 24.050781 C 34.907863 26.837349 33.061176 29.258562 30.90625 31.376953 C 30.05665 30.507708 28.811181 30 27.5 30 C 25.520461 30 23.744234 31.223743 23.226562 33.021484 C 23.148298 33.019672 23.079067 33 23 33 C 20.924359 33 19.020599 33.566358 17.550781 34.583984 C 16.080964 35.601611 15 37.171987 15 39 C 15 39.479386 15.090579 39.941006 15.228516 40.384766 C 14.148961 40.693831 13.060238 40.954748 11.962891 41.144531 C 10.562284 41.38666 9.2476335 41.564169 8.0839844 41.412109 C 7.3685505 41.318109 6.5642409 41.052026 6.2285156 40.769531 C 5.8729103 40.470368 5.9315314 40.486799 6.0410156 40.074219 C 6.1504999 39.661638 6.5519283 39.009683 6.9902344 38.509766 A 1.50015 1.50015 0 0 0 6.9902344 38.507812 C 7.9908005 37.366239 9.4030652 36.441179 10.892578 35.388672 C 12.513941 34.242254 14.233458 33.210398 16.001953 32.207031 C 18.741906 30.652878 21.467404 29.008046 23.96875 26.849609 C 24.050787 26.77885 24.122921 26.707635 24.203125 26.636719 C 25.239723 27.484664 26.5651 28 28 28 C 31.295865 28 34 25.295865 34 22 C 34 19.725022 32.715305 17.742367 30.830078 16.726562 C 31.09009 15.922983 31.25712 15.254195 31.373047 14.789062 C 31.620218 13.79751 32.075772 12.949896 32.675781 12.382812 C 33.275791 11.815729 34.001529 11.470703 35.126953 11.470703 z M 29.693359 19.523438 C 30.480121 20.060811 31 20.961728 31 22 C 31 23.674135 29.674135 25 28 25 C 27.382079 25 26.822272 24.808569 26.349609 24.494141 C 27.89052 22.753228 28.950265 21.04576 29.693359 19.523438 z M 27.5 33 C 28.010371 33 28.387612 33.179175 28.642578 33.396484 C 27.777813 34.095639 26.869914 34.754122 25.921875 35.375 A 1.50015 1.50015 0 0 0 26.041016 34.185547 C 26.002876 34.067144 26 34.016111 26 34 C 26 33.591484 26.518317 33 27.5 33 z M 23 36 C 23.461226 36 23.911933 36.04481 24.351562 36.123047 A 1.50015 1.50015 0 0 0 24.728516 36.140625 A 1.50015 1.50015 0 0 0 24.707031 36.154297 C 22.601186 37.467808 20.373416 38.566049 18.0625 39.4375 C 18.024378 39.292772 18 39.147848 18 39 C 18 38.343013 18.37513 37.661905 19.257812 37.050781 C 20.140496 36.439657 21.485641 36 23 36 z"/></svg>