<svg xmlns="http://www.w3.org/2000/svg"  viewBox="0 0 48 48" width="50px" height="50px"><path d="M 26.554688 1.9804688 A 1.50015 1.50015 0 0 0 25.044922 3.8632812 C 25.044922 3.8632812 25.178599 4.4681095 24.951172 5.1503906 C 24.723745 5.8326718 24.309074 6.6084976 22.205078 7.0292969 A 1.50015 1.50015 0 0 0 21.751953 7.1933594 C 15.965391 8.1718157 11.283487 12.873312 9.1894531 19.128906 C 8.2646352 17.889848 7.3320312 17.251953 7.3320312 17.251953 A 1.50015 1.50015 0 0 0 6.4863281 16.988281 A 1.50015 1.50015 0 0 0 5.6679688 19.748047 C 5.6679688 19.748047 8 21.25 8 24.5 A 1.50015 1.50015 0 0 0 8.0625 24.951172 C 8.0291829 25.464046 8 25.978067 8 26.5 C 8 27.772958 8.1076709 29.018782 8.3007812 30.230469 C 8.2615243 30.217738 8.2205763 30.199181 8.1816406 30.1875 C 7.3633179 29.942003 6.6015475 29.906135 6.0449219 29.931641 C 5.4882962 29.957151 5.1367188 30.044922 5.1367188 30.044922 A 1.50015 1.50015 0 1 0 5.8632812 32.955078 C 5.8632812 32.955078 6.4550048 32.803494 7.3183594 33.0625 C 8.0402648 33.279071 8.9019755 33.738741 9.6679688 35.134766 C 12.253365 41.514359 17.609788 46 24 46 C 30.390212 46 35.746635 41.514359 38.332031 35.134766 C 39.098025 33.738741 39.959735 33.279071 40.681641 33.0625 C 41.544995 32.803494 42.136719 32.955078 42.136719 32.955078 A 1.50015 1.50015 0 1 0 42.863281 30.044922 C 42.863281 30.044922 42.511704 29.957142 41.955078 29.931641 C 41.398452 29.906131 40.636682 29.942001 39.818359 30.1875 C 39.779424 30.199181 39.738476 30.217738 39.699219 30.230469 C 39.892329 29.018782 40 27.772958 40 26.5 C 40 25.976753 39.970984 25.461406 39.9375 24.947266 A 1.50015 1.50015 0 0 0 40 24.5 C 40 21.25 42.332031 19.748047 42.332031 19.748047 A 1.50015 1.50015 0 0 0 41.46875 16.988281 A 1.50015 1.50015 0 0 0 40.667969 17.251953 C 40.667969 17.251953 39.735365 17.889848 38.810547 19.128906 C 36.82461 13.196235 32.511116 8.6602154 27.134766 7.3730469 C 27.433946 6.9540386 27.658263 6.5213062 27.798828 6.0996094 C 28.321401 4.5318905 27.955078 3.1367188 27.955078 3.1367188 A 1.50015 1.50015 0 0 0 26.554688 1.9804688 z M 24 10 C 31.001798 10 37 17.211905 37 26.5 C 37 29.165143 36.492778 31.649642 35.623047 33.851562 C 35.43891 34.190833 35.26439 34.550938 35.107422 34.943359 A 1.50015 1.50015 0 0 0 35.023438 35.205078 C 32.696824 39.91909 28.568512 43 24 43 C 19.430733 43 15.301007 39.918461 12.974609 35.203125 A 1.50015 1.50015 0 0 0 12.892578 34.943359 C 12.73561 34.550938 12.56109 34.190833 12.376953 33.851562 C 11.507222 31.649642 11 29.165143 11 26.5 C 11 17.211905 16.998202 10 24 10 z M 27.5 15 A 1.5 1.5 0 0 0 27.5 18 A 1.5 1.5 0 0 0 27.5 15 z M 19.5 16 A 1.5 1.5 0 0 0 19.5 19 A 1.5 1.5 0 0 0 19.5 16 z M 22.5 21 A 1.5 1.5 0 0 0 22.5 24 A 1.5 1.5 0 0 0 22.5 21 z M 17.5 24 A 1.5 1.5 0 0 0 17.5 27 A 1.5 1.5 0 0 0 17.5 24 z M 30.5 24 A 1.5 1.5 0 0 0 30.5 27 A 1.5 1.5 0 0 0 30.5 24 z M 24.5 27 A 1.5 1.5 0 0 0 24.5 30 A 1.5 1.5 0 0 0 24.5 27 z M 18.5 31 A 1.5 1.5 0 0 0 18.5 34 A 1.5 1.5 0 0 0 18.5 31 z M 29.5 32 A 1.5 1.5 0 0 0 29.5 35 A 1.5 1.5 0 0 0 29.5 32 z M 23.5 36 A 1.5 1.5 0 0 0 23.5 39 A 1.5 1.5 0 0 0 23.5 36 z"/></svg>