<svg xmlns="http://www.w3.org/2000/svg"  viewBox="0 0 48 48" width="50px" height="50px"><path d="M 30 0 C 27.346316 0 24.974973 1.3027588 23.521484 3.3046875 A 1.50015 1.50015 0 0 0 23.388672 3.5175781 C 13.109405 3.8672766 4.9570312 12.976318 4.9570312 24 C 4.9570312 35.241861 13.433777 44.5 24 44.5 C 34.566223 44.5 43.042969 35.241861 43.042969 24 C 43.042969 13.948622 36.264913 5.4888331 27.277344 3.8085938 C 28.058898 3.2991967 28.98928 3 30 3 A 1.50015 1.50015 0 1 0 30 0 z M 24 6.5 C 23.95833 6.5 24.206528 6.527744 24.650391 7.3476562 C 25.094253 8.1675686 25.548554 9.5470382 25.90625 11.246094 C 26.621641 14.644204 27 19.328947 27 24 C 27 28.671053 26.621641 33.355796 25.90625 36.753906 C 25.548554 38.452962 25.094253 39.832431 24.650391 40.652344 C 24.206528 41.472256 23.958333 41.5 24 41.5 C 24.04167 41.5 23.793472 41.47226 23.349609 40.652344 C 22.905747 39.832431 22.451446 38.452962 22.09375 36.753906 C 21.378359 33.355796 21 28.671053 21 24 C 21 19.328947 21.378359 14.644204 22.09375 11.246094 C 22.451446 9.5470382 22.905747 8.1675686 23.349609 7.3476562 C 23.793472 6.5277439 24.041667 6.5 24 6.5 z M 19.777344 8.2128906 C 19.543978 8.9569306 19.339215 9.7598242 19.15625 10.628906 C 18.371642 14.355796 18 19.171053 18 24 C 18 28.828947 18.371642 33.644204 19.15625 37.371094 C 19.339215 38.240176 19.543978 39.043069 19.777344 39.787109 C 18.844516 39.000183 17.966753 37.962055 17.181641 36.660156 C 15.282395 33.510768 14.042969 29.00227 14.042969 24 C 14.042969 18.99773 15.282395 14.489232 17.181641 11.339844 C 17.966753 10.037945 18.844516 8.9998172 19.777344 8.2128906 z M 28.222656 8.2128906 C 29.155484 8.9998172 30.033247 10.037945 30.818359 11.339844 C 32.717605 14.489232 33.957031 18.99773 33.957031 24 C 33.957031 29.00227 32.717605 33.510768 30.818359 36.660156 C 30.033247 37.962055 29.155484 39.000183 28.222656 39.787109 C 28.456022 39.043069 28.660785 38.240176 28.84375 37.371094 C 29.628358 33.644204 30 28.828947 30 24 C 30 19.171053 29.628358 14.355796 28.84375 10.628906 C 28.660785 9.7598242 28.456022 8.9569306 28.222656 8.2128906 z M 14.580078 9.8496094 C 12.353091 13.570695 11.042969 18.536706 11.042969 24 C 11.042969 29.463294 12.353091 34.429305 14.580078 38.150391 C 10.581312 34.982862 7.9570312 29.85799 7.9570312 24 C 7.9570312 18.14201 10.581312 13.017138 14.580078 9.8496094 z M 33.419922 9.8496094 C 37.418688 13.017138 40.042969 18.14201 40.042969 24 C 40.042969 29.85799 37.418688 34.982862 33.419922 38.150391 C 35.646909 34.429305 36.957031 29.463294 36.957031 24 C 36.957031 18.536706 35.646909 13.570695 33.419922 9.8496094 z"/></svg>