<svg xmlns="http://www.w3.org/2000/svg"  viewBox="0 0 48 48" width="50px" height="50px"><path d="M 28.953125 -0.00390625 A 1.50015 1.50015 0 0 0 28.699219 0.01953125 C 28.699219 0.01953125 23.984691 0.95887821 22.183594 5.9453125 C 20.446834 6.0811999 18.827631 6.4417903 17.568359 7.2675781 L 17.546875 7.28125 L 17.525391 7.296875 C 15.935832 8.420877 13.934622 9.843 12.652344 12.150391 L 12.644531 12.164062 L 12.636719 12.177734 C 11.475565 14.368837 11.646852 16.692871 11.228516 18.445312 C 10.794372 20.070595 9.7070312 22.141076 9.7070312 24.65625 C 9.7070312 27.220168 10.887011 29.280222 11.212891 30.796875 C 11.56794 32.745085 11.512571 34.999181 12.634766 37.123047 C 13.870987 39.556493 16.096276 40.853372 17.443359 41.953125 L 17.453125 41.962891 L 17.464844 41.972656 C 19.210869 43.343267 21.215051 45.167969 24 45.167969 C 26.784949 45.167969 28.780201 43.353314 30.496094 42.095703 L 30.527344 42.072266 L 30.556641 42.046875 C 31.931657 40.924317 34.036951 39.614402 35.347656 37.255859 L 35.355469 37.242188 L 35.363281 37.228516 C 36.524435 35.037413 36.353148 32.713379 36.771484 30.960938 C 37.20563 29.335656 38.292969 27.265169 38.292969 24.75 C 38.292969 22.196354 37.223528 20.12134 36.677734 18.449219 C 36.335695 16.517083 36.377127 14.292573 35.269531 12.193359 C 34.043707 9.7778324 31.829714 8.3924042 30.419922 7.3300781 C 29.08394 6.3109553 27.332391 5.9944285 25.457031 5.9101562 C 26.872505 3.2553085 29.193359 2.9804687 29.193359 2.9804688 A 1.50015 1.50015 0 0 0 28.953125 -0.00390625 z M 24.03125 8.875 C 26.099074 8.864377 28.207835 9.415988 28.599609 9.7148438 L 28.603516 9.7167969 L 28.607422 9.71875 C 30.147565 10.880118 31.857719 12.088693 32.599609 13.556641 L 32.605469 13.570312 L 32.613281 13.583984 C 33.251108 14.785489 33.316898 16.777689 33.742188 19.085938 L 33.759766 19.179688 L 33.787109 19.269531 C 34.432141 21.294124 35.292969 23.078322 35.292969 24.75 C 35.292969 26.307647 34.41761 28.124394 33.865234 30.207031 L 33.861328 30.224609 L 33.857422 30.240234 C 33.297648 32.561248 33.31451 34.670373 32.712891 35.814453 C 31.862736 37.330322 30.252385 38.42596 28.691406 39.697266 C 26.879908 41.025135 25.340757 42.167969 24 42.167969 C 22.650949 42.167969 21.114381 41.022718 19.316406 39.611328 C 17.721367 38.311896 16.030373 37.201425 15.300781 35.757812 L 15.294922 35.744141 L 15.287109 35.730469 C 14.649282 34.528964 14.583492 32.534812 14.158203 30.226562 L 14.15625 30.207031 L 14.150391 30.1875 C 13.684753 27.995224 12.707031 26.165858 12.707031 24.65625 C 12.707031 23.098603 13.58239 21.281856 14.134766 19.199219 L 14.138672 19.183594 L 14.142578 19.166016 C 14.702079 16.846136 14.684437 14.738216 15.285156 13.59375 C 16.161917 12.027353 17.683425 10.862519 19.224609 9.7714844 C 19.801261 9.3992127 21.970014 8.8855887 24.03125 8.875 z M 29.123047 11.724609 A 1.50015 1.50015 0 0 0 28.068359 12.123047 C 26.736747 13.317076 26.688637 14.864006 26.460938 15.873047 C 26.233238 16.882088 26.061701 17.514224 24.875 18.253906 A 1.50015 1.50015 0 1 0 26.460938 20.800781 C 28.380236 19.604463 29.096418 17.819662 29.386719 16.533203 C 29.67702 15.246744 29.777878 14.61944 30.072266 14.355469 A 1.50015 1.50015 0 0 0 29.123047 11.724609 z M 19.574219 13.916016 A 1.50015 1.50015 0 0 0 18.542969 14.369141 C 16.678145 16.233964 16.675168 18.839216 16.642578 20.951172 C 16.626288 22.00715 16.623428 22.985598 16.527344 23.714844 C 16.431264 24.444089 16.237836 24.840289 16.103516 24.974609 A 1.5005302 1.5005302 0 1 0 18.226562 27.095703 C 19.086742 26.235523 19.36566 25.139911 19.501953 24.105469 C 19.638246 23.071027 19.626873 22.015819 19.642578 20.998047 C 19.673988 18.962503 19.895887 17.258411 20.664062 16.490234 A 1.50015 1.50015 0 0 0 19.574219 13.916016 z M 25.675781 25.970703 A 1.50015 1.50015 0 0 0 24.632812 26.398438 C 23.488736 27.488551 22.928764 28.800635 22.865234 29.988281 C 22.801704 31.175927 23.130822 32.171324 23.382812 32.984375 C 23.634804 33.797426 23.798848 34.43187 23.779297 34.818359 C 23.759747 35.204849 23.721117 35.434258 23.066406 35.955078 A 1.50015 1.50015 0 1 0 24.933594 38.302734 C 26.097879 37.376555 26.717536 36.11437 26.775391 34.970703 C 26.833241 33.827036 26.494931 32.892277 26.248047 32.095703 C 26.001163 31.299129 25.834702 30.646198 25.861328 30.148438 C 25.887958 29.650676 26.002702 29.237699 26.703125 28.570312 A 1.50015 1.50015 0 0 0 25.675781 25.970703 z"/></svg>