<svg xmlns="http://www.w3.org/2000/svg"  viewBox="0 0 48 48" width="50px" height="50px"><path d="M 29.208984 3.5078125 A 1.50015 1.50015 0 0 0 27.703125 4.6640625 C 27.703125 4.6640625 27.341061 6.0483997 27.859375 7.6035156 C 28.202159 8.6319834 29.059349 9.6995804 30.394531 10.490234 C 29.469136 11.467594 28.847801 12.656459 28.509766 13.912109 C 26.659879 11.003028 23.803696 8.9492188 20.433594 8.9492188 C 19.917798 8.9492188 19.37617 9.0147165 18.824219 9.1308594 C 18.74038 8.4875653 18.587891 8.0253906 18.587891 8.0253906 A 1.50015 1.50015 0 0 0 17.111328 6.96875 A 1.50015 1.50015 0 0 0 15.734375 8.9511719 C 15.734375 8.9511719 15.764696 9.0569212 15.796875 9.2070312 C 15.238495 9.0608766 14.619767 8.9492188 13.890625 8.9492188 C 8.3070423 8.9492188 3.5566406 14.800641 3.5566406 21.683594 C 3.5566406 27.528999 6.5148409 31.050041 9.1523438 32.943359 C 7.7398465 33.940919 6.1009689 34.972065 4.734375 36.53125 C 4.1126811 37.240333 3.4488907 38.143017 3.140625 39.304688 C 2.8323593 40.466357 3.12148 42.075617 4.296875 43.064453 C 5.3991497 43.991958 6.6887932 44.254723 7.6933594 44.386719 C 9.4152786 44.612251 11.029918 44.349359 12.474609 44.099609 C 14.507953 43.747947 16.490736 43.199858 18.412109 42.517578 L 18.412109 42.519531 C 20.584132 41.748893 22.676316 40.778932 24.677734 39.650391 C 25.06078 40.564672 25.608794 41.411554 26.335938 42.138672 C 28.230228 44.032897 30.916079 44.722131 33.568359 44.390625 C 36.220639 44.059118 38.899484 42.741217 41.083984 40.556641 C 43.268483 38.372065 44.586554 35.693308 44.917969 33.041016 C 45.249382 30.388724 44.558354 27.702818 42.664062 25.808594 C 41.813198 24.957759 40.79734 24.360531 39.701172 23.978516 C 40.634538 21.585773 40.998047 19.367146 40.998047 17.484375 C 40.998047 14.689852 40.53734 12.54339 39.533203 10.958984 C 38.529066 9.3745787 36.845691 8.4707031 35.126953 8.4707031 C 34.690897 8.4707031 34.323287 8.6217062 33.917969 8.6953125 A 1.50015 1.50015 0 0 0 33.408203 8.5019531 C 31.332186 8.0866658 30.928264 7.323931 30.705078 6.6542969 C 30.481892 5.9846628 30.613281 5.3925781 30.613281 5.3925781 A 1.50015 1.50015 0 0 0 29.208984 3.5078125 z M 35.126953 11.470703 C 35.952216 11.470703 36.453637 11.704312 37 12.566406 C 37.546363 13.4285 37.998047 15.038898 37.998047 17.484375 C 37.998047 19.13253 37.650437 21.194974 36.664062 23.482422 C 36.253283 23.48382 35.841818 23.501222 35.429688 23.552734 C 32.777406 23.884241 30.098563 25.202143 27.914062 27.386719 C 25.729563 29.571295 24.411492 32.250051 24.080078 34.902344 C 24.010898 35.455991 23.995907 36.00932 24.017578 36.558594 C 21.914647 37.81174 19.707156 38.876426 17.410156 39.691406 A 1.50015 1.50015 0 0 0 17.408203 39.691406 C 15.623577 40.325127 13.803547 40.826194 11.962891 41.144531 C 10.562284 41.38666 9.2476335 41.564169 8.0839844 41.412109 C 7.3685505 41.318109 6.5642409 41.052026 6.2285156 40.769531 C 5.8729103 40.470368 5.9315314 40.486799 6.0410156 40.074219 C 6.1504999 39.661638 6.5519283 39.009683 6.9902344 38.509766 A 1.50015 1.50015 0 0 0 6.9902344 38.507812 C 7.9908005 37.366239 9.4030652 36.441179 10.892578 35.388672 C 12.513941 34.242254 14.233458 33.210398 16.001953 32.207031 C 18.741906 30.652878 21.467404 29.008046 23.96875 26.849609 C 29.614561 21.979978 30.893784 16.712007 31.373047 14.789062 C 31.620218 13.79751 32.075772 12.949897 32.675781 12.382812 C 33.275791 11.815729 34.001529 11.470703 35.126953 11.470703 z M 20.433594 11.949219 C 23.228581 11.949219 25.948965 14.468315 27.138672 17.990234 C 26.239134 19.926631 24.740108 22.221193 22.009766 24.576172 A 1.50015 1.50015 0 0 0 22.009766 24.578125 C 19.755112 26.523689 17.211532 28.07181 14.521484 29.597656 C 13.638941 30.098373 12.757265 30.612748 11.882812 31.150391 C 9.7004006 29.971486 6.5566406 27.363611 6.5566406 21.683594 C 6.5566406 16.302305 10.466255 12.083291 13.744141 11.960938 C 12.344393 13.359038 11.181077 15.249275 10.564453 17.679688 A 1.50015 1.50015 0 1 0 13.472656 18.416016 C 14.660636 13.733614 18.503791 11.949219 20.433594 11.949219 z M 36.509766 26.474609 C 38.129594 26.421944 39.530314 26.917068 40.542969 27.929688 C 41.700288 29.086968 42.181129 30.749481 41.941406 32.667969 C 41.701683 34.586458 40.701533 36.696845 38.962891 38.435547 C 37.224249 40.17425 35.113793 41.174273 33.195312 41.414062 C 31.276833 41.653852 29.614351 41.172904 28.457031 40.015625 C 27.299712 38.858346 26.816919 37.19388 27.056641 35.275391 C 27.296364 33.356902 28.296514 31.246516 30.035156 29.507812 C 31.773798 27.769109 33.884254 26.769087 35.802734 26.529297 C 36.042544 26.499323 36.278362 26.482133 36.509766 26.474609 z M 34.287109 28.730469 C 33.849109 28.730469 33.492188 29.087391 33.492188 29.525391 C 33.492188 29.963391 34.022109 31.376953 34.287109 31.376953 C 34.552109 31.376953 35.080078 29.963391 35.080078 29.525391 C 35.080078 29.087391 34.725109 28.730469 34.287109 28.730469 z M 37.783203 28.796875 C 37.475 28.769172 37.166219 28.924594 37.011719 29.214844 C 36.805719 29.601844 36.606844 31.098656 36.839844 31.222656 C 37.073844 31.347656 38.206109 30.347938 38.412109 29.960938 C 38.618109 29.573938 38.472938 29.092719 38.085938 28.886719 C 37.989187 28.835219 37.885937 28.806109 37.783203 28.796875 z M 31.265625 30.472656 C 31.062375 30.472656 30.860078 30.550078 30.705078 30.705078 C 30.395078 31.015078 30.395078 31.518125 30.705078 31.828125 C 31.015078 32.138125 32.388172 32.763172 32.576172 32.576172 C 32.764172 32.389172 32.138125 31.015078 31.828125 30.705078 C 31.673125 30.550078 31.468875 30.472656 31.265625 30.472656 z M 39.710938 31.804688 C 39.609516 31.785969 39.503484 31.786797 39.396484 31.810547 C 38.968484 31.904547 37.702766 32.728328 37.759766 32.986328 C 37.816766 33.245328 39.310281 33.456328 39.738281 33.361328 C 40.165281 33.266328 40.43775 32.843063 40.34375 32.414062 C 40.2725 32.093812 40.015203 31.860844 39.710938 31.804688 z M 29.544922 33.480469 C 29.106922 33.468469 28.741469 33.815859 28.730469 34.255859 C 28.719469 34.693859 29.065906 35.056359 29.503906 35.068359 C 29.941906 35.079359 31.370953 34.589219 31.376953 34.324219 C 31.382953 34.059219 29.982922 33.492469 29.544922 33.480469 z M 39.003906 34.699219 C 38.565906 34.724219 37.186172 35.335609 37.201172 35.599609 C 37.216172 35.863609 38.658703 36.309203 39.095703 36.283203 C 39.533703 36.258203 39.86875 35.882313 39.84375 35.445312 C 39.81875 35.008313 39.440906 34.674219 39.003906 34.699219 z M 31.396484 36.140625 C 31.0035 36.139217 29.917734 36.652578 29.646484 36.923828 C 29.336484 37.233828 29.336484 37.736875 29.646484 38.046875 C 29.956484 38.356875 30.459531 38.356875 30.769531 38.046875 C 31.079531 37.736875 31.705578 36.362781 31.517578 36.175781 C 31.494078 36.152406 31.452625 36.140826 31.396484 36.140625 z M 35.78125 36.472656 C 35.54825 36.596656 35.745172 38.093469 35.951172 38.480469 C 36.157172 38.867469 36.638391 39.012641 37.025391 38.806641 C 37.412391 38.600641 37.560516 38.119422 37.353516 37.732422 C 37.147516 37.345422 36.01525 36.347656 35.78125 36.472656 z M 33.228516 36.845703 C 32.963516 36.845703 32.433594 38.259266 32.433594 38.697266 C 32.433594 39.135266 32.790516 39.492187 33.228516 39.492188 C 33.666516 39.492188 34.021484 39.136266 34.021484 38.697266 C 34.021484 38.259266 33.493516 36.845703 33.228516 36.845703 z"/></svg>