<svg xmlns="http://www.w3.org/2000/svg"  viewBox="0 0 48 48" width="50px" height="50px"><path d="M 24 3.5566406 C 20.495235 3.5566406 17.603678 6.0140545 16.794922 9.2871094 C 14.07739 9.8365351 11.818101 11.643767 11.115234 14.115234 C 11.052226 14.096856 10.988731 14.081154 10.925781 14.0625 A 1.50015 1.50015 0 0 0 10.482422 14 A 1.50015 1.50015 0 0 0 9.2128906 16.271484 L 11.761719 20.519531 C 11.25341 21.366491 9.7558591 23.839433 9.0761719 25.222656 C 7.4785452 28.472773 7 32.057528 7 35.5 C 7 38.519774 9.4802259 41 12.5 41 L 28.867188 41 C 29.028297 41.268801 29.198136 41.529529 29.378906 41.779297 C 30.798448 43.740656 32.909507 45.123047 35.339844 45.123047 L 35.474609 45.123047 C 36.346625 45.123047 36.980864 44.807193 37.496094 44.5 C 38.011602 44.808139 38.648972 45.123047 39.523438 45.123047 L 39.658203 45.123047 C 42.08854 45.123047 44.199763 43.740632 45.619141 41.779297 C 47.038519 39.817961 47.863817 37.243223 47.902344 34.46875 A 1.50015 1.50015 0 0 0 47.902344 34.447266 C 47.902344 34.521596 47.903497 34.204536 47.904297 33.962891 C 47.904908 33.766029 47.90409 33.641163 47.904297 33.550781 C 47.904322 33.539641 47.904285 33.50866 47.904297 33.5 C 47.904307 33.4927 47.904297 33.462461 47.904297 33.457031 A 1.50015 1.50015 0 0 0 47.871094 33.160156 A 1.50015 1.50015 0 0 0 47.832031 33.015625 A 1.50015 1.50015 0 0 0 47.742188 32.800781 C 47.298592 30.083254 45.002848 27.740234 41.951172 27.740234 C 40.807615 27.740234 40.175512 27.967759 39.498047 28.160156 C 39.569627 27.985694 39.565517 27.713178 39.654297 27.576172 C 40.029515 26.997126 40.396469 26.669922 41.546875 26.669922 A 1.50015 1.50015 0 1 0 41.546875 23.669922 C 40.390757 23.669922 39.377254 24.011951 38.5625 24.542969 C 37.811418 23.137286 36.67453 21.246422 36.238281 20.519531 L 38.787109 16.271484 A 1.50015 1.50015 0 0 0 37.074219 14.0625 C 37.011269 14.081154 36.947774 14.096856 36.884766 14.115234 C 36.182361 11.646576 33.926649 9.840506 31.212891 9.2890625 C 30.405078 6.0140786 27.506403 3.5566406 24 3.5566406 z M 24 6.5566406 C 25.857407 6.5566406 27.380745 7.6928035 28.072266 9.2792969 C 26.495241 9.5885918 25.102114 10.271988 24.050781 11.341797 C 22.994034 10.237345 21.557974 9.5093735 19.953125 9.2011719 C 20.660492 7.6537721 22.171395 6.5566406 24 6.5566406 z M 18.384766 12 C 20.258919 12 21.790731 12.97702 22.466797 14.208984 C 22.330609 14.717767 22.115234 15.19754 22.115234 15.75 C 22.115234 15.806985 22.127319 15.861264 22.128906 15.917969 C 19.41118 15.807328 16.699835 15.456028 14.029297 14.863281 C 14.499367 13.277103 16.181271 12 18.384766 12 z M 29.615234 12 C 31.818729 12 33.500633 13.277103 33.970703 14.863281 C 31.057703 15.509844 28.096511 15.866513 25.130859 15.939453 C 25.12695 15.875866 25.115234 15.814657 25.115234 15.75 C 25.115234 13.777526 27.010649 12 29.615234 12 z M 13.572266 17.705078 C 20.456758 19.207273 27.543242 19.207273 34.427734 17.705078 L 33.486328 19.273438 C 27.452182 22.020364 20.547818 22.020364 14.513672 19.273438 L 13.572266 17.705078 z M 14.189453 22.314453 C 20.493647 24.901841 27.506353 24.901841 33.810547 22.314453 C 34.450575 23.396708 35.769979 25.609737 36.230469 26.546875 A 1.50015 1.50015 0 0 0 36.232422 26.548828 C 36.33784 26.762554 36.435208 26.98391 36.53125 27.207031 C 36.406776 27.565885 36.310669 27.926774 36.236328 28.285156 C 35.514116 28.020355 34.533601 27.740234 33.046875 27.740234 C 31.344096 27.740234 29.794375 28.511184 28.699219 29.681641 A 1.50015 1.50015 0 0 0 28.699219 29.683594 C 27.547213 30.91591 27.090839 32.492958 27.095703 34.001953 C 27.095728 34.15644 27.095703 34.305794 27.095703 34.447266 A 1.50015 1.50015 0 0 0 27.095703 34.46875 C 27.112531 35.698429 27.292177 36.88489 27.601562 38 L 12.5 38 C 11.101774 38 10 36.898226 10 35.5 C 10 32.340472 10.455158 29.220758 11.769531 26.546875 C 12.230021 25.609737 13.549425 23.396708 14.189453 22.314453 z M 33.046875 30.740234 C 34.294856 30.740234 34.853474 30.919653 35.361328 31.117188 C 35.869183 31.31472 36.507071 31.699219 37.498047 31.699219 C 38.489022 31.699219 39.128864 31.314721 39.636719 31.117188 C 40.144573 30.919653 40.703191 30.740234 41.951172 30.740234 C 43.458887 30.740234 44.859631 32.361031 44.904297 33.597656 C 44.904037 33.683006 44.904834 33.780007 44.904297 33.953125 C 44.903577 34.18518 44.902444 34.333794 44.902344 34.427734 C 44.871874 36.622262 44.191325 38.635117 43.189453 40.019531 C 42.187581 41.403946 40.961866 42.123047 39.658203 42.123047 L 39.523438 42.123047 C 39.358967 42.123047 38.5625 41.603516 38.5625 41.603516 A 1.50015 1.50015 0 0 0 36.433594 41.603516 C 36.433594 41.603516 35.640924 42.123047 35.474609 42.123047 L 35.339844 42.123047 C 34.036181 42.123047 32.810552 41.403922 31.808594 40.019531 C 31.583695 39.708793 31.378271 39.363167 31.189453 38.994141 A 1.50015 1.50015 0 0 0 31.050781 38.710938 C 30.478632 37.486788 30.117298 36.005776 30.095703 34.427734 C 30.095624 34.278323 30.095703 34.133222 30.095703 33.996094 A 1.50015 1.50015 0 0 0 30.095703 33.992188 C 30.092603 33.019866 30.293607 32.371668 30.890625 31.732422 C 31.453469 31.130878 32.285654 30.740234 33.046875 30.740234 z"/></svg>