<svg xmlns="http://www.w3.org/2000/svg"  viewBox="0 0 48 48" width="50px" height="50px"><path d="M 19.5 3 A 1.50015 1.50015 0 0 0 18 4.5 C 18 8.0341895 16.32059 11.355979 13.462891 13.419922 C 8.9451042 16.684766 6 22.005811 6 28 C 6 37.413035 14.137766 45 24 45 C 33.862234 45 42 37.413035 42 28 C 42 22.005811 39.054895 16.684766 34.537109 13.419922 C 31.67941 11.355979 30 8.0341895 30 4.5 A 1.50015 1.50015 0 0 0 28.5 3 L 19.5 3 z M 20.822266 6 L 27.177734 6 C 27.601262 9.9093519 29.551467 13.518887 32.78125 15.851562 C 36.549464 18.574719 39 22.986189 39 28 C 39 35.680965 32.333766 42 24 42 C 15.666234 42 9 35.680965 9 28 C 9 22.986189 11.450536 18.574719 15.21875 15.851562 C 18.448533 13.518887 20.398738 9.9093519 20.822266 6 z M 24 13 C 22.662646 13 21.393884 13.629307 20.589844 14.707031 L 20.587891 14.708984 C 19.568937 16.07773 18.352887 17.290179 16.976562 18.285156 C 13.859202 20.538298 12 24.162021 12 28 C 12 34.137198 17.473903 39 24 39 C 30.526097 39 36 34.137198 36 28 C 36 24.16232 34.140939 20.5384 31.023438 18.285156 L 31.023438 18.283203 C 29.647901 17.289756 28.430585 16.076505 27.410156 14.707031 C 26.606116 13.629307 25.337354 13 24 13 z M 24 16 C 24.400646 16 24.7699 16.183724 25.005859 16.5 C 26.201431 18.104526 27.633115 19.536291 29.267578 20.716797 C 29.392568 20.807195 29.503501 20.911593 29.623047 21.007812 A 1.5 1.5 0 0 0 29.5 21 A 1.5 1.5 0 0 0 29.5 24 A 1.5 1.5 0 0 0 30.994141 22.371094 C 32.268791 23.954599 33 25.939145 33 28 C 33 29.912983 32.232335 31.694071 30.941406 33.087891 A 1.5 1.5 0 0 0 29.5 32 A 1.5 1.5 0 0 0 28.740234 34.792969 C 27.75792 35.337059 26.647637 35.714805 25.449219 35.886719 A 1.5 1.5 0 0 0 24 34 A 1.5 1.5 0 0 0 22.552734 35.886719 C 21.353255 35.714888 20.242802 35.335636 19.259766 34.791016 A 1.5 1.5 0 0 0 18.5 32 A 1.5 1.5 0 0 0 17.058594 33.087891 C 15.767665 31.694071 15 29.912983 15 28 C 15 25.940047 15.732082 23.956465 17.005859 22.373047 A 1.5 1.5 0 0 0 18.5 24 A 1.5 1.5 0 0 0 18.5 21 A 1.5 1.5 0 0 0 18.376953 21.005859 C 18.496788 20.909442 18.60907 20.805411 18.734375 20.714844 C 20.367673 19.534094 21.799308 18.104754 22.994141 16.5 C 23.2301 16.183724 23.599354 16 24 16 z M 24 19 A 1.5 1.5 0 0 0 24 22 A 1.5 1.5 0 0 0 24 19 z M 24 24 A 1.5 1.5 0 0 0 24 27 A 1.5 1.5 0 0 0 24 24 z M 18.5 26.5 A 1.5 1.5 0 0 0 18.5 29.5 A 1.5 1.5 0 0 0 18.5 26.5 z M 29.5 26.5 A 1.5 1.5 0 0 0 29.5 29.5 A 1.5 1.5 0 0 0 29.5 26.5 z M 24 29 A 1.5 1.5 0 0 0 24 32 A 1.5 1.5 0 0 0 24 29 z"/></svg>