<svg xmlns="http://www.w3.org/2000/svg"  viewBox="0 0 48 48" width="50px" height="50px"><path d="M 19.449219 5 C 15.291924 5 11.578842 7.2666475 8.9902344 10.726562 C 6.4016267 14.186478 4.8554687 18.864253 4.8554688 24 C 4.8554688 24.06279 4.8686796 24.120943 4.8691406 24.183594 A 1.50015 1.50015 0 0 0 4.9335938 25.029297 C 5.1287224 29.751118 6.5790777 34.050701 8.9902344 37.273438 C 11.578842 40.733353 15.291924 43 19.449219 43 C 19.62048 43 19.789278 42.99004 19.958984 42.982422 C 20.188215 42.988047 20.415305 43 20.646484 43 C 32.91909 43 43.144531 34.637685 43.144531 24 C 43.144531 13.362315 32.91909 5 20.646484 5 C 20.381592 5 20.11973 5.0063133 19.859375 5.0136719 C 19.722584 5.0087309 19.58701 5 19.449219 5 z M 19.449219 8 C 20.998187 8 22.485314 8.4214957 23.855469 9.2050781 L 18.804688 21.408203 L 12.787109 10.978516 C 14.709717 9.0904707 16.994239 8 19.449219 8 z M 28.917969 9.5253906 C 35.595332 12.103339 40.144531 17.677284 40.144531 24 C 40.144531 30.322716 35.595332 35.896661 28.917969 38.474609 C 29.263249 38.092495 29.5947 37.692463 29.908203 37.273438 C 32.496811 33.813522 34.042969 29.135747 34.042969 24 C 34.042969 18.864253 32.496811 14.186479 29.908203 10.726562 C 29.5947 10.307537 29.263249 9.9075055 28.917969 9.5253906 z M 26.287109 11.175781 C 26.704577 11.602799 27.128151 12.018595 27.505859 12.523438 C 29.493038 15.179486 30.775975 18.881897 30.966797 23 L 21.394531 23 L 26.287109 11.175781 z M 10.84375 13.615234 L 16.257812 23 L 7.9316406 23 C 8.1004465 19.357183 9.2250042 16.166924 10.84375 13.615234 z M 8.0078125 26 L 16.90625 26 L 12.484375 36.685547 C 12.113388 36.295135 11.731377 35.929398 11.392578 35.476562 C 9.5683574 33.038322 8.3521184 29.710835 8.0078125 26 z M 21.455078 26 L 30.890625 26 C 30.546331 29.710871 29.330095 33.038302 27.505859 35.476562 C 27.395196 35.624474 27.262658 35.729722 27.148438 35.871094 L 21.455078 26 z M 19.248047 28.183594 L 24.921875 38.015625 C 23.379209 39.173993 21.668953 39.887149 19.849609 39.980469 C 19.710572 39.976062 19.569998 39.977515 19.431641 39.970703 A 1.50015 1.50015 0 0 0 19.154297 39.978516 C 17.657058 39.924119 16.22405 39.477029 14.900391 38.689453 L 19.248047 28.183594 z"/></svg>