<svg xmlns="http://www.w3.org/2000/svg"  viewBox="0 0 48 48" width="50px" height="50px"><path d="M 23.976562 3.9785156 A 1.50015 1.50015 0 0 0 23.71875 4.0078125 C 12.820549 4.1595232 4 13.066427 4 24 C 4 34.938173 12.827887 43.849742 23.732422 43.994141 A 1.50015 1.50015 0 0 0 24.277344 43.994141 A 1.50015 1.50015 0 0 0 24.283203 43.992188 C 35.180503 43.839437 44 34.932919 44 24 C 44 13.067081 35.180503 4.1605634 24.283203 4.0078125 A 1.50015 1.50015 0 0 0 23.976562 3.9785156 z M 25.5 7.0761719 C 34.19914 7.8343782 41 15.100151 41 24 C 41 32.899849 34.19914 40.165622 25.5 40.923828 L 25.5 37.847656 C 32.503228 37.086543 38 31.200939 38 24 C 38 16.799061 32.503228 10.913457 25.5 10.152344 L 25.5 7.0761719 z M 22.5 7.2734375 L 22.5 11.253906 A 1.50015 1.50015 0 0 0 22.5 11.740234 L 22.5 36.253906 A 1.50015 1.50015 0 0 0 22.5 36.740234 L 22.5 40.726562 C 20.831775 40.167046 19.220022 38.701298 17.880859 36.341797 C 16.142401 33.278765 15 28.878442 15 24 C 15 19.121558 16.142401 14.721235 17.880859 11.658203 C 19.220022 9.2987016 20.831775 7.8329539 22.5 7.2734375 z M 16.013672 8.9882812 C 15.754058 9.3686128 15.50564 9.7651699 15.271484 10.177734 C 13.20974 13.810453 12 18.661442 12 24 C 12 29.338558 13.209693 34.189547 15.271484 37.822266 C 15.505867 38.23523 15.753782 38.631069 16.013672 39.011719 C 10.64696 36.157312 7 30.516553 7 24 C 7 17.483447 10.64696 11.842688 16.013672 8.9882812 z M 25.5 13.300781 C 30.845389 14.057756 35 18.439275 35 24 C 35 29.560725 30.845389 33.942244 25.5 34.699219 L 25.5 13.300781 z M 28.623047 16.003906 C 28.040578 15.956141 27.459875 16.254938 27.171875 16.804688 C 26.921875 17.281688 26.970156 18.555672 27.035156 19.388672 C 27.063156 19.755672 27.465203 19.965297 27.783203 19.779297 C 28.504203 19.358297 29.578125 18.672313 29.828125 18.195312 C 30.212125 17.461312 29.929313 16.555875 29.195312 16.171875 C 29.011812 16.075875 28.817203 16.019828 28.623047 16.003906 z M 31.421875 20.001953 C 31.227141 20.011906 31.03025 20.060141 30.84375 20.150391 C 30.35875 20.385391 29.641266 21.438484 29.197266 22.146484 C 29.002266 22.459484 29.200406 22.86625 29.566406 22.90625 C 30.397406 22.99625 31.669297 23.084609 32.154297 22.849609 C 32.899297 22.488609 33.211609 21.590703 32.849609 20.845703 C 32.578859 20.286203 32.006078 19.972094 31.421875 20.001953 z M 30.935547 25 C 30.453047 25.003375 29.927219 25.04875 29.511719 25.09375 C 29.144719 25.13275 28.947578 25.538563 29.142578 25.851562 C 29.585578 26.560563 30.305063 27.614609 30.789062 27.849609 C 31.534063 28.211609 32.432922 27.90125 32.794922 27.15625 C 33.157922 26.41125 32.845609 25.514344 32.099609 25.152344 C 31.857109 25.034844 31.418047 24.996625 30.935547 25 z M 27.535156 28.150391 C 27.286625 28.148187 27.056156 28.336078 27.035156 28.611328 C 26.970156 29.444328 26.921875 30.718313 27.171875 31.195312 C 27.555875 31.928313 28.461312 32.212125 29.195312 31.828125 C 29.929313 31.444125 30.212125 30.538688 29.828125 29.804688 C 29.578125 29.327687 28.504203 28.641703 27.783203 28.220703 C 27.703703 28.174203 27.618 28.151125 27.535156 28.150391 z"/></svg>