<svg xmlns="http://www.w3.org/2000/svg"  viewBox="0 0 48 48" width="50px" height="50px"><path d="M 33.632812 4.6386719 A 1.50015 1.50015 0 0 0 32.5625 5.0800781 L 5.1269531 32.626953 A 1.50015 1.50015 0 0 0 5.0507812 34.662109 C 8.900471 39.153414 14.627999 42 21 42 C 32.580585 42 42 32.580585 42 21 C 42 14.597898 39.125366 8.8466922 34.597656 4.9960938 A 1.50015 1.50015 0 0 0 33.632812 4.6386719 z M 33.607422 8.2832031 C 36.897553 11.544365 39 15.992966 39 21 C 39 30.959415 30.959415 39 21 39 C 16.018726 39 11.588949 36.918578 8.3320312 33.658203 L 12.070312 29.904297 C 13.973019 31.810936 16.602468 33 19.5 33 C 27.357143 33 34 26.357143 34 18.5 C 34 15.584148 32.795707 12.9404 30.867188 11.035156 L 33.607422 8.2832031 z M 28.753906 13.15625 C 30.137457 14.51504 31 16.397548 31 18.5 C 31 24.642857 25.642857 30 19.5 30 C 17.411351 30 15.542831 29.148856 14.185547 27.78125 L 28.753906 13.15625 z M 29 17 C 28.448 17 27 18 27 18 C 27 18 28.448 19 29 19 C 29.552 19 30 18.552 30 18 C 30 17.448 29.552 17 29 17 z M 26.617188 20.722656 C 26.119187 20.736656 25.681641 20.783203 25.681641 20.783203 C 25.681641 20.783203 26.477891 22.353188 26.962891 22.617188 C 27.447891 22.881187 28.054359 22.701797 28.318359 22.216797 C 28.582359 21.731797 28.402969 21.123375 27.917969 20.859375 C 27.674969 20.727375 27.115188 20.708656 26.617188 20.722656 z M 23.076172 24.316406 C 23.076172 24.316406 23.179531 26.074766 23.519531 26.509766 C 23.859531 26.945766 24.488828 27.021641 24.923828 26.681641 C 25.359828 26.341641 25.435703 25.712344 25.095703 25.277344 C 24.755703 24.842344 23.076172 24.316406 23.076172 24.316406 z M 20 26 C 20 26 19 27.448 19 28 C 19 28.552 19.448 29 20 29 C 20.552 29 21 28.552 21 28 C 21 27.448 20 26 20 26 z"/></svg>