<svg xmlns="http://www.w3.org/2000/svg"  viewBox="0 0 48 48" width="50px" height="50px"><path d="M 34.607422 6.0878906 C 33.3648 6.0878906 32.12301 6.5566775 31.183594 7.4960938 L 7.6269531 31.052734 C 5.7481208 32.931567 5.7481208 36.023511 7.6269531 37.902344 C 11.538396 41.814343 16.764041 42.531931 21.5625 41.460938 C 23.266482 41.080616 24.929985 40.480868 26.515625 39.732422 A 1.50015 1.50015 0 0 0 27.373047 39.302734 C 29.911175 37.989826 32.216104 36.297567 34.072266 34.441406 C 37.040954 31.472717 39.880554 26.868603 41.142578 21.912109 C 42.404603 16.955615 41.994888 11.458342 38.033203 7.4960938 C 37.093787 6.5566776 35.850044 6.0878906 34.607422 6.0878906 z M 33.384766 9.5507812 C 33.780671 10.303086 34 11.126139 34 12 C 34 15.22312 30.978619 18 27 18 C 26.353259 18 25.73324 17.918615 25.142578 17.779297 L 33.304688 9.6171875 C 33.329851 9.5920238 33.358681 9.5742085 33.384766 9.5507812 z M 36.900391 10.769531 C 39.041799 13.68847 39.204745 17.368502 38.236328 21.171875 C 38.07747 21.795776 37.87865 22.417671 37.660156 23.035156 C 37.282531 23.012959 36.896718 23 36.5 23 C 32.882516 23 29.579848 24.087193 27.115234 25.935547 C 24.650621 27.783901 23 30.474065 23 33.5 C 23 34.937491 23.380856 36.306145 24.037109 37.541016 C 23.007128 37.95998 21.956955 38.299126 20.908203 38.533203 C 19.200306 38.914398 17.526235 39.021942 15.923828 38.816406 C 17.83134 37.054927 19 34.41209 19 31.5 C 19 29.328932 18.344518 27.316402 17.224609 25.697266 L 22.773438 20.148438 C 24.064144 20.690626 25.494536 21 27 21 C 32.409381 21 37 17.06088 37 12 C 37 11.582745 36.961937 11.172335 36.900391 10.769531 z M 36.392578 26.003906 C 35.129508 28.510019 33.517846 30.753639 31.951172 32.320312 C 30.508047 33.763437 28.706814 35.121256 26.740234 36.228516 C 26.261847 35.37021 26 34.457905 26 33.5 C 26 31.554935 27.035426 29.744834 28.914062 28.335938 C 30.770042 26.944032 33.426859 26.025934 36.392578 26.003906 z M 15.052734 27.869141 C 15.641527 28.897114 16 30.143144 16 31.5 C 16 34.282014 14.505762 36.585111 12.572266 37.519531 A 1.50015 1.50015 0 0 0 12.294922 37.6875 C 11.400147 37.207314 10.546344 36.579661 9.7480469 35.78125 C 9.0148792 35.048082 9.0148792 33.906996 9.7480469 33.173828 L 15.052734 27.869141 z"/></svg>