<svg xmlns="http://www.w3.org/2000/svg"  viewBox="0 0 48 48" width="50px" height="50px"><path d="M 25.433594 4.5039062 C 25.021611 4.4937834 24.615615 4.5220022 24.220703 4.5839844 C 21.851231 4.9558776 19.852422 6.5657274 18.980469 8.7460938 C 18.269516 10.524452 17.500958 12.199935 16.480469 13.652344 L 15.337891 15.277344 C 13.919451 17.295449 11.901248 18.817634 9.5664062 19.761719 C 5.626109 21.354655 2.8795735 25.280222 3.0039062 29.796875 C 3.1562878 35.301362 7.6851355 39.996094 13.244141 39.996094 C 13.862331 39.996094 14.471587 39.950671 15.076172 39.884766 A 1.50015 1.50015 0 0 0 15.257812 40.007812 C 23.396521 44.877448 35.301481 44.444858 43.175781 36.744141 C 44.837649 35.118974 46.225674 32.762832 45.677734 30.103516 C 44.980833 26.726127 41.985725 24.571974 38.855469 24.662109 C 36.942023 24.716779 35.099528 24.676619 33.361328 24.318359 L 32.330078 24.105469 C 33.655626 19.530076 33.64748 14.457767 31.783203 9.5839844 C 30.952961 7.4132005 29.344287 5.2038482 26.685547 4.6503906 C 26.263546 4.5624936 25.845577 4.5140291 25.433594 4.5039062 z M 25.345703 7.5 C 25.582927 7.506842 25.826469 7.5343345 26.074219 7.5859375 C 27.383478 7.85848 28.36271 9.0410338 28.980469 10.65625 C 33.731921 23.077984 24.275477 36.996094 13.244141 36.996094 C 10.920348 36.996094 8.8957738 35.677758 7.5566406 33.832031 C 9.4055092 33.683814 12.167693 33.32043 15.582031 31.882812 C 20.661651 29.744025 26 25.09375 26 16.5 A 1.50015 1.50015 0 1 0 23 16.5 C 23 23.90625 18.838349 27.255975 14.417969 29.117188 C 10.615647 30.718165 7.2881148 30.895947 6.2832031 30.931641 C 6.1982331 30.521118 6.0157044 30.139076 6.0039062 29.712891 C 5.9142392 26.455544 7.8837038 23.678033 10.691406 22.542969 C 13.510564 21.403053 16.013408 19.533848 17.792969 17.001953 L 18.933594 15.376953 C 20.167105 13.621362 21.020578 11.723017 21.765625 9.859375 C 22.248172 8.6527413 23.314644 7.7453099 24.654297 7.5410156 C 24.877572 7.5069666 25.108479 7.493158 25.345703 7.5 z M 31.302734 26.957031 L 32.753906 27.257812 C 34.855164 27.691198 36.935529 27.71942 38.941406 27.662109 C 40.67315 27.612239 42.331136 28.728325 42.740234 30.710938 C 43.009231 32.021043 42.315613 33.389408 41.080078 34.597656 A 1.50015 1.50015 0 0 0 41.080078 34.599609 C 35.111084 40.437819 26.319222 41.413431 19.556641 38.779297 C 21.28398 38.101166 22.909057 37.159519 24.394531 36.001953 C 27.664529 36.714697 32.015373 35.90912 37.056641 33.892578 A 1.50015 1.50015 0 0 0 36.482422 30.992188 A 1.50015 1.50015 0 0 0 35.943359 31.107422 C 32.592973 32.447576 29.604259 33.098424 27.363281 33.205078 C 28.972938 31.375726 30.308482 29.25644 31.302734 26.957031 z"/></svg>