<svg xmlns="http://www.w3.org/2000/svg"  viewBox="0 0 48 48" width="50px" height="50px"><path d="M 29.667969 4.1230469 C 29.110878 4.1319202 28.553267 4.1682611 27.996094 4.2324219 C 26.510299 4.4035172 25.032119 4.7729783 23.603516 5.3515625 C 19.565518 6.9863519 16.446715 10.439246 14.869141 13.923828 C 14.080353 15.666119 13.660845 17.434238 13.859375 19.113281 C 14.057905 20.792325 15.059477 22.422021 16.75 23.179688 C 18.533042 23.978939 20.348395 23.700513 21.607422 22.921875 C 22.866449 22.143237 23.740255 21.077687 24.650391 20.199219 C 25.560527 19.320751 26.439379 18.636622 27.515625 18.341797 C 28.591871 18.046972 29.976189 18.07001 32.126953 19.009766 C 33.630018 19.667251 35.324515 20.106908 37.037109 20.007812 C 38.749704 19.908722 40.53873 19.168896 41.699219 17.568359 C 43.927212 14.496794 43.38164 10.141404 40.439453 7.7753906 C 37.411608 5.3402182 33.567602 4.0609335 29.667969 4.1230469 z M 29.716797 7.1308594 C 32.930274 7.084756 36.101501 8.1371414 38.558594 10.113281 C 40.222407 11.451267 40.561491 14.028206 39.271484 15.806641 C 38.672973 16.632104 37.920187 16.952517 36.863281 17.013672 C 35.806376 17.074822 34.504013 16.775233 33.330078 16.261719 L 33.328125 16.261719 C 30.73339 15.127974 28.532441 14.95345 26.722656 15.449219 C 24.912871 15.944988 23.605348 17.040109 22.568359 18.041016 C 21.53137 19.041923 20.699051 19.956888 20.029297 20.371094 C 19.359543 20.785299 19.024521 20.911157 17.976562 20.441406 C 17.216085 20.100572 16.944142 19.660331 16.837891 18.761719 C 16.731639 17.863106 16.975428 16.54749 17.603516 15.160156 C 18.859691 12.385489 21.593513 9.4020231 24.728516 8.1328125 C 25.89996 7.6583987 27.116169 7.357186 28.339844 7.21875 C 28.798722 7.1668365 29.257729 7.1374456 29.716797 7.1308594 z M 29.289062 23.986328 C 29.072049 23.976997 28.858395 23.982491 28.648438 24 C 27.808608 24.07004 27.035223 24.346527 26.408203 24.75 C 25.154164 25.556947 24.289417 26.654165 23.384766 27.5625 C 22.480114 28.470835 21.605823 29.176042 20.550781 29.476562 C 19.495739 29.777083 18.142332 29.755693 16.011719 28.787109 C 14.514615 28.106403 12.82161 27.648691 11.105469 27.751953 C 9.389327 27.855215 7.5987221 28.634226 6.4550781 30.275391 C 4.2586625 33.427863 4.7806989 37.839759 7.703125 40.283203 C 12.284515 44.117219 18.785741 45.188543 24.476562 42.791016 C 28.50008 41.0961 31.585718 37.530516 33.144531 33.949219 C 33.923938 32.15857 34.334656 30.345962 34.140625 28.638672 C 33.946594 26.931382 32.976306 25.268908 31.285156 24.480469 C 30.617512 24.169147 29.940102 24.014323 29.289062 23.986328 z M 28.886719 26.896484 C 29.171479 26.871484 29.502021 26.958814 30.017578 27.199219 C 30.760928 27.54578 31.051531 28.022712 31.160156 28.978516 C 31.268782 29.934319 31.0225 31.309227 30.394531 32.751953 C 29.138594 35.637406 26.412982 38.721259 23.3125 40.027344 C 18.673322 41.981816 13.347516 41.094406 9.6289062 37.982422 C 7.9753324 36.599866 7.6204312 33.849762 8.9160156 31.990234 C 9.5193717 31.124399 10.250798 30.808332 11.285156 30.746094 C 12.319515 30.683854 13.607635 30.989284 14.769531 31.517578 C 17.352918 32.691994 19.56137 32.87737 21.373047 32.361328 C 23.184724 31.845286 24.480542 30.713101 25.509766 29.679688 C 26.538989 28.646272 27.36982 27.6971 28.03125 27.271484 C 28.361965 27.058677 28.601959 26.921487 28.886719 26.896484 z"/></svg>