<svg xmlns="http://www.w3.org/2000/svg"  viewBox="0 0 48 48" width="50px" height="50px"><path d="M 1.4765625 9.9785156 A 1.50015 1.50015 0 0 0 0 11.5 L 0 16.5 C 0 19.541169 2.1646906 21.997372 5 22.695312 L 5 36.5 A 1.50015 1.50015 0 1 0 8 36.5 L 8 22.695312 C 10.835309 21.997372 13 19.541169 13 16.5 L 13 11.5 A 1.50015 1.50015 0 1 0 10 11.5 L 10 16.5 C 10 17.905134 9.1793044 19.079196 8 19.638672 L 8 11.5 A 1.50015 1.50015 0 1 0 5 11.5 L 5 19.638672 C 3.8206956 19.079196 3 17.905134 3 16.5 L 3 11.5 A 1.50015 1.50015 0 0 0 1.4765625 9.9785156 z M 41.429688 10.015625 A 1.50015 1.50015 0 0 0 39.931641 11.519531 L 40 36.503906 A 1.50015 1.50015 0 1 0 43 36.496094 L 42.986328 31.392578 C 45.512949 29.97221 47.052917 27.958408 47.599609 25.771484 C 48.207121 23.341267 47.76951 20.854728 47.015625 18.632812 C 45.507856 14.188982 42.605469 10.582031 42.605469 10.582031 A 1.50015 1.50015 0 0 0 41.429688 10.015625 z M 25.5 12 C 18.614204 12 13 17.614209 13 24.5 C 13 31.385791 18.614204 37 25.5 37 C 32.385796 37 38 31.385791 38 24.5 C 38 17.614209 32.385796 12 25.5 12 z M 25.5 15 C 30.764477 15 35 19.235527 35 24.5 C 35 29.764473 30.764477 34 25.5 34 C 20.235523 34 16 29.764473 16 24.5 C 16 19.235527 20.235523 15 25.5 15 z M 42.947266 17.082031 C 43.378167 17.934691 43.852126 18.643751 44.175781 19.597656 C 44.818647 21.492366 45.091254 23.437608 44.689453 25.044922 C 44.44486 26.023361 43.839589 26.886328 42.976562 27.689453 L 42.947266 17.082031 z M 22.990234 18.986328 A 1.0001 1.0001 0 0 0 22.292969 19.292969 L 21.5 20.085938 L 20.707031 19.292969 A 1.0001 1.0001 0 0 0 19.990234 18.990234 A 1.0001 1.0001 0 0 0 19.292969 20.707031 L 20.085938 21.5 L 19.292969 22.292969 A 1.0001 1.0001 0 1 0 20.707031 23.707031 L 21.5 22.914062 L 22.292969 23.707031 A 1.0001 1.0001 0 1 0 23.707031 22.292969 L 22.914062 21.5 L 23.707031 20.707031 A 1.0001 1.0001 0 0 0 22.990234 18.986328 z M 30.990234 18.986328 A 1.0001 1.0001 0 0 0 30.292969 19.292969 L 29.5 20.085938 L 28.707031 19.292969 A 1.0001 1.0001 0 0 0 27.990234 18.990234 A 1.0001 1.0001 0 0 0 27.292969 20.707031 L 28.085938 21.5 L 27.292969 22.292969 A 1.0001 1.0001 0 1 0 28.707031 23.707031 L 29.5 22.914062 L 30.292969 23.707031 A 1.0001 1.0001 0 1 0 31.707031 22.292969 L 30.914062 21.5 L 31.707031 20.707031 A 1.0001 1.0001 0 0 0 30.990234 18.986328 z M 25.433594 26.025391 C 23.565504 26.033591 21.700332 26.395119 19.9375 27.109375 A 1.50015 1.50015 0 1 0 21.0625 29.890625 C 23.872307 28.752161 27.01148 28.738723 29.832031 29.849609 L 29.833984 29.849609 C 29.835884 29.850371 29.837844 29.850762 29.839844 29.851562 L 29.943359 29.892578 A 1.50015 1.50015 0 1 0 31.056641 27.107422 L 30.947266 27.0625 A 1.50015 1.50015 0 0 0 30.941406 27.060547 C 29.172665 26.362506 27.301684 26.017181 25.433594 26.025391 z"/></svg>