<svg xmlns="http://www.w3.org/2000/svg"  viewBox="0 0 48 48" width="50px" height="50px"><path d="M 12.490234 3.9785156 A 1.50015 1.50015 0 0 0 11.005859 5.6367188 C 11.17485 7.4956178 11.681052 9.0226765 12.310547 10.404297 C 10.698602 16.236498 12.458168 21.100972 15.892578 24 L 5.5 24 C 3.5850452 24 2 25.585045 2 27.5 C 2 36.568182 9.4318182 44 18.5 44 L 29.5 44 C 38.594719 44 46 36.594719 46 27.5 C 46 25.585045 44.414955 24 42.5 24 L 34.333984 24 C 35.428204 23.277749 36.486208 22.425998 37.482422 21.429688 A 1.50015 1.50015 0 0 0 36.695312 18.894531 C 34.896378 18.560651 33.629198 17.143304 32.429688 15.210938 C 31.230455 13.279016 30.32434 11.000109 28.730469 9.40625 C 26.422279 7.0980599 23.065636 6.2286596 19.859375 6.8808594 A 1.50015 1.50015 0 1 0 20.457031 9.8203125 C 22.756771 9.3525122 25.065565 9.9835337 26.609375 11.527344 C 27.470815 12.388433 28.526619 14.611337 29.880859 16.792969 C 30.781416 18.243733 31.953658 19.704922 33.503906 20.716797 C 29.107392 24.039618 24.004997 24.69494 20.242188 23.171875 C 16.706929 21.740915 14.438709 18.660029 14.777344 14.023438 C 15.845691 15.118422 16.988679 16.036442 18.142578 16.626953 C 21.317537 18.251746 24.355469 18.333984 24.355469 18.333984 A 1.50015 1.50015 0 1 0 24.447266 15.335938 C 24.447266 15.335938 22.035807 15.249738 19.509766 13.957031 C 16.983724 12.664324 14.449768 10.375183 13.994141 5.3632812 A 1.50015 1.50015 0 0 0 12.490234 3.9785156 z M 5.5 27 L 24.601562 27 C 24.671847 27.000287 24.742046 27.000643 24.8125 27 L 42.5 27 C 42.795045 27 43 27.204955 43 27.5 C 43 34.973281 36.973281 41 29.5 41 L 18.5 41 C 11.068182 41 5 34.931818 5 27.5 C 5 27.204955 5.2049548 27 5.5 27 z"/></svg>