<svg xmlns="http://www.w3.org/2000/svg"  viewBox="0 0 48 48" width="50px" height="50px"><path d="M 31.125 2.0097656 C 30.481641 2.0098304 29.837022 2.2515866 29.355469 2.734375 L 27.943359 4.1464844 C 25.418362 6.672775 25.417922 10.812453 27.943359 13.337891 L 30.417969 15.814453 C 30.425152 15.821636 30.434113 15.825085 30.441406 15.832031 L 26.316406 19.972656 L 28.4375 22.09375 L 32.558594 17.955078 L 34.662109 20.056641 C 37.187547 22.582078 41.327225 22.581638 43.853516 20.056641 L 45.265625 18.644531 L 45.267578 18.642578 C 46.231225 17.679251 46.230313 16.070157 45.267578 15.107422 L 42.792969 12.632812 C 41.866385 11.706285 40.727736 11.168415 39.53125 10.955078 L 42.441406 8.0332031 C 43.026406 7.4462031 43.0245 6.4961094 42.4375 5.9121094 C 41.8505 5.3271094 40.900406 5.3309688 40.316406 5.9179688 L 37.125 9.1210938 C 37.012851 7.6892881 36.46101 6.3008546 35.367188 5.2070312 L 32.892578 2.7324219 C 32.41089 2.2507335 31.768359 2.0097009 31.125 2.0097656 z M 5.4746094 3.984375 A 1.50015 1.50015 0 0 0 4.4296875 6.5605469 L 15.082031 17.212891 A 1.50015 1.50015 0 0 0 14.507812 17.582031 L 13.800781 18.289062 C 11.274818 20.815026 11.274818 24.954506 13.800781 27.480469 L 16.275391 29.955078 A 1.50015 1.50015 0 0 0 16.326172 30.001953 L 11.386719 34.960938 A 1.50015 1.50015 0 0 0 11.380859 34.962891 A 1.50015 1.50015 0 0 0 11.326172 34.90625 L 8.8515625 32.429688 C 7.4715254 31.04965 7.4715254 28.860506 8.8515625 27.480469 L 9.5585938 26.773438 A 1.50015 1.50015 0 0 0 8.46875 24.199219 A 1.50015 1.50015 0 0 0 7.4375 24.652344 L 6.7304688 25.359375 C 4.2045058 27.885338 4.2045058 32.024818 6.7304688 34.550781 L 9.2050781 37.027344 A 1.50015 1.50015 0 0 0 9.2695312 37.085938 L 2.9375 43.441406 C 2.3525 44.028406 2.3544062 44.9785 2.9414062 45.5625 C 3.2334062 45.8545 3.617 46 4 46 C 4.385 46 4.7695 45.852594 5.0625 45.558594 L 11.386719 39.208984 L 13.449219 41.269531 C 15.975182 43.795494 20.114662 43.795494 22.640625 41.269531 L 23.347656 40.5625 A 1.50015 1.50015 0 1 0 21.226562 38.441406 L 20.519531 39.148438 C 19.139494 40.528475 16.95035 40.528475 15.570312 39.148438 L 13.503906 37.083984 L 18.445312 32.125 L 20.519531 34.199219 C 23.045494 36.725182 27.184975 36.725182 29.710938 34.199219 L 30.417969 33.492188 A 1.50015 1.50015 0 0 0 30.789062 32.919922 L 41.429688 43.560547 A 1.50015 1.50015 0 1 0 43.550781 41.439453 L 6.5507812 4.4394531 A 1.50015 1.50015 0 0 0 5.4746094 3.984375 z M 31.125 5.2070312 L 33.246094 7.328125 C 34.626131 8.7081621 34.626131 10.89926 33.246094 12.279297 L 32.185547 13.337891 L 30.064453 11.216797 C 28.685891 9.8382343 28.68545 7.6472875 30.064453 6.2675781 L 31.125 5.2070312 z M 22.640625 10.072266 C 22.256875 10.072266 21.873078 10.218719 21.580078 10.511719 L 20.873047 11.21875 C 20.289047 11.80275 19.84625 12.4735 19.53125 13.1875 L 21.986328 15.642578 C 22.027328 14.804578 22.356141 13.977844 22.994141 13.339844 L 23.701172 12.632812 C 24.287172 12.047812 24.287172 11.096719 23.701172 10.511719 C 23.408172 10.218719 23.024375 10.072266 22.640625 10.072266 z M 38.197266 13.71875 C 39.089676 13.71875 39.981856 14.063888 40.671875 14.753906 L 42.792969 16.875 L 41.732422 17.935547 C 40.352712 19.31455 38.161766 19.314109 36.783203 17.935547 L 34.677734 15.830078 L 35.869141 14.632812 C 36.537583 14.032152 37.364652 13.71875 38.197266 13.71875 z M 16.996094 19.126953 L 22.087891 24.21875 L 18.441406 27.878906 A 1.50015 1.50015 0 0 0 18.398438 27.833984 L 15.921875 25.359375 C 14.541838 23.979338 14.541838 21.790193 15.921875 20.410156 L 16.628906 19.703125 A 1.50015 1.50015 0 0 0 16.996094 19.126953 z M 36.429688 23.859375 C 36.045938 23.859375 35.662141 24.005828 35.369141 24.298828 L 34.662109 25.005859 C 34.023109 25.643859 33.195422 25.972672 32.357422 26.013672 L 34.814453 28.46875 C 35.528453 28.15375 36.199203 27.710953 36.783203 27.126953 L 37.490234 26.419922 C 38.076234 25.834922 38.076234 24.883828 37.490234 24.298828 C 37.197234 24.005828 36.813437 23.859375 36.429688 23.859375 z M 24.208984 26.339844 L 28.869141 31 A 1.50015 1.50015 0 0 0 28.296875 31.371094 L 27.589844 32.078125 C 26.209807 33.458162 24.020662 33.458162 22.640625 32.078125 L 20.5625 30 L 24.208984 26.339844 z"/></svg>