<svg xmlns="http://www.w3.org/2000/svg"  viewBox="0 0 48 48" width="50px" height="50px"><path d="M 10 5.9980469 C 7.791 5.9980469 6 7.7890469 6 9.9980469 L 6 38.001953 C 6 40.210953 7.791 42.001953 10 42.001953 L 38 42.001953 C 40.209 42.001953 42 40.210953 42 38.001953 L 42 9.9980469 C 42 7.7890469 40.209 5.9980469 38 5.9980469 L 10 5.9980469 z M 10 8.9980469 L 38 8.9980469 C 38.551 8.9980469 39 9.4470469 39 9.9980469 L 39 38.001953 C 39 38.552953 38.551 39.001953 38 39.001953 L 10 39.001953 C 9.449 39.001953 9 38.552953 9 38.001953 L 9 9.9980469 C 9 9.4470469 9.449 8.9980469 10 8.9980469 z M 33.380859 10.623047 A 1.50015 1.50015 0 0 0 33.232422 10.625 A 1.50015 1.50015 0 0 0 32.585938 10.814453 L 27.585938 13.613281 A 1.50015 1.50015 0 0 0 27.546875 13.636719 C 25.689382 14.751215 25.34813 17.153766 26.095703 19.396484 C 26.096657 19.399584 26.153806 19.598166 26.160156 19.619141 L 19.880859 18.048828 L 19.863281 18.044922 A 1.50015 1.50015 0 0 0 18.679688 18.228516 L 13.683594 20.564453 A 1.50015 1.50015 0 0 0 13.546875 20.636719 C 11.689382 21.751215 11.34813 24.153766 12.095703 26.396484 C 12.106033 26.430464 12.436099 27.518096 12.800781 28.806641 C 13.171114 30.115149 13.571535 31.692152 13.634766 32.134766 A 1.50015 1.50015 0 0 0 13.675781 32.335938 C 13.899545 33.11911 13.648438 35.029297 13.648438 35.029297 A 1.50015 1.50015 0 0 0 15.863281 36.625 L 21.462891 33.425781 A 1.50015 1.50015 0 0 0 21.490234 33.410156 C 23.13629 32.422523 23.435932 30.403588 22.998047 28.400391 L 28.722656 29.769531 L 28.769531 29.78125 A 1.50015 1.50015 0 0 0 28.869141 29.800781 A 1.50015 1.50015 0 0 0 29.017578 29.820312 A 1.50015 1.50015 0 0 0 30.058594 29.513672 L 35.462891 26.425781 A 1.50015 1.50015 0 0 0 35.490234 26.410156 C 37.149436 25.414635 37.451841 23.372702 36.996094 21.353516 C 37.002994 21.301326 37.015928 21.232006 37.017578 21.199219 L 36.984375 21.203125 C 36.937205 21.013371 37.004186 20.836784 36.941406 20.648438 A 1.50015 1.50015 0 0 0 36.878906 20.494141 C 36.871206 20.468451 36.873411 20.477596 36.863281 20.441406 C 36.809511 20.248626 36.725143 19.918879 36.623047 19.511719 C 36.418855 18.697399 36.144256 17.561852 35.871094 16.416016 C 35.324769 14.124344 34.779297 11.783203 34.779297 11.783203 A 1.50015 1.50015 0 0 0 33.380859 10.623047 z M 32.314453 14.404297 C 32.524837 15.302994 32.633441 15.77035 32.953125 17.111328 C 33.227588 18.262617 33.502802 19.402398 33.712891 20.240234 C 33.817935 20.659153 33.905472 21.000183 33.974609 21.248047 C 34.009179 21.371979 34.033399 21.459878 34.078125 21.585938 C 34.080325 21.592037 34.096826 21.62 34.097656 21.625 C 34.530856 22.961158 34.088556 23.751164 33.947266 23.835938 L 30.660156 25.714844 C 30.624566 25.310325 30.680993 24.967661 30.564453 24.548828 C 30.412222 23.595376 30.050646 22.273348 29.6875 20.990234 C 29.307833 19.648743 28.953125 18.486328 28.953125 18.486328 A 1.50015 1.50015 0 0 0 28.941406 18.449219 C 28.490374 17.096123 28.943906 16.302502 29.087891 16.212891 L 32.314453 14.404297 z M 21.498047 21.544922 L 27.085938 22.941406 C 27.315178 23.817008 27.593098 24.843092 27.634766 25.134766 A 1.50015 1.50015 0 0 0 27.675781 25.335938 C 27.766811 25.654546 27.681582 25.944403 27.664062 26.431641 L 22.322266 25.154297 C 22.201127 24.632781 22.094587 24.188056 21.964844 23.619141 C 21.731014 22.593817 21.680573 22.358623 21.498047 21.544922 z M 18.445312 21.648438 C 18.638109 22.510313 18.741163 22.980837 19.039062 24.287109 C 19.290879 25.391307 19.543282 26.482471 19.736328 27.285156 C 19.832848 27.686499 19.914412 28.011746 19.978516 28.25 C 20.010566 28.369127 20.032052 28.45299 20.076172 28.580078 C 20.078372 28.586378 20.097196 28.618087 20.097656 28.623047 C 20.532206 29.960699 20.088656 30.751113 19.947266 30.835938 L 16.660156 32.714844 C 16.624566 32.310325 16.680993 31.967661 16.564453 31.548828 C 16.412222 30.595376 16.050646 29.273348 15.6875 27.990234 C 15.307833 26.648743 14.953125 25.486328 14.953125 25.486328 A 1.50015 1.50015 0 0 0 14.941406 25.449219 C 14.493164 24.104493 14.937106 23.318438 15.083984 23.220703 L 18.445312 21.648438 z"/></svg>