<svg xmlns="http://www.w3.org/2000/svg"  viewBox="0 0 48 48" width="50px" height="50px"><path d="M43.561 41.439l-37-37c-.586-.586-1.535-.586-2.121 0s-.586 1.535 0 2.121l8.117 8.117c-3.491 5.147-5.085 12.959-5.29 17.776-.201 4.733.833 5.768 1.173 6.107 1.208 1.208 4.908 1.934 9.318 1.934 5.607 0 12.353-1.178 16.593-4.022l7.088 7.088C41.732 43.854 42.116 44 42.5 44s.768-.146 1.061-.439C44.146 42.975 44.146 42.025 43.561 41.439zM10.609 36.495c-1.07-1.666-.046-13.147 4.089-19.676L32.19 34.311C25.384 38.465 12.074 37.655 10.609 36.495zM21.042 11.429C21.017 11.617 21 11.807 21 12c0 1.257.465 2.436 1.287 3.34-.05.14-.076.287-.113.431l16.453 16.453c3.92-5.585 3.3-12.427-1.98-18.691-3.575-4.242-7.668-6.269-11.902-6.068-.193-.021-.39-.005-.582.051-2.431.232-4.902 1.199-7.344 2.901l2.155 2.155C19.667 12.12 20.356 11.737 21.042 11.429zM25.001 10.469c.1-.003.201-.016.301-.016 2.047 0 4.038.702 5.948 2.083-.13.036-.251.09-.357.17-.882.665-.506 2.652.84 4.438s3.152 2.696 4.035 2.031c.302-.227.445-.617.464-1.092 1.502 2.511 2.129 5.006 1.89 7.386C37.518 25.791 36.726 26 36 26c-1.07 0-1.943-.844-1.987-1.92-.021-.506-.295-.967-.729-1.227-.435-.259-.972-.283-1.425-.061C30.486 23.461 29 22.39 29 21c0-.108.021-.213.037-.316.076-.475-.079-.956-.417-1.297s-.821-.496-1.294-.425C27.219 18.979 27.111 19 27 19c-1.103 0-2-.897-2-2 0-.412.131-.813.38-1.16.242-.338.333-.76.252-1.167s-.328-.763-.68-.981C24.356 13.321 24 12.688 24 12 24 11.33 24.531 10.805 25.001 10.469z"/></svg>