<svg xmlns="http://www.w3.org/2000/svg"  viewBox="0 0 48 48" width="50px" height="50px"><path d="M43.561 41.439l-37-37c-.586-.586-1.535-.586-2.121 0s-.586 1.535 0 2.121l6.902 6.902-.761 1.521C10.201 15.742 10 16.593 10 17.444V40.5c0 1.93 1.57 3.5 3.5 3.5h21c1.93 0 3.5-1.57 3.5-3.5v-.379l3.439 3.439C41.732 43.854 42.116 44 42.5 44s.768-.146 1.061-.439C44.146 42.975 44.146 42.025 43.561 41.439zM13.5 41c-.276 0-.5-.225-.5-.5V18h2.879L25 27.121V41H13.5zM35 40.5c0 .275-.224.5-.5.5H28V30.121l7 7V40.5zM17.427 8h11.645l-3.492 6.983c-.003.005-.004.011-.007.017h-4.171L28 21.597v-4.153c0-.388.091-.773.264-1.118L31.5 9.854l3.235 6.47C34.909 16.672 35 17.059 35 17.444v11.153l3 3V17.444c0-.848-.2-1.697-.58-2.46L33 6.145V4.5C33 3.672 32.329 3 31.5 3h-15C15.671 3 15 3.672 15 4.5v1.645L14.183 7.78l2.236 2.236L17.427 8z"/></svg>