<svg xmlns="http://www.w3.org/2000/svg"  viewBox="0 0 48 48" width="50px" height="50px"><path d="M 16.501953 3.5019531 C 14.758843 3.5365999 13.029175 4.2135594 11.740234 5.5234375 C 8.3547203 8.9631797 3 15.999228 3 22.716797 L 3 23.660156 C 3 30.324934 6.1399245 36.605043 11.472656 40.603516 L 13.292969 41.970703 A 1.50015 1.50015 0 0 0 13.294922 41.970703 C 14.499114 42.87341 15.991263 43.214889 17.417969 43 L 24.5 43 C 28.5925 43 31.56251 42.629109 34.048828 41.611328 C 36.535146 40.593547 38.425245 38.932257 40.292969 36.691406 C 43.334537 33.041956 45 28.440135 45 23.689453 L 45 18.5 C 45 16.032499 42.967501 14 40.5 14 L 28.097656 14 C 27.897111 13.64979 27.693289 13.302149 27.482422 12.960938 C 25.536234 9.8117435 23.182924 7.0834083 21.337891 5.3398438 C 20.000493 4.0751804 18.245063 3.4673064 16.501953 3.5019531 z M 18 6.7773438 C 18.477182 6.9374094 18.918098 7.1798235 19.277344 7.5195312 C 20.90531 9.0579668 23.148125 11.654303 24.929688 14.537109 C 26.711248 17.419916 28 20.602456 28 23.189453 C 28 29.155823 25.075665 34.739938 20.169922 38.136719 L 18.017578 39.625 C 18.012178 39.6287 18.00538 39.627159 18 39.630859 L 18 6.7773438 z M 15 6.9023438 L 15 39.5 L 13.271484 38.203125 C 8.6922167 34.769598 6 29.383378 6 23.660156 L 6 22.716797 C 6 17.754365 10.896421 10.659164 13.878906 7.6289062 C 14.192242 7.3104805 14.582807 7.0793744 15 6.9023438 z M 29.591797 17 L 39.755859 17 L 30.892578 25.230469 C 30.958019 24.555038 31 23.875469 31 23.189453 C 31 21.106871 30.442844 19.014884 29.591797 17 z M 42 19.011719 L 42 23.689453 C 42 27.738771 40.580713 31.660934 37.988281 34.771484 C 36.282005 36.818633 34.852292 38.041719 32.912109 38.835938 C 30.971927 39.630156 28.4075 40 24.5 40 L 22.689453 40 C 25.934907 37.515653 28.354081 34.176193 29.720703 30.414062 L 42 19.011719 z"/></svg>