<svg xmlns="http://www.w3.org/2000/svg"  viewBox="0 0 48 48" width="50px" height="50px"><path d="M 24 3.9980469 C 12.954 3.9980469 4 12.954 4 24 C 4 35.046 12.955 44.001953 24 44.001953 C 35.046 44.001953 44 35.046 44 24 C 44 12.954 35.045 3.9980469 24 3.9980469 z M 24 6.9980469 C 33.374 6.9980469 41 14.626 41 24 C 41 33.374 33.374 41.001953 24 41.001953 C 14.626 41.001953 7 33.374 7 24 C 7 14.626 14.626 6.9980469 24 6.9980469 z M 16.5 10.998047 C 15.5 11.998047 15 12.998047 15.5 14.498047 C 16 15.998047 16.5 21.498047 16.5 23.998047 C 16.5 25.998047 13 25.998047 12.5 25.998047 C 12 25.998047 8 25.998047 10.5 20.998047 C 9.5 21.998047 8.5 22.998047 8.5 24.998047 C 8.5 26.998047 10.5 27.998047 13 27.998047 C 15.5 27.998047 17.5 25.998047 17.5 23.998047 C 17.5 21.998047 16.5 14.498047 17.5 13.498047 C 17 12.998047 16.5 11.998047 16.5 10.998047 z M 26 13.998047 C 24.5 25.498047 20.5 26.498047 16.5 27.998047 C 25.5 28.498047 26 18.498047 26 18.498047 L 26 23.998047 C 26 26.998047 28 27.498047 29.5 27.498047 C 32 27.498047 36 25.498047 36 25.498047 L 38 25.498047 L 39 23.498047 L 37 23.498047 C 35.5 22.498047 34 20.998047 32 20.998047 C 30.5 20.998047 29 22.998047 29 23.998047 C 30.5 22.498047 32.5 23.498047 34 23.998047 C 32.5 25.498047 30 25.498047 29 25.498047 C 28 25.498047 27 24.498047 27 22.998047 C 27 21.998047 27 15.498047 26 13.998047 z M 18 15.498047 L 18 17.998047 C 18 17.998047 22 19.498047 22 22.498047 C 22.5 20.998047 21 16.498047 18 15.498047 z M 12 29.996094 L 12 34.998047 L 13.126953 34.998047 L 13.126953 32.962891 L 15.197266 32.962891 L 15.197266 34.998047 L 16.328125 34.998047 L 16.328125 29.996094 L 15.197266 29.996094 L 15.197266 31.992188 L 13.126953 31.992188 L 13.126953 29.996094 L 12 29.996094 z M 19.257812 29.996094 L 17.435547 34.998047 L 18.65625 34.998047 L 19.009766 33.886719 L 20.787109 33.886719 L 21.144531 34.998047 L 22.371094 34.998047 L 20.59375 29.996094 L 19.257812 29.996094 z M 23.5 29.996094 L 23.5 34.998047 L 26.478516 34.998047 L 26.478516 34.085938 L 24.626953 34.085938 L 24.626953 29.996094 L 23.5 29.996094 z M 28.945312 29.996094 L 27.123047 34.998047 L 28.345703 34.998047 L 28.697266 33.886719 L 30.476562 33.886719 L 30.832031 34.998047 L 32.060547 34.998047 L 30.28125 29.996094 L 28.945312 29.996094 z M 33 29.998047 L 33 35.001953 L 35.978516 35.001953 L 35.978516 34.087891 L 34.126953 34.087891 L 34.126953 29.998047 L 33 29.998047 z M 19.880859 30.890625 L 19.908203 30.890625 C 19.924203 31.064625 19.952188 31.214844 19.992188 31.339844 L 20.529297 33.021484 L 19.25 33.021484 L 19.794922 31.326172 C 19.840922 31.181172 19.868859 31.036625 19.880859 30.890625 z M 29.570312 30.890625 L 29.597656 30.890625 C 29.613656 31.064625 29.641641 31.214844 29.681641 31.339844 L 30.21875 33.021484 L 28.939453 33.021484 L 29.482422 31.326172 C 29.528422 31.181172 29.558312 31.036625 29.570312 30.890625 z"/></svg>