<svg xmlns="http://www.w3.org/2000/svg"  viewBox="0 0 48 48" width="50px" height="50px"><path d="M 24 3 C 12.41978 3 3 12.419789 3 24 C 3 35.580211 12.41978 45 24 45 C 35.58022 45 45 35.580211 45 24 C 45 12.419789 35.58022 3 24 3 z M 24 6 C 33.9589 6 42 14.041106 42 24 C 42 33.958894 33.9589 42 24 42 C 14.0411 42 6 33.958894 6 24 C 6 14.041106 14.0411 6 24 6 z M 31.5 10 C 23.709823 10 17.6402 14.304768 15.316406 19.789062 C 12.992612 25.273357 14.762649 32.036858 21.789062 35.820312 A 1.50015 1.50015 0 0 0 22.150391 35.962891 C 22.401332 36.962968 22.675455 37.976724 23.107422 39.056641 A 1.50015 1.50015 0 1 0 25.892578 37.943359 C 24.011039 33.239511 24.272153 29.619945 24.947266 27.144531 C 25.622378 24.669118 26.652344 23.460938 26.652344 23.460938 A 1.5004328 1.5004328 0 1 0 24.347656 21.539062 C 24.347656 21.539062 22.877622 23.330882 22.052734 26.355469 C 21.63804 27.876016 21.37591 29.740507 21.482422 31.890625 C 17.265949 28.765323 16.489102 24.711126 18.078125 20.960938 C 19.661928 17.223066 23.732703 14.077627 29.191406 13.318359 C 28.810326 15.130359 29.013139 16.991405 29.402344 18.654297 C 29.987541 21.154577 30.814453 23.473046 30.814453 24.691406 C 30.814453 26.876223 29.629445 28.954144 27.671875 30.25 A 1.50015 1.50015 0 1 0 29.328125 32.75 C 32.056555 30.943856 33.814453 27.95659 33.814453 24.691406 C 33.814453 22.436766 32.842521 20.185173 32.324219 17.970703 C 31.805916 15.756234 31.699996 13.857949 32.736328 12.349609 A 1.50015 1.50015 0 0 0 31.5 10 z"/></svg>