<svg xmlns="http://www.w3.org/2000/svg"  viewBox="0 0 48 48" width="50px" height="50px"><path d="M43.561 41.439l-37-37c-.586-.586-1.535-.586-2.121 0s-.586 1.535 0 2.121l6.501 6.501C8.489 17.613 7 23.093 7 28.2 7 39.8 14.6 45 24 45c5.449 0 10.28-1.761 13.387-5.492l4.053 4.053C41.732 43.854 42.116 44 42.5 44s.768-.146 1.061-.439C44.146 42.975 44.146 42.025 43.561 41.439zM24 42c-4.2 0-14-1.3-14-13.8 0-4.284 1.207-8.959 3.161-12.918l22.088 22.088C32.03 41.409 26.787 42 24 42zM24 6c7.5 0 14 12.2 14 22.2 0 1.146-.084 2.196-.237 3.161l2.516 2.516C40.743 32.188 41 30.302 41 28.2 41 16.6 33.4 3 24 3c-3.56 0-6.861 1.953-9.59 5.008l2.105 2.105C18.707 7.602 21.287 6 24 6z"/></svg>