<svg xmlns="http://www.w3.org/2000/svg"  viewBox="0 0 48 48" width="50px" height="50px"><path d="M43.561 41.439l-37-37c-.586-.586-1.535-.586-2.121 0s-.586 1.535 0 2.121l4.905 4.905c-1.372 2.325-2.214 4.988-2.33 7.824-.275 6.739 3.389 12.909 9.384 15.905 1.37 3.752 6.438 9.76 12.827 9.78h.059c1.495 0 2.855-.196 4.083-.567.022-.005.042-.014.063-.019 2.169-.669 3.905-1.907 5.165-3.672l2.844 2.844C41.732 43.854 42.116 44 42.5 44s.768-.146 1.061-.439C44.146 42.975 44.146 42.025 43.561 41.439zM29 35c-1.103 0-2-.897-2-2 0-1.065.839-1.93 1.89-1.989l2.099 2.099C30.93 34.161 30.065 35 29 35zM16.497 18.618c-1.02.521-2.278 1.156-3.544 1.795-.98.495-1.952.986-2.824 1.429-.105-.795-.15-1.606-.117-2.429.084-2.057.633-4.004 1.531-5.749L16.497 18.618zM29.283 41.976h-.048c-4.991-.016-9.408-5.336-10.15-8.228-.113-.44-.421-.807-.835-.994-3.513-1.587-6.117-4.467-7.385-7.92 1.009-.515 2.219-1.126 3.441-1.743 1.655-.835 3.305-1.668 4.42-2.245l7.823 7.823C25.035 29.53 24 31.138 24 33c0 2.621 2.035 4.754 4.604 4.96.59 1.078 1.185 2.105 1.685 2.967.183.315.372.642.55.952C30.344 41.94 29.828 41.976 29.283 41.976zM33.785 40.997c-.232-.418-.521-.922-.901-1.577-.378-.651-.811-1.402-1.252-2.188.707-.442 1.286-1.055 1.699-1.781l3.088 3.088C35.749 39.605 34.874 40.429 33.785 40.997zM23.297 6.017C23.531 6.006 23.763 6 23.995 6c3.745 0 7.174 1.484 9.706 3.917-.428.45-.855.9-1.285 1.347-.525.545-1.05 1.091-1.571 1.642-.75.791-1.816 2.024-2.404 3.586-.684 1.816-.574 3.62-.305 5.299l3.632 3.632c-.081-.939-.252-1.853-.419-2.719-.355-1.843-.692-3.584-.1-5.154.302-.802.866-1.622 1.774-2.58.517-.546 1.036-1.086 1.555-1.626.355-.369.707-.742 1.061-1.113 1.242 1.859 2.061 4.036 2.29 6.414.001.017.003.032.005.049.004 4.245.007 9.954.007 12.904l2.901 2.901c.026-.206.059-.405.079-.616H40.92c.009-.067.014-.137.014-.206h-.002c.007-.475.012-2.774.002-15.177 0-.116-.014-.229-.039-.337C39.934 9.219 32.198 2.594 23.151 3.021c-3.739.183-7.177 1.614-9.914 3.873l2.132 2.132C17.584 7.273 20.322 6.162 23.297 6.017z"/></svg>