<svg xmlns="http://www.w3.org/2000/svg"  viewBox="0 0 48 48" width="50px" height="50px"><path d="M 5.5 4 C 5.11625 4 4.7324531 4.1464531 4.4394531 4.4394531 C 3.8534531 5.0244531 3.8534531 5.9755469 4.4394531 6.5605469 L 15.658203 17.779297 C 15.054203 18.706297 14.582828 19.714063 14.298828 20.789062 C 14.000828 21.917063 13.221422 22.809781 12.107422 23.300781 C 11.034422 23.772781 10.067375 24.434578 9.234375 25.267578 C 5.341375 29.160578 5.341375 34.810125 9.234375 38.703125 C 11.055375 40.524125 13.504125 41.433594 15.953125 41.433594 C 18.401125 41.433594 20.849922 40.524125 22.669922 38.703125 C 23.502922 37.870125 24.165672 36.902125 24.638672 35.828125 C 25.120672 34.730125 26.036437 33.933625 27.148438 33.640625 C 28.222438 33.356625 29.230203 32.881344 30.158203 32.277344 L 41.441406 43.560547 C 41.732406 43.854547 42.116 44 42.5 44 C 42.884 44 43.267547 43.853547 43.560547 43.560547 C 44.145547 42.974547 44.145547 42.025453 43.560547 41.439453 L 6.5605469 4.4394531 C 6.2675469 4.1464531 5.88375 4 5.5 4 z M 33.175781 5.7597656 C 30.662531 5.6750156 28.063125 6.436875 26.203125 8.296875 C 25.370125 9.129875 24.707375 10.095922 24.234375 11.169922 C 23.752375 12.267922 22.838563 13.066375 21.726562 13.359375 C 21.214562 13.494375 20.718375 13.679625 20.234375 13.890625 L 22.576172 16.232422 C 24.538172 15.688422 26.141469 14.288906 26.980469 12.378906 C 27.302469 11.647906 27.754219 10.987969 28.324219 10.417969 C 29.485219 9.2569688 31.171891 8.7421875 32.837891 8.7421875 C 34.660891 8.7421875 36.458578 9.3589687 37.517578 10.417969 C 40.008578 12.909969 40.008578 17.120328 37.517578 19.611328 C 36.947578 20.181328 36.288641 20.633078 35.556641 20.955078 C 33.645641 21.796078 32.248125 23.399375 31.703125 25.359375 L 34.044922 27.701172 C 34.255922 27.218172 34.440172 26.723938 34.576172 26.210938 C 34.874172 25.082937 35.651625 24.190219 36.765625 23.699219 C 37.838625 23.227219 38.805672 22.565422 39.638672 21.732422 C 43.279672 18.091422 43.279672 11.939875 39.638672 8.296875 C 38.116672 6.775875 35.689031 5.8445156 33.175781 5.7597656 z M 32.935547 11 C 30.729547 11 28.935547 12.794 28.935547 15 C 28.935547 17.206 30.729547 19 32.935547 19 C 35.141547 19 36.935547 17.206 36.935547 15 C 36.935547 12.794 35.141547 11 32.935547 11 z M 32.935547 14 C 33.486547 14 33.935547 14.449 33.935547 15 C 33.935547 15.551 33.486547 16 32.935547 16 C 32.384547 16 31.935547 15.551 31.935547 15 C 31.935547 14.449 32.384547 14 32.935547 14 z M 25.021484 17.244141 C 24.580484 17.244141 24.152234 17.301484 23.740234 17.396484 L 30.539062 24.195312 C 30.635063 23.783313 30.691406 23.355063 30.691406 22.914062 C 30.691406 19.788062 28.147484 17.244141 25.021484 17.244141 z M 17.839844 19.960938 L 19.505859 21.626953 C 19.408859 22.041953 19.351563 22.470062 19.351562 22.914062 C 19.351562 26.040063 21.894484 28.585938 25.021484 28.585938 C 25.465484 28.585938 25.895547 28.528641 26.310547 28.431641 L 27.976562 30.097656 C 27.469562 30.368656 26.938859 30.592234 26.380859 30.740234 C 24.379859 31.269234 22.743578 32.683094 21.892578 34.621094 C 21.570578 35.352094 21.118828 36.012031 20.548828 36.582031 C 18.057828 39.073031 13.846469 39.073031 11.355469 36.582031 C 8.1804688 33.407031 9.0674687 29.678625 11.355469 27.390625 C 11.925469 26.820625 12.584406 26.368875 13.316406 26.046875 C 15.254406 25.192875 16.669266 23.556641 17.197266 21.556641 C 17.345266 20.998641 17.568844 20.466937 17.839844 19.960938 z M 15.935547 28 C 13.729547 28 11.935547 29.794 11.935547 32 C 11.935547 34.206 13.729547 36 15.935547 36 C 18.141547 36 19.935547 34.206 19.935547 32 C 19.935547 29.794 18.141547 28 15.935547 28 z M 15.935547 31 C 16.486547 31 16.935547 31.449 16.935547 32 C 16.935547 32.551 16.486547 33 15.935547 33 C 15.384547 33 14.935547 32.551 14.935547 32 C 14.935547 31.449 15.384547 31 15.935547 31 z"/></svg>