<svg xmlns="http://www.w3.org/2000/svg"  viewBox="0 0 48 48" width="50px" height="50px"><path d="M 11.5 6 C 8.4802259 6 6 8.4802259 6 11.5 L 6 36.5 C 6 39.519774 8.4802259 42 11.5 42 L 36.5 42 C 39.519774 42 42 39.519774 42 36.5 L 42 11.5 C 42 8.4802259 39.519774 6 36.5 6 L 11.5 6 z M 11.5 9 L 36.5 9 C 37.898226 9 39 10.101774 39 11.5 L 39 36.5 C 39 37.898226 37.898226 39 36.5 39 L 11.5 39 C 10.101774 39 9 37.898226 9 36.5 L 9 11.5 C 9 10.101774 10.101774 9 11.5 9 z M 24.78125 12.90625 C 24.217769 12.884715 23.660121 12.896771 23.111328 12.941406 C 21.647879 13.060433 20.247213 13.412535 18.958984 13.988281 C 13.806072 16.291265 10.784068 22.337582 13.0625 29.931641 A 1.50015 1.50015 0 0 0 13.361328 30.486328 C 12.937867 31.257538 12.507821 32.005961 12.121094 32.908203 A 1.5005351 1.5005351 0 1 0 14.878906 34.091797 C 16.894164 29.390163 19.412049 26.964361 21.376953 25.671875 C 23.341857 24.379389 24.609375 24.25 24.609375 24.25 A 1.50015 1.50015 0 1 0 24.236328 21.273438 C 24.236328 21.273438 22.164361 21.563751 19.728516 23.166016 C 18.436515 24.015875 17.006382 25.280568 15.611328 27.021484 C 14.720612 21.729688 16.777422 18.250831 20.183594 16.728516 C 23.562879 15.218217 28.306032 15.82746 32.636719 19.171875 C 31.12676 20.219012 30.053465 21.741242 29.279297 23.220703 C 28.120614 25.434983 27.240195 27.638711 26.439453 28.439453 C 24.821973 30.056933 23.174158 30.512473 20.798828 30.029297 A 1.500755 1.500755 0 1 0 20.201172 32.970703 C 23.331842 33.607527 26.324027 32.797067 28.560547 30.560547 C 30.215805 28.905289 30.918433 26.558798 31.9375 24.611328 C 32.956567 22.663858 33.997568 21.304209 35.773438 20.974609 A 1.50015 1.50015 0 0 0 36.560547 18.439453 C 32.963016 14.841922 28.725615 13.056994 24.78125 12.90625 z"/></svg>