<svg xmlns="http://www.w3.org/2000/svg"  viewBox="0 0 48 48" width="50px" height="50px"><path d="M 10 6.0644531 C 7.791 6.0644531 6 7.8554531 6 10.064453 L 6 38.066406 C 6 40.275406 7.791 42.066406 10 42.066406 L 38 42.066406 C 40.209 42.066406 42 40.275406 42 38.066406 L 42 10.064453 C 42 7.8554531 40.209 6.0644531 38 6.0644531 L 10 6.0644531 z M 10 9.0644531 L 38 9.0644531 C 38.551 9.0644531 39 9.5134531 39 10.064453 L 39 38.066406 C 39 38.617406 38.551 39.066406 38 39.066406 L 10 39.066406 C 9.449 39.066406 9 38.617406 9 38.066406 L 9 10.064453 C 9 9.5134531 9.449 9.0644531 10 9.0644531 z M 21.5 16.910156 C 20.671 16.910156 20 17.581156 20 18.410156 L 20 24.259766 L 15.765625 17.605469 C 15.407625 17.042469 14.718078 16.784703 14.080078 16.970703 C 13.439078 17.156703 13 17.743156 13 18.410156 L 13 29.410156 C 13 30.239156 13.671 30.910156 14.5 30.910156 C 15.329 30.910156 16 30.239156 16 29.410156 L 16 23.5625 L 20.234375 30.216797 C 20.515375 30.657797 20.997 30.910156 21.5 30.910156 C 21.64 30.910156 21.781922 30.891562 21.919922 30.851562 C 22.560922 30.665563 23 30.077156 23 29.410156 L 23 18.410156 C 23 17.581156 22.329 16.910156 21.5 16.910156 z M 30.216797 20 C 28.411797 20 25.662109 20.505703 25.662109 22.345703 C 25.662109 23.212703 26.341828 23.751953 27.173828 23.751953 C 28.335828 23.751953 28.572688 22.539062 30.179688 22.539062 C 31.502688 22.539063 31.615234 23.287344 31.615234 24.402344 L 30.330078 24.402344 C 27.985078 24.402344 25 24.769641 25 27.806641 C 25 29.864641 26.606625 31 28.515625 31 C 29.876625 31 30.935047 30.614516 31.748047 29.478516 C 31.862047 30.285516 32.541047 30.902344 33.373047 30.902344 C 34.299047 30.902344 35 30.114406 35 29.191406 L 35 24.365234 C 35 21.154234 33.185797 20 30.216797 20 z M 30.519531 26.308594 L 31.636719 26.308594 L 31.636719 26.480469 C 31.636719 27.711469 30.954922 28.710938 29.669922 28.710938 C 28.988922 28.710938 28.440406 28.327656 28.441406 27.597656 C 28.441406 26.462656 29.650531 26.308594 30.519531 26.308594 z"/></svg>