<svg xmlns="http://www.w3.org/2000/svg"  viewBox="0 0 48 48" width="50px" height="50px"><path d="M 27.5 3 C 23.652437 3 21.298828 6.6035156 21.298828 6.6035156 A 1.50015 1.50015 0 0 0 21.273438 6.640625 C 19.889707 5.6617827 18.154168 5 16 5 A 1.50015 1.50015 0 1 0 16 8 C 18.666366 8 19.975924 8.964743 20.931641 10.439453 C 21.637001 11.527853 22.058695 12.966757 22.283203 14.431641 C 22.25815 14.420915 22.24443 14.417331 22.21875 14.40625 C 20.84475 13.81325 18.964 13 15.25 13 C 12.481 13 9.7499062 14.255312 7.7539062 16.445312 C 5.8939062 18.486313 4.9949062 20.989703 5.0039062 24.095703 L 5.0058594 25.019531 C 5.1548594 36.036531 11.771812 45 19.757812 45 L 20.021484 45 C 20.662484 45 21.272937 44.871734 21.835938 44.677734 C 21.349937 43.815734 21.059672 42.831203 21.013672 41.783203 C 20.687672 41.912203 20.349484 42 20.021484 42 L 19.757812 42 C 13.403813 42 8.1318594 34.365 8.0058594 25 L 8.0039062 24.085938 C 7.9969063 21.732937 8.6217031 19.947797 9.9707031 18.466797 C 11.377703 16.922797 13.352 16 15.25 16 C 18.344 16 19.770297 16.616156 21.029297 17.160156 C 21.907297 17.539156 22.815 17.931641 24 17.931641 C 25.185 17.931641 26.092703 17.539156 26.970703 17.160156 C 28.229703 16.616156 29.656 16 32.75 16 C 34.586 16 36.231187 16.805 37.492188 18 L 41.328125 18 C 39.547125 15.18 36.478 13 32.75 13 C 29.036 13 27.15425 13.81325 25.78125 14.40625 C 25.595711 14.486264 25.470604 14.524481 25.314453 14.585938 C 25.145154 13.45849 24.845622 12.289952 24.4375 11.138672 C 25.318174 11.617227 26.306038 12 27.5 12 C 31.347563 12 33.701172 8.3964844 33.701172 8.3964844 A 1.50015 1.50015 0 0 0 33.701172 6.6035156 C 33.701172 6.6035156 31.347563 3 27.5 3 z M 27.5 6 C 28.547857 6 29.57856 6.7974066 30.347656 7.5 C 29.57856 8.2025934 28.547857 9 27.5 9 C 26.452143 9 25.42144 8.2025934 24.652344 7.5 C 25.42144 6.7974066 26.452143 6 27.5 6 z M 27.5 20 C 25.032499 20 23 22.032499 23 24.5 L 23 41.5 C 23 43.967501 25.032499 46 27.5 46 L 41.5 46 C 43.967501 46 46 43.967501 46 41.5 L 46 24.5 C 46 22.032499 43.967501 20 41.5 20 L 27.5 20 z M 27.5 23 L 41.5 23 C 42.346499 23 43 23.653501 43 24.5 L 43 41.5 C 43 42.346499 42.346499 43 41.5 43 L 27.5 43 C 26.653501 43 26 42.346499 26 41.5 L 26 24.5 C 26 23.653501 26.653501 23 27.5 23 z M 30 26 C 29.448 26 29 26.448 29 27 L 29 29 C 29 29.552 29.448 30 30 30 L 39 30 C 39.552 30 40 29.552 40 29 L 40 27 C 40 26.448 39.552 26 39 26 L 30 26 z M 29.5 32 A 1.5 1.5 0 0 0 29.5 35 A 1.5 1.5 0 0 0 29.5 32 z M 34.5 32 A 1.5 1.5 0 0 0 34.5 35 A 1.5 1.5 0 0 0 34.5 32 z M 39.5 32 C 38.672 32 38 32.672 38 33.5 L 38 38.5 C 38 39.328 38.672 40 39.5 40 C 40.328 40 41 39.328 41 38.5 L 41 33.5 C 41 32.672 40.328 32 39.5 32 z M 29.5 37 A 1.5 1.5 0 0 0 29.5 40 A 1.5 1.5 0 0 0 29.5 37 z M 34.5 37 A 1.5 1.5 0 0 0 34.5 40 A 1.5 1.5 0 0 0 34.5 37 z"/></svg>