<svg xmlns="http://www.w3.org/2000/svg"  viewBox="0 0 48 48" width="50px" height="50px"><path d="M 23.869141 2.9902344 C 22.373141 2.9992344 21.074937 4.0216094 20.710938 5.4746094 C 20.692937 5.5446094 20.680828 5.6174531 20.673828 5.6894531 L 20.121094 11.216797 C 19.513094 11.412797 18.968906 11.742156 18.503906 12.160156 L 20.628906 14.283203 C 20.874906 14.106203 21.174 14 21.5 14 C 22.271 14 22.916188 13.415437 22.992188 12.648438 L 23.642578 6.1425781 C 23.689578 6.0505781 23.782672 5.9912344 23.888672 5.9902344 L 23.890625 5.9902344 C 23.994625 5.9902344 24.087766 6.0487188 24.134766 6.1367188 L 25.013672 12.699219 C 25.113672 13.442219 25.748 14 26.5 14 C 27.327 14 28 14.673 28 15.5 C 28 15.775 27.775 16 27.5 16 L 22.34375 16 L 25.34375 19 L 28.5 19 C 29.327 19 30 19.673 30 20.5 L 30 23.65625 L 33 26.65625 L 33 20.5 C 33 18.858 32.107016 17.434437 30.791016 16.648438 C 30.917016 16.287437 31 15.904 31 15.5 C 31 13.485 29.668844 11.774125 27.839844 11.203125 L 27.087891 5.5878906 C 27.078891 5.5188906 27.065875 5.4488594 27.046875 5.3808594 C 26.650875 3.9718594 25.355531 2.9902344 23.894531 2.9902344 L 23.869141 2.9902344 z M 5.484375 3.984375 A 1.50015 1.50015 0 0 0 4.4394531 6.5605469 L 15.822266 17.943359 C 15.310031 18.66849 15 19.54443 15 20.5 L 15 25.5 L 15 35.5 L 15 40.5 C 15 42.981 17.019 45 19.5 45 L 28.5 45 C 30.981 45 33 42.981 33 40.5 L 33 35.121094 L 41.439453 43.560547 A 1.50015 1.50015 0 1 0 43.560547 41.439453 L 6.5605469 4.4394531 A 1.50015 1.50015 0 0 0 5.484375 3.984375 z M 18.041016 20.162109 L 21.921875 24.042969 C 21.781763 24.025481 21.644402 24 21.5 24 L 18 24 L 18 20.5 C 18 20.383803 18.015883 20.270786 18.041016 20.162109 z M 18 27 L 21.5 27 C 21.795045 27 22 27.204955 22 27.5 L 22 33.5 C 22 33.795045 21.795045 34 21.5 34 L 18 34 L 18 27 z M 24.957031 27.078125 L 30 32.121094 L 30 40.5 C 30 41.327 29.327 42 28.5 42 L 19.5 42 C 18.673 42 18 41.327 18 40.5 L 18 37 L 21.5 37 C 23.414955 37 25 35.414955 25 33.5 L 25 27.5 C 25 27.355598 24.974519 27.218237 24.957031 27.078125 z"/></svg>