<svg xmlns="http://www.w3.org/2000/svg"  viewBox="0 0 48 48" width="50px" height="50px"><path d="M43.561 41.439l-37-37c-.586-.586-1.535-.586-2.121 0-.586.585-.586 1.536 0 2.121l11.497 11.497-.522.672C11.278 24.055 9 30.7 9 37.441V38.5c0 3.033 2.468 5.5 5.5 5.5h19c2.261 0 4.207-1.373 5.051-3.328l2.888 2.888C41.732 43.854 42.116 44 42.5 44s.768-.146 1.061-.439C44.146 42.975 44.146 42.025 43.561 41.439zM36 38.5c0 1.378-1.121 2.5-2.5 2.5h-19c-1.379 0-2.5-1.122-2.5-2.5v-1.059c0-5.112 1.469-10.154 4.15-14.486C16.263 22.982 20.879 23 20.879 23l3 3h-.442c-2.033 0-3.686 1.626-3.686 3.625 0 1.999 1.654 3.625 3.687 3.625h1.375c.656 0 1.188.505 1.188 1.125S25.468 35.5 24.813 35.5h-1.774c-.656 0-1.146-.331-1.259-.459-.387-.561-1.155-.71-1.723-.331-.575.382-.73 1.159-.347 1.733C20.225 37.217 21.534 38 23.038 38h1.774c2.034 0 3.689-1.626 3.689-3.625 0-1.999-1.655-3.625-3.688-3.625h-1.375c-.655 0-1.187-.505-1.187-1.125s.532-1.125 1.187-1.125h1.313c.627 0 .925.395.94.413.334.535 1.001.708 1.559.459l8.75 8.75V38.5zM28 15v2.202c0 .311.097.613.275.867L29.643 20h-3.299l3 3H31.5c.065 0 .126-.011.189-.019.97 1.523 1.772 3.127 2.422 4.786l4.353 4.353c-.8-4.301-2.501-8.385-5.072-12.017L31 16.725v-1.817c.581-.207 1-.756 1-1.408v-3C32 6.916 29.084 4 25.5 4h-3c-3.316 0-6.055 2.498-6.447 5.709L21.344 15H28zM19 10.5c0-.992.419-1.884 1.085-2.522C20.285 8.571 20.84 9 21.5 9 22.328 9 23 8.328 23 7.5c0-.176-.036-.343-.092-.5h2.184C25.036 7.157 25 7.324 25 7.5 25 8.328 25.672 9 26.5 9c.66 0 1.215-.429 1.415-1.022C28.581 8.616 29 9.508 29 10.5V12H19V10.5z"/></svg>