<svg xmlns="http://www.w3.org/2000/svg"  viewBox="0 0 48 48" width="50px" height="50px"><path d="M 17.5 11 C 14.158358 11 11.025139 11.03327 8.4296875 12.134766 C 5.8342357 13.23626 4 15.781113 4 19.5 A 1.50015 1.50015 0 0 0 5.5 21 L 5.9355469 21 L 5.9355469 28 L 5.5 28 A 1.50015 1.50015 0 0 0 4 29.5 C 4 33.218887 5.8342357 35.76374 8.4296875 36.865234 C 11.025139 37.966729 14.158358 38 17.5 38 L 30.5 38 C 33.841642 38 36.974861 37.96673 39.570312 36.865234 C 42.165765 35.76374 44 33.218887 44 29.5 A 1.50015 1.50015 0 0 0 42.5 28 L 41.935547 28 L 41.935547 21 L 42.5 21 A 1.50015 1.50015 0 0 0 44 19.5 C 44 15.781113 42.165765 13.23626 39.570312 12.134766 C 36.974861 11.033271 33.841642 11 30.5 11 L 17.5 11 z M 17.5 14 L 30.5 14 C 33.785358 14 36.650638 14.154729 38.398438 14.896484 C 39.725437 15.459656 40.375745 16.429655 40.689453 18 L 7.3105469 18 C 7.6242549 16.429655 8.274562 15.459656 9.6015625 14.896484 C 11.349361 14.154729 14.214642 14 17.5 14 z M 8.9355469 21 L 38.935547 21 L 38.935547 28 L 8.9355469 28 L 8.9355469 21 z M 7.3105469 31 L 40.689453 31 C 40.375745 32.570345 39.725437 33.540344 38.398438 34.103516 C 36.650638 34.845271 33.785358 35 30.5 35 L 17.5 35 C 14.214642 35 11.349361 34.845271 9.6015625 34.103516 C 8.274562 33.540344 7.6242549 32.570345 7.3105469 31 z"/></svg>