<svg xmlns="http://www.w3.org/2000/svg"  viewBox="0 0 48 48" width="50px" height="50px"><path d="M 24 3 C 22.125 3 20.528815 3.7571334 19.503906 4.9101562 C 18.478997 6.0631791 18 7.5416668 18 9 C 18 9.2426056 18.033726 9.4844325 18.060547 9.7265625 C 11.597246 11.395776 6.6578952 16.15634 6.1113281 23.228516 C 5.5870698 23.343413 5.015553 23.470526 4.3964844 23.814453 C 3.6278152 24.241492 2.8262128 24.940761 2.34375 25.974609 C 1.9146622 26.894083 1.8136626 28.049459 1.9960938 29.333984 A 1.50015 1.50015 0 0 0 2.0332031 29.84375 C 2.2276571 38.724092 9.6704037 45 18.5 45 L 29.5 45 C 38.340044 45 45.743071 38.771696 45.962891 29.892578 A 1.50015 1.50015 0 0 0 46.007812 29.283203 C 46.180554 28.019245 46.079582 26.881752 45.65625 25.974609 C 45.173781 24.940765 44.372185 24.241492 43.603516 23.814453 C 42.984447 23.470526 42.41293 23.343413 41.888672 23.228516 C 41.342148 16.156354 36.40303 11.393372 29.939453 9.7246094 C 29.96613 9.4831203 30 9.241958 30 9 C 30 7.5416668 29.521003 6.0631791 28.496094 4.9101562 C 27.471185 3.7571334 25.875 3 24 3 z M 24 6 C 25.124999 6 25.778816 6.3678666 26.253906 6.9023438 C 26.728997 7.4368209 27 8.2083332 27 9 C 27 9.7916668 26.728997 10.563179 26.253906 11.097656 C 25.778816 11.632133 25.124999 12 24 12 C 22.875001 12 22.221184 11.632133 21.746094 11.097656 C 21.271003 10.563179 21 9.7916668 21 9 C 21 8.2083332 21.271003 7.4368209 21.746094 6.9023438 C 22.221184 6.3678666 22.875001 6 24 6 z M 19.089844 12.556641 C 19.217518 12.739837 19.352675 12.919709 19.503906 13.089844 C 20.528815 14.242867 22.125 15 24 15 C 25.875 15 27.471185 14.242867 28.496094 13.089844 C 28.646953 12.920127 28.782739 12.741312 28.910156 12.558594 C 34.951515 13.984835 39 17.874657 39 24.5 A 1.50015 1.50015 0 0 0 40.5 26 C 40.5 26 41.433823 26.03962 42.146484 26.435547 C 42.502815 26.633508 42.763713 26.871739 42.9375 27.244141 C 43.08266 27.555197 43.177149 28.028761 43.089844 28.761719 C 41.592363 30.117735 40.667768 30.033339 39.931641 29.8125 C 39.138585 29.574583 38.638672 29.023437 38.638672 29.023438 A 1.50015 1.50015 0 0 0 36 30 C 36 30.445289 35.784252 30.884618 35.261719 31.291016 C 34.739185 31.697413 33.927208 32 33 32 C 32.072792 32 31.260815 31.697413 30.738281 31.291016 C 30.215748 30.884618 30 30.445289 30 30 A 1.50015 1.50015 0 0 0 29.994141 29.849609 A 1.50015 1.50015 0 0 0 29.974609 29.701172 A 1.50015 1.50015 0 0 0 29.75 29.148438 A 1.50015 1.50015 0 0 0 28.921875 28.539062 A 1.50015 1.50015 0 0 0 28.775391 28.503906 A 1.50015 1.50015 0 0 0 28.476562 28.478516 A 1.50015 1.50015 0 0 0 28.328125 28.488281 A 1.50015 1.50015 0 0 0 28.179688 28.513672 A 1.50015 1.50015 0 0 0 27.894531 28.605469 A 1.50015 1.50015 0 0 0 27.408203 28.949219 A 1.50015 1.50015 0 0 0 27.310547 29.064453 A 1.50015 1.50015 0 0 0 27.226562 29.1875 A 1.50015 1.50015 0 0 0 27.09375 29.457031 A 1.50015 1.50015 0 0 0 27.001953 29.894531 A 1.50015 1.50015 0 0 0 27 30 C 27 30.445289 26.784252 30.884618 26.261719 31.291016 C 25.739185 31.697413 24.927208 32 24 32 C 23.072792 32 22.260815 31.697413 21.738281 31.291016 C 21.215748 30.884618 21 30.445289 21 30 A 1.50015 1.50015 0 0 0 20.994141 29.849609 A 1.50015 1.50015 0 0 0 20.974609 29.701172 A 1.50015 1.50015 0 0 0 20.939453 29.556641 A 1.50015 1.50015 0 0 0 20.660156 29.029297 A 1.50015 1.50015 0 0 0 20.449219 28.816406 A 1.50015 1.50015 0 0 0 19.921875 28.539062 A 1.50015 1.50015 0 0 0 19.626953 28.484375 A 1.50015 1.50015 0 0 0 19.328125 28.488281 A 1.50015 1.50015 0 0 0 19.035156 28.552734 A 1.50015 1.50015 0 0 0 18.761719 28.673828 A 1.50015 1.50015 0 0 0 18.515625 28.845703 A 1.50015 1.50015 0 0 0 18.001953 29.894531 A 1.50015 1.50015 0 0 0 18 30 C 18 30.445289 17.784252 30.884618 17.261719 31.291016 C 16.739185 31.697413 15.927208 32 15 32 C 14.072792 32 13.260815 31.697413 12.738281 31.291016 C 12.215748 30.884618 12 30.445289 12 30 A 1.50015 1.50015 0 0 0 9.5117188 28.871094 C 9.5117188 28.871094 8.7121419 29.535005 7.7304688 29.802734 C 6.8139447 30.052695 5.9940884 30.142368 4.9277344 28.873047 C 4.8163108 28.076632 4.9104195 27.570027 5.0625 27.244141 C 5.2362872 26.871739 5.4971848 26.633508 5.8535156 26.435547 C 6.5661773 26.039624 7.5 26 7.5 26 A 1.50015 1.50015 0 0 0 9 24.5 C 9 17.8744 13.04847 13.983308 19.089844 12.556641 z M 23.976562 16.978516 A 1.50015 1.50015 0 0 0 22.5 18.5 L 22.5 23.5 A 1.50015 1.50015 0 1 0 25.5 23.5 L 25.5 18.5 A 1.50015 1.50015 0 0 0 23.976562 16.978516 z M 30.521484 16.980469 A 1.50015 1.50015 0 0 0 29.158203 19.169922 L 31.158203 23.169922 A 1.50015 1.50015 0 1 0 33.841797 21.830078 L 31.841797 17.830078 A 1.50015 1.50015 0 0 0 30.521484 16.980469 z M 17.431641 16.982422 A 1.50015 1.50015 0 0 0 16.158203 17.830078 L 14.158203 21.830078 A 1.50015 1.50015 0 1 0 16.841797 23.169922 L 18.841797 19.169922 A 1.50015 1.50015 0 0 0 17.431641 16.982422 z M 9.6425781 32.193359 C 9.9716643 32.75268 10.38796 33.262702 10.896484 33.658203 C 12.002701 34.518556 13.442208 35 15 35 C 16.557792 35 17.997299 34.518556 19.103516 33.658203 C 19.264252 33.533191 19.354033 33.338508 19.5 33.195312 C 19.645967 33.338509 19.735748 33.533191 19.896484 33.658203 C 21.002701 34.518556 22.442208 35 24 35 C 25.557792 35 26.997299 34.518556 28.103516 33.658203 C 28.264252 33.533191 28.354033 33.338508 28.5 33.195312 C 28.645967 33.338509 28.735748 33.533191 28.896484 33.658203 C 30.002701 34.518556 31.442208 35 33 35 C 34.557792 35 35.997299 34.518556 37.103516 33.658203 C 37.583212 33.285123 37.962799 32.795584 38.285156 32.275391 C 38.563693 32.414632 38.733125 32.58693 39.068359 32.6875 C 40.060484 32.985137 41.322452 32.974965 42.652344 32.478516 C 41.302375 38.274205 36.031523 42 29.5 42 L 18.5 42 C 12.064294 42 6.8119588 38.311429 5.3945312 32.625 C 6.5127973 32.967849 7.6259701 32.940964 8.5195312 32.697266 C 8.9819892 32.571141 9.2691842 32.371845 9.6425781 32.193359 z"/></svg>