<svg xmlns="http://www.w3.org/2000/svg"  viewBox="0 0 48 48" width="50px" height="50px"><path d="M 17 10 C 15.125 10 13.528815 10.757133 12.503906 11.910156 C 11.478997 13.063179 11 14.541667 11 16 C 11 17.056124 11.349109 18.079267 11.876953 19.025391 C 10.06014 19.060611 8.5042338 19.784787 7.5039062 20.910156 C 6.4789975 22.063179 6 23.541667 6 25 C 6 26.12483 6.3837428 27.216692 6.984375 28.207031 C 5.5780551 28.435908 4.3260217 28.985276 3.5039062 29.910156 C 2.4789976 31.063179 2 32.541667 2 34 C 2 35.458333 2.4789976 36.936821 3.5039062 38.089844 C 4.5288151 39.242867 6.1250005 40 8 40 C 9.8749995 40 11.471185 39.242867 12.496094 38.089844 C 12.723272 37.834268 12.825738 37.518203 13 37.234375 C 13.174262 37.518203 13.276728 37.834268 13.503906 38.089844 C 14.528815 39.242867 16.125 40 18 40 C 19.875 40 21.471185 39.242867 22.496094 38.089844 C 22.723272 37.834268 22.825738 37.518203 23 37.234375 C 23.174262 37.518203 23.276728 37.834268 23.503906 38.089844 C 24.528815 39.242867 26.125 40 28 40 C 28.028543 40 28.055571 39.996443 28.083984 39.996094 A 1.50015 1.50015 0 0 0 28.212891 40 L 40 40 C 43.295865 40 46 37.295865 46 34 C 46 30.704135 43.295865 28 40 28 L 39.072266 28 C 39.608497 27.102808 40 26.113933 40 25 C 40 21.726319 37.328174 19.049735 34.0625 19.013672 C 34.604088 18.11326 35 17.119942 35 16 C 35 12.704135 32.295865 10 29 10 L 18 10 A 1.50015 1.50015 0 0 0 17.666016 10.033203 C 17.448266 10.011762 17.226394 10 17 10 z M 17 13 C 18.124999 13 18.778816 13.367867 19.253906 13.902344 C 19.728997 14.436821 20 15.208333 20 16 C 20 16.791667 19.728997 17.563179 19.253906 18.097656 C 18.778816 18.632133 18.124999 19 17 19 C 15.875001 19 15.221184 18.632133 14.746094 18.097656 C 14.271003 17.563179 14 16.791667 14 16 C 14 15.208333 14.271003 14.436821 14.746094 13.902344 C 15.221184 13.367867 15.875001 13 17 13 z M 22.251953 13 L 29 13 C 30.674135 13 32 14.325865 32 16 C 32 17.674135 30.674135 19 29 19 L 23.839844 19 L 23.074219 19 A 1.50015 1.50015 0 0 0 22.634766 19.060547 C 22.633482 19.060427 22.632143 19.060666 22.630859 19.060547 C 22.463153 19.045 22.29572 19.028738 22.123047 19.025391 C 22.650891 18.079267 23 17.056124 23 16 C 23 14.968626 22.754784 13.929278 22.251953 13 z M 12 22 C 13.124999 22 13.778816 22.367867 14.253906 22.902344 C 14.728997 23.436821 15 24.208333 15 25 C 15 25.791667 14.728997 26.563179 14.253906 27.097656 C 13.778816 27.632133 13.124999 28 12 28 C 10.875001 28 10.221184 27.632133 9.7460938 27.097656 C 9.2710032 26.563179 9 25.791667 9 25 C 9 24.208333 9.2710032 23.436821 9.7460938 22.902344 C 10.221184 22.367867 10.875001 22 12 22 z M 22 22 C 23.124999 22 23.778816 22.367867 24.253906 22.902344 C 24.728997 23.436821 25 24.208333 25 25 C 25 25.791667 24.728997 26.563179 24.253906 27.097656 C 23.778816 27.632133 23.124999 28 22 28 C 20.875001 28 20.221184 27.632133 19.746094 27.097656 C 19.271003 26.563179 19 25.791667 19 25 C 19 24.208333 19.271003 23.436821 19.746094 22.902344 C 20.221184 22.367867 20.875001 22 22 22 z M 27.251953 22 L 29 22 L 34 22 C 35.674135 22 37 23.325865 37 25 C 37 26.674135 35.674135 28 34 28 L 29.96875 28 L 28 28 L 27.126953 28 C 27.658225 27.064335 28 26.048305 28 25 C 28 23.968626 27.754784 22.929278 27.251953 22 z M 8 31 C 9.1249992 31 9.7788159 31.367867 10.253906 31.902344 C 10.728997 32.436821 11 33.208333 11 34 C 11 34.791667 10.728997 35.563179 10.253906 36.097656 C 9.778816 36.632133 9.1249992 37 8 37 C 6.8750008 37 6.2211843 36.632133 5.7460938 36.097656 C 5.2710032 35.563179 5 34.791667 5 34 C 5 33.208333 5.2710032 32.436821 5.7460938 31.902344 C 6.2211843 31.367867 6.8750008 31 8 31 z M 18 31 C 19.124999 31 19.778816 31.367867 20.253906 31.902344 C 20.728997 32.436821 21 33.208333 21 34 C 21 34.791667 20.728997 35.563179 20.253906 36.097656 C 19.778816 36.632133 19.124999 37 18 37 C 16.875001 37 16.221184 36.632133 15.746094 36.097656 C 15.271003 35.563179 15 34.791667 15 34 C 15 33.208333 15.271003 32.436821 15.746094 31.902344 C 16.221184 31.367867 16.875001 31 18 31 z M 28 31 C 29.124999 31 29.778816 31.367867 30.253906 31.902344 C 30.728997 32.436821 31 33.208333 31 34 C 31 34.791667 30.728997 35.563179 30.253906 36.097656 C 29.778816 36.632133 29.124999 37 28 37 C 26.875001 37 26.221184 36.632133 25.746094 36.097656 C 25.271003 35.563179 25 34.791667 25 34 C 25 33.208333 25.271003 32.436821 25.746094 31.902344 C 26.221184 31.367867 26.875001 31 28 31 z M 33.251953 31 L 34 31 L 40 31 C 41.674135 31 43 32.325865 43 34 C 43 35.674135 41.674135 37 40 37 L 33.251953 37 C 33.754784 36.070722 34 35.031374 34 34 C 34 32.968626 33.754784 31.929278 33.251953 31 z"/></svg>