<svg xmlns="http://www.w3.org/2000/svg"  viewBox="0 0 48 48" width="50px" height="50px"><path d="M 24 3.9980469 C 12.954 3.9980469 4 12.954 4 24 C 4 35.046 12.955 44.001953 24 44.001953 C 35.046 44.001953 44 35.046 44 24 C 44 23.562526 43.980791 23.129707 43.953125 22.699219 C 43.957691 22.634743 43.966898 22.572737 43.970703 22.507812 A 1.5006231 1.5006231 0 0 0 43.894531 21.947266 C 42.866567 11.865655 34.35195 3.9980469 24 3.9980469 z M 24 6.9980469 C 32.71343 6.9980469 39.906994 13.591405 40.878906 22.048828 A 1.5 1.5 0 0 0 40.5 22 A 1.5 1.5 0 0 0 40.5 25 A 1.5 1.5 0 0 0 40.525391 24.998047 C 39.749353 27.73423 38.070208 29.692954 35.917969 31.123047 C 33.121651 32.981109 29.500088 33.835938 26.451172 33.835938 C 20.610048 33.835938 16 29.325422 16 23.501953 C 16 19.086034 20.084081 15.001953 24.5 15.001953 C 26.178049 15.001953 27.465457 15.700221 28.435547 16.869141 C 29.405637 18.03806 30 19.706036 30 21.501953 C 30 24.126607 28.124653 26.001953 25.5 26.001953 C 23.626621 26.001953 22 24.375332 22 22.501953 A 1.50015 1.50015 0 1 0 19 22.501953 C 19 26.058574 21.943379 29.001953 25.5 29.001953 C 29.661347 29.001953 33 25.6633 33 21.501953 C 33 19.055871 32.213551 16.723705 30.744141 14.953125 C 29.274731 13.182545 27.063951 12.001953 24.5 12.001953 C 18.311919 12.001953 13 17.313872 13 23.501953 C 13 30.932484 19.038296 36.835938 26.451172 36.835938 C 30.042256 36.835938 34.160443 35.892032 37.578125 33.621094 C 37.852291 33.438919 38.113189 33.232094 38.376953 33.03125 C 35.364529 37.809924 30.054163 41.001953 24 41.001953 C 22.505501 41.001953 21.063458 40.787726 19.681641 40.423828 A 1.5 1.5 0 0 0 18.5 38 A 1.5 1.5 0 0 0 17.001953 39.474609 C 12.595681 37.473501 9.1826624 33.660245 7.7460938 28.978516 A 1.5 1.5 0 0 0 7.5 26 A 1.5 1.5 0 0 0 7.1347656 26.046875 C 7.0536025 25.374613 7 24.693785 7 24 C 7 16.719099 11.609677 10.511554 18.056641 8.09375 A 1.5 1.5 0 0 0 19.5 10 A 1.5 1.5 0 0 0 20.484375 7.3691406 C 21.619507 7.1293965 22.794556 6.9980469 24 6.9980469 z M 35.5 13 A 1.5 1.5 0 0 0 35.5 16 A 1.5 1.5 0 0 0 35.5 13 z M 9.5 19 A 1.5 1.5 0 0 0 9.5 22 A 1.5 1.5 0 0 0 9.5 19 z M 26.5 19 A 1.5 1.5 0 0 0 26.5 22 A 1.5 1.5 0 0 0 26.5 19 z"/></svg>