<svg xmlns="http://www.w3.org/2000/svg"  viewBox="0 0 48 48" width="50px" height="50px"><path d="M 24 5.4941406 C 22.820439 5.4941406 21.641181 6.0542717 20.982422 7.1757812 L 6.0078125 32.673828 C 4.6111096 35.053121 5.7147649 38.185272 8.2949219 39.162109 C 18.414608 42.991404 29.585392 42.991404 39.705078 39.162109 C 42.285537 38.18572 43.390166 35.052767 41.992188 32.673828 L 27.017578 7.1757812 C 26.358819 6.0542717 25.179561 5.4941406 24 5.4941406 z M 24 8.4042969 C 24.158439 8.4042969 24.3174 8.5008219 24.431641 8.6953125 L 33.421875 24.003906 A 1.5 1.5 0 0 0 33.5 27 A 1.5 1.5 0 0 0 34.769531 26.296875 L 39.40625 34.193359 C 39.892271 35.02042 39.540119 36.015859 38.642578 36.355469 C 35.289165 37.624402 31.801604 38.279441 28.289062 38.646484 C 31.598543 28.148579 25.841797 16.830078 25.841797 16.830078 A 1.50015 1.50015 0 1 0 23.158203 18.169922 C 23.158203 18.169922 28.75605 29.799448 25.109375 38.933594 C 19.777094 39.077155 14.428561 38.27439 9.3574219 36.355469 C 8.4622621 36.016565 8.1100991 35.019696 8.59375 34.193359 L 8.59375 34.191406 L 23.570312 8.6953125 C 23.684553 8.500822 23.841561 8.4042969 24 8.4042969 z M 19.5 27 A 1.5 1.5 0 0 0 19.5 30 A 1.5 1.5 0 0 0 19.5 27 z M 15.5 30 A 1.5 1.5 0 0 0 15.5 33 A 1.5 1.5 0 0 0 15.5 30 z M 19.5 33 A 1.5 1.5 0 0 0 19.5 36 A 1.5 1.5 0 0 0 19.5 33 z"/></svg>