<svg xmlns="http://www.w3.org/2000/svg"  viewBox="0 0 48 48" width="50px" height="50px"><path d="M 24 2 C 21.153559 2 18.828777 3.9013115 17.960938 6.4628906 C 14.207489 6.7804635 10.973483 8.5763927 8.5664062 11.183594 C 5.9202498 14.049752 4.1635154 17.794222 3.390625 21.597656 C 2.8623395 24.198554 4.777896 26.614341 7.3535156 26.894531 L 11.265625 39.900391 C 11.899133 42.30964 14.092796 44 16.583984 44 L 19.255859 44 A 1.50015 1.50015 0 0 0 19.746094 44 L 29.253906 44 A 1.50015 1.50015 0 0 0 29.734375 44 L 31.417969 44 C 33.907051 44 36.098768 42.31225 36.734375 39.90625 L 40.646484 26.894531 C 43.222104 26.614341 45.13766 24.198554 44.609375 21.597656 C 43.836485 17.794222 42.07975 14.049752 39.433594 11.183594 C 37.026517 8.5763927 33.792511 6.7804635 30.039062 6.4628906 C 29.171223 3.9013115 26.846441 2 24 2 z M 24 5 C 25.787354 5 27.215272 6.3158232 27.445312 8.0351562 A 1.50015 1.50015 0 0 0 28.933594 9.3359375 C 32.257599 9.3359375 35.026375 10.831408 37.230469 13.21875 C 39.434562 15.606092 40.998812 18.892747 41.669922 22.195312 C 41.865177 23.156606 41.174508 24 40.193359 24 L 39.740234 24 A 1.50015 1.50015 0 0 0 39.269531 24 L 8.7265625 24 A 1.50015 1.50015 0 0 0 8.2597656 24 L 7.8066406 24 C 6.8254921 24 6.1348235 23.156606 6.3300781 22.195312 C 7.0011878 18.892747 8.565438 15.606092 10.769531 13.21875 C 12.973625 10.831408 15.742401 9.3359375 19.066406 9.3359375 A 1.50015 1.50015 0 0 0 20.554688 8.0351562 C 20.784728 6.3158232 22.212646 5 24 5 z M 16.5 13 A 1.5 1.5 0 0 0 16.5 16 A 1.5 1.5 0 0 0 16.5 13 z M 12.5 17 A 1.5 1.5 0 0 0 12.5 20 A 1.5 1.5 0 0 0 12.5 17 z M 20.5 17 A 1.5 1.5 0 0 0 20.5 20 A 1.5 1.5 0 0 0 20.5 17 z M 10.517578 27 L 37.482422 27 L 33.847656 39.085938 A 1.50015 1.50015 0 0 0 33.833984 39.136719 C 33.54349 40.24147 32.560781 41 31.417969 41 L 31.371094 41 L 32.964844 33.826172 A 1.500721 1.500721 0 1 0 30.035156 33.173828 L 28.296875 41 L 26 41 L 26 32.5 A 1.50015 1.50015 0 1 0 23 32.5 L 23 41 L 20.703125 41 L 18.964844 33.173828 A 1.5007185 1.5007185 0 1 0 16.035156 33.826172 L 17.628906 41 L 16.583984 41 C 15.441173 41 14.456508 40.241469 14.166016 39.136719 A 1.50015 1.50015 0 0 0 14.152344 39.085938 L 10.517578 27 z"/></svg>