<svg xmlns="http://www.w3.org/2000/svg"  viewBox="0 0 48 48" width="50px" height="50px"><path d="M 22.009766 2.0019531 C 15.661867 2.0019531 10.874351 7.4962385 12.025391 13.771484 L 12.023438 13.769531 C 12.082857 14.095303 12.094998 14.067351 12.154297 14.285156 C 12.213597 14.502961 12.294484 14.79412 12.388672 15.142578 C 12.577047 15.839495 12.822356 16.764074 13.064453 17.757812 C 13.133094 18.039543 13.18192 18.329196 13.248047 18.621094 C 10.973237 20.848282 9.3158386 21.644358 8.3769531 21.761719 C 7.4112566 21.882431 6.9892186 21.569609 6.4492188 20.849609 C 5.3692186 19.409609 4.9960936 16.384766 4.9960938 16.384766 A 1.50015 1.50015 0 0 0 3.4902344 15.001953 A 1.50015 1.50015 0 0 0 2.0117188 16.314453 C 2.0117188 16.314453 1.435882 20.502884 2.6015625 24.427734 C 3.1844028 26.39016 4.2508807 28.394059 6.2304688 29.595703 C 7.9368804 30.631524 10.197051 30.929235 12.931641 30.296875 C 12.360098 32.110781 11.595466 33.856922 10.695312 35.183594 C 9.7197558 36.621398 8.6349013 37.505648 7.7402344 37.738281 C 6.8455674 37.970914 5.9407791 37.819681 4.5605469 36.439453 A 1.50015 1.50015 0 0 0 2.1582031 38.169922 C 2.1582031 38.169922 3.9155007 41.892284 7.0117188 44.087891 C 8.5598277 45.185694 10.655071 45.920008 12.833984 45.222656 C 15.012898 44.525305 16.999236 42.590541 18.861328 39.130859 A 1.50015 1.50015 0 0 0 18.880859 39.091797 L 23.169922 30.513672 A 1.50015 1.50015 0 0 0 23.171875 30.511719 C 23.330028 30.194981 23.645744 30 24 30 C 24.354256 30 24.672173 30.195908 24.830078 30.511719 L 29.119141 39.089844 A 1.50015 1.50015 0 0 0 29.138672 39.128906 C 30.996969 42.581803 32.961091 44.549335 35.09375 45.353516 C 37.226409 46.157696 39.333347 45.607174 40.904297 44.642578 C 44.046197 42.713386 45.820313 39.210938 45.820312 39.210938 A 1.50015 1.50015 0 0 0 43.755859 37.197266 C 42.329781 38.012168 41.295037 38.011382 40.238281 37.580078 C 39.181526 37.148776 38.081869 36.138655 37.128906 34.683594 C 36.525012 33.761518 35.998416 32.663462 35.548828 31.490234 C 37.946728 31.809896 39.949601 31.401546 41.501953 30.425781 C 43.564658 29.129224 44.687609 27.014609 45.3125 24.931641 C 46.562281 20.765704 45.990234 16.324219 45.990234 16.324219 A 1.50015 1.50015 0 0 0 44.429688 15.001953 A 1.50015 1.50015 0 0 0 43.017578 16.271484 C 43.017578 16.271484 42.45049 19.30618 41.183594 20.962891 C 40.550146 21.791246 39.956539 22.200652 39.064453 22.171875 C 38.174425 22.143161 36.669321 21.544052 34.574219 19.453125 C 34.694895 18.879184 34.80075 18.311114 34.935547 17.757812 C 35.177644 16.764073 35.422953 15.839495 35.611328 15.142578 C 35.705518 14.79412 35.786403 14.502961 35.845703 14.285156 C 35.905003 14.067351 35.917144 14.095303 35.976562 13.769531 L 35.974609 13.771484 C 37.124496 7.4964314 32.338133 2.0019531 25.990234 2.0019531 L 22.009766 2.0019531 z M 22.009766 5.0019531 L 25.990234 5.0019531 C 30.682336 5.0019531 33.865551 8.6454748 33.025391 13.230469 A 1.50015 1.50015 0 0 0 33.023438 13.232422 C 33.068858 12.9834 33.008902 13.284052 32.951172 13.496094 C 32.893442 13.708137 32.812734 14.004443 32.716797 14.359375 C 32.524922 15.069239 32.272387 16.018943 32.021484 17.048828 C 31.51973 19.108551 31 21.389122 31 23.097656 L 31 23.542969 C 31 27.835658 32.277019 32.748998 34.621094 36.328125 C 35.793131 38.117688 37.255975 39.60257 39.105469 40.357422 C 39.64473 40.577516 40.256764 40.555139 40.845703 40.621094 C 40.346235 41.143884 39.924604 41.724483 39.335938 42.085938 C 38.276887 42.736216 37.312184 42.984226 36.152344 42.546875 C 34.992503 42.109524 33.442952 40.796588 31.78125 37.708984 L 27.511719 29.169922 C 26.847624 27.841733 25.483744 27 24 27 C 22.516256 27 21.150129 27.842658 20.486328 29.171875 L 20.488281 29.171875 L 16.21875 37.708984 C 14.560842 40.789303 13.033509 42.008836 11.919922 42.365234 C 10.806335 42.721633 9.8299379 42.407824 8.7480469 41.640625 C 8.3736884 41.375158 8.133299 40.953211 7.7910156 40.609375 C 8.0223742 40.583115 8.2686138 40.701218 8.4941406 40.642578 C 10.458802 40.131714 11.967745 38.655336 13.179688 36.869141 C 15.603573 33.296749 17 28.230157 17 24.207031 L 17 23.097656 C 17 21.389122 16.480321 19.108598 15.978516 17.048828 C 15.727613 16.018943 15.475078 15.069239 15.283203 14.359375 C 15.187263 14.004443 15.106559 13.708137 15.048828 13.496094 C 14.991098 13.284051 14.931142 12.9834 14.976562 13.232422 A 1.50015 1.50015 0 0 0 14.974609 13.230469 C 14.133649 8.6457147 17.317664 5.0019531 22.009766 5.0019531 z M 20.5 14 A 1.5 1.5 0 0 0 20.5 17 A 1.5 1.5 0 0 0 20.5 14 z M 27.5 14 A 1.5 1.5 0 0 0 27.5 17 A 1.5 1.5 0 0 0 27.5 14 z M 13.914062 22.078125 C 13.967431 22.488646 14 22.841684 14 23.097656 L 14 24.207031 C 14 25.050419 13.907456 25.99918 13.740234 26.990234 A 1.50015 1.50015 0 0 0 13.353516 27.074219 C 10.542595 27.987152 8.8963963 27.702651 7.7871094 27.029297 C 6.79122 26.424775 6.1254433 25.316489 5.6621094 23.992188 C 6.5439857 24.525979 7.5564285 24.887234 8.7480469 24.738281 C 10.339439 24.539357 12.008475 23.689938 13.914062 22.078125 z M 34.009766 22.976562 C 35.778776 24.408667 37.404154 25.121467 38.966797 25.171875 C 40.410003 25.218435 41.535885 24.560898 42.480469 23.751953 C 42.451339 23.859925 42.46949 23.961715 42.4375 24.068359 C 41.937391 25.735391 41.122842 27.120776 39.904297 27.886719 C 38.775803 28.596057 37.161715 28.91778 34.568359 28.236328 C 34.207405 26.636229 34 25.017657 34 23.542969 L 34 23.097656 C 34 23.06686 34.0089 23.009985 34.009766 22.976562 z"/></svg>