<svg xmlns="http://www.w3.org/2000/svg"  viewBox="0 0 48 48" width="50px" height="50px"><path d="M 8.4296875 0.98046875 A 1.50015 1.50015 0 0 0 7.0527344 2.1074219 C 7.0527344 2.1074219 6.480481 4.0653888 6.8046875 6.2226562 C 6.8776555 6.7081848 7.0236814 7.2202497 7.2226562 7.7226562 C 6.0368473 7.3272789 5.3170581 6.6854034 4.8574219 6.0214844 C 4.0193037 4.8108692 4 3.5 4 3.5 A 1.50015 1.50015 0 1 0 1 3.5 C 1 3.5 0.98069633 5.6891308 2.3925781 7.7285156 C 3.5354112 9.3792745 5.7678798 10.781118 9.1425781 10.994141 C 8.7091252 12.125171 8.595074 13.387834 9.2167969 14.578125 C 10.971453 17.936063 14.218878 20.006044 17.560547 21.361328 C 17.247183 21.697091 16.983163 22.055568 16.791016 22.410156 C 15.959644 23.944366 16 25.5 16 25.5 A 1.50015 1.50015 0 1 0 19 25.5 C 19 25.5 19.03985 24.555634 19.427734 23.839844 C 19.621674 23.481949 19.853722 23.224742 20.205078 23.056641 C 20.556435 22.888539 21.097873 22.768155 22.076172 22.96875 A 1.50015 1.50015 0 0 0 22.265625 22.996094 C 22.020571 23.242509 21.674014 23.364615 21.482422 23.667969 C 20.908628 24.576475 20.691775 25.821419 21.076172 26.974609 A 1.5008464 1.5008464 0 1 0 23.923828 26.025391 C 23.808225 25.678581 23.841368 25.548525 24.017578 25.269531 C 24.193785 24.990538 24.598807 24.627354 25.169922 24.341797 C 25.962324 23.945596 26.970606 23.825169 27.882812 23.845703 C 28.39667 23.894863 28.988428 23.959954 29.107422 23.966797 C 29.213747 24.013077 29.321812 24.058137 29.423828 24.109375 C 32.483196 25.652637 33.127605 29.79644 30.855469 32.447266 A 1.50015 1.50015 0 0 0 30.853516 32.449219 L 30.652344 32.683594 C 28.856144 34.778164 26.240094 35.977745 23.482422 35.990234 L 19.689453 35.443359 C 18.583349 35.284183 17.532487 35.930689 17.097656 36.798828 C 16.662826 37.666967 16.774192 38.897239 17.564453 39.6875 L 19.740234 41.861328 L 18.792969 44.230469 C 18.086435 45.998002 19.739277 47.991077 21.609375 47.609375 C 27.003366 46.507585 39.147213 43.596096 44.623047 33.283203 C 47.166775 28.493575 48.08087 23.097679 45.880859 17.914062 C 45.095983 16.064066 44.114785 14.464516 42.943359 13.025391 A 1.50015 1.50015 0 0 0 41.980469 12.074219 C 41.466946 11.570974 41.080374 10.970847 40.443359 10.556641 C 37.749489 8.8050053 34.051183 8 28.5 8 L 13.21875 8 C 13.12476 8 13.057022 8.0645535 12.964844 8.0703125 A 1.50015 1.50015 0 0 0 12.5 8 C 11.322811 8 10.805607 7.7047296 10.453125 7.3496094 C 10.100643 6.9944891 9.8723811 6.44871 9.7714844 5.7773438 C 9.5696909 4.4346113 9.9472656 2.8925781 9.9472656 2.8925781 A 1.50015 1.50015 0 0 0 8.4296875 0.98046875 z M 13.21875 11 L 28.5 11 C 33.019152 11 35.718874 11.662688 37.705078 12.644531 C 36.172315 13.090956 34.799143 13.652433 33.806641 14.169922 A 1.50015 1.50015 0 1 0 35.193359 16.830078 C 36.611854 16.090477 38.755994 15.274198 40.865234 15.113281 C 41.694616 16.191399 42.424095 17.447676 43.119141 19.085938 C 44.322732 21.921813 44.334957 24.788443 43.585938 27.648438 C 42.581285 27.371571 41.217622 27.074898 39.566406 27.001953 A 1.50015 1.50015 0 1 0 39.433594 29.998047 C 40.646219 30.051617 41.755123 30.273391 42.576172 30.482422 C 42.36857 30.947049 42.218779 31.413525 41.972656 31.876953 C 39.820457 35.93029 36.306071 38.612913 32.667969 40.558594 L 30.03125 37.041016 C 31.095465 36.376262 32.097715 35.607546 32.931641 34.634766 A 1.50015 1.50015 0 0 0 32.933594 34.634766 L 33.132812 34.400391 L 33.134766 34.398438 C 36.608397 30.343174 35.601192 23.86596 30.775391 21.431641 A 1.50015 1.50015 0 0 0 30.773438 21.429688 C 30.60004 21.342537 30.412432 21.263239 30.224609 21.183594 A 1.50015 1.50015 0 0 0 29.974609 21.076172 C 29.970209 21.074672 29.965408 21.075732 29.960938 21.074219 A 1.50015 1.50015 0 0 0 29.574219 21.001953 C 29.574219 21.001953 26.012524 20.819686 21.966797 19.699219 C 17.921666 18.579002 13.599179 16.487386 11.875 13.189453 C 11.329029 12.144188 12.032445 11 13.21875 11 z M 19.5 13 A 1.5 1.5 0 0 0 19.5 16 A 1.5 1.5 0 0 0 19.5 13 z M 27.25 38.330078 A 1.50015 1.50015 0 0 0 27.300781 38.400391 L 29.914062 41.882812 C 26.914784 43.14333 24.103596 43.967859 21.941406 44.4375 L 22.892578 42.056641 A 1.50015 1.50015 0 0 0 22.560547 40.439453 L 20.75 38.628906 L 23.226562 38.984375 A 1.50015 1.50015 0 0 0 23.441406 39 C 24.756727 39 26.024214 38.7251 27.25 38.330078 z"/></svg>